<?xml version="1.0" encoding="utf-8" standalone="no"?>
<!DOCTYPE svg PUBLIC "-//W3C//DTD SVG 1.1//EN"
  "http://www.w3.org/Graphics/SVG/1.1/DTD/svg11.dtd">
<svg xmlns:xlink="http://www.w3.org/1999/xlink" width="864pt" height="720pt" viewBox="0 0 864 720" xmlns="http://www.w3.org/2000/svg" version="1.1">
 <metadata>
  <rdf:RDF xmlns:dc="http://purl.org/dc/elements/1.1/" xmlns:cc="http://creativecommons.org/ns#" xmlns:rdf="http://www.w3.org/1999/02/22-rdf-syntax-ns#">
   <cc:Work>
    <dc:type rdf:resource="http://purl.org/dc/dcmitype/StillImage"/>
    <dc:date>2025-03-04T22:14:13.758548</dc:date>
    <dc:format>image/svg+xml</dc:format>
    <dc:creator>
     <cc:Agent>
      <dc:title>Matplotlib v3.9.2, https://matplotlib.org/</dc:title>
     </cc:Agent>
    </dc:creator>
   </cc:Work>
  </rdf:RDF>
 </metadata>
 <defs>
  <style type="text/css">*{stroke-linejoin: round; stroke-linecap: butt}</style>
 </defs>
 <g id="figure_1">
  <g id="patch_1">
   <path d="M 0 720 
L 864 720 
L 864 0 
L 0 0 
z
" style="fill: #ffffff"/>
  </g>
  <g id="axes_1">
   <g id="patch_2">
    <path d="M 63.882 664.308 
L 848.448 664.308 
L 848.448 45.504 
L 63.882 45.504 
z
" style="fill: #eaeaf2"/>
   </g>
   <g id="matplotlib.axis_1">
    <g id="xtick_1">
     <g id="line2d_1">
      <path d="M 96.152527 664.308 
L 96.152527 45.504 
" clip-path="url(#p102d89a5ae)" style="fill: none; stroke: #ffffff; stroke-linecap: round"/>
     </g>
     <g id="text_1">
      <!-- −4 -->
      <g style="fill: #262626" transform="translate(86.422683 683.837937) scale(0.132 -0.132)">
       <defs>
        <path id="DejaVuSans-2212" d="M 678 2272 
L 4684 2272 
L 4684 1741 
L 678 1741 
L 678 2272 
z
" transform="scale(0.015625)"/>
        <path id="DejaVuSans-34" d="M 2419 4116 
L 825 1625 
L 2419 1625 
L 2419 4116 
z
M 2253 4666 
L 3047 4666 
L 3047 1625 
L 3713 1625 
L 3713 1100 
L 3047 1100 
L 3047 0 
L 2419 0 
L 2419 1100 
L 313 1100 
L 313 1709 
L 2253 4666 
z
" transform="scale(0.015625)"/>
       </defs>
       <use xlink:href="#DejaVuSans-2212"/>
       <use xlink:href="#DejaVuSans-34" x="83.789062"/>
      </g>
     </g>
    </g>
    <g id="xtick_2">
     <g id="line2d_2">
      <path d="M 267.345473 664.308 
L 267.345473 45.504 
" clip-path="url(#p102d89a5ae)" style="fill: none; stroke: #ffffff; stroke-linecap: round"/>
     </g>
     <g id="text_2">
      <!-- −2 -->
      <g style="fill: #262626" transform="translate(257.615629 683.837937) scale(0.132 -0.132)">
       <defs>
        <path id="DejaVuSans-32" d="M 1228 531 
L 3431 531 
L 3431 0 
L 469 0 
L 469 531 
Q 828 903 1448 1529 
Q 2069 2156 2228 2338 
Q 2531 2678 2651 2914 
Q 2772 3150 2772 3378 
Q 2772 3750 2511 3984 
Q 2250 4219 1831 4219 
Q 1534 4219 1204 4116 
Q 875 4013 500 3803 
L 500 4441 
Q 881 4594 1212 4672 
Q 1544 4750 1819 4750 
Q 2544 4750 2975 4387 
Q 3406 4025 3406 3419 
Q 3406 3131 3298 2873 
Q 3191 2616 2906 2266 
Q 2828 2175 2409 1742 
Q 1991 1309 1228 531 
z
" transform="scale(0.015625)"/>
       </defs>
       <use xlink:href="#DejaVuSans-2212"/>
       <use xlink:href="#DejaVuSans-32" x="83.789062"/>
      </g>
     </g>
    </g>
    <g id="xtick_3">
     <g id="line2d_3">
      <path d="M 438.538418 664.308 
L 438.538418 45.504 
" clip-path="url(#p102d89a5ae)" style="fill: none; stroke: #ffffff; stroke-linecap: round"/>
     </g>
     <g id="text_3">
      <!-- 0 -->
      <g style="fill: #262626" transform="translate(434.339168 683.837937) scale(0.132 -0.132)">
       <defs>
        <path id="DejaVuSans-30" d="M 2034 4250 
Q 1547 4250 1301 3770 
Q 1056 3291 1056 2328 
Q 1056 1369 1301 889 
Q 1547 409 2034 409 
Q 2525 409 2770 889 
Q 3016 1369 3016 2328 
Q 3016 3291 2770 3770 
Q 2525 4250 2034 4250 
z
M 2034 4750 
Q 2819 4750 3233 4129 
Q 3647 3509 3647 2328 
Q 3647 1150 3233 529 
Q 2819 -91 2034 -91 
Q 1250 -91 836 529 
Q 422 1150 422 2328 
Q 422 3509 836 4129 
Q 1250 4750 2034 4750 
z
" transform="scale(0.015625)"/>
       </defs>
       <use xlink:href="#DejaVuSans-30"/>
      </g>
     </g>
    </g>
    <g id="xtick_4">
     <g id="line2d_4">
      <path d="M 609.731364 664.308 
L 609.731364 45.504 
" clip-path="url(#p102d89a5ae)" style="fill: none; stroke: #ffffff; stroke-linecap: round"/>
     </g>
     <g id="text_4">
      <!-- 2 -->
      <g style="fill: #262626" transform="translate(605.532114 683.837937) scale(0.132 -0.132)">
       <use xlink:href="#DejaVuSans-32"/>
      </g>
     </g>
    </g>
    <g id="xtick_5">
     <g id="line2d_5">
      <path d="M 780.92431 664.308 
L 780.92431 45.504 
" clip-path="url(#p102d89a5ae)" style="fill: none; stroke: #ffffff; stroke-linecap: round"/>
     </g>
     <g id="text_5">
      <!-- 4 -->
      <g style="fill: #262626" transform="translate(776.72506 683.837937) scale(0.132 -0.132)">
       <use xlink:href="#DejaVuSans-34"/>
      </g>
     </g>
    </g>
    <g id="text_6">
     <!-- Action -->
     <g style="fill: #262626" transform="translate(433.6155 701.524875) scale(0.144 -0.144)">
      <defs>
       <path id="DejaVuSans-41" d="M 2188 4044 
L 1331 1722 
L 3047 1722 
L 2188 4044 
z
M 1831 4666 
L 2547 4666 
L 4325 0 
L 3669 0 
L 3244 1197 
L 1141 1197 
L 716 0 
L 50 0 
L 1831 4666 
z
" transform="scale(0.015625)"/>
       <path id="DejaVuSans-63" d="M 3122 3366 
L 3122 2828 
Q 2878 2963 2633 3030 
Q 2388 3097 2138 3097 
Q 1578 3097 1268 2742 
Q 959 2388 959 1747 
Q 959 1106 1268 751 
Q 1578 397 2138 397 
Q 2388 397 2633 464 
Q 2878 531 3122 666 
L 3122 134 
Q 2881 22 2623 -34 
Q 2366 -91 2075 -91 
Q 1284 -91 818 406 
Q 353 903 353 1747 
Q 353 2603 823 3093 
Q 1294 3584 2113 3584 
Q 2378 3584 2631 3529 
Q 2884 3475 3122 3366 
z
" transform="scale(0.015625)"/>
       <path id="DejaVuSans-74" d="M 1172 4494 
L 1172 3500 
L 2356 3500 
L 2356 3053 
L 1172 3053 
L 1172 1153 
Q 1172 725 1289 603 
Q 1406 481 1766 481 
L 2356 481 
L 2356 0 
L 1766 0 
Q 1100 0 847 248 
Q 594 497 594 1153 
L 594 3053 
L 172 3053 
L 172 3500 
L 594 3500 
L 594 4494 
L 1172 4494 
z
" transform="scale(0.015625)"/>
       <path id="DejaVuSans-69" d="M 603 3500 
L 1178 3500 
L 1178 0 
L 603 0 
L 603 3500 
z
M 603 4863 
L 1178 4863 
L 1178 4134 
L 603 4134 
L 603 4863 
z
" transform="scale(0.015625)"/>
       <path id="DejaVuSans-6f" d="M 1959 3097 
Q 1497 3097 1228 2736 
Q 959 2375 959 1747 
Q 959 1119 1226 758 
Q 1494 397 1959 397 
Q 2419 397 2687 759 
Q 2956 1122 2956 1747 
Q 2956 2369 2687 2733 
Q 2419 3097 1959 3097 
z
M 1959 3584 
Q 2709 3584 3137 3096 
Q 3566 2609 3566 1747 
Q 3566 888 3137 398 
Q 2709 -91 1959 -91 
Q 1206 -91 779 398 
Q 353 888 353 1747 
Q 353 2609 779 3096 
Q 1206 3584 1959 3584 
z
" transform="scale(0.015625)"/>
       <path id="DejaVuSans-6e" d="M 3513 2113 
L 3513 0 
L 2938 0 
L 2938 2094 
Q 2938 2591 2744 2837 
Q 2550 3084 2163 3084 
Q 1697 3084 1428 2787 
Q 1159 2491 1159 1978 
L 1159 0 
L 581 0 
L 581 3500 
L 1159 3500 
L 1159 2956 
Q 1366 3272 1645 3428 
Q 1925 3584 2291 3584 
Q 2894 3584 3203 3211 
Q 3513 2838 3513 2113 
z
" transform="scale(0.015625)"/>
      </defs>
      <use xlink:href="#DejaVuSans-41"/>
      <use xlink:href="#DejaVuSans-63" x="66.658203"/>
      <use xlink:href="#DejaVuSans-74" x="121.638672"/>
      <use xlink:href="#DejaVuSans-69" x="160.847656"/>
      <use xlink:href="#DejaVuSans-6f" x="188.630859"/>
      <use xlink:href="#DejaVuSans-6e" x="249.8125"/>
     </g>
    </g>
   </g>
   <g id="matplotlib.axis_2">
    <g id="ytick_1">
     <g id="line2d_6">
      <path d="M 63.882 658.733189 
L 848.448 658.733189 
" clip-path="url(#p102d89a5ae)" style="fill: none; stroke: #ffffff; stroke-linecap: round"/>
     </g>
     <g id="text_7">
      <!-- 0.0 -->
      <g style="fill: #262626" transform="translate(33.389875 663.748158) scale(0.132 -0.132)">
       <defs>
        <path id="DejaVuSans-2e" d="M 684 794 
L 1344 794 
L 1344 0 
L 684 0 
L 684 794 
z
" transform="scale(0.015625)"/>
       </defs>
       <use xlink:href="#DejaVuSans-30"/>
       <use xlink:href="#DejaVuSans-2e" x="63.623047"/>
       <use xlink:href="#DejaVuSans-30" x="95.410156"/>
      </g>
     </g>
    </g>
    <g id="ytick_2">
     <g id="line2d_7">
      <path d="M 63.882 547.236973 
L 848.448 547.236973 
" clip-path="url(#p102d89a5ae)" style="fill: none; stroke: #ffffff; stroke-linecap: round"/>
     </g>
     <g id="text_8">
      <!-- 0.2 -->
      <g style="fill: #262626" transform="translate(33.389875 552.251942) scale(0.132 -0.132)">
       <use xlink:href="#DejaVuSans-30"/>
       <use xlink:href="#DejaVuSans-2e" x="63.623047"/>
       <use xlink:href="#DejaVuSans-32" x="95.410156"/>
      </g>
     </g>
    </g>
    <g id="ytick_3">
     <g id="line2d_8">
      <path d="M 63.882 435.740757 
L 848.448 435.740757 
" clip-path="url(#p102d89a5ae)" style="fill: none; stroke: #ffffff; stroke-linecap: round"/>
     </g>
     <g id="text_9">
      <!-- 0.4 -->
      <g style="fill: #262626" transform="translate(33.389875 440.755726) scale(0.132 -0.132)">
       <use xlink:href="#DejaVuSans-30"/>
       <use xlink:href="#DejaVuSans-2e" x="63.623047"/>
       <use xlink:href="#DejaVuSans-34" x="95.410156"/>
      </g>
     </g>
    </g>
    <g id="ytick_4">
     <g id="line2d_9">
      <path d="M 63.882 324.244541 
L 848.448 324.244541 
" clip-path="url(#p102d89a5ae)" style="fill: none; stroke: #ffffff; stroke-linecap: round"/>
     </g>
     <g id="text_10">
      <!-- 0.6 -->
      <g style="fill: #262626" transform="translate(33.389875 329.259509) scale(0.132 -0.132)">
       <defs>
        <path id="DejaVuSans-36" d="M 2113 2584 
Q 1688 2584 1439 2293 
Q 1191 2003 1191 1497 
Q 1191 994 1439 701 
Q 1688 409 2113 409 
Q 2538 409 2786 701 
Q 3034 994 3034 1497 
Q 3034 2003 2786 2293 
Q 2538 2584 2113 2584 
z
M 3366 4563 
L 3366 3988 
Q 3128 4100 2886 4159 
Q 2644 4219 2406 4219 
Q 1781 4219 1451 3797 
Q 1122 3375 1075 2522 
Q 1259 2794 1537 2939 
Q 1816 3084 2150 3084 
Q 2853 3084 3261 2657 
Q 3669 2231 3669 1497 
Q 3669 778 3244 343 
Q 2819 -91 2113 -91 
Q 1303 -91 875 529 
Q 447 1150 447 2328 
Q 447 3434 972 4092 
Q 1497 4750 2381 4750 
Q 2619 4750 2861 4703 
Q 3103 4656 3366 4563 
z
" transform="scale(0.015625)"/>
       </defs>
       <use xlink:href="#DejaVuSans-30"/>
       <use xlink:href="#DejaVuSans-2e" x="63.623047"/>
       <use xlink:href="#DejaVuSans-36" x="95.410156"/>
      </g>
     </g>
    </g>
    <g id="ytick_5">
     <g id="line2d_10">
      <path d="M 63.882 212.748324 
L 848.448 212.748324 
" clip-path="url(#p102d89a5ae)" style="fill: none; stroke: #ffffff; stroke-linecap: round"/>
     </g>
     <g id="text_11">
      <!-- 0.8 -->
      <g style="fill: #262626" transform="translate(33.389875 217.763293) scale(0.132 -0.132)">
       <defs>
        <path id="DejaVuSans-38" d="M 2034 2216 
Q 1584 2216 1326 1975 
Q 1069 1734 1069 1313 
Q 1069 891 1326 650 
Q 1584 409 2034 409 
Q 2484 409 2743 651 
Q 3003 894 3003 1313 
Q 3003 1734 2745 1975 
Q 2488 2216 2034 2216 
z
M 1403 2484 
Q 997 2584 770 2862 
Q 544 3141 544 3541 
Q 544 4100 942 4425 
Q 1341 4750 2034 4750 
Q 2731 4750 3128 4425 
Q 3525 4100 3525 3541 
Q 3525 3141 3298 2862 
Q 3072 2584 2669 2484 
Q 3125 2378 3379 2068 
Q 3634 1759 3634 1313 
Q 3634 634 3220 271 
Q 2806 -91 2034 -91 
Q 1263 -91 848 271 
Q 434 634 434 1313 
Q 434 1759 690 2068 
Q 947 2378 1403 2484 
z
M 1172 3481 
Q 1172 3119 1398 2916 
Q 1625 2713 2034 2713 
Q 2441 2713 2670 2916 
Q 2900 3119 2900 3481 
Q 2900 3844 2670 4047 
Q 2441 4250 2034 4250 
Q 1625 4250 1398 4047 
Q 1172 3844 1172 3481 
z
" transform="scale(0.015625)"/>
       </defs>
       <use xlink:href="#DejaVuSans-30"/>
       <use xlink:href="#DejaVuSans-2e" x="63.623047"/>
       <use xlink:href="#DejaVuSans-38" x="95.410156"/>
      </g>
     </g>
    </g>
    <g id="ytick_6">
     <g id="line2d_11">
      <path d="M 63.882 101.252108 
L 848.448 101.252108 
" clip-path="url(#p102d89a5ae)" style="fill: none; stroke: #ffffff; stroke-linecap: round"/>
     </g>
     <g id="text_12">
      <!-- 1.0 -->
      <g style="fill: #262626" transform="translate(33.389875 106.267077) scale(0.132 -0.132)">
       <defs>
        <path id="DejaVuSans-31" d="M 794 531 
L 1825 531 
L 1825 4091 
L 703 3866 
L 703 4441 
L 1819 4666 
L 2450 4666 
L 2450 531 
L 3481 531 
L 3481 0 
L 794 0 
L 794 531 
z
" transform="scale(0.015625)"/>
       </defs>
       <use xlink:href="#DejaVuSans-31"/>
       <use xlink:href="#DejaVuSans-2e" x="63.623047"/>
       <use xlink:href="#DejaVuSans-30" x="95.410156"/>
      </g>
     </g>
    </g>
    <g id="text_13">
     <!-- Density -->
     <g style="fill: #262626" transform="translate(26.395125 382.278375) rotate(-90) scale(0.144 -0.144)">
      <defs>
       <path id="DejaVuSans-44" d="M 1259 4147 
L 1259 519 
L 2022 519 
Q 2988 519 3436 956 
Q 3884 1394 3884 2338 
Q 3884 3275 3436 3711 
Q 2988 4147 2022 4147 
L 1259 4147 
z
M 628 4666 
L 1925 4666 
Q 3281 4666 3915 4102 
Q 4550 3538 4550 2338 
Q 4550 1131 3912 565 
Q 3275 0 1925 0 
L 628 0 
L 628 4666 
z
" transform="scale(0.015625)"/>
       <path id="DejaVuSans-65" d="M 3597 1894 
L 3597 1613 
L 953 1613 
Q 991 1019 1311 708 
Q 1631 397 2203 397 
Q 2534 397 2845 478 
Q 3156 559 3463 722 
L 3463 178 
Q 3153 47 2828 -22 
Q 2503 -91 2169 -91 
Q 1331 -91 842 396 
Q 353 884 353 1716 
Q 353 2575 817 3079 
Q 1281 3584 2069 3584 
Q 2775 3584 3186 3129 
Q 3597 2675 3597 1894 
z
M 3022 2063 
Q 3016 2534 2758 2815 
Q 2500 3097 2075 3097 
Q 1594 3097 1305 2825 
Q 1016 2553 972 2059 
L 3022 2063 
z
" transform="scale(0.015625)"/>
       <path id="DejaVuSans-73" d="M 2834 3397 
L 2834 2853 
Q 2591 2978 2328 3040 
Q 2066 3103 1784 3103 
Q 1356 3103 1142 2972 
Q 928 2841 928 2578 
Q 928 2378 1081 2264 
Q 1234 2150 1697 2047 
L 1894 2003 
Q 2506 1872 2764 1633 
Q 3022 1394 3022 966 
Q 3022 478 2636 193 
Q 2250 -91 1575 -91 
Q 1294 -91 989 -36 
Q 684 19 347 128 
L 347 722 
Q 666 556 975 473 
Q 1284 391 1588 391 
Q 1994 391 2212 530 
Q 2431 669 2431 922 
Q 2431 1156 2273 1281 
Q 2116 1406 1581 1522 
L 1381 1569 
Q 847 1681 609 1914 
Q 372 2147 372 2553 
Q 372 3047 722 3315 
Q 1072 3584 1716 3584 
Q 2034 3584 2315 3537 
Q 2597 3491 2834 3397 
z
" transform="scale(0.015625)"/>
       <path id="DejaVuSans-79" d="M 2059 -325 
Q 1816 -950 1584 -1140 
Q 1353 -1331 966 -1331 
L 506 -1331 
L 506 -850 
L 844 -850 
Q 1081 -850 1212 -737 
Q 1344 -625 1503 -206 
L 1606 56 
L 191 3500 
L 800 3500 
L 1894 763 
L 2988 3500 
L 3597 3500 
L 2059 -325 
z
" transform="scale(0.015625)"/>
      </defs>
      <use xlink:href="#DejaVuSans-44"/>
      <use xlink:href="#DejaVuSans-65" x="77.001953"/>
      <use xlink:href="#DejaVuSans-6e" x="138.525391"/>
      <use xlink:href="#DejaVuSans-73" x="201.904297"/>
      <use xlink:href="#DejaVuSans-69" x="254.003906"/>
      <use xlink:href="#DejaVuSans-74" x="281.787109"/>
      <use xlink:href="#DejaVuSans-79" x="320.996094"/>
     </g>
    </g>
   </g>
   <g id="patch_3">
    <path d="M 99.544091 658.733189 
L 104.497159 658.733189 
L 104.497159 658.540507 
L 99.544091 658.540507 
z
" clip-path="url(#p102d89a5ae)" style="fill: #4c72b0; fill-opacity: 0.5; stroke: #ffffff; stroke-width: 0.422727; stroke-linejoin: miter"/>
   </g>
   <g id="patch_4">
    <path d="M 104.497159 658.733189 
L 109.450227 658.733189 
L 109.450227 658.733189 
L 104.497159 658.733189 
z
" clip-path="url(#p102d89a5ae)" style="fill: #4c72b0; fill-opacity: 0.5; stroke: #ffffff; stroke-width: 0.422727; stroke-linejoin: miter"/>
   </g>
   <g id="patch_5">
    <path d="M 109.450227 658.733189 
L 114.403295 658.733189 
L 114.403295 658.733189 
L 109.450227 658.733189 
z
" clip-path="url(#p102d89a5ae)" style="fill: #4c72b0; fill-opacity: 0.5; stroke: #ffffff; stroke-width: 0.422727; stroke-linejoin: miter"/>
   </g>
   <g id="patch_6">
    <path d="M 114.403295 658.733189 
L 119.356364 658.733189 
L 119.356364 658.636848 
L 114.403295 658.636848 
z
" clip-path="url(#p102d89a5ae)" style="fill: #4c72b0; fill-opacity: 0.5; stroke: #ffffff; stroke-width: 0.422727; stroke-linejoin: miter"/>
   </g>
   <g id="patch_7">
    <path d="M 119.356364 658.733189 
L 124.309432 658.733189 
L 124.309432 658.636848 
L 119.356364 658.636848 
z
" clip-path="url(#p102d89a5ae)" style="fill: #4c72b0; fill-opacity: 0.5; stroke: #ffffff; stroke-width: 0.422727; stroke-linejoin: miter"/>
   </g>
   <g id="patch_8">
    <path d="M 124.309432 658.733189 
L 129.2625 658.733189 
L 129.2625 658.058801 
L 124.309432 658.058801 
z
" clip-path="url(#p102d89a5ae)" style="fill: #4c72b0; fill-opacity: 0.5; stroke: #ffffff; stroke-width: 0.422727; stroke-linejoin: miter"/>
   </g>
   <g id="patch_9">
    <path d="M 129.2625 658.733189 
L 134.215568 658.733189 
L 134.215568 658.347825 
L 129.2625 658.347825 
z
" clip-path="url(#p102d89a5ae)" style="fill: #4c72b0; fill-opacity: 0.5; stroke: #ffffff; stroke-width: 0.422727; stroke-linejoin: miter"/>
   </g>
   <g id="patch_10">
    <path d="M 134.215568 658.733189 
L 139.168636 658.733189 
L 139.168636 658.058801 
L 134.215568 658.058801 
z
" clip-path="url(#p102d89a5ae)" style="fill: #4c72b0; fill-opacity: 0.5; stroke: #ffffff; stroke-width: 0.422727; stroke-linejoin: miter"/>
   </g>
   <g id="patch_11">
    <path d="M 139.168636 658.733189 
L 144.121705 658.733189 
L 144.121705 658.155142 
L 139.168636 658.155142 
z
" clip-path="url(#p102d89a5ae)" style="fill: #4c72b0; fill-opacity: 0.5; stroke: #ffffff; stroke-width: 0.422727; stroke-linejoin: miter"/>
   </g>
   <g id="patch_12">
    <path d="M 144.121705 658.733189 
L 149.074773 658.733189 
L 149.074773 657.866119 
L 144.121705 657.866119 
z
" clip-path="url(#p102d89a5ae)" style="fill: #4c72b0; fill-opacity: 0.5; stroke: #ffffff; stroke-width: 0.422727; stroke-linejoin: miter"/>
   </g>
   <g id="patch_13">
    <path d="M 149.074773 658.733189 
L 154.027841 658.733189 
L 154.027841 657.577096 
L 149.074773 657.577096 
z
" clip-path="url(#p102d89a5ae)" style="fill: #4c72b0; fill-opacity: 0.5; stroke: #ffffff; stroke-width: 0.422727; stroke-linejoin: miter"/>
   </g>
   <g id="patch_14">
    <path d="M 154.027841 658.733189 
L 158.980909 658.733189 
L 158.980909 657.866119 
L 154.027841 657.866119 
z
" clip-path="url(#p102d89a5ae)" style="fill: #4c72b0; fill-opacity: 0.5; stroke: #ffffff; stroke-width: 0.422727; stroke-linejoin: miter"/>
   </g>
   <g id="patch_15">
    <path d="M 158.980909 658.733189 
L 163.933977 658.733189 
L 163.933977 657.384413 
L 158.980909 657.384413 
z
" clip-path="url(#p102d89a5ae)" style="fill: #4c72b0; fill-opacity: 0.5; stroke: #ffffff; stroke-width: 0.422727; stroke-linejoin: miter"/>
   </g>
   <g id="patch_16">
    <path d="M 163.933977 658.733189 
L 168.887045 658.733189 
L 168.887045 657.09539 
L 163.933977 657.09539 
z
" clip-path="url(#p102d89a5ae)" style="fill: #4c72b0; fill-opacity: 0.5; stroke: #ffffff; stroke-width: 0.422727; stroke-linejoin: miter"/>
   </g>
   <g id="patch_17">
    <path d="M 168.887045 658.733189 
L 173.840114 658.733189 
L 173.840114 657.09539 
L 168.887045 657.09539 
z
" clip-path="url(#p102d89a5ae)" style="fill: #4c72b0; fill-opacity: 0.5; stroke: #ffffff; stroke-width: 0.422727; stroke-linejoin: miter"/>
   </g>
   <g id="patch_18">
    <path d="M 173.840114 658.733189 
L 178.793182 658.733189 
L 178.793182 656.324661 
L 173.840114 656.324661 
z
" clip-path="url(#p102d89a5ae)" style="fill: #4c72b0; fill-opacity: 0.5; stroke: #ffffff; stroke-width: 0.422727; stroke-linejoin: miter"/>
   </g>
   <g id="patch_19">
    <path d="M 178.793182 658.733189 
L 183.74625 658.733189 
L 183.74625 656.710026 
L 178.793182 656.710026 
z
" clip-path="url(#p102d89a5ae)" style="fill: #4c72b0; fill-opacity: 0.5; stroke: #ffffff; stroke-width: 0.422727; stroke-linejoin: miter"/>
   </g>
   <g id="patch_20">
    <path d="M 183.74625 658.733189 
L 188.699318 658.733189 
L 188.699318 656.22832 
L 183.74625 656.22832 
z
" clip-path="url(#p102d89a5ae)" style="fill: #4c72b0; fill-opacity: 0.5; stroke: #ffffff; stroke-width: 0.422727; stroke-linejoin: miter"/>
   </g>
   <g id="patch_21">
    <path d="M 188.699318 658.733189 
L 193.652386 658.733189 
L 193.652386 655.36125 
L 188.699318 655.36125 
z
" clip-path="url(#p102d89a5ae)" style="fill: #4c72b0; fill-opacity: 0.5; stroke: #ffffff; stroke-width: 0.422727; stroke-linejoin: miter"/>
   </g>
   <g id="patch_22">
    <path d="M 193.652386 658.733189 
L 198.605455 658.733189 
L 198.605455 655.072227 
L 193.652386 655.072227 
z
" clip-path="url(#p102d89a5ae)" style="fill: #4c72b0; fill-opacity: 0.5; stroke: #ffffff; stroke-width: 0.422727; stroke-linejoin: miter"/>
   </g>
   <g id="patch_23">
    <path d="M 198.605455 658.733189 
L 203.558523 658.733189 
L 203.558523 653.049063 
L 198.605455 653.049063 
z
" clip-path="url(#p102d89a5ae)" style="fill: #4c72b0; fill-opacity: 0.5; stroke: #ffffff; stroke-width: 0.422727; stroke-linejoin: miter"/>
   </g>
   <g id="patch_24">
    <path d="M 203.558523 658.733189 
L 208.511591 658.733189 
L 208.511591 652.471016 
L 203.558523 652.471016 
z
" clip-path="url(#p102d89a5ae)" style="fill: #4c72b0; fill-opacity: 0.5; stroke: #ffffff; stroke-width: 0.422727; stroke-linejoin: miter"/>
   </g>
   <g id="patch_25">
    <path d="M 208.511591 658.733189 
L 213.464659 658.733189 
L 213.464659 651.218582 
L 208.511591 651.218582 
z
" clip-path="url(#p102d89a5ae)" style="fill: #4c72b0; fill-opacity: 0.5; stroke: #ffffff; stroke-width: 0.422727; stroke-linejoin: miter"/>
   </g>
   <g id="patch_26">
    <path d="M 213.464659 658.733189 
L 218.417727 658.733189 
L 218.417727 651.89297 
L 213.464659 651.89297 
z
" clip-path="url(#p102d89a5ae)" style="fill: #4c72b0; fill-opacity: 0.5; stroke: #ffffff; stroke-width: 0.422727; stroke-linejoin: miter"/>
   </g>
   <g id="patch_27">
    <path d="M 218.417727 658.733189 
L 223.370795 658.733189 
L 223.370795 649.677124 
L 218.417727 649.677124 
z
" clip-path="url(#p102d89a5ae)" style="fill: #4c72b0; fill-opacity: 0.5; stroke: #ffffff; stroke-width: 0.422727; stroke-linejoin: miter"/>
   </g>
   <g id="patch_28">
    <path d="M 223.370795 658.733189 
L 228.323864 658.733189 
L 228.323864 648.617371 
L 223.370795 648.617371 
z
" clip-path="url(#p102d89a5ae)" style="fill: #4c72b0; fill-opacity: 0.5; stroke: #ffffff; stroke-width: 0.422727; stroke-linejoin: miter"/>
   </g>
   <g id="patch_29">
    <path d="M 228.323864 658.733189 
L 233.276932 658.733189 
L 233.276932 647.364937 
L 228.323864 647.364937 
z
" clip-path="url(#p102d89a5ae)" style="fill: #4c72b0; fill-opacity: 0.5; stroke: #ffffff; stroke-width: 0.422727; stroke-linejoin: miter"/>
   </g>
   <g id="patch_30">
    <path d="M 233.276932 658.733189 
L 238.23 658.733189 
L 238.23 643.992998 
L 233.276932 643.992998 
z
" clip-path="url(#p102d89a5ae)" style="fill: #4c72b0; fill-opacity: 0.5; stroke: #ffffff; stroke-width: 0.422727; stroke-linejoin: miter"/>
   </g>
   <g id="patch_31">
    <path d="M 238.23 658.733189 
L 243.183068 658.733189 
L 243.183068 644.860068 
L 238.23 644.860068 
z
" clip-path="url(#p102d89a5ae)" style="fill: #4c72b0; fill-opacity: 0.5; stroke: #ffffff; stroke-width: 0.422727; stroke-linejoin: miter"/>
   </g>
   <g id="patch_32">
    <path d="M 243.183068 658.733189 
L 248.136136 658.733189 
L 248.136136 641.58447 
L 243.183068 641.58447 
z
" clip-path="url(#p102d89a5ae)" style="fill: #4c72b0; fill-opacity: 0.5; stroke: #ffffff; stroke-width: 0.422727; stroke-linejoin: miter"/>
   </g>
   <g id="patch_33">
    <path d="M 248.136136 658.733189 
L 253.089205 658.733189 
L 253.089205 637.827166 
L 248.136136 637.827166 
z
" clip-path="url(#p102d89a5ae)" style="fill: #4c72b0; fill-opacity: 0.5; stroke: #ffffff; stroke-width: 0.422727; stroke-linejoin: miter"/>
   </g>
   <g id="patch_34">
    <path d="M 253.089205 658.733189 
L 258.042273 658.733189 
L 258.042273 634.647909 
L 253.089205 634.647909 
z
" clip-path="url(#p102d89a5ae)" style="fill: #4c72b0; fill-opacity: 0.5; stroke: #ffffff; stroke-width: 0.422727; stroke-linejoin: miter"/>
   </g>
   <g id="patch_35">
    <path d="M 258.042273 658.733189 
L 262.995341 658.733189 
L 262.995341 632.817428 
L 258.042273 632.817428 
z
" clip-path="url(#p102d89a5ae)" style="fill: #4c72b0; fill-opacity: 0.5; stroke: #ffffff; stroke-width: 0.422727; stroke-linejoin: miter"/>
   </g>
   <g id="patch_36">
    <path d="M 262.995341 658.733189 
L 267.948409 658.733189 
L 267.948409 628.963783 
L 262.995341 628.963783 
z
" clip-path="url(#p102d89a5ae)" style="fill: #4c72b0; fill-opacity: 0.5; stroke: #ffffff; stroke-width: 0.422727; stroke-linejoin: miter"/>
   </g>
   <g id="patch_37">
    <path d="M 267.948409 658.733189 
L 272.901477 658.733189 
L 272.901477 625.591843 
L 267.948409 625.591843 
z
" clip-path="url(#p102d89a5ae)" style="fill: #4c72b0; fill-opacity: 0.5; stroke: #ffffff; stroke-width: 0.422727; stroke-linejoin: miter"/>
   </g>
   <g id="patch_38">
    <path d="M 272.901477 658.733189 
L 277.854545 658.733189 
L 277.854545 623.375998 
L 272.901477 623.375998 
z
" clip-path="url(#p102d89a5ae)" style="fill: #4c72b0; fill-opacity: 0.5; stroke: #ffffff; stroke-width: 0.422727; stroke-linejoin: miter"/>
   </g>
   <g id="patch_39">
    <path d="M 277.854545 658.733189 
L 282.807614 658.733189 
L 282.807614 619.907717 
L 277.854545 619.907717 
z
" clip-path="url(#p102d89a5ae)" style="fill: #4c72b0; fill-opacity: 0.5; stroke: #ffffff; stroke-width: 0.422727; stroke-linejoin: miter"/>
   </g>
   <g id="patch_40">
    <path d="M 282.807614 658.733189 
L 287.760682 658.733189 
L 287.760682 616.054072 
L 282.807614 616.054072 
z
" clip-path="url(#p102d89a5ae)" style="fill: #4c72b0; fill-opacity: 0.5; stroke: #ffffff; stroke-width: 0.422727; stroke-linejoin: miter"/>
   </g>
   <g id="patch_41">
    <path d="M 287.760682 658.733189 
L 292.71375 658.733189 
L 292.71375 609.984582 
L 287.760682 609.984582 
z
" clip-path="url(#p102d89a5ae)" style="fill: #4c72b0; fill-opacity: 0.5; stroke: #ffffff; stroke-width: 0.422727; stroke-linejoin: miter"/>
   </g>
   <g id="patch_42">
    <path d="M 292.71375 658.733189 
L 297.666818 658.733189 
L 297.666818 601.699245 
L 292.71375 601.699245 
z
" clip-path="url(#p102d89a5ae)" style="fill: #4c72b0; fill-opacity: 0.5; stroke: #ffffff; stroke-width: 0.422727; stroke-linejoin: miter"/>
   </g>
   <g id="patch_43">
    <path d="M 297.666818 658.733189 
L 302.619886 658.733189 
L 302.619886 599.194376 
L 297.666818 599.194376 
z
" clip-path="url(#p102d89a5ae)" style="fill: #4c72b0; fill-opacity: 0.5; stroke: #ffffff; stroke-width: 0.422727; stroke-linejoin: miter"/>
   </g>
   <g id="patch_44">
    <path d="M 302.619886 658.733189 
L 307.572955 658.733189 
L 307.572955 593.317568 
L 302.619886 593.317568 
z
" clip-path="url(#p102d89a5ae)" style="fill: #4c72b0; fill-opacity: 0.5; stroke: #ffffff; stroke-width: 0.422727; stroke-linejoin: miter"/>
   </g>
   <g id="patch_45">
    <path d="M 307.572955 658.733189 
L 312.526023 658.733189 
L 312.526023 587.440759 
L 307.572955 587.440759 
z
" clip-path="url(#p102d89a5ae)" style="fill: #4c72b0; fill-opacity: 0.5; stroke: #ffffff; stroke-width: 0.422727; stroke-linejoin: miter"/>
   </g>
   <g id="patch_46">
    <path d="M 312.526023 658.733189 
L 317.479091 658.733189 
L 317.479091 579.926152 
L 312.526023 579.926152 
z
" clip-path="url(#p102d89a5ae)" style="fill: #4c72b0; fill-opacity: 0.5; stroke: #ffffff; stroke-width: 0.422727; stroke-linejoin: miter"/>
   </g>
   <g id="patch_47">
    <path d="M 317.479091 658.733189 
L 322.432159 658.733189 
L 322.432159 570.870087 
L 317.479091 570.870087 
z
" clip-path="url(#p102d89a5ae)" style="fill: #4c72b0; fill-opacity: 0.5; stroke: #ffffff; stroke-width: 0.422727; stroke-linejoin: miter"/>
   </g>
   <g id="patch_48">
    <path d="M 322.432159 658.733189 
L 327.385227 658.733189 
L 327.385227 565.667666 
L 322.432159 565.667666 
z
" clip-path="url(#p102d89a5ae)" style="fill: #4c72b0; fill-opacity: 0.5; stroke: #ffffff; stroke-width: 0.422727; stroke-linejoin: miter"/>
   </g>
   <g id="patch_49">
    <path d="M 327.385227 658.733189 
L 332.338295 658.733189 
L 332.338295 557.478671 
L 327.385227 557.478671 
z
" clip-path="url(#p102d89a5ae)" style="fill: #4c72b0; fill-opacity: 0.5; stroke: #ffffff; stroke-width: 0.422727; stroke-linejoin: miter"/>
   </g>
   <g id="patch_50">
    <path d="M 332.338295 658.733189 
L 337.291364 658.733189 
L 337.291364 550.349428 
L 332.338295 550.349428 
z
" clip-path="url(#p102d89a5ae)" style="fill: #4c72b0; fill-opacity: 0.5; stroke: #ffffff; stroke-width: 0.422727; stroke-linejoin: miter"/>
   </g>
   <g id="patch_51">
    <path d="M 337.291364 658.733189 
L 342.244432 658.733189 
L 342.244432 543.316526 
L 337.291364 543.316526 
z
" clip-path="url(#p102d89a5ae)" style="fill: #4c72b0; fill-opacity: 0.5; stroke: #ffffff; stroke-width: 0.422727; stroke-linejoin: miter"/>
   </g>
   <g id="patch_52">
    <path d="M 342.244432 658.733189 
L 347.1975 658.733189 
L 347.1975 537.825082 
L 342.244432 537.825082 
z
" clip-path="url(#p102d89a5ae)" style="fill: #4c72b0; fill-opacity: 0.5; stroke: #ffffff; stroke-width: 0.422727; stroke-linejoin: miter"/>
   </g>
   <g id="patch_53">
    <path d="M 347.1975 658.733189 
L 352.150568 658.733189 
L 352.150568 533.297049 
L 347.1975 533.297049 
z
" clip-path="url(#p102d89a5ae)" style="fill: #4c72b0; fill-opacity: 0.5; stroke: #ffffff; stroke-width: 0.422727; stroke-linejoin: miter"/>
   </g>
   <g id="patch_54">
    <path d="M 352.150568 658.733189 
L 357.103636 658.733189 
L 357.103636 520.290998 
L 352.150568 520.290998 
z
" clip-path="url(#p102d89a5ae)" style="fill: #4c72b0; fill-opacity: 0.5; stroke: #ffffff; stroke-width: 0.422727; stroke-linejoin: miter"/>
   </g>
   <g id="patch_55">
    <path d="M 357.103636 658.733189 
L 362.056705 658.733189 
L 362.056705 513.547119 
L 357.103636 513.547119 
z
" clip-path="url(#p102d89a5ae)" style="fill: #4c72b0; fill-opacity: 0.5; stroke: #ffffff; stroke-width: 0.422727; stroke-linejoin: miter"/>
   </g>
   <g id="patch_56">
    <path d="M 362.056705 658.733189 
L 367.009773 658.733189 
L 367.009773 501.793503 
L 362.056705 501.793503 
z
" clip-path="url(#p102d89a5ae)" style="fill: #4c72b0; fill-opacity: 0.5; stroke: #ffffff; stroke-width: 0.422727; stroke-linejoin: miter"/>
   </g>
   <g id="patch_57">
    <path d="M 367.009773 658.733189 
L 371.962841 658.733189 
L 371.962841 488.787451 
L 367.009773 488.787451 
z
" clip-path="url(#p102d89a5ae)" style="fill: #4c72b0; fill-opacity: 0.5; stroke: #ffffff; stroke-width: 0.422727; stroke-linejoin: miter"/>
   </g>
   <g id="patch_58">
    <path d="M 371.962841 658.733189 
L 376.915909 658.733189 
L 376.915909 489.654521 
L 371.962841 489.654521 
z
" clip-path="url(#p102d89a5ae)" style="fill: #4c72b0; fill-opacity: 0.5; stroke: #ffffff; stroke-width: 0.422727; stroke-linejoin: miter"/>
   </g>
   <g id="patch_59">
    <path d="M 376.915909 658.733189 
L 381.868977 658.733189 
L 381.868977 483.585031 
L 376.915909 483.585031 
z
" clip-path="url(#p102d89a5ae)" style="fill: #4c72b0; fill-opacity: 0.5; stroke: #ffffff; stroke-width: 0.422727; stroke-linejoin: miter"/>
   </g>
   <g id="patch_60">
    <path d="M 381.868977 658.733189 
L 386.822045 658.733189 
L 386.822045 470.771662 
L 381.868977 470.771662 
z
" clip-path="url(#p102d89a5ae)" style="fill: #4c72b0; fill-opacity: 0.5; stroke: #ffffff; stroke-width: 0.422727; stroke-linejoin: miter"/>
   </g>
   <g id="patch_61">
    <path d="M 386.822045 658.733189 
L 391.775114 658.733189 
L 391.775114 467.785087 
L 386.822045 467.785087 
z
" clip-path="url(#p102d89a5ae)" style="fill: #4c72b0; fill-opacity: 0.5; stroke: #ffffff; stroke-width: 0.422727; stroke-linejoin: miter"/>
   </g>
   <g id="patch_62">
    <path d="M 391.775114 658.733189 
L 396.728182 658.733189 
L 396.728182 469.326545 
L 391.775114 469.326545 
z
" clip-path="url(#p102d89a5ae)" style="fill: #4c72b0; fill-opacity: 0.5; stroke: #ffffff; stroke-width: 0.422727; stroke-linejoin: miter"/>
   </g>
   <g id="patch_63">
    <path d="M 396.728182 658.733189 
L 401.68125 658.733189 
L 401.68125 458.536339 
L 396.728182 458.536339 
z
" clip-path="url(#p102d89a5ae)" style="fill: #4c72b0; fill-opacity: 0.5; stroke: #ffffff; stroke-width: 0.422727; stroke-linejoin: miter"/>
   </g>
   <g id="patch_64">
    <path d="M 401.68125 658.733189 
L 406.634318 658.733189 
L 406.634318 454.779035 
L 401.68125 454.779035 
z
" clip-path="url(#p102d89a5ae)" style="fill: #4c72b0; fill-opacity: 0.5; stroke: #ffffff; stroke-width: 0.422727; stroke-linejoin: miter"/>
   </g>
   <g id="patch_65">
    <path d="M 406.634318 658.733189 
L 411.587386 658.733189 
L 411.587386 452.274166 
L 406.634318 452.274166 
z
" clip-path="url(#p102d89a5ae)" style="fill: #4c72b0; fill-opacity: 0.5; stroke: #ffffff; stroke-width: 0.422727; stroke-linejoin: miter"/>
   </g>
   <g id="patch_66">
    <path d="M 411.587386 658.733189 
L 416.540455 658.733189 
L 416.540455 443.314442 
L 411.587386 443.314442 
z
" clip-path="url(#p102d89a5ae)" style="fill: #4c72b0; fill-opacity: 0.5; stroke: #ffffff; stroke-width: 0.422727; stroke-linejoin: miter"/>
   </g>
   <g id="patch_67">
    <path d="M 416.540455 658.733189 
L 421.493523 658.733189 
L 421.493523 446.108335 
L 416.540455 446.108335 
z
" clip-path="url(#p102d89a5ae)" style="fill: #4c72b0; fill-opacity: 0.5; stroke: #ffffff; stroke-width: 0.422727; stroke-linejoin: miter"/>
   </g>
   <g id="patch_68">
    <path d="M 421.493523 658.733189 
L 426.446591 658.733189 
L 426.446591 440.520549 
L 421.493523 440.520549 
z
" clip-path="url(#p102d89a5ae)" style="fill: #4c72b0; fill-opacity: 0.5; stroke: #ffffff; stroke-width: 0.422727; stroke-linejoin: miter"/>
   </g>
   <g id="patch_69">
    <path d="M 426.446591 658.733189 
L 431.399659 658.733189 
L 431.399659 438.690068 
L 426.446591 438.690068 
z
" clip-path="url(#p102d89a5ae)" style="fill: #4c72b0; fill-opacity: 0.5; stroke: #ffffff; stroke-width: 0.422727; stroke-linejoin: miter"/>
   </g>
   <g id="patch_70">
    <path d="M 431.399659 658.733189 
L 436.352727 658.733189 
L 436.352727 432.138872 
L 431.399659 432.138872 
z
" clip-path="url(#p102d89a5ae)" style="fill: #4c72b0; fill-opacity: 0.5; stroke: #ffffff; stroke-width: 0.422727; stroke-linejoin: miter"/>
   </g>
   <g id="patch_71">
    <path d="M 436.352727 658.733189 
L 441.305795 658.733189 
L 441.305795 438.304704 
L 436.352727 438.304704 
z
" clip-path="url(#p102d89a5ae)" style="fill: #4c72b0; fill-opacity: 0.5; stroke: #ffffff; stroke-width: 0.422727; stroke-linejoin: miter"/>
   </g>
   <g id="patch_72">
    <path d="M 441.305795 658.733189 
L 446.258864 658.733189 
L 446.258864 435.41447 
L 441.305795 435.41447 
z
" clip-path="url(#p102d89a5ae)" style="fill: #4c72b0; fill-opacity: 0.5; stroke: #ffffff; stroke-width: 0.422727; stroke-linejoin: miter"/>
   </g>
   <g id="patch_73">
    <path d="M 446.258864 658.733189 
L 451.211932 658.733189 
L 451.211932 441.483961 
L 446.258864 441.483961 
z
" clip-path="url(#p102d89a5ae)" style="fill: #4c72b0; fill-opacity: 0.5; stroke: #ffffff; stroke-width: 0.422727; stroke-linejoin: miter"/>
   </g>
   <g id="patch_74">
    <path d="M 451.211932 658.733189 
L 456.165 658.733189 
L 456.165 441.676643 
L 451.211932 441.676643 
z
" clip-path="url(#p102d89a5ae)" style="fill: #4c72b0; fill-opacity: 0.5; stroke: #ffffff; stroke-width: 0.422727; stroke-linejoin: miter"/>
   </g>
   <g id="patch_75">
    <path d="M 456.165 658.733189 
L 461.118068 658.733189 
L 461.118068 438.01568 
L 456.165 438.01568 
z
" clip-path="url(#p102d89a5ae)" style="fill: #4c72b0; fill-opacity: 0.5; stroke: #ffffff; stroke-width: 0.422727; stroke-linejoin: miter"/>
   </g>
   <g id="patch_76">
    <path d="M 461.118068 658.733189 
L 466.071136 658.733189 
L 466.071136 443.12176 
L 461.118068 443.12176 
z
" clip-path="url(#p102d89a5ae)" style="fill: #4c72b0; fill-opacity: 0.5; stroke: #ffffff; stroke-width: 0.422727; stroke-linejoin: miter"/>
   </g>
   <g id="patch_77">
    <path d="M 466.071136 658.733189 
L 471.024205 658.733189 
L 471.024205 454.875377 
L 466.071136 454.875377 
z
" clip-path="url(#p102d89a5ae)" style="fill: #4c72b0; fill-opacity: 0.5; stroke: #ffffff; stroke-width: 0.422727; stroke-linejoin: miter"/>
   </g>
   <g id="patch_78">
    <path d="M 471.024205 658.733189 
L 475.977273 658.733189 
L 475.977273 447.45711 
L 471.024205 447.45711 
z
" clip-path="url(#p102d89a5ae)" style="fill: #4c72b0; fill-opacity: 0.5; stroke: #ffffff; stroke-width: 0.422727; stroke-linejoin: miter"/>
   </g>
   <g id="patch_79">
    <path d="M 475.977273 658.733189 
L 480.930341 658.733189 
L 480.930341 456.03147 
L 475.977273 456.03147 
z
" clip-path="url(#p102d89a5ae)" style="fill: #4c72b0; fill-opacity: 0.5; stroke: #ffffff; stroke-width: 0.422727; stroke-linejoin: miter"/>
   </g>
   <g id="patch_80">
    <path d="M 480.930341 658.733189 
L 485.883409 658.733189 
L 485.883409 470.482638 
L 480.930341 470.482638 
z
" clip-path="url(#p102d89a5ae)" style="fill: #4c72b0; fill-opacity: 0.5; stroke: #ffffff; stroke-width: 0.422727; stroke-linejoin: miter"/>
   </g>
   <g id="patch_81">
    <path d="M 485.883409 658.733189 
L 490.836477 658.733189 
L 490.836477 468.266792 
L 485.883409 468.266792 
z
" clip-path="url(#p102d89a5ae)" style="fill: #4c72b0; fill-opacity: 0.5; stroke: #ffffff; stroke-width: 0.422727; stroke-linejoin: miter"/>
   </g>
   <g id="patch_82">
    <path d="M 490.836477 658.733189 
L 495.789545 658.733189 
L 495.789545 482.621619 
L 490.836477 482.621619 
z
" clip-path="url(#p102d89a5ae)" style="fill: #4c72b0; fill-opacity: 0.5; stroke: #ffffff; stroke-width: 0.422727; stroke-linejoin: miter"/>
   </g>
   <g id="patch_83">
    <path d="M 495.789545 658.733189 
L 500.742614 658.733189 
L 500.742614 482.910643 
L 495.789545 482.910643 
z
" clip-path="url(#p102d89a5ae)" style="fill: #4c72b0; fill-opacity: 0.5; stroke: #ffffff; stroke-width: 0.422727; stroke-linejoin: miter"/>
   </g>
   <g id="patch_84">
    <path d="M 500.742614 658.733189 
L 505.695682 658.733189 
L 505.695682 496.976447 
L 500.742614 496.976447 
z
" clip-path="url(#p102d89a5ae)" style="fill: #4c72b0; fill-opacity: 0.5; stroke: #ffffff; stroke-width: 0.422727; stroke-linejoin: miter"/>
   </g>
   <g id="patch_85">
    <path d="M 505.695682 658.733189 
L 510.64875 658.733189 
L 510.64875 502.371549 
L 505.695682 502.371549 
z
" clip-path="url(#p102d89a5ae)" style="fill: #4c72b0; fill-opacity: 0.5; stroke: #ffffff; stroke-width: 0.422727; stroke-linejoin: miter"/>
   </g>
   <g id="patch_86">
    <path d="M 510.64875 658.733189 
L 515.601818 658.733189 
L 515.601818 508.248358 
L 510.64875 508.248358 
z
" clip-path="url(#p102d89a5ae)" style="fill: #4c72b0; fill-opacity: 0.5; stroke: #ffffff; stroke-width: 0.422727; stroke-linejoin: miter"/>
   </g>
   <g id="patch_87">
    <path d="M 515.601818 658.733189 
L 520.554886 658.733189 
L 520.554886 513.739802 
L 515.601818 513.739802 
z
" clip-path="url(#p102d89a5ae)" style="fill: #4c72b0; fill-opacity: 0.5; stroke: #ffffff; stroke-width: 0.422727; stroke-linejoin: miter"/>
   </g>
   <g id="patch_88">
    <path d="M 520.554886 658.733189 
L 525.507955 658.733189 
L 525.507955 517.208082 
L 520.554886 517.208082 
z
" clip-path="url(#p102d89a5ae)" style="fill: #4c72b0; fill-opacity: 0.5; stroke: #ffffff; stroke-width: 0.422727; stroke-linejoin: miter"/>
   </g>
   <g id="patch_89">
    <path d="M 525.507955 658.733189 
L 530.461023 658.733189 
L 530.461023 535.705577 
L 525.507955 535.705577 
z
" clip-path="url(#p102d89a5ae)" style="fill: #4c72b0; fill-opacity: 0.5; stroke: #ffffff; stroke-width: 0.422727; stroke-linejoin: miter"/>
   </g>
   <g id="patch_90">
    <path d="M 530.461023 658.733189 
L 535.414091 658.733189 
L 535.414091 542.064091 
L 530.461023 542.064091 
z
" clip-path="url(#p102d89a5ae)" style="fill: #4c72b0; fill-opacity: 0.5; stroke: #ffffff; stroke-width: 0.422727; stroke-linejoin: miter"/>
   </g>
   <g id="patch_91">
    <path d="M 535.414091 658.733189 
L 540.367159 658.733189 
L 540.367159 540.426292 
L 535.414091 540.426292 
z
" clip-path="url(#p102d89a5ae)" style="fill: #4c72b0; fill-opacity: 0.5; stroke: #ffffff; stroke-width: 0.422727; stroke-linejoin: miter"/>
   </g>
   <g id="patch_92">
    <path d="M 540.367159 658.733189 
L 545.320227 658.733189 
L 545.320227 558.442082 
L 540.367159 558.442082 
z
" clip-path="url(#p102d89a5ae)" style="fill: #4c72b0; fill-opacity: 0.5; stroke: #ffffff; stroke-width: 0.422727; stroke-linejoin: miter"/>
   </g>
   <g id="patch_93">
    <path d="M 545.320227 658.733189 
L 550.273295 658.733189 
L 550.273295 561.332316 
L 545.320227 561.332316 
z
" clip-path="url(#p102d89a5ae)" style="fill: #4c72b0; fill-opacity: 0.5; stroke: #ffffff; stroke-width: 0.422727; stroke-linejoin: miter"/>
   </g>
   <g id="patch_94">
    <path d="M 550.273295 658.733189 
L 555.226364 658.733189 
L 555.226364 569.42497 
L 550.273295 569.42497 
z
" clip-path="url(#p102d89a5ae)" style="fill: #4c72b0; fill-opacity: 0.5; stroke: #ffffff; stroke-width: 0.422727; stroke-linejoin: miter"/>
   </g>
   <g id="patch_95">
    <path d="M 555.226364 658.733189 
L 560.179432 658.733189 
L 560.179432 573.374956 
L 555.226364 573.374956 
z
" clip-path="url(#p102d89a5ae)" style="fill: #4c72b0; fill-opacity: 0.5; stroke: #ffffff; stroke-width: 0.422727; stroke-linejoin: miter"/>
   </g>
   <g id="patch_96">
    <path d="M 560.179432 658.733189 
L 565.1325 658.733189 
L 565.1325 581.274928 
L 560.179432 581.274928 
z
" clip-path="url(#p102d89a5ae)" style="fill: #4c72b0; fill-opacity: 0.5; stroke: #ffffff; stroke-width: 0.422727; stroke-linejoin: miter"/>
   </g>
   <g id="patch_97">
    <path d="M 565.1325 658.733189 
L 570.085568 658.733189 
L 570.085568 588.211488 
L 565.1325 588.211488 
z
" clip-path="url(#p102d89a5ae)" style="fill: #4c72b0; fill-opacity: 0.5; stroke: #ffffff; stroke-width: 0.422727; stroke-linejoin: miter"/>
   </g>
   <g id="patch_98">
    <path d="M 570.085568 658.733189 
L 575.038636 658.733189 
L 575.038636 593.221227 
L 570.085568 593.221227 
z
" clip-path="url(#p102d89a5ae)" style="fill: #4c72b0; fill-opacity: 0.5; stroke: #ffffff; stroke-width: 0.422727; stroke-linejoin: miter"/>
   </g>
   <g id="patch_99">
    <path d="M 575.038636 658.733189 
L 579.991705 658.733189 
L 579.991705 603.722409 
L 575.038636 603.722409 
z
" clip-path="url(#p102d89a5ae)" style="fill: #4c72b0; fill-opacity: 0.5; stroke: #ffffff; stroke-width: 0.422727; stroke-linejoin: miter"/>
   </g>
   <g id="patch_100">
    <path d="M 579.991705 658.733189 
L 584.944773 658.733189 
L 584.944773 602.758998 
L 579.991705 602.758998 
z
" clip-path="url(#p102d89a5ae)" style="fill: #4c72b0; fill-opacity: 0.5; stroke: #ffffff; stroke-width: 0.422727; stroke-linejoin: miter"/>
   </g>
   <g id="patch_101">
    <path d="M 584.944773 658.733189 
L 589.897841 658.733189 
L 589.897841 612.104086 
L 584.944773 612.104086 
z
" clip-path="url(#p102d89a5ae)" style="fill: #4c72b0; fill-opacity: 0.5; stroke: #ffffff; stroke-width: 0.422727; stroke-linejoin: miter"/>
   </g>
   <g id="patch_102">
    <path d="M 589.897841 658.733189 
L 594.850909 658.733189 
L 594.850909 615.572367 
L 589.897841 615.572367 
z
" clip-path="url(#p102d89a5ae)" style="fill: #4c72b0; fill-opacity: 0.5; stroke: #ffffff; stroke-width: 0.422727; stroke-linejoin: miter"/>
   </g>
   <g id="patch_103">
    <path d="M 594.850909 658.733189 
L 599.803977 658.733189 
L 599.803977 616.439437 
L 594.850909 616.439437 
z
" clip-path="url(#p102d89a5ae)" style="fill: #4c72b0; fill-opacity: 0.5; stroke: #ffffff; stroke-width: 0.422727; stroke-linejoin: miter"/>
   </g>
   <g id="patch_104">
    <path d="M 599.803977 658.733189 
L 604.757045 658.733189 
L 604.757045 626.266231 
L 599.803977 626.266231 
z
" clip-path="url(#p102d89a5ae)" style="fill: #4c72b0; fill-opacity: 0.5; stroke: #ffffff; stroke-width: 0.422727; stroke-linejoin: miter"/>
   </g>
   <g id="patch_105">
    <path d="M 604.757045 658.733189 
L 609.710114 658.733189 
L 609.710114 626.747937 
L 604.757045 626.747937 
z
" clip-path="url(#p102d89a5ae)" style="fill: #4c72b0; fill-opacity: 0.5; stroke: #ffffff; stroke-width: 0.422727; stroke-linejoin: miter"/>
   </g>
   <g id="patch_106">
    <path d="M 609.710114 658.733189 
L 614.663182 658.733189 
L 614.663182 629.734512 
L 609.710114 629.734512 
z
" clip-path="url(#p102d89a5ae)" style="fill: #4c72b0; fill-opacity: 0.5; stroke: #ffffff; stroke-width: 0.422727; stroke-linejoin: miter"/>
   </g>
   <g id="patch_107">
    <path d="M 614.663182 658.733189 
L 619.61625 658.733189 
L 619.61625 633.780839 
L 614.663182 633.780839 
z
" clip-path="url(#p102d89a5ae)" style="fill: #4c72b0; fill-opacity: 0.5; stroke: #ffffff; stroke-width: 0.422727; stroke-linejoin: miter"/>
   </g>
   <g id="patch_108">
    <path d="M 619.61625 658.733189 
L 624.569318 658.733189 
L 624.569318 635.900343 
L 619.61625 635.900343 
z
" clip-path="url(#p102d89a5ae)" style="fill: #4c72b0; fill-opacity: 0.5; stroke: #ffffff; stroke-width: 0.422727; stroke-linejoin: miter"/>
   </g>
   <g id="patch_109">
    <path d="M 624.569318 658.733189 
L 629.522386 658.733189 
L 629.522386 638.694236 
L 624.569318 638.694236 
z
" clip-path="url(#p102d89a5ae)" style="fill: #4c72b0; fill-opacity: 0.5; stroke: #ffffff; stroke-width: 0.422727; stroke-linejoin: miter"/>
   </g>
   <g id="patch_110">
    <path d="M 629.522386 658.733189 
L 634.475455 658.733189 
L 634.475455 640.043012 
L 629.522386 640.043012 
z
" clip-path="url(#p102d89a5ae)" style="fill: #4c72b0; fill-opacity: 0.5; stroke: #ffffff; stroke-width: 0.422727; stroke-linejoin: miter"/>
   </g>
   <g id="patch_111">
    <path d="M 634.475455 658.733189 
L 639.428523 658.733189 
L 639.428523 643.125928 
L 634.475455 643.125928 
z
" clip-path="url(#p102d89a5ae)" style="fill: #4c72b0; fill-opacity: 0.5; stroke: #ffffff; stroke-width: 0.422727; stroke-linejoin: miter"/>
   </g>
   <g id="patch_112">
    <path d="M 639.428523 658.733189 
L 644.381591 658.733189 
L 644.381591 643.414951 
L 639.428523 643.414951 
z
" clip-path="url(#p102d89a5ae)" style="fill: #4c72b0; fill-opacity: 0.5; stroke: #ffffff; stroke-width: 0.422727; stroke-linejoin: miter"/>
   </g>
   <g id="patch_113">
    <path d="M 644.381591 658.733189 
L 649.334659 658.733189 
L 649.334659 647.846642 
L 644.381591 647.846642 
z
" clip-path="url(#p102d89a5ae)" style="fill: #4c72b0; fill-opacity: 0.5; stroke: #ffffff; stroke-width: 0.422727; stroke-linejoin: miter"/>
   </g>
   <g id="patch_114">
    <path d="M 649.334659 658.733189 
L 654.287727 658.733189 
L 654.287727 647.942984 
L 649.334659 647.942984 
z
" clip-path="url(#p102d89a5ae)" style="fill: #4c72b0; fill-opacity: 0.5; stroke: #ffffff; stroke-width: 0.422727; stroke-linejoin: miter"/>
   </g>
   <g id="patch_115">
    <path d="M 654.287727 658.733189 
L 659.240795 658.733189 
L 659.240795 649.966147 
L 654.287727 649.966147 
z
" clip-path="url(#p102d89a5ae)" style="fill: #4c72b0; fill-opacity: 0.5; stroke: #ffffff; stroke-width: 0.422727; stroke-linejoin: miter"/>
   </g>
   <g id="patch_116">
    <path d="M 659.240795 658.733189 
L 664.193864 658.733189 
L 664.193864 651.218582 
L 659.240795 651.218582 
z
" clip-path="url(#p102d89a5ae)" style="fill: #4c72b0; fill-opacity: 0.5; stroke: #ffffff; stroke-width: 0.422727; stroke-linejoin: miter"/>
   </g>
   <g id="patch_117">
    <path d="M 664.193864 658.733189 
L 669.146932 658.733189 
L 669.146932 650.640535 
L 664.193864 650.640535 
z
" clip-path="url(#p102d89a5ae)" style="fill: #4c72b0; fill-opacity: 0.5; stroke: #ffffff; stroke-width: 0.422727; stroke-linejoin: miter"/>
   </g>
   <g id="patch_118">
    <path d="M 669.146932 658.733189 
L 674.1 658.733189 
L 674.1 652.76004 
L 669.146932 652.76004 
z
" clip-path="url(#p102d89a5ae)" style="fill: #4c72b0; fill-opacity: 0.5; stroke: #ffffff; stroke-width: 0.422727; stroke-linejoin: miter"/>
   </g>
   <g id="patch_119">
    <path d="M 674.1 658.733189 
L 679.053068 658.733189 
L 679.053068 654.012474 
L 674.1 654.012474 
z
" clip-path="url(#p102d89a5ae)" style="fill: #4c72b0; fill-opacity: 0.5; stroke: #ffffff; stroke-width: 0.422727; stroke-linejoin: miter"/>
   </g>
   <g id="patch_120">
    <path d="M 679.053068 658.733189 
L 684.006136 658.733189 
L 684.006136 653.819792 
L 679.053068 653.819792 
z
" clip-path="url(#p102d89a5ae)" style="fill: #4c72b0; fill-opacity: 0.5; stroke: #ffffff; stroke-width: 0.422727; stroke-linejoin: miter"/>
   </g>
   <g id="patch_121">
    <path d="M 684.006136 658.733189 
L 688.959205 658.733189 
L 688.959205 655.264909 
L 684.006136 655.264909 
z
" clip-path="url(#p102d89a5ae)" style="fill: #4c72b0; fill-opacity: 0.5; stroke: #ffffff; stroke-width: 0.422727; stroke-linejoin: miter"/>
   </g>
   <g id="patch_122">
    <path d="M 688.959205 658.733189 
L 693.912273 658.733189 
L 693.912273 655.746614 
L 688.959205 655.746614 
z
" clip-path="url(#p102d89a5ae)" style="fill: #4c72b0; fill-opacity: 0.5; stroke: #ffffff; stroke-width: 0.422727; stroke-linejoin: miter"/>
   </g>
   <g id="patch_123">
    <path d="M 693.912273 658.733189 
L 698.865341 658.733189 
L 698.865341 656.22832 
L 693.912273 656.22832 
z
" clip-path="url(#p102d89a5ae)" style="fill: #4c72b0; fill-opacity: 0.5; stroke: #ffffff; stroke-width: 0.422727; stroke-linejoin: miter"/>
   </g>
   <g id="patch_124">
    <path d="M 698.865341 658.733189 
L 703.818409 658.733189 
L 703.818409 656.517343 
L 698.865341 656.517343 
z
" clip-path="url(#p102d89a5ae)" style="fill: #4c72b0; fill-opacity: 0.5; stroke: #ffffff; stroke-width: 0.422727; stroke-linejoin: miter"/>
   </g>
   <g id="patch_125">
    <path d="M 703.818409 658.733189 
L 708.771477 658.733189 
L 708.771477 657.673437 
L 703.818409 657.673437 
z
" clip-path="url(#p102d89a5ae)" style="fill: #4c72b0; fill-opacity: 0.5; stroke: #ffffff; stroke-width: 0.422727; stroke-linejoin: miter"/>
   </g>
   <g id="patch_126">
    <path d="M 708.771477 658.733189 
L 713.724545 658.733189 
L 713.724545 657.384413 
L 708.771477 657.384413 
z
" clip-path="url(#p102d89a5ae)" style="fill: #4c72b0; fill-opacity: 0.5; stroke: #ffffff; stroke-width: 0.422727; stroke-linejoin: miter"/>
   </g>
   <g id="patch_127">
    <path d="M 713.724545 658.733189 
L 718.677614 658.733189 
L 718.677614 657.577096 
L 713.724545 657.577096 
z
" clip-path="url(#p102d89a5ae)" style="fill: #4c72b0; fill-opacity: 0.5; stroke: #ffffff; stroke-width: 0.422727; stroke-linejoin: miter"/>
   </g>
   <g id="patch_128">
    <path d="M 718.677614 658.733189 
L 723.630682 658.733189 
L 723.630682 658.155142 
L 718.677614 658.155142 
z
" clip-path="url(#p102d89a5ae)" style="fill: #4c72b0; fill-opacity: 0.5; stroke: #ffffff; stroke-width: 0.422727; stroke-linejoin: miter"/>
   </g>
   <g id="patch_129">
    <path d="M 723.630682 658.733189 
L 728.58375 658.733189 
L 728.58375 658.251484 
L 723.630682 658.251484 
z
" clip-path="url(#p102d89a5ae)" style="fill: #4c72b0; fill-opacity: 0.5; stroke: #ffffff; stroke-width: 0.422727; stroke-linejoin: miter"/>
   </g>
   <g id="patch_130">
    <path d="M 728.58375 658.733189 
L 733.536818 658.733189 
L 733.536818 658.058801 
L 728.58375 658.058801 
z
" clip-path="url(#p102d89a5ae)" style="fill: #4c72b0; fill-opacity: 0.5; stroke: #ffffff; stroke-width: 0.422727; stroke-linejoin: miter"/>
   </g>
   <g id="patch_131">
    <path d="M 733.536818 658.733189 
L 738.489886 658.733189 
L 738.489886 657.866119 
L 733.536818 657.866119 
z
" clip-path="url(#p102d89a5ae)" style="fill: #4c72b0; fill-opacity: 0.5; stroke: #ffffff; stroke-width: 0.422727; stroke-linejoin: miter"/>
   </g>
   <g id="patch_132">
    <path d="M 738.489886 658.733189 
L 743.442955 658.733189 
L 743.442955 658.540507 
L 738.489886 658.540507 
z
" clip-path="url(#p102d89a5ae)" style="fill: #4c72b0; fill-opacity: 0.5; stroke: #ffffff; stroke-width: 0.422727; stroke-linejoin: miter"/>
   </g>
   <g id="patch_133">
    <path d="M 743.442955 658.733189 
L 748.396023 658.733189 
L 748.396023 658.540507 
L 743.442955 658.540507 
z
" clip-path="url(#p102d89a5ae)" style="fill: #4c72b0; fill-opacity: 0.5; stroke: #ffffff; stroke-width: 0.422727; stroke-linejoin: miter"/>
   </g>
   <g id="patch_134">
    <path d="M 748.396023 658.733189 
L 753.349091 658.733189 
L 753.349091 658.540507 
L 748.396023 658.540507 
z
" clip-path="url(#p102d89a5ae)" style="fill: #4c72b0; fill-opacity: 0.5; stroke: #ffffff; stroke-width: 0.422727; stroke-linejoin: miter"/>
   </g>
   <g id="patch_135">
    <path d="M 753.349091 658.733189 
L 758.302159 658.733189 
L 758.302159 658.347825 
L 753.349091 658.347825 
z
" clip-path="url(#p102d89a5ae)" style="fill: #4c72b0; fill-opacity: 0.5; stroke: #ffffff; stroke-width: 0.422727; stroke-linejoin: miter"/>
   </g>
   <g id="patch_136">
    <path d="M 758.302159 658.733189 
L 763.255227 658.733189 
L 763.255227 658.444166 
L 758.302159 658.444166 
z
" clip-path="url(#p102d89a5ae)" style="fill: #4c72b0; fill-opacity: 0.5; stroke: #ffffff; stroke-width: 0.422727; stroke-linejoin: miter"/>
   </g>
   <g id="patch_137">
    <path d="M 763.255227 658.733189 
L 768.208295 658.733189 
L 768.208295 658.733189 
L 763.255227 658.733189 
z
" clip-path="url(#p102d89a5ae)" style="fill: #4c72b0; fill-opacity: 0.5; stroke: #ffffff; stroke-width: 0.422727; stroke-linejoin: miter"/>
   </g>
   <g id="patch_138">
    <path d="M 768.208295 658.733189 
L 773.161364 658.733189 
L 773.161364 658.636848 
L 768.208295 658.636848 
z
" clip-path="url(#p102d89a5ae)" style="fill: #4c72b0; fill-opacity: 0.5; stroke: #ffffff; stroke-width: 0.422727; stroke-linejoin: miter"/>
   </g>
   <g id="patch_139">
    <path d="M 773.161364 658.733189 
L 778.114432 658.733189 
L 778.114432 658.444166 
L 773.161364 658.444166 
z
" clip-path="url(#p102d89a5ae)" style="fill: #4c72b0; fill-opacity: 0.5; stroke: #ffffff; stroke-width: 0.422727; stroke-linejoin: miter"/>
   </g>
   <g id="patch_140">
    <path d="M 778.114432 658.733189 
L 783.0675 658.733189 
L 783.0675 658.636848 
L 778.114432 658.636848 
z
" clip-path="url(#p102d89a5ae)" style="fill: #4c72b0; fill-opacity: 0.5; stroke: #ffffff; stroke-width: 0.422727; stroke-linejoin: miter"/>
   </g>
   <g id="patch_141">
    <path d="M 783.0675 658.733189 
L 788.020568 658.733189 
L 788.020568 658.733189 
L 783.0675 658.733189 
z
" clip-path="url(#p102d89a5ae)" style="fill: #4c72b0; fill-opacity: 0.5; stroke: #ffffff; stroke-width: 0.422727; stroke-linejoin: miter"/>
   </g>
   <g id="patch_142">
    <path d="M 788.020568 658.733189 
L 792.973636 658.733189 
L 792.973636 658.540507 
L 788.020568 658.540507 
z
" clip-path="url(#p102d89a5ae)" style="fill: #4c72b0; fill-opacity: 0.5; stroke: #ffffff; stroke-width: 0.422727; stroke-linejoin: miter"/>
   </g>
   <g id="patch_143">
    <path d="M 792.973636 658.733189 
L 797.926705 658.733189 
L 797.926705 658.733189 
L 792.973636 658.733189 
z
" clip-path="url(#p102d89a5ae)" style="fill: #4c72b0; fill-opacity: 0.5; stroke: #ffffff; stroke-width: 0.422727; stroke-linejoin: miter"/>
   </g>
   <g id="patch_144">
    <path d="M 797.926705 658.733189 
L 802.879773 658.733189 
L 802.879773 658.733189 
L 797.926705 658.733189 
z
" clip-path="url(#p102d89a5ae)" style="fill: #4c72b0; fill-opacity: 0.5; stroke: #ffffff; stroke-width: 0.422727; stroke-linejoin: miter"/>
   </g>
   <g id="patch_145">
    <path d="M 802.879773 658.733189 
L 807.832841 658.733189 
L 807.832841 658.636848 
L 802.879773 658.636848 
z
" clip-path="url(#p102d89a5ae)" style="fill: #4c72b0; fill-opacity: 0.5; stroke: #ffffff; stroke-width: 0.422727; stroke-linejoin: miter"/>
   </g>
   <g id="patch_146">
    <path d="M 807.832841 658.733189 
L 812.785909 658.733189 
L 812.785909 658.636848 
L 807.832841 658.636848 
z
" clip-path="url(#p102d89a5ae)" style="fill: #4c72b0; fill-opacity: 0.5; stroke: #ffffff; stroke-width: 0.422727; stroke-linejoin: miter"/>
   </g>
   <g id="patch_147">
    <path d="M 353.004088 658.733189 
L 357.281676 658.733189 
L 357.281676 275.543542 
L 353.004088 275.543542 
z
" clip-path="url(#p102d89a5ae)" style="fill: #dd8452; fill-opacity: 0.5; stroke: #ffffff; stroke-width: 0.365077; stroke-linejoin: miter"/>
   </g>
   <g id="patch_148">
    <path d="M 357.281676 658.733189 
L 361.559264 658.733189 
L 361.559264 249.328238 
L 357.281676 249.328238 
z
" clip-path="url(#p102d89a5ae)" style="fill: #dd8452; fill-opacity: 0.5; stroke: #ffffff; stroke-width: 0.365077; stroke-linejoin: miter"/>
   </g>
   <g id="patch_149">
    <path d="M 361.559264 658.733189 
L 365.836853 658.733189 
L 365.836853 275.320433 
L 361.559264 275.320433 
z
" clip-path="url(#p102d89a5ae)" style="fill: #dd8452; fill-opacity: 0.5; stroke: #ffffff; stroke-width: 0.365077; stroke-linejoin: miter"/>
   </g>
   <g id="patch_150">
    <path d="M 365.836853 658.733189 
L 370.114441 658.733189 
L 370.114441 303.209053 
L 365.836853 303.209053 
z
" clip-path="url(#p102d89a5ae)" style="fill: #dd8452; fill-opacity: 0.5; stroke: #ffffff; stroke-width: 0.365077; stroke-linejoin: miter"/>
   </g>
   <g id="patch_151">
    <path d="M 370.114441 658.733189 
L 374.392029 658.733189 
L 374.392029 339.241151 
L 370.114441 339.241151 
z
" clip-path="url(#p102d89a5ae)" style="fill: #dd8452; fill-opacity: 0.5; stroke: #ffffff; stroke-width: 0.365077; stroke-linejoin: miter"/>
   </g>
   <g id="patch_152">
    <path d="M 374.392029 658.733189 
L 378.669617 658.733189 
L 378.669617 349.057946 
L 374.392029 349.057946 
z
" clip-path="url(#p102d89a5ae)" style="fill: #dd8452; fill-opacity: 0.5; stroke: #ffffff; stroke-width: 0.365077; stroke-linejoin: miter"/>
   </g>
   <g id="patch_153">
    <path d="M 378.669617 658.733189 
L 382.947206 658.733189 
L 382.947206 354.63567 
L 378.669617 354.63567 
z
" clip-path="url(#p102d89a5ae)" style="fill: #dd8452; fill-opacity: 0.5; stroke: #ffffff; stroke-width: 0.365077; stroke-linejoin: miter"/>
   </g>
   <g id="patch_154">
    <path d="M 382.947206 658.733189 
L 387.224794 658.733189 
L 387.224794 376.388794 
L 382.947206 376.388794 
z
" clip-path="url(#p102d89a5ae)" style="fill: #dd8452; fill-opacity: 0.5; stroke: #ffffff; stroke-width: 0.365077; stroke-linejoin: miter"/>
   </g>
   <g id="patch_155">
    <path d="M 387.224794 658.733189 
L 391.502382 658.733189 
L 391.502382 385.870925 
L 387.224794 385.870925 
z
" clip-path="url(#p102d89a5ae)" style="fill: #dd8452; fill-opacity: 0.5; stroke: #ffffff; stroke-width: 0.365077; stroke-linejoin: miter"/>
   </g>
   <g id="patch_156">
    <path d="M 391.502382 658.733189 
L 395.77997 658.733189 
L 395.77997 394.906838 
L 391.502382 394.906838 
z
" clip-path="url(#p102d89a5ae)" style="fill: #dd8452; fill-opacity: 0.5; stroke: #ffffff; stroke-width: 0.365077; stroke-linejoin: miter"/>
   </g>
   <g id="patch_157">
    <path d="M 395.77997 658.733189 
L 400.057559 658.733189 
L 400.057559 412.309337 
L 395.77997 412.309337 
z
" clip-path="url(#p102d89a5ae)" style="fill: #dd8452; fill-opacity: 0.5; stroke: #ffffff; stroke-width: 0.365077; stroke-linejoin: miter"/>
   </g>
   <g id="patch_158">
    <path d="M 400.057559 658.733189 
L 404.335147 658.733189 
L 404.335147 411.416901 
L 400.057559 411.416901 
z
" clip-path="url(#p102d89a5ae)" style="fill: #dd8452; fill-opacity: 0.5; stroke: #ffffff; stroke-width: 0.365077; stroke-linejoin: miter"/>
   </g>
   <g id="patch_159">
    <path d="M 404.335147 658.733189 
L 408.612735 658.733189 
L 408.612735 423.018568 
L 404.335147 423.018568 
z
" clip-path="url(#p102d89a5ae)" style="fill: #dd8452; fill-opacity: 0.5; stroke: #ffffff; stroke-width: 0.365077; stroke-linejoin: miter"/>
   </g>
   <g id="patch_160">
    <path d="M 408.612735 658.733189 
L 412.890323 658.733189 
L 412.890323 426.030539 
L 408.612735 426.030539 
z
" clip-path="url(#p102d89a5ae)" style="fill: #dd8452; fill-opacity: 0.5; stroke: #ffffff; stroke-width: 0.365077; stroke-linejoin: miter"/>
   </g>
   <g id="patch_161">
    <path d="M 412.890323 658.733189 
L 417.167912 658.733189 
L 417.167912 426.922975 
L 412.890323 426.922975 
z
" clip-path="url(#p102d89a5ae)" style="fill: #dd8452; fill-opacity: 0.5; stroke: #ffffff; stroke-width: 0.365077; stroke-linejoin: miter"/>
   </g>
   <g id="patch_162">
    <path d="M 417.167912 658.733189 
L 421.4455 658.733189 
L 421.4455 434.731788 
L 417.167912 434.731788 
z
" clip-path="url(#p102d89a5ae)" style="fill: #dd8452; fill-opacity: 0.5; stroke: #ffffff; stroke-width: 0.365077; stroke-linejoin: miter"/>
   </g>
   <g id="patch_163">
    <path d="M 421.4455 658.733189 
L 425.723088 658.733189 
L 425.723088 434.731788 
L 421.4455 434.731788 
z
" clip-path="url(#p102d89a5ae)" style="fill: #dd8452; fill-opacity: 0.5; stroke: #ffffff; stroke-width: 0.365077; stroke-linejoin: miter"/>
   </g>
   <g id="patch_164">
    <path d="M 425.723088 658.733189 
L 430.000676 658.733189 
L 430.000676 432.835362 
L 425.723088 432.835362 
z
" clip-path="url(#p102d89a5ae)" style="fill: #dd8452; fill-opacity: 0.5; stroke: #ffffff; stroke-width: 0.365077; stroke-linejoin: miter"/>
   </g>
   <g id="patch_165">
    <path d="M 430.000676 658.733189 
L 434.278265 658.733189 
L 434.278265 434.28557 
L 430.000676 434.28557 
z
" clip-path="url(#p102d89a5ae)" style="fill: #dd8452; fill-opacity: 0.5; stroke: #ffffff; stroke-width: 0.365077; stroke-linejoin: miter"/>
   </g>
   <g id="patch_166">
    <path d="M 434.278265 658.733189 
L 438.555853 658.733189 
L 438.555853 436.405106 
L 434.278265 436.405106 
z
" clip-path="url(#p102d89a5ae)" style="fill: #dd8452; fill-opacity: 0.5; stroke: #ffffff; stroke-width: 0.365077; stroke-linejoin: miter"/>
   </g>
   <g id="patch_167">
    <path d="M 438.555853 658.733189 
L 442.833441 658.733189 
L 442.833441 435.289561 
L 438.555853 435.289561 
z
" clip-path="url(#p102d89a5ae)" style="fill: #dd8452; fill-opacity: 0.5; stroke: #ffffff; stroke-width: 0.365077; stroke-linejoin: miter"/>
   </g>
   <g id="patch_168">
    <path d="M 442.833441 658.733189 
L 447.111029 658.733189 
L 447.111029 434.731788 
L 442.833441 434.731788 
z
" clip-path="url(#p102d89a5ae)" style="fill: #dd8452; fill-opacity: 0.5; stroke: #ffffff; stroke-width: 0.365077; stroke-linejoin: miter"/>
   </g>
   <g id="patch_169">
    <path d="M 447.111029 658.733189 
L 451.388617 658.733189 
L 451.388617 441.313503 
L 447.111029 441.313503 
z
" clip-path="url(#p102d89a5ae)" style="fill: #dd8452; fill-opacity: 0.5; stroke: #ffffff; stroke-width: 0.365077; stroke-linejoin: miter"/>
   </g>
   <g id="patch_170">
    <path d="M 451.388617 658.733189 
L 455.666206 658.733189 
L 455.666206 433.727798 
L 451.388617 433.727798 
z
" clip-path="url(#p102d89a5ae)" style="fill: #dd8452; fill-opacity: 0.5; stroke: #ffffff; stroke-width: 0.365077; stroke-linejoin: miter"/>
   </g>
   <g id="patch_171">
    <path d="M 455.666206 658.733189 
L 459.943794 658.733189 
L 459.943794 427.703856 
L 455.666206 427.703856 
z
" clip-path="url(#p102d89a5ae)" style="fill: #dd8452; fill-opacity: 0.5; stroke: #ffffff; stroke-width: 0.365077; stroke-linejoin: miter"/>
   </g>
   <g id="patch_172">
    <path d="M 459.943794 658.733189 
L 464.221382 658.733189 
L 464.221382 422.126132 
L 459.943794 422.126132 
z
" clip-path="url(#p102d89a5ae)" style="fill: #dd8452; fill-opacity: 0.5; stroke: #ffffff; stroke-width: 0.365077; stroke-linejoin: miter"/>
   </g>
   <g id="patch_173">
    <path d="M 464.221382 658.733189 
L 468.49897 658.733189 
L 468.49897 429.600282 
L 464.221382 429.600282 
z
" clip-path="url(#p102d89a5ae)" style="fill: #dd8452; fill-opacity: 0.5; stroke: #ffffff; stroke-width: 0.365077; stroke-linejoin: miter"/>
   </g>
   <g id="patch_174">
    <path d="M 468.49897 658.733189 
L 472.776559 658.733189 
L 472.776559 412.532446 
L 468.49897 412.532446 
z
" clip-path="url(#p102d89a5ae)" style="fill: #dd8452; fill-opacity: 0.5; stroke: #ffffff; stroke-width: 0.365077; stroke-linejoin: miter"/>
   </g>
   <g id="patch_175">
    <path d="M 472.776559 658.733189 
L 477.054147 658.733189 
L 477.054147 412.309337 
L 472.776559 412.309337 
z
" clip-path="url(#p102d89a5ae)" style="fill: #dd8452; fill-opacity: 0.5; stroke: #ffffff; stroke-width: 0.365077; stroke-linejoin: miter"/>
   </g>
   <g id="patch_176">
    <path d="M 477.054147 658.733189 
L 481.331735 658.733189 
L 481.331735 409.63203 
L 477.054147 409.63203 
z
" clip-path="url(#p102d89a5ae)" style="fill: #dd8452; fill-opacity: 0.5; stroke: #ffffff; stroke-width: 0.365077; stroke-linejoin: miter"/>
   </g>
   <g id="patch_177">
    <path d="M 481.331735 658.733189 
L 485.609323 658.733189 
L 485.609323 398.922799 
L 481.331735 398.922799 
z
" clip-path="url(#p102d89a5ae)" style="fill: #dd8452; fill-opacity: 0.5; stroke: #ffffff; stroke-width: 0.365077; stroke-linejoin: miter"/>
   </g>
   <g id="patch_178">
    <path d="M 485.609323 658.733189 
L 489.886912 658.733189 
L 489.886912 395.687719 
L 485.609323 395.687719 
z
" clip-path="url(#p102d89a5ae)" style="fill: #dd8452; fill-opacity: 0.5; stroke: #ffffff; stroke-width: 0.365077; stroke-linejoin: miter"/>
   </g>
   <g id="patch_179">
    <path d="M 489.886912 658.733189 
L 494.1645 658.733189 
L 494.1645 383.974499 
L 489.886912 383.974499 
z
" clip-path="url(#p102d89a5ae)" style="fill: #dd8452; fill-opacity: 0.5; stroke: #ffffff; stroke-width: 0.365077; stroke-linejoin: miter"/>
   </g>
   <g id="patch_180">
    <path d="M 494.1645 658.733189 
L 498.442088 658.733189 
L 498.442088 374.269259 
L 494.1645 374.269259 
z
" clip-path="url(#p102d89a5ae)" style="fill: #dd8452; fill-opacity: 0.5; stroke: #ffffff; stroke-width: 0.365077; stroke-linejoin: miter"/>
   </g>
   <g id="patch_181">
    <path d="M 498.442088 658.733189 
L 502.719676 658.733189 
L 502.719676 347.942401 
L 498.442088 347.942401 
z
" clip-path="url(#p102d89a5ae)" style="fill: #dd8452; fill-opacity: 0.5; stroke: #ffffff; stroke-width: 0.365077; stroke-linejoin: miter"/>
   </g>
   <g id="patch_182">
    <path d="M 502.719676 658.733189 
L 506.997265 658.733189 
L 506.997265 331.767001 
L 502.719676 331.767001 
z
" clip-path="url(#p102d89a5ae)" style="fill: #dd8452; fill-opacity: 0.5; stroke: #ffffff; stroke-width: 0.365077; stroke-linejoin: miter"/>
   </g>
   <g id="patch_183">
    <path d="M 506.997265 658.733189 
L 511.274853 658.733189 
L 511.274853 316.037819 
L 506.997265 316.037819 
z
" clip-path="url(#p102d89a5ae)" style="fill: #dd8452; fill-opacity: 0.5; stroke: #ffffff; stroke-width: 0.365077; stroke-linejoin: miter"/>
   </g>
   <g id="patch_184">
    <path d="M 511.274853 658.733189 
L 515.552441 658.733189 
L 515.552441 281.567484 
L 511.274853 281.567484 
z
" clip-path="url(#p102d89a5ae)" style="fill: #dd8452; fill-opacity: 0.5; stroke: #ffffff; stroke-width: 0.365077; stroke-linejoin: miter"/>
   </g>
   <g id="patch_185">
    <path d="M 515.552441 658.733189 
L 519.830029 658.733189 
L 519.830029 254.794408 
L 515.552441 254.794408 
z
" clip-path="url(#p102d89a5ae)" style="fill: #dd8452; fill-opacity: 0.5; stroke: #ffffff; stroke-width: 0.365077; stroke-linejoin: miter"/>
   </g>
   <g id="patch_186">
    <path d="M 519.830029 658.733189 
L 524.107618 658.733189 
L 524.107618 273.75867 
L 519.830029 273.75867 
z
" clip-path="url(#p102d89a5ae)" style="fill: #dd8452; fill-opacity: 0.5; stroke: #ffffff; stroke-width: 0.365077; stroke-linejoin: miter"/>
   </g>
   <g id="patch_187">
    <path d="M 352.941946 658.733189 
L 357.833173 658.733189 
L 357.833173 -1034.016302 
L 352.941946 -1034.016302 
z
" clip-path="url(#p102d89a5ae)" style="fill: #55a868; fill-opacity: 0.5; stroke: #ffffff; stroke-width: 0.417449; stroke-linejoin: miter"/>
   </g>
   <g id="patch_188">
    <path d="M 357.833173 658.733189 
L 362.7244 658.733189 
L 362.7244 513.174879 
L 357.833173 513.174879 
z
" clip-path="url(#p102d89a5ae)" style="fill: #55a868; fill-opacity: 0.5; stroke: #ffffff; stroke-width: 0.417449; stroke-linejoin: miter"/>
   </g>
   <g id="patch_189">
    <path d="M 362.7244 658.733189 
L 367.615627 658.733189 
L 367.615627 502.345809 
L 362.7244 502.345809 
z
" clip-path="url(#p102d89a5ae)" style="fill: #55a868; fill-opacity: 0.5; stroke: #ffffff; stroke-width: 0.417449; stroke-linejoin: miter"/>
   </g>
   <g id="patch_190">
    <path d="M 367.615627 658.733189 
L 372.506854 658.733189 
L 372.506854 489.760674 
L 367.615627 489.760674 
z
" clip-path="url(#p102d89a5ae)" style="fill: #55a868; fill-opacity: 0.5; stroke: #ffffff; stroke-width: 0.417449; stroke-linejoin: miter"/>
   </g>
   <g id="patch_191">
    <path d="M 372.506854 658.733189 
L 377.398081 658.733189 
L 377.398081 486.443661 
L 372.506854 486.443661 
z
" clip-path="url(#p102d89a5ae)" style="fill: #55a868; fill-opacity: 0.5; stroke: #ffffff; stroke-width: 0.417449; stroke-linejoin: miter"/>
   </g>
   <g id="patch_192">
    <path d="M 377.398081 658.733189 
L 382.289308 658.733189 
L 382.289308 483.809563 
L 377.398081 483.809563 
z
" clip-path="url(#p102d89a5ae)" style="fill: #55a868; fill-opacity: 0.5; stroke: #ffffff; stroke-width: 0.417449; stroke-linejoin: miter"/>
   </g>
   <g id="patch_193">
    <path d="M 382.289308 658.733189 
L 387.180535 658.733189 
L 387.180535 468.395211 
L 382.289308 468.395211 
z
" clip-path="url(#p102d89a5ae)" style="fill: #55a868; fill-opacity: 0.5; stroke: #ffffff; stroke-width: 0.417449; stroke-linejoin: miter"/>
   </g>
   <g id="patch_194">
    <path d="M 387.180535 658.733189 
L 392.071762 658.733189 
L 392.071762 469.078125 
L 387.180535 469.078125 
z
" clip-path="url(#p102d89a5ae)" style="fill: #55a868; fill-opacity: 0.5; stroke: #ffffff; stroke-width: 0.417449; stroke-linejoin: miter"/>
   </g>
   <g id="patch_195">
    <path d="M 392.071762 658.733189 
L 396.962989 658.733189 
L 396.962989 468.004974 
L 392.071762 468.004974 
z
" clip-path="url(#p102d89a5ae)" style="fill: #55a868; fill-opacity: 0.5; stroke: #ffffff; stroke-width: 0.417449; stroke-linejoin: miter"/>
   </g>
   <g id="patch_196">
    <path d="M 396.962989 658.733189 
L 401.854216 658.733189 
L 401.854216 457.175904 
L 396.962989 457.175904 
z
" clip-path="url(#p102d89a5ae)" style="fill: #55a868; fill-opacity: 0.5; stroke: #ffffff; stroke-width: 0.417449; stroke-linejoin: miter"/>
   </g>
   <g id="patch_197">
    <path d="M 401.854216 658.733189 
L 406.745443 658.733189 
L 406.745443 455.127161 
L 401.854216 455.127161 
z
" clip-path="url(#p102d89a5ae)" style="fill: #55a868; fill-opacity: 0.5; stroke: #ffffff; stroke-width: 0.417449; stroke-linejoin: miter"/>
   </g>
   <g id="patch_198">
    <path d="M 406.745443 658.733189 
L 411.63667 658.733189 
L 411.63667 452.785741 
L 406.745443 452.785741 
z
" clip-path="url(#p102d89a5ae)" style="fill: #55a868; fill-opacity: 0.5; stroke: #ffffff; stroke-width: 0.417449; stroke-linejoin: miter"/>
   </g>
   <g id="patch_199">
    <path d="M 411.63667 658.733189 
L 416.527897 658.733189 
L 416.527897 443.420059 
L 411.63667 443.420059 
z
" clip-path="url(#p102d89a5ae)" style="fill: #55a868; fill-opacity: 0.5; stroke: #ffffff; stroke-width: 0.417449; stroke-linejoin: miter"/>
   </g>
   <g id="patch_200">
    <path d="M 416.527897 658.733189 
L 421.419124 658.733189 
L 421.419124 445.371242 
L 416.527897 445.371242 
z
" clip-path="url(#p102d89a5ae)" style="fill: #55a868; fill-opacity: 0.5; stroke: #ffffff; stroke-width: 0.417449; stroke-linejoin: miter"/>
   </g>
   <g id="patch_201">
    <path d="M 421.419124 658.733189 
L 426.310351 658.733189 
L 426.310351 441.859112 
L 421.419124 441.859112 
z
" clip-path="url(#p102d89a5ae)" style="fill: #55a868; fill-opacity: 0.5; stroke: #ffffff; stroke-width: 0.417449; stroke-linejoin: miter"/>
   </g>
   <g id="patch_202">
    <path d="M 426.310351 658.733189 
L 431.201578 658.733189 
L 431.201578 436.590915 
L 426.310351 436.590915 
z
" clip-path="url(#p102d89a5ae)" style="fill: #55a868; fill-opacity: 0.5; stroke: #ffffff; stroke-width: 0.417449; stroke-linejoin: miter"/>
   </g>
   <g id="patch_203">
    <path d="M 431.201578 658.733189 
L 436.092805 658.733189 
L 436.092805 433.956817 
L 431.201578 433.956817 
z
" clip-path="url(#p102d89a5ae)" style="fill: #55a868; fill-opacity: 0.5; stroke: #ffffff; stroke-width: 0.417449; stroke-linejoin: miter"/>
   </g>
   <g id="patch_204">
    <path d="M 436.092805 658.733189 
L 440.984032 658.733189 
L 440.984032 440.395724 
L 436.092805 440.395724 
z
" clip-path="url(#p102d89a5ae)" style="fill: #55a868; fill-opacity: 0.5; stroke: #ffffff; stroke-width: 0.417449; stroke-linejoin: miter"/>
   </g>
   <g id="patch_205">
    <path d="M 440.984032 658.733189 
L 445.875259 658.733189 
L 445.875259 434.151936 
L 440.984032 434.151936 
z
" clip-path="url(#p102d89a5ae)" style="fill: #55a868; fill-opacity: 0.5; stroke: #ffffff; stroke-width: 0.417449; stroke-linejoin: miter"/>
   </g>
   <g id="patch_206">
    <path d="M 445.875259 658.733189 
L 450.766486 658.733189 
L 450.766486 438.737218 
L 445.875259 438.737218 
z
" clip-path="url(#p102d89a5ae)" style="fill: #55a868; fill-opacity: 0.5; stroke: #ffffff; stroke-width: 0.417449; stroke-linejoin: miter"/>
   </g>
   <g id="patch_207">
    <path d="M 450.766486 658.733189 
L 455.657713 658.733189 
L 455.657713 444.395651 
L 450.766486 444.395651 
z
" clip-path="url(#p102d89a5ae)" style="fill: #55a868; fill-opacity: 0.5; stroke: #ffffff; stroke-width: 0.417449; stroke-linejoin: miter"/>
   </g>
   <g id="patch_208">
    <path d="M 455.657713 658.733189 
L 460.54894 658.733189 
L 460.54894 438.249422 
L 455.657713 438.249422 
z
" clip-path="url(#p102d89a5ae)" style="fill: #55a868; fill-opacity: 0.5; stroke: #ffffff; stroke-width: 0.417449; stroke-linejoin: miter"/>
   </g>
   <g id="patch_209">
    <path d="M 460.54894 658.733189 
L 465.440167 658.733189 
L 465.440167 440.981079 
L 460.54894 440.981079 
z
" clip-path="url(#p102d89a5ae)" style="fill: #55a868; fill-opacity: 0.5; stroke: #ffffff; stroke-width: 0.417449; stroke-linejoin: miter"/>
   </g>
   <g id="patch_210">
    <path d="M 465.440167 658.733189 
L 470.331394 658.733189 
L 470.331394 454.541806 
L 465.440167 454.541806 
z
" clip-path="url(#p102d89a5ae)" style="fill: #55a868; fill-opacity: 0.5; stroke: #ffffff; stroke-width: 0.417449; stroke-linejoin: miter"/>
   </g>
   <g id="patch_211">
    <path d="M 470.331394 658.733189 
L 475.222621 658.733189 
L 475.222621 445.956598 
L 470.331394 445.956598 
z
" clip-path="url(#p102d89a5ae)" style="fill: #55a868; fill-opacity: 0.5; stroke: #ffffff; stroke-width: 0.417449; stroke-linejoin: miter"/>
   </g>
   <g id="patch_212">
    <path d="M 475.222621 658.733189 
L 480.113848 658.733189 
L 480.113848 457.566141 
L 475.222621 457.566141 
z
" clip-path="url(#p102d89a5ae)" style="fill: #55a868; fill-opacity: 0.5; stroke: #ffffff; stroke-width: 0.417449; stroke-linejoin: miter"/>
   </g>
   <g id="patch_213">
    <path d="M 480.113848 658.733189 
L 485.005075 658.733189 
L 485.005075 465.273317 
L 480.113848 465.273317 
z
" clip-path="url(#p102d89a5ae)" style="fill: #55a868; fill-opacity: 0.5; stroke: #ffffff; stroke-width: 0.417449; stroke-linejoin: miter"/>
   </g>
   <g id="patch_214">
    <path d="M 485.005075 658.733189 
L 489.896302 658.733189 
L 489.896302 470.151276 
L 485.005075 470.151276 
z
" clip-path="url(#p102d89a5ae)" style="fill: #55a868; fill-opacity: 0.5; stroke: #ffffff; stroke-width: 0.417449; stroke-linejoin: miter"/>
   </g>
   <g id="patch_215">
    <path d="M 489.896302 658.733189 
L 494.787529 658.733189 
L 494.787529 479.907195 
L 489.896302 479.907195 
z
" clip-path="url(#p102d89a5ae)" style="fill: #55a868; fill-opacity: 0.5; stroke: #ffffff; stroke-width: 0.417449; stroke-linejoin: miter"/>
   </g>
   <g id="patch_216">
    <path d="M 494.787529 658.733189 
L 499.678756 658.733189 
L 499.678756 482.443734 
L 494.787529 482.443734 
z
" clip-path="url(#p102d89a5ae)" style="fill: #55a868; fill-opacity: 0.5; stroke: #ffffff; stroke-width: 0.417449; stroke-linejoin: miter"/>
   </g>
   <g id="patch_217">
    <path d="M 499.678756 658.733189 
L 504.569983 658.733189 
L 504.569983 493.955719 
L 499.678756 493.955719 
z
" clip-path="url(#p102d89a5ae)" style="fill: #55a868; fill-opacity: 0.5; stroke: #ffffff; stroke-width: 0.417449; stroke-linejoin: miter"/>
   </g>
   <g id="patch_218">
    <path d="M 504.569983 658.733189 
L 509.46121 658.733189 
L 509.46121 501.565335 
L 504.569983 501.565335 
z
" clip-path="url(#p102d89a5ae)" style="fill: #55a868; fill-opacity: 0.5; stroke: #ffffff; stroke-width: 0.417449; stroke-linejoin: miter"/>
   </g>
   <g id="patch_219">
    <path d="M 509.46121 658.733189 
L 514.352437 658.733189 
L 514.352437 508.296919 
L 509.46121 508.296919 
z
" clip-path="url(#p102d89a5ae)" style="fill: #55a868; fill-opacity: 0.5; stroke: #ffffff; stroke-width: 0.417449; stroke-linejoin: miter"/>
   </g>
   <g id="patch_220">
    <path d="M 514.352437 658.733189 
L 519.243664 658.733189 
L 519.243664 509.370071 
L 514.352437 509.370071 
z
" clip-path="url(#p102d89a5ae)" style="fill: #55a868; fill-opacity: 0.5; stroke: #ffffff; stroke-width: 0.417449; stroke-linejoin: miter"/>
   </g>
   <g id="patch_221">
    <path d="M 519.243664 658.733189 
L 524.134891 658.733189 
L 524.134891 -1019.479983 
L 519.243664 -1019.479983 
z
" clip-path="url(#p102d89a5ae)" style="fill: #55a868; fill-opacity: 0.5; stroke: #ffffff; stroke-width: 0.417449; stroke-linejoin: miter"/>
   </g>
   <g id="line2d_12">
    <path d="M 99.544091 658.686563 
L 117.46474 658.551456 
L 149.721907 657.794471 
L 167.642556 657.111566 
L 178.394945 656.533236 
L 185.563205 655.92853 
L 192.731464 654.96237 
L 210.652113 651.749784 
L 217.820372 650.368191 
L 221.404502 649.522164 
L 228.572762 647.494271 
L 235.741021 645.075991 
L 239.325151 643.669288 
L 242.90928 642.077695 
L 246.49341 640.290429 
L 253.66167 636.27521 
L 260.829929 631.960369 
L 267.998189 627.442823 
L 271.582318 625.073236 
L 275.166448 622.556923 
L 278.750578 619.807276 
L 282.334708 616.758166 
L 285.918837 613.406739 
L 293.087097 606.07264 
L 300.255356 598.230287 
L 303.839486 594.035148 
L 307.423616 589.574135 
L 311.007746 584.84154 
L 318.176005 574.778788 
L 332.512524 554.087745 
L 343.264913 539.144272 
L 346.849043 533.832484 
L 350.433173 528.11705 
L 354.017302 522.003157 
L 364.769692 502.872972 
L 368.353821 496.879752 
L 371.937951 491.297363 
L 375.522081 486.151725 
L 379.106211 481.428312 
L 382.69034 477.105481 
L 386.27447 473.13799 
L 393.44273 465.813015 
L 400.610989 458.745203 
L 404.195119 455.443241 
L 407.779249 452.407557 
L 411.363378 449.622235 
L 418.531638 444.538733 
L 422.115767 442.215657 
L 425.699897 440.17575 
L 429.284027 438.602842 
L 432.868157 437.64627 
L 436.452286 437.347816 
L 440.036416 437.627321 
L 443.620546 438.318474 
L 450.788805 440.268513 
L 454.372935 441.432712 
L 457.957065 442.855103 
L 461.541195 444.658915 
L 465.125324 446.88689 
L 468.709454 449.537227 
L 472.293584 452.64739 
L 475.877714 456.294114 
L 479.461843 460.49773 
L 483.045973 465.154533 
L 490.214233 475.149728 
L 497.382492 485.521665 
L 504.550751 496.041624 
L 511.719011 506.121239 
L 518.88727 516.204396 
L 522.4714 521.66676 
L 529.63966 533.381077 
L 536.807919 545.06745 
L 540.392049 550.658861 
L 543.976179 556.022151 
L 547.560308 561.117164 
L 554.728568 570.672422 
L 572.649217 593.946974 
L 576.233346 598.265047 
L 579.817476 602.360248 
L 583.401606 606.21046 
L 586.985735 609.811508 
L 590.569865 613.183645 
L 594.153995 616.364282 
L 597.738125 619.38478 
L 601.322254 622.250914 
L 604.906384 624.949804 
L 608.490514 627.475876 
L 612.074644 629.842416 
L 615.658773 632.064582 
L 619.242903 634.139633 
L 622.827033 636.053796 
L 626.411163 637.808962 
L 633.579422 640.986863 
L 640.747682 643.967578 
L 647.915941 646.697027 
L 651.500071 647.88129 
L 655.084201 648.92181 
L 662.25246 650.637386 
L 673.004849 652.750774 
L 680.173109 653.981088 
L 687.341368 655.050825 
L 694.509628 655.957001 
L 701.677887 656.700766 
L 708.846147 657.271849 
L 719.598536 657.828667 
L 730.350925 658.100805 
L 755.439833 658.497043 
L 812.785909 658.691666 
L 812.785909 658.691666 
" clip-path="url(#p102d89a5ae)" style="fill: none; stroke: #4c72b0; stroke-width: 1.5; stroke-linecap: round"/>
   </g>
   <g id="line2d_13">
    <path d="M 353.004088 463.941347 
L 355.583538 389.745315 
L 357.303172 348.686201 
L 358.162988 332.08189 
L 359.022805 318.384308 
L 359.882622 307.621156 
L 360.742439 299.687021 
L 361.602255 294.37011 
L 362.462072 291.38349 
L 363.321889 290.396568 
L 364.181705 291.063362 
L 365.041522 293.045339 
L 365.901339 296.027901 
L 367.620972 303.912605 
L 372.779873 330.371428 
L 374.499506 337.87188 
L 376.21914 344.519727 
L 378.79859 353.332578 
L 382.237857 364.071964 
L 388.256574 382.065222 
L 392.555658 394.190066 
L 395.135108 400.802581 
L 396.854741 404.703934 
L 398.574375 408.11619 
L 400.294008 411.071195 
L 402.873458 414.911578 
L 406.312725 419.550097 
L 408.892176 422.774327 
L 411.471626 425.639859 
L 414.051076 428.117262 
L 416.630526 430.220367 
L 418.35016 431.363547 
L 420.069793 432.24019 
L 421.789426 432.829142 
L 423.50906 433.166371 
L 426.948327 433.46495 
L 429.527777 433.751266 
L 432.107227 434.248283 
L 438.125944 435.550989 
L 442.425028 436.171057 
L 445.004478 436.382696 
L 446.724112 436.325274 
L 448.443745 435.994114 
L 450.163379 435.319461 
L 451.883012 434.291784 
L 453.602646 432.971931 
L 460.481179 427.172769 
L 463.920446 424.504116 
L 465.64008 422.887949 
L 467.359713 420.974043 
L 469.939163 417.680855 
L 473.37843 413.241524 
L 476.817697 409.268905 
L 479.397147 406.244181 
L 481.116781 403.956684 
L 482.836414 401.345794 
L 484.556048 398.383568 
L 486.275681 395.081313 
L 488.855132 389.515529 
L 490.574765 385.357465 
L 492.294398 380.754159 
L 494.014032 375.611756 
L 495.733665 369.867073 
L 497.453299 363.524389 
L 500.032749 353.065453 
L 503.472016 337.857974 
L 506.911283 321.403645 
L 510.35055 304.827757 
L 511.210367 301.308749 
L 512.070183 298.410719 
L 512.93 296.404034 
L 513.789817 295.60284 
L 514.649633 296.353599 
L 515.50945 299.016811 
L 516.369267 303.942044 
L 517.229084 311.437512 
L 518.0889 321.736637 
L 518.948717 334.9652 
L 519.808534 351.113416 
L 521.528167 391.354175 
L 523.247801 439.315131 
L 524.107618 464.66764 
L 524.107618 464.66764 
" clip-path="url(#p102d89a5ae)" style="fill: none; stroke: #dd8452; stroke-width: 1.5; stroke-linecap: round"/>
   </g>
   <g id="line2d_14">
    <path d="M 352.941946 94.632907 
L 353.802212 91.096161 
L 354.662478 96.927946 
L 355.522744 111.459376 
L 356.38301 133.553623 
L 357.243276 161.716129 
L 358.963808 229.311464 
L 361.544606 333.712113 
L 363.265138 390.857738 
L 364.125404 413.825417 
L 364.98567 432.922195 
L 365.845936 448.329363 
L 366.706202 460.379658 
L 367.566469 469.496648 
L 368.426735 476.141769 
L 369.287001 480.772347 
L 370.147267 483.811761 
L 371.007533 485.631237 
L 371.867799 486.541579 
L 372.728065 486.792561 
L 373.588331 486.577568 
L 374.448597 486.041308 
L 376.169129 484.394301 
L 378.749927 481.301042 
L 383.051258 476.037252 
L 385.632056 473.257754 
L 388.212854 470.824098 
L 393.37445 466.139164 
L 395.955249 463.448309 
L 401.977111 456.9316 
L 404.557909 454.575033 
L 407.998973 451.850878 
L 413.16057 448.144653 
L 427.785093 438.243955 
L 429.505625 437.462246 
L 431.226157 436.904192 
L 432.946689 436.565196 
L 434.667221 436.423388 
L 436.387753 436.452765 
L 438.968551 436.775424 
L 441.54935 437.393339 
L 444.990414 438.539646 
L 448.431478 439.705225 
L 451.012276 440.377384 
L 457.034139 441.733723 
L 458.754671 442.398588 
L 460.475203 443.284444 
L 463.056001 444.968348 
L 471.658662 451.274338 
L 473.379194 452.7178 
L 475.099726 454.382689 
L 476.820258 456.306273 
L 479.401056 459.641812 
L 482.84212 464.598479 
L 488.003717 472.049854 
L 497.466643 485.393639 
L 500.907708 490.332707 
L 502.62824 492.343105 
L 503.488506 493.032929 
L 504.348772 493.370216 
L 505.209038 493.200986 
L 506.069304 492.323829 
L 506.92957 490.483134 
L 507.789836 487.365241 
L 508.650102 482.599653 
L 509.510368 475.767594 
L 510.370634 466.42016 
L 511.2309 454.107695 
L 512.091166 438.420944 
L 512.951433 419.042834 
L 513.811699 395.807697 
L 514.671965 368.762444 
L 516.392497 304.811511 
L 519.833561 165.884426 
L 520.693827 137.735316 
L 521.554093 115.649728 
L 522.414359 101.106945 
L 523.274625 95.230564 
L 524.134891 98.679565 
L 524.134891 98.679565 
" clip-path="url(#p102d89a5ae)" style="fill: none; stroke: #55a868; stroke-width: 1.5; stroke-linecap: round"/>
   </g>
   <g id="patch_222">
    <path d="M 63.882 664.308 
L 63.882 45.504 
" style="fill: none; stroke: #ffffff; stroke-width: 1.25; stroke-linejoin: miter; stroke-linecap: square"/>
   </g>
   <g id="patch_223">
    <path d="M 848.448 664.308 
L 848.448 45.504 
" style="fill: none; stroke: #ffffff; stroke-width: 1.25; stroke-linejoin: miter; stroke-linecap: square"/>
   </g>
   <g id="patch_224">
    <path d="M 63.882 664.308 
L 848.448 664.308 
" style="fill: none; stroke: #ffffff; stroke-width: 1.25; stroke-linejoin: miter; stroke-linecap: square"/>
   </g>
   <g id="patch_225">
    <path d="M 63.882 45.504 
L 848.448 45.504 
" style="fill: none; stroke: #ffffff; stroke-width: 1.25; stroke-linejoin: miter; stroke-linecap: square"/>
   </g>
   <g id="legend_1">
    <g id="patch_226">
     <path d="M 667.257375 114.189375 
L 839.208 114.189375 
Q 841.848 114.189375 841.848 111.549375 
L 841.848 54.744 
Q 841.848 52.104 839.208 52.104 
L 667.257375 52.104 
Q 664.617375 52.104 664.617375 54.744 
L 664.617375 111.549375 
Q 664.617375 114.189375 667.257375 114.189375 
z
" style="fill: #eaeaf2; opacity: 0.8; stroke: #cccccc; stroke-linejoin: miter"/>
    </g>
    <g id="patch_227">
     <path d="M 669.897375 67.413938 
L 696.297375 67.413938 
L 696.297375 58.173938 
L 669.897375 58.173938 
z
" style="fill: #4c72b0; fill-opacity: 0.5; stroke: #ffffff; stroke-width: 0.422727; stroke-linejoin: miter"/>
    </g>
    <g id="text_14">
     <!-- Standard Gaussian -->
     <g style="fill: #262626" transform="translate(706.857375 67.413938) scale(0.132 -0.132)">
      <defs>
       <path id="DejaVuSans-53" d="M 3425 4513 
L 3425 3897 
Q 3066 4069 2747 4153 
Q 2428 4238 2131 4238 
Q 1616 4238 1336 4038 
Q 1056 3838 1056 3469 
Q 1056 3159 1242 3001 
Q 1428 2844 1947 2747 
L 2328 2669 
Q 3034 2534 3370 2195 
Q 3706 1856 3706 1288 
Q 3706 609 3251 259 
Q 2797 -91 1919 -91 
Q 1588 -91 1214 -16 
Q 841 59 441 206 
L 441 856 
Q 825 641 1194 531 
Q 1563 422 1919 422 
Q 2459 422 2753 634 
Q 3047 847 3047 1241 
Q 3047 1584 2836 1778 
Q 2625 1972 2144 2069 
L 1759 2144 
Q 1053 2284 737 2584 
Q 422 2884 422 3419 
Q 422 4038 858 4394 
Q 1294 4750 2059 4750 
Q 2388 4750 2728 4690 
Q 3069 4631 3425 4513 
z
" transform="scale(0.015625)"/>
       <path id="DejaVuSans-61" d="M 2194 1759 
Q 1497 1759 1228 1600 
Q 959 1441 959 1056 
Q 959 750 1161 570 
Q 1363 391 1709 391 
Q 2188 391 2477 730 
Q 2766 1069 2766 1631 
L 2766 1759 
L 2194 1759 
z
M 3341 1997 
L 3341 0 
L 2766 0 
L 2766 531 
Q 2569 213 2275 61 
Q 1981 -91 1556 -91 
Q 1019 -91 701 211 
Q 384 513 384 1019 
Q 384 1609 779 1909 
Q 1175 2209 1959 2209 
L 2766 2209 
L 2766 2266 
Q 2766 2663 2505 2880 
Q 2244 3097 1772 3097 
Q 1472 3097 1187 3025 
Q 903 2953 641 2809 
L 641 3341 
Q 956 3463 1253 3523 
Q 1550 3584 1831 3584 
Q 2591 3584 2966 3190 
Q 3341 2797 3341 1997 
z
" transform="scale(0.015625)"/>
       <path id="DejaVuSans-64" d="M 2906 2969 
L 2906 4863 
L 3481 4863 
L 3481 0 
L 2906 0 
L 2906 525 
Q 2725 213 2448 61 
Q 2172 -91 1784 -91 
Q 1150 -91 751 415 
Q 353 922 353 1747 
Q 353 2572 751 3078 
Q 1150 3584 1784 3584 
Q 2172 3584 2448 3432 
Q 2725 3281 2906 2969 
z
M 947 1747 
Q 947 1113 1208 752 
Q 1469 391 1925 391 
Q 2381 391 2643 752 
Q 2906 1113 2906 1747 
Q 2906 2381 2643 2742 
Q 2381 3103 1925 3103 
Q 1469 3103 1208 2742 
Q 947 2381 947 1747 
z
" transform="scale(0.015625)"/>
       <path id="DejaVuSans-72" d="M 2631 2963 
Q 2534 3019 2420 3045 
Q 2306 3072 2169 3072 
Q 1681 3072 1420 2755 
Q 1159 2438 1159 1844 
L 1159 0 
L 581 0 
L 581 3500 
L 1159 3500 
L 1159 2956 
Q 1341 3275 1631 3429 
Q 1922 3584 2338 3584 
Q 2397 3584 2469 3576 
Q 2541 3569 2628 3553 
L 2631 2963 
z
" transform="scale(0.015625)"/>
       <path id="DejaVuSans-20" transform="scale(0.015625)"/>
       <path id="DejaVuSans-47" d="M 3809 666 
L 3809 1919 
L 2778 1919 
L 2778 2438 
L 4434 2438 
L 4434 434 
Q 4069 175 3628 42 
Q 3188 -91 2688 -91 
Q 1594 -91 976 548 
Q 359 1188 359 2328 
Q 359 3472 976 4111 
Q 1594 4750 2688 4750 
Q 3144 4750 3555 4637 
Q 3966 4525 4313 4306 
L 4313 3634 
Q 3963 3931 3569 4081 
Q 3175 4231 2741 4231 
Q 1884 4231 1454 3753 
Q 1025 3275 1025 2328 
Q 1025 1384 1454 906 
Q 1884 428 2741 428 
Q 3075 428 3337 486 
Q 3600 544 3809 666 
z
" transform="scale(0.015625)"/>
       <path id="DejaVuSans-75" d="M 544 1381 
L 544 3500 
L 1119 3500 
L 1119 1403 
Q 1119 906 1312 657 
Q 1506 409 1894 409 
Q 2359 409 2629 706 
Q 2900 1003 2900 1516 
L 2900 3500 
L 3475 3500 
L 3475 0 
L 2900 0 
L 2900 538 
Q 2691 219 2414 64 
Q 2138 -91 1772 -91 
Q 1169 -91 856 284 
Q 544 659 544 1381 
z
M 1991 3584 
L 1991 3584 
z
" transform="scale(0.015625)"/>
      </defs>
      <use xlink:href="#DejaVuSans-53"/>
      <use xlink:href="#DejaVuSans-74" x="63.476562"/>
      <use xlink:href="#DejaVuSans-61" x="102.685547"/>
      <use xlink:href="#DejaVuSans-6e" x="163.964844"/>
      <use xlink:href="#DejaVuSans-64" x="227.34375"/>
      <use xlink:href="#DejaVuSans-61" x="290.820312"/>
      <use xlink:href="#DejaVuSans-72" x="352.099609"/>
      <use xlink:href="#DejaVuSans-64" x="391.462891"/>
      <use xlink:href="#DejaVuSans-20" x="454.939453"/>
      <use xlink:href="#DejaVuSans-47" x="486.726562"/>
      <use xlink:href="#DejaVuSans-61" x="564.216797"/>
      <use xlink:href="#DejaVuSans-75" x="625.496094"/>
      <use xlink:href="#DejaVuSans-73" x="688.875"/>
      <use xlink:href="#DejaVuSans-73" x="740.974609"/>
      <use xlink:href="#DejaVuSans-69" x="793.074219"/>
      <use xlink:href="#DejaVuSans-61" x="820.857422"/>
      <use xlink:href="#DejaVuSans-6e" x="882.136719"/>
     </g>
    </g>
    <g id="patch_228">
     <path d="M 669.897375 86.789063 
L 696.297375 86.789063 
L 696.297375 77.549063 
L 669.897375 77.549063 
z
" style="fill: #dd8452; fill-opacity: 0.5; stroke: #ffffff; stroke-width: 0.365077; stroke-linejoin: miter"/>
    </g>
    <g id="text_15">
     <!-- Squashed Gaussian -->
     <g style="fill: #262626" transform="translate(706.857375 86.789063) scale(0.132 -0.132)">
      <defs>
       <path id="DejaVuSans-71" d="M 947 1747 
Q 947 1113 1208 752 
Q 1469 391 1925 391 
Q 2381 391 2643 752 
Q 2906 1113 2906 1747 
Q 2906 2381 2643 2742 
Q 2381 3103 1925 3103 
Q 1469 3103 1208 2742 
Q 947 2381 947 1747 
z
M 2906 525 
Q 2725 213 2448 61 
Q 2172 -91 1784 -91 
Q 1150 -91 751 415 
Q 353 922 353 1747 
Q 353 2572 751 3078 
Q 1150 3584 1784 3584 
Q 2172 3584 2448 3432 
Q 2725 3281 2906 2969 
L 2906 3500 
L 3481 3500 
L 3481 -1331 
L 2906 -1331 
L 2906 525 
z
" transform="scale(0.015625)"/>
       <path id="DejaVuSans-68" d="M 3513 2113 
L 3513 0 
L 2938 0 
L 2938 2094 
Q 2938 2591 2744 2837 
Q 2550 3084 2163 3084 
Q 1697 3084 1428 2787 
Q 1159 2491 1159 1978 
L 1159 0 
L 581 0 
L 581 4863 
L 1159 4863 
L 1159 2956 
Q 1366 3272 1645 3428 
Q 1925 3584 2291 3584 
Q 2894 3584 3203 3211 
Q 3513 2838 3513 2113 
z
" transform="scale(0.015625)"/>
      </defs>
      <use xlink:href="#DejaVuSans-53"/>
      <use xlink:href="#DejaVuSans-71" x="63.476562"/>
      <use xlink:href="#DejaVuSans-75" x="126.953125"/>
      <use xlink:href="#DejaVuSans-61" x="190.332031"/>
      <use xlink:href="#DejaVuSans-73" x="251.611328"/>
      <use xlink:href="#DejaVuSans-68" x="303.710938"/>
      <use xlink:href="#DejaVuSans-65" x="367.089844"/>
      <use xlink:href="#DejaVuSans-64" x="428.613281"/>
      <use xlink:href="#DejaVuSans-20" x="492.089844"/>
      <use xlink:href="#DejaVuSans-47" x="523.876953"/>
      <use xlink:href="#DejaVuSans-61" x="601.367188"/>
      <use xlink:href="#DejaVuSans-75" x="662.646484"/>
      <use xlink:href="#DejaVuSans-73" x="726.025391"/>
      <use xlink:href="#DejaVuSans-73" x="778.125"/>
      <use xlink:href="#DejaVuSans-69" x="830.224609"/>
      <use xlink:href="#DejaVuSans-61" x="858.007812"/>
      <use xlink:href="#DejaVuSans-6e" x="919.287109"/>
     </g>
    </g>
    <g id="patch_229">
     <path d="M 669.897375 106.164188 
L 696.297375 106.164188 
L 696.297375 96.924188 
L 669.897375 96.924188 
z
" style="fill: #55a868; fill-opacity: 0.5; stroke: #ffffff; stroke-width: 0.417449; stroke-linejoin: miter"/>
    </g>
    <g id="text_16">
     <!-- Clipped Gaussian -->
     <g style="fill: #262626" transform="translate(706.857375 106.164188) scale(0.132 -0.132)">
      <defs>
       <path id="DejaVuSans-43" d="M 4122 4306 
L 4122 3641 
Q 3803 3938 3442 4084 
Q 3081 4231 2675 4231 
Q 1875 4231 1450 3742 
Q 1025 3253 1025 2328 
Q 1025 1406 1450 917 
Q 1875 428 2675 428 
Q 3081 428 3442 575 
Q 3803 722 4122 1019 
L 4122 359 
Q 3791 134 3420 21 
Q 3050 -91 2638 -91 
Q 1578 -91 968 557 
Q 359 1206 359 2328 
Q 359 3453 968 4101 
Q 1578 4750 2638 4750 
Q 3056 4750 3426 4639 
Q 3797 4528 4122 4306 
z
" transform="scale(0.015625)"/>
       <path id="DejaVuSans-6c" d="M 603 4863 
L 1178 4863 
L 1178 0 
L 603 0 
L 603 4863 
z
" transform="scale(0.015625)"/>
       <path id="DejaVuSans-70" d="M 1159 525 
L 1159 -1331 
L 581 -1331 
L 581 3500 
L 1159 3500 
L 1159 2969 
Q 1341 3281 1617 3432 
Q 1894 3584 2278 3584 
Q 2916 3584 3314 3078 
Q 3713 2572 3713 1747 
Q 3713 922 3314 415 
Q 2916 -91 2278 -91 
Q 1894 -91 1617 61 
Q 1341 213 1159 525 
z
M 3116 1747 
Q 3116 2381 2855 2742 
Q 2594 3103 2138 3103 
Q 1681 3103 1420 2742 
Q 1159 2381 1159 1747 
Q 1159 1113 1420 752 
Q 1681 391 2138 391 
Q 2594 391 2855 752 
Q 3116 1113 3116 1747 
z
" transform="scale(0.015625)"/>
      </defs>
      <use xlink:href="#DejaVuSans-43"/>
      <use xlink:href="#DejaVuSans-6c" x="69.824219"/>
      <use xlink:href="#DejaVuSans-69" x="97.607422"/>
      <use xlink:href="#DejaVuSans-70" x="125.390625"/>
      <use xlink:href="#DejaVuSans-70" x="188.867188"/>
      <use xlink:href="#DejaVuSans-65" x="252.34375"/>
      <use xlink:href="#DejaVuSans-64" x="313.867188"/>
      <use xlink:href="#DejaVuSans-20" x="377.34375"/>
      <use xlink:href="#DejaVuSans-47" x="409.130859"/>
      <use xlink:href="#DejaVuSans-61" x="486.621094"/>
      <use xlink:href="#DejaVuSans-75" x="547.900391"/>
      <use xlink:href="#DejaVuSans-73" x="611.279297"/>
      <use xlink:href="#DejaVuSans-73" x="663.378906"/>
      <use xlink:href="#DejaVuSans-69" x="715.478516"/>
      <use xlink:href="#DejaVuSans-61" x="743.261719"/>
      <use xlink:href="#DejaVuSans-6e" x="804.541016"/>
     </g>
    </g>
   </g>
  </g>
  <g id="text_17">
   <!-- Distribution of actions for a Gaussian and squashed Gaussian distributions -->
   <g style="fill: #262626" transform="translate(133.37375 26.5575) scale(0.16 -0.16)">
    <defs>
     <path id="DejaVuSans-62" d="M 3116 1747 
Q 3116 2381 2855 2742 
Q 2594 3103 2138 3103 
Q 1681 3103 1420 2742 
Q 1159 2381 1159 1747 
Q 1159 1113 1420 752 
Q 1681 391 2138 391 
Q 2594 391 2855 752 
Q 3116 1113 3116 1747 
z
M 1159 2969 
Q 1341 3281 1617 3432 
Q 1894 3584 2278 3584 
Q 2916 3584 3314 3078 
Q 3713 2572 3713 1747 
Q 3713 922 3314 415 
Q 2916 -91 2278 -91 
Q 1894 -91 1617 61 
Q 1341 213 1159 525 
L 1159 0 
L 581 0 
L 581 4863 
L 1159 4863 
L 1159 2969 
z
" transform="scale(0.015625)"/>
     <path id="DejaVuSans-66" d="M 2375 4863 
L 2375 4384 
L 1825 4384 
Q 1516 4384 1395 4259 
Q 1275 4134 1275 3809 
L 1275 3500 
L 2222 3500 
L 2222 3053 
L 1275 3053 
L 1275 0 
L 697 0 
L 697 3053 
L 147 3053 
L 147 3500 
L 697 3500 
L 697 3744 
Q 697 4328 969 4595 
Q 1241 4863 1831 4863 
L 2375 4863 
z
" transform="scale(0.015625)"/>
    </defs>
    <use xlink:href="#DejaVuSans-44"/>
    <use xlink:href="#DejaVuSans-69" x="77.001953"/>
    <use xlink:href="#DejaVuSans-73" x="104.785156"/>
    <use xlink:href="#DejaVuSans-74" x="156.884766"/>
    <use xlink:href="#DejaVuSans-72" x="196.09375"/>
    <use xlink:href="#DejaVuSans-69" x="237.207031"/>
    <use xlink:href="#DejaVuSans-62" x="264.990234"/>
    <use xlink:href="#DejaVuSans-75" x="328.466797"/>
    <use xlink:href="#DejaVuSans-74" x="391.845703"/>
    <use xlink:href="#DejaVuSans-69" x="431.054688"/>
    <use xlink:href="#DejaVuSans-6f" x="458.837891"/>
    <use xlink:href="#DejaVuSans-6e" x="520.019531"/>
    <use xlink:href="#DejaVuSans-20" x="583.398438"/>
    <use xlink:href="#DejaVuSans-6f" x="615.185547"/>
    <use xlink:href="#DejaVuSans-66" x="676.367188"/>
    <use xlink:href="#DejaVuSans-20" x="711.572266"/>
    <use xlink:href="#DejaVuSans-61" x="743.359375"/>
    <use xlink:href="#DejaVuSans-63" x="804.638672"/>
    <use xlink:href="#DejaVuSans-74" x="859.619141"/>
    <use xlink:href="#DejaVuSans-69" x="898.828125"/>
    <use xlink:href="#DejaVuSans-6f" x="926.611328"/>
    <use xlink:href="#DejaVuSans-6e" x="987.792969"/>
    <use xlink:href="#DejaVuSans-73" x="1051.171875"/>
    <use xlink:href="#DejaVuSans-20" x="1103.271484"/>
    <use xlink:href="#DejaVuSans-66" x="1135.058594"/>
    <use xlink:href="#DejaVuSans-6f" x="1170.263672"/>
    <use xlink:href="#DejaVuSans-72" x="1231.445312"/>
    <use xlink:href="#DejaVuSans-20" x="1272.558594"/>
    <use xlink:href="#DejaVuSans-61" x="1304.345703"/>
    <use xlink:href="#DejaVuSans-20" x="1365.625"/>
    <use xlink:href="#DejaVuSans-47" x="1397.412109"/>
    <use xlink:href="#DejaVuSans-61" x="1474.902344"/>
    <use xlink:href="#DejaVuSans-75" x="1536.181641"/>
    <use xlink:href="#DejaVuSans-73" x="1599.560547"/>
    <use xlink:href="#DejaVuSans-73" x="1651.660156"/>
    <use xlink:href="#DejaVuSans-69" x="1703.759766"/>
    <use xlink:href="#DejaVuSans-61" x="1731.542969"/>
    <use xlink:href="#DejaVuSans-6e" x="1792.822266"/>
    <use xlink:href="#DejaVuSans-20" x="1856.201172"/>
    <use xlink:href="#DejaVuSans-61" x="1887.988281"/>
    <use xlink:href="#DejaVuSans-6e" x="1949.267578"/>
    <use xlink:href="#DejaVuSans-64" x="2012.646484"/>
    <use xlink:href="#DejaVuSans-20" x="2076.123047"/>
    <use xlink:href="#DejaVuSans-73" x="2107.910156"/>
    <use xlink:href="#DejaVuSans-71" x="2160.009766"/>
    <use xlink:href="#DejaVuSans-75" x="2223.486328"/>
    <use xlink:href="#DejaVuSans-61" x="2286.865234"/>
    <use xlink:href="#DejaVuSans-73" x="2348.144531"/>
    <use xlink:href="#DejaVuSans-68" x="2400.244141"/>
    <use xlink:href="#DejaVuSans-65" x="2463.623047"/>
    <use xlink:href="#DejaVuSans-64" x="2525.146484"/>
    <use xlink:href="#DejaVuSans-20" x="2588.623047"/>
    <use xlink:href="#DejaVuSans-47" x="2620.410156"/>
    <use xlink:href="#DejaVuSans-61" x="2697.900391"/>
    <use xlink:href="#DejaVuSans-75" x="2759.179688"/>
    <use xlink:href="#DejaVuSans-73" x="2822.558594"/>
    <use xlink:href="#DejaVuSans-73" x="2874.658203"/>
    <use xlink:href="#DejaVuSans-69" x="2926.757812"/>
    <use xlink:href="#DejaVuSans-61" x="2954.541016"/>
    <use xlink:href="#DejaVuSans-6e" x="3015.820312"/>
    <use xlink:href="#DejaVuSans-20" x="3079.199219"/>
    <use xlink:href="#DejaVuSans-64" x="3110.986328"/>
    <use xlink:href="#DejaVuSans-69" x="3174.462891"/>
    <use xlink:href="#DejaVuSans-73" x="3202.246094"/>
    <use xlink:href="#DejaVuSans-74" x="3254.345703"/>
    <use xlink:href="#DejaVuSans-72" x="3293.554688"/>
    <use xlink:href="#DejaVuSans-69" x="3334.667969"/>
    <use xlink:href="#DejaVuSans-62" x="3362.451172"/>
    <use xlink:href="#DejaVuSans-75" x="3425.927734"/>
    <use xlink:href="#DejaVuSans-74" x="3489.306641"/>
    <use xlink:href="#DejaVuSans-69" x="3528.515625"/>
    <use xlink:href="#DejaVuSans-6f" x="3556.298828"/>
    <use xlink:href="#DejaVuSans-6e" x="3617.480469"/>
    <use xlink:href="#DejaVuSans-73" x="3680.859375"/>
   </g>
  </g>
 </g>
 <defs>
  <clipPath id="p102d89a5ae">
   <rect x="63.882" y="45.504" width="784.566" height="618.804"/>
  </clipPath>
 </defs>
</svg>
