<?xml version="1.0" encoding="utf-8" standalone="no"?>
<!DOCTYPE svg PUBLIC "-//W3C//DTD SVG 1.1//EN"
  "http://www.w3.org/Graphics/SVG/1.1/DTD/svg11.dtd">
<svg xmlns:xlink="http://www.w3.org/1999/xlink" width="720pt" height="432pt" viewBox="0 0 720 432" xmlns="http://www.w3.org/2000/svg" version="1.1">
 <metadata>
  <rdf:RDF xmlns:dc="http://purl.org/dc/elements/1.1/" xmlns:cc="http://creativecommons.org/ns#" xmlns:rdf="http://www.w3.org/1999/02/22-rdf-syntax-ns#">
   <cc:Work>
    <dc:type rdf:resource="http://purl.org/dc/dcmitype/StillImage"/>
    <dc:date>2025-03-03T17:17:20.560684</dc:date>
    <dc:format>image/svg+xml</dc:format>
    <dc:creator>
     <cc:Agent>
      <dc:title>Matplotlib v3.9.2, https://matplotlib.org/</dc:title>
     </cc:Agent>
    </dc:creator>
   </cc:Work>
  </rdf:RDF>
 </metadata>
 <defs>
  <style type="text/css">*{stroke-linejoin: round; stroke-linecap: butt}</style>
 </defs>
 <g id="figure_1">
  <g id="patch_1">
   <path d="M 0 432 
L 720 432 
L 720 0 
L 0 0 
z
" style="fill: #ffffff"/>
  </g>
  <g id="axes_1">
   <g id="patch_2">
    <path d="M 76.5 365.22 
L 700.56 365.22 
L 700.56 39.12 
L 76.5 39.12 
z
" style="fill: #eaeaf2"/>
   </g>
   <g id="matplotlib.axis_1">
    <g id="xtick_1">
     <g id="line2d_1">
      <path d="M 104.866364 365.22 
L 104.866364 39.12 
" clip-path="url(#p9bc2c14d6e)" style="fill: none; stroke: #ffffff; stroke-linecap: round"/>
     </g>
     <g id="text_1">
      <!-- −4 -->
      <g style="fill: #262626" transform="translate(92.704059 387.257422) scale(0.165 -0.165)">
       <defs>
        <path id="DejaVuSans-2212" d="M 678 2272 
L 4684 2272 
L 4684 1741 
L 678 1741 
L 678 2272 
z
" transform="scale(0.015625)"/>
        <path id="DejaVuSans-34" d="M 2419 4116 
L 825 1625 
L 2419 1625 
L 2419 4116 
z
M 2253 4666 
L 3047 4666 
L 3047 1625 
L 3713 1625 
L 3713 1100 
L 3047 1100 
L 3047 0 
L 2419 0 
L 2419 1100 
L 313 1100 
L 313 1709 
L 2253 4666 
z
" transform="scale(0.015625)"/>
       </defs>
       <use xlink:href="#DejaVuSans-2212"/>
       <use xlink:href="#DejaVuSans-34" x="83.789062"/>
      </g>
     </g>
    </g>
    <g id="xtick_2">
     <g id="line2d_2">
      <path d="M 175.782273 365.22 
L 175.782273 39.12 
" clip-path="url(#p9bc2c14d6e)" style="fill: none; stroke: #ffffff; stroke-linecap: round"/>
     </g>
     <g id="text_2">
      <!-- −3 -->
      <g style="fill: #262626" transform="translate(163.619968 387.257422) scale(0.165 -0.165)">
       <defs>
        <path id="DejaVuSans-33" d="M 2597 2516 
Q 3050 2419 3304 2112 
Q 3559 1806 3559 1356 
Q 3559 666 3084 287 
Q 2609 -91 1734 -91 
Q 1441 -91 1130 -33 
Q 819 25 488 141 
L 488 750 
Q 750 597 1062 519 
Q 1375 441 1716 441 
Q 2309 441 2620 675 
Q 2931 909 2931 1356 
Q 2931 1769 2642 2001 
Q 2353 2234 1838 2234 
L 1294 2234 
L 1294 2753 
L 1863 2753 
Q 2328 2753 2575 2939 
Q 2822 3125 2822 3475 
Q 2822 3834 2567 4026 
Q 2313 4219 1838 4219 
Q 1578 4219 1281 4162 
Q 984 4106 628 3988 
L 628 4550 
Q 988 4650 1302 4700 
Q 1616 4750 1894 4750 
Q 2613 4750 3031 4423 
Q 3450 4097 3450 3541 
Q 3450 3153 3228 2886 
Q 3006 2619 2597 2516 
z
" transform="scale(0.015625)"/>
       </defs>
       <use xlink:href="#DejaVuSans-2212"/>
       <use xlink:href="#DejaVuSans-33" x="83.789062"/>
      </g>
     </g>
    </g>
    <g id="xtick_3">
     <g id="line2d_3">
      <path d="M 246.698182 365.22 
L 246.698182 39.12 
" clip-path="url(#p9bc2c14d6e)" style="fill: none; stroke: #ffffff; stroke-linecap: round"/>
     </g>
     <g id="text_3">
      <!-- −2 -->
      <g style="fill: #262626" transform="translate(234.535877 387.257422) scale(0.165 -0.165)">
       <defs>
        <path id="DejaVuSans-32" d="M 1228 531 
L 3431 531 
L 3431 0 
L 469 0 
L 469 531 
Q 828 903 1448 1529 
Q 2069 2156 2228 2338 
Q 2531 2678 2651 2914 
Q 2772 3150 2772 3378 
Q 2772 3750 2511 3984 
Q 2250 4219 1831 4219 
Q 1534 4219 1204 4116 
Q 875 4013 500 3803 
L 500 4441 
Q 881 4594 1212 4672 
Q 1544 4750 1819 4750 
Q 2544 4750 2975 4387 
Q 3406 4025 3406 3419 
Q 3406 3131 3298 2873 
Q 3191 2616 2906 2266 
Q 2828 2175 2409 1742 
Q 1991 1309 1228 531 
z
" transform="scale(0.015625)"/>
       </defs>
       <use xlink:href="#DejaVuSans-2212"/>
       <use xlink:href="#DejaVuSans-32" x="83.789062"/>
      </g>
     </g>
    </g>
    <g id="xtick_4">
     <g id="line2d_4">
      <path d="M 317.614091 365.22 
L 317.614091 39.12 
" clip-path="url(#p9bc2c14d6e)" style="fill: none; stroke: #ffffff; stroke-linecap: round"/>
     </g>
     <g id="text_4">
      <!-- −1 -->
      <g style="fill: #262626" transform="translate(305.451786 387.257422) scale(0.165 -0.165)">
       <defs>
        <path id="DejaVuSans-31" d="M 794 531 
L 1825 531 
L 1825 4091 
L 703 3866 
L 703 4441 
L 1819 4666 
L 2450 4666 
L 2450 531 
L 3481 531 
L 3481 0 
L 794 0 
L 794 531 
z
" transform="scale(0.015625)"/>
       </defs>
       <use xlink:href="#DejaVuSans-2212"/>
       <use xlink:href="#DejaVuSans-31" x="83.789062"/>
      </g>
     </g>
    </g>
    <g id="xtick_5">
     <g id="line2d_5">
      <path d="M 388.53 365.22 
L 388.53 39.12 
" clip-path="url(#p9bc2c14d6e)" style="fill: none; stroke: #ffffff; stroke-linecap: round"/>
     </g>
     <g id="text_5">
      <!-- 0 -->
      <g style="fill: #262626" transform="translate(383.280937 387.257422) scale(0.165 -0.165)">
       <defs>
        <path id="DejaVuSans-30" d="M 2034 4250 
Q 1547 4250 1301 3770 
Q 1056 3291 1056 2328 
Q 1056 1369 1301 889 
Q 1547 409 2034 409 
Q 2525 409 2770 889 
Q 3016 1369 3016 2328 
Q 3016 3291 2770 3770 
Q 2525 4250 2034 4250 
z
M 2034 4750 
Q 2819 4750 3233 4129 
Q 3647 3509 3647 2328 
Q 3647 1150 3233 529 
Q 2819 -91 2034 -91 
Q 1250 -91 836 529 
Q 422 1150 422 2328 
Q 422 3509 836 4129 
Q 1250 4750 2034 4750 
z
" transform="scale(0.015625)"/>
       </defs>
       <use xlink:href="#DejaVuSans-30"/>
      </g>
     </g>
    </g>
    <g id="xtick_6">
     <g id="line2d_6">
      <path d="M 459.445909 365.22 
L 459.445909 39.12 
" clip-path="url(#p9bc2c14d6e)" style="fill: none; stroke: #ffffff; stroke-linecap: round"/>
     </g>
     <g id="text_6">
      <!-- 1 -->
      <g style="fill: #262626" transform="translate(454.196847 387.257422) scale(0.165 -0.165)">
       <use xlink:href="#DejaVuSans-31"/>
      </g>
     </g>
    </g>
    <g id="xtick_7">
     <g id="line2d_7">
      <path d="M 530.361818 365.22 
L 530.361818 39.12 
" clip-path="url(#p9bc2c14d6e)" style="fill: none; stroke: #ffffff; stroke-linecap: round"/>
     </g>
     <g id="text_7">
      <!-- 2 -->
      <g style="fill: #262626" transform="translate(525.112756 387.257422) scale(0.165 -0.165)">
       <use xlink:href="#DejaVuSans-32"/>
      </g>
     </g>
    </g>
    <g id="xtick_8">
     <g id="line2d_8">
      <path d="M 601.277727 365.22 
L 601.277727 39.12 
" clip-path="url(#p9bc2c14d6e)" style="fill: none; stroke: #ffffff; stroke-linecap: round"/>
     </g>
     <g id="text_8">
      <!-- 3 -->
      <g style="fill: #262626" transform="translate(596.028665 387.257422) scale(0.165 -0.165)">
       <use xlink:href="#DejaVuSans-33"/>
      </g>
     </g>
    </g>
    <g id="xtick_9">
     <g id="line2d_9">
      <path d="M 672.193636 365.22 
L 672.193636 39.12 
" clip-path="url(#p9bc2c14d6e)" style="fill: none; stroke: #ffffff; stroke-linecap: round"/>
     </g>
     <g id="text_9">
      <!-- 4 -->
      <g style="fill: #262626" transform="translate(666.944574 387.257422) scale(0.165 -0.165)">
       <use xlink:href="#DejaVuSans-34"/>
      </g>
     </g>
    </g>
    <g id="text_10">
     <!-- action -->
     <g style="fill: #262626" transform="translate(360.826875 408.366094) scale(0.18 -0.18)">
      <defs>
       <path id="DejaVuSans-61" d="M 2194 1759 
Q 1497 1759 1228 1600 
Q 959 1441 959 1056 
Q 959 750 1161 570 
Q 1363 391 1709 391 
Q 2188 391 2477 730 
Q 2766 1069 2766 1631 
L 2766 1759 
L 2194 1759 
z
M 3341 1997 
L 3341 0 
L 2766 0 
L 2766 531 
Q 2569 213 2275 61 
Q 1981 -91 1556 -91 
Q 1019 -91 701 211 
Q 384 513 384 1019 
Q 384 1609 779 1909 
Q 1175 2209 1959 2209 
L 2766 2209 
L 2766 2266 
Q 2766 2663 2505 2880 
Q 2244 3097 1772 3097 
Q 1472 3097 1187 3025 
Q 903 2953 641 2809 
L 641 3341 
Q 956 3463 1253 3523 
Q 1550 3584 1831 3584 
Q 2591 3584 2966 3190 
Q 3341 2797 3341 1997 
z
" transform="scale(0.015625)"/>
       <path id="DejaVuSans-63" d="M 3122 3366 
L 3122 2828 
Q 2878 2963 2633 3030 
Q 2388 3097 2138 3097 
Q 1578 3097 1268 2742 
Q 959 2388 959 1747 
Q 959 1106 1268 751 
Q 1578 397 2138 397 
Q 2388 397 2633 464 
Q 2878 531 3122 666 
L 3122 134 
Q 2881 22 2623 -34 
Q 2366 -91 2075 -91 
Q 1284 -91 818 406 
Q 353 903 353 1747 
Q 353 2603 823 3093 
Q 1294 3584 2113 3584 
Q 2378 3584 2631 3529 
Q 2884 3475 3122 3366 
z
" transform="scale(0.015625)"/>
       <path id="DejaVuSans-74" d="M 1172 4494 
L 1172 3500 
L 2356 3500 
L 2356 3053 
L 1172 3053 
L 1172 1153 
Q 1172 725 1289 603 
Q 1406 481 1766 481 
L 2356 481 
L 2356 0 
L 1766 0 
Q 1100 0 847 248 
Q 594 497 594 1153 
L 594 3053 
L 172 3053 
L 172 3500 
L 594 3500 
L 594 4494 
L 1172 4494 
z
" transform="scale(0.015625)"/>
       <path id="DejaVuSans-69" d="M 603 3500 
L 1178 3500 
L 1178 0 
L 603 0 
L 603 3500 
z
M 603 4863 
L 1178 4863 
L 1178 4134 
L 603 4134 
L 603 4863 
z
" transform="scale(0.015625)"/>
       <path id="DejaVuSans-6f" d="M 1959 3097 
Q 1497 3097 1228 2736 
Q 959 2375 959 1747 
Q 959 1119 1226 758 
Q 1494 397 1959 397 
Q 2419 397 2687 759 
Q 2956 1122 2956 1747 
Q 2956 2369 2687 2733 
Q 2419 3097 1959 3097 
z
M 1959 3584 
Q 2709 3584 3137 3096 
Q 3566 2609 3566 1747 
Q 3566 888 3137 398 
Q 2709 -91 1959 -91 
Q 1206 -91 779 398 
Q 353 888 353 1747 
Q 353 2609 779 3096 
Q 1206 3584 1959 3584 
z
" transform="scale(0.015625)"/>
       <path id="DejaVuSans-6e" d="M 3513 2113 
L 3513 0 
L 2938 0 
L 2938 2094 
Q 2938 2591 2744 2837 
Q 2550 3084 2163 3084 
Q 1697 3084 1428 2787 
Q 1159 2491 1159 1978 
L 1159 0 
L 581 0 
L 581 3500 
L 1159 3500 
L 1159 2956 
Q 1366 3272 1645 3428 
Q 1925 3584 2291 3584 
Q 2894 3584 3203 3211 
Q 3513 2838 3513 2113 
z
" transform="scale(0.015625)"/>
      </defs>
      <use xlink:href="#DejaVuSans-61"/>
      <use xlink:href="#DejaVuSans-63" x="61.279297"/>
      <use xlink:href="#DejaVuSans-74" x="116.259766"/>
      <use xlink:href="#DejaVuSans-69" x="155.46875"/>
      <use xlink:href="#DejaVuSans-6f" x="183.251953"/>
      <use xlink:href="#DejaVuSans-6e" x="244.433594"/>
     </g>
    </g>
   </g>
   <g id="matplotlib.axis_2">
    <g id="ytick_1">
     <g id="line2d_10">
      <path d="M 76.5 340.135385 
L 700.56 340.135385 
" clip-path="url(#p9bc2c14d6e)" style="fill: none; stroke: #ffffff; stroke-linecap: round"/>
     </g>
     <g id="text_11">
      <!-- 0.0 -->
      <g style="fill: #262626" transform="translate(40.759844 346.404096) scale(0.165 -0.165)">
       <defs>
        <path id="DejaVuSans-2e" d="M 684 794 
L 1344 794 
L 1344 0 
L 684 0 
L 684 794 
z
" transform="scale(0.015625)"/>
       </defs>
       <use xlink:href="#DejaVuSans-30"/>
       <use xlink:href="#DejaVuSans-2e" x="63.623047"/>
       <use xlink:href="#DejaVuSans-30" x="95.410156"/>
      </g>
     </g>
    </g>
    <g id="ytick_2">
     <g id="line2d_11">
      <path d="M 76.5 289.966154 
L 700.56 289.966154 
" clip-path="url(#p9bc2c14d6e)" style="fill: none; stroke: #ffffff; stroke-linecap: round"/>
     </g>
     <g id="text_12">
      <!-- 0.1 -->
      <g style="fill: #262626" transform="translate(40.759844 296.234865) scale(0.165 -0.165)">
       <use xlink:href="#DejaVuSans-30"/>
       <use xlink:href="#DejaVuSans-2e" x="63.623047"/>
       <use xlink:href="#DejaVuSans-31" x="95.410156"/>
      </g>
     </g>
    </g>
    <g id="ytick_3">
     <g id="line2d_12">
      <path d="M 76.5 239.796923 
L 700.56 239.796923 
" clip-path="url(#p9bc2c14d6e)" style="fill: none; stroke: #ffffff; stroke-linecap: round"/>
     </g>
     <g id="text_13">
      <!-- 0.2 -->
      <g style="fill: #262626" transform="translate(40.759844 246.065634) scale(0.165 -0.165)">
       <use xlink:href="#DejaVuSans-30"/>
       <use xlink:href="#DejaVuSans-2e" x="63.623047"/>
       <use xlink:href="#DejaVuSans-32" x="95.410156"/>
      </g>
     </g>
    </g>
    <g id="ytick_4">
     <g id="line2d_13">
      <path d="M 76.5 189.627692 
L 700.56 189.627692 
" clip-path="url(#p9bc2c14d6e)" style="fill: none; stroke: #ffffff; stroke-linecap: round"/>
     </g>
     <g id="text_14">
      <!-- 0.3 -->
      <g style="fill: #262626" transform="translate(40.759844 195.896403) scale(0.165 -0.165)">
       <use xlink:href="#DejaVuSans-30"/>
       <use xlink:href="#DejaVuSans-2e" x="63.623047"/>
       <use xlink:href="#DejaVuSans-33" x="95.410156"/>
      </g>
     </g>
    </g>
    <g id="ytick_5">
     <g id="line2d_14">
      <path d="M 76.5 139.458462 
L 700.56 139.458462 
" clip-path="url(#p9bc2c14d6e)" style="fill: none; stroke: #ffffff; stroke-linecap: round"/>
     </g>
     <g id="text_15">
      <!-- 0.4 -->
      <g style="fill: #262626" transform="translate(40.759844 145.727172) scale(0.165 -0.165)">
       <use xlink:href="#DejaVuSans-30"/>
       <use xlink:href="#DejaVuSans-2e" x="63.623047"/>
       <use xlink:href="#DejaVuSans-34" x="95.410156"/>
      </g>
     </g>
    </g>
    <g id="ytick_6">
     <g id="line2d_15">
      <path d="M 76.5 89.289231 
L 700.56 89.289231 
" clip-path="url(#p9bc2c14d6e)" style="fill: none; stroke: #ffffff; stroke-linecap: round"/>
     </g>
     <g id="text_16">
      <!-- 0.5 -->
      <g style="fill: #262626" transform="translate(40.759844 95.557942) scale(0.165 -0.165)">
       <defs>
        <path id="DejaVuSans-35" d="M 691 4666 
L 3169 4666 
L 3169 4134 
L 1269 4134 
L 1269 2991 
Q 1406 3038 1543 3061 
Q 1681 3084 1819 3084 
Q 2600 3084 3056 2656 
Q 3513 2228 3513 1497 
Q 3513 744 3044 326 
Q 2575 -91 1722 -91 
Q 1428 -91 1123 -41 
Q 819 9 494 109 
L 494 744 
Q 775 591 1075 516 
Q 1375 441 1709 441 
Q 2250 441 2565 725 
Q 2881 1009 2881 1497 
Q 2881 1984 2565 2268 
Q 2250 2553 1709 2553 
Q 1456 2553 1204 2497 
Q 953 2441 691 2322 
L 691 4666 
z
" transform="scale(0.015625)"/>
       </defs>
       <use xlink:href="#DejaVuSans-30"/>
       <use xlink:href="#DejaVuSans-2e" x="63.623047"/>
       <use xlink:href="#DejaVuSans-35" x="95.410156"/>
      </g>
     </g>
    </g>
    <g id="ytick_7">
     <g id="line2d_16">
      <path d="M 76.5 39.12 
L 700.56 39.12 
" clip-path="url(#p9bc2c14d6e)" style="fill: none; stroke: #ffffff; stroke-linecap: round"/>
     </g>
     <g id="text_17">
      <!-- 0.6 -->
      <g style="fill: #262626" transform="translate(40.759844 45.388711) scale(0.165 -0.165)">
       <defs>
        <path id="DejaVuSans-36" d="M 2113 2584 
Q 1688 2584 1439 2293 
Q 1191 2003 1191 1497 
Q 1191 994 1439 701 
Q 1688 409 2113 409 
Q 2538 409 2786 701 
Q 3034 994 3034 1497 
Q 3034 2003 2786 2293 
Q 2538 2584 2113 2584 
z
M 3366 4563 
L 3366 3988 
Q 3128 4100 2886 4159 
Q 2644 4219 2406 4219 
Q 1781 4219 1451 3797 
Q 1122 3375 1075 2522 
Q 1259 2794 1537 2939 
Q 1816 3084 2150 3084 
Q 2853 3084 3261 2657 
Q 3669 2231 3669 1497 
Q 3669 778 3244 343 
Q 2819 -91 2113 -91 
Q 1303 -91 875 529 
Q 447 1150 447 2328 
Q 447 3434 972 4092 
Q 1497 4750 2381 4750 
Q 2619 4750 2861 4703 
Q 3103 4656 3366 4563 
z
" transform="scale(0.015625)"/>
       </defs>
       <use xlink:href="#DejaVuSans-30"/>
       <use xlink:href="#DejaVuSans-2e" x="63.623047"/>
       <use xlink:href="#DejaVuSans-36" x="95.410156"/>
      </g>
     </g>
    </g>
    <g id="text_18">
     <!-- Probability Density -->
     <g style="fill: #262626" transform="translate(33.016406 286.817813) rotate(-90) scale(0.18 -0.18)">
      <defs>
       <path id="DejaVuSans-50" d="M 1259 4147 
L 1259 2394 
L 2053 2394 
Q 2494 2394 2734 2622 
Q 2975 2850 2975 3272 
Q 2975 3691 2734 3919 
Q 2494 4147 2053 4147 
L 1259 4147 
z
M 628 4666 
L 2053 4666 
Q 2838 4666 3239 4311 
Q 3641 3956 3641 3272 
Q 3641 2581 3239 2228 
Q 2838 1875 2053 1875 
L 1259 1875 
L 1259 0 
L 628 0 
L 628 4666 
z
" transform="scale(0.015625)"/>
       <path id="DejaVuSans-72" d="M 2631 2963 
Q 2534 3019 2420 3045 
Q 2306 3072 2169 3072 
Q 1681 3072 1420 2755 
Q 1159 2438 1159 1844 
L 1159 0 
L 581 0 
L 581 3500 
L 1159 3500 
L 1159 2956 
Q 1341 3275 1631 3429 
Q 1922 3584 2338 3584 
Q 2397 3584 2469 3576 
Q 2541 3569 2628 3553 
L 2631 2963 
z
" transform="scale(0.015625)"/>
       <path id="DejaVuSans-62" d="M 3116 1747 
Q 3116 2381 2855 2742 
Q 2594 3103 2138 3103 
Q 1681 3103 1420 2742 
Q 1159 2381 1159 1747 
Q 1159 1113 1420 752 
Q 1681 391 2138 391 
Q 2594 391 2855 752 
Q 3116 1113 3116 1747 
z
M 1159 2969 
Q 1341 3281 1617 3432 
Q 1894 3584 2278 3584 
Q 2916 3584 3314 3078 
Q 3713 2572 3713 1747 
Q 3713 922 3314 415 
Q 2916 -91 2278 -91 
Q 1894 -91 1617 61 
Q 1341 213 1159 525 
L 1159 0 
L 581 0 
L 581 4863 
L 1159 4863 
L 1159 2969 
z
" transform="scale(0.015625)"/>
       <path id="DejaVuSans-6c" d="M 603 4863 
L 1178 4863 
L 1178 0 
L 603 0 
L 603 4863 
z
" transform="scale(0.015625)"/>
       <path id="DejaVuSans-79" d="M 2059 -325 
Q 1816 -950 1584 -1140 
Q 1353 -1331 966 -1331 
L 506 -1331 
L 506 -850 
L 844 -850 
Q 1081 -850 1212 -737 
Q 1344 -625 1503 -206 
L 1606 56 
L 191 3500 
L 800 3500 
L 1894 763 
L 2988 3500 
L 3597 3500 
L 2059 -325 
z
" transform="scale(0.015625)"/>
       <path id="DejaVuSans-20" transform="scale(0.015625)"/>
       <path id="DejaVuSans-44" d="M 1259 4147 
L 1259 519 
L 2022 519 
Q 2988 519 3436 956 
Q 3884 1394 3884 2338 
Q 3884 3275 3436 3711 
Q 2988 4147 2022 4147 
L 1259 4147 
z
M 628 4666 
L 1925 4666 
Q 3281 4666 3915 4102 
Q 4550 3538 4550 2338 
Q 4550 1131 3912 565 
Q 3275 0 1925 0 
L 628 0 
L 628 4666 
z
" transform="scale(0.015625)"/>
       <path id="DejaVuSans-65" d="M 3597 1894 
L 3597 1613 
L 953 1613 
Q 991 1019 1311 708 
Q 1631 397 2203 397 
Q 2534 397 2845 478 
Q 3156 559 3463 722 
L 3463 178 
Q 3153 47 2828 -22 
Q 2503 -91 2169 -91 
Q 1331 -91 842 396 
Q 353 884 353 1716 
Q 353 2575 817 3079 
Q 1281 3584 2069 3584 
Q 2775 3584 3186 3129 
Q 3597 2675 3597 1894 
z
M 3022 2063 
Q 3016 2534 2758 2815 
Q 2500 3097 2075 3097 
Q 1594 3097 1305 2825 
Q 1016 2553 972 2059 
L 3022 2063 
z
" transform="scale(0.015625)"/>
       <path id="DejaVuSans-73" d="M 2834 3397 
L 2834 2853 
Q 2591 2978 2328 3040 
Q 2066 3103 1784 3103 
Q 1356 3103 1142 2972 
Q 928 2841 928 2578 
Q 928 2378 1081 2264 
Q 1234 2150 1697 2047 
L 1894 2003 
Q 2506 1872 2764 1633 
Q 3022 1394 3022 966 
Q 3022 478 2636 193 
Q 2250 -91 1575 -91 
Q 1294 -91 989 -36 
Q 684 19 347 128 
L 347 722 
Q 666 556 975 473 
Q 1284 391 1588 391 
Q 1994 391 2212 530 
Q 2431 669 2431 922 
Q 2431 1156 2273 1281 
Q 2116 1406 1581 1522 
L 1381 1569 
Q 847 1681 609 1914 
Q 372 2147 372 2553 
Q 372 3047 722 3315 
Q 1072 3584 1716 3584 
Q 2034 3584 2315 3537 
Q 2597 3491 2834 3397 
z
" transform="scale(0.015625)"/>
      </defs>
      <use xlink:href="#DejaVuSans-50"/>
      <use xlink:href="#DejaVuSans-72" x="58.552734"/>
      <use xlink:href="#DejaVuSans-6f" x="97.416016"/>
      <use xlink:href="#DejaVuSans-62" x="158.597656"/>
      <use xlink:href="#DejaVuSans-61" x="222.074219"/>
      <use xlink:href="#DejaVuSans-62" x="283.353516"/>
      <use xlink:href="#DejaVuSans-69" x="346.830078"/>
      <use xlink:href="#DejaVuSans-6c" x="374.613281"/>
      <use xlink:href="#DejaVuSans-69" x="402.396484"/>
      <use xlink:href="#DejaVuSans-74" x="430.179688"/>
      <use xlink:href="#DejaVuSans-79" x="469.388672"/>
      <use xlink:href="#DejaVuSans-20" x="528.568359"/>
      <use xlink:href="#DejaVuSans-44" x="560.355469"/>
      <use xlink:href="#DejaVuSans-65" x="637.357422"/>
      <use xlink:href="#DejaVuSans-6e" x="698.880859"/>
      <use xlink:href="#DejaVuSans-73" x="762.259766"/>
      <use xlink:href="#DejaVuSans-69" x="814.359375"/>
      <use xlink:href="#DejaVuSans-74" x="842.142578"/>
      <use xlink:href="#DejaVuSans-79" x="881.351562"/>
     </g>
    </g>
   </g>
   <g id="line2d_17">
    <path d="M 104.866364 340.068243 
L 130.989541 339.861576 
L 146.890606 339.532581 
L 158.816405 339.081258 
L 168.470622 338.512145 
L 176.98905 337.795844 
L 184.371687 336.961118 
L 191.186429 335.968751 
L 197.433276 334.831928 
L 203.112228 333.575692 
L 208.223284 332.235982 
L 213.334341 330.671941 
L 218.445397 328.856966 
L 222.988559 327.010762 
L 227.53172 324.924901 
L 232.074881 322.57974 
L 236.618043 319.955991 
L 240.593309 317.417082 
L 244.568575 314.638979 
L 248.543841 311.610928 
L 252.519107 308.323374 
L 256.494373 304.768226 
L 260.46964 300.939131 
L 264.444906 296.831759 
L 268.988067 291.794371 
L 273.531229 286.392025 
L 278.07439 280.630661 
L 282.617551 274.521518 
L 287.728608 267.254307 
L 292.839664 259.601612 
L 298.518616 250.699122 
L 305.333358 239.562688 
L 313.851785 225.174941 
L 330.88864 196.29329 
L 337.135487 186.214997 
L 342.246544 178.382345 
L 346.789705 171.821566 
L 350.764971 166.448699 
L 354.740238 161.466632 
L 358.147609 157.539943 
L 361.55498 153.957265 
L 364.394455 151.251456 
L 367.233931 148.813297 
L 370.073407 146.654105 
L 372.912883 144.783984 
L 375.752359 143.211749 
L 378.591835 141.944856 
L 380.863415 141.155292 
L 383.134996 140.567454 
L 385.406577 140.183147 
L 387.678157 140.00355 
L 389.949738 140.029217 
L 392.221319 140.260068 
L 394.492899 140.695393 
L 396.76448 141.333855 
L 399.036061 142.173496 
L 401.307641 143.211749 
L 404.147117 144.783984 
L 406.986593 146.654105 
L 409.826069 148.813297 
L 412.665545 151.251456 
L 415.50502 153.957265 
L 418.912391 157.539943 
L 422.319762 161.466632 
L 425.727133 165.712019 
L 429.7024 171.031782 
L 434.245561 177.539952 
L 438.788722 184.437974 
L 444.467674 193.499199 
L 451.282416 204.829526 
L 464.9119 228.079138 
L 473.998223 243.321669 
L 480.812965 254.306472 
L 486.491916 263.04788 
L 491.602973 270.533963 
L 496.714029 277.618642 
L 501.257191 283.555647 
L 505.800352 289.138565 
L 510.343514 294.35886 
L 514.886675 299.213078 
L 518.861941 303.161032 
L 522.837207 306.832919 
L 526.812473 310.234261 
L 530.78774 313.372436 
L 534.763006 316.256407 
L 538.738272 318.896445 
L 543.281433 321.629497 
L 547.824595 324.0769 
L 552.367756 326.257707 
L 556.910917 328.191473 
L 561.454079 329.897885 
L 566.565135 331.570103 
L 571.676192 333.006306 
L 577.355143 334.35678 
L 583.034095 335.481373 
L 589.280942 336.494426 
L 596.095684 337.374371 
L 603.478321 338.110579 
L 611.996749 338.738602 
L 622.218862 339.257673 
L 634.712555 339.65179 
L 650.61362 339.918856 
L 672.193636 340.068243 
L 672.193636 340.068243 
" clip-path="url(#p9bc2c14d6e)" style="fill: none; stroke: #4c72b0; stroke-width: 2; stroke-linecap: round"/>
   </g>
   <g id="patch_3">
    <path d="M 76.5 365.22 
L 76.5 39.12 
" style="fill: none; stroke: #ffffff; stroke-width: 1.25; stroke-linejoin: miter; stroke-linecap: square"/>
   </g>
   <g id="patch_4">
    <path d="M 700.56 365.22 
L 700.56 39.12 
" style="fill: none; stroke: #ffffff; stroke-width: 1.25; stroke-linejoin: miter; stroke-linecap: square"/>
   </g>
   <g id="patch_5">
    <path d="M 76.5 365.22 
L 700.56 365.22 
" style="fill: none; stroke: #ffffff; stroke-width: 1.25; stroke-linejoin: miter; stroke-linecap: square"/>
   </g>
   <g id="patch_6">
    <path d="M 76.5 39.12 
L 700.56 39.12 
" style="fill: none; stroke: #ffffff; stroke-width: 1.25; stroke-linejoin: miter; stroke-linecap: square"/>
   </g>
   <g id="text_19">
    <g id="patch_7">
     <path d="M 107.703 107.952062 
L 189.106438 107.952062 
Q 195.706438 107.952062 195.706438 101.352062 
L 195.706438 55.425 
Q 195.706438 48.825 189.106438 48.825 
L 107.703 48.825 
Q 101.103 48.825 101.103 55.425 
L 101.103 101.352062 
Q 101.103 107.952062 107.703 107.952062 
z
" style="fill: #fffafa; opacity: 0.5; stroke: #ffffff; stroke-linejoin: miter"/>
    </g>
    <!-- μ = 0.0 -->
    <g style="fill: #262626" transform="translate(107.703 72.141563) scale(0.22 -0.22)">
     <defs>
      <path id="DejaVuSans-3bc" d="M 544 -1331 
L 544 3500 
L 1119 3500 
L 1119 1325 
Q 1119 872 1334 640 
Q 1550 409 1972 409 
Q 2434 409 2667 671 
Q 2900 934 2900 1459 
L 2900 3500 
L 3475 3500 
L 3475 806 
Q 3475 619 3529 530 
Q 3584 441 3700 441 
Q 3728 441 3778 458 
Q 3828 475 3916 513 
L 3916 50 
Q 3788 -22 3673 -56 
Q 3559 -91 3450 -91 
Q 3234 -91 3106 31 
Q 2978 153 2931 403 
Q 2775 156 2548 32 
Q 2322 -91 2016 -91 
Q 1697 -91 1473 31 
Q 1250 153 1119 397 
L 1119 -1331 
L 544 -1331 
z
" transform="scale(0.015625)"/>
      <path id="DejaVuSans-3d" d="M 678 2906 
L 4684 2906 
L 4684 2381 
L 678 2381 
L 678 2906 
z
M 678 1631 
L 4684 1631 
L 4684 1100 
L 678 1100 
L 678 1631 
z
" transform="scale(0.015625)"/>
     </defs>
     <use xlink:href="#DejaVuSans-3bc"/>
     <use xlink:href="#DejaVuSans-20" x="63.623047"/>
     <use xlink:href="#DejaVuSans-3d" x="95.410156"/>
     <use xlink:href="#DejaVuSans-20" x="179.199219"/>
     <use xlink:href="#DejaVuSans-30" x="210.986328"/>
     <use xlink:href="#DejaVuSans-2e" x="274.609375"/>
     <use xlink:href="#DejaVuSans-30" x="306.396484"/>
    </g>
    <!-- σ = 1.0 -->
    <g style="fill: #262626" transform="translate(107.703 96.77675) scale(0.22 -0.22)">
     <defs>
      <path id="DejaVuSans-3c3" d="M 1959 3044 
Q 1484 3044 1228 2700 
Q 959 2341 959 1747 
Q 959 1119 1226 758 
Q 1494 397 1959 397 
Q 2419 397 2687 759 
Q 2956 1122 2956 1747 
Q 2956 2319 2688 2700 
Q 2441 3044 1959 3044 
z
M 1959 3500 
L 3869 3500 
L 3869 2925 
L 3225 2925 
Q 3566 2438 3566 1747 
Q 3566 888 3138 400 
Q 2709 -91 1959 -91 
Q 1206 -91 781 400 
Q 353 888 353 1747 
Q 353 2613 781 3097 
Q 1134 3500 1959 3500 
z
" transform="scale(0.015625)"/>
     </defs>
     <use xlink:href="#DejaVuSans-3c3"/>
     <use xlink:href="#DejaVuSans-20" x="63.378906"/>
     <use xlink:href="#DejaVuSans-3d" x="95.166016"/>
     <use xlink:href="#DejaVuSans-20" x="178.955078"/>
     <use xlink:href="#DejaVuSans-31" x="210.742188"/>
     <use xlink:href="#DejaVuSans-2e" x="274.365234"/>
     <use xlink:href="#DejaVuSans-30" x="306.152344"/>
    </g>
   </g>
   <g id="text_20">
    <!-- Probability Density Function of a Gaussian Distribution -->
    <g style="fill: #262626" transform="translate(143.320781 33.12) scale(0.18 -0.18)">
     <defs>
      <path id="DejaVuSans-46" d="M 628 4666 
L 3309 4666 
L 3309 4134 
L 1259 4134 
L 1259 2759 
L 3109 2759 
L 3109 2228 
L 1259 2228 
L 1259 0 
L 628 0 
L 628 4666 
z
" transform="scale(0.015625)"/>
      <path id="DejaVuSans-75" d="M 544 1381 
L 544 3500 
L 1119 3500 
L 1119 1403 
Q 1119 906 1312 657 
Q 1506 409 1894 409 
Q 2359 409 2629 706 
Q 2900 1003 2900 1516 
L 2900 3500 
L 3475 3500 
L 3475 0 
L 2900 0 
L 2900 538 
Q 2691 219 2414 64 
Q 2138 -91 1772 -91 
Q 1169 -91 856 284 
Q 544 659 544 1381 
z
M 1991 3584 
L 1991 3584 
z
" transform="scale(0.015625)"/>
      <path id="DejaVuSans-66" d="M 2375 4863 
L 2375 4384 
L 1825 4384 
Q 1516 4384 1395 4259 
Q 1275 4134 1275 3809 
L 1275 3500 
L 2222 3500 
L 2222 3053 
L 1275 3053 
L 1275 0 
L 697 0 
L 697 3053 
L 147 3053 
L 147 3500 
L 697 3500 
L 697 3744 
Q 697 4328 969 4595 
Q 1241 4863 1831 4863 
L 2375 4863 
z
" transform="scale(0.015625)"/>
      <path id="DejaVuSans-47" d="M 3809 666 
L 3809 1919 
L 2778 1919 
L 2778 2438 
L 4434 2438 
L 4434 434 
Q 4069 175 3628 42 
Q 3188 -91 2688 -91 
Q 1594 -91 976 548 
Q 359 1188 359 2328 
Q 359 3472 976 4111 
Q 1594 4750 2688 4750 
Q 3144 4750 3555 4637 
Q 3966 4525 4313 4306 
L 4313 3634 
Q 3963 3931 3569 4081 
Q 3175 4231 2741 4231 
Q 1884 4231 1454 3753 
Q 1025 3275 1025 2328 
Q 1025 1384 1454 906 
Q 1884 428 2741 428 
Q 3075 428 3337 486 
Q 3600 544 3809 666 
z
" transform="scale(0.015625)"/>
     </defs>
     <use xlink:href="#DejaVuSans-50"/>
     <use xlink:href="#DejaVuSans-72" x="58.552734"/>
     <use xlink:href="#DejaVuSans-6f" x="97.416016"/>
     <use xlink:href="#DejaVuSans-62" x="158.597656"/>
     <use xlink:href="#DejaVuSans-61" x="222.074219"/>
     <use xlink:href="#DejaVuSans-62" x="283.353516"/>
     <use xlink:href="#DejaVuSans-69" x="346.830078"/>
     <use xlink:href="#DejaVuSans-6c" x="374.613281"/>
     <use xlink:href="#DejaVuSans-69" x="402.396484"/>
     <use xlink:href="#DejaVuSans-74" x="430.179688"/>
     <use xlink:href="#DejaVuSans-79" x="469.388672"/>
     <use xlink:href="#DejaVuSans-20" x="528.568359"/>
     <use xlink:href="#DejaVuSans-44" x="560.355469"/>
     <use xlink:href="#DejaVuSans-65" x="637.357422"/>
     <use xlink:href="#DejaVuSans-6e" x="698.880859"/>
     <use xlink:href="#DejaVuSans-73" x="762.259766"/>
     <use xlink:href="#DejaVuSans-69" x="814.359375"/>
     <use xlink:href="#DejaVuSans-74" x="842.142578"/>
     <use xlink:href="#DejaVuSans-79" x="881.351562"/>
     <use xlink:href="#DejaVuSans-20" x="940.53125"/>
     <use xlink:href="#DejaVuSans-46" x="972.318359"/>
     <use xlink:href="#DejaVuSans-75" x="1024.337891"/>
     <use xlink:href="#DejaVuSans-6e" x="1087.716797"/>
     <use xlink:href="#DejaVuSans-63" x="1151.095703"/>
     <use xlink:href="#DejaVuSans-74" x="1206.076172"/>
     <use xlink:href="#DejaVuSans-69" x="1245.285156"/>
     <use xlink:href="#DejaVuSans-6f" x="1273.068359"/>
     <use xlink:href="#DejaVuSans-6e" x="1334.25"/>
     <use xlink:href="#DejaVuSans-20" x="1397.628906"/>
     <use xlink:href="#DejaVuSans-6f" x="1429.416016"/>
     <use xlink:href="#DejaVuSans-66" x="1490.597656"/>
     <use xlink:href="#DejaVuSans-20" x="1525.802734"/>
     <use xlink:href="#DejaVuSans-61" x="1557.589844"/>
     <use xlink:href="#DejaVuSans-20" x="1618.869141"/>
     <use xlink:href="#DejaVuSans-47" x="1650.65625"/>
     <use xlink:href="#DejaVuSans-61" x="1728.146484"/>
     <use xlink:href="#DejaVuSans-75" x="1789.425781"/>
     <use xlink:href="#DejaVuSans-73" x="1852.804688"/>
     <use xlink:href="#DejaVuSans-73" x="1904.904297"/>
     <use xlink:href="#DejaVuSans-69" x="1957.003906"/>
     <use xlink:href="#DejaVuSans-61" x="1984.787109"/>
     <use xlink:href="#DejaVuSans-6e" x="2046.066406"/>
     <use xlink:href="#DejaVuSans-20" x="2109.445312"/>
     <use xlink:href="#DejaVuSans-44" x="2141.232422"/>
     <use xlink:href="#DejaVuSans-69" x="2218.234375"/>
     <use xlink:href="#DejaVuSans-73" x="2246.017578"/>
     <use xlink:href="#DejaVuSans-74" x="2298.117188"/>
     <use xlink:href="#DejaVuSans-72" x="2337.326172"/>
     <use xlink:href="#DejaVuSans-69" x="2378.439453"/>
     <use xlink:href="#DejaVuSans-62" x="2406.222656"/>
     <use xlink:href="#DejaVuSans-75" x="2469.699219"/>
     <use xlink:href="#DejaVuSans-74" x="2533.078125"/>
     <use xlink:href="#DejaVuSans-69" x="2572.287109"/>
     <use xlink:href="#DejaVuSans-6f" x="2600.070312"/>
     <use xlink:href="#DejaVuSans-6e" x="2661.251953"/>
    </g>
   </g>
  </g>
 </g>
 <defs>
  <clipPath id="p9bc2c14d6e">
   <rect x="76.5" y="39.12" width="624.06" height="326.1"/>
  </clipPath>
 </defs>
</svg>
