<?xml version="1.0" encoding="utf-8" standalone="no"?>
<!DOCTYPE svg PUBLIC "-//W3C//DTD SVG 1.1//EN"
  "http://www.w3.org/Graphics/SVG/1.1/DTD/svg11.dtd">
<svg xmlns:xlink="http://www.w3.org/1999/xlink" width="720pt" height="432pt" viewBox="0 0 720 432" xmlns="http://www.w3.org/2000/svg" version="1.1">
 <metadata>
  <rdf:RDF xmlns:dc="http://purl.org/dc/elements/1.1/" xmlns:cc="http://creativecommons.org/ns#" xmlns:rdf="http://www.w3.org/1999/02/22-rdf-syntax-ns#">
   <cc:Work>
    <dc:type rdf:resource="http://purl.org/dc/dcmitype/StillImage"/>
    <dc:date>2025-03-07T11:55:03.943666</dc:date>
    <dc:format>image/svg+xml</dc:format>
    <dc:creator>
     <cc:Agent>
      <dc:title>Matplotlib v3.10.1, https://matplotlib.org/</dc:title>
     </cc:Agent>
    </dc:creator>
   </cc:Work>
  </rdf:RDF>
 </metadata>
 <defs>
  <style type="text/css">*{stroke-linejoin: round; stroke-linecap: butt}</style>
 </defs>
 <g id="figure_1">
  <g id="patch_1">
   <path d="M 0 432 
L 720 432 
L 720 0 
L 0 0 
z
" style="fill: #ffffff"/>
  </g>
  <g id="axes_1">
   <g id="patch_2">
    <path d="M 71.28 365.22 
L 690.075 365.22 
L 690.075 39.12 
L 71.28 39.12 
z
" style="fill: #ffffff"/>
   </g>
   <g id="matplotlib.axis_1">
    <g id="xtick_1">
     <g id="line2d_1">
      <path d="M 71.28 365.22 
L 71.28 39.12 
" clip-path="url(#p3df017b268)" style="fill: none; stroke: #cccccc; stroke-linecap: round"/>
     </g>
     <g id="text_1">
      <!-- 0 -->
      <g style="fill: #262626" transform="translate(66.030938 387.257422) scale(0.165 -0.165)">
       <defs>
        <path id="DejaVuSans-30" d="M 2034 4250 
Q 1547 4250 1301 3770 
Q 1056 3291 1056 2328 
Q 1056 1369 1301 889 
Q 1547 409 2034 409 
Q 2525 409 2770 889 
Q 3016 1369 3016 2328 
Q 3016 3291 2770 3770 
Q 2525 4250 2034 4250 
z
M 2034 4750 
Q 2819 4750 3233 4129 
Q 3647 3509 3647 2328 
Q 3647 1150 3233 529 
Q 2819 -91 2034 -91 
Q 1250 -91 836 529 
Q 422 1150 422 2328 
Q 422 3509 836 4129 
Q 1250 4750 2034 4750 
z
" transform="scale(0.015625)"/>
       </defs>
       <use xlink:href="#DejaVuSans-30"/>
      </g>
     </g>
    </g>
    <g id="xtick_2">
     <g id="line2d_2">
      <path d="M 174.4125 365.22 
L 174.4125 39.12 
" clip-path="url(#p3df017b268)" style="fill: none; stroke: #cccccc; stroke-linecap: round"/>
     </g>
     <g id="text_2">
      <!-- 2 -->
      <g style="fill: #262626" transform="translate(169.163437 387.257422) scale(0.165 -0.165)">
       <defs>
        <path id="DejaVuSans-32" d="M 1228 531 
L 3431 531 
L 3431 0 
L 469 0 
L 469 531 
Q 828 903 1448 1529 
Q 2069 2156 2228 2338 
Q 2531 2678 2651 2914 
Q 2772 3150 2772 3378 
Q 2772 3750 2511 3984 
Q 2250 4219 1831 4219 
Q 1534 4219 1204 4116 
Q 875 4013 500 3803 
L 500 4441 
Q 881 4594 1212 4672 
Q 1544 4750 1819 4750 
Q 2544 4750 2975 4387 
Q 3406 4025 3406 3419 
Q 3406 3131 3298 2873 
Q 3191 2616 2906 2266 
Q 2828 2175 2409 1742 
Q 1991 1309 1228 531 
z
" transform="scale(0.015625)"/>
       </defs>
       <use xlink:href="#DejaVuSans-32"/>
      </g>
     </g>
    </g>
    <g id="xtick_3">
     <g id="line2d_3">
      <path d="M 277.545 365.22 
L 277.545 39.12 
" clip-path="url(#p3df017b268)" style="fill: none; stroke: #cccccc; stroke-linecap: round"/>
     </g>
     <g id="text_3">
      <!-- 4 -->
      <g style="fill: #262626" transform="translate(272.295937 387.257422) scale(0.165 -0.165)">
       <defs>
        <path id="DejaVuSans-34" d="M 2419 4116 
L 825 1625 
L 2419 1625 
L 2419 4116 
z
M 2253 4666 
L 3047 4666 
L 3047 1625 
L 3713 1625 
L 3713 1100 
L 3047 1100 
L 3047 0 
L 2419 0 
L 2419 1100 
L 313 1100 
L 313 1709 
L 2253 4666 
z
" transform="scale(0.015625)"/>
       </defs>
       <use xlink:href="#DejaVuSans-34"/>
      </g>
     </g>
    </g>
    <g id="xtick_4">
     <g id="line2d_4">
      <path d="M 380.6775 365.22 
L 380.6775 39.12 
" clip-path="url(#p3df017b268)" style="fill: none; stroke: #cccccc; stroke-linecap: round"/>
     </g>
     <g id="text_4">
      <!-- 6 -->
      <g style="fill: #262626" transform="translate(375.428438 387.257422) scale(0.165 -0.165)">
       <defs>
        <path id="DejaVuSans-36" d="M 2113 2584 
Q 1688 2584 1439 2293 
Q 1191 2003 1191 1497 
Q 1191 994 1439 701 
Q 1688 409 2113 409 
Q 2538 409 2786 701 
Q 3034 994 3034 1497 
Q 3034 2003 2786 2293 
Q 2538 2584 2113 2584 
z
M 3366 4563 
L 3366 3988 
Q 3128 4100 2886 4159 
Q 2644 4219 2406 4219 
Q 1781 4219 1451 3797 
Q 1122 3375 1075 2522 
Q 1259 2794 1537 2939 
Q 1816 3084 2150 3084 
Q 2853 3084 3261 2657 
Q 3669 2231 3669 1497 
Q 3669 778 3244 343 
Q 2819 -91 2113 -91 
Q 1303 -91 875 529 
Q 447 1150 447 2328 
Q 447 3434 972 4092 
Q 1497 4750 2381 4750 
Q 2619 4750 2861 4703 
Q 3103 4656 3366 4563 
z
" transform="scale(0.015625)"/>
       </defs>
       <use xlink:href="#DejaVuSans-36"/>
      </g>
     </g>
    </g>
    <g id="xtick_5">
     <g id="line2d_5">
      <path d="M 483.81 365.22 
L 483.81 39.12 
" clip-path="url(#p3df017b268)" style="fill: none; stroke: #cccccc; stroke-linecap: round"/>
     </g>
     <g id="text_5">
      <!-- 8 -->
      <g style="fill: #262626" transform="translate(478.560937 387.257422) scale(0.165 -0.165)">
       <defs>
        <path id="DejaVuSans-38" d="M 2034 2216 
Q 1584 2216 1326 1975 
Q 1069 1734 1069 1313 
Q 1069 891 1326 650 
Q 1584 409 2034 409 
Q 2484 409 2743 651 
Q 3003 894 3003 1313 
Q 3003 1734 2745 1975 
Q 2488 2216 2034 2216 
z
M 1403 2484 
Q 997 2584 770 2862 
Q 544 3141 544 3541 
Q 544 4100 942 4425 
Q 1341 4750 2034 4750 
Q 2731 4750 3128 4425 
Q 3525 4100 3525 3541 
Q 3525 3141 3298 2862 
Q 3072 2584 2669 2484 
Q 3125 2378 3379 2068 
Q 3634 1759 3634 1313 
Q 3634 634 3220 271 
Q 2806 -91 2034 -91 
Q 1263 -91 848 271 
Q 434 634 434 1313 
Q 434 1759 690 2068 
Q 947 2378 1403 2484 
z
M 1172 3481 
Q 1172 3119 1398 2916 
Q 1625 2713 2034 2713 
Q 2441 2713 2670 2916 
Q 2900 3119 2900 3481 
Q 2900 3844 2670 4047 
Q 2441 4250 2034 4250 
Q 1625 4250 1398 4047 
Q 1172 3844 1172 3481 
z
" transform="scale(0.015625)"/>
       </defs>
       <use xlink:href="#DejaVuSans-38"/>
      </g>
     </g>
    </g>
    <g id="xtick_6">
     <g id="line2d_6">
      <path d="M 586.9425 365.22 
L 586.9425 39.12 
" clip-path="url(#p3df017b268)" style="fill: none; stroke: #cccccc; stroke-linecap: round"/>
     </g>
     <g id="text_6">
      <!-- 10 -->
      <g style="fill: #262626" transform="translate(576.444375 387.257422) scale(0.165 -0.165)">
       <defs>
        <path id="DejaVuSans-31" d="M 794 531 
L 1825 531 
L 1825 4091 
L 703 3866 
L 703 4441 
L 1819 4666 
L 2450 4666 
L 2450 531 
L 3481 531 
L 3481 0 
L 794 0 
L 794 531 
z
" transform="scale(0.015625)"/>
       </defs>
       <use xlink:href="#DejaVuSans-31"/>
       <use xlink:href="#DejaVuSans-30" transform="translate(63.623047 0)"/>
      </g>
     </g>
    </g>
    <g id="xtick_7">
     <g id="line2d_7">
      <path d="M 690.075 365.22 
L 690.075 39.12 
" clip-path="url(#p3df017b268)" style="fill: none; stroke: #cccccc; stroke-linecap: round"/>
     </g>
     <g id="text_7">
      <!-- 12 -->
      <g style="fill: #262626" transform="translate(679.576875 387.257422) scale(0.165 -0.165)">
       <use xlink:href="#DejaVuSans-31"/>
       <use xlink:href="#DejaVuSans-32" transform="translate(63.623047 0)"/>
      </g>
     </g>
    </g>
    <g id="text_8">
     <!-- Time (minutes) -->
     <g style="fill: #262626" transform="translate(312.345 408.366094) scale(0.18 -0.18)">
      <defs>
       <path id="DejaVuSans-54" d="M -19 4666 
L 3928 4666 
L 3928 4134 
L 2272 4134 
L 2272 0 
L 1638 0 
L 1638 4134 
L -19 4134 
L -19 4666 
z
" transform="scale(0.015625)"/>
       <path id="DejaVuSans-69" d="M 603 3500 
L 1178 3500 
L 1178 0 
L 603 0 
L 603 3500 
z
M 603 4863 
L 1178 4863 
L 1178 4134 
L 603 4134 
L 603 4863 
z
" transform="scale(0.015625)"/>
       <path id="DejaVuSans-6d" d="M 3328 2828 
Q 3544 3216 3844 3400 
Q 4144 3584 4550 3584 
Q 5097 3584 5394 3201 
Q 5691 2819 5691 2113 
L 5691 0 
L 5113 0 
L 5113 2094 
Q 5113 2597 4934 2840 
Q 4756 3084 4391 3084 
Q 3944 3084 3684 2787 
Q 3425 2491 3425 1978 
L 3425 0 
L 2847 0 
L 2847 2094 
Q 2847 2600 2669 2842 
Q 2491 3084 2119 3084 
Q 1678 3084 1418 2786 
Q 1159 2488 1159 1978 
L 1159 0 
L 581 0 
L 581 3500 
L 1159 3500 
L 1159 2956 
Q 1356 3278 1631 3431 
Q 1906 3584 2284 3584 
Q 2666 3584 2933 3390 
Q 3200 3197 3328 2828 
z
" transform="scale(0.015625)"/>
       <path id="DejaVuSans-65" d="M 3597 1894 
L 3597 1613 
L 953 1613 
Q 991 1019 1311 708 
Q 1631 397 2203 397 
Q 2534 397 2845 478 
Q 3156 559 3463 722 
L 3463 178 
Q 3153 47 2828 -22 
Q 2503 -91 2169 -91 
Q 1331 -91 842 396 
Q 353 884 353 1716 
Q 353 2575 817 3079 
Q 1281 3584 2069 3584 
Q 2775 3584 3186 3129 
Q 3597 2675 3597 1894 
z
M 3022 2063 
Q 3016 2534 2758 2815 
Q 2500 3097 2075 3097 
Q 1594 3097 1305 2825 
Q 1016 2553 972 2059 
L 3022 2063 
z
" transform="scale(0.015625)"/>
       <path id="DejaVuSans-20" transform="scale(0.015625)"/>
       <path id="DejaVuSans-28" d="M 1984 4856 
Q 1566 4138 1362 3434 
Q 1159 2731 1159 2009 
Q 1159 1288 1364 580 
Q 1569 -128 1984 -844 
L 1484 -844 
Q 1016 -109 783 600 
Q 550 1309 550 2009 
Q 550 2706 781 3412 
Q 1013 4119 1484 4856 
L 1984 4856 
z
" transform="scale(0.015625)"/>
       <path id="DejaVuSans-6e" d="M 3513 2113 
L 3513 0 
L 2938 0 
L 2938 2094 
Q 2938 2591 2744 2837 
Q 2550 3084 2163 3084 
Q 1697 3084 1428 2787 
Q 1159 2491 1159 1978 
L 1159 0 
L 581 0 
L 581 3500 
L 1159 3500 
L 1159 2956 
Q 1366 3272 1645 3428 
Q 1925 3584 2291 3584 
Q 2894 3584 3203 3211 
Q 3513 2838 3513 2113 
z
" transform="scale(0.015625)"/>
       <path id="DejaVuSans-75" d="M 544 1381 
L 544 3500 
L 1119 3500 
L 1119 1403 
Q 1119 906 1312 657 
Q 1506 409 1894 409 
Q 2359 409 2629 706 
Q 2900 1003 2900 1516 
L 2900 3500 
L 3475 3500 
L 3475 0 
L 2900 0 
L 2900 538 
Q 2691 219 2414 64 
Q 2138 -91 1772 -91 
Q 1169 -91 856 284 
Q 544 659 544 1381 
z
M 1991 3584 
L 1991 3584 
z
" transform="scale(0.015625)"/>
       <path id="DejaVuSans-74" d="M 1172 4494 
L 1172 3500 
L 2356 3500 
L 2356 3053 
L 1172 3053 
L 1172 1153 
Q 1172 725 1289 603 
Q 1406 481 1766 481 
L 2356 481 
L 2356 0 
L 1766 0 
Q 1100 0 847 248 
Q 594 497 594 1153 
L 594 3053 
L 172 3053 
L 172 3500 
L 594 3500 
L 594 4494 
L 1172 4494 
z
" transform="scale(0.015625)"/>
       <path id="DejaVuSans-73" d="M 2834 3397 
L 2834 2853 
Q 2591 2978 2328 3040 
Q 2066 3103 1784 3103 
Q 1356 3103 1142 2972 
Q 928 2841 928 2578 
Q 928 2378 1081 2264 
Q 1234 2150 1697 2047 
L 1894 2003 
Q 2506 1872 2764 1633 
Q 3022 1394 3022 966 
Q 3022 478 2636 193 
Q 2250 -91 1575 -91 
Q 1294 -91 989 -36 
Q 684 19 347 128 
L 347 722 
Q 666 556 975 473 
Q 1284 391 1588 391 
Q 1994 391 2212 530 
Q 2431 669 2431 922 
Q 2431 1156 2273 1281 
Q 2116 1406 1581 1522 
L 1381 1569 
Q 847 1681 609 1914 
Q 372 2147 372 2553 
Q 372 3047 722 3315 
Q 1072 3584 1716 3584 
Q 2034 3584 2315 3537 
Q 2597 3491 2834 3397 
z
" transform="scale(0.015625)"/>
       <path id="DejaVuSans-29" d="M 513 4856 
L 1013 4856 
Q 1481 4119 1714 3412 
Q 1947 2706 1947 2009 
Q 1947 1309 1714 600 
Q 1481 -109 1013 -844 
L 513 -844 
Q 928 -128 1133 580 
Q 1338 1288 1338 2009 
Q 1338 2731 1133 3434 
Q 928 4138 513 4856 
z
" transform="scale(0.015625)"/>
      </defs>
      <use xlink:href="#DejaVuSans-54"/>
      <use xlink:href="#DejaVuSans-69" transform="translate(57.958984 0)"/>
      <use xlink:href="#DejaVuSans-6d" transform="translate(85.742188 0)"/>
      <use xlink:href="#DejaVuSans-65" transform="translate(183.154297 0)"/>
      <use xlink:href="#DejaVuSans-20" transform="translate(244.677734 0)"/>
      <use xlink:href="#DejaVuSans-28" transform="translate(276.464844 0)"/>
      <use xlink:href="#DejaVuSans-6d" transform="translate(315.478516 0)"/>
      <use xlink:href="#DejaVuSans-69" transform="translate(412.890625 0)"/>
      <use xlink:href="#DejaVuSans-6e" transform="translate(440.673828 0)"/>
      <use xlink:href="#DejaVuSans-75" transform="translate(504.052734 0)"/>
      <use xlink:href="#DejaVuSans-74" transform="translate(567.431641 0)"/>
      <use xlink:href="#DejaVuSans-65" transform="translate(606.640625 0)"/>
      <use xlink:href="#DejaVuSans-73" transform="translate(668.164062 0)"/>
      <use xlink:href="#DejaVuSans-29" transform="translate(720.263672 0)"/>
     </g>
    </g>
   </g>
   <g id="matplotlib.axis_2">
    <g id="ytick_1">
     <g id="line2d_8">
      <path d="M 71.28 330.796363 
L 690.075 330.796363 
" clip-path="url(#p3df017b268)" style="fill: none; stroke: #cccccc; stroke-linecap: round"/>
     </g>
     <g id="text_9">
      <!-- 0 -->
      <g style="fill: #262626" transform="translate(51.281875 337.065074) scale(0.165 -0.165)">
       <use xlink:href="#DejaVuSans-30"/>
      </g>
     </g>
    </g>
    <g id="ytick_2">
     <g id="line2d_9">
      <path d="M 71.28 289.872387 
L 690.075 289.872387 
" clip-path="url(#p3df017b268)" style="fill: none; stroke: #cccccc; stroke-linecap: round"/>
     </g>
     <g id="text_10">
      <!-- 5 -->
      <g style="fill: #262626" transform="translate(51.281875 296.141098) scale(0.165 -0.165)">
       <defs>
        <path id="DejaVuSans-35" d="M 691 4666 
L 3169 4666 
L 3169 4134 
L 1269 4134 
L 1269 2991 
Q 1406 3038 1543 3061 
Q 1681 3084 1819 3084 
Q 2600 3084 3056 2656 
Q 3513 2228 3513 1497 
Q 3513 744 3044 326 
Q 2575 -91 1722 -91 
Q 1428 -91 1123 -41 
Q 819 9 494 109 
L 494 744 
Q 775 591 1075 516 
Q 1375 441 1709 441 
Q 2250 441 2565 725 
Q 2881 1009 2881 1497 
Q 2881 1984 2565 2268 
Q 2250 2553 1709 2553 
Q 1456 2553 1204 2497 
Q 953 2441 691 2322 
L 691 4666 
z
" transform="scale(0.015625)"/>
       </defs>
       <use xlink:href="#DejaVuSans-35"/>
      </g>
     </g>
    </g>
    <g id="ytick_3">
     <g id="line2d_10">
      <path d="M 71.28 248.948412 
L 690.075 248.948412 
" clip-path="url(#p3df017b268)" style="fill: none; stroke: #cccccc; stroke-linecap: round"/>
     </g>
     <g id="text_11">
      <!-- 10 -->
      <g style="fill: #262626" transform="translate(40.78375 255.217123) scale(0.165 -0.165)">
       <use xlink:href="#DejaVuSans-31"/>
       <use xlink:href="#DejaVuSans-30" transform="translate(63.623047 0)"/>
      </g>
     </g>
    </g>
    <g id="ytick_4">
     <g id="line2d_11">
      <path d="M 71.28 208.024436 
L 690.075 208.024436 
" clip-path="url(#p3df017b268)" style="fill: none; stroke: #cccccc; stroke-linecap: round"/>
     </g>
     <g id="text_12">
      <!-- 15 -->
      <g style="fill: #262626" transform="translate(40.78375 214.293147) scale(0.165 -0.165)">
       <use xlink:href="#DejaVuSans-31"/>
       <use xlink:href="#DejaVuSans-35" transform="translate(63.623047 0)"/>
      </g>
     </g>
    </g>
    <g id="ytick_5">
     <g id="line2d_12">
      <path d="M 71.28 167.100461 
L 690.075 167.100461 
" clip-path="url(#p3df017b268)" style="fill: none; stroke: #cccccc; stroke-linecap: round"/>
     </g>
     <g id="text_13">
      <!-- 20 -->
      <g style="fill: #262626" transform="translate(40.78375 173.369172) scale(0.165 -0.165)">
       <use xlink:href="#DejaVuSans-32"/>
       <use xlink:href="#DejaVuSans-30" transform="translate(63.623047 0)"/>
      </g>
     </g>
    </g>
    <g id="ytick_6">
     <g id="line2d_13">
      <path d="M 71.28 126.176485 
L 690.075 126.176485 
" clip-path="url(#p3df017b268)" style="fill: none; stroke: #cccccc; stroke-linecap: round"/>
     </g>
     <g id="text_14">
      <!-- 25 -->
      <g style="fill: #262626" transform="translate(40.78375 132.445196) scale(0.165 -0.165)">
       <use xlink:href="#DejaVuSans-32"/>
       <use xlink:href="#DejaVuSans-35" transform="translate(63.623047 0)"/>
      </g>
     </g>
    </g>
    <g id="ytick_7">
     <g id="line2d_14">
      <path d="M 71.28 85.25251 
L 690.075 85.25251 
" clip-path="url(#p3df017b268)" style="fill: none; stroke: #cccccc; stroke-linecap: round"/>
     </g>
     <g id="text_15">
      <!-- 30 -->
      <g style="fill: #262626" transform="translate(40.78375 91.521221) scale(0.165 -0.165)">
       <defs>
        <path id="DejaVuSans-33" d="M 2597 2516 
Q 3050 2419 3304 2112 
Q 3559 1806 3559 1356 
Q 3559 666 3084 287 
Q 2609 -91 1734 -91 
Q 1441 -91 1130 -33 
Q 819 25 488 141 
L 488 750 
Q 750 597 1062 519 
Q 1375 441 1716 441 
Q 2309 441 2620 675 
Q 2931 909 2931 1356 
Q 2931 1769 2642 2001 
Q 2353 2234 1838 2234 
L 1294 2234 
L 1294 2753 
L 1863 2753 
Q 2328 2753 2575 2939 
Q 2822 3125 2822 3475 
Q 2822 3834 2567 4026 
Q 2313 4219 1838 4219 
Q 1578 4219 1281 4162 
Q 984 4106 628 3988 
L 628 4550 
Q 988 4650 1302 4700 
Q 1616 4750 1894 4750 
Q 2613 4750 3031 4423 
Q 3450 4097 3450 3541 
Q 3450 3153 3228 2886 
Q 3006 2619 2597 2516 
z
" transform="scale(0.015625)"/>
       </defs>
       <use xlink:href="#DejaVuSans-33"/>
       <use xlink:href="#DejaVuSans-30" transform="translate(63.623047 0)"/>
      </g>
     </g>
    </g>
    <g id="ytick_8">
     <g id="line2d_15">
      <path d="M 71.28 44.328534 
L 690.075 44.328534 
" clip-path="url(#p3df017b268)" style="fill: none; stroke: #cccccc; stroke-linecap: round"/>
     </g>
     <g id="text_16">
      <!-- 35 -->
      <g style="fill: #262626" transform="translate(40.78375 50.597245) scale(0.165 -0.165)">
       <use xlink:href="#DejaVuSans-33"/>
       <use xlink:href="#DejaVuSans-35" transform="translate(63.623047 0)"/>
      </g>
     </g>
    </g>
    <g id="text_17">
     <!-- Mean Episode Return -->
     <g style="fill: #262626" transform="translate(33.040312 297.624844) rotate(-90) scale(0.18 -0.18)">
      <defs>
       <path id="DejaVuSans-4d" d="M 628 4666 
L 1569 4666 
L 2759 1491 
L 3956 4666 
L 4897 4666 
L 4897 0 
L 4281 0 
L 4281 4097 
L 3078 897 
L 2444 897 
L 1241 4097 
L 1241 0 
L 628 0 
L 628 4666 
z
" transform="scale(0.015625)"/>
       <path id="DejaVuSans-61" d="M 2194 1759 
Q 1497 1759 1228 1600 
Q 959 1441 959 1056 
Q 959 750 1161 570 
Q 1363 391 1709 391 
Q 2188 391 2477 730 
Q 2766 1069 2766 1631 
L 2766 1759 
L 2194 1759 
z
M 3341 1997 
L 3341 0 
L 2766 0 
L 2766 531 
Q 2569 213 2275 61 
Q 1981 -91 1556 -91 
Q 1019 -91 701 211 
Q 384 513 384 1019 
Q 384 1609 779 1909 
Q 1175 2209 1959 2209 
L 2766 2209 
L 2766 2266 
Q 2766 2663 2505 2880 
Q 2244 3097 1772 3097 
Q 1472 3097 1187 3025 
Q 903 2953 641 2809 
L 641 3341 
Q 956 3463 1253 3523 
Q 1550 3584 1831 3584 
Q 2591 3584 2966 3190 
Q 3341 2797 3341 1997 
z
" transform="scale(0.015625)"/>
       <path id="DejaVuSans-45" d="M 628 4666 
L 3578 4666 
L 3578 4134 
L 1259 4134 
L 1259 2753 
L 3481 2753 
L 3481 2222 
L 1259 2222 
L 1259 531 
L 3634 531 
L 3634 0 
L 628 0 
L 628 4666 
z
" transform="scale(0.015625)"/>
       <path id="DejaVuSans-70" d="M 1159 525 
L 1159 -1331 
L 581 -1331 
L 581 3500 
L 1159 3500 
L 1159 2969 
Q 1341 3281 1617 3432 
Q 1894 3584 2278 3584 
Q 2916 3584 3314 3078 
Q 3713 2572 3713 1747 
Q 3713 922 3314 415 
Q 2916 -91 2278 -91 
Q 1894 -91 1617 61 
Q 1341 213 1159 525 
z
M 3116 1747 
Q 3116 2381 2855 2742 
Q 2594 3103 2138 3103 
Q 1681 3103 1420 2742 
Q 1159 2381 1159 1747 
Q 1159 1113 1420 752 
Q 1681 391 2138 391 
Q 2594 391 2855 752 
Q 3116 1113 3116 1747 
z
" transform="scale(0.015625)"/>
       <path id="DejaVuSans-6f" d="M 1959 3097 
Q 1497 3097 1228 2736 
Q 959 2375 959 1747 
Q 959 1119 1226 758 
Q 1494 397 1959 397 
Q 2419 397 2687 759 
Q 2956 1122 2956 1747 
Q 2956 2369 2687 2733 
Q 2419 3097 1959 3097 
z
M 1959 3584 
Q 2709 3584 3137 3096 
Q 3566 2609 3566 1747 
Q 3566 888 3137 398 
Q 2709 -91 1959 -91 
Q 1206 -91 779 398 
Q 353 888 353 1747 
Q 353 2609 779 3096 
Q 1206 3584 1959 3584 
z
" transform="scale(0.015625)"/>
       <path id="DejaVuSans-64" d="M 2906 2969 
L 2906 4863 
L 3481 4863 
L 3481 0 
L 2906 0 
L 2906 525 
Q 2725 213 2448 61 
Q 2172 -91 1784 -91 
Q 1150 -91 751 415 
Q 353 922 353 1747 
Q 353 2572 751 3078 
Q 1150 3584 1784 3584 
Q 2172 3584 2448 3432 
Q 2725 3281 2906 2969 
z
M 947 1747 
Q 947 1113 1208 752 
Q 1469 391 1925 391 
Q 2381 391 2643 752 
Q 2906 1113 2906 1747 
Q 2906 2381 2643 2742 
Q 2381 3103 1925 3103 
Q 1469 3103 1208 2742 
Q 947 2381 947 1747 
z
" transform="scale(0.015625)"/>
       <path id="DejaVuSans-52" d="M 2841 2188 
Q 3044 2119 3236 1894 
Q 3428 1669 3622 1275 
L 4263 0 
L 3584 0 
L 2988 1197 
Q 2756 1666 2539 1819 
Q 2322 1972 1947 1972 
L 1259 1972 
L 1259 0 
L 628 0 
L 628 4666 
L 2053 4666 
Q 2853 4666 3247 4331 
Q 3641 3997 3641 3322 
Q 3641 2881 3436 2590 
Q 3231 2300 2841 2188 
z
M 1259 4147 
L 1259 2491 
L 2053 2491 
Q 2509 2491 2742 2702 
Q 2975 2913 2975 3322 
Q 2975 3731 2742 3939 
Q 2509 4147 2053 4147 
L 1259 4147 
z
" transform="scale(0.015625)"/>
       <path id="DejaVuSans-72" d="M 2631 2963 
Q 2534 3019 2420 3045 
Q 2306 3072 2169 3072 
Q 1681 3072 1420 2755 
Q 1159 2438 1159 1844 
L 1159 0 
L 581 0 
L 581 3500 
L 1159 3500 
L 1159 2956 
Q 1341 3275 1631 3429 
Q 1922 3584 2338 3584 
Q 2397 3584 2469 3576 
Q 2541 3569 2628 3553 
L 2631 2963 
z
" transform="scale(0.015625)"/>
      </defs>
      <use xlink:href="#DejaVuSans-4d"/>
      <use xlink:href="#DejaVuSans-65" transform="translate(86.279297 0)"/>
      <use xlink:href="#DejaVuSans-61" transform="translate(147.802734 0)"/>
      <use xlink:href="#DejaVuSans-6e" transform="translate(209.082031 0)"/>
      <use xlink:href="#DejaVuSans-20" transform="translate(272.460938 0)"/>
      <use xlink:href="#DejaVuSans-45" transform="translate(304.248047 0)"/>
      <use xlink:href="#DejaVuSans-70" transform="translate(367.431641 0)"/>
      <use xlink:href="#DejaVuSans-69" transform="translate(430.908203 0)"/>
      <use xlink:href="#DejaVuSans-73" transform="translate(458.691406 0)"/>
      <use xlink:href="#DejaVuSans-6f" transform="translate(510.791016 0)"/>
      <use xlink:href="#DejaVuSans-64" transform="translate(571.972656 0)"/>
      <use xlink:href="#DejaVuSans-65" transform="translate(635.449219 0)"/>
      <use xlink:href="#DejaVuSans-20" transform="translate(696.972656 0)"/>
      <use xlink:href="#DejaVuSans-52" transform="translate(728.759766 0)"/>
      <use xlink:href="#DejaVuSans-65" transform="translate(793.742188 0)"/>
      <use xlink:href="#DejaVuSans-74" transform="translate(855.265625 0)"/>
      <use xlink:href="#DejaVuSans-75" transform="translate(894.474609 0)"/>
      <use xlink:href="#DejaVuSans-72" transform="translate(957.853516 0)"/>
      <use xlink:href="#DejaVuSans-6e" transform="translate(997.216797 0)"/>
     </g>
    </g>
   </g>
   <g id="FillBetweenPolyCollection_1"/>
   <g id="FillBetweenPolyCollection_2"/>
   <g id="line2d_16">
    <path d="M 71.28 338.872081 
L 89.698644 335.536726 
L 108.197147 333.609612 
L 126.806945 334.405881 
L 145.336969 333.863539 
L 163.904856 333.698991 
L 182.425247 333.156947 
L 200.961515 333.615064 
L 219.440185 333.615064 
L 237.878243 333.615064 
L 256.388058 323.550975 
L 275.101558 232.338447 
L 293.779545 237.722278 
L 312.45023 246.147877 
L 331.023471 245.764511 
L 349.728451 227.458665 
L 368.384208 232.297179 
L 386.932917 237.715714 
L 405.445368 237.321779 
L 423.957992 237.579045 
L 442.599491 121.464227 
L 461.35139 115.780793 
L 480.092247 113.498708 
L 498.841275 111.388581 
L 517.567246 116.714174 
L 536.240268 119.881495 
L 554.867992 126.443828 
L 573.465975 128.934479 
L 592.018248 128.934479 
L 610.638009 128.934479 
L 629.217628 128.934479 
L 647.911193 127.221222 
L 666.583396 105.389674 
L 685.189413 99.263676 
L 703.773947 102.588062 
L 721 88.631496 
" clip-path="url(#p3df017b268)" style="fill: none; stroke: #4c72b0; stroke-width: 1.5; stroke-linecap: round"/>
    <defs>
     <path id="mf0df021864" d="M 0 3 
C 0.795609 3 1.55874 2.683901 2.12132 2.12132 
C 2.683901 1.55874 3 0.795609 3 0 
C 3 -0.795609 2.683901 -1.55874 2.12132 -2.12132 
C 1.55874 -2.683901 0.795609 -3 0 -3 
C -0.795609 -3 -1.55874 -2.683901 -2.12132 -2.12132 
C -2.683901 -1.55874 -3 -0.795609 -3 0 
C -3 0.795609 -2.683901 1.55874 -2.12132 2.12132 
C -1.55874 2.683901 -0.795609 3 0 3 
z
" style="stroke: #ffffff; stroke-width: 0.75"/>
    </defs>
    <g clip-path="url(#p3df017b268)">
     <use xlink:href="#mf0df021864" x="71.28" y="338.872081" style="fill: #4c72b0; stroke: #ffffff; stroke-width: 0.75"/>
     <use xlink:href="#mf0df021864" x="89.698644" y="335.536726" style="fill: #4c72b0; stroke: #ffffff; stroke-width: 0.75"/>
     <use xlink:href="#mf0df021864" x="108.197147" y="333.609612" style="fill: #4c72b0; stroke: #ffffff; stroke-width: 0.75"/>
     <use xlink:href="#mf0df021864" x="126.806945" y="334.405881" style="fill: #4c72b0; stroke: #ffffff; stroke-width: 0.75"/>
     <use xlink:href="#mf0df021864" x="145.336969" y="333.863539" style="fill: #4c72b0; stroke: #ffffff; stroke-width: 0.75"/>
     <use xlink:href="#mf0df021864" x="163.904856" y="333.698991" style="fill: #4c72b0; stroke: #ffffff; stroke-width: 0.75"/>
     <use xlink:href="#mf0df021864" x="182.425247" y="333.156947" style="fill: #4c72b0; stroke: #ffffff; stroke-width: 0.75"/>
     <use xlink:href="#mf0df021864" x="200.961515" y="333.615064" style="fill: #4c72b0; stroke: #ffffff; stroke-width: 0.75"/>
     <use xlink:href="#mf0df021864" x="219.440185" y="333.615064" style="fill: #4c72b0; stroke: #ffffff; stroke-width: 0.75"/>
     <use xlink:href="#mf0df021864" x="237.878243" y="333.615064" style="fill: #4c72b0; stroke: #ffffff; stroke-width: 0.75"/>
     <use xlink:href="#mf0df021864" x="256.388058" y="323.550975" style="fill: #4c72b0; stroke: #ffffff; stroke-width: 0.75"/>
     <use xlink:href="#mf0df021864" x="275.101558" y="232.338447" style="fill: #4c72b0; stroke: #ffffff; stroke-width: 0.75"/>
     <use xlink:href="#mf0df021864" x="293.779545" y="237.722278" style="fill: #4c72b0; stroke: #ffffff; stroke-width: 0.75"/>
     <use xlink:href="#mf0df021864" x="312.45023" y="246.147877" style="fill: #4c72b0; stroke: #ffffff; stroke-width: 0.75"/>
     <use xlink:href="#mf0df021864" x="331.023471" y="245.764511" style="fill: #4c72b0; stroke: #ffffff; stroke-width: 0.75"/>
     <use xlink:href="#mf0df021864" x="349.728451" y="227.458665" style="fill: #4c72b0; stroke: #ffffff; stroke-width: 0.75"/>
     <use xlink:href="#mf0df021864" x="368.384208" y="232.297179" style="fill: #4c72b0; stroke: #ffffff; stroke-width: 0.75"/>
     <use xlink:href="#mf0df021864" x="386.932917" y="237.715714" style="fill: #4c72b0; stroke: #ffffff; stroke-width: 0.75"/>
     <use xlink:href="#mf0df021864" x="405.445368" y="237.321779" style="fill: #4c72b0; stroke: #ffffff; stroke-width: 0.75"/>
     <use xlink:href="#mf0df021864" x="423.957992" y="237.579045" style="fill: #4c72b0; stroke: #ffffff; stroke-width: 0.75"/>
     <use xlink:href="#mf0df021864" x="442.599491" y="121.464227" style="fill: #4c72b0; stroke: #ffffff; stroke-width: 0.75"/>
     <use xlink:href="#mf0df021864" x="461.35139" y="115.780793" style="fill: #4c72b0; stroke: #ffffff; stroke-width: 0.75"/>
     <use xlink:href="#mf0df021864" x="480.092247" y="113.498708" style="fill: #4c72b0; stroke: #ffffff; stroke-width: 0.75"/>
     <use xlink:href="#mf0df021864" x="498.841275" y="111.388581" style="fill: #4c72b0; stroke: #ffffff; stroke-width: 0.75"/>
     <use xlink:href="#mf0df021864" x="517.567246" y="116.714174" style="fill: #4c72b0; stroke: #ffffff; stroke-width: 0.75"/>
     <use xlink:href="#mf0df021864" x="536.240268" y="119.881495" style="fill: #4c72b0; stroke: #ffffff; stroke-width: 0.75"/>
     <use xlink:href="#mf0df021864" x="554.867992" y="126.443828" style="fill: #4c72b0; stroke: #ffffff; stroke-width: 0.75"/>
     <use xlink:href="#mf0df021864" x="573.465975" y="128.934479" style="fill: #4c72b0; stroke: #ffffff; stroke-width: 0.75"/>
     <use xlink:href="#mf0df021864" x="592.018248" y="128.934479" style="fill: #4c72b0; stroke: #ffffff; stroke-width: 0.75"/>
     <use xlink:href="#mf0df021864" x="610.638009" y="128.934479" style="fill: #4c72b0; stroke: #ffffff; stroke-width: 0.75"/>
     <use xlink:href="#mf0df021864" x="629.217628" y="128.934479" style="fill: #4c72b0; stroke: #ffffff; stroke-width: 0.75"/>
     <use xlink:href="#mf0df021864" x="647.911193" y="127.221222" style="fill: #4c72b0; stroke: #ffffff; stroke-width: 0.75"/>
     <use xlink:href="#mf0df021864" x="666.583396" y="105.389674" style="fill: #4c72b0; stroke: #ffffff; stroke-width: 0.75"/>
     <use xlink:href="#mf0df021864" x="685.189413" y="99.263676" style="fill: #4c72b0; stroke: #ffffff; stroke-width: 0.75"/>
     <use xlink:href="#mf0df021864" x="703.773947" y="102.588062" style="fill: #4c72b0; stroke: #ffffff; stroke-width: 0.75"/>
     <use xlink:href="#mf0df021864" x="722.42375" y="87.477973" style="fill: #4c72b0; stroke: #ffffff; stroke-width: 0.75"/>
     <use xlink:href="#mf0df021864" x="741.129135" y="90.621065" style="fill: #4c72b0; stroke: #ffffff; stroke-width: 0.75"/>
     <use xlink:href="#mf0df021864" x="759.759847" y="91.501977" style="fill: #4c72b0; stroke: #ffffff; stroke-width: 0.75"/>
     <use xlink:href="#mf0df021864" x="778.295739" y="91.027052" style="fill: #4c72b0; stroke: #ffffff; stroke-width: 0.75"/>
     <use xlink:href="#mf0df021864" x="796.871569" y="91.027052" style="fill: #4c72b0; stroke: #ffffff; stroke-width: 0.75"/>
     <use xlink:href="#mf0df021864" x="815.630503" y="92.69972" style="fill: #4c72b0; stroke: #ffffff; stroke-width: 0.75"/>
     <use xlink:href="#mf0df021864" x="834.360445" y="73.51058" style="fill: #4c72b0; stroke: #ffffff; stroke-width: 0.75"/>
     <use xlink:href="#mf0df021864" x="853.108074" y="70.50112" style="fill: #4c72b0; stroke: #ffffff; stroke-width: 0.75"/>
     <use xlink:href="#mf0df021864" x="871.832039" y="71.617544" style="fill: #4c72b0; stroke: #ffffff; stroke-width: 0.75"/>
     <use xlink:href="#mf0df021864" x="890.554115" y="70.211609" style="fill: #4c72b0; stroke: #ffffff; stroke-width: 0.75"/>
     <use xlink:href="#mf0df021864" x="909.221521" y="70.546736" style="fill: #4c72b0; stroke: #ffffff; stroke-width: 0.75"/>
     <use xlink:href="#mf0df021864" x="927.852432" y="81.823154" style="fill: #4c72b0; stroke: #ffffff; stroke-width: 0.75"/>
     <use xlink:href="#mf0df021864" x="946.410297" y="85.864315" style="fill: #4c72b0; stroke: #ffffff; stroke-width: 0.75"/>
     <use xlink:href="#mf0df021864" x="964.991381" y="85.516168" style="fill: #4c72b0; stroke: #ffffff; stroke-width: 0.75"/>
     <use xlink:href="#mf0df021864" x="983.522974" y="85.516168" style="fill: #4c72b0; stroke: #ffffff; stroke-width: 0.75"/>
     <use xlink:href="#mf0df021864" x="1002.064647" y="85.516168" style="fill: #4c72b0; stroke: #ffffff; stroke-width: 0.75"/>
     <use xlink:href="#mf0df021864" x="1020.635064" y="84.998358" style="fill: #4c72b0; stroke: #ffffff; stroke-width: 0.75"/>
     <use xlink:href="#mf0df021864" x="1039.348394" y="75.37227" style="fill: #4c72b0; stroke: #ffffff; stroke-width: 0.75"/>
     <use xlink:href="#mf0df021864" x="1057.968946" y="73.815484" style="fill: #4c72b0; stroke: #ffffff; stroke-width: 0.75"/>
     <use xlink:href="#mf0df021864" x="1076.558598" y="74.561936" style="fill: #4c72b0; stroke: #ffffff; stroke-width: 0.75"/>
     <use xlink:href="#mf0df021864" x="1095.107169" y="71.936029" style="fill: #4c72b0; stroke: #ffffff; stroke-width: 0.75"/>
     <use xlink:href="#mf0df021864" x="1113.827047" y="61.920205" style="fill: #4c72b0; stroke: #ffffff; stroke-width: 0.75"/>
     <use xlink:href="#mf0df021864" x="1132.453295" y="61.090748" style="fill: #4c72b0; stroke: #ffffff; stroke-width: 0.75"/>
     <use xlink:href="#mf0df021864" x="1151.001146" y="61.966008" style="fill: #4c72b0; stroke: #ffffff; stroke-width: 0.75"/>
     <use xlink:href="#mf0df021864" x="1169.521426" y="64.290244" style="fill: #4c72b0; stroke: #ffffff; stroke-width: 0.75"/>
     <use xlink:href="#mf0df021864" x="1188.072431" y="64.699446" style="fill: #4c72b0; stroke: #ffffff; stroke-width: 0.75"/>
     <use xlink:href="#mf0df021864" x="1206.722655" y="57.900962" style="fill: #4c72b0; stroke: #ffffff; stroke-width: 0.75"/>
     <use xlink:href="#mf0df021864" x="1225.498948" y="56.037789" style="fill: #4c72b0; stroke: #ffffff; stroke-width: 0.75"/>
     <use xlink:href="#mf0df021864" x="1244.280841" y="53.942727" style="fill: #4c72b0; stroke: #ffffff; stroke-width: 0.75"/>
     <use xlink:href="#mf0df021864" x="1263.009519" y="55.137519" style="fill: #4c72b0; stroke: #ffffff; stroke-width: 0.75"/>
     <use xlink:href="#mf0df021864" x="1281.713874" y="56.951953" style="fill: #4c72b0; stroke: #ffffff; stroke-width: 0.75"/>
     <use xlink:href="#mf0df021864" x="1300.356963" y="65.093037" style="fill: #4c72b0; stroke: #ffffff; stroke-width: 0.75"/>
     <use xlink:href="#mf0df021864" x="1318.94146" y="68.507781" style="fill: #4c72b0; stroke: #ffffff; stroke-width: 0.75"/>
     <use xlink:href="#mf0df021864" x="1337.506393" y="70.995981" style="fill: #4c72b0; stroke: #ffffff; stroke-width: 0.75"/>
     <use xlink:href="#mf0df021864" x="1356.021287" y="70.995981" style="fill: #4c72b0; stroke: #ffffff; stroke-width: 0.75"/>
     <use xlink:href="#mf0df021864" x="1374.516415" y="72.488667" style="fill: #4c72b0; stroke: #ffffff; stroke-width: 0.75"/>
     <use xlink:href="#mf0df021864" x="1393.072185" y="72.260665" style="fill: #4c72b0; stroke: #ffffff; stroke-width: 0.75"/>
     <use xlink:href="#mf0df021864" x="1411.786312" y="72.18111" style="fill: #4c72b0; stroke: #ffffff; stroke-width: 0.75"/>
    </g>
   </g>
   <g id="line2d_17">
    <path d="M 71.28 350.397273 
L 76.391307 338.561043 
L 81.484884 337.321814 
L 86.582198 336.821826 
L 91.992643 336.050475 
L 97.073168 335.707181 
L 102.170495 335.007465 
L 112.676648 333.168593 
L 117.712394 332.14858 
L 122.760479 331.449383 
L 127.80491 332.643716 
L 133.147602 329.533089 
L 138.162089 331.606966 
L 143.113474 332.144507 
L 148.046961 330.700228 
L 153.212798 328.184175 
L 158.080384 324.751136 
L 162.930308 322.995647 
L 167.791097 321.674563 
L 173.007224 306.761263 
L 177.89657 293.807341 
L 182.77947 276.895682 
L 187.710534 266.530103 
L 192.914783 253.376686 
L 197.774656 248.461739 
L 202.623614 243.297121 
L 207.48577 229.530216 
L 212.757096 181.315682 
L 217.763939 107.509215 
L 222.793587 104.723635 
L 227.840101 112.953859 
L 233.18187 103.3717 
L 238.203422 108.652146 
L 243.197769 122.249083 
L 248.141712 149.930138 
L 253.332238 152.948169 
L 258.2501 166.127536 
L 263.11664 164.082024 
L 268.020828 161.185012 
L 273.550774 159.05982 
L 278.479687 154.362112 
L 283.376714 134.090409 
L 288.260849 133.824487 
L 293.470544 121.230979 
L 298.347464 119.503906 
L 303.181208 118.230948 
L 308.025205 118.776093 
L 313.257464 107.137713 
L 318.206706 75.837017 
L 323.225175 70.07615 
L 328.245868 73.35236 
L 333.569225 73.998947 
L 338.595502 84.243429 
L 343.622772 79.836137 
L 348.571938 78.395733 
L 353.818897 91.433459 
L 358.680227 89.493948 
L 363.535512 89.669824 
L 368.371548 87.692643 
L 373.601323 88.93366 
L 378.522756 82.698851 
L 383.47344 108.098711 
L 388.372762 112.396834 
L 393.601271 114.505915 
L 398.474089 111.363275 
L 403.355694 109.22703 
L 408.233569 106.772972 
L 413.454997 95.256094 
L 418.411593 70.757956 
L 423.421746 70.084955 
L 428.474976 65.662067 
L 433.83459 68.320259 
L 438.849279 69.308108 
L 443.879746 67.637204 
L 448.892669 70.37534 
L 454.181719 70.803635 
L 459.080647 85.568856 
L 463.960767 82.201305 
L 468.817841 83.690603 
L 474.058177 86.062906 
L 479.178725 90.197657 
L 484.14923 96.213673 
L 489.09382 90.365805 
L 494.356493 97.6572 
L 499.248098 98.671994 
L 504.179799 100.168988 
L 509.057011 102.621985 
L 514.228491 101.400498 
L 519.11136 92.250116 
L 524.06171 64.851125 
L 529.06584 63.671538 
L 534.39471 60.986183 
L 539.388072 63.250222 
L 544.406877 67.118598 
L 549.388054 74.210683 
L 554.65518 96.30286 
L 559.569883 104.254017 
L 564.459101 92.030262 
L 569.311878 91.587418 
L 574.496271 91.812829 
L 579.428519 86.621804 
L 584.405382 94.559707 
L 589.365802 100.492454 
L 594.596227 95.797446 
L 599.511544 80.614639 
L 604.389342 77.685764 
L 609.231664 81.173397 
L 614.411475 80.960366 
L 619.292285 76.610664 
L 624.218795 71.928894 
L 629.211286 65.844781 
L 634.533682 66.114669 
L 644.589257 67.603077 
L 649.614372 69.899728 
L 654.880763 83.189451 
L 659.812716 69.633493 
L 664.736071 66.438915 
L 669.616451 69.76391 
L 674.775725 70.444092 
L 679.696156 77.784911 
L 684.836685 79.44634 
L 689.806687 73.559959 
L 695.020305 81.643296 
L 704.76688 81.189461 
L 709.648227 86.995366 
L 714.826281 87.159409 
L 719.669028 83.226231 
L 721 83.554224 
L 721 83.554224 
" clip-path="url(#p3df017b268)" style="fill: none; stroke: #dd8452; stroke-width: 1.5; stroke-linecap: round"/>
    <defs>
     <path id="m83ae3a24d9" d="M 0 3 
C 0.795609 3 1.55874 2.683901 2.12132 2.12132 
C 2.683901 1.55874 3 0.795609 3 0 
C 3 -0.795609 2.683901 -1.55874 2.12132 -2.12132 
C 1.55874 -2.683901 0.795609 -3 0 -3 
C -0.795609 -3 -1.55874 -2.683901 -2.12132 -2.12132 
C -2.683901 -1.55874 -3 -0.795609 -3 0 
C -3 0.795609 -2.683901 1.55874 -2.12132 2.12132 
C -1.55874 2.683901 -0.795609 3 0 3 
z
" style="stroke: #ffffff; stroke-width: 0.75"/>
    </defs>
    <g clip-path="url(#p3df017b268)">
     <use xlink:href="#m83ae3a24d9" x="71.28" y="350.397273" style="fill: #dd8452; stroke: #ffffff; stroke-width: 0.75"/>
     <use xlink:href="#m83ae3a24d9" x="76.391307" y="338.561043" style="fill: #dd8452; stroke: #ffffff; stroke-width: 0.75"/>
     <use xlink:href="#m83ae3a24d9" x="81.484884" y="337.321814" style="fill: #dd8452; stroke: #ffffff; stroke-width: 0.75"/>
     <use xlink:href="#m83ae3a24d9" x="86.582198" y="336.821826" style="fill: #dd8452; stroke: #ffffff; stroke-width: 0.75"/>
     <use xlink:href="#m83ae3a24d9" x="91.992643" y="336.050475" style="fill: #dd8452; stroke: #ffffff; stroke-width: 0.75"/>
     <use xlink:href="#m83ae3a24d9" x="97.073168" y="335.707181" style="fill: #dd8452; stroke: #ffffff; stroke-width: 0.75"/>
     <use xlink:href="#m83ae3a24d9" x="102.170495" y="335.007465" style="fill: #dd8452; stroke: #ffffff; stroke-width: 0.75"/>
     <use xlink:href="#m83ae3a24d9" x="107.269983" y="334.139132" style="fill: #dd8452; stroke: #ffffff; stroke-width: 0.75"/>
     <use xlink:href="#m83ae3a24d9" x="112.676648" y="333.168593" style="fill: #dd8452; stroke: #ffffff; stroke-width: 0.75"/>
     <use xlink:href="#m83ae3a24d9" x="117.712394" y="332.14858" style="fill: #dd8452; stroke: #ffffff; stroke-width: 0.75"/>
     <use xlink:href="#m83ae3a24d9" x="122.760479" y="331.449383" style="fill: #dd8452; stroke: #ffffff; stroke-width: 0.75"/>
     <use xlink:href="#m83ae3a24d9" x="127.80491" y="332.643716" style="fill: #dd8452; stroke: #ffffff; stroke-width: 0.75"/>
     <use xlink:href="#m83ae3a24d9" x="133.147602" y="329.533089" style="fill: #dd8452; stroke: #ffffff; stroke-width: 0.75"/>
     <use xlink:href="#m83ae3a24d9" x="138.162089" y="331.606966" style="fill: #dd8452; stroke: #ffffff; stroke-width: 0.75"/>
     <use xlink:href="#m83ae3a24d9" x="143.113474" y="332.144507" style="fill: #dd8452; stroke: #ffffff; stroke-width: 0.75"/>
     <use xlink:href="#m83ae3a24d9" x="148.046961" y="330.700228" style="fill: #dd8452; stroke: #ffffff; stroke-width: 0.75"/>
     <use xlink:href="#m83ae3a24d9" x="153.212798" y="328.184175" style="fill: #dd8452; stroke: #ffffff; stroke-width: 0.75"/>
     <use xlink:href="#m83ae3a24d9" x="158.080384" y="324.751136" style="fill: #dd8452; stroke: #ffffff; stroke-width: 0.75"/>
     <use xlink:href="#m83ae3a24d9" x="162.930308" y="322.995647" style="fill: #dd8452; stroke: #ffffff; stroke-width: 0.75"/>
     <use xlink:href="#m83ae3a24d9" x="167.791097" y="321.674563" style="fill: #dd8452; stroke: #ffffff; stroke-width: 0.75"/>
     <use xlink:href="#m83ae3a24d9" x="173.007224" y="306.761263" style="fill: #dd8452; stroke: #ffffff; stroke-width: 0.75"/>
     <use xlink:href="#m83ae3a24d9" x="177.89657" y="293.807341" style="fill: #dd8452; stroke: #ffffff; stroke-width: 0.75"/>
     <use xlink:href="#m83ae3a24d9" x="182.77947" y="276.895682" style="fill: #dd8452; stroke: #ffffff; stroke-width: 0.75"/>
     <use xlink:href="#m83ae3a24d9" x="187.710534" y="266.530103" style="fill: #dd8452; stroke: #ffffff; stroke-width: 0.75"/>
     <use xlink:href="#m83ae3a24d9" x="192.914783" y="253.376686" style="fill: #dd8452; stroke: #ffffff; stroke-width: 0.75"/>
     <use xlink:href="#m83ae3a24d9" x="197.774656" y="248.461739" style="fill: #dd8452; stroke: #ffffff; stroke-width: 0.75"/>
     <use xlink:href="#m83ae3a24d9" x="202.623614" y="243.297121" style="fill: #dd8452; stroke: #ffffff; stroke-width: 0.75"/>
     <use xlink:href="#m83ae3a24d9" x="207.48577" y="229.530216" style="fill: #dd8452; stroke: #ffffff; stroke-width: 0.75"/>
     <use xlink:href="#m83ae3a24d9" x="212.757096" y="181.315682" style="fill: #dd8452; stroke: #ffffff; stroke-width: 0.75"/>
     <use xlink:href="#m83ae3a24d9" x="217.763939" y="107.509215" style="fill: #dd8452; stroke: #ffffff; stroke-width: 0.75"/>
     <use xlink:href="#m83ae3a24d9" x="222.793587" y="104.723635" style="fill: #dd8452; stroke: #ffffff; stroke-width: 0.75"/>
     <use xlink:href="#m83ae3a24d9" x="227.840101" y="112.953859" style="fill: #dd8452; stroke: #ffffff; stroke-width: 0.75"/>
     <use xlink:href="#m83ae3a24d9" x="233.18187" y="103.3717" style="fill: #dd8452; stroke: #ffffff; stroke-width: 0.75"/>
     <use xlink:href="#m83ae3a24d9" x="238.203422" y="108.652146" style="fill: #dd8452; stroke: #ffffff; stroke-width: 0.75"/>
     <use xlink:href="#m83ae3a24d9" x="243.197769" y="122.249083" style="fill: #dd8452; stroke: #ffffff; stroke-width: 0.75"/>
     <use xlink:href="#m83ae3a24d9" x="248.141712" y="149.930138" style="fill: #dd8452; stroke: #ffffff; stroke-width: 0.75"/>
     <use xlink:href="#m83ae3a24d9" x="253.332238" y="152.948169" style="fill: #dd8452; stroke: #ffffff; stroke-width: 0.75"/>
     <use xlink:href="#m83ae3a24d9" x="258.2501" y="166.127536" style="fill: #dd8452; stroke: #ffffff; stroke-width: 0.75"/>
     <use xlink:href="#m83ae3a24d9" x="263.11664" y="164.082024" style="fill: #dd8452; stroke: #ffffff; stroke-width: 0.75"/>
     <use xlink:href="#m83ae3a24d9" x="268.020828" y="161.185012" style="fill: #dd8452; stroke: #ffffff; stroke-width: 0.75"/>
     <use xlink:href="#m83ae3a24d9" x="273.550774" y="159.05982" style="fill: #dd8452; stroke: #ffffff; stroke-width: 0.75"/>
     <use xlink:href="#m83ae3a24d9" x="278.479687" y="154.362112" style="fill: #dd8452; stroke: #ffffff; stroke-width: 0.75"/>
     <use xlink:href="#m83ae3a24d9" x="283.376714" y="134.090409" style="fill: #dd8452; stroke: #ffffff; stroke-width: 0.75"/>
     <use xlink:href="#m83ae3a24d9" x="288.260849" y="133.824487" style="fill: #dd8452; stroke: #ffffff; stroke-width: 0.75"/>
     <use xlink:href="#m83ae3a24d9" x="293.470544" y="121.230979" style="fill: #dd8452; stroke: #ffffff; stroke-width: 0.75"/>
     <use xlink:href="#m83ae3a24d9" x="298.347464" y="119.503906" style="fill: #dd8452; stroke: #ffffff; stroke-width: 0.75"/>
     <use xlink:href="#m83ae3a24d9" x="303.181208" y="118.230948" style="fill: #dd8452; stroke: #ffffff; stroke-width: 0.75"/>
     <use xlink:href="#m83ae3a24d9" x="308.025205" y="118.776093" style="fill: #dd8452; stroke: #ffffff; stroke-width: 0.75"/>
     <use xlink:href="#m83ae3a24d9" x="313.257464" y="107.137713" style="fill: #dd8452; stroke: #ffffff; stroke-width: 0.75"/>
     <use xlink:href="#m83ae3a24d9" x="318.206706" y="75.837017" style="fill: #dd8452; stroke: #ffffff; stroke-width: 0.75"/>
     <use xlink:href="#m83ae3a24d9" x="323.225175" y="70.07615" style="fill: #dd8452; stroke: #ffffff; stroke-width: 0.75"/>
     <use xlink:href="#m83ae3a24d9" x="328.245868" y="73.35236" style="fill: #dd8452; stroke: #ffffff; stroke-width: 0.75"/>
     <use xlink:href="#m83ae3a24d9" x="333.569225" y="73.998947" style="fill: #dd8452; stroke: #ffffff; stroke-width: 0.75"/>
     <use xlink:href="#m83ae3a24d9" x="338.595502" y="84.243429" style="fill: #dd8452; stroke: #ffffff; stroke-width: 0.75"/>
     <use xlink:href="#m83ae3a24d9" x="343.622772" y="79.836137" style="fill: #dd8452; stroke: #ffffff; stroke-width: 0.75"/>
     <use xlink:href="#m83ae3a24d9" x="348.571938" y="78.395733" style="fill: #dd8452; stroke: #ffffff; stroke-width: 0.75"/>
     <use xlink:href="#m83ae3a24d9" x="353.818897" y="91.433459" style="fill: #dd8452; stroke: #ffffff; stroke-width: 0.75"/>
     <use xlink:href="#m83ae3a24d9" x="358.680227" y="89.493948" style="fill: #dd8452; stroke: #ffffff; stroke-width: 0.75"/>
     <use xlink:href="#m83ae3a24d9" x="363.535512" y="89.669824" style="fill: #dd8452; stroke: #ffffff; stroke-width: 0.75"/>
     <use xlink:href="#m83ae3a24d9" x="368.371548" y="87.692643" style="fill: #dd8452; stroke: #ffffff; stroke-width: 0.75"/>
     <use xlink:href="#m83ae3a24d9" x="373.601323" y="88.93366" style="fill: #dd8452; stroke: #ffffff; stroke-width: 0.75"/>
     <use xlink:href="#m83ae3a24d9" x="378.522756" y="82.698851" style="fill: #dd8452; stroke: #ffffff; stroke-width: 0.75"/>
     <use xlink:href="#m83ae3a24d9" x="383.47344" y="108.098711" style="fill: #dd8452; stroke: #ffffff; stroke-width: 0.75"/>
     <use xlink:href="#m83ae3a24d9" x="388.372762" y="112.396834" style="fill: #dd8452; stroke: #ffffff; stroke-width: 0.75"/>
     <use xlink:href="#m83ae3a24d9" x="393.601271" y="114.505915" style="fill: #dd8452; stroke: #ffffff; stroke-width: 0.75"/>
     <use xlink:href="#m83ae3a24d9" x="398.474089" y="111.363275" style="fill: #dd8452; stroke: #ffffff; stroke-width: 0.75"/>
     <use xlink:href="#m83ae3a24d9" x="403.355694" y="109.22703" style="fill: #dd8452; stroke: #ffffff; stroke-width: 0.75"/>
     <use xlink:href="#m83ae3a24d9" x="408.233569" y="106.772972" style="fill: #dd8452; stroke: #ffffff; stroke-width: 0.75"/>
     <use xlink:href="#m83ae3a24d9" x="413.454997" y="95.256094" style="fill: #dd8452; stroke: #ffffff; stroke-width: 0.75"/>
     <use xlink:href="#m83ae3a24d9" x="418.411593" y="70.757956" style="fill: #dd8452; stroke: #ffffff; stroke-width: 0.75"/>
     <use xlink:href="#m83ae3a24d9" x="423.421746" y="70.084955" style="fill: #dd8452; stroke: #ffffff; stroke-width: 0.75"/>
     <use xlink:href="#m83ae3a24d9" x="428.474976" y="65.662067" style="fill: #dd8452; stroke: #ffffff; stroke-width: 0.75"/>
     <use xlink:href="#m83ae3a24d9" x="433.83459" y="68.320259" style="fill: #dd8452; stroke: #ffffff; stroke-width: 0.75"/>
     <use xlink:href="#m83ae3a24d9" x="438.849279" y="69.308108" style="fill: #dd8452; stroke: #ffffff; stroke-width: 0.75"/>
     <use xlink:href="#m83ae3a24d9" x="443.879746" y="67.637204" style="fill: #dd8452; stroke: #ffffff; stroke-width: 0.75"/>
     <use xlink:href="#m83ae3a24d9" x="448.892669" y="70.37534" style="fill: #dd8452; stroke: #ffffff; stroke-width: 0.75"/>
     <use xlink:href="#m83ae3a24d9" x="454.181719" y="70.803635" style="fill: #dd8452; stroke: #ffffff; stroke-width: 0.75"/>
     <use xlink:href="#m83ae3a24d9" x="459.080647" y="85.568856" style="fill: #dd8452; stroke: #ffffff; stroke-width: 0.75"/>
     <use xlink:href="#m83ae3a24d9" x="463.960767" y="82.201305" style="fill: #dd8452; stroke: #ffffff; stroke-width: 0.75"/>
     <use xlink:href="#m83ae3a24d9" x="468.817841" y="83.690603" style="fill: #dd8452; stroke: #ffffff; stroke-width: 0.75"/>
     <use xlink:href="#m83ae3a24d9" x="474.058177" y="86.062906" style="fill: #dd8452; stroke: #ffffff; stroke-width: 0.75"/>
     <use xlink:href="#m83ae3a24d9" x="479.178725" y="90.197657" style="fill: #dd8452; stroke: #ffffff; stroke-width: 0.75"/>
     <use xlink:href="#m83ae3a24d9" x="484.14923" y="96.213673" style="fill: #dd8452; stroke: #ffffff; stroke-width: 0.75"/>
     <use xlink:href="#m83ae3a24d9" x="489.09382" y="90.365805" style="fill: #dd8452; stroke: #ffffff; stroke-width: 0.75"/>
     <use xlink:href="#m83ae3a24d9" x="494.356493" y="97.6572" style="fill: #dd8452; stroke: #ffffff; stroke-width: 0.75"/>
     <use xlink:href="#m83ae3a24d9" x="499.248098" y="98.671994" style="fill: #dd8452; stroke: #ffffff; stroke-width: 0.75"/>
     <use xlink:href="#m83ae3a24d9" x="504.179799" y="100.168988" style="fill: #dd8452; stroke: #ffffff; stroke-width: 0.75"/>
     <use xlink:href="#m83ae3a24d9" x="509.057011" y="102.621985" style="fill: #dd8452; stroke: #ffffff; stroke-width: 0.75"/>
     <use xlink:href="#m83ae3a24d9" x="514.228491" y="101.400498" style="fill: #dd8452; stroke: #ffffff; stroke-width: 0.75"/>
     <use xlink:href="#m83ae3a24d9" x="519.11136" y="92.250116" style="fill: #dd8452; stroke: #ffffff; stroke-width: 0.75"/>
     <use xlink:href="#m83ae3a24d9" x="524.06171" y="64.851125" style="fill: #dd8452; stroke: #ffffff; stroke-width: 0.75"/>
     <use xlink:href="#m83ae3a24d9" x="529.06584" y="63.671538" style="fill: #dd8452; stroke: #ffffff; stroke-width: 0.75"/>
     <use xlink:href="#m83ae3a24d9" x="534.39471" y="60.986183" style="fill: #dd8452; stroke: #ffffff; stroke-width: 0.75"/>
     <use xlink:href="#m83ae3a24d9" x="539.388072" y="63.250222" style="fill: #dd8452; stroke: #ffffff; stroke-width: 0.75"/>
     <use xlink:href="#m83ae3a24d9" x="544.406877" y="67.118598" style="fill: #dd8452; stroke: #ffffff; stroke-width: 0.75"/>
     <use xlink:href="#m83ae3a24d9" x="549.388054" y="74.210683" style="fill: #dd8452; stroke: #ffffff; stroke-width: 0.75"/>
     <use xlink:href="#m83ae3a24d9" x="554.65518" y="96.30286" style="fill: #dd8452; stroke: #ffffff; stroke-width: 0.75"/>
     <use xlink:href="#m83ae3a24d9" x="559.569883" y="104.254017" style="fill: #dd8452; stroke: #ffffff; stroke-width: 0.75"/>
     <use xlink:href="#m83ae3a24d9" x="564.459101" y="92.030262" style="fill: #dd8452; stroke: #ffffff; stroke-width: 0.75"/>
     <use xlink:href="#m83ae3a24d9" x="569.311878" y="91.587418" style="fill: #dd8452; stroke: #ffffff; stroke-width: 0.75"/>
     <use xlink:href="#m83ae3a24d9" x="574.496271" y="91.812829" style="fill: #dd8452; stroke: #ffffff; stroke-width: 0.75"/>
     <use xlink:href="#m83ae3a24d9" x="579.428519" y="86.621804" style="fill: #dd8452; stroke: #ffffff; stroke-width: 0.75"/>
     <use xlink:href="#m83ae3a24d9" x="584.405382" y="94.559707" style="fill: #dd8452; stroke: #ffffff; stroke-width: 0.75"/>
     <use xlink:href="#m83ae3a24d9" x="589.365802" y="100.492454" style="fill: #dd8452; stroke: #ffffff; stroke-width: 0.75"/>
     <use xlink:href="#m83ae3a24d9" x="594.596227" y="95.797446" style="fill: #dd8452; stroke: #ffffff; stroke-width: 0.75"/>
     <use xlink:href="#m83ae3a24d9" x="599.511544" y="80.614639" style="fill: #dd8452; stroke: #ffffff; stroke-width: 0.75"/>
     <use xlink:href="#m83ae3a24d9" x="604.389342" y="77.685764" style="fill: #dd8452; stroke: #ffffff; stroke-width: 0.75"/>
     <use xlink:href="#m83ae3a24d9" x="609.231664" y="81.173397" style="fill: #dd8452; stroke: #ffffff; stroke-width: 0.75"/>
     <use xlink:href="#m83ae3a24d9" x="614.411475" y="80.960366" style="fill: #dd8452; stroke: #ffffff; stroke-width: 0.75"/>
     <use xlink:href="#m83ae3a24d9" x="619.292285" y="76.610664" style="fill: #dd8452; stroke: #ffffff; stroke-width: 0.75"/>
     <use xlink:href="#m83ae3a24d9" x="624.218795" y="71.928894" style="fill: #dd8452; stroke: #ffffff; stroke-width: 0.75"/>
     <use xlink:href="#m83ae3a24d9" x="629.211286" y="65.844781" style="fill: #dd8452; stroke: #ffffff; stroke-width: 0.75"/>
     <use xlink:href="#m83ae3a24d9" x="634.533682" y="66.114669" style="fill: #dd8452; stroke: #ffffff; stroke-width: 0.75"/>
     <use xlink:href="#m83ae3a24d9" x="639.556375" y="66.841467" style="fill: #dd8452; stroke: #ffffff; stroke-width: 0.75"/>
     <use xlink:href="#m83ae3a24d9" x="644.589257" y="67.603077" style="fill: #dd8452; stroke: #ffffff; stroke-width: 0.75"/>
     <use xlink:href="#m83ae3a24d9" x="649.614372" y="69.899728" style="fill: #dd8452; stroke: #ffffff; stroke-width: 0.75"/>
     <use xlink:href="#m83ae3a24d9" x="654.880763" y="83.189451" style="fill: #dd8452; stroke: #ffffff; stroke-width: 0.75"/>
     <use xlink:href="#m83ae3a24d9" x="659.812716" y="69.633493" style="fill: #dd8452; stroke: #ffffff; stroke-width: 0.75"/>
     <use xlink:href="#m83ae3a24d9" x="664.736071" y="66.438915" style="fill: #dd8452; stroke: #ffffff; stroke-width: 0.75"/>
     <use xlink:href="#m83ae3a24d9" x="669.616451" y="69.76391" style="fill: #dd8452; stroke: #ffffff; stroke-width: 0.75"/>
     <use xlink:href="#m83ae3a24d9" x="674.775725" y="70.444092" style="fill: #dd8452; stroke: #ffffff; stroke-width: 0.75"/>
     <use xlink:href="#m83ae3a24d9" x="679.696156" y="77.784911" style="fill: #dd8452; stroke: #ffffff; stroke-width: 0.75"/>
     <use xlink:href="#m83ae3a24d9" x="684.836685" y="79.44634" style="fill: #dd8452; stroke: #ffffff; stroke-width: 0.75"/>
     <use xlink:href="#m83ae3a24d9" x="689.806687" y="73.559959" style="fill: #dd8452; stroke: #ffffff; stroke-width: 0.75"/>
     <use xlink:href="#m83ae3a24d9" x="695.020305" y="81.643296" style="fill: #dd8452; stroke: #ffffff; stroke-width: 0.75"/>
     <use xlink:href="#m83ae3a24d9" x="699.911503" y="81.402789" style="fill: #dd8452; stroke: #ffffff; stroke-width: 0.75"/>
     <use xlink:href="#m83ae3a24d9" x="704.76688" y="81.189461" style="fill: #dd8452; stroke: #ffffff; stroke-width: 0.75"/>
     <use xlink:href="#m83ae3a24d9" x="709.648227" y="86.995366" style="fill: #dd8452; stroke: #ffffff; stroke-width: 0.75"/>
     <use xlink:href="#m83ae3a24d9" x="714.826281" y="87.159409" style="fill: #dd8452; stroke: #ffffff; stroke-width: 0.75"/>
     <use xlink:href="#m83ae3a24d9" x="719.669028" y="83.226231" style="fill: #dd8452; stroke: #ffffff; stroke-width: 0.75"/>
     <use xlink:href="#m83ae3a24d9" x="724.558834" y="84.431233" style="fill: #dd8452; stroke: #ffffff; stroke-width: 0.75"/>
     <use xlink:href="#m83ae3a24d9" x="729.552422" y="68.953451" style="fill: #dd8452; stroke: #ffffff; stroke-width: 0.75"/>
     <use xlink:href="#m83ae3a24d9" x="734.888244" y="63.951635" style="fill: #dd8452; stroke: #ffffff; stroke-width: 0.75"/>
     <use xlink:href="#m83ae3a24d9" x="739.893654" y="69.304002" style="fill: #dd8452; stroke: #ffffff; stroke-width: 0.75"/>
     <use xlink:href="#m83ae3a24d9" x="744.910973" y="69.390129" style="fill: #dd8452; stroke: #ffffff; stroke-width: 0.75"/>
     <use xlink:href="#m83ae3a24d9" x="749.914378" y="68.609441" style="fill: #dd8452; stroke: #ffffff; stroke-width: 0.75"/>
     <use xlink:href="#m83ae3a24d9" x="755.212244" y="70.3212" style="fill: #dd8452; stroke: #ffffff; stroke-width: 0.75"/>
     <use xlink:href="#m83ae3a24d9" x="760.171173" y="66.408067" style="fill: #dd8452; stroke: #ffffff; stroke-width: 0.75"/>
     <use xlink:href="#m83ae3a24d9" x="765.111979" y="63.150466" style="fill: #dd8452; stroke: #ffffff; stroke-width: 0.75"/>
     <use xlink:href="#m83ae3a24d9" x="770.022258" y="62.768739" style="fill: #dd8452; stroke: #ffffff; stroke-width: 0.75"/>
     <use xlink:href="#m83ae3a24d9" x="775.171969" y="62.857848" style="fill: #dd8452; stroke: #ffffff; stroke-width: 0.75"/>
     <use xlink:href="#m83ae3a24d9" x="780.043789" y="66.658784" style="fill: #dd8452; stroke: #ffffff; stroke-width: 0.75"/>
     <use xlink:href="#m83ae3a24d9" x="784.997604" y="71.141806" style="fill: #dd8452; stroke: #ffffff; stroke-width: 0.75"/>
     <use xlink:href="#m83ae3a24d9" x="789.968661" y="70.146292" style="fill: #dd8452; stroke: #ffffff; stroke-width: 0.75"/>
     <use xlink:href="#m83ae3a24d9" x="795.201491" y="66.626468" style="fill: #dd8452; stroke: #ffffff; stroke-width: 0.75"/>
     <use xlink:href="#m83ae3a24d9" x="800.128543" y="67.700148" style="fill: #dd8452; stroke: #ffffff; stroke-width: 0.75"/>
     <use xlink:href="#m83ae3a24d9" x="805.02422" y="70.931429" style="fill: #dd8452; stroke: #ffffff; stroke-width: 0.75"/>
     <use xlink:href="#m83ae3a24d9" x="809.866256" y="70.644853" style="fill: #dd8452; stroke: #ffffff; stroke-width: 0.75"/>
     <use xlink:href="#m83ae3a24d9" x="815.033762" y="69.256622" style="fill: #dd8452; stroke: #ffffff; stroke-width: 0.75"/>
     <use xlink:href="#m83ae3a24d9" x="819.875093" y="68.784038" style="fill: #dd8452; stroke: #ffffff; stroke-width: 0.75"/>
     <use xlink:href="#m83ae3a24d9" x="824.769844" y="66.827541" style="fill: #dd8452; stroke: #ffffff; stroke-width: 0.75"/>
     <use xlink:href="#m83ae3a24d9" x="829.71153" y="60.795289" style="fill: #dd8452; stroke: #ffffff; stroke-width: 0.75"/>
     <use xlink:href="#m83ae3a24d9" x="835.066156" y="64.548985" style="fill: #dd8452; stroke: #ffffff; stroke-width: 0.75"/>
     <use xlink:href="#m83ae3a24d9" x="840.078598" y="60.464268" style="fill: #dd8452; stroke: #ffffff; stroke-width: 0.75"/>
     <use xlink:href="#m83ae3a24d9" x="845.083719" y="59.366297" style="fill: #dd8452; stroke: #ffffff; stroke-width: 0.75"/>
     <use xlink:href="#m83ae3a24d9" x="850.106128" y="60.171369" style="fill: #dd8452; stroke: #ffffff; stroke-width: 0.75"/>
     <use xlink:href="#m83ae3a24d9" x="855.468317" y="57.653305" style="fill: #dd8452; stroke: #ffffff; stroke-width: 0.75"/>
     <use xlink:href="#m83ae3a24d9" x="860.41549" y="65.316715" style="fill: #dd8452; stroke: #ffffff; stroke-width: 0.75"/>
     <use xlink:href="#m83ae3a24d9" x="865.389085" y="63.368742" style="fill: #dd8452; stroke: #ffffff; stroke-width: 0.75"/>
     <use xlink:href="#m83ae3a24d9" x="870.262891" y="62.200583" style="fill: #dd8452; stroke: #ffffff; stroke-width: 0.75"/>
     <use xlink:href="#m83ae3a24d9" x="875.430565" y="59.410695" style="fill: #dd8452; stroke: #ffffff; stroke-width: 0.75"/>
     <use xlink:href="#m83ae3a24d9" x="880.276937" y="60.917681" style="fill: #dd8452; stroke: #ffffff; stroke-width: 0.75"/>
    </g>
   </g>
   <g id="patch_3">
    <path d="M 71.28 365.22 
L 71.28 39.12 
" style="fill: none; stroke: #cccccc; stroke-width: 1.25; stroke-linejoin: miter; stroke-linecap: square"/>
   </g>
   <g id="patch_4">
    <path d="M 690.075 365.22 
L 690.075 39.12 
" style="fill: none; stroke: #cccccc; stroke-width: 1.25; stroke-linejoin: miter; stroke-linecap: square"/>
   </g>
   <g id="patch_5">
    <path d="M 71.28 365.22 
L 690.075 365.22 
" style="fill: none; stroke: #cccccc; stroke-width: 1.25; stroke-linejoin: miter; stroke-linecap: square"/>
   </g>
   <g id="patch_6">
    <path d="M 71.28 39.12 
L 690.075 39.12 
" style="fill: none; stroke: #cccccc; stroke-width: 1.25; stroke-linejoin: miter; stroke-linecap: square"/>
   </g>
   <g id="text_18">
    <!-- Isaac-Velocity-Flat-Unitree-A1 -->
    <g style="fill: #262626" transform="translate(248.452031 33.12) scale(0.18 -0.18)">
     <defs>
      <path id="DejaVuSans-49" d="M 628 4666 
L 1259 4666 
L 1259 0 
L 628 0 
L 628 4666 
z
" transform="scale(0.015625)"/>
      <path id="DejaVuSans-63" d="M 3122 3366 
L 3122 2828 
Q 2878 2963 2633 3030 
Q 2388 3097 2138 3097 
Q 1578 3097 1268 2742 
Q 959 2388 959 1747 
Q 959 1106 1268 751 
Q 1578 397 2138 397 
Q 2388 397 2633 464 
Q 2878 531 3122 666 
L 3122 134 
Q 2881 22 2623 -34 
Q 2366 -91 2075 -91 
Q 1284 -91 818 406 
Q 353 903 353 1747 
Q 353 2603 823 3093 
Q 1294 3584 2113 3584 
Q 2378 3584 2631 3529 
Q 2884 3475 3122 3366 
z
" transform="scale(0.015625)"/>
      <path id="DejaVuSans-2d" d="M 313 2009 
L 1997 2009 
L 1997 1497 
L 313 1497 
L 313 2009 
z
" transform="scale(0.015625)"/>
      <path id="DejaVuSans-56" d="M 1831 0 
L 50 4666 
L 709 4666 
L 2188 738 
L 3669 4666 
L 4325 4666 
L 2547 0 
L 1831 0 
z
" transform="scale(0.015625)"/>
      <path id="DejaVuSans-6c" d="M 603 4863 
L 1178 4863 
L 1178 0 
L 603 0 
L 603 4863 
z
" transform="scale(0.015625)"/>
      <path id="DejaVuSans-79" d="M 2059 -325 
Q 1816 -950 1584 -1140 
Q 1353 -1331 966 -1331 
L 506 -1331 
L 506 -850 
L 844 -850 
Q 1081 -850 1212 -737 
Q 1344 -625 1503 -206 
L 1606 56 
L 191 3500 
L 800 3500 
L 1894 763 
L 2988 3500 
L 3597 3500 
L 2059 -325 
z
" transform="scale(0.015625)"/>
      <path id="DejaVuSans-46" d="M 628 4666 
L 3309 4666 
L 3309 4134 
L 1259 4134 
L 1259 2759 
L 3109 2759 
L 3109 2228 
L 1259 2228 
L 1259 0 
L 628 0 
L 628 4666 
z
" transform="scale(0.015625)"/>
      <path id="DejaVuSans-55" d="M 556 4666 
L 1191 4666 
L 1191 1831 
Q 1191 1081 1462 751 
Q 1734 422 2344 422 
Q 2950 422 3222 751 
Q 3494 1081 3494 1831 
L 3494 4666 
L 4128 4666 
L 4128 1753 
Q 4128 841 3676 375 
Q 3225 -91 2344 -91 
Q 1459 -91 1007 375 
Q 556 841 556 1753 
L 556 4666 
z
" transform="scale(0.015625)"/>
      <path id="DejaVuSans-41" d="M 2188 4044 
L 1331 1722 
L 3047 1722 
L 2188 4044 
z
M 1831 4666 
L 2547 4666 
L 4325 0 
L 3669 0 
L 3244 1197 
L 1141 1197 
L 716 0 
L 50 0 
L 1831 4666 
z
" transform="scale(0.015625)"/>
     </defs>
     <use xlink:href="#DejaVuSans-49"/>
     <use xlink:href="#DejaVuSans-73" transform="translate(29.492188 0)"/>
     <use xlink:href="#DejaVuSans-61" transform="translate(81.591797 0)"/>
     <use xlink:href="#DejaVuSans-61" transform="translate(142.871094 0)"/>
     <use xlink:href="#DejaVuSans-63" transform="translate(204.150391 0)"/>
     <use xlink:href="#DejaVuSans-2d" transform="translate(259.130859 0)"/>
     <use xlink:href="#DejaVuSans-56" transform="translate(289.339844 0)"/>
     <use xlink:href="#DejaVuSans-65" transform="translate(349.998047 0)"/>
     <use xlink:href="#DejaVuSans-6c" transform="translate(411.521484 0)"/>
     <use xlink:href="#DejaVuSans-6f" transform="translate(439.304688 0)"/>
     <use xlink:href="#DejaVuSans-63" transform="translate(500.486328 0)"/>
     <use xlink:href="#DejaVuSans-69" transform="translate(555.466797 0)"/>
     <use xlink:href="#DejaVuSans-74" transform="translate(583.25 0)"/>
     <use xlink:href="#DejaVuSans-79" transform="translate(622.458984 0)"/>
     <use xlink:href="#DejaVuSans-2d" transform="translate(679.888672 0)"/>
     <use xlink:href="#DejaVuSans-46" transform="translate(715.972656 0)"/>
     <use xlink:href="#DejaVuSans-6c" transform="translate(773.492188 0)"/>
     <use xlink:href="#DejaVuSans-61" transform="translate(801.275391 0)"/>
     <use xlink:href="#DejaVuSans-74" transform="translate(862.554688 0)"/>
     <use xlink:href="#DejaVuSans-2d" transform="translate(901.763672 0)"/>
     <use xlink:href="#DejaVuSans-55" transform="translate(937.847656 0)"/>
     <use xlink:href="#DejaVuSans-6e" transform="translate(1011.041016 0)"/>
     <use xlink:href="#DejaVuSans-69" transform="translate(1074.419922 0)"/>
     <use xlink:href="#DejaVuSans-74" transform="translate(1102.203125 0)"/>
     <use xlink:href="#DejaVuSans-72" transform="translate(1141.412109 0)"/>
     <use xlink:href="#DejaVuSans-65" transform="translate(1180.275391 0)"/>
     <use xlink:href="#DejaVuSans-65" transform="translate(1241.798828 0)"/>
     <use xlink:href="#DejaVuSans-2d" transform="translate(1303.322266 0)"/>
     <use xlink:href="#DejaVuSans-41" transform="translate(1337.15625 0)"/>
     <use xlink:href="#DejaVuSans-31" transform="translate(1405.564453 0)"/>
    </g>
   </g>
   <g id="legend_1">
    <g id="patch_7">
     <path d="M 389.205234 356.97 
L 678.525 356.97 
Q 681.825 356.97 681.825 353.67 
L 681.825 306.882187 
Q 681.825 303.582188 678.525 303.582188 
L 389.205234 303.582188 
Q 385.905234 303.582188 385.905234 306.882187 
L 385.905234 353.67 
Q 385.905234 356.97 389.205234 356.97 
z
" style="fill: #ffffff; opacity: 0.8; stroke: #cccccc; stroke-linejoin: miter"/>
    </g>
    <g id="line2d_18">
     <path d="M 392.505234 316.944609 
L 409.005234 316.944609 
L 425.505234 316.944609 
" style="fill: none; stroke: #4c72b0; stroke-width: 1.5; stroke-linecap: round"/>
     <g>
      <use xlink:href="#mf0df021864" x="409.005234" y="316.944609" style="fill: #4c72b0; stroke: #ffffff; stroke-width: 0.75"/>
     </g>
    </g>
    <g id="text_19">
     <!-- SAC with quick fix -->
     <g style="fill: #262626" transform="translate(438.705234 322.719609) scale(0.165 -0.165)">
      <defs>
       <path id="DejaVuSans-53" d="M 3425 4513 
L 3425 3897 
Q 3066 4069 2747 4153 
Q 2428 4238 2131 4238 
Q 1616 4238 1336 4038 
Q 1056 3838 1056 3469 
Q 1056 3159 1242 3001 
Q 1428 2844 1947 2747 
L 2328 2669 
Q 3034 2534 3370 2195 
Q 3706 1856 3706 1288 
Q 3706 609 3251 259 
Q 2797 -91 1919 -91 
Q 1588 -91 1214 -16 
Q 841 59 441 206 
L 441 856 
Q 825 641 1194 531 
Q 1563 422 1919 422 
Q 2459 422 2753 634 
Q 3047 847 3047 1241 
Q 3047 1584 2836 1778 
Q 2625 1972 2144 2069 
L 1759 2144 
Q 1053 2284 737 2584 
Q 422 2884 422 3419 
Q 422 4038 858 4394 
Q 1294 4750 2059 4750 
Q 2388 4750 2728 4690 
Q 3069 4631 3425 4513 
z
" transform="scale(0.015625)"/>
       <path id="DejaVuSans-43" d="M 4122 4306 
L 4122 3641 
Q 3803 3938 3442 4084 
Q 3081 4231 2675 4231 
Q 1875 4231 1450 3742 
Q 1025 3253 1025 2328 
Q 1025 1406 1450 917 
Q 1875 428 2675 428 
Q 3081 428 3442 575 
Q 3803 722 4122 1019 
L 4122 359 
Q 3791 134 3420 21 
Q 3050 -91 2638 -91 
Q 1578 -91 968 557 
Q 359 1206 359 2328 
Q 359 3453 968 4101 
Q 1578 4750 2638 4750 
Q 3056 4750 3426 4639 
Q 3797 4528 4122 4306 
z
" transform="scale(0.015625)"/>
       <path id="DejaVuSans-77" d="M 269 3500 
L 844 3500 
L 1563 769 
L 2278 3500 
L 2956 3500 
L 3675 769 
L 4391 3500 
L 4966 3500 
L 4050 0 
L 3372 0 
L 2619 2869 
L 1863 0 
L 1184 0 
L 269 3500 
z
" transform="scale(0.015625)"/>
       <path id="DejaVuSans-68" d="M 3513 2113 
L 3513 0 
L 2938 0 
L 2938 2094 
Q 2938 2591 2744 2837 
Q 2550 3084 2163 3084 
Q 1697 3084 1428 2787 
Q 1159 2491 1159 1978 
L 1159 0 
L 581 0 
L 581 4863 
L 1159 4863 
L 1159 2956 
Q 1366 3272 1645 3428 
Q 1925 3584 2291 3584 
Q 2894 3584 3203 3211 
Q 3513 2838 3513 2113 
z
" transform="scale(0.015625)"/>
       <path id="DejaVuSans-71" d="M 947 1747 
Q 947 1113 1208 752 
Q 1469 391 1925 391 
Q 2381 391 2643 752 
Q 2906 1113 2906 1747 
Q 2906 2381 2643 2742 
Q 2381 3103 1925 3103 
Q 1469 3103 1208 2742 
Q 947 2381 947 1747 
z
M 2906 525 
Q 2725 213 2448 61 
Q 2172 -91 1784 -91 
Q 1150 -91 751 415 
Q 353 922 353 1747 
Q 353 2572 751 3078 
Q 1150 3584 1784 3584 
Q 2172 3584 2448 3432 
Q 2725 3281 2906 2969 
L 2906 3500 
L 3481 3500 
L 3481 -1331 
L 2906 -1331 
L 2906 525 
z
" transform="scale(0.015625)"/>
       <path id="DejaVuSans-6b" d="M 581 4863 
L 1159 4863 
L 1159 1991 
L 2875 3500 
L 3609 3500 
L 1753 1863 
L 3688 0 
L 2938 0 
L 1159 1709 
L 1159 0 
L 581 0 
L 581 4863 
z
" transform="scale(0.015625)"/>
       <path id="DejaVuSans-66" d="M 2375 4863 
L 2375 4384 
L 1825 4384 
Q 1516 4384 1395 4259 
Q 1275 4134 1275 3809 
L 1275 3500 
L 2222 3500 
L 2222 3053 
L 1275 3053 
L 1275 0 
L 697 0 
L 697 3053 
L 147 3053 
L 147 3500 
L 697 3500 
L 697 3744 
Q 697 4328 969 4595 
Q 1241 4863 1831 4863 
L 2375 4863 
z
" transform="scale(0.015625)"/>
       <path id="DejaVuSans-78" d="M 3513 3500 
L 2247 1797 
L 3578 0 
L 2900 0 
L 1881 1375 
L 863 0 
L 184 0 
L 1544 1831 
L 300 3500 
L 978 3500 
L 1906 2253 
L 2834 3500 
L 3513 3500 
z
" transform="scale(0.015625)"/>
      </defs>
      <use xlink:href="#DejaVuSans-53"/>
      <use xlink:href="#DejaVuSans-41" transform="translate(65.351562 0)"/>
      <use xlink:href="#DejaVuSans-43" transform="translate(132.009766 0)"/>
      <use xlink:href="#DejaVuSans-20" transform="translate(201.833984 0)"/>
      <use xlink:href="#DejaVuSans-77" transform="translate(233.621094 0)"/>
      <use xlink:href="#DejaVuSans-69" transform="translate(315.408203 0)"/>
      <use xlink:href="#DejaVuSans-74" transform="translate(343.191406 0)"/>
      <use xlink:href="#DejaVuSans-68" transform="translate(382.400391 0)"/>
      <use xlink:href="#DejaVuSans-20" transform="translate(445.779297 0)"/>
      <use xlink:href="#DejaVuSans-71" transform="translate(477.566406 0)"/>
      <use xlink:href="#DejaVuSans-75" transform="translate(541.042969 0)"/>
      <use xlink:href="#DejaVuSans-69" transform="translate(604.421875 0)"/>
      <use xlink:href="#DejaVuSans-63" transform="translate(632.205078 0)"/>
      <use xlink:href="#DejaVuSans-6b" transform="translate(687.185547 0)"/>
      <use xlink:href="#DejaVuSans-20" transform="translate(745.095703 0)"/>
      <use xlink:href="#DejaVuSans-66" transform="translate(776.882812 0)"/>
      <use xlink:href="#DejaVuSans-69" transform="translate(812.087891 0)"/>
      <use xlink:href="#DejaVuSans-78" transform="translate(839.871094 0)"/>
     </g>
    </g>
    <g id="line2d_19">
     <path d="M 392.505234 341.163516 
L 409.005234 341.163516 
L 425.505234 341.163516 
" style="fill: none; stroke: #dd8452; stroke-width: 1.5; stroke-linecap: round"/>
     <g>
      <use xlink:href="#m83ae3a24d9" x="409.005234" y="341.163516" style="fill: #dd8452; stroke: #ffffff; stroke-width: 0.75"/>
     </g>
    </g>
    <g id="text_20">
     <!-- SAC tuned for speed (part II) -->
     <g style="fill: #262626" transform="translate(438.705234 346.938516) scale(0.165 -0.165)">
      <use xlink:href="#DejaVuSans-53"/>
      <use xlink:href="#DejaVuSans-41" transform="translate(65.351562 0)"/>
      <use xlink:href="#DejaVuSans-43" transform="translate(132.009766 0)"/>
      <use xlink:href="#DejaVuSans-20" transform="translate(201.833984 0)"/>
      <use xlink:href="#DejaVuSans-74" transform="translate(233.621094 0)"/>
      <use xlink:href="#DejaVuSans-75" transform="translate(272.830078 0)"/>
      <use xlink:href="#DejaVuSans-6e" transform="translate(336.208984 0)"/>
      <use xlink:href="#DejaVuSans-65" transform="translate(399.587891 0)"/>
      <use xlink:href="#DejaVuSans-64" transform="translate(461.111328 0)"/>
      <use xlink:href="#DejaVuSans-20" transform="translate(524.587891 0)"/>
      <use xlink:href="#DejaVuSans-66" transform="translate(556.375 0)"/>
      <use xlink:href="#DejaVuSans-6f" transform="translate(591.580078 0)"/>
      <use xlink:href="#DejaVuSans-72" transform="translate(652.761719 0)"/>
      <use xlink:href="#DejaVuSans-20" transform="translate(693.875 0)"/>
      <use xlink:href="#DejaVuSans-73" transform="translate(725.662109 0)"/>
      <use xlink:href="#DejaVuSans-70" transform="translate(777.761719 0)"/>
      <use xlink:href="#DejaVuSans-65" transform="translate(841.238281 0)"/>
      <use xlink:href="#DejaVuSans-65" transform="translate(902.761719 0)"/>
      <use xlink:href="#DejaVuSans-64" transform="translate(964.285156 0)"/>
      <use xlink:href="#DejaVuSans-20" transform="translate(1027.761719 0)"/>
      <use xlink:href="#DejaVuSans-28" transform="translate(1059.548828 0)"/>
      <use xlink:href="#DejaVuSans-70" transform="translate(1098.5625 0)"/>
      <use xlink:href="#DejaVuSans-61" transform="translate(1162.039062 0)"/>
      <use xlink:href="#DejaVuSans-72" transform="translate(1223.318359 0)"/>
      <use xlink:href="#DejaVuSans-74" transform="translate(1264.431641 0)"/>
      <use xlink:href="#DejaVuSans-20" transform="translate(1303.640625 0)"/>
      <use xlink:href="#DejaVuSans-49" transform="translate(1335.427734 0)"/>
      <use xlink:href="#DejaVuSans-49" transform="translate(1364.919922 0)"/>
      <use xlink:href="#DejaVuSans-29" transform="translate(1394.412109 0)"/>
     </g>
    </g>
   </g>
  </g>
 </g>
 <defs>
  <clipPath id="p3df017b268">
   <rect x="71.28" y="39.12" width="618.795" height="326.1"/>
  </clipPath>
 </defs>
</svg>
