<?xml version="1.0" encoding="utf-8" standalone="no"?>
<!DOCTYPE svg PUBLIC "-//W3C//DTD SVG 1.1//EN"
  "http://www.w3.org/Graphics/SVG/1.1/DTD/svg11.dtd">
<svg xmlns:xlink="http://www.w3.org/1999/xlink" width="720pt" height="432pt" viewBox="0 0 720 432" xmlns="http://www.w3.org/2000/svg" version="1.1">
 <metadata>
  <rdf:RDF xmlns:dc="http://purl.org/dc/elements/1.1/" xmlns:cc="http://creativecommons.org/ns#" xmlns:rdf="http://www.w3.org/1999/02/22-rdf-syntax-ns#">
   <cc:Work>
    <dc:type rdf:resource="http://purl.org/dc/dcmitype/StillImage"/>
    <dc:date>2025-03-07T13:16:06.243423</dc:date>
    <dc:format>image/svg+xml</dc:format>
    <dc:creator>
     <cc:Agent>
      <dc:title>Matplotlib v3.10.1, https://matplotlib.org/</dc:title>
     </cc:Agent>
    </dc:creator>
   </cc:Work>
  </rdf:RDF>
 </metadata>
 <defs>
  <style type="text/css">*{stroke-linejoin: round; stroke-linecap: butt}</style>
 </defs>
 <g id="figure_1">
  <g id="patch_1">
   <path d="M 0 432 
L 720 432 
L 720 0 
L 0 0 
z
" style="fill: #ffffff"/>
  </g>
  <g id="axes_1">
   <g id="patch_2">
    <path d="M 74.52 365.22 
L 690.075 365.22 
L 690.075 39.12 
L 74.52 39.12 
z
" style="fill: #ffffff"/>
   </g>
   <g id="matplotlib.axis_1">
    <g id="xtick_1">
     <g id="line2d_1">
      <path d="M 74.52 365.22 
L 74.52 39.12 
" clip-path="url(#pcdc1763943)" style="fill: none; stroke: #cccccc; stroke-linecap: round"/>
     </g>
     <g id="text_1">
      <!-- 0 -->
      <g style="fill: #262626" transform="translate(69.270938 387.257422) scale(0.165 -0.165)">
       <defs>
        <path id="DejaVuSans-30" d="M 2034 4250 
Q 1547 4250 1301 3770 
Q 1056 3291 1056 2328 
Q 1056 1369 1301 889 
Q 1547 409 2034 409 
Q 2525 409 2770 889 
Q 3016 1369 3016 2328 
Q 3016 3291 2770 3770 
Q 2525 4250 2034 4250 
z
M 2034 4750 
Q 2819 4750 3233 4129 
Q 3647 3509 3647 2328 
Q 3647 1150 3233 529 
Q 2819 -91 2034 -91 
Q 1250 -91 836 529 
Q 422 1150 422 2328 
Q 422 3509 836 4129 
Q 1250 4750 2034 4750 
z
" transform="scale(0.015625)"/>
       </defs>
       <use xlink:href="#DejaVuSans-30"/>
      </g>
     </g>
    </g>
    <g id="xtick_2">
     <g id="line2d_2">
      <path d="M 177.1125 365.22 
L 177.1125 39.12 
" clip-path="url(#pcdc1763943)" style="fill: none; stroke: #cccccc; stroke-linecap: round"/>
     </g>
     <g id="text_2">
      <!-- 2 -->
      <g style="fill: #262626" transform="translate(171.863438 387.257422) scale(0.165 -0.165)">
       <defs>
        <path id="DejaVuSans-32" d="M 1228 531 
L 3431 531 
L 3431 0 
L 469 0 
L 469 531 
Q 828 903 1448 1529 
Q 2069 2156 2228 2338 
Q 2531 2678 2651 2914 
Q 2772 3150 2772 3378 
Q 2772 3750 2511 3984 
Q 2250 4219 1831 4219 
Q 1534 4219 1204 4116 
Q 875 4013 500 3803 
L 500 4441 
Q 881 4594 1212 4672 
Q 1544 4750 1819 4750 
Q 2544 4750 2975 4387 
Q 3406 4025 3406 3419 
Q 3406 3131 3298 2873 
Q 3191 2616 2906 2266 
Q 2828 2175 2409 1742 
Q 1991 1309 1228 531 
z
" transform="scale(0.015625)"/>
       </defs>
       <use xlink:href="#DejaVuSans-32"/>
      </g>
     </g>
    </g>
    <g id="xtick_3">
     <g id="line2d_3">
      <path d="M 279.705 365.22 
L 279.705 39.12 
" clip-path="url(#pcdc1763943)" style="fill: none; stroke: #cccccc; stroke-linecap: round"/>
     </g>
     <g id="text_3">
      <!-- 4 -->
      <g style="fill: #262626" transform="translate(274.455938 387.257422) scale(0.165 -0.165)">
       <defs>
        <path id="DejaVuSans-34" d="M 2419 4116 
L 825 1625 
L 2419 1625 
L 2419 4116 
z
M 2253 4666 
L 3047 4666 
L 3047 1625 
L 3713 1625 
L 3713 1100 
L 3047 1100 
L 3047 0 
L 2419 0 
L 2419 1100 
L 313 1100 
L 313 1709 
L 2253 4666 
z
" transform="scale(0.015625)"/>
       </defs>
       <use xlink:href="#DejaVuSans-34"/>
      </g>
     </g>
    </g>
    <g id="xtick_4">
     <g id="line2d_4">
      <path d="M 382.2975 365.22 
L 382.2975 39.12 
" clip-path="url(#pcdc1763943)" style="fill: none; stroke: #cccccc; stroke-linecap: round"/>
     </g>
     <g id="text_4">
      <!-- 6 -->
      <g style="fill: #262626" transform="translate(377.048438 387.257422) scale(0.165 -0.165)">
       <defs>
        <path id="DejaVuSans-36" d="M 2113 2584 
Q 1688 2584 1439 2293 
Q 1191 2003 1191 1497 
Q 1191 994 1439 701 
Q 1688 409 2113 409 
Q 2538 409 2786 701 
Q 3034 994 3034 1497 
Q 3034 2003 2786 2293 
Q 2538 2584 2113 2584 
z
M 3366 4563 
L 3366 3988 
Q 3128 4100 2886 4159 
Q 2644 4219 2406 4219 
Q 1781 4219 1451 3797 
Q 1122 3375 1075 2522 
Q 1259 2794 1537 2939 
Q 1816 3084 2150 3084 
Q 2853 3084 3261 2657 
Q 3669 2231 3669 1497 
Q 3669 778 3244 343 
Q 2819 -91 2113 -91 
Q 1303 -91 875 529 
Q 447 1150 447 2328 
Q 447 3434 972 4092 
Q 1497 4750 2381 4750 
Q 2619 4750 2861 4703 
Q 3103 4656 3366 4563 
z
" transform="scale(0.015625)"/>
       </defs>
       <use xlink:href="#DejaVuSans-36"/>
      </g>
     </g>
    </g>
    <g id="xtick_5">
     <g id="line2d_5">
      <path d="M 484.89 365.22 
L 484.89 39.12 
" clip-path="url(#pcdc1763943)" style="fill: none; stroke: #cccccc; stroke-linecap: round"/>
     </g>
     <g id="text_5">
      <!-- 8 -->
      <g style="fill: #262626" transform="translate(479.640938 387.257422) scale(0.165 -0.165)">
       <defs>
        <path id="DejaVuSans-38" d="M 2034 2216 
Q 1584 2216 1326 1975 
Q 1069 1734 1069 1313 
Q 1069 891 1326 650 
Q 1584 409 2034 409 
Q 2484 409 2743 651 
Q 3003 894 3003 1313 
Q 3003 1734 2745 1975 
Q 2488 2216 2034 2216 
z
M 1403 2484 
Q 997 2584 770 2862 
Q 544 3141 544 3541 
Q 544 4100 942 4425 
Q 1341 4750 2034 4750 
Q 2731 4750 3128 4425 
Q 3525 4100 3525 3541 
Q 3525 3141 3298 2862 
Q 3072 2584 2669 2484 
Q 3125 2378 3379 2068 
Q 3634 1759 3634 1313 
Q 3634 634 3220 271 
Q 2806 -91 2034 -91 
Q 1263 -91 848 271 
Q 434 634 434 1313 
Q 434 1759 690 2068 
Q 947 2378 1403 2484 
z
M 1172 3481 
Q 1172 3119 1398 2916 
Q 1625 2713 2034 2713 
Q 2441 2713 2670 2916 
Q 2900 3119 2900 3481 
Q 2900 3844 2670 4047 
Q 2441 4250 2034 4250 
Q 1625 4250 1398 4047 
Q 1172 3844 1172 3481 
z
" transform="scale(0.015625)"/>
       </defs>
       <use xlink:href="#DejaVuSans-38"/>
      </g>
     </g>
    </g>
    <g id="xtick_6">
     <g id="line2d_6">
      <path d="M 587.4825 365.22 
L 587.4825 39.12 
" clip-path="url(#pcdc1763943)" style="fill: none; stroke: #cccccc; stroke-linecap: round"/>
     </g>
     <g id="text_6">
      <!-- 10 -->
      <g style="fill: #262626" transform="translate(576.984375 387.257422) scale(0.165 -0.165)">
       <defs>
        <path id="DejaVuSans-31" d="M 794 531 
L 1825 531 
L 1825 4091 
L 703 3866 
L 703 4441 
L 1819 4666 
L 2450 4666 
L 2450 531 
L 3481 531 
L 3481 0 
L 794 0 
L 794 531 
z
" transform="scale(0.015625)"/>
       </defs>
       <use xlink:href="#DejaVuSans-31"/>
       <use xlink:href="#DejaVuSans-30" transform="translate(63.623047 0)"/>
      </g>
     </g>
    </g>
    <g id="xtick_7">
     <g id="line2d_7">
      <path d="M 690.075 365.22 
L 690.075 39.12 
" clip-path="url(#pcdc1763943)" style="fill: none; stroke: #cccccc; stroke-linecap: round"/>
     </g>
     <g id="text_7">
      <!-- 12 -->
      <g style="fill: #262626" transform="translate(679.576875 387.257422) scale(0.165 -0.165)">
       <use xlink:href="#DejaVuSans-31"/>
       <use xlink:href="#DejaVuSans-32" transform="translate(63.623047 0)"/>
      </g>
     </g>
    </g>
    <g id="text_8">
     <!-- Time (minutes) -->
     <g style="fill: #262626" transform="translate(313.965 408.366094) scale(0.18 -0.18)">
      <defs>
       <path id="DejaVuSans-54" d="M -19 4666 
L 3928 4666 
L 3928 4134 
L 2272 4134 
L 2272 0 
L 1638 0 
L 1638 4134 
L -19 4134 
L -19 4666 
z
" transform="scale(0.015625)"/>
       <path id="DejaVuSans-69" d="M 603 3500 
L 1178 3500 
L 1178 0 
L 603 0 
L 603 3500 
z
M 603 4863 
L 1178 4863 
L 1178 4134 
L 603 4134 
L 603 4863 
z
" transform="scale(0.015625)"/>
       <path id="DejaVuSans-6d" d="M 3328 2828 
Q 3544 3216 3844 3400 
Q 4144 3584 4550 3584 
Q 5097 3584 5394 3201 
Q 5691 2819 5691 2113 
L 5691 0 
L 5113 0 
L 5113 2094 
Q 5113 2597 4934 2840 
Q 4756 3084 4391 3084 
Q 3944 3084 3684 2787 
Q 3425 2491 3425 1978 
L 3425 0 
L 2847 0 
L 2847 2094 
Q 2847 2600 2669 2842 
Q 2491 3084 2119 3084 
Q 1678 3084 1418 2786 
Q 1159 2488 1159 1978 
L 1159 0 
L 581 0 
L 581 3500 
L 1159 3500 
L 1159 2956 
Q 1356 3278 1631 3431 
Q 1906 3584 2284 3584 
Q 2666 3584 2933 3390 
Q 3200 3197 3328 2828 
z
" transform="scale(0.015625)"/>
       <path id="DejaVuSans-65" d="M 3597 1894 
L 3597 1613 
L 953 1613 
Q 991 1019 1311 708 
Q 1631 397 2203 397 
Q 2534 397 2845 478 
Q 3156 559 3463 722 
L 3463 178 
Q 3153 47 2828 -22 
Q 2503 -91 2169 -91 
Q 1331 -91 842 396 
Q 353 884 353 1716 
Q 353 2575 817 3079 
Q 1281 3584 2069 3584 
Q 2775 3584 3186 3129 
Q 3597 2675 3597 1894 
z
M 3022 2063 
Q 3016 2534 2758 2815 
Q 2500 3097 2075 3097 
Q 1594 3097 1305 2825 
Q 1016 2553 972 2059 
L 3022 2063 
z
" transform="scale(0.015625)"/>
       <path id="DejaVuSans-20" transform="scale(0.015625)"/>
       <path id="DejaVuSans-28" d="M 1984 4856 
Q 1566 4138 1362 3434 
Q 1159 2731 1159 2009 
Q 1159 1288 1364 580 
Q 1569 -128 1984 -844 
L 1484 -844 
Q 1016 -109 783 600 
Q 550 1309 550 2009 
Q 550 2706 781 3412 
Q 1013 4119 1484 4856 
L 1984 4856 
z
" transform="scale(0.015625)"/>
       <path id="DejaVuSans-6e" d="M 3513 2113 
L 3513 0 
L 2938 0 
L 2938 2094 
Q 2938 2591 2744 2837 
Q 2550 3084 2163 3084 
Q 1697 3084 1428 2787 
Q 1159 2491 1159 1978 
L 1159 0 
L 581 0 
L 581 3500 
L 1159 3500 
L 1159 2956 
Q 1366 3272 1645 3428 
Q 1925 3584 2291 3584 
Q 2894 3584 3203 3211 
Q 3513 2838 3513 2113 
z
" transform="scale(0.015625)"/>
       <path id="DejaVuSans-75" d="M 544 1381 
L 544 3500 
L 1119 3500 
L 1119 1403 
Q 1119 906 1312 657 
Q 1506 409 1894 409 
Q 2359 409 2629 706 
Q 2900 1003 2900 1516 
L 2900 3500 
L 3475 3500 
L 3475 0 
L 2900 0 
L 2900 538 
Q 2691 219 2414 64 
Q 2138 -91 1772 -91 
Q 1169 -91 856 284 
Q 544 659 544 1381 
z
M 1991 3584 
L 1991 3584 
z
" transform="scale(0.015625)"/>
       <path id="DejaVuSans-74" d="M 1172 4494 
L 1172 3500 
L 2356 3500 
L 2356 3053 
L 1172 3053 
L 1172 1153 
Q 1172 725 1289 603 
Q 1406 481 1766 481 
L 2356 481 
L 2356 0 
L 1766 0 
Q 1100 0 847 248 
Q 594 497 594 1153 
L 594 3053 
L 172 3053 
L 172 3500 
L 594 3500 
L 594 4494 
L 1172 4494 
z
" transform="scale(0.015625)"/>
       <path id="DejaVuSans-73" d="M 2834 3397 
L 2834 2853 
Q 2591 2978 2328 3040 
Q 2066 3103 1784 3103 
Q 1356 3103 1142 2972 
Q 928 2841 928 2578 
Q 928 2378 1081 2264 
Q 1234 2150 1697 2047 
L 1894 2003 
Q 2506 1872 2764 1633 
Q 3022 1394 3022 966 
Q 3022 478 2636 193 
Q 2250 -91 1575 -91 
Q 1294 -91 989 -36 
Q 684 19 347 128 
L 347 722 
Q 666 556 975 473 
Q 1284 391 1588 391 
Q 1994 391 2212 530 
Q 2431 669 2431 922 
Q 2431 1156 2273 1281 
Q 2116 1406 1581 1522 
L 1381 1569 
Q 847 1681 609 1914 
Q 372 2147 372 2553 
Q 372 3047 722 3315 
Q 1072 3584 1716 3584 
Q 2034 3584 2315 3537 
Q 2597 3491 2834 3397 
z
" transform="scale(0.015625)"/>
       <path id="DejaVuSans-29" d="M 513 4856 
L 1013 4856 
Q 1481 4119 1714 3412 
Q 1947 2706 1947 2009 
Q 1947 1309 1714 600 
Q 1481 -109 1013 -844 
L 513 -844 
Q 928 -128 1133 580 
Q 1338 1288 1338 2009 
Q 1338 2731 1133 3434 
Q 928 4138 513 4856 
z
" transform="scale(0.015625)"/>
      </defs>
      <use xlink:href="#DejaVuSans-54"/>
      <use xlink:href="#DejaVuSans-69" transform="translate(57.958984 0)"/>
      <use xlink:href="#DejaVuSans-6d" transform="translate(85.742188 0)"/>
      <use xlink:href="#DejaVuSans-65" transform="translate(183.154297 0)"/>
      <use xlink:href="#DejaVuSans-20" transform="translate(244.677734 0)"/>
      <use xlink:href="#DejaVuSans-28" transform="translate(276.464844 0)"/>
      <use xlink:href="#DejaVuSans-6d" transform="translate(315.478516 0)"/>
      <use xlink:href="#DejaVuSans-69" transform="translate(412.890625 0)"/>
      <use xlink:href="#DejaVuSans-6e" transform="translate(440.673828 0)"/>
      <use xlink:href="#DejaVuSans-75" transform="translate(504.052734 0)"/>
      <use xlink:href="#DejaVuSans-74" transform="translate(567.431641 0)"/>
      <use xlink:href="#DejaVuSans-65" transform="translate(606.640625 0)"/>
      <use xlink:href="#DejaVuSans-73" transform="translate(668.164062 0)"/>
      <use xlink:href="#DejaVuSans-29" transform="translate(720.263672 0)"/>
     </g>
    </g>
   </g>
   <g id="matplotlib.axis_2">
    <g id="ytick_1">
     <g id="line2d_8">
      <path d="M 74.52 361.950295 
L 690.075 361.950295 
" clip-path="url(#pcdc1763943)" style="fill: none; stroke: #cccccc; stroke-linecap: round"/>
     </g>
     <g id="text_9">
      <!-- −5 -->
      <g style="fill: #262626" transform="translate(40.695391 368.219006) scale(0.165 -0.165)">
       <defs>
        <path id="DejaVuSans-2212" d="M 678 2272 
L 4684 2272 
L 4684 1741 
L 678 1741 
L 678 2272 
z
" transform="scale(0.015625)"/>
        <path id="DejaVuSans-35" d="M 691 4666 
L 3169 4666 
L 3169 4134 
L 1269 4134 
L 1269 2991 
Q 1406 3038 1543 3061 
Q 1681 3084 1819 3084 
Q 2600 3084 3056 2656 
Q 3513 2228 3513 1497 
Q 3513 744 3044 326 
Q 2575 -91 1722 -91 
Q 1428 -91 1123 -41 
Q 819 9 494 109 
L 494 744 
Q 775 591 1075 516 
Q 1375 441 1709 441 
Q 2250 441 2565 725 
Q 2881 1009 2881 1497 
Q 2881 1984 2565 2268 
Q 2250 2553 1709 2553 
Q 1456 2553 1204 2497 
Q 953 2441 691 2322 
L 691 4666 
z
" transform="scale(0.015625)"/>
       </defs>
       <use xlink:href="#DejaVuSans-2212"/>
       <use xlink:href="#DejaVuSans-35" transform="translate(83.789062 0)"/>
      </g>
     </g>
    </g>
    <g id="ytick_2">
     <g id="line2d_9">
      <path d="M 74.52 322.890323 
L 690.075 322.890323 
" clip-path="url(#pcdc1763943)" style="fill: none; stroke: #cccccc; stroke-linecap: round"/>
     </g>
     <g id="text_10">
      <!-- 0 -->
      <g style="fill: #262626" transform="translate(54.521875 329.159034) scale(0.165 -0.165)">
       <use xlink:href="#DejaVuSans-30"/>
      </g>
     </g>
    </g>
    <g id="ytick_3">
     <g id="line2d_10">
      <path d="M 74.52 283.830352 
L 690.075 283.830352 
" clip-path="url(#pcdc1763943)" style="fill: none; stroke: #cccccc; stroke-linecap: round"/>
     </g>
     <g id="text_11">
      <!-- 5 -->
      <g style="fill: #262626" transform="translate(54.521875 290.099063) scale(0.165 -0.165)">
       <use xlink:href="#DejaVuSans-35"/>
      </g>
     </g>
    </g>
    <g id="ytick_4">
     <g id="line2d_11">
      <path d="M 74.52 244.77038 
L 690.075 244.77038 
" clip-path="url(#pcdc1763943)" style="fill: none; stroke: #cccccc; stroke-linecap: round"/>
     </g>
     <g id="text_12">
      <!-- 10 -->
      <g style="fill: #262626" transform="translate(44.02375 251.039091) scale(0.165 -0.165)">
       <use xlink:href="#DejaVuSans-31"/>
       <use xlink:href="#DejaVuSans-30" transform="translate(63.623047 0)"/>
      </g>
     </g>
    </g>
    <g id="ytick_5">
     <g id="line2d_12">
      <path d="M 74.52 205.710409 
L 690.075 205.710409 
" clip-path="url(#pcdc1763943)" style="fill: none; stroke: #cccccc; stroke-linecap: round"/>
     </g>
     <g id="text_13">
      <!-- 15 -->
      <g style="fill: #262626" transform="translate(44.02375 211.97912) scale(0.165 -0.165)">
       <use xlink:href="#DejaVuSans-31"/>
       <use xlink:href="#DejaVuSans-35" transform="translate(63.623047 0)"/>
      </g>
     </g>
    </g>
    <g id="ytick_6">
     <g id="line2d_13">
      <path d="M 74.52 166.650437 
L 690.075 166.650437 
" clip-path="url(#pcdc1763943)" style="fill: none; stroke: #cccccc; stroke-linecap: round"/>
     </g>
     <g id="text_14">
      <!-- 20 -->
      <g style="fill: #262626" transform="translate(44.02375 172.919148) scale(0.165 -0.165)">
       <use xlink:href="#DejaVuSans-32"/>
       <use xlink:href="#DejaVuSans-30" transform="translate(63.623047 0)"/>
      </g>
     </g>
    </g>
    <g id="ytick_7">
     <g id="line2d_14">
      <path d="M 74.52 127.590466 
L 690.075 127.590466 
" clip-path="url(#pcdc1763943)" style="fill: none; stroke: #cccccc; stroke-linecap: round"/>
     </g>
     <g id="text_15">
      <!-- 25 -->
      <g style="fill: #262626" transform="translate(44.02375 133.859177) scale(0.165 -0.165)">
       <use xlink:href="#DejaVuSans-32"/>
       <use xlink:href="#DejaVuSans-35" transform="translate(63.623047 0)"/>
      </g>
     </g>
    </g>
    <g id="ytick_8">
     <g id="line2d_15">
      <path d="M 74.52 88.530494 
L 690.075 88.530494 
" clip-path="url(#pcdc1763943)" style="fill: none; stroke: #cccccc; stroke-linecap: round"/>
     </g>
     <g id="text_16">
      <!-- 30 -->
      <g style="fill: #262626" transform="translate(44.02375 94.799205) scale(0.165 -0.165)">
       <defs>
        <path id="DejaVuSans-33" d="M 2597 2516 
Q 3050 2419 3304 2112 
Q 3559 1806 3559 1356 
Q 3559 666 3084 287 
Q 2609 -91 1734 -91 
Q 1441 -91 1130 -33 
Q 819 25 488 141 
L 488 750 
Q 750 597 1062 519 
Q 1375 441 1716 441 
Q 2309 441 2620 675 
Q 2931 909 2931 1356 
Q 2931 1769 2642 2001 
Q 2353 2234 1838 2234 
L 1294 2234 
L 1294 2753 
L 1863 2753 
Q 2328 2753 2575 2939 
Q 2822 3125 2822 3475 
Q 2822 3834 2567 4026 
Q 2313 4219 1838 4219 
Q 1578 4219 1281 4162 
Q 984 4106 628 3988 
L 628 4550 
Q 988 4650 1302 4700 
Q 1616 4750 1894 4750 
Q 2613 4750 3031 4423 
Q 3450 4097 3450 3541 
Q 3450 3153 3228 2886 
Q 3006 2619 2597 2516 
z
" transform="scale(0.015625)"/>
       </defs>
       <use xlink:href="#DejaVuSans-33"/>
       <use xlink:href="#DejaVuSans-30" transform="translate(63.623047 0)"/>
      </g>
     </g>
    </g>
    <g id="ytick_9">
     <g id="line2d_16">
      <path d="M 74.52 49.470523 
L 690.075 49.470523 
" clip-path="url(#pcdc1763943)" style="fill: none; stroke: #cccccc; stroke-linecap: round"/>
     </g>
     <g id="text_17">
      <!-- 35 -->
      <g style="fill: #262626" transform="translate(44.02375 55.739234) scale(0.165 -0.165)">
       <use xlink:href="#DejaVuSans-33"/>
       <use xlink:href="#DejaVuSans-35" transform="translate(63.623047 0)"/>
      </g>
     </g>
    </g>
    <g id="text_18">
     <!-- Mean Episode Return -->
     <g style="fill: #262626" transform="translate(32.951953 297.624844) rotate(-90) scale(0.18 -0.18)">
      <defs>
       <path id="DejaVuSans-4d" d="M 628 4666 
L 1569 4666 
L 2759 1491 
L 3956 4666 
L 4897 4666 
L 4897 0 
L 4281 0 
L 4281 4097 
L 3078 897 
L 2444 897 
L 1241 4097 
L 1241 0 
L 628 0 
L 628 4666 
z
" transform="scale(0.015625)"/>
       <path id="DejaVuSans-61" d="M 2194 1759 
Q 1497 1759 1228 1600 
Q 959 1441 959 1056 
Q 959 750 1161 570 
Q 1363 391 1709 391 
Q 2188 391 2477 730 
Q 2766 1069 2766 1631 
L 2766 1759 
L 2194 1759 
z
M 3341 1997 
L 3341 0 
L 2766 0 
L 2766 531 
Q 2569 213 2275 61 
Q 1981 -91 1556 -91 
Q 1019 -91 701 211 
Q 384 513 384 1019 
Q 384 1609 779 1909 
Q 1175 2209 1959 2209 
L 2766 2209 
L 2766 2266 
Q 2766 2663 2505 2880 
Q 2244 3097 1772 3097 
Q 1472 3097 1187 3025 
Q 903 2953 641 2809 
L 641 3341 
Q 956 3463 1253 3523 
Q 1550 3584 1831 3584 
Q 2591 3584 2966 3190 
Q 3341 2797 3341 1997 
z
" transform="scale(0.015625)"/>
       <path id="DejaVuSans-45" d="M 628 4666 
L 3578 4666 
L 3578 4134 
L 1259 4134 
L 1259 2753 
L 3481 2753 
L 3481 2222 
L 1259 2222 
L 1259 531 
L 3634 531 
L 3634 0 
L 628 0 
L 628 4666 
z
" transform="scale(0.015625)"/>
       <path id="DejaVuSans-70" d="M 1159 525 
L 1159 -1331 
L 581 -1331 
L 581 3500 
L 1159 3500 
L 1159 2969 
Q 1341 3281 1617 3432 
Q 1894 3584 2278 3584 
Q 2916 3584 3314 3078 
Q 3713 2572 3713 1747 
Q 3713 922 3314 415 
Q 2916 -91 2278 -91 
Q 1894 -91 1617 61 
Q 1341 213 1159 525 
z
M 3116 1747 
Q 3116 2381 2855 2742 
Q 2594 3103 2138 3103 
Q 1681 3103 1420 2742 
Q 1159 2381 1159 1747 
Q 1159 1113 1420 752 
Q 1681 391 2138 391 
Q 2594 391 2855 752 
Q 3116 1113 3116 1747 
z
" transform="scale(0.015625)"/>
       <path id="DejaVuSans-6f" d="M 1959 3097 
Q 1497 3097 1228 2736 
Q 959 2375 959 1747 
Q 959 1119 1226 758 
Q 1494 397 1959 397 
Q 2419 397 2687 759 
Q 2956 1122 2956 1747 
Q 2956 2369 2687 2733 
Q 2419 3097 1959 3097 
z
M 1959 3584 
Q 2709 3584 3137 3096 
Q 3566 2609 3566 1747 
Q 3566 888 3137 398 
Q 2709 -91 1959 -91 
Q 1206 -91 779 398 
Q 353 888 353 1747 
Q 353 2609 779 3096 
Q 1206 3584 1959 3584 
z
" transform="scale(0.015625)"/>
       <path id="DejaVuSans-64" d="M 2906 2969 
L 2906 4863 
L 3481 4863 
L 3481 0 
L 2906 0 
L 2906 525 
Q 2725 213 2448 61 
Q 2172 -91 1784 -91 
Q 1150 -91 751 415 
Q 353 922 353 1747 
Q 353 2572 751 3078 
Q 1150 3584 1784 3584 
Q 2172 3584 2448 3432 
Q 2725 3281 2906 2969 
z
M 947 1747 
Q 947 1113 1208 752 
Q 1469 391 1925 391 
Q 2381 391 2643 752 
Q 2906 1113 2906 1747 
Q 2906 2381 2643 2742 
Q 2381 3103 1925 3103 
Q 1469 3103 1208 2742 
Q 947 2381 947 1747 
z
" transform="scale(0.015625)"/>
       <path id="DejaVuSans-52" d="M 2841 2188 
Q 3044 2119 3236 1894 
Q 3428 1669 3622 1275 
L 4263 0 
L 3584 0 
L 2988 1197 
Q 2756 1666 2539 1819 
Q 2322 1972 1947 1972 
L 1259 1972 
L 1259 0 
L 628 0 
L 628 4666 
L 2053 4666 
Q 2853 4666 3247 4331 
Q 3641 3997 3641 3322 
Q 3641 2881 3436 2590 
Q 3231 2300 2841 2188 
z
M 1259 4147 
L 1259 2491 
L 2053 2491 
Q 2509 2491 2742 2702 
Q 2975 2913 2975 3322 
Q 2975 3731 2742 3939 
Q 2509 4147 2053 4147 
L 1259 4147 
z
" transform="scale(0.015625)"/>
       <path id="DejaVuSans-72" d="M 2631 2963 
Q 2534 3019 2420 3045 
Q 2306 3072 2169 3072 
Q 1681 3072 1420 2755 
Q 1159 2438 1159 1844 
L 1159 0 
L 581 0 
L 581 3500 
L 1159 3500 
L 1159 2956 
Q 1341 3275 1631 3429 
Q 1922 3584 2338 3584 
Q 2397 3584 2469 3576 
Q 2541 3569 2628 3553 
L 2631 2963 
z
" transform="scale(0.015625)"/>
      </defs>
      <use xlink:href="#DejaVuSans-4d"/>
      <use xlink:href="#DejaVuSans-65" transform="translate(86.279297 0)"/>
      <use xlink:href="#DejaVuSans-61" transform="translate(147.802734 0)"/>
      <use xlink:href="#DejaVuSans-6e" transform="translate(209.082031 0)"/>
      <use xlink:href="#DejaVuSans-20" transform="translate(272.460938 0)"/>
      <use xlink:href="#DejaVuSans-45" transform="translate(304.248047 0)"/>
      <use xlink:href="#DejaVuSans-70" transform="translate(367.431641 0)"/>
      <use xlink:href="#DejaVuSans-69" transform="translate(430.908203 0)"/>
      <use xlink:href="#DejaVuSans-73" transform="translate(458.691406 0)"/>
      <use xlink:href="#DejaVuSans-6f" transform="translate(510.791016 0)"/>
      <use xlink:href="#DejaVuSans-64" transform="translate(571.972656 0)"/>
      <use xlink:href="#DejaVuSans-65" transform="translate(635.449219 0)"/>
      <use xlink:href="#DejaVuSans-20" transform="translate(696.972656 0)"/>
      <use xlink:href="#DejaVuSans-52" transform="translate(728.759766 0)"/>
      <use xlink:href="#DejaVuSans-65" transform="translate(793.742188 0)"/>
      <use xlink:href="#DejaVuSans-74" transform="translate(855.265625 0)"/>
      <use xlink:href="#DejaVuSans-75" transform="translate(894.474609 0)"/>
      <use xlink:href="#DejaVuSans-72" transform="translate(957.853516 0)"/>
      <use xlink:href="#DejaVuSans-6e" transform="translate(997.216797 0)"/>
     </g>
    </g>
   </g>
   <g id="FillBetweenPolyCollection_1"/>
   <g id="FillBetweenPolyCollection_2"/>
   <g id="FillBetweenPolyCollection_3"/>
   <g id="line2d_17">
    <path d="M 74.52 337.695294 
L 76.094759 346.3953 
L 77.679093 350.397273 
L 79.229341 344.833606 
L 80.816413 335.332011 
L 82.416853 330.706158 
L 84.025139 329.948532 
L 85.645842 329.877309 
L 87.26471 329.534267 
L 88.872578 328.979695 
L 90.472738 328.579989 
L 95.282699 328.046796 
L 98.442422 326.951521 
L 100.025708 326.830149 
L 103.182579 326.024036 
L 104.758083 326.099472 
L 106.328328 325.390685 
L 109.409193 325.046533 
L 110.947972 325.474303 
L 112.338022 324.757247 
L 113.836298 324.368469 
L 115.348743 324.646164 
L 116.850719 324.151568 
L 118.338081 324.798768 
L 119.847877 321.89539 
L 121.347325 295.938246 
L 122.878597 292.481896 
L 124.415999 300.484465 
L 125.951677 291.93837 
L 127.472023 298.736624 
L 129.011071 294.688881 
L 130.526377 299.720972 
L 132.19692 295.703646 
L 133.677763 290.095605 
L 135.15177 270.835633 
L 136.800079 229.227292 
L 138.355213 222.700276 
L 139.907111 225.422527 
L 141.459773 233.773141 
L 143.011772 221.517774 
L 144.567399 217.643663 
L 146.130181 227.436318 
L 147.66601 232.442188 
L 149.177542 230.057382 
L 150.507145 221.60459 
L 153.471355 209.616011 
L 155.007333 201.172703 
L 156.567573 185.594279 
L 158.111589 197.528353 
L 159.65515 199.037214 
L 161.185678 184.689435 
L 162.712836 183.667698 
L 164.215276 188.123871 
L 165.690442 188.177377 
L 167.161278 181.142994 
L 168.701574 176.01761 
L 170.254246 169.104142 
L 171.796207 170.957324 
L 173.341378 165.147216 
L 174.86728 171.237776 
L 176.408811 158.161527 
L 177.917821 157.010278 
L 179.421109 151.86454 
L 180.891259 154.204959 
L 182.372762 155.835904 
L 183.810406 152.048587 
L 185.323382 146.03533 
L 186.857265 144.48857 
L 188.231412 140.187926 
L 189.771978 136.515847 
L 191.2769 132.573658 
L 192.785246 129.836879 
L 194.280076 133.657498 
L 195.743466 132.157078 
L 197.183539 127.518259 
L 198.810327 124.980666 
L 200.339882 118.795476 
L 201.878251 120.888462 
L 203.393582 116.35083 
L 204.908365 117.876208 
L 206.406143 120.14822 
L 207.897523 117.718862 
L 210.849613 106.980305 
L 213.751323 111.073672 
L 215.218132 111.201486 
L 216.730644 105.572937 
L 218.232196 102.373537 
L 219.726914 102.225682 
L 221.222871 99.254613 
L 222.694969 97.864141 
L 224.166471 98.119099 
L 225.480412 96.941119 
L 226.912058 96.201145 
L 228.353384 95.918876 
L 229.871726 97.336019 
L 231.390422 92.72785 
L 232.890111 91.032192 
L 234.406134 95.602649 
L 235.910022 92.948626 
L 237.421848 91.883336 
L 238.923355 89.130719 
L 240.404881 87.713174 
L 241.826563 87.37187 
L 244.697273 87.56073 
L 246.197264 84.373265 
L 247.694904 84.195103 
L 249.193731 86.328066 
L 250.672121 79.971166 
L 252.156036 81.227371 
L 253.633547 78.224773 
L 255.08331 82.974211 
L 256.518781 84.075231 
L 257.936086 85.863523 
L 259.552135 77.010392 
L 261.072481 78.942411 
L 262.419216 77.183905 
L 263.930999 77.824196 
L 265.422271 84.402469 
L 266.918623 79.070568 
L 268.383096 75.202209 
L 269.855171 80.072129 
L 271.309144 82.503111 
L 272.761842 74.828065 
L 274.192572 79.333229 
L 275.658167 79.202405 
L 277.152019 74.124388 
L 278.661116 70.932915 
L 280.147222 72.896373 
L 281.650057 72.268837 
L 283.121221 69.898841 
L 284.614836 73.685428 
L 286.041082 79.451715 
L 287.474258 89.543395 
L 288.945883 86.039449 
L 290.468695 76.570419 
L 291.98398 71.559081 
L 293.49445 72.434438 
L 295.004923 77.231615 
L 296.492534 68.291527 
L 297.959962 71.188155 
L 299.273338 69.417148 
L 300.723805 70.375588 
L 302.134526 72.936649 
L 303.567103 72.784384 
L 305.032632 68.300825 
L 306.505625 70.087746 
L 307.990917 69.438723 
L 309.492863 69.638922 
L 310.996476 74.529182 
L 312.469334 69.104989 
L 313.97141 68.243191 
L 315.430892 71.589865 
L 316.851396 72.724038 
L 318.297122 70.517378 
L 319.927207 69.295055 
L 321.44287 71.922884 
L 322.936723 68.847364 
L 325.956464 67.646081 
L 327.455109 66.239681 
L 328.934559 68.868105 
L 330.409714 65.761921 
L 331.868101 66.382186 
L 333.304244 68.000854 
L 334.72796 68.6837 
L 336.052346 63.692284 
L 337.545969 66.376882 
L 339.044049 64.409221 
L 340.561709 71.522277 
L 342.076416 73.128712 
L 343.567658 67.802175 
L 345.041455 66.139343 
L 346.490439 65.036818 
L 347.929257 66.010307 
L 349.407699 61.592905 
L 350.907744 62.621287 
L 352.413097 60.804059 
L 353.932521 64.240015 
L 355.457236 67.072602 
L 356.972767 63.065045 
L 358.450441 60.185373 
L 361.361768 63.223136 
L 362.802658 62.49255 
L 364.225746 61.165002 
L 365.659256 61.214589 
L 367.161846 64.613652 
L 368.65642 60.886547 
L 370.13762 61.956411 
L 371.626571 59.850864 
L 372.942674 61.514977 
L 374.443544 60.276443 
L 375.901444 62.514691 
L 378.76561 80.68046 
L 380.390212 66.15171 
L 381.919102 63.349609 
L 383.439969 61.513398 
L 384.974766 62.897984 
L 386.504655 62.393404 
L 388.00141 58.898235 
L 390.937112 60.740316 
L 392.378293 69.454994 
L 393.807944 68.923236 
L 395.248434 60.839402 
L 396.744142 60.218988 
L 398.233369 62.154881 
L 399.720929 61.600892 
L 401.224878 62.263474 
L 402.722324 59.270471 
L 404.208313 58.680573 
L 405.686802 60.591195 
L 407.163287 68.61203 
L 408.574547 71.896838 
L 409.915185 71.348154 
L 411.410431 74.320743 
L 412.9193 66.371607 
L 414.436175 59.376203 
L 415.940777 61.441639 
L 417.467496 58.43457 
L 418.962301 59.709401 
L 420.427388 61.610815 
L 421.878916 65.394065 
L 423.356556 66.054948 
L 424.790788 67.205094 
L 426.277551 61.764586 
L 427.793738 71.082215 
L 429.31556 66.315433 
L 430.822084 64.330161 
L 432.330891 58.441544 
L 433.823711 66.865221 
L 435.321142 64.766647 
L 436.7659 68.184872 
L 438.202161 66.759578 
L 439.783131 65.769699 
L 441.291784 63.868136 
L 442.811031 71.295198 
L 444.334934 63.341742 
L 445.855037 68.20752 
L 447.225944 64.87968 
L 448.711526 58.953604 
L 450.198905 70.129347 
L 451.658121 64.490278 
L 453.090029 63.267628 
L 454.512094 66.053309 
L 455.963168 69.824281 
L 457.456086 67.136404 
L 458.96095 62.68807 
L 460.456377 64.394142 
L 461.965267 62.280073 
L 463.445942 64.407672 
L 464.941464 65.535587 
L 466.417432 65.748958 
L 467.856313 64.068365 
L 469.297443 63.97348 
L 470.797443 62.785905 
L 472.294857 64.592702 
L 473.796516 67.171807 
L 475.289784 62.591457 
L 476.80124 65.072429 
L 478.310121 63.126195 
L 479.792675 61.774807 
L 481.23874 62.745883 
L 482.707554 62.095698 
L 484.001987 66.390024 
L 485.419278 66.699084 
L 486.913837 62.167785 
L 488.411093 63.14643 
L 489.93647 67.442812 
L 491.443964 66.943089 
L 492.940619 67.081065 
L 494.419325 63.415557 
L 495.908022 67.939078 
L 497.353194 69.574643 
L 498.796822 64.947446 
L 500.388965 61.367853 
L 501.879332 60.891255 
L 503.39171 60.071744 
L 504.897627 65.528316 
L 506.407451 61.74307 
L 507.913165 66.40996 
L 509.410734 59.93502 
L 510.894037 61.748404 
L 512.33001 59.674028 
L 513.75591 59.59014 
L 515.163289 61.711153 
L 516.590426 62.703357 
L 518.090835 60.795298 
L 519.588872 60.938906 
L 520.958292 61.727752 
L 522.443384 62.257395 
L 523.896783 62.027872 
L 525.374513 58.553504 
L 526.850158 65.965875 
L 528.28943 71.296808 
L 529.739675 63.901184 
L 531.217352 70.398564 
L 532.75959 58.959385 
L 534.281954 66.462647 
L 535.815693 61.594246 
L 537.319024 59.599974 
L 538.806939 61.240844 
L 540.282079 60.19488 
L 541.754527 59.667562 
L 543.212788 61.843676 
L 544.644529 67.946617 
L 546.063566 67.629601 
L 547.543576 62.667239 
L 549.034609 60.910149 
L 550.542555 61.795161 
L 552.02926 65.838269 
L 553.502643 63.745686 
L 554.975322 67.331567 
L 556.465067 69.076827 
L 557.76897 75.554926 
L 559.203578 75.678642 
L 560.814628 84.632186 
L 562.317931 81.362233 
L 563.84637 66.127214 
L 565.352259 75.237612 
L 566.877072 77.120758 
L 568.38735 62.856919 
L 569.860138 67.610797 
L 571.330848 66.754721 
L 572.787276 63.666894 
L 574.227054 62.022955 
L 575.651211 65.430153 
L 577.096415 68.147204 
L 578.591373 61.797694 
L 580.092086 62.533674 
L 581.577289 67.03103 
L 583.0621 64.283851 
L 584.52853 63.12405 
L 586.011386 66.092586 
L 587.473779 70.482452 
L 588.889528 75.207245 
L 591.841062 62.596791 
L 593.368824 65.60228 
L 594.723568 61.115771 
L 596.215125 62.678206 
L 597.733859 60.967216 
L 599.214022 63.030834 
L 600.686772 63.590664 
L 602.11871 61.09351 
L 603.541653 65.028205 
L 604.960363 66.79823 
L 606.418206 68.175216 
L 607.933613 64.057577 
L 609.438385 75.105477 
L 610.929521 73.395277 
L 612.42147 67.518177 
L 613.904099 61.218344 
L 615.397651 59.915322 
L 616.882537 59.877952 
L 618.310794 60.098237 
L 619.743667 61.051611 
L 621.356943 66.05024 
L 622.848498 61.9849 
L 624.377856 59.610196 
L 625.887621 59.097003 
L 627.405445 59.09903 
L 628.924496 59.737891 
L 630.381712 61.62509 
L 631.691509 58.670262 
L 633.12959 62.425499 
L 634.550064 65.301415 
L 635.968338 66.785922 
L 637.445371 65.398863 
L 638.93635 61.606763 
L 640.436604 72.75807 
L 641.942102 64.965505 
L 643.436463 62.574411 
L 644.91797 65.225842 
L 646.395851 61.685734 
L 647.850332 70.010533 
L 649.265026 67.498688 
L 650.730144 61.259201 
L 652.238852 60.09928 
L 653.759496 60.384231 
L 655.266906 59.804047 
L 656.780746 59.871188 
L 658.288451 60.773484 
L 659.784321 60.511092 
L 661.269571 58.253503 
L 662.715483 64.742539 
L 664.117158 58.634322 
L 665.532559 59.874645 
L 666.981115 60.044805 
L 668.326651 62.210846 
L 669.828984 60.777596 
L 671.327909 62.726691 
L 672.831666 59.56177 
L 674.323106 60.133848 
L 675.814429 65.133252 
L 677.285341 63.693058 
L 678.719405 58.40477 
L 680.158378 60.34111 
L 681.759869 57.29244 
L 683.270451 57.159739 
L 684.771572 55.904606 
L 686.275203 57.20298 
L 687.77577 62.083539 
L 689.29123 57.666644 
L 690.786845 60.224531 
L 692.231143 62.203039 
L 693.643862 59.283166 
L 695.073509 60.769729 
L 696.502537 67.015147 
L 697.985029 64.276133 
L 699.498757 69.178059 
L 701.016597 63.875198 
L 702.512259 56.921217 
L 704.009482 59.164173 
L 705.348566 55.897514 
L 706.835049 54.732408 
L 708.283077 55.478401 
L 709.711979 56.956709 
L 711.198863 56.437974 
L 712.705722 54.731395 
L 714.22018 59.47371 
L 715.747591 58.668235 
L 717.281898 59.323278 
L 718.774165 58.571891 
L 720.281494 63.503468 
L 721 59.590517 
L 721 59.590517 
" clip-path="url(#pcdc1763943)" style="fill: none; stroke: #4c72b0; stroke-opacity: 0.5; stroke-width: 1.5; stroke-linecap: round"/>
   </g>
   <g id="line2d_18">
    <path d="M 74.52 330.598209 
L 92.842204 327.414773 
L 111.24385 325.575435 
L 129.756207 326.335435 
L 148.189208 325.817796 
L 166.659873 325.660743 
L 185.083293 325.143388 
L 203.522504 325.580639 
L 221.904421 325.580639 
L 240.245937 325.580639 
L 258.658836 315.974948 
L 277.274352 228.916966 
L 295.854541 234.055574 
L 314.427467 242.097404 
L 332.903459 241.7315 
L 351.510499 224.259447 
L 370.068575 228.877577 
L 388.520164 234.049309 
L 406.935684 233.673317 
L 425.351376 233.918865 
L 443.895268 123.092841 
L 462.548982 117.668276 
L 481.191713 115.490135 
L 499.842572 113.47612 
L 518.470493 118.559144 
L 537.045744 121.5822 
L 555.575933 127.845632 
L 574.076538 130.222839 
L 592.531672 130.222839 
L 611.05394 130.222839 
L 629.536276 130.222839 
L 648.131962 128.587617 
L 666.706398 107.750452 
L 685.214994 101.90348 
L 703.702219 105.076447 
L 721 91.629701 
" clip-path="url(#pcdc1763943)" style="fill: none; stroke: #dd8452; stroke-width: 1.5; stroke-linecap: round"/>
    <defs>
     <path id="mb108a3a0cd" d="M 0 3 
C 0.795609 3 1.55874 2.683901 2.12132 2.12132 
C 2.683901 1.55874 3 0.795609 3 0 
C 3 -0.795609 2.683901 -1.55874 2.12132 -2.12132 
C 1.55874 -2.683901 0.795609 -3 0 -3 
C -0.795609 -3 -1.55874 -2.683901 -2.12132 -2.12132 
C -2.683901 -1.55874 -3 -0.795609 -3 0 
C -3 0.795609 -2.683901 1.55874 -2.12132 2.12132 
C -1.55874 2.683901 -0.795609 3 0 3 
z
" style="stroke: #ffffff; stroke-width: 0.75"/>
    </defs>
    <g clip-path="url(#pcdc1763943)">
     <use xlink:href="#mb108a3a0cd" x="74.52" y="330.598209" style="fill: #dd8452; stroke: #ffffff; stroke-width: 0.75"/>
     <use xlink:href="#mb108a3a0cd" x="92.842204" y="327.414773" style="fill: #dd8452; stroke: #ffffff; stroke-width: 0.75"/>
     <use xlink:href="#mb108a3a0cd" x="111.24385" y="325.575435" style="fill: #dd8452; stroke: #ffffff; stroke-width: 0.75"/>
     <use xlink:href="#mb108a3a0cd" x="129.756207" y="326.335435" style="fill: #dd8452; stroke: #ffffff; stroke-width: 0.75"/>
     <use xlink:href="#mb108a3a0cd" x="148.189208" y="325.817796" style="fill: #dd8452; stroke: #ffffff; stroke-width: 0.75"/>
     <use xlink:href="#mb108a3a0cd" x="166.659873" y="325.660743" style="fill: #dd8452; stroke: #ffffff; stroke-width: 0.75"/>
     <use xlink:href="#mb108a3a0cd" x="185.083293" y="325.143388" style="fill: #dd8452; stroke: #ffffff; stroke-width: 0.75"/>
     <use xlink:href="#mb108a3a0cd" x="203.522504" y="325.580639" style="fill: #dd8452; stroke: #ffffff; stroke-width: 0.75"/>
     <use xlink:href="#mb108a3a0cd" x="221.904421" y="325.580639" style="fill: #dd8452; stroke: #ffffff; stroke-width: 0.75"/>
     <use xlink:href="#mb108a3a0cd" x="240.245937" y="325.580639" style="fill: #dd8452; stroke: #ffffff; stroke-width: 0.75"/>
     <use xlink:href="#mb108a3a0cd" x="258.658836" y="315.974948" style="fill: #dd8452; stroke: #ffffff; stroke-width: 0.75"/>
     <use xlink:href="#mb108a3a0cd" x="277.274352" y="228.916966" style="fill: #dd8452; stroke: #ffffff; stroke-width: 0.75"/>
     <use xlink:href="#mb108a3a0cd" x="295.854541" y="234.055574" style="fill: #dd8452; stroke: #ffffff; stroke-width: 0.75"/>
     <use xlink:href="#mb108a3a0cd" x="314.427467" y="242.097404" style="fill: #dd8452; stroke: #ffffff; stroke-width: 0.75"/>
     <use xlink:href="#mb108a3a0cd" x="332.903459" y="241.7315" style="fill: #dd8452; stroke: #ffffff; stroke-width: 0.75"/>
     <use xlink:href="#mb108a3a0cd" x="351.510499" y="224.259447" style="fill: #dd8452; stroke: #ffffff; stroke-width: 0.75"/>
     <use xlink:href="#mb108a3a0cd" x="370.068575" y="228.877577" style="fill: #dd8452; stroke: #ffffff; stroke-width: 0.75"/>
     <use xlink:href="#mb108a3a0cd" x="388.520164" y="234.049309" style="fill: #dd8452; stroke: #ffffff; stroke-width: 0.75"/>
     <use xlink:href="#mb108a3a0cd" x="406.935684" y="233.673317" style="fill: #dd8452; stroke: #ffffff; stroke-width: 0.75"/>
     <use xlink:href="#mb108a3a0cd" x="425.351376" y="233.918865" style="fill: #dd8452; stroke: #ffffff; stroke-width: 0.75"/>
     <use xlink:href="#mb108a3a0cd" x="443.895268" y="123.092841" style="fill: #dd8452; stroke: #ffffff; stroke-width: 0.75"/>
     <use xlink:href="#mb108a3a0cd" x="462.548982" y="117.668276" style="fill: #dd8452; stroke: #ffffff; stroke-width: 0.75"/>
     <use xlink:href="#mb108a3a0cd" x="481.191713" y="115.490135" style="fill: #dd8452; stroke: #ffffff; stroke-width: 0.75"/>
     <use xlink:href="#mb108a3a0cd" x="499.842572" y="113.47612" style="fill: #dd8452; stroke: #ffffff; stroke-width: 0.75"/>
     <use xlink:href="#mb108a3a0cd" x="518.470493" y="118.559144" style="fill: #dd8452; stroke: #ffffff; stroke-width: 0.75"/>
     <use xlink:href="#mb108a3a0cd" x="537.045744" y="121.5822" style="fill: #dd8452; stroke: #ffffff; stroke-width: 0.75"/>
     <use xlink:href="#mb108a3a0cd" x="555.575933" y="127.845632" style="fill: #dd8452; stroke: #ffffff; stroke-width: 0.75"/>
     <use xlink:href="#mb108a3a0cd" x="574.076538" y="130.222839" style="fill: #dd8452; stroke: #ffffff; stroke-width: 0.75"/>
     <use xlink:href="#mb108a3a0cd" x="592.531672" y="130.222839" style="fill: #dd8452; stroke: #ffffff; stroke-width: 0.75"/>
     <use xlink:href="#mb108a3a0cd" x="611.05394" y="130.222839" style="fill: #dd8452; stroke: #ffffff; stroke-width: 0.75"/>
     <use xlink:href="#mb108a3a0cd" x="629.536276" y="130.222839" style="fill: #dd8452; stroke: #ffffff; stroke-width: 0.75"/>
     <use xlink:href="#mb108a3a0cd" x="648.131962" y="128.587617" style="fill: #dd8452; stroke: #ffffff; stroke-width: 0.75"/>
     <use xlink:href="#mb108a3a0cd" x="666.706398" y="107.750452" style="fill: #dd8452; stroke: #ffffff; stroke-width: 0.75"/>
     <use xlink:href="#mb108a3a0cd" x="685.214994" y="101.90348" style="fill: #dd8452; stroke: #ffffff; stroke-width: 0.75"/>
     <use xlink:href="#mb108a3a0cd" x="703.702219" y="105.076447" style="fill: #dd8452; stroke: #ffffff; stroke-width: 0.75"/>
     <use xlink:href="#mb108a3a0cd" x="722.254372" y="90.654592" style="fill: #dd8452; stroke: #ffffff; stroke-width: 0.75"/>
     <use xlink:href="#mb108a3a0cd" x="740.861817" y="93.654523" style="fill: #dd8452; stroke: #ffffff; stroke-width: 0.75"/>
     <use xlink:href="#mb108a3a0cd" x="759.394978" y="94.495311" style="fill: #dd8452; stroke: #ffffff; stroke-width: 0.75"/>
     <use xlink:href="#mb108a3a0cd" x="777.833817" y="94.042017" style="fill: #dd8452; stroke: #ffffff; stroke-width: 0.75"/>
     <use xlink:href="#mb108a3a0cd" x="796.312384" y="94.042017" style="fill: #dd8452; stroke: #ffffff; stroke-width: 0.75"/>
     <use xlink:href="#mb108a3a0cd" x="814.973096" y="95.638499" style="fill: #dd8452; stroke: #ffffff; stroke-width: 0.75"/>
     <use xlink:href="#mb108a3a0cd" x="833.604969" y="77.323386" style="fill: #dd8452; stroke: #ffffff; stroke-width: 0.75"/>
     <use xlink:href="#mb108a3a0cd" x="852.254435" y="74.451" style="fill: #dd8452; stroke: #ffffff; stroke-width: 0.75"/>
     <use xlink:href="#mb108a3a0cd" x="870.880362" y="75.516573" style="fill: #dd8452; stroke: #ffffff; stroke-width: 0.75"/>
     <use xlink:href="#mb108a3a0cd" x="889.50441" y="74.174676" style="fill: #dd8452; stroke: #ffffff; stroke-width: 0.75"/>
     <use xlink:href="#mb108a3a0cd" x="908.074073" y="74.494539" style="fill: #dd8452; stroke: #ffffff; stroke-width: 0.75"/>
     <use xlink:href="#mb108a3a0cd" x="926.607433" y="85.257338" style="fill: #dd8452; stroke: #ffffff; stroke-width: 0.75"/>
     <use xlink:href="#mb108a3a0cd" x="945.06813" y="89.114433" style="fill: #dd8452; stroke: #ffffff; stroke-width: 0.75"/>
     <use xlink:href="#mb108a3a0cd" x="963.551923" y="88.782144" style="fill: #dd8452; stroke: #ffffff; stroke-width: 0.75"/>
     <use xlink:href="#mb108a3a0cd" x="981.986485" y="88.782144" style="fill: #dd8452; stroke: #ffffff; stroke-width: 0.75"/>
     <use xlink:href="#mb108a3a0cd" x="1000.431075" y="88.782144" style="fill: #dd8452; stroke: #ffffff; stroke-width: 0.75"/>
     <use xlink:href="#mb108a3a0cd" x="1018.904257" y="88.287919" style="fill: #dd8452; stroke: #ffffff; stroke-width: 0.75"/>
     <use xlink:href="#mb108a3a0cd" x="1037.519605" y="79.100279" style="fill: #dd8452; stroke: #ffffff; stroke-width: 0.75"/>
     <use xlink:href="#mb108a3a0cd" x="1056.04266" y="77.614401" style="fill: #dd8452; stroke: #ffffff; stroke-width: 0.75"/>
     <use xlink:href="#mb108a3a0cd" x="1074.534976" y="78.326854" style="fill: #dd8452; stroke: #ffffff; stroke-width: 0.75"/>
     <use xlink:href="#mb108a3a0cd" x="1092.986428" y="75.820552" style="fill: #dd8452; stroke: #ffffff; stroke-width: 0.75"/>
     <use xlink:href="#mb108a3a0cd" x="1111.608288" y="66.260928" style="fill: #dd8452; stroke: #ffffff; stroke-width: 0.75"/>
     <use xlink:href="#mb108a3a0cd" x="1130.13701" y="65.469251" style="fill: #dd8452; stroke: #ffffff; stroke-width: 0.75"/>
     <use xlink:href="#mb108a3a0cd" x="1148.587745" y="66.304646" style="fill: #dd8452; stroke: #ffffff; stroke-width: 0.75"/>
     <use xlink:href="#mb108a3a0cd" x="1167.011053" y="68.523017" style="fill: #dd8452; stroke: #ffffff; stroke-width: 0.75"/>
     <use xlink:href="#mb108a3a0cd" x="1185.464925" y="68.913581" style="fill: #dd8452; stroke: #ffffff; stroke-width: 0.75"/>
     <use xlink:href="#mb108a3a0cd" x="1204.017497" y="62.424754" style="fill: #dd8452; stroke: #ffffff; stroke-width: 0.75"/>
     <use xlink:href="#mb108a3a0cd" x="1222.695478" y="60.646445" style="fill: #dd8452; stroke: #ffffff; stroke-width: 0.75"/>
     <use xlink:href="#mb108a3a0cd" x="1241.379029" y="58.646809" style="fill: #dd8452; stroke: #ffffff; stroke-width: 0.75"/>
     <use xlink:href="#mb108a3a0cd" x="1260.009644" y="59.78718" style="fill: #dd8452; stroke: #ffffff; stroke-width: 0.75"/>
     <use xlink:href="#mb108a3a0cd" x="1278.616063" y="61.518971" style="fill: #dd8452; stroke: #ffffff; stroke-width: 0.75"/>
     <use xlink:href="#mb108a3a0cd" x="1297.161537" y="69.289244" style="fill: #dd8452; stroke: #ffffff; stroke-width: 0.75"/>
     <use xlink:href="#mb108a3a0cd" x="1315.648726" y="72.548454" style="fill: #dd8452; stroke: #ffffff; stroke-width: 0.75"/>
     <use xlink:href="#mb108a3a0cd" x="1334.116454" y="74.923322" style="fill: #dd8452; stroke: #ffffff; stroke-width: 0.75"/>
     <use xlink:href="#mb108a3a0cd" x="1352.534404" y="74.923322" style="fill: #dd8452; stroke: #ffffff; stroke-width: 0.75"/>
     <use xlink:href="#mb108a3a0cd" x="1370.932692" y="76.348019" style="fill: #dd8452; stroke: #ffffff; stroke-width: 0.75"/>
     <use xlink:href="#mb108a3a0cd" x="1389.391304" y="76.130402" style="fill: #dd8452; stroke: #ffffff; stroke-width: 0.75"/>
     <use xlink:href="#mb108a3a0cd" x="1408.007444" y="76.05447" style="fill: #dd8452; stroke: #ffffff; stroke-width: 0.75"/>
    </g>
   </g>
   <g id="line2d_19">
    <path d="M 74.52 341.598451 
L 79.604544 330.301338 
L 84.671451 329.118553 
L 89.742076 328.641339 
L 95.124192 327.905121 
L 100.178115 327.577464 
L 105.248753 326.909618 
L 115.699896 325.154503 
L 120.709275 324.18095 
L 125.730928 323.5136 
L 130.748947 324.653533 
L 136.063664 321.684589 
L 141.051896 323.664005 
L 145.977355 324.177062 
L 150.88501 322.798567 
L 156.023799 320.397115 
L 160.865898 317.120444 
L 165.690428 315.444914 
L 170.525767 314.184002 
L 175.714582 299.949973 
L 180.578327 287.586077 
L 185.435661 271.444709 
L 190.340906 261.551261 
L 195.517906 248.996955 
L 200.352332 244.305874 
L 205.175901 239.376494 
L 210.012599 226.236644 
L 215.256324 180.218184 
L 220.236951 109.773451 
L 225.240265 107.11475 
L 230.260355 114.970103 
L 235.574155 105.824393 
L 240.569413 110.864324 
L 245.53761 123.841949 
L 250.455667 150.262188 
L 255.619015 153.142753 
L 260.511128 165.721827 
L 265.352187 163.769484 
L 270.230696 161.004425 
L 275.731688 158.976031 
L 280.634793 154.492294 
L 285.506179 135.143927 
L 290.364741 134.890117 
L 295.547158 122.870217 
L 300.398542 121.221809 
L 305.206977 120.006832 
L 310.025612 120.527147 
L 315.230474 109.418871 
L 320.153802 79.543858 
L 325.145994 74.045387 
L 330.140399 77.172372 
L 335.435884 77.789509 
L 340.435843 87.567375 
L 345.43679 83.360826 
L 350.360042 81.98603 
L 355.579528 94.429914 
L 360.415404 92.578743 
L 365.245267 92.746609 
L 370.055982 90.859484 
L 375.258374 92.043975 
L 380.154039 86.09315 
L 385.078801 110.336098 
L 389.95247 114.43845 
L 395.153602 116.451466 
L 400.000906 113.451967 
L 404.856951 111.413024 
L 409.709285 109.070743 
L 414.903374 98.078436 
L 419.834018 74.696138 
L 424.817938 74.053791 
L 429.84471 69.832357 
L 435.17626 72.369473 
L 440.164692 73.312327 
L 445.16882 71.717529 
L 450.155496 74.330949 
L 455.416852 74.739736 
L 460.290129 88.832432 
L 465.144698 85.618266 
L 469.97634 87.039729 
L 475.189237 89.303978 
L 480.282974 93.2504 
L 485.227454 98.992399 
L 490.146154 93.41089 
L 495.381272 100.370176 
L 500.247264 101.338748 
L 505.153143 102.767558 
L 510.004818 105.108825 
L 515.14922 103.942974 
L 520.006523 95.209373 
L 524.930953 69.058351 
L 529.908881 67.932492 
L 535.20985 65.36945 
L 540.177066 67.530366 
L 545.169593 71.222545 
L 550.124688 77.9916 
L 555.364236 99.077524 
L 560.253205 106.666522 
L 565.116824 94.999534 
L 569.944192 94.57686 
L 575.10144 94.792004 
L 580.007862 89.83742 
L 584.958666 97.413768 
L 589.893114 103.07629 
L 595.096152 98.59513 
L 599.985732 84.103869 
L 604.837991 81.308399 
L 609.654959 84.637177 
L 614.807648 84.433849 
L 619.662902 80.282267 
L 624.563617 75.813743 
L 629.529967 70.006748 
L 634.824496 70.264343 
L 644.82742 71.684958 
L 649.826223 73.877 
L 655.06504 86.561403 
L 659.971169 73.622892 
L 664.868745 70.57382 
L 669.723572 73.747368 
L 674.855832 74.39657 
L 679.7505 81.40303 
L 684.864112 82.988783 
L 689.808092 77.370515 
L 694.994411 85.085673 
L 704.689954 84.652509 
L 709.545742 90.193967 
L 714.696684 90.350538 
L 719.514074 86.596508 
L 721 86.947848 
L 721 86.947848 
" clip-path="url(#pcdc1763943)" style="fill: none; stroke: #55a868; stroke-width: 1.5; stroke-linecap: round"/>
    <defs>
     <path id="m2c6433ddee" d="M 0 3 
C 0.795609 3 1.55874 2.683901 2.12132 2.12132 
C 2.683901 1.55874 3 0.795609 3 0 
C 3 -0.795609 2.683901 -1.55874 2.12132 -2.12132 
C 1.55874 -2.683901 0.795609 -3 0 -3 
C -0.795609 -3 -1.55874 -2.683901 -2.12132 -2.12132 
C -2.683901 -1.55874 -3 -0.795609 -3 0 
C -3 0.795609 -2.683901 1.55874 -2.12132 2.12132 
C -1.55874 2.683901 -0.795609 3 0 3 
z
" style="stroke: #ffffff; stroke-width: 0.75"/>
    </defs>
    <g clip-path="url(#pcdc1763943)">
     <use xlink:href="#m2c6433ddee" x="74.52" y="341.598451" style="fill: #55a868; stroke: #ffffff; stroke-width: 0.75"/>
     <use xlink:href="#m2c6433ddee" x="79.604544" y="330.301338" style="fill: #55a868; stroke: #ffffff; stroke-width: 0.75"/>
     <use xlink:href="#m2c6433ddee" x="84.671451" y="329.118553" style="fill: #55a868; stroke: #ffffff; stroke-width: 0.75"/>
     <use xlink:href="#m2c6433ddee" x="89.742076" y="328.641339" style="fill: #55a868; stroke: #ffffff; stroke-width: 0.75"/>
     <use xlink:href="#m2c6433ddee" x="95.124192" y="327.905121" style="fill: #55a868; stroke: #ffffff; stroke-width: 0.75"/>
     <use xlink:href="#m2c6433ddee" x="100.178115" y="327.577464" style="fill: #55a868; stroke: #ffffff; stroke-width: 0.75"/>
     <use xlink:href="#m2c6433ddee" x="105.248753" y="326.909618" style="fill: #55a868; stroke: #ffffff; stroke-width: 0.75"/>
     <use xlink:href="#m2c6433ddee" x="110.32154" y="326.080836" style="fill: #55a868; stroke: #ffffff; stroke-width: 0.75"/>
     <use xlink:href="#m2c6433ddee" x="115.699896" y="325.154503" style="fill: #55a868; stroke: #ffffff; stroke-width: 0.75"/>
     <use xlink:href="#m2c6433ddee" x="120.709275" y="324.18095" style="fill: #55a868; stroke: #ffffff; stroke-width: 0.75"/>
     <use xlink:href="#m2c6433ddee" x="125.730928" y="323.5136" style="fill: #55a868; stroke: #ffffff; stroke-width: 0.75"/>
     <use xlink:href="#m2c6433ddee" x="130.748947" y="324.653533" style="fill: #55a868; stroke: #ffffff; stroke-width: 0.75"/>
     <use xlink:href="#m2c6433ddee" x="136.063664" y="321.684589" style="fill: #55a868; stroke: #ffffff; stroke-width: 0.75"/>
     <use xlink:href="#m2c6433ddee" x="141.051896" y="323.664005" style="fill: #55a868; stroke: #ffffff; stroke-width: 0.75"/>
     <use xlink:href="#m2c6433ddee" x="145.977355" y="324.177062" style="fill: #55a868; stroke: #ffffff; stroke-width: 0.75"/>
     <use xlink:href="#m2c6433ddee" x="150.88501" y="322.798567" style="fill: #55a868; stroke: #ffffff; stroke-width: 0.75"/>
     <use xlink:href="#m2c6433ddee" x="156.023799" y="320.397115" style="fill: #55a868; stroke: #ffffff; stroke-width: 0.75"/>
     <use xlink:href="#m2c6433ddee" x="160.865898" y="317.120444" style="fill: #55a868; stroke: #ffffff; stroke-width: 0.75"/>
     <use xlink:href="#m2c6433ddee" x="165.690428" y="315.444914" style="fill: #55a868; stroke: #ffffff; stroke-width: 0.75"/>
     <use xlink:href="#m2c6433ddee" x="170.525767" y="314.184002" style="fill: #55a868; stroke: #ffffff; stroke-width: 0.75"/>
     <use xlink:href="#m2c6433ddee" x="175.714582" y="299.949973" style="fill: #55a868; stroke: #ffffff; stroke-width: 0.75"/>
     <use xlink:href="#m2c6433ddee" x="180.578327" y="287.586077" style="fill: #55a868; stroke: #ffffff; stroke-width: 0.75"/>
     <use xlink:href="#m2c6433ddee" x="185.435661" y="271.444709" style="fill: #55a868; stroke: #ffffff; stroke-width: 0.75"/>
     <use xlink:href="#m2c6433ddee" x="190.340906" y="261.551261" style="fill: #55a868; stroke: #ffffff; stroke-width: 0.75"/>
     <use xlink:href="#m2c6433ddee" x="195.517906" y="248.996955" style="fill: #55a868; stroke: #ffffff; stroke-width: 0.75"/>
     <use xlink:href="#m2c6433ddee" x="200.352332" y="244.305874" style="fill: #55a868; stroke: #ffffff; stroke-width: 0.75"/>
     <use xlink:href="#m2c6433ddee" x="205.175901" y="239.376494" style="fill: #55a868; stroke: #ffffff; stroke-width: 0.75"/>
     <use xlink:href="#m2c6433ddee" x="210.012599" y="226.236644" style="fill: #55a868; stroke: #ffffff; stroke-width: 0.75"/>
     <use xlink:href="#m2c6433ddee" x="215.256324" y="180.218184" style="fill: #55a868; stroke: #ffffff; stroke-width: 0.75"/>
     <use xlink:href="#m2c6433ddee" x="220.236951" y="109.773451" style="fill: #55a868; stroke: #ffffff; stroke-width: 0.75"/>
     <use xlink:href="#m2c6433ddee" x="225.240265" y="107.11475" style="fill: #55a868; stroke: #ffffff; stroke-width: 0.75"/>
     <use xlink:href="#m2c6433ddee" x="230.260355" y="114.970103" style="fill: #55a868; stroke: #ffffff; stroke-width: 0.75"/>
     <use xlink:href="#m2c6433ddee" x="235.574155" y="105.824393" style="fill: #55a868; stroke: #ffffff; stroke-width: 0.75"/>
     <use xlink:href="#m2c6433ddee" x="240.569413" y="110.864324" style="fill: #55a868; stroke: #ffffff; stroke-width: 0.75"/>
     <use xlink:href="#m2c6433ddee" x="245.53761" y="123.841949" style="fill: #55a868; stroke: #ffffff; stroke-width: 0.75"/>
     <use xlink:href="#m2c6433ddee" x="250.455667" y="150.262188" style="fill: #55a868; stroke: #ffffff; stroke-width: 0.75"/>
     <use xlink:href="#m2c6433ddee" x="255.619015" y="153.142753" style="fill: #55a868; stroke: #ffffff; stroke-width: 0.75"/>
     <use xlink:href="#m2c6433ddee" x="260.511128" y="165.721827" style="fill: #55a868; stroke: #ffffff; stroke-width: 0.75"/>
     <use xlink:href="#m2c6433ddee" x="265.352187" y="163.769484" style="fill: #55a868; stroke: #ffffff; stroke-width: 0.75"/>
     <use xlink:href="#m2c6433ddee" x="270.230696" y="161.004425" style="fill: #55a868; stroke: #ffffff; stroke-width: 0.75"/>
     <use xlink:href="#m2c6433ddee" x="275.731688" y="158.976031" style="fill: #55a868; stroke: #ffffff; stroke-width: 0.75"/>
     <use xlink:href="#m2c6433ddee" x="280.634793" y="154.492294" style="fill: #55a868; stroke: #ffffff; stroke-width: 0.75"/>
     <use xlink:href="#m2c6433ddee" x="285.506179" y="135.143927" style="fill: #55a868; stroke: #ffffff; stroke-width: 0.75"/>
     <use xlink:href="#m2c6433ddee" x="290.364741" y="134.890117" style="fill: #55a868; stroke: #ffffff; stroke-width: 0.75"/>
     <use xlink:href="#m2c6433ddee" x="295.547158" y="122.870217" style="fill: #55a868; stroke: #ffffff; stroke-width: 0.75"/>
     <use xlink:href="#m2c6433ddee" x="300.398542" y="121.221809" style="fill: #55a868; stroke: #ffffff; stroke-width: 0.75"/>
     <use xlink:href="#m2c6433ddee" x="305.206977" y="120.006832" style="fill: #55a868; stroke: #ffffff; stroke-width: 0.75"/>
     <use xlink:href="#m2c6433ddee" x="310.025612" y="120.527147" style="fill: #55a868; stroke: #ffffff; stroke-width: 0.75"/>
     <use xlink:href="#m2c6433ddee" x="315.230474" y="109.418871" style="fill: #55a868; stroke: #ffffff; stroke-width: 0.75"/>
     <use xlink:href="#m2c6433ddee" x="320.153802" y="79.543858" style="fill: #55a868; stroke: #ffffff; stroke-width: 0.75"/>
     <use xlink:href="#m2c6433ddee" x="325.145994" y="74.045387" style="fill: #55a868; stroke: #ffffff; stroke-width: 0.75"/>
     <use xlink:href="#m2c6433ddee" x="330.140399" y="77.172372" style="fill: #55a868; stroke: #ffffff; stroke-width: 0.75"/>
     <use xlink:href="#m2c6433ddee" x="335.435884" y="77.789509" style="fill: #55a868; stroke: #ffffff; stroke-width: 0.75"/>
     <use xlink:href="#m2c6433ddee" x="340.435843" y="87.567375" style="fill: #55a868; stroke: #ffffff; stroke-width: 0.75"/>
     <use xlink:href="#m2c6433ddee" x="345.43679" y="83.360826" style="fill: #55a868; stroke: #ffffff; stroke-width: 0.75"/>
     <use xlink:href="#m2c6433ddee" x="350.360042" y="81.98603" style="fill: #55a868; stroke: #ffffff; stroke-width: 0.75"/>
     <use xlink:href="#m2c6433ddee" x="355.579528" y="94.429914" style="fill: #55a868; stroke: #ffffff; stroke-width: 0.75"/>
     <use xlink:href="#m2c6433ddee" x="360.415404" y="92.578743" style="fill: #55a868; stroke: #ffffff; stroke-width: 0.75"/>
     <use xlink:href="#m2c6433ddee" x="365.245267" y="92.746609" style="fill: #55a868; stroke: #ffffff; stroke-width: 0.75"/>
     <use xlink:href="#m2c6433ddee" x="370.055982" y="90.859484" style="fill: #55a868; stroke: #ffffff; stroke-width: 0.75"/>
     <use xlink:href="#m2c6433ddee" x="375.258374" y="92.043975" style="fill: #55a868; stroke: #ffffff; stroke-width: 0.75"/>
     <use xlink:href="#m2c6433ddee" x="380.154039" y="86.09315" style="fill: #55a868; stroke: #ffffff; stroke-width: 0.75"/>
     <use xlink:href="#m2c6433ddee" x="385.078801" y="110.336098" style="fill: #55a868; stroke: #ffffff; stroke-width: 0.75"/>
     <use xlink:href="#m2c6433ddee" x="389.95247" y="114.43845" style="fill: #55a868; stroke: #ffffff; stroke-width: 0.75"/>
     <use xlink:href="#m2c6433ddee" x="395.153602" y="116.451466" style="fill: #55a868; stroke: #ffffff; stroke-width: 0.75"/>
     <use xlink:href="#m2c6433ddee" x="400.000906" y="113.451967" style="fill: #55a868; stroke: #ffffff; stroke-width: 0.75"/>
     <use xlink:href="#m2c6433ddee" x="404.856951" y="111.413024" style="fill: #55a868; stroke: #ffffff; stroke-width: 0.75"/>
     <use xlink:href="#m2c6433ddee" x="409.709285" y="109.070743" style="fill: #55a868; stroke: #ffffff; stroke-width: 0.75"/>
     <use xlink:href="#m2c6433ddee" x="414.903374" y="98.078436" style="fill: #55a868; stroke: #ffffff; stroke-width: 0.75"/>
     <use xlink:href="#m2c6433ddee" x="419.834018" y="74.696138" style="fill: #55a868; stroke: #ffffff; stroke-width: 0.75"/>
     <use xlink:href="#m2c6433ddee" x="424.817938" y="74.053791" style="fill: #55a868; stroke: #ffffff; stroke-width: 0.75"/>
     <use xlink:href="#m2c6433ddee" x="429.84471" y="69.832357" style="fill: #55a868; stroke: #ffffff; stroke-width: 0.75"/>
     <use xlink:href="#m2c6433ddee" x="435.17626" y="72.369473" style="fill: #55a868; stroke: #ffffff; stroke-width: 0.75"/>
     <use xlink:href="#m2c6433ddee" x="440.164692" y="73.312327" style="fill: #55a868; stroke: #ffffff; stroke-width: 0.75"/>
     <use xlink:href="#m2c6433ddee" x="445.16882" y="71.717529" style="fill: #55a868; stroke: #ffffff; stroke-width: 0.75"/>
     <use xlink:href="#m2c6433ddee" x="450.155496" y="74.330949" style="fill: #55a868; stroke: #ffffff; stroke-width: 0.75"/>
     <use xlink:href="#m2c6433ddee" x="455.416852" y="74.739736" style="fill: #55a868; stroke: #ffffff; stroke-width: 0.75"/>
     <use xlink:href="#m2c6433ddee" x="460.290129" y="88.832432" style="fill: #55a868; stroke: #ffffff; stroke-width: 0.75"/>
     <use xlink:href="#m2c6433ddee" x="465.144698" y="85.618266" style="fill: #55a868; stroke: #ffffff; stroke-width: 0.75"/>
     <use xlink:href="#m2c6433ddee" x="469.97634" y="87.039729" style="fill: #55a868; stroke: #ffffff; stroke-width: 0.75"/>
     <use xlink:href="#m2c6433ddee" x="475.189237" y="89.303978" style="fill: #55a868; stroke: #ffffff; stroke-width: 0.75"/>
     <use xlink:href="#m2c6433ddee" x="480.282974" y="93.2504" style="fill: #55a868; stroke: #ffffff; stroke-width: 0.75"/>
     <use xlink:href="#m2c6433ddee" x="485.227454" y="98.992399" style="fill: #55a868; stroke: #ffffff; stroke-width: 0.75"/>
     <use xlink:href="#m2c6433ddee" x="490.146154" y="93.41089" style="fill: #55a868; stroke: #ffffff; stroke-width: 0.75"/>
     <use xlink:href="#m2c6433ddee" x="495.381272" y="100.370176" style="fill: #55a868; stroke: #ffffff; stroke-width: 0.75"/>
     <use xlink:href="#m2c6433ddee" x="500.247264" y="101.338748" style="fill: #55a868; stroke: #ffffff; stroke-width: 0.75"/>
     <use xlink:href="#m2c6433ddee" x="505.153143" y="102.767558" style="fill: #55a868; stroke: #ffffff; stroke-width: 0.75"/>
     <use xlink:href="#m2c6433ddee" x="510.004818" y="105.108825" style="fill: #55a868; stroke: #ffffff; stroke-width: 0.75"/>
     <use xlink:href="#m2c6433ddee" x="515.14922" y="103.942974" style="fill: #55a868; stroke: #ffffff; stroke-width: 0.75"/>
     <use xlink:href="#m2c6433ddee" x="520.006523" y="95.209373" style="fill: #55a868; stroke: #ffffff; stroke-width: 0.75"/>
     <use xlink:href="#m2c6433ddee" x="524.930953" y="69.058351" style="fill: #55a868; stroke: #ffffff; stroke-width: 0.75"/>
     <use xlink:href="#m2c6433ddee" x="529.908881" y="67.932492" style="fill: #55a868; stroke: #ffffff; stroke-width: 0.75"/>
     <use xlink:href="#m2c6433ddee" x="535.20985" y="65.36945" style="fill: #55a868; stroke: #ffffff; stroke-width: 0.75"/>
     <use xlink:href="#m2c6433ddee" x="540.177066" y="67.530366" style="fill: #55a868; stroke: #ffffff; stroke-width: 0.75"/>
     <use xlink:href="#m2c6433ddee" x="545.169593" y="71.222545" style="fill: #55a868; stroke: #ffffff; stroke-width: 0.75"/>
     <use xlink:href="#m2c6433ddee" x="550.124688" y="77.9916" style="fill: #55a868; stroke: #ffffff; stroke-width: 0.75"/>
     <use xlink:href="#m2c6433ddee" x="555.364236" y="99.077524" style="fill: #55a868; stroke: #ffffff; stroke-width: 0.75"/>
     <use xlink:href="#m2c6433ddee" x="560.253205" y="106.666522" style="fill: #55a868; stroke: #ffffff; stroke-width: 0.75"/>
     <use xlink:href="#m2c6433ddee" x="565.116824" y="94.999534" style="fill: #55a868; stroke: #ffffff; stroke-width: 0.75"/>
     <use xlink:href="#m2c6433ddee" x="569.944192" y="94.57686" style="fill: #55a868; stroke: #ffffff; stroke-width: 0.75"/>
     <use xlink:href="#m2c6433ddee" x="575.10144" y="94.792004" style="fill: #55a868; stroke: #ffffff; stroke-width: 0.75"/>
     <use xlink:href="#m2c6433ddee" x="580.007862" y="89.83742" style="fill: #55a868; stroke: #ffffff; stroke-width: 0.75"/>
     <use xlink:href="#m2c6433ddee" x="584.958666" y="97.413768" style="fill: #55a868; stroke: #ffffff; stroke-width: 0.75"/>
     <use xlink:href="#m2c6433ddee" x="589.893114" y="103.07629" style="fill: #55a868; stroke: #ffffff; stroke-width: 0.75"/>
     <use xlink:href="#m2c6433ddee" x="595.096152" y="98.59513" style="fill: #55a868; stroke: #ffffff; stroke-width: 0.75"/>
     <use xlink:href="#m2c6433ddee" x="599.985732" y="84.103869" style="fill: #55a868; stroke: #ffffff; stroke-width: 0.75"/>
     <use xlink:href="#m2c6433ddee" x="604.837991" y="81.308399" style="fill: #55a868; stroke: #ffffff; stroke-width: 0.75"/>
     <use xlink:href="#m2c6433ddee" x="609.654959" y="84.637177" style="fill: #55a868; stroke: #ffffff; stroke-width: 0.75"/>
     <use xlink:href="#m2c6433ddee" x="614.807648" y="84.433849" style="fill: #55a868; stroke: #ffffff; stroke-width: 0.75"/>
     <use xlink:href="#m2c6433ddee" x="619.662902" y="80.282267" style="fill: #55a868; stroke: #ffffff; stroke-width: 0.75"/>
     <use xlink:href="#m2c6433ddee" x="624.563617" y="75.813743" style="fill: #55a868; stroke: #ffffff; stroke-width: 0.75"/>
     <use xlink:href="#m2c6433ddee" x="629.529967" y="70.006748" style="fill: #55a868; stroke: #ffffff; stroke-width: 0.75"/>
     <use xlink:href="#m2c6433ddee" x="634.824496" y="70.264343" style="fill: #55a868; stroke: #ffffff; stroke-width: 0.75"/>
     <use xlink:href="#m2c6433ddee" x="639.82089" y="70.958037" style="fill: #55a868; stroke: #ffffff; stroke-width: 0.75"/>
     <use xlink:href="#m2c6433ddee" x="644.82742" y="71.684958" style="fill: #55a868; stroke: #ffffff; stroke-width: 0.75"/>
     <use xlink:href="#m2c6433ddee" x="649.826223" y="73.877" style="fill: #55a868; stroke: #ffffff; stroke-width: 0.75"/>
     <use xlink:href="#m2c6433ddee" x="655.06504" y="86.561403" style="fill: #55a868; stroke: #ffffff; stroke-width: 0.75"/>
     <use xlink:href="#m2c6433ddee" x="659.971169" y="73.622892" style="fill: #55a868; stroke: #ffffff; stroke-width: 0.75"/>
     <use xlink:href="#m2c6433ddee" x="664.868745" y="70.57382" style="fill: #55a868; stroke: #ffffff; stroke-width: 0.75"/>
     <use xlink:href="#m2c6433ddee" x="669.723572" y="73.747368" style="fill: #55a868; stroke: #ffffff; stroke-width: 0.75"/>
     <use xlink:href="#m2c6433ddee" x="674.855832" y="74.39657" style="fill: #55a868; stroke: #ffffff; stroke-width: 0.75"/>
     <use xlink:href="#m2c6433ddee" x="679.7505" y="81.40303" style="fill: #55a868; stroke: #ffffff; stroke-width: 0.75"/>
     <use xlink:href="#m2c6433ddee" x="684.864112" y="82.988783" style="fill: #55a868; stroke: #ffffff; stroke-width: 0.75"/>
     <use xlink:href="#m2c6433ddee" x="689.808092" y="77.370515" style="fill: #55a868; stroke: #ffffff; stroke-width: 0.75"/>
     <use xlink:href="#m2c6433ddee" x="694.994411" y="85.085673" style="fill: #55a868; stroke: #ffffff; stroke-width: 0.75"/>
     <use xlink:href="#m2c6433ddee" x="699.859999" y="84.856121" style="fill: #55a868; stroke: #ffffff; stroke-width: 0.75"/>
     <use xlink:href="#m2c6433ddee" x="704.689954" y="84.652509" style="fill: #55a868; stroke: #ffffff; stroke-width: 0.75"/>
     <use xlink:href="#m2c6433ddee" x="709.545742" y="90.193967" style="fill: #55a868; stroke: #ffffff; stroke-width: 0.75"/>
     <use xlink:href="#m2c6433ddee" x="714.696684" y="90.350538" style="fill: #55a868; stroke: #ffffff; stroke-width: 0.75"/>
     <use xlink:href="#m2c6433ddee" x="719.514074" y="86.596508" style="fill: #55a868; stroke: #ffffff; stroke-width: 0.75"/>
     <use xlink:href="#m2c6433ddee" x="724.378278" y="87.746625" style="fill: #55a868; stroke: #ffffff; stroke-width: 0.75"/>
     <use xlink:href="#m2c6433ddee" x="729.345719" y="72.973825" style="fill: #55a868; stroke: #ffffff; stroke-width: 0.75"/>
     <use xlink:href="#m2c6433ddee" x="734.653603" y="68.199831" style="fill: #55a868; stroke: #ffffff; stroke-width: 0.75"/>
     <use xlink:href="#m2c6433ddee" x="739.632804" y="73.308409" style="fill: #55a868; stroke: #ffffff; stroke-width: 0.75"/>
     <use xlink:href="#m2c6433ddee" x="744.623853" y="73.390613" style="fill: #55a868; stroke: #ffffff; stroke-width: 0.75"/>
     <use xlink:href="#m2c6433ddee" x="749.60106" y="72.645484" style="fill: #55a868; stroke: #ffffff; stroke-width: 0.75"/>
     <use xlink:href="#m2c6433ddee" x="754.871186" y="74.279276" style="fill: #55a868; stroke: #ffffff; stroke-width: 0.75"/>
     <use xlink:href="#m2c6433ddee" x="759.804151" y="70.544377" style="fill: #55a868; stroke: #ffffff; stroke-width: 0.75"/>
     <use xlink:href="#m2c6433ddee" x="764.719087" y="67.435153" style="fill: #55a868; stroke: #ffffff; stroke-width: 0.75"/>
     <use xlink:href="#m2c6433ddee" x="769.603656" y="67.070814" style="fill: #55a868; stroke: #ffffff; stroke-width: 0.75"/>
     <use xlink:href="#m2c6433ddee" x="774.726403" y="67.155864" style="fill: #55a868; stroke: #ffffff; stroke-width: 0.75"/>
     <use xlink:href="#m2c6433ddee" x="779.572714" y="70.783675" style="fill: #55a868; stroke: #ffffff; stroke-width: 0.75"/>
     <use xlink:href="#m2c6433ddee" x="784.500591" y="75.062504" style="fill: #55a868; stroke: #ffffff; stroke-width: 0.75"/>
     <use xlink:href="#m2c6433ddee" x="789.445619" y="74.112334" style="fill: #55a868; stroke: #ffffff; stroke-width: 0.75"/>
     <use xlink:href="#m2c6433ddee" x="794.65105" y="70.752831" style="fill: #55a868; stroke: #ffffff; stroke-width: 0.75"/>
     <use xlink:href="#m2c6433ddee" x="799.552305" y="71.777607" style="fill: #55a868; stroke: #ffffff; stroke-width: 0.75"/>
     <use xlink:href="#m2c6433ddee" x="804.422348" y="74.861709" style="fill: #55a868; stroke: #ffffff; stroke-width: 0.75"/>
     <use xlink:href="#m2c6433ddee" x="809.239031" y="74.588186" style="fill: #55a868; stroke: #ffffff; stroke-width: 0.75"/>
     <use xlink:href="#m2c6433ddee" x="814.37948" y="73.263186" style="fill: #55a868; stroke: #ffffff; stroke-width: 0.75"/>
     <use xlink:href="#m2c6433ddee" x="819.195462" y="72.812128" style="fill: #55a868; stroke: #ffffff; stroke-width: 0.75"/>
     <use xlink:href="#m2c6433ddee" x="824.064584" y="70.944746" style="fill: #55a868; stroke: #ffffff; stroke-width: 0.75"/>
     <use xlink:href="#m2c6433ddee" x="828.980396" y="65.18725" style="fill: #55a868; stroke: #ffffff; stroke-width: 0.75"/>
     <use xlink:href="#m2c6433ddee" x="834.306985" y="68.769973" style="fill: #55a868; stroke: #ffffff; stroke-width: 0.75"/>
     <use xlink:href="#m2c6433ddee" x="839.293182" y="64.871306" style="fill: #55a868; stroke: #ffffff; stroke-width: 0.75"/>
     <use xlink:href="#m2c6433ddee" x="844.272096" y="63.823346" style="fill: #55a868; stroke: #ffffff; stroke-width: 0.75"/>
     <use xlink:href="#m2c6433ddee" x="849.268208" y="64.591749" style="fill: #55a868; stroke: #ffffff; stroke-width: 0.75"/>
     <use xlink:href="#m2c6433ddee" x="854.602321" y="62.188377" style="fill: #55a868; stroke: #ffffff; stroke-width: 0.75"/>
     <use xlink:href="#m2c6433ddee" x="859.52359" y="69.502734" style="fill: #55a868; stroke: #ffffff; stroke-width: 0.75"/>
     <use xlink:href="#m2c6433ddee" x="864.471144" y="67.643488" style="fill: #55a868; stroke: #ffffff; stroke-width: 0.75"/>
     <use xlink:href="#m2c6433ddee" x="869.319431" y="66.528536" style="fill: #55a868; stroke: #ffffff; stroke-width: 0.75"/>
     <use xlink:href="#m2c6433ddee" x="874.460046" y="63.865722" style="fill: #55a868; stroke: #ffffff; stroke-width: 0.75"/>
     <use xlink:href="#m2c6433ddee" x="879.281043" y="65.304068" style="fill: #55a868; stroke: #ffffff; stroke-width: 0.75"/>
    </g>
   </g>
   <g id="patch_3">
    <path d="M 74.52 365.22 
L 74.52 39.12 
" style="fill: none; stroke: #cccccc; stroke-width: 1.25; stroke-linejoin: miter; stroke-linecap: square"/>
   </g>
   <g id="patch_4">
    <path d="M 690.075 365.22 
L 690.075 39.12 
" style="fill: none; stroke: #cccccc; stroke-width: 1.25; stroke-linejoin: miter; stroke-linecap: square"/>
   </g>
   <g id="patch_5">
    <path d="M 74.52 365.22 
L 690.075 365.22 
" style="fill: none; stroke: #cccccc; stroke-width: 1.25; stroke-linejoin: miter; stroke-linecap: square"/>
   </g>
   <g id="patch_6">
    <path d="M 74.52 39.12 
L 690.075 39.12 
" style="fill: none; stroke: #cccccc; stroke-width: 1.25; stroke-linejoin: miter; stroke-linecap: square"/>
   </g>
   <g id="text_19">
    <!-- Isaac-Velocity-Flat-Unitree-A1 -->
    <g style="fill: #262626" transform="translate(250.072031 33.12) scale(0.18 -0.18)">
     <defs>
      <path id="DejaVuSans-49" d="M 628 4666 
L 1259 4666 
L 1259 0 
L 628 0 
L 628 4666 
z
" transform="scale(0.015625)"/>
      <path id="DejaVuSans-63" d="M 3122 3366 
L 3122 2828 
Q 2878 2963 2633 3030 
Q 2388 3097 2138 3097 
Q 1578 3097 1268 2742 
Q 959 2388 959 1747 
Q 959 1106 1268 751 
Q 1578 397 2138 397 
Q 2388 397 2633 464 
Q 2878 531 3122 666 
L 3122 134 
Q 2881 22 2623 -34 
Q 2366 -91 2075 -91 
Q 1284 -91 818 406 
Q 353 903 353 1747 
Q 353 2603 823 3093 
Q 1294 3584 2113 3584 
Q 2378 3584 2631 3529 
Q 2884 3475 3122 3366 
z
" transform="scale(0.015625)"/>
      <path id="DejaVuSans-2d" d="M 313 2009 
L 1997 2009 
L 1997 1497 
L 313 1497 
L 313 2009 
z
" transform="scale(0.015625)"/>
      <path id="DejaVuSans-56" d="M 1831 0 
L 50 4666 
L 709 4666 
L 2188 738 
L 3669 4666 
L 4325 4666 
L 2547 0 
L 1831 0 
z
" transform="scale(0.015625)"/>
      <path id="DejaVuSans-6c" d="M 603 4863 
L 1178 4863 
L 1178 0 
L 603 0 
L 603 4863 
z
" transform="scale(0.015625)"/>
      <path id="DejaVuSans-79" d="M 2059 -325 
Q 1816 -950 1584 -1140 
Q 1353 -1331 966 -1331 
L 506 -1331 
L 506 -850 
L 844 -850 
Q 1081 -850 1212 -737 
Q 1344 -625 1503 -206 
L 1606 56 
L 191 3500 
L 800 3500 
L 1894 763 
L 2988 3500 
L 3597 3500 
L 2059 -325 
z
" transform="scale(0.015625)"/>
      <path id="DejaVuSans-46" d="M 628 4666 
L 3309 4666 
L 3309 4134 
L 1259 4134 
L 1259 2759 
L 3109 2759 
L 3109 2228 
L 1259 2228 
L 1259 0 
L 628 0 
L 628 4666 
z
" transform="scale(0.015625)"/>
      <path id="DejaVuSans-55" d="M 556 4666 
L 1191 4666 
L 1191 1831 
Q 1191 1081 1462 751 
Q 1734 422 2344 422 
Q 2950 422 3222 751 
Q 3494 1081 3494 1831 
L 3494 4666 
L 4128 4666 
L 4128 1753 
Q 4128 841 3676 375 
Q 3225 -91 2344 -91 
Q 1459 -91 1007 375 
Q 556 841 556 1753 
L 556 4666 
z
" transform="scale(0.015625)"/>
      <path id="DejaVuSans-41" d="M 2188 4044 
L 1331 1722 
L 3047 1722 
L 2188 4044 
z
M 1831 4666 
L 2547 4666 
L 4325 0 
L 3669 0 
L 3244 1197 
L 1141 1197 
L 716 0 
L 50 0 
L 1831 4666 
z
" transform="scale(0.015625)"/>
     </defs>
     <use xlink:href="#DejaVuSans-49"/>
     <use xlink:href="#DejaVuSans-73" transform="translate(29.492188 0)"/>
     <use xlink:href="#DejaVuSans-61" transform="translate(81.591797 0)"/>
     <use xlink:href="#DejaVuSans-61" transform="translate(142.871094 0)"/>
     <use xlink:href="#DejaVuSans-63" transform="translate(204.150391 0)"/>
     <use xlink:href="#DejaVuSans-2d" transform="translate(259.130859 0)"/>
     <use xlink:href="#DejaVuSans-56" transform="translate(289.339844 0)"/>
     <use xlink:href="#DejaVuSans-65" transform="translate(349.998047 0)"/>
     <use xlink:href="#DejaVuSans-6c" transform="translate(411.521484 0)"/>
     <use xlink:href="#DejaVuSans-6f" transform="translate(439.304688 0)"/>
     <use xlink:href="#DejaVuSans-63" transform="translate(500.486328 0)"/>
     <use xlink:href="#DejaVuSans-69" transform="translate(555.466797 0)"/>
     <use xlink:href="#DejaVuSans-74" transform="translate(583.25 0)"/>
     <use xlink:href="#DejaVuSans-79" transform="translate(622.458984 0)"/>
     <use xlink:href="#DejaVuSans-2d" transform="translate(679.888672 0)"/>
     <use xlink:href="#DejaVuSans-46" transform="translate(715.972656 0)"/>
     <use xlink:href="#DejaVuSans-6c" transform="translate(773.492188 0)"/>
     <use xlink:href="#DejaVuSans-61" transform="translate(801.275391 0)"/>
     <use xlink:href="#DejaVuSans-74" transform="translate(862.554688 0)"/>
     <use xlink:href="#DejaVuSans-2d" transform="translate(901.763672 0)"/>
     <use xlink:href="#DejaVuSans-55" transform="translate(937.847656 0)"/>
     <use xlink:href="#DejaVuSans-6e" transform="translate(1011.041016 0)"/>
     <use xlink:href="#DejaVuSans-69" transform="translate(1074.419922 0)"/>
     <use xlink:href="#DejaVuSans-74" transform="translate(1102.203125 0)"/>
     <use xlink:href="#DejaVuSans-72" transform="translate(1141.412109 0)"/>
     <use xlink:href="#DejaVuSans-65" transform="translate(1180.275391 0)"/>
     <use xlink:href="#DejaVuSans-65" transform="translate(1241.798828 0)"/>
     <use xlink:href="#DejaVuSans-2d" transform="translate(1303.322266 0)"/>
     <use xlink:href="#DejaVuSans-41" transform="translate(1337.15625 0)"/>
     <use xlink:href="#DejaVuSans-31" transform="translate(1405.564453 0)"/>
    </g>
   </g>
   <g id="legend_1">
    <g id="patch_7">
     <path d="M 389.205234 356.97 
L 678.525 356.97 
Q 681.825 356.97 681.825 353.67 
L 681.825 282.663281 
Q 681.825 279.363281 678.525 279.363281 
L 389.205234 279.363281 
Q 385.905234 279.363281 385.905234 282.663281 
L 385.905234 353.67 
Q 385.905234 356.97 389.205234 356.97 
z
" style="fill: #ffffff; opacity: 0.8; stroke: #cccccc; stroke-linejoin: miter"/>
    </g>
    <g id="line2d_20">
     <path d="M 392.505234 292.725703 
L 409.005234 292.725703 
L 425.505234 292.725703 
" style="fill: none; stroke: #4c72b0; stroke-opacity: 0.5; stroke-width: 1.5; stroke-linecap: round"/>
    </g>
    <g id="text_20">
     <!-- PPO tuned for speed -->
     <g style="fill: #262626" transform="translate(438.705234 298.500703) scale(0.165 -0.165)">
      <defs>
       <path id="DejaVuSans-50" d="M 1259 4147 
L 1259 2394 
L 2053 2394 
Q 2494 2394 2734 2622 
Q 2975 2850 2975 3272 
Q 2975 3691 2734 3919 
Q 2494 4147 2053 4147 
L 1259 4147 
z
M 628 4666 
L 2053 4666 
Q 2838 4666 3239 4311 
Q 3641 3956 3641 3272 
Q 3641 2581 3239 2228 
Q 2838 1875 2053 1875 
L 1259 1875 
L 1259 0 
L 628 0 
L 628 4666 
z
" transform="scale(0.015625)"/>
       <path id="DejaVuSans-4f" d="M 2522 4238 
Q 1834 4238 1429 3725 
Q 1025 3213 1025 2328 
Q 1025 1447 1429 934 
Q 1834 422 2522 422 
Q 3209 422 3611 934 
Q 4013 1447 4013 2328 
Q 4013 3213 3611 3725 
Q 3209 4238 2522 4238 
z
M 2522 4750 
Q 3503 4750 4090 4092 
Q 4678 3434 4678 2328 
Q 4678 1225 4090 567 
Q 3503 -91 2522 -91 
Q 1538 -91 948 565 
Q 359 1222 359 2328 
Q 359 3434 948 4092 
Q 1538 4750 2522 4750 
z
" transform="scale(0.015625)"/>
       <path id="DejaVuSans-66" d="M 2375 4863 
L 2375 4384 
L 1825 4384 
Q 1516 4384 1395 4259 
Q 1275 4134 1275 3809 
L 1275 3500 
L 2222 3500 
L 2222 3053 
L 1275 3053 
L 1275 0 
L 697 0 
L 697 3053 
L 147 3053 
L 147 3500 
L 697 3500 
L 697 3744 
Q 697 4328 969 4595 
Q 1241 4863 1831 4863 
L 2375 4863 
z
" transform="scale(0.015625)"/>
      </defs>
      <use xlink:href="#DejaVuSans-50"/>
      <use xlink:href="#DejaVuSans-50" transform="translate(60.302734 0)"/>
      <use xlink:href="#DejaVuSans-4f" transform="translate(120.605469 0)"/>
      <use xlink:href="#DejaVuSans-20" transform="translate(199.316406 0)"/>
      <use xlink:href="#DejaVuSans-74" transform="translate(231.103516 0)"/>
      <use xlink:href="#DejaVuSans-75" transform="translate(270.3125 0)"/>
      <use xlink:href="#DejaVuSans-6e" transform="translate(333.691406 0)"/>
      <use xlink:href="#DejaVuSans-65" transform="translate(397.070312 0)"/>
      <use xlink:href="#DejaVuSans-64" transform="translate(458.59375 0)"/>
      <use xlink:href="#DejaVuSans-20" transform="translate(522.070312 0)"/>
      <use xlink:href="#DejaVuSans-66" transform="translate(553.857422 0)"/>
      <use xlink:href="#DejaVuSans-6f" transform="translate(589.0625 0)"/>
      <use xlink:href="#DejaVuSans-72" transform="translate(650.244141 0)"/>
      <use xlink:href="#DejaVuSans-20" transform="translate(691.357422 0)"/>
      <use xlink:href="#DejaVuSans-73" transform="translate(723.144531 0)"/>
      <use xlink:href="#DejaVuSans-70" transform="translate(775.244141 0)"/>
      <use xlink:href="#DejaVuSans-65" transform="translate(838.720703 0)"/>
      <use xlink:href="#DejaVuSans-65" transform="translate(900.244141 0)"/>
      <use xlink:href="#DejaVuSans-64" transform="translate(961.767578 0)"/>
     </g>
    </g>
    <g id="line2d_21">
     <path d="M 392.505234 316.944609 
L 409.005234 316.944609 
L 425.505234 316.944609 
" style="fill: none; stroke: #dd8452; stroke-width: 1.5; stroke-linecap: round"/>
     <g>
      <use xlink:href="#mb108a3a0cd" x="409.005234" y="316.944609" style="fill: #dd8452; stroke: #ffffff; stroke-width: 0.75"/>
     </g>
    </g>
    <g id="text_21">
     <!-- SAC with quick fix -->
     <g style="fill: #262626" transform="translate(438.705234 322.719609) scale(0.165 -0.165)">
      <defs>
       <path id="DejaVuSans-53" d="M 3425 4513 
L 3425 3897 
Q 3066 4069 2747 4153 
Q 2428 4238 2131 4238 
Q 1616 4238 1336 4038 
Q 1056 3838 1056 3469 
Q 1056 3159 1242 3001 
Q 1428 2844 1947 2747 
L 2328 2669 
Q 3034 2534 3370 2195 
Q 3706 1856 3706 1288 
Q 3706 609 3251 259 
Q 2797 -91 1919 -91 
Q 1588 -91 1214 -16 
Q 841 59 441 206 
L 441 856 
Q 825 641 1194 531 
Q 1563 422 1919 422 
Q 2459 422 2753 634 
Q 3047 847 3047 1241 
Q 3047 1584 2836 1778 
Q 2625 1972 2144 2069 
L 1759 2144 
Q 1053 2284 737 2584 
Q 422 2884 422 3419 
Q 422 4038 858 4394 
Q 1294 4750 2059 4750 
Q 2388 4750 2728 4690 
Q 3069 4631 3425 4513 
z
" transform="scale(0.015625)"/>
       <path id="DejaVuSans-43" d="M 4122 4306 
L 4122 3641 
Q 3803 3938 3442 4084 
Q 3081 4231 2675 4231 
Q 1875 4231 1450 3742 
Q 1025 3253 1025 2328 
Q 1025 1406 1450 917 
Q 1875 428 2675 428 
Q 3081 428 3442 575 
Q 3803 722 4122 1019 
L 4122 359 
Q 3791 134 3420 21 
Q 3050 -91 2638 -91 
Q 1578 -91 968 557 
Q 359 1206 359 2328 
Q 359 3453 968 4101 
Q 1578 4750 2638 4750 
Q 3056 4750 3426 4639 
Q 3797 4528 4122 4306 
z
" transform="scale(0.015625)"/>
       <path id="DejaVuSans-77" d="M 269 3500 
L 844 3500 
L 1563 769 
L 2278 3500 
L 2956 3500 
L 3675 769 
L 4391 3500 
L 4966 3500 
L 4050 0 
L 3372 0 
L 2619 2869 
L 1863 0 
L 1184 0 
L 269 3500 
z
" transform="scale(0.015625)"/>
       <path id="DejaVuSans-68" d="M 3513 2113 
L 3513 0 
L 2938 0 
L 2938 2094 
Q 2938 2591 2744 2837 
Q 2550 3084 2163 3084 
Q 1697 3084 1428 2787 
Q 1159 2491 1159 1978 
L 1159 0 
L 581 0 
L 581 4863 
L 1159 4863 
L 1159 2956 
Q 1366 3272 1645 3428 
Q 1925 3584 2291 3584 
Q 2894 3584 3203 3211 
Q 3513 2838 3513 2113 
z
" transform="scale(0.015625)"/>
       <path id="DejaVuSans-71" d="M 947 1747 
Q 947 1113 1208 752 
Q 1469 391 1925 391 
Q 2381 391 2643 752 
Q 2906 1113 2906 1747 
Q 2906 2381 2643 2742 
Q 2381 3103 1925 3103 
Q 1469 3103 1208 2742 
Q 947 2381 947 1747 
z
M 2906 525 
Q 2725 213 2448 61 
Q 2172 -91 1784 -91 
Q 1150 -91 751 415 
Q 353 922 353 1747 
Q 353 2572 751 3078 
Q 1150 3584 1784 3584 
Q 2172 3584 2448 3432 
Q 2725 3281 2906 2969 
L 2906 3500 
L 3481 3500 
L 3481 -1331 
L 2906 -1331 
L 2906 525 
z
" transform="scale(0.015625)"/>
       <path id="DejaVuSans-6b" d="M 581 4863 
L 1159 4863 
L 1159 1991 
L 2875 3500 
L 3609 3500 
L 1753 1863 
L 3688 0 
L 2938 0 
L 1159 1709 
L 1159 0 
L 581 0 
L 581 4863 
z
" transform="scale(0.015625)"/>
       <path id="DejaVuSans-78" d="M 3513 3500 
L 2247 1797 
L 3578 0 
L 2900 0 
L 1881 1375 
L 863 0 
L 184 0 
L 1544 1831 
L 300 3500 
L 978 3500 
L 1906 2253 
L 2834 3500 
L 3513 3500 
z
" transform="scale(0.015625)"/>
      </defs>
      <use xlink:href="#DejaVuSans-53"/>
      <use xlink:href="#DejaVuSans-41" transform="translate(65.351562 0)"/>
      <use xlink:href="#DejaVuSans-43" transform="translate(132.009766 0)"/>
      <use xlink:href="#DejaVuSans-20" transform="translate(201.833984 0)"/>
      <use xlink:href="#DejaVuSans-77" transform="translate(233.621094 0)"/>
      <use xlink:href="#DejaVuSans-69" transform="translate(315.408203 0)"/>
      <use xlink:href="#DejaVuSans-74" transform="translate(343.191406 0)"/>
      <use xlink:href="#DejaVuSans-68" transform="translate(382.400391 0)"/>
      <use xlink:href="#DejaVuSans-20" transform="translate(445.779297 0)"/>
      <use xlink:href="#DejaVuSans-71" transform="translate(477.566406 0)"/>
      <use xlink:href="#DejaVuSans-75" transform="translate(541.042969 0)"/>
      <use xlink:href="#DejaVuSans-69" transform="translate(604.421875 0)"/>
      <use xlink:href="#DejaVuSans-63" transform="translate(632.205078 0)"/>
      <use xlink:href="#DejaVuSans-6b" transform="translate(687.185547 0)"/>
      <use xlink:href="#DejaVuSans-20" transform="translate(745.095703 0)"/>
      <use xlink:href="#DejaVuSans-66" transform="translate(776.882812 0)"/>
      <use xlink:href="#DejaVuSans-69" transform="translate(812.087891 0)"/>
      <use xlink:href="#DejaVuSans-78" transform="translate(839.871094 0)"/>
     </g>
    </g>
    <g id="line2d_22">
     <path d="M 392.505234 341.163516 
L 409.005234 341.163516 
L 425.505234 341.163516 
" style="fill: none; stroke: #55a868; stroke-width: 1.5; stroke-linecap: round"/>
     <g>
      <use xlink:href="#m2c6433ddee" x="409.005234" y="341.163516" style="fill: #55a868; stroke: #ffffff; stroke-width: 0.75"/>
     </g>
    </g>
    <g id="text_22">
     <!-- SAC tuned for speed (part II) -->
     <g style="fill: #262626" transform="translate(438.705234 346.938516) scale(0.165 -0.165)">
      <use xlink:href="#DejaVuSans-53"/>
      <use xlink:href="#DejaVuSans-41" transform="translate(65.351562 0)"/>
      <use xlink:href="#DejaVuSans-43" transform="translate(132.009766 0)"/>
      <use xlink:href="#DejaVuSans-20" transform="translate(201.833984 0)"/>
      <use xlink:href="#DejaVuSans-74" transform="translate(233.621094 0)"/>
      <use xlink:href="#DejaVuSans-75" transform="translate(272.830078 0)"/>
      <use xlink:href="#DejaVuSans-6e" transform="translate(336.208984 0)"/>
      <use xlink:href="#DejaVuSans-65" transform="translate(399.587891 0)"/>
      <use xlink:href="#DejaVuSans-64" transform="translate(461.111328 0)"/>
      <use xlink:href="#DejaVuSans-20" transform="translate(524.587891 0)"/>
      <use xlink:href="#DejaVuSans-66" transform="translate(556.375 0)"/>
      <use xlink:href="#DejaVuSans-6f" transform="translate(591.580078 0)"/>
      <use xlink:href="#DejaVuSans-72" transform="translate(652.761719 0)"/>
      <use xlink:href="#DejaVuSans-20" transform="translate(693.875 0)"/>
      <use xlink:href="#DejaVuSans-73" transform="translate(725.662109 0)"/>
      <use xlink:href="#DejaVuSans-70" transform="translate(777.761719 0)"/>
      <use xlink:href="#DejaVuSans-65" transform="translate(841.238281 0)"/>
      <use xlink:href="#DejaVuSans-65" transform="translate(902.761719 0)"/>
      <use xlink:href="#DejaVuSans-64" transform="translate(964.285156 0)"/>
      <use xlink:href="#DejaVuSans-20" transform="translate(1027.761719 0)"/>
      <use xlink:href="#DejaVuSans-28" transform="translate(1059.548828 0)"/>
      <use xlink:href="#DejaVuSans-70" transform="translate(1098.5625 0)"/>
      <use xlink:href="#DejaVuSans-61" transform="translate(1162.039062 0)"/>
      <use xlink:href="#DejaVuSans-72" transform="translate(1223.318359 0)"/>
      <use xlink:href="#DejaVuSans-74" transform="translate(1264.431641 0)"/>
      <use xlink:href="#DejaVuSans-20" transform="translate(1303.640625 0)"/>
      <use xlink:href="#DejaVuSans-49" transform="translate(1335.427734 0)"/>
      <use xlink:href="#DejaVuSans-49" transform="translate(1364.919922 0)"/>
      <use xlink:href="#DejaVuSans-29" transform="translate(1394.412109 0)"/>
     </g>
    </g>
   </g>
  </g>
 </g>
 <defs>
  <clipPath id="pcdc1763943">
   <rect x="74.52" y="39.12" width="615.555" height="326.1"/>
  </clipPath>
 </defs>
</svg>
