<?xml version="1.0" encoding="utf-8" standalone="no"?>
<!DOCTYPE svg PUBLIC "-//W3C//DTD SVG 1.1//EN"
  "http://www.w3.org/Graphics/SVG/1.1/DTD/svg11.dtd">
<svg xmlns:xlink="http://www.w3.org/1999/xlink" width="720pt" height="432pt" viewBox="0 0 720 432" xmlns="http://www.w3.org/2000/svg" version="1.1">
 <metadata>
  <rdf:RDF xmlns:dc="http://purl.org/dc/elements/1.1/" xmlns:cc="http://creativecommons.org/ns#" xmlns:rdf="http://www.w3.org/1999/02/22-rdf-syntax-ns#">
   <cc:Work>
    <dc:type rdf:resource="http://purl.org/dc/dcmitype/StillImage"/>
    <dc:date>2025-05-16T12:08:23.651556</dc:date>
    <dc:format>image/svg+xml</dc:format>
    <dc:creator>
     <cc:Agent>
      <dc:title>Matplotlib v3.10.3, https://matplotlib.org/</dc:title>
     </cc:Agent>
    </dc:creator>
   </cc:Work>
  </rdf:RDF>
 </metadata>
 <defs>
  <style type="text/css">*{stroke-linejoin: round; stroke-linecap: butt}</style>
 </defs>
 <g id="figure_1">
  <g id="patch_1">
   <path d="M 0 432 
L 720 432 
L 720 0 
L 0 0 
z
" style="fill: #ffffff"/>
  </g>
  <g id="axes_1">
   <g id="patch_2">
    <path d="M 74.52 365.22 
L 690.075 365.22 
L 690.075 39.12 
L 74.52 39.12 
z
" style="fill: #ffffff"/>
   </g>
   <g id="matplotlib.axis_1">
    <g id="xtick_1">
     <g id="line2d_1">
      <path d="M 74.52 365.22 
L 74.52 39.12 
" clip-path="url(#pcce108cb7f)" style="fill: none; stroke: #cccccc; stroke-linecap: round"/>
     </g>
     <g id="text_1">
      <!-- 0 -->
      <g style="fill: #262626" transform="translate(69.270938 387.257422) scale(0.165 -0.165)">
       <defs>
        <path id="DejaVuSans-30" d="M 2034 4250 
Q 1547 4250 1301 3770 
Q 1056 3291 1056 2328 
Q 1056 1369 1301 889 
Q 1547 409 2034 409 
Q 2525 409 2770 889 
Q 3016 1369 3016 2328 
Q 3016 3291 2770 3770 
Q 2525 4250 2034 4250 
z
M 2034 4750 
Q 2819 4750 3233 4129 
Q 3647 3509 3647 2328 
Q 3647 1150 3233 529 
Q 2819 -91 2034 -91 
Q 1250 -91 836 529 
Q 422 1150 422 2328 
Q 422 3509 836 4129 
Q 1250 4750 2034 4750 
z
" transform="scale(0.015625)"/>
       </defs>
       <use xlink:href="#DejaVuSans-30"/>
      </g>
     </g>
    </g>
    <g id="xtick_2">
     <g id="line2d_2">
      <path d="M 177.1125 365.22 
L 177.1125 39.12 
" clip-path="url(#pcce108cb7f)" style="fill: none; stroke: #cccccc; stroke-linecap: round"/>
     </g>
     <g id="text_2">
      <!-- 2 -->
      <g style="fill: #262626" transform="translate(171.863438 387.257422) scale(0.165 -0.165)">
       <defs>
        <path id="DejaVuSans-32" d="M 1228 531 
L 3431 531 
L 3431 0 
L 469 0 
L 469 531 
Q 828 903 1448 1529 
Q 2069 2156 2228 2338 
Q 2531 2678 2651 2914 
Q 2772 3150 2772 3378 
Q 2772 3750 2511 3984 
Q 2250 4219 1831 4219 
Q 1534 4219 1204 4116 
Q 875 4013 500 3803 
L 500 4441 
Q 881 4594 1212 4672 
Q 1544 4750 1819 4750 
Q 2544 4750 2975 4387 
Q 3406 4025 3406 3419 
Q 3406 3131 3298 2873 
Q 3191 2616 2906 2266 
Q 2828 2175 2409 1742 
Q 1991 1309 1228 531 
z
" transform="scale(0.015625)"/>
       </defs>
       <use xlink:href="#DejaVuSans-32"/>
      </g>
     </g>
    </g>
    <g id="xtick_3">
     <g id="line2d_3">
      <path d="M 279.705 365.22 
L 279.705 39.12 
" clip-path="url(#pcce108cb7f)" style="fill: none; stroke: #cccccc; stroke-linecap: round"/>
     </g>
     <g id="text_3">
      <!-- 4 -->
      <g style="fill: #262626" transform="translate(274.455938 387.257422) scale(0.165 -0.165)">
       <defs>
        <path id="DejaVuSans-34" d="M 2419 4116 
L 825 1625 
L 2419 1625 
L 2419 4116 
z
M 2253 4666 
L 3047 4666 
L 3047 1625 
L 3713 1625 
L 3713 1100 
L 3047 1100 
L 3047 0 
L 2419 0 
L 2419 1100 
L 313 1100 
L 313 1709 
L 2253 4666 
z
" transform="scale(0.015625)"/>
       </defs>
       <use xlink:href="#DejaVuSans-34"/>
      </g>
     </g>
    </g>
    <g id="xtick_4">
     <g id="line2d_4">
      <path d="M 382.2975 365.22 
L 382.2975 39.12 
" clip-path="url(#pcce108cb7f)" style="fill: none; stroke: #cccccc; stroke-linecap: round"/>
     </g>
     <g id="text_4">
      <!-- 6 -->
      <g style="fill: #262626" transform="translate(377.048438 387.257422) scale(0.165 -0.165)">
       <defs>
        <path id="DejaVuSans-36" d="M 2113 2584 
Q 1688 2584 1439 2293 
Q 1191 2003 1191 1497 
Q 1191 994 1439 701 
Q 1688 409 2113 409 
Q 2538 409 2786 701 
Q 3034 994 3034 1497 
Q 3034 2003 2786 2293 
Q 2538 2584 2113 2584 
z
M 3366 4563 
L 3366 3988 
Q 3128 4100 2886 4159 
Q 2644 4219 2406 4219 
Q 1781 4219 1451 3797 
Q 1122 3375 1075 2522 
Q 1259 2794 1537 2939 
Q 1816 3084 2150 3084 
Q 2853 3084 3261 2657 
Q 3669 2231 3669 1497 
Q 3669 778 3244 343 
Q 2819 -91 2113 -91 
Q 1303 -91 875 529 
Q 447 1150 447 2328 
Q 447 3434 972 4092 
Q 1497 4750 2381 4750 
Q 2619 4750 2861 4703 
Q 3103 4656 3366 4563 
z
" transform="scale(0.015625)"/>
       </defs>
       <use xlink:href="#DejaVuSans-36"/>
      </g>
     </g>
    </g>
    <g id="xtick_5">
     <g id="line2d_5">
      <path d="M 484.89 365.22 
L 484.89 39.12 
" clip-path="url(#pcce108cb7f)" style="fill: none; stroke: #cccccc; stroke-linecap: round"/>
     </g>
     <g id="text_5">
      <!-- 8 -->
      <g style="fill: #262626" transform="translate(479.640938 387.257422) scale(0.165 -0.165)">
       <defs>
        <path id="DejaVuSans-38" d="M 2034 2216 
Q 1584 2216 1326 1975 
Q 1069 1734 1069 1313 
Q 1069 891 1326 650 
Q 1584 409 2034 409 
Q 2484 409 2743 651 
Q 3003 894 3003 1313 
Q 3003 1734 2745 1975 
Q 2488 2216 2034 2216 
z
M 1403 2484 
Q 997 2584 770 2862 
Q 544 3141 544 3541 
Q 544 4100 942 4425 
Q 1341 4750 2034 4750 
Q 2731 4750 3128 4425 
Q 3525 4100 3525 3541 
Q 3525 3141 3298 2862 
Q 3072 2584 2669 2484 
Q 3125 2378 3379 2068 
Q 3634 1759 3634 1313 
Q 3634 634 3220 271 
Q 2806 -91 2034 -91 
Q 1263 -91 848 271 
Q 434 634 434 1313 
Q 434 1759 690 2068 
Q 947 2378 1403 2484 
z
M 1172 3481 
Q 1172 3119 1398 2916 
Q 1625 2713 2034 2713 
Q 2441 2713 2670 2916 
Q 2900 3119 2900 3481 
Q 2900 3844 2670 4047 
Q 2441 4250 2034 4250 
Q 1625 4250 1398 4047 
Q 1172 3844 1172 3481 
z
" transform="scale(0.015625)"/>
       </defs>
       <use xlink:href="#DejaVuSans-38"/>
      </g>
     </g>
    </g>
    <g id="xtick_6">
     <g id="line2d_6">
      <path d="M 587.4825 365.22 
L 587.4825 39.12 
" clip-path="url(#pcce108cb7f)" style="fill: none; stroke: #cccccc; stroke-linecap: round"/>
     </g>
     <g id="text_6">
      <!-- 10 -->
      <g style="fill: #262626" transform="translate(576.984375 387.257422) scale(0.165 -0.165)">
       <defs>
        <path id="DejaVuSans-31" d="M 794 531 
L 1825 531 
L 1825 4091 
L 703 3866 
L 703 4441 
L 1819 4666 
L 2450 4666 
L 2450 531 
L 3481 531 
L 3481 0 
L 794 0 
L 794 531 
z
" transform="scale(0.015625)"/>
       </defs>
       <use xlink:href="#DejaVuSans-31"/>
       <use xlink:href="#DejaVuSans-30" transform="translate(63.623047 0)"/>
      </g>
     </g>
    </g>
    <g id="xtick_7">
     <g id="line2d_7">
      <path d="M 690.075 365.22 
L 690.075 39.12 
" clip-path="url(#pcce108cb7f)" style="fill: none; stroke: #cccccc; stroke-linecap: round"/>
     </g>
     <g id="text_7">
      <!-- 12 -->
      <g style="fill: #262626" transform="translate(679.576875 387.257422) scale(0.165 -0.165)">
       <use xlink:href="#DejaVuSans-31"/>
       <use xlink:href="#DejaVuSans-32" transform="translate(63.623047 0)"/>
      </g>
     </g>
    </g>
    <g id="text_8">
     <!-- Time (minutes) -->
     <g style="fill: #262626" transform="translate(313.965 408.366094) scale(0.18 -0.18)">
      <defs>
       <path id="DejaVuSans-54" d="M -19 4666 
L 3928 4666 
L 3928 4134 
L 2272 4134 
L 2272 0 
L 1638 0 
L 1638 4134 
L -19 4134 
L -19 4666 
z
" transform="scale(0.015625)"/>
       <path id="DejaVuSans-69" d="M 603 3500 
L 1178 3500 
L 1178 0 
L 603 0 
L 603 3500 
z
M 603 4863 
L 1178 4863 
L 1178 4134 
L 603 4134 
L 603 4863 
z
" transform="scale(0.015625)"/>
       <path id="DejaVuSans-6d" d="M 3328 2828 
Q 3544 3216 3844 3400 
Q 4144 3584 4550 3584 
Q 5097 3584 5394 3201 
Q 5691 2819 5691 2113 
L 5691 0 
L 5113 0 
L 5113 2094 
Q 5113 2597 4934 2840 
Q 4756 3084 4391 3084 
Q 3944 3084 3684 2787 
Q 3425 2491 3425 1978 
L 3425 0 
L 2847 0 
L 2847 2094 
Q 2847 2600 2669 2842 
Q 2491 3084 2119 3084 
Q 1678 3084 1418 2786 
Q 1159 2488 1159 1978 
L 1159 0 
L 581 0 
L 581 3500 
L 1159 3500 
L 1159 2956 
Q 1356 3278 1631 3431 
Q 1906 3584 2284 3584 
Q 2666 3584 2933 3390 
Q 3200 3197 3328 2828 
z
" transform="scale(0.015625)"/>
       <path id="DejaVuSans-65" d="M 3597 1894 
L 3597 1613 
L 953 1613 
Q 991 1019 1311 708 
Q 1631 397 2203 397 
Q 2534 397 2845 478 
Q 3156 559 3463 722 
L 3463 178 
Q 3153 47 2828 -22 
Q 2503 -91 2169 -91 
Q 1331 -91 842 396 
Q 353 884 353 1716 
Q 353 2575 817 3079 
Q 1281 3584 2069 3584 
Q 2775 3584 3186 3129 
Q 3597 2675 3597 1894 
z
M 3022 2063 
Q 3016 2534 2758 2815 
Q 2500 3097 2075 3097 
Q 1594 3097 1305 2825 
Q 1016 2553 972 2059 
L 3022 2063 
z
" transform="scale(0.015625)"/>
       <path id="DejaVuSans-20" transform="scale(0.015625)"/>
       <path id="DejaVuSans-28" d="M 1984 4856 
Q 1566 4138 1362 3434 
Q 1159 2731 1159 2009 
Q 1159 1288 1364 580 
Q 1569 -128 1984 -844 
L 1484 -844 
Q 1016 -109 783 600 
Q 550 1309 550 2009 
Q 550 2706 781 3412 
Q 1013 4119 1484 4856 
L 1984 4856 
z
" transform="scale(0.015625)"/>
       <path id="DejaVuSans-6e" d="M 3513 2113 
L 3513 0 
L 2938 0 
L 2938 2094 
Q 2938 2591 2744 2837 
Q 2550 3084 2163 3084 
Q 1697 3084 1428 2787 
Q 1159 2491 1159 1978 
L 1159 0 
L 581 0 
L 581 3500 
L 1159 3500 
L 1159 2956 
Q 1366 3272 1645 3428 
Q 1925 3584 2291 3584 
Q 2894 3584 3203 3211 
Q 3513 2838 3513 2113 
z
" transform="scale(0.015625)"/>
       <path id="DejaVuSans-75" d="M 544 1381 
L 544 3500 
L 1119 3500 
L 1119 1403 
Q 1119 906 1312 657 
Q 1506 409 1894 409 
Q 2359 409 2629 706 
Q 2900 1003 2900 1516 
L 2900 3500 
L 3475 3500 
L 3475 0 
L 2900 0 
L 2900 538 
Q 2691 219 2414 64 
Q 2138 -91 1772 -91 
Q 1169 -91 856 284 
Q 544 659 544 1381 
z
M 1991 3584 
L 1991 3584 
z
" transform="scale(0.015625)"/>
       <path id="DejaVuSans-74" d="M 1172 4494 
L 1172 3500 
L 2356 3500 
L 2356 3053 
L 1172 3053 
L 1172 1153 
Q 1172 725 1289 603 
Q 1406 481 1766 481 
L 2356 481 
L 2356 0 
L 1766 0 
Q 1100 0 847 248 
Q 594 497 594 1153 
L 594 3053 
L 172 3053 
L 172 3500 
L 594 3500 
L 594 4494 
L 1172 4494 
z
" transform="scale(0.015625)"/>
       <path id="DejaVuSans-73" d="M 2834 3397 
L 2834 2853 
Q 2591 2978 2328 3040 
Q 2066 3103 1784 3103 
Q 1356 3103 1142 2972 
Q 928 2841 928 2578 
Q 928 2378 1081 2264 
Q 1234 2150 1697 2047 
L 1894 2003 
Q 2506 1872 2764 1633 
Q 3022 1394 3022 966 
Q 3022 478 2636 193 
Q 2250 -91 1575 -91 
Q 1294 -91 989 -36 
Q 684 19 347 128 
L 347 722 
Q 666 556 975 473 
Q 1284 391 1588 391 
Q 1994 391 2212 530 
Q 2431 669 2431 922 
Q 2431 1156 2273 1281 
Q 2116 1406 1581 1522 
L 1381 1569 
Q 847 1681 609 1914 
Q 372 2147 372 2553 
Q 372 3047 722 3315 
Q 1072 3584 1716 3584 
Q 2034 3584 2315 3537 
Q 2597 3491 2834 3397 
z
" transform="scale(0.015625)"/>
       <path id="DejaVuSans-29" d="M 513 4856 
L 1013 4856 
Q 1481 4119 1714 3412 
Q 1947 2706 1947 2009 
Q 1947 1309 1714 600 
Q 1481 -109 1013 -844 
L 513 -844 
Q 928 -128 1133 580 
Q 1338 1288 1338 2009 
Q 1338 2731 1133 3434 
Q 928 4138 513 4856 
z
" transform="scale(0.015625)"/>
      </defs>
      <use xlink:href="#DejaVuSans-54"/>
      <use xlink:href="#DejaVuSans-69" transform="translate(57.958984 0)"/>
      <use xlink:href="#DejaVuSans-6d" transform="translate(85.742188 0)"/>
      <use xlink:href="#DejaVuSans-65" transform="translate(183.154297 0)"/>
      <use xlink:href="#DejaVuSans-20" transform="translate(244.677734 0)"/>
      <use xlink:href="#DejaVuSans-28" transform="translate(276.464844 0)"/>
      <use xlink:href="#DejaVuSans-6d" transform="translate(315.478516 0)"/>
      <use xlink:href="#DejaVuSans-69" transform="translate(412.890625 0)"/>
      <use xlink:href="#DejaVuSans-6e" transform="translate(440.673828 0)"/>
      <use xlink:href="#DejaVuSans-75" transform="translate(504.052734 0)"/>
      <use xlink:href="#DejaVuSans-74" transform="translate(567.431641 0)"/>
      <use xlink:href="#DejaVuSans-65" transform="translate(606.640625 0)"/>
      <use xlink:href="#DejaVuSans-73" transform="translate(668.164062 0)"/>
      <use xlink:href="#DejaVuSans-29" transform="translate(720.263672 0)"/>
     </g>
    </g>
   </g>
   <g id="matplotlib.axis_2">
    <g id="ytick_1">
     <g id="line2d_8">
      <path d="M 74.52 350.094946 
L 690.075 350.094946 
" clip-path="url(#pcce108cb7f)" style="fill: none; stroke: #cccccc; stroke-linecap: round"/>
     </g>
     <g id="text_9">
      <!-- −5 -->
      <g style="fill: #262626" transform="translate(40.695391 356.363657) scale(0.165 -0.165)">
       <defs>
        <path id="DejaVuSans-2212" d="M 678 2272 
L 4684 2272 
L 4684 1741 
L 678 1741 
L 678 2272 
z
" transform="scale(0.015625)"/>
        <path id="DejaVuSans-35" d="M 691 4666 
L 3169 4666 
L 3169 4134 
L 1269 4134 
L 1269 2991 
Q 1406 3038 1543 3061 
Q 1681 3084 1819 3084 
Q 2600 3084 3056 2656 
Q 3513 2228 3513 1497 
Q 3513 744 3044 326 
Q 2575 -91 1722 -91 
Q 1428 -91 1123 -41 
Q 819 9 494 109 
L 494 744 
Q 775 591 1075 516 
Q 1375 441 1709 441 
Q 2250 441 2565 725 
Q 2881 1009 2881 1497 
Q 2881 1984 2565 2268 
Q 2250 2553 1709 2553 
Q 1456 2553 1204 2497 
Q 953 2441 691 2322 
L 691 4666 
z
" transform="scale(0.015625)"/>
       </defs>
       <use xlink:href="#DejaVuSans-2212"/>
       <use xlink:href="#DejaVuSans-35" transform="translate(83.789062 0)"/>
      </g>
     </g>
    </g>
    <g id="ytick_2">
     <g id="line2d_9">
      <path d="M 74.52 313.389265 
L 690.075 313.389265 
" clip-path="url(#pcce108cb7f)" style="fill: none; stroke: #cccccc; stroke-linecap: round"/>
     </g>
     <g id="text_10">
      <!-- 0 -->
      <g style="fill: #262626" transform="translate(54.521875 319.657976) scale(0.165 -0.165)">
       <use xlink:href="#DejaVuSans-30"/>
      </g>
     </g>
    </g>
    <g id="ytick_3">
     <g id="line2d_10">
      <path d="M 74.52 276.683584 
L 690.075 276.683584 
" clip-path="url(#pcce108cb7f)" style="fill: none; stroke: #cccccc; stroke-linecap: round"/>
     </g>
     <g id="text_11">
      <!-- 5 -->
      <g style="fill: #262626" transform="translate(54.521875 282.952295) scale(0.165 -0.165)">
       <use xlink:href="#DejaVuSans-35"/>
      </g>
     </g>
    </g>
    <g id="ytick_4">
     <g id="line2d_11">
      <path d="M 74.52 239.977903 
L 690.075 239.977903 
" clip-path="url(#pcce108cb7f)" style="fill: none; stroke: #cccccc; stroke-linecap: round"/>
     </g>
     <g id="text_12">
      <!-- 10 -->
      <g style="fill: #262626" transform="translate(44.02375 246.246613) scale(0.165 -0.165)">
       <use xlink:href="#DejaVuSans-31"/>
       <use xlink:href="#DejaVuSans-30" transform="translate(63.623047 0)"/>
      </g>
     </g>
    </g>
    <g id="ytick_5">
     <g id="line2d_12">
      <path d="M 74.52 203.272221 
L 690.075 203.272221 
" clip-path="url(#pcce108cb7f)" style="fill: none; stroke: #cccccc; stroke-linecap: round"/>
     </g>
     <g id="text_13">
      <!-- 15 -->
      <g style="fill: #262626" transform="translate(44.02375 209.540932) scale(0.165 -0.165)">
       <use xlink:href="#DejaVuSans-31"/>
       <use xlink:href="#DejaVuSans-35" transform="translate(63.623047 0)"/>
      </g>
     </g>
    </g>
    <g id="ytick_6">
     <g id="line2d_13">
      <path d="M 74.52 166.56654 
L 690.075 166.56654 
" clip-path="url(#pcce108cb7f)" style="fill: none; stroke: #cccccc; stroke-linecap: round"/>
     </g>
     <g id="text_14">
      <!-- 20 -->
      <g style="fill: #262626" transform="translate(44.02375 172.835251) scale(0.165 -0.165)">
       <use xlink:href="#DejaVuSans-32"/>
       <use xlink:href="#DejaVuSans-30" transform="translate(63.623047 0)"/>
      </g>
     </g>
    </g>
    <g id="ytick_7">
     <g id="line2d_14">
      <path d="M 74.52 129.860859 
L 690.075 129.860859 
" clip-path="url(#pcce108cb7f)" style="fill: none; stroke: #cccccc; stroke-linecap: round"/>
     </g>
     <g id="text_15">
      <!-- 25 -->
      <g style="fill: #262626" transform="translate(44.02375 136.12957) scale(0.165 -0.165)">
       <use xlink:href="#DejaVuSans-32"/>
       <use xlink:href="#DejaVuSans-35" transform="translate(63.623047 0)"/>
      </g>
     </g>
    </g>
    <g id="ytick_8">
     <g id="line2d_15">
      <path d="M 74.52 93.155178 
L 690.075 93.155178 
" clip-path="url(#pcce108cb7f)" style="fill: none; stroke: #cccccc; stroke-linecap: round"/>
     </g>
     <g id="text_16">
      <!-- 30 -->
      <g style="fill: #262626" transform="translate(44.02375 99.423889) scale(0.165 -0.165)">
       <defs>
        <path id="DejaVuSans-33" d="M 2597 2516 
Q 3050 2419 3304 2112 
Q 3559 1806 3559 1356 
Q 3559 666 3084 287 
Q 2609 -91 1734 -91 
Q 1441 -91 1130 -33 
Q 819 25 488 141 
L 488 750 
Q 750 597 1062 519 
Q 1375 441 1716 441 
Q 2309 441 2620 675 
Q 2931 909 2931 1356 
Q 2931 1769 2642 2001 
Q 2353 2234 1838 2234 
L 1294 2234 
L 1294 2753 
L 1863 2753 
Q 2328 2753 2575 2939 
Q 2822 3125 2822 3475 
Q 2822 3834 2567 4026 
Q 2313 4219 1838 4219 
Q 1578 4219 1281 4162 
Q 984 4106 628 3988 
L 628 4550 
Q 988 4650 1302 4700 
Q 1616 4750 1894 4750 
Q 2613 4750 3031 4423 
Q 3450 4097 3450 3541 
Q 3450 3153 3228 2886 
Q 3006 2619 2597 2516 
z
" transform="scale(0.015625)"/>
       </defs>
       <use xlink:href="#DejaVuSans-33"/>
       <use xlink:href="#DejaVuSans-30" transform="translate(63.623047 0)"/>
      </g>
     </g>
    </g>
    <g id="ytick_9">
     <g id="line2d_16">
      <path d="M 74.52 56.449496 
L 690.075 56.449496 
" clip-path="url(#pcce108cb7f)" style="fill: none; stroke: #cccccc; stroke-linecap: round"/>
     </g>
     <g id="text_17">
      <!-- 35 -->
      <g style="fill: #262626" transform="translate(44.02375 62.718207) scale(0.165 -0.165)">
       <use xlink:href="#DejaVuSans-33"/>
       <use xlink:href="#DejaVuSans-35" transform="translate(63.623047 0)"/>
      </g>
     </g>
    </g>
    <g id="text_18">
     <!-- Mean Episode Return -->
     <g style="fill: #262626" transform="translate(32.951953 297.624844) rotate(-90) scale(0.18 -0.18)">
      <defs>
       <path id="DejaVuSans-4d" d="M 628 4666 
L 1569 4666 
L 2759 1491 
L 3956 4666 
L 4897 4666 
L 4897 0 
L 4281 0 
L 4281 4097 
L 3078 897 
L 2444 897 
L 1241 4097 
L 1241 0 
L 628 0 
L 628 4666 
z
" transform="scale(0.015625)"/>
       <path id="DejaVuSans-61" d="M 2194 1759 
Q 1497 1759 1228 1600 
Q 959 1441 959 1056 
Q 959 750 1161 570 
Q 1363 391 1709 391 
Q 2188 391 2477 730 
Q 2766 1069 2766 1631 
L 2766 1759 
L 2194 1759 
z
M 3341 1997 
L 3341 0 
L 2766 0 
L 2766 531 
Q 2569 213 2275 61 
Q 1981 -91 1556 -91 
Q 1019 -91 701 211 
Q 384 513 384 1019 
Q 384 1609 779 1909 
Q 1175 2209 1959 2209 
L 2766 2209 
L 2766 2266 
Q 2766 2663 2505 2880 
Q 2244 3097 1772 3097 
Q 1472 3097 1187 3025 
Q 903 2953 641 2809 
L 641 3341 
Q 956 3463 1253 3523 
Q 1550 3584 1831 3584 
Q 2591 3584 2966 3190 
Q 3341 2797 3341 1997 
z
" transform="scale(0.015625)"/>
       <path id="DejaVuSans-45" d="M 628 4666 
L 3578 4666 
L 3578 4134 
L 1259 4134 
L 1259 2753 
L 3481 2753 
L 3481 2222 
L 1259 2222 
L 1259 531 
L 3634 531 
L 3634 0 
L 628 0 
L 628 4666 
z
" transform="scale(0.015625)"/>
       <path id="DejaVuSans-70" d="M 1159 525 
L 1159 -1331 
L 581 -1331 
L 581 3500 
L 1159 3500 
L 1159 2969 
Q 1341 3281 1617 3432 
Q 1894 3584 2278 3584 
Q 2916 3584 3314 3078 
Q 3713 2572 3713 1747 
Q 3713 922 3314 415 
Q 2916 -91 2278 -91 
Q 1894 -91 1617 61 
Q 1341 213 1159 525 
z
M 3116 1747 
Q 3116 2381 2855 2742 
Q 2594 3103 2138 3103 
Q 1681 3103 1420 2742 
Q 1159 2381 1159 1747 
Q 1159 1113 1420 752 
Q 1681 391 2138 391 
Q 2594 391 2855 752 
Q 3116 1113 3116 1747 
z
" transform="scale(0.015625)"/>
       <path id="DejaVuSans-6f" d="M 1959 3097 
Q 1497 3097 1228 2736 
Q 959 2375 959 1747 
Q 959 1119 1226 758 
Q 1494 397 1959 397 
Q 2419 397 2687 759 
Q 2956 1122 2956 1747 
Q 2956 2369 2687 2733 
Q 2419 3097 1959 3097 
z
M 1959 3584 
Q 2709 3584 3137 3096 
Q 3566 2609 3566 1747 
Q 3566 888 3137 398 
Q 2709 -91 1959 -91 
Q 1206 -91 779 398 
Q 353 888 353 1747 
Q 353 2609 779 3096 
Q 1206 3584 1959 3584 
z
" transform="scale(0.015625)"/>
       <path id="DejaVuSans-64" d="M 2906 2969 
L 2906 4863 
L 3481 4863 
L 3481 0 
L 2906 0 
L 2906 525 
Q 2725 213 2448 61 
Q 2172 -91 1784 -91 
Q 1150 -91 751 415 
Q 353 922 353 1747 
Q 353 2572 751 3078 
Q 1150 3584 1784 3584 
Q 2172 3584 2448 3432 
Q 2725 3281 2906 2969 
z
M 947 1747 
Q 947 1113 1208 752 
Q 1469 391 1925 391 
Q 2381 391 2643 752 
Q 2906 1113 2906 1747 
Q 2906 2381 2643 2742 
Q 2381 3103 1925 3103 
Q 1469 3103 1208 2742 
Q 947 2381 947 1747 
z
" transform="scale(0.015625)"/>
       <path id="DejaVuSans-52" d="M 2841 2188 
Q 3044 2119 3236 1894 
Q 3428 1669 3622 1275 
L 4263 0 
L 3584 0 
L 2988 1197 
Q 2756 1666 2539 1819 
Q 2322 1972 1947 1972 
L 1259 1972 
L 1259 0 
L 628 0 
L 628 4666 
L 2053 4666 
Q 2853 4666 3247 4331 
Q 3641 3997 3641 3322 
Q 3641 2881 3436 2590 
Q 3231 2300 2841 2188 
z
M 1259 4147 
L 1259 2491 
L 2053 2491 
Q 2509 2491 2742 2702 
Q 2975 2913 2975 3322 
Q 2975 3731 2742 3939 
Q 2509 4147 2053 4147 
L 1259 4147 
z
" transform="scale(0.015625)"/>
       <path id="DejaVuSans-72" d="M 2631 2963 
Q 2534 3019 2420 3045 
Q 2306 3072 2169 3072 
Q 1681 3072 1420 2755 
Q 1159 2438 1159 1844 
L 1159 0 
L 581 0 
L 581 3500 
L 1159 3500 
L 1159 2956 
Q 1341 3275 1631 3429 
Q 1922 3584 2338 3584 
Q 2397 3584 2469 3576 
Q 2541 3569 2628 3553 
L 2631 2963 
z
" transform="scale(0.015625)"/>
      </defs>
      <use xlink:href="#DejaVuSans-4d"/>
      <use xlink:href="#DejaVuSans-65" transform="translate(86.279297 0)"/>
      <use xlink:href="#DejaVuSans-61" transform="translate(147.802734 0)"/>
      <use xlink:href="#DejaVuSans-6e" transform="translate(209.082031 0)"/>
      <use xlink:href="#DejaVuSans-20" transform="translate(272.460938 0)"/>
      <use xlink:href="#DejaVuSans-45" transform="translate(304.248047 0)"/>
      <use xlink:href="#DejaVuSans-70" transform="translate(367.431641 0)"/>
      <use xlink:href="#DejaVuSans-69" transform="translate(430.908203 0)"/>
      <use xlink:href="#DejaVuSans-73" transform="translate(458.691406 0)"/>
      <use xlink:href="#DejaVuSans-6f" transform="translate(510.791016 0)"/>
      <use xlink:href="#DejaVuSans-64" transform="translate(571.972656 0)"/>
      <use xlink:href="#DejaVuSans-65" transform="translate(635.449219 0)"/>
      <use xlink:href="#DejaVuSans-20" transform="translate(696.972656 0)"/>
      <use xlink:href="#DejaVuSans-52" transform="translate(728.759766 0)"/>
      <use xlink:href="#DejaVuSans-65" transform="translate(793.742188 0)"/>
      <use xlink:href="#DejaVuSans-74" transform="translate(855.265625 0)"/>
      <use xlink:href="#DejaVuSans-75" transform="translate(894.474609 0)"/>
      <use xlink:href="#DejaVuSans-72" transform="translate(957.853516 0)"/>
      <use xlink:href="#DejaVuSans-6e" transform="translate(997.216797 0)"/>
     </g>
    </g>
   </g>
   <g id="FillBetweenPolyCollection_1"/>
   <g id="FillBetweenPolyCollection_2"/>
   <g id="FillBetweenPolyCollection_3"/>
   <g id="line2d_17">
    <path d="M 74.52 327.301885 
L 76.094759 335.477509 
L 77.679093 339.238268 
L 79.229341 334.009945 
L 80.816413 325.081046 
L 82.416853 320.73401 
L 84.025139 320.02205 
L 85.645842 319.955119 
L 87.26471 319.632754 
L 88.872578 319.111608 
L 90.472738 318.735994 
L 95.282699 318.234938 
L 98.442422 317.205679 
L 100.025708 317.091622 
L 103.182579 316.334097 
L 104.758083 316.404987 
L 106.328328 315.738921 
L 109.409193 315.415512 
L 110.947972 315.817498 
L 112.338022 315.143662 
L 113.836298 314.778317 
L 115.348743 315.039274 
L 116.850719 314.57449 
L 118.338081 315.182681 
L 119.847877 312.454301 
L 121.347325 288.06169 
L 122.878597 284.813667 
L 124.415999 292.333892 
L 125.951677 284.302902 
L 127.472023 290.691399 
L 129.011071 286.887629 
L 130.526377 291.616417 
L 132.19692 287.84123 
L 133.677763 282.571207 
L 135.15177 264.472105 
L 136.800079 225.371654 
L 138.355213 219.238046 
L 139.907111 221.796217 
L 141.459773 229.643508 
L 143.011772 218.126818 
L 144.567399 214.486214 
L 146.130181 223.688629 
L 147.66601 228.392777 
L 149.177542 226.151712 
L 150.507145 218.208401 
L 153.471355 206.942418 
L 155.007333 199.00802 
L 156.567573 184.368566 
L 158.111589 195.583329 
L 159.65515 197.001245 
L 161.185678 183.51826 
L 162.712836 182.558107 
L 164.215276 186.745689 
L 165.690442 186.795971 
L 167.161278 180.185577 
L 168.701574 175.369118 
L 170.254246 168.872351 
L 171.796207 170.613835 
L 173.341378 165.153924 
L 174.86728 170.877382 
L 176.408811 158.589288 
L 177.917821 157.507429 
L 179.421109 152.671844 
L 180.891259 154.871197 
L 182.372762 156.403839 
L 183.810406 152.844798 
L 185.323382 147.193982 
L 186.857265 145.740451 
L 188.231412 141.699024 
L 189.771978 138.248274 
L 191.2769 134.543695 
L 192.785246 131.971872 
L 194.280076 135.562208 
L 195.743466 134.152224 
L 197.183539 129.793005 
L 198.810327 127.408362 
L 200.339882 121.595976 
L 201.878251 123.562809 
L 203.393582 119.298678 
L 204.908365 120.732116 
L 206.406143 122.867185 
L 207.897523 120.584253 
L 210.849613 110.49295 
L 213.751323 114.339594 
L 215.218132 114.459704 
L 216.730644 109.170409 
L 218.232196 106.163848 
L 219.726914 106.024905 
L 221.222871 103.232913 
L 222.694969 101.926251 
L 224.166471 102.165841 
L 225.480412 101.058862 
L 226.912058 100.36349 
L 228.353384 100.098234 
L 229.871726 101.42996 
L 231.390422 97.099543 
L 232.890111 95.506089 
L 234.406134 99.801067 
L 235.910022 97.307012 
L 237.421848 96.305932 
L 238.923355 93.719224 
L 240.404881 92.38712 
L 241.826563 92.066388 
L 244.697273 92.243864 
L 246.197264 89.24852 
L 247.694904 89.081097 
L 249.193731 91.085498 
L 250.672121 85.111752 
L 252.156036 86.292241 
L 253.633547 83.470621 
L 255.08331 87.933792 
L 256.518781 88.96845 
L 257.936086 90.648955 
L 259.552135 82.329435 
L 261.072481 84.145004 
L 262.419216 82.49249 
L 263.930999 83.094188 
L 265.422271 89.275964 
L 266.918623 84.265436 
L 268.383096 80.630238 
L 269.855171 85.20663 
L 271.309144 87.491088 
L 272.761842 80.278645 
L 274.192572 84.512266 
L 275.658167 84.389327 
L 277.152019 79.617381 
L 278.661116 76.61827 
L 280.147222 78.463384 
L 281.650057 77.873671 
L 283.121221 75.646524 
L 284.614836 79.204879 
L 286.041082 84.62361 
L 287.474258 94.107027 
L 288.945883 90.814277 
L 290.468695 81.915981 
L 291.98398 77.206695 
L 293.49445 78.02929 
L 295.004923 82.537324 
L 296.492534 74.136089 
L 297.959962 76.858126 
L 299.273338 75.193864 
L 300.723805 76.094535 
L 302.134526 78.501231 
L 303.567103 78.358144 
L 305.032632 74.144826 
L 306.505625 75.824043 
L 307.990917 75.214139 
L 309.492863 75.402271 
L 310.996476 79.997776 
L 312.469334 74.90052 
L 313.97141 74.090666 
L 315.430892 77.235623 
L 316.851396 78.301435 
L 318.297122 76.227779 
L 319.927207 75.079131 
L 321.44287 77.54857 
L 322.936723 74.658423 
L 325.956464 73.529546 
L 327.455109 72.207915 
L 328.934559 74.677914 
L 330.409714 71.758951 
L 331.868101 72.341831 
L 333.304244 73.862936 
L 334.72796 74.504624 
L 336.052346 69.814059 
L 337.545969 72.336846 
L 339.044049 70.487784 
L 340.561709 77.172109 
L 342.076416 78.681718 
L 343.567658 73.676232 
L 345.041455 72.113625 
L 346.490439 71.077553 
L 347.929257 71.992366 
L 349.407699 67.841218 
L 350.907744 68.807615 
L 352.413097 67.099918 
L 353.932521 70.328776 
L 355.457236 72.990632 
L 356.972767 69.224626 
L 358.450441 66.518523 
L 361.361768 69.373188 
L 362.802658 68.686637 
L 364.225746 67.439105 
L 365.659256 67.485704 
L 367.161846 70.679893 
L 368.65642 67.177434 
L 370.13762 68.182813 
L 371.626571 66.204176 
L 372.942674 67.767987 
L 374.443544 66.604104 
L 375.901444 68.707444 
L 378.76561 85.778294 
L 380.390212 72.125246 
L 381.919102 69.492038 
L 383.439969 67.766503 
L 384.974766 69.067634 
L 386.504655 68.593467 
L 388.00141 65.308965 
L 390.937112 67.040017 
L 392.378293 75.229429 
L 393.807944 74.729722 
L 395.248434 67.133131 
L 396.744142 66.550112 
L 398.233369 68.369321 
L 399.720929 67.848723 
L 401.224878 68.471369 
L 402.722324 65.658766 
L 404.208313 65.104422 
L 405.686802 66.899884 
L 407.163287 74.437274 
L 408.574547 77.524094 
L 409.915185 77.008481 
L 411.410431 79.801901 
L 412.9193 72.331889 
L 414.436175 65.758125 
L 415.940777 67.699068 
L 417.467496 64.873247 
L 418.962301 66.07124 
L 420.427388 67.858048 
L 421.878916 71.413267 
L 423.356556 72.034317 
L 424.790788 73.115139 
L 426.277551 68.00255 
L 427.793738 76.758571 
L 429.31556 72.279101 
L 430.822084 70.413489 
L 432.330891 64.8798 
L 433.823711 72.795751 
L 435.321142 70.823666 
L 436.7659 74.035862 
L 438.202161 72.696476 
L 439.783131 71.76626 
L 441.291784 69.979311 
L 442.811031 76.958717 
L 444.334934 69.484645 
L 445.855037 74.057145 
L 447.225944 70.929886 
L 448.711526 65.360997 
L 450.198905 75.863137 
L 451.658121 70.563955 
L 453.090029 69.414999 
L 454.512094 72.032776 
L 455.963168 75.576457 
L 457.456086 73.050589 
L 458.96095 68.870373 
L 460.456377 70.473614 
L 461.965267 68.486967 
L 463.445942 70.486328 
L 464.941464 71.546259 
L 466.417432 71.746769 
L 467.856313 70.167472 
L 469.297443 70.078306 
L 470.797443 68.962311 
L 472.294857 70.660206 
L 473.796516 73.083858 
L 475.289784 68.779583 
L 476.80124 71.111018 
L 478.310121 69.282091 
L 479.792675 68.012156 
L 481.23874 68.924701 
L 482.707554 68.313705 
L 484.001987 72.349196 
L 485.419278 72.639628 
L 486.913837 68.381447 
L 488.411093 69.301105 
L 489.93647 73.338529 
L 491.443964 72.868926 
L 492.940619 72.998586 
L 494.419325 69.554012 
L 495.908022 73.804883 
L 497.353194 75.341866 
L 498.796822 70.993568 
L 500.388965 67.62973 
L 501.879332 67.181859 
L 503.39171 66.411743 
L 504.897627 71.539426 
L 506.407451 67.982331 
L 507.913165 72.367931 
L 509.410734 66.28326 
L 510.894037 67.987344 
L 512.33001 66.037999 
L 513.75591 65.959167 
L 515.163289 67.952339 
L 516.590426 68.884739 
L 518.090835 67.091685 
L 519.588872 67.226637 
L 520.958292 67.967937 
L 522.443384 68.465656 
L 523.896783 68.249967 
L 525.374513 64.985012 
L 526.850158 71.950612 
L 528.28943 76.96023 
L 529.739675 70.010368 
L 531.217352 76.116127 
L 532.75959 65.36643 
L 534.281954 72.417442 
L 535.815693 67.842478 
L 537.319024 65.968408 
L 538.806939 67.510376 
L 540.282079 66.527456 
L 541.754527 66.031922 
L 543.212788 68.076873 
L 544.644529 73.811968 
L 546.063566 73.514059 
L 547.543576 68.850798 
L 549.034609 67.199613 
L 550.542555 68.031282 
L 552.02926 71.830698 
L 553.502643 69.864242 
L 554.975322 73.233989 
L 556.465067 74.874056 
L 557.76897 80.961695 
L 559.203578 81.077955 
L 560.814628 89.491835 
L 562.317931 86.418974 
L 563.84637 72.102227 
L 565.352259 80.663507 
L 566.877072 82.433149 
L 568.38735 69.029045 
L 569.860138 73.496389 
L 571.330848 72.691912 
L 572.787276 69.790199 
L 574.227054 68.245347 
L 575.651211 71.44718 
L 577.096415 74.000464 
L 578.591373 68.033663 
L 580.092086 68.725283 
L 581.577289 72.951567 
L 583.0621 70.36997 
L 584.52853 69.280074 
L 586.011386 72.069686 
L 587.473779 76.194958 
L 588.889528 80.63497 
L 591.841062 68.784596 
L 593.368824 71.608933 
L 594.723568 67.392842 
L 596.215125 68.861103 
L 597.733859 67.253241 
L 599.214022 69.192477 
L 600.686772 69.718564 
L 602.11871 67.371923 
L 603.541653 71.069459 
L 604.960363 72.732798 
L 606.418206 74.026788 
L 607.933613 70.157334 
L 609.438385 80.539336 
L 610.929521 78.932216 
L 612.42147 73.409351 
L 613.904099 67.489233 
L 615.397651 66.264749 
L 616.882537 66.229631 
L 618.310794 66.436639 
L 619.743667 67.332549 
L 621.356943 72.029892 
L 622.848498 68.209585 
L 624.377856 65.978014 
L 625.887621 65.495753 
L 627.405445 65.497657 
L 628.924496 66.098012 
L 630.381712 67.871462 
L 631.691509 65.094733 
L 633.12959 68.623628 
L 634.550064 71.326202 
L 635.968338 72.721232 
L 637.445371 71.417776 
L 638.93635 67.85424 
L 640.436604 78.333416 
L 641.942102 71.010539 
L 643.436463 68.763565 
L 644.91797 71.255183 
L 646.395851 67.928451 
L 647.850332 75.751484 
L 649.265026 73.391037 
L 650.730144 67.527627 
L 652.238852 66.437619 
L 653.759496 66.705395 
L 655.266906 66.160181 
L 656.780746 66.223275 
L 658.288451 67.071186 
L 659.784321 66.824609 
L 661.269571 64.703094 
L 662.715483 70.801011 
L 664.117158 65.06096 
L 665.532559 66.226523 
L 666.981115 66.386427 
L 668.326651 68.421913 
L 669.828984 67.075051 
L 671.327909 68.906666 
L 672.831666 65.932507 
L 674.323106 66.470104 
L 675.814429 71.168174 
L 677.285341 69.814787 
L 678.719405 64.845243 
L 680.158378 66.664873 
L 681.759869 63.799958 
L 683.270451 63.675255 
L 684.771572 62.495774 
L 686.275203 63.715889 
L 687.77577 68.302279 
L 689.29123 64.151607 
L 690.786845 66.55532 
L 692.231143 68.414576 
L 693.643862 65.670695 
L 695.073509 67.067658 
L 696.502537 72.93664 
L 697.985029 70.362717 
L 699.498757 74.969186 
L 701.016597 69.985948 
L 702.512259 63.45111 
L 704.009482 65.558875 
L 705.348566 62.489109 
L 706.835049 61.394228 
L 708.283077 62.095258 
L 709.711979 63.484463 
L 711.198863 62.996993 
L 712.705722 61.393276 
L 714.22018 65.849754 
L 715.747591 65.092828 
L 717.281898 65.708389 
L 718.774165 65.002291 
L 720.281494 69.636624 
L 721 65.959521 
L 721 65.959521 
" clip-path="url(#pcce108cb7f)" style="fill: none; stroke: #4c72b0; stroke-width: 1.5; stroke-linecap: round"/>
   </g>
   <g id="line2d_18">
    <path d="M 74.52 320.632568 
L 92.842204 317.641009 
L 111.24385 315.912535 
L 129.756207 316.626727 
L 148.189208 316.140288 
L 166.659873 315.992701 
L 185.083293 315.506529 
L 203.522504 315.917425 
L 221.904421 315.917425 
L 240.245937 315.917425 
L 258.658836 306.890706 
L 277.274352 225.080033 
L 295.854541 229.908918 
L 314.427467 237.466037 
L 332.903459 237.122187 
L 351.510499 220.70324 
L 370.068575 225.043018 
L 388.520164 229.90303 
L 406.935684 229.549701 
L 425.351376 229.780449 
L 443.895268 125.634323 
L 462.548982 120.536716 
L 481.191713 118.48986 
L 499.842572 116.597238 
L 518.470493 121.373888 
L 537.045744 124.214734 
L 555.575933 130.100645 
L 574.076538 132.334569 
L 592.531672 132.334569 
L 611.05394 132.334569 
L 629.536276 132.334569 
L 648.131962 130.797908 
L 666.706398 111.216676 
L 685.214994 105.722124 
L 703.702219 108.703844 
L 721 96.067583 
" clip-path="url(#pcce108cb7f)" style="fill: none; stroke: #dd8452; stroke-width: 1.5; stroke-linecap: round"/>
    <defs>
     <path id="m16ffa404a7" d="M 0 3 
C 0.795609 3 1.55874 2.683901 2.12132 2.12132 
C 2.683901 1.55874 3 0.795609 3 0 
C 3 -0.795609 2.683901 -1.55874 2.12132 -2.12132 
C 1.55874 -2.683901 0.795609 -3 0 -3 
C -0.795609 -3 -1.55874 -2.683901 -2.12132 -2.12132 
C -2.683901 -1.55874 -3 -0.795609 -3 0 
C -3 0.795609 -2.683901 1.55874 -2.12132 2.12132 
C -1.55874 2.683901 -0.795609 3 0 3 
z
" style="stroke: #ffffff; stroke-width: 0.75"/>
    </defs>
    <g clip-path="url(#pcce108cb7f)">
     <use xlink:href="#m16ffa404a7" x="74.52" y="320.632568" style="fill: #dd8452; stroke: #ffffff; stroke-width: 0.75"/>
     <use xlink:href="#m16ffa404a7" x="92.842204" y="317.641009" style="fill: #dd8452; stroke: #ffffff; stroke-width: 0.75"/>
     <use xlink:href="#m16ffa404a7" x="111.24385" y="315.912535" style="fill: #dd8452; stroke: #ffffff; stroke-width: 0.75"/>
     <use xlink:href="#m16ffa404a7" x="129.756207" y="316.626727" style="fill: #dd8452; stroke: #ffffff; stroke-width: 0.75"/>
     <use xlink:href="#m16ffa404a7" x="148.189208" y="316.140288" style="fill: #dd8452; stroke: #ffffff; stroke-width: 0.75"/>
     <use xlink:href="#m16ffa404a7" x="166.659873" y="315.992701" style="fill: #dd8452; stroke: #ffffff; stroke-width: 0.75"/>
     <use xlink:href="#m16ffa404a7" x="185.083293" y="315.506529" style="fill: #dd8452; stroke: #ffffff; stroke-width: 0.75"/>
     <use xlink:href="#m16ffa404a7" x="203.522504" y="315.917425" style="fill: #dd8452; stroke: #ffffff; stroke-width: 0.75"/>
     <use xlink:href="#m16ffa404a7" x="221.904421" y="315.917425" style="fill: #dd8452; stroke: #ffffff; stroke-width: 0.75"/>
     <use xlink:href="#m16ffa404a7" x="240.245937" y="315.917425" style="fill: #dd8452; stroke: #ffffff; stroke-width: 0.75"/>
     <use xlink:href="#m16ffa404a7" x="258.658836" y="306.890706" style="fill: #dd8452; stroke: #ffffff; stroke-width: 0.75"/>
     <use xlink:href="#m16ffa404a7" x="277.274352" y="225.080033" style="fill: #dd8452; stroke: #ffffff; stroke-width: 0.75"/>
     <use xlink:href="#m16ffa404a7" x="295.854541" y="229.908918" style="fill: #dd8452; stroke: #ffffff; stroke-width: 0.75"/>
     <use xlink:href="#m16ffa404a7" x="314.427467" y="237.466037" style="fill: #dd8452; stroke: #ffffff; stroke-width: 0.75"/>
     <use xlink:href="#m16ffa404a7" x="332.903459" y="237.122187" style="fill: #dd8452; stroke: #ffffff; stroke-width: 0.75"/>
     <use xlink:href="#m16ffa404a7" x="351.510499" y="220.70324" style="fill: #dd8452; stroke: #ffffff; stroke-width: 0.75"/>
     <use xlink:href="#m16ffa404a7" x="370.068575" y="225.043018" style="fill: #dd8452; stroke: #ffffff; stroke-width: 0.75"/>
     <use xlink:href="#m16ffa404a7" x="388.520164" y="229.90303" style="fill: #dd8452; stroke: #ffffff; stroke-width: 0.75"/>
     <use xlink:href="#m16ffa404a7" x="406.935684" y="229.549701" style="fill: #dd8452; stroke: #ffffff; stroke-width: 0.75"/>
     <use xlink:href="#m16ffa404a7" x="425.351376" y="229.780449" style="fill: #dd8452; stroke: #ffffff; stroke-width: 0.75"/>
     <use xlink:href="#m16ffa404a7" x="443.895268" y="125.634323" style="fill: #dd8452; stroke: #ffffff; stroke-width: 0.75"/>
     <use xlink:href="#m16ffa404a7" x="462.548982" y="120.536716" style="fill: #dd8452; stroke: #ffffff; stroke-width: 0.75"/>
     <use xlink:href="#m16ffa404a7" x="481.191713" y="118.48986" style="fill: #dd8452; stroke: #ffffff; stroke-width: 0.75"/>
     <use xlink:href="#m16ffa404a7" x="499.842572" y="116.597238" style="fill: #dd8452; stroke: #ffffff; stroke-width: 0.75"/>
     <use xlink:href="#m16ffa404a7" x="518.470493" y="121.373888" style="fill: #dd8452; stroke: #ffffff; stroke-width: 0.75"/>
     <use xlink:href="#m16ffa404a7" x="537.045744" y="124.214734" style="fill: #dd8452; stroke: #ffffff; stroke-width: 0.75"/>
     <use xlink:href="#m16ffa404a7" x="555.575933" y="130.100645" style="fill: #dd8452; stroke: #ffffff; stroke-width: 0.75"/>
     <use xlink:href="#m16ffa404a7" x="574.076538" y="132.334569" style="fill: #dd8452; stroke: #ffffff; stroke-width: 0.75"/>
     <use xlink:href="#m16ffa404a7" x="592.531672" y="132.334569" style="fill: #dd8452; stroke: #ffffff; stroke-width: 0.75"/>
     <use xlink:href="#m16ffa404a7" x="611.05394" y="132.334569" style="fill: #dd8452; stroke: #ffffff; stroke-width: 0.75"/>
     <use xlink:href="#m16ffa404a7" x="629.536276" y="132.334569" style="fill: #dd8452; stroke: #ffffff; stroke-width: 0.75"/>
     <use xlink:href="#m16ffa404a7" x="648.131962" y="130.797908" style="fill: #dd8452; stroke: #ffffff; stroke-width: 0.75"/>
     <use xlink:href="#m16ffa404a7" x="666.706398" y="111.216676" style="fill: #dd8452; stroke: #ffffff; stroke-width: 0.75"/>
     <use xlink:href="#m16ffa404a7" x="685.214994" y="105.722124" style="fill: #dd8452; stroke: #ffffff; stroke-width: 0.75"/>
     <use xlink:href="#m16ffa404a7" x="703.702219" y="108.703844" style="fill: #dd8452; stroke: #ffffff; stroke-width: 0.75"/>
     <use xlink:href="#m16ffa404a7" x="722.254372" y="95.151248" style="fill: #dd8452; stroke: #ffffff; stroke-width: 0.75"/>
     <use xlink:href="#m16ffa404a7" x="740.861817" y="97.970362" style="fill: #dd8452; stroke: #ffffff; stroke-width: 0.75"/>
     <use xlink:href="#m16ffa404a7" x="759.394978" y="98.760473" style="fill: #dd8452; stroke: #ffffff; stroke-width: 0.75"/>
     <use xlink:href="#m16ffa404a7" x="777.833817" y="98.334501" style="fill: #dd8452; stroke: #ffffff; stroke-width: 0.75"/>
     <use xlink:href="#m16ffa404a7" x="796.312384" y="98.334501" style="fill: #dd8452; stroke: #ffffff; stroke-width: 0.75"/>
     <use xlink:href="#m16ffa404a7" x="814.973096" y="99.834756" style="fill: #dd8452; stroke: #ffffff; stroke-width: 0.75"/>
     <use xlink:href="#m16ffa404a7" x="833.604969" y="82.623563" style="fill: #dd8452; stroke: #ffffff; stroke-width: 0.75"/>
     <use xlink:href="#m16ffa404a7" x="852.254435" y="79.924307" style="fill: #dd8452; stroke: #ffffff; stroke-width: 0.75"/>
     <use xlink:href="#m16ffa404a7" x="870.880362" y="80.925654" style="fill: #dd8452; stroke: #ffffff; stroke-width: 0.75"/>
     <use xlink:href="#m16ffa404a7" x="889.50441" y="79.664638" style="fill: #dd8452; stroke: #ffffff; stroke-width: 0.75"/>
     <use xlink:href="#m16ffa404a7" x="908.074073" y="79.965222" style="fill: #dd8452; stroke: #ffffff; stroke-width: 0.75"/>
     <use xlink:href="#m16ffa404a7" x="926.607433" y="90.079307" style="fill: #dd8452; stroke: #ffffff; stroke-width: 0.75"/>
     <use xlink:href="#m16ffa404a7" x="945.06813" y="93.70392" style="fill: #dd8452; stroke: #ffffff; stroke-width: 0.75"/>
     <use xlink:href="#m16ffa404a7" x="963.551923" y="93.391659" style="fill: #dd8452; stroke: #ffffff; stroke-width: 0.75"/>
     <use xlink:href="#m16ffa404a7" x="981.986485" y="93.391659" style="fill: #dd8452; stroke: #ffffff; stroke-width: 0.75"/>
     <use xlink:href="#m16ffa404a7" x="1000.431075" y="93.391659" style="fill: #dd8452; stroke: #ffffff; stroke-width: 0.75"/>
     <use xlink:href="#m16ffa404a7" x="1018.904257" y="92.927223" style="fill: #dd8452; stroke: #ffffff; stroke-width: 0.75"/>
     <use xlink:href="#m16ffa404a7" x="1037.519605" y="84.293357" style="fill: #dd8452; stroke: #ffffff; stroke-width: 0.75"/>
     <use xlink:href="#m16ffa404a7" x="1056.04266" y="82.897039" style="fill: #dd8452; stroke: #ffffff; stroke-width: 0.75"/>
     <use xlink:href="#m16ffa404a7" x="1074.534976" y="83.566549" style="fill: #dd8452; stroke: #ffffff; stroke-width: 0.75"/>
     <use xlink:href="#m16ffa404a7" x="1092.986428" y="81.211311" style="fill: #dd8452; stroke: #ffffff; stroke-width: 0.75"/>
     <use xlink:href="#m16ffa404a7" x="1111.608288" y="72.227882" style="fill: #dd8452; stroke: #ffffff; stroke-width: 0.75"/>
     <use xlink:href="#m16ffa404a7" x="1130.13701" y="71.483922" style="fill: #dd8452; stroke: #ffffff; stroke-width: 0.75"/>
     <use xlink:href="#m16ffa404a7" x="1148.587745" y="72.268964" style="fill: #dd8452; stroke: #ffffff; stroke-width: 0.75"/>
     <use xlink:href="#m16ffa404a7" x="1167.011053" y="74.353625" style="fill: #dd8452; stroke: #ffffff; stroke-width: 0.75"/>
     <use xlink:href="#m16ffa404a7" x="1185.464925" y="74.720649" style="fill: #dd8452; stroke: #ffffff; stroke-width: 0.75"/>
     <use xlink:href="#m16ffa404a7" x="1204.017497" y="68.622927" style="fill: #dd8452; stroke: #ffffff; stroke-width: 0.75"/>
     <use xlink:href="#m16ffa404a7" x="1222.695478" y="66.951804" style="fill: #dd8452; stroke: #ffffff; stroke-width: 0.75"/>
     <use xlink:href="#m16ffa404a7" x="1241.379029" y="65.072693" style="fill: #dd8452; stroke: #ffffff; stroke-width: 0.75"/>
     <use xlink:href="#m16ffa404a7" x="1260.009644" y="66.144331" style="fill: #dd8452; stroke: #ffffff; stroke-width: 0.75"/>
     <use xlink:href="#m16ffa404a7" x="1278.616063" y="67.771739" style="fill: #dd8452; stroke: #ffffff; stroke-width: 0.75"/>
     <use xlink:href="#m16ffa404a7" x="1297.161537" y="75.07367" style="fill: #dd8452; stroke: #ffffff; stroke-width: 0.75"/>
     <use xlink:href="#m16ffa404a7" x="1315.648726" y="78.136434" style="fill: #dd8452; stroke: #ffffff; stroke-width: 0.75"/>
     <use xlink:href="#m16ffa404a7" x="1334.116454" y="80.36816" style="fill: #dd8452; stroke: #ffffff; stroke-width: 0.75"/>
     <use xlink:href="#m16ffa404a7" x="1352.534404" y="80.36816" style="fill: #dd8452; stroke: #ffffff; stroke-width: 0.75"/>
     <use xlink:href="#m16ffa404a7" x="1370.932692" y="81.706986" style="fill: #dd8452; stroke: #ffffff; stroke-width: 0.75"/>
     <use xlink:href="#m16ffa404a7" x="1389.391304" y="81.502485" style="fill: #dd8452; stroke: #ffffff; stroke-width: 0.75"/>
     <use xlink:href="#m16ffa404a7" x="1408.007444" y="81.43113" style="fill: #dd8452; stroke: #ffffff; stroke-width: 0.75"/>
    </g>
   </g>
   <g id="line2d_19">
    <path d="M 74.52 333.777749 
L 80.559388 339.48993 
L 86.634982 341.857568 
L 92.551659 338.304233 
L 98.513999 350.397273 
L 104.601699 337.038283 
L 110.674109 321.32518 
L 116.661586 320.265629 
L 122.61671 311.53645 
L 128.43093 307.008087 
L 134.386395 303.049993 
L 140.442991 289.640177 
L 146.536538 269.138671 
L 152.57386 275.095864 
L 158.504747 267.385825 
L 164.514598 226.674641 
L 170.503813 207.065105 
L 176.419764 203.541391 
L 182.323727 179.778479 
L 188.141802 170.129362 
L 194.239229 146.49046 
L 200.267195 122.492741 
L 206.259015 113.836848 
L 212.296204 98.876172 
L 218.214889 104.239399 
L 224.180978 92.464328 
L 230.184359 86.234945 
L 236.121817 88.386564 
L 242.032005 81.834265 
L 247.857343 76.590742 
L 253.623244 74.486253 
L 259.636449 85.489781 
L 265.633094 79.578707 
L 271.666265 70.849738 
L 277.593839 70.098749 
L 283.542456 72.575946 
L 289.541232 78.122572 
L 295.48279 71.129164 
L 301.370625 73.617899 
L 307.227113 82.890752 
L 313.240956 80.715916 
L 319.20347 67.576466 
L 325.159584 66.361195 
L 331.194905 71.391256 
L 337.147817 68.719962 
L 343.066043 66.331483 
L 349.055192 63.438732 
L 355.038788 64.819647 
L 360.960651 65.040405 
L 366.860726 71.953384 
L 372.624009 73.434611 
L 378.5382 64.139173 
L 384.516742 60.439088 
L 390.541751 59.744332 
L 396.53312 60.252552 
L 402.433298 67.677393 
L 408.420265 61.260284 
L 414.36403 61.20492 
L 420.292392 60.075174 
L 426.197833 60.825435 
L 432.006166 65.657533 
L 438.118983 58.154561 
L 444.089209 61.653043 
L 450.119922 58.048061 
L 457.252824 58.517131 
L 463.166436 58.229332 
L 469.16062 57.090625 
L 475.148993 59.773904 
L 481.046358 58.101829 
L 486.952491 55.349155 
L 492.783004 57.539308 
L 498.599715 58.892892 
L 504.58267 57.588064 
L 510.570335 54.843763 
L 516.587805 56.273042 
L 522.486229 55.63435 
L 528.447375 56.10412 
L 534.433942 56.365792 
L 540.366217 59.704538 
L 546.289631 57.438577 
L 552.156213 57.596157 
L 558.172573 59.336255 
L 564.177365 58.25532 
L 570.153307 59.600726 
L 576.203676 61.276722 
L 582.143432 59.093514 
L 588.112017 60.4082 
L 594.143279 58.330903 
L 600.109431 60.026306 
L 606.021635 59.344852 
L 611.904958 59.62565 
L 617.68943 59.27753 
L 623.68266 57.270328 
L 629.665745 56.649334 
L 635.689816 59.229755 
L 641.646028 58.796585 
L 647.584288 55.965416 
L 653.626301 53.942727 
L 659.615568 58.815768 
L 665.544523 59.694064 
L 671.45077 59.039662 
L 677.241 58.86528 
L 683.434384 59.038626 
L 689.497048 59.384926 
L 695.527525 59.144062 
L 701.508817 59.397808 
L 707.42906 60.479471 
L 713.446484 60.434748 
L 719.414002 60.371934 
" clip-path="url(#pcce108cb7f)" style="fill: none; stroke: #55a868; stroke-width: 1.5; stroke-linecap: round"/>
    <defs>
     <path id="mc4423e6030" d="M 0 3 
C 0.795609 3 1.55874 2.683901 2.12132 2.12132 
C 2.683901 1.55874 3 0.795609 3 0 
C 3 -0.795609 2.683901 -1.55874 2.12132 -2.12132 
C 1.55874 -2.683901 0.795609 -3 0 -3 
C -0.795609 -3 -1.55874 -2.683901 -2.12132 -2.12132 
C -2.683901 -1.55874 -3 -0.795609 -3 0 
C -3 0.795609 -2.683901 1.55874 -2.12132 2.12132 
C -1.55874 2.683901 -0.795609 3 0 3 
z
" style="stroke: #ffffff; stroke-width: 0.75"/>
    </defs>
    <g clip-path="url(#pcce108cb7f)">
     <use xlink:href="#mc4423e6030" x="74.52" y="333.777749" style="fill: #55a868; stroke: #ffffff; stroke-width: 0.75"/>
     <use xlink:href="#mc4423e6030" x="80.559388" y="339.48993" style="fill: #55a868; stroke: #ffffff; stroke-width: 0.75"/>
     <use xlink:href="#mc4423e6030" x="86.634982" y="341.857568" style="fill: #55a868; stroke: #ffffff; stroke-width: 0.75"/>
     <use xlink:href="#mc4423e6030" x="92.551659" y="338.304233" style="fill: #55a868; stroke: #ffffff; stroke-width: 0.75"/>
     <use xlink:href="#mc4423e6030" x="98.513999" y="350.397273" style="fill: #55a868; stroke: #ffffff; stroke-width: 0.75"/>
     <use xlink:href="#mc4423e6030" x="104.601699" y="337.038283" style="fill: #55a868; stroke: #ffffff; stroke-width: 0.75"/>
     <use xlink:href="#mc4423e6030" x="110.674109" y="321.32518" style="fill: #55a868; stroke: #ffffff; stroke-width: 0.75"/>
     <use xlink:href="#mc4423e6030" x="116.661586" y="320.265629" style="fill: #55a868; stroke: #ffffff; stroke-width: 0.75"/>
     <use xlink:href="#mc4423e6030" x="122.61671" y="311.53645" style="fill: #55a868; stroke: #ffffff; stroke-width: 0.75"/>
     <use xlink:href="#mc4423e6030" x="128.43093" y="307.008087" style="fill: #55a868; stroke: #ffffff; stroke-width: 0.75"/>
     <use xlink:href="#mc4423e6030" x="134.386395" y="303.049993" style="fill: #55a868; stroke: #ffffff; stroke-width: 0.75"/>
     <use xlink:href="#mc4423e6030" x="140.442991" y="289.640177" style="fill: #55a868; stroke: #ffffff; stroke-width: 0.75"/>
     <use xlink:href="#mc4423e6030" x="146.536538" y="269.138671" style="fill: #55a868; stroke: #ffffff; stroke-width: 0.75"/>
     <use xlink:href="#mc4423e6030" x="152.57386" y="275.095864" style="fill: #55a868; stroke: #ffffff; stroke-width: 0.75"/>
     <use xlink:href="#mc4423e6030" x="158.504747" y="267.385825" style="fill: #55a868; stroke: #ffffff; stroke-width: 0.75"/>
     <use xlink:href="#mc4423e6030" x="164.514598" y="226.674641" style="fill: #55a868; stroke: #ffffff; stroke-width: 0.75"/>
     <use xlink:href="#mc4423e6030" x="170.503813" y="207.065105" style="fill: #55a868; stroke: #ffffff; stroke-width: 0.75"/>
     <use xlink:href="#mc4423e6030" x="176.419764" y="203.541391" style="fill: #55a868; stroke: #ffffff; stroke-width: 0.75"/>
     <use xlink:href="#mc4423e6030" x="182.323727" y="179.778479" style="fill: #55a868; stroke: #ffffff; stroke-width: 0.75"/>
     <use xlink:href="#mc4423e6030" x="188.141802" y="170.129362" style="fill: #55a868; stroke: #ffffff; stroke-width: 0.75"/>
     <use xlink:href="#mc4423e6030" x="194.239229" y="146.49046" style="fill: #55a868; stroke: #ffffff; stroke-width: 0.75"/>
     <use xlink:href="#mc4423e6030" x="200.267195" y="122.492741" style="fill: #55a868; stroke: #ffffff; stroke-width: 0.75"/>
     <use xlink:href="#mc4423e6030" x="206.259015" y="113.836848" style="fill: #55a868; stroke: #ffffff; stroke-width: 0.75"/>
     <use xlink:href="#mc4423e6030" x="212.296204" y="98.876172" style="fill: #55a868; stroke: #ffffff; stroke-width: 0.75"/>
     <use xlink:href="#mc4423e6030" x="218.214889" y="104.239399" style="fill: #55a868; stroke: #ffffff; stroke-width: 0.75"/>
     <use xlink:href="#mc4423e6030" x="224.180978" y="92.464328" style="fill: #55a868; stroke: #ffffff; stroke-width: 0.75"/>
     <use xlink:href="#mc4423e6030" x="230.184359" y="86.234945" style="fill: #55a868; stroke: #ffffff; stroke-width: 0.75"/>
     <use xlink:href="#mc4423e6030" x="236.121817" y="88.386564" style="fill: #55a868; stroke: #ffffff; stroke-width: 0.75"/>
     <use xlink:href="#mc4423e6030" x="242.032005" y="81.834265" style="fill: #55a868; stroke: #ffffff; stroke-width: 0.75"/>
     <use xlink:href="#mc4423e6030" x="247.857343" y="76.590742" style="fill: #55a868; stroke: #ffffff; stroke-width: 0.75"/>
     <use xlink:href="#mc4423e6030" x="253.623244" y="74.486253" style="fill: #55a868; stroke: #ffffff; stroke-width: 0.75"/>
     <use xlink:href="#mc4423e6030" x="259.636449" y="85.489781" style="fill: #55a868; stroke: #ffffff; stroke-width: 0.75"/>
     <use xlink:href="#mc4423e6030" x="265.633094" y="79.578707" style="fill: #55a868; stroke: #ffffff; stroke-width: 0.75"/>
     <use xlink:href="#mc4423e6030" x="271.666265" y="70.849738" style="fill: #55a868; stroke: #ffffff; stroke-width: 0.75"/>
     <use xlink:href="#mc4423e6030" x="277.593839" y="70.098749" style="fill: #55a868; stroke: #ffffff; stroke-width: 0.75"/>
     <use xlink:href="#mc4423e6030" x="283.542456" y="72.575946" style="fill: #55a868; stroke: #ffffff; stroke-width: 0.75"/>
     <use xlink:href="#mc4423e6030" x="289.541232" y="78.122572" style="fill: #55a868; stroke: #ffffff; stroke-width: 0.75"/>
     <use xlink:href="#mc4423e6030" x="295.48279" y="71.129164" style="fill: #55a868; stroke: #ffffff; stroke-width: 0.75"/>
     <use xlink:href="#mc4423e6030" x="301.370625" y="73.617899" style="fill: #55a868; stroke: #ffffff; stroke-width: 0.75"/>
     <use xlink:href="#mc4423e6030" x="307.227113" y="82.890752" style="fill: #55a868; stroke: #ffffff; stroke-width: 0.75"/>
     <use xlink:href="#mc4423e6030" x="313.240956" y="80.715916" style="fill: #55a868; stroke: #ffffff; stroke-width: 0.75"/>
     <use xlink:href="#mc4423e6030" x="319.20347" y="67.576466" style="fill: #55a868; stroke: #ffffff; stroke-width: 0.75"/>
     <use xlink:href="#mc4423e6030" x="325.159584" y="66.361195" style="fill: #55a868; stroke: #ffffff; stroke-width: 0.75"/>
     <use xlink:href="#mc4423e6030" x="331.194905" y="71.391256" style="fill: #55a868; stroke: #ffffff; stroke-width: 0.75"/>
     <use xlink:href="#mc4423e6030" x="337.147817" y="68.719962" style="fill: #55a868; stroke: #ffffff; stroke-width: 0.75"/>
     <use xlink:href="#mc4423e6030" x="343.066043" y="66.331483" style="fill: #55a868; stroke: #ffffff; stroke-width: 0.75"/>
     <use xlink:href="#mc4423e6030" x="349.055192" y="63.438732" style="fill: #55a868; stroke: #ffffff; stroke-width: 0.75"/>
     <use xlink:href="#mc4423e6030" x="355.038788" y="64.819647" style="fill: #55a868; stroke: #ffffff; stroke-width: 0.75"/>
     <use xlink:href="#mc4423e6030" x="360.960651" y="65.040405" style="fill: #55a868; stroke: #ffffff; stroke-width: 0.75"/>
     <use xlink:href="#mc4423e6030" x="366.860726" y="71.953384" style="fill: #55a868; stroke: #ffffff; stroke-width: 0.75"/>
     <use xlink:href="#mc4423e6030" x="372.624009" y="73.434611" style="fill: #55a868; stroke: #ffffff; stroke-width: 0.75"/>
     <use xlink:href="#mc4423e6030" x="378.5382" y="64.139173" style="fill: #55a868; stroke: #ffffff; stroke-width: 0.75"/>
     <use xlink:href="#mc4423e6030" x="384.516742" y="60.439088" style="fill: #55a868; stroke: #ffffff; stroke-width: 0.75"/>
     <use xlink:href="#mc4423e6030" x="390.541751" y="59.744332" style="fill: #55a868; stroke: #ffffff; stroke-width: 0.75"/>
     <use xlink:href="#mc4423e6030" x="396.53312" y="60.252552" style="fill: #55a868; stroke: #ffffff; stroke-width: 0.75"/>
     <use xlink:href="#mc4423e6030" x="402.433298" y="67.677393" style="fill: #55a868; stroke: #ffffff; stroke-width: 0.75"/>
     <use xlink:href="#mc4423e6030" x="408.420265" y="61.260284" style="fill: #55a868; stroke: #ffffff; stroke-width: 0.75"/>
     <use xlink:href="#mc4423e6030" x="414.36403" y="61.20492" style="fill: #55a868; stroke: #ffffff; stroke-width: 0.75"/>
     <use xlink:href="#mc4423e6030" x="420.292392" y="60.075174" style="fill: #55a868; stroke: #ffffff; stroke-width: 0.75"/>
     <use xlink:href="#mc4423e6030" x="426.197833" y="60.825435" style="fill: #55a868; stroke: #ffffff; stroke-width: 0.75"/>
     <use xlink:href="#mc4423e6030" x="432.006166" y="65.657533" style="fill: #55a868; stroke: #ffffff; stroke-width: 0.75"/>
     <use xlink:href="#mc4423e6030" x="438.118983" y="58.154561" style="fill: #55a868; stroke: #ffffff; stroke-width: 0.75"/>
     <use xlink:href="#mc4423e6030" x="444.089209" y="61.653043" style="fill: #55a868; stroke: #ffffff; stroke-width: 0.75"/>
     <use xlink:href="#mc4423e6030" x="450.119922" y="58.048061" style="fill: #55a868; stroke: #ffffff; stroke-width: 0.75"/>
     <use xlink:href="#mc4423e6030" x="457.252824" y="58.517131" style="fill: #55a868; stroke: #ffffff; stroke-width: 0.75"/>
     <use xlink:href="#mc4423e6030" x="463.166436" y="58.229332" style="fill: #55a868; stroke: #ffffff; stroke-width: 0.75"/>
     <use xlink:href="#mc4423e6030" x="469.16062" y="57.090625" style="fill: #55a868; stroke: #ffffff; stroke-width: 0.75"/>
     <use xlink:href="#mc4423e6030" x="475.148993" y="59.773904" style="fill: #55a868; stroke: #ffffff; stroke-width: 0.75"/>
     <use xlink:href="#mc4423e6030" x="481.046358" y="58.101829" style="fill: #55a868; stroke: #ffffff; stroke-width: 0.75"/>
     <use xlink:href="#mc4423e6030" x="486.952491" y="55.349155" style="fill: #55a868; stroke: #ffffff; stroke-width: 0.75"/>
     <use xlink:href="#mc4423e6030" x="492.783004" y="57.539308" style="fill: #55a868; stroke: #ffffff; stroke-width: 0.75"/>
     <use xlink:href="#mc4423e6030" x="498.599715" y="58.892892" style="fill: #55a868; stroke: #ffffff; stroke-width: 0.75"/>
     <use xlink:href="#mc4423e6030" x="504.58267" y="57.588064" style="fill: #55a868; stroke: #ffffff; stroke-width: 0.75"/>
     <use xlink:href="#mc4423e6030" x="510.570335" y="54.843763" style="fill: #55a868; stroke: #ffffff; stroke-width: 0.75"/>
     <use xlink:href="#mc4423e6030" x="516.587805" y="56.273042" style="fill: #55a868; stroke: #ffffff; stroke-width: 0.75"/>
     <use xlink:href="#mc4423e6030" x="522.486229" y="55.63435" style="fill: #55a868; stroke: #ffffff; stroke-width: 0.75"/>
     <use xlink:href="#mc4423e6030" x="528.447375" y="56.10412" style="fill: #55a868; stroke: #ffffff; stroke-width: 0.75"/>
     <use xlink:href="#mc4423e6030" x="534.433942" y="56.365792" style="fill: #55a868; stroke: #ffffff; stroke-width: 0.75"/>
     <use xlink:href="#mc4423e6030" x="540.366217" y="59.704538" style="fill: #55a868; stroke: #ffffff; stroke-width: 0.75"/>
     <use xlink:href="#mc4423e6030" x="546.289631" y="57.438577" style="fill: #55a868; stroke: #ffffff; stroke-width: 0.75"/>
     <use xlink:href="#mc4423e6030" x="552.156213" y="57.596157" style="fill: #55a868; stroke: #ffffff; stroke-width: 0.75"/>
     <use xlink:href="#mc4423e6030" x="558.172573" y="59.336255" style="fill: #55a868; stroke: #ffffff; stroke-width: 0.75"/>
     <use xlink:href="#mc4423e6030" x="564.177365" y="58.25532" style="fill: #55a868; stroke: #ffffff; stroke-width: 0.75"/>
     <use xlink:href="#mc4423e6030" x="570.153307" y="59.600726" style="fill: #55a868; stroke: #ffffff; stroke-width: 0.75"/>
     <use xlink:href="#mc4423e6030" x="576.203676" y="61.276722" style="fill: #55a868; stroke: #ffffff; stroke-width: 0.75"/>
     <use xlink:href="#mc4423e6030" x="582.143432" y="59.093514" style="fill: #55a868; stroke: #ffffff; stroke-width: 0.75"/>
     <use xlink:href="#mc4423e6030" x="588.112017" y="60.4082" style="fill: #55a868; stroke: #ffffff; stroke-width: 0.75"/>
     <use xlink:href="#mc4423e6030" x="594.143279" y="58.330903" style="fill: #55a868; stroke: #ffffff; stroke-width: 0.75"/>
     <use xlink:href="#mc4423e6030" x="600.109431" y="60.026306" style="fill: #55a868; stroke: #ffffff; stroke-width: 0.75"/>
     <use xlink:href="#mc4423e6030" x="606.021635" y="59.344852" style="fill: #55a868; stroke: #ffffff; stroke-width: 0.75"/>
     <use xlink:href="#mc4423e6030" x="611.904958" y="59.62565" style="fill: #55a868; stroke: #ffffff; stroke-width: 0.75"/>
     <use xlink:href="#mc4423e6030" x="617.68943" y="59.27753" style="fill: #55a868; stroke: #ffffff; stroke-width: 0.75"/>
     <use xlink:href="#mc4423e6030" x="623.68266" y="57.270328" style="fill: #55a868; stroke: #ffffff; stroke-width: 0.75"/>
     <use xlink:href="#mc4423e6030" x="629.665745" y="56.649334" style="fill: #55a868; stroke: #ffffff; stroke-width: 0.75"/>
     <use xlink:href="#mc4423e6030" x="635.689816" y="59.229755" style="fill: #55a868; stroke: #ffffff; stroke-width: 0.75"/>
     <use xlink:href="#mc4423e6030" x="641.646028" y="58.796585" style="fill: #55a868; stroke: #ffffff; stroke-width: 0.75"/>
     <use xlink:href="#mc4423e6030" x="647.584288" y="55.965416" style="fill: #55a868; stroke: #ffffff; stroke-width: 0.75"/>
     <use xlink:href="#mc4423e6030" x="653.626301" y="53.942727" style="fill: #55a868; stroke: #ffffff; stroke-width: 0.75"/>
     <use xlink:href="#mc4423e6030" x="659.615568" y="58.815768" style="fill: #55a868; stroke: #ffffff; stroke-width: 0.75"/>
     <use xlink:href="#mc4423e6030" x="665.544523" y="59.694064" style="fill: #55a868; stroke: #ffffff; stroke-width: 0.75"/>
     <use xlink:href="#mc4423e6030" x="671.45077" y="59.039662" style="fill: #55a868; stroke: #ffffff; stroke-width: 0.75"/>
     <use xlink:href="#mc4423e6030" x="677.241" y="58.86528" style="fill: #55a868; stroke: #ffffff; stroke-width: 0.75"/>
     <use xlink:href="#mc4423e6030" x="683.434384" y="59.038626" style="fill: #55a868; stroke: #ffffff; stroke-width: 0.75"/>
     <use xlink:href="#mc4423e6030" x="689.497048" y="59.384926" style="fill: #55a868; stroke: #ffffff; stroke-width: 0.75"/>
     <use xlink:href="#mc4423e6030" x="695.527525" y="59.144062" style="fill: #55a868; stroke: #ffffff; stroke-width: 0.75"/>
     <use xlink:href="#mc4423e6030" x="701.508817" y="59.397808" style="fill: #55a868; stroke: #ffffff; stroke-width: 0.75"/>
     <use xlink:href="#mc4423e6030" x="707.42906" y="60.479471" style="fill: #55a868; stroke: #ffffff; stroke-width: 0.75"/>
     <use xlink:href="#mc4423e6030" x="713.446484" y="60.434748" style="fill: #55a868; stroke: #ffffff; stroke-width: 0.75"/>
     <use xlink:href="#mc4423e6030" x="719.414002" y="60.371934" style="fill: #55a868; stroke: #ffffff; stroke-width: 0.75"/>
    </g>
   </g>
   <g id="patch_3">
    <path d="M 74.52 365.22 
L 74.52 39.12 
" style="fill: none; stroke: #cccccc; stroke-width: 1.25; stroke-linejoin: miter; stroke-linecap: square"/>
   </g>
   <g id="patch_4">
    <path d="M 690.075 365.22 
L 690.075 39.12 
" style="fill: none; stroke: #cccccc; stroke-width: 1.25; stroke-linejoin: miter; stroke-linecap: square"/>
   </g>
   <g id="patch_5">
    <path d="M 74.52 365.22 
L 690.075 365.22 
" style="fill: none; stroke: #cccccc; stroke-width: 1.25; stroke-linejoin: miter; stroke-linecap: square"/>
   </g>
   <g id="patch_6">
    <path d="M 74.52 39.12 
L 690.075 39.12 
" style="fill: none; stroke: #cccccc; stroke-width: 1.25; stroke-linejoin: miter; stroke-linecap: square"/>
   </g>
   <g id="text_19">
    <!-- Isaac-Velocity-Flat-Unitree-A1 -->
    <g style="fill: #262626" transform="translate(250.072031 33.12) scale(0.18 -0.18)">
     <defs>
      <path id="DejaVuSans-49" d="M 628 4666 
L 1259 4666 
L 1259 0 
L 628 0 
L 628 4666 
z
" transform="scale(0.015625)"/>
      <path id="DejaVuSans-63" d="M 3122 3366 
L 3122 2828 
Q 2878 2963 2633 3030 
Q 2388 3097 2138 3097 
Q 1578 3097 1268 2742 
Q 959 2388 959 1747 
Q 959 1106 1268 751 
Q 1578 397 2138 397 
Q 2388 397 2633 464 
Q 2878 531 3122 666 
L 3122 134 
Q 2881 22 2623 -34 
Q 2366 -91 2075 -91 
Q 1284 -91 818 406 
Q 353 903 353 1747 
Q 353 2603 823 3093 
Q 1294 3584 2113 3584 
Q 2378 3584 2631 3529 
Q 2884 3475 3122 3366 
z
" transform="scale(0.015625)"/>
      <path id="DejaVuSans-2d" d="M 313 2009 
L 1997 2009 
L 1997 1497 
L 313 1497 
L 313 2009 
z
" transform="scale(0.015625)"/>
      <path id="DejaVuSans-56" d="M 1831 0 
L 50 4666 
L 709 4666 
L 2188 738 
L 3669 4666 
L 4325 4666 
L 2547 0 
L 1831 0 
z
" transform="scale(0.015625)"/>
      <path id="DejaVuSans-6c" d="M 603 4863 
L 1178 4863 
L 1178 0 
L 603 0 
L 603 4863 
z
" transform="scale(0.015625)"/>
      <path id="DejaVuSans-79" d="M 2059 -325 
Q 1816 -950 1584 -1140 
Q 1353 -1331 966 -1331 
L 506 -1331 
L 506 -850 
L 844 -850 
Q 1081 -850 1212 -737 
Q 1344 -625 1503 -206 
L 1606 56 
L 191 3500 
L 800 3500 
L 1894 763 
L 2988 3500 
L 3597 3500 
L 2059 -325 
z
" transform="scale(0.015625)"/>
      <path id="DejaVuSans-46" d="M 628 4666 
L 3309 4666 
L 3309 4134 
L 1259 4134 
L 1259 2759 
L 3109 2759 
L 3109 2228 
L 1259 2228 
L 1259 0 
L 628 0 
L 628 4666 
z
" transform="scale(0.015625)"/>
      <path id="DejaVuSans-55" d="M 556 4666 
L 1191 4666 
L 1191 1831 
Q 1191 1081 1462 751 
Q 1734 422 2344 422 
Q 2950 422 3222 751 
Q 3494 1081 3494 1831 
L 3494 4666 
L 4128 4666 
L 4128 1753 
Q 4128 841 3676 375 
Q 3225 -91 2344 -91 
Q 1459 -91 1007 375 
Q 556 841 556 1753 
L 556 4666 
z
" transform="scale(0.015625)"/>
      <path id="DejaVuSans-41" d="M 2188 4044 
L 1331 1722 
L 3047 1722 
L 2188 4044 
z
M 1831 4666 
L 2547 4666 
L 4325 0 
L 3669 0 
L 3244 1197 
L 1141 1197 
L 716 0 
L 50 0 
L 1831 4666 
z
" transform="scale(0.015625)"/>
     </defs>
     <use xlink:href="#DejaVuSans-49"/>
     <use xlink:href="#DejaVuSans-73" transform="translate(29.492188 0)"/>
     <use xlink:href="#DejaVuSans-61" transform="translate(81.591797 0)"/>
     <use xlink:href="#DejaVuSans-61" transform="translate(142.871094 0)"/>
     <use xlink:href="#DejaVuSans-63" transform="translate(204.150391 0)"/>
     <use xlink:href="#DejaVuSans-2d" transform="translate(259.130859 0)"/>
     <use xlink:href="#DejaVuSans-56" transform="translate(289.339844 0)"/>
     <use xlink:href="#DejaVuSans-65" transform="translate(349.998047 0)"/>
     <use xlink:href="#DejaVuSans-6c" transform="translate(411.521484 0)"/>
     <use xlink:href="#DejaVuSans-6f" transform="translate(439.304688 0)"/>
     <use xlink:href="#DejaVuSans-63" transform="translate(500.486328 0)"/>
     <use xlink:href="#DejaVuSans-69" transform="translate(555.466797 0)"/>
     <use xlink:href="#DejaVuSans-74" transform="translate(583.25 0)"/>
     <use xlink:href="#DejaVuSans-79" transform="translate(622.458984 0)"/>
     <use xlink:href="#DejaVuSans-2d" transform="translate(679.888672 0)"/>
     <use xlink:href="#DejaVuSans-46" transform="translate(715.972656 0)"/>
     <use xlink:href="#DejaVuSans-6c" transform="translate(773.492188 0)"/>
     <use xlink:href="#DejaVuSans-61" transform="translate(801.275391 0)"/>
     <use xlink:href="#DejaVuSans-74" transform="translate(862.554688 0)"/>
     <use xlink:href="#DejaVuSans-2d" transform="translate(901.763672 0)"/>
     <use xlink:href="#DejaVuSans-55" transform="translate(937.847656 0)"/>
     <use xlink:href="#DejaVuSans-6e" transform="translate(1011.041016 0)"/>
     <use xlink:href="#DejaVuSans-69" transform="translate(1074.419922 0)"/>
     <use xlink:href="#DejaVuSans-74" transform="translate(1102.203125 0)"/>
     <use xlink:href="#DejaVuSans-72" transform="translate(1141.412109 0)"/>
     <use xlink:href="#DejaVuSans-65" transform="translate(1180.275391 0)"/>
     <use xlink:href="#DejaVuSans-65" transform="translate(1241.798828 0)"/>
     <use xlink:href="#DejaVuSans-2d" transform="translate(1303.322266 0)"/>
     <use xlink:href="#DejaVuSans-41" transform="translate(1337.15625 0)"/>
     <use xlink:href="#DejaVuSans-31" transform="translate(1405.564453 0)"/>
    </g>
   </g>
   <g id="legend_1">
    <g id="patch_7">
     <path d="M 389.205234 356.97 
L 678.525 356.97 
Q 681.825 356.97 681.825 353.67 
L 681.825 282.663281 
Q 681.825 279.363281 678.525 279.363281 
L 389.205234 279.363281 
Q 385.905234 279.363281 385.905234 282.663281 
L 385.905234 353.67 
Q 385.905234 356.97 389.205234 356.97 
z
" style="fill: #ffffff; opacity: 0.8; stroke: #cccccc; stroke-linejoin: miter"/>
    </g>
    <g id="line2d_20">
     <path d="M 392.505234 292.725703 
L 409.005234 292.725703 
L 425.505234 292.725703 
" style="fill: none; stroke: #4c72b0; stroke-width: 1.5; stroke-linecap: round"/>
    </g>
    <g id="text_20">
     <!-- PPO tuned for speed -->
     <g style="fill: #262626" transform="translate(438.705234 298.500703) scale(0.165 -0.165)">
      <defs>
       <path id="DejaVuSans-50" d="M 1259 4147 
L 1259 2394 
L 2053 2394 
Q 2494 2394 2734 2622 
Q 2975 2850 2975 3272 
Q 2975 3691 2734 3919 
Q 2494 4147 2053 4147 
L 1259 4147 
z
M 628 4666 
L 2053 4666 
Q 2838 4666 3239 4311 
Q 3641 3956 3641 3272 
Q 3641 2581 3239 2228 
Q 2838 1875 2053 1875 
L 1259 1875 
L 1259 0 
L 628 0 
L 628 4666 
z
" transform="scale(0.015625)"/>
       <path id="DejaVuSans-4f" d="M 2522 4238 
Q 1834 4238 1429 3725 
Q 1025 3213 1025 2328 
Q 1025 1447 1429 934 
Q 1834 422 2522 422 
Q 3209 422 3611 934 
Q 4013 1447 4013 2328 
Q 4013 3213 3611 3725 
Q 3209 4238 2522 4238 
z
M 2522 4750 
Q 3503 4750 4090 4092 
Q 4678 3434 4678 2328 
Q 4678 1225 4090 567 
Q 3503 -91 2522 -91 
Q 1538 -91 948 565 
Q 359 1222 359 2328 
Q 359 3434 948 4092 
Q 1538 4750 2522 4750 
z
" transform="scale(0.015625)"/>
       <path id="DejaVuSans-66" d="M 2375 4863 
L 2375 4384 
L 1825 4384 
Q 1516 4384 1395 4259 
Q 1275 4134 1275 3809 
L 1275 3500 
L 2222 3500 
L 2222 3053 
L 1275 3053 
L 1275 0 
L 697 0 
L 697 3053 
L 147 3053 
L 147 3500 
L 697 3500 
L 697 3744 
Q 697 4328 969 4595 
Q 1241 4863 1831 4863 
L 2375 4863 
z
" transform="scale(0.015625)"/>
      </defs>
      <use xlink:href="#DejaVuSans-50"/>
      <use xlink:href="#DejaVuSans-50" transform="translate(60.302734 0)"/>
      <use xlink:href="#DejaVuSans-4f" transform="translate(120.605469 0)"/>
      <use xlink:href="#DejaVuSans-20" transform="translate(199.316406 0)"/>
      <use xlink:href="#DejaVuSans-74" transform="translate(231.103516 0)"/>
      <use xlink:href="#DejaVuSans-75" transform="translate(270.3125 0)"/>
      <use xlink:href="#DejaVuSans-6e" transform="translate(333.691406 0)"/>
      <use xlink:href="#DejaVuSans-65" transform="translate(397.070312 0)"/>
      <use xlink:href="#DejaVuSans-64" transform="translate(458.59375 0)"/>
      <use xlink:href="#DejaVuSans-20" transform="translate(522.070312 0)"/>
      <use xlink:href="#DejaVuSans-66" transform="translate(553.857422 0)"/>
      <use xlink:href="#DejaVuSans-6f" transform="translate(589.0625 0)"/>
      <use xlink:href="#DejaVuSans-72" transform="translate(650.244141 0)"/>
      <use xlink:href="#DejaVuSans-20" transform="translate(691.357422 0)"/>
      <use xlink:href="#DejaVuSans-73" transform="translate(723.144531 0)"/>
      <use xlink:href="#DejaVuSans-70" transform="translate(775.244141 0)"/>
      <use xlink:href="#DejaVuSans-65" transform="translate(838.720703 0)"/>
      <use xlink:href="#DejaVuSans-65" transform="translate(900.244141 0)"/>
      <use xlink:href="#DejaVuSans-64" transform="translate(961.767578 0)"/>
     </g>
    </g>
    <g id="line2d_21">
     <path d="M 392.505234 316.944609 
L 409.005234 316.944609 
L 425.505234 316.944609 
" style="fill: none; stroke: #dd8452; stroke-width: 1.5; stroke-linecap: round"/>
     <g>
      <use xlink:href="#m16ffa404a7" x="409.005234" y="316.944609" style="fill: #dd8452; stroke: #ffffff; stroke-width: 0.75"/>
     </g>
    </g>
    <g id="text_21">
     <!-- SAC with quick fix -->
     <g style="fill: #262626" transform="translate(438.705234 322.719609) scale(0.165 -0.165)">
      <defs>
       <path id="DejaVuSans-53" d="M 3425 4513 
L 3425 3897 
Q 3066 4069 2747 4153 
Q 2428 4238 2131 4238 
Q 1616 4238 1336 4038 
Q 1056 3838 1056 3469 
Q 1056 3159 1242 3001 
Q 1428 2844 1947 2747 
L 2328 2669 
Q 3034 2534 3370 2195 
Q 3706 1856 3706 1288 
Q 3706 609 3251 259 
Q 2797 -91 1919 -91 
Q 1588 -91 1214 -16 
Q 841 59 441 206 
L 441 856 
Q 825 641 1194 531 
Q 1563 422 1919 422 
Q 2459 422 2753 634 
Q 3047 847 3047 1241 
Q 3047 1584 2836 1778 
Q 2625 1972 2144 2069 
L 1759 2144 
Q 1053 2284 737 2584 
Q 422 2884 422 3419 
Q 422 4038 858 4394 
Q 1294 4750 2059 4750 
Q 2388 4750 2728 4690 
Q 3069 4631 3425 4513 
z
" transform="scale(0.015625)"/>
       <path id="DejaVuSans-43" d="M 4122 4306 
L 4122 3641 
Q 3803 3938 3442 4084 
Q 3081 4231 2675 4231 
Q 1875 4231 1450 3742 
Q 1025 3253 1025 2328 
Q 1025 1406 1450 917 
Q 1875 428 2675 428 
Q 3081 428 3442 575 
Q 3803 722 4122 1019 
L 4122 359 
Q 3791 134 3420 21 
Q 3050 -91 2638 -91 
Q 1578 -91 968 557 
Q 359 1206 359 2328 
Q 359 3453 968 4101 
Q 1578 4750 2638 4750 
Q 3056 4750 3426 4639 
Q 3797 4528 4122 4306 
z
" transform="scale(0.015625)"/>
       <path id="DejaVuSans-77" d="M 269 3500 
L 844 3500 
L 1563 769 
L 2278 3500 
L 2956 3500 
L 3675 769 
L 4391 3500 
L 4966 3500 
L 4050 0 
L 3372 0 
L 2619 2869 
L 1863 0 
L 1184 0 
L 269 3500 
z
" transform="scale(0.015625)"/>
       <path id="DejaVuSans-68" d="M 3513 2113 
L 3513 0 
L 2938 0 
L 2938 2094 
Q 2938 2591 2744 2837 
Q 2550 3084 2163 3084 
Q 1697 3084 1428 2787 
Q 1159 2491 1159 1978 
L 1159 0 
L 581 0 
L 581 4863 
L 1159 4863 
L 1159 2956 
Q 1366 3272 1645 3428 
Q 1925 3584 2291 3584 
Q 2894 3584 3203 3211 
Q 3513 2838 3513 2113 
z
" transform="scale(0.015625)"/>
       <path id="DejaVuSans-71" d="M 947 1747 
Q 947 1113 1208 752 
Q 1469 391 1925 391 
Q 2381 391 2643 752 
Q 2906 1113 2906 1747 
Q 2906 2381 2643 2742 
Q 2381 3103 1925 3103 
Q 1469 3103 1208 2742 
Q 947 2381 947 1747 
z
M 2906 525 
Q 2725 213 2448 61 
Q 2172 -91 1784 -91 
Q 1150 -91 751 415 
Q 353 922 353 1747 
Q 353 2572 751 3078 
Q 1150 3584 1784 3584 
Q 2172 3584 2448 3432 
Q 2725 3281 2906 2969 
L 2906 3500 
L 3481 3500 
L 3481 -1331 
L 2906 -1331 
L 2906 525 
z
" transform="scale(0.015625)"/>
       <path id="DejaVuSans-6b" d="M 581 4863 
L 1159 4863 
L 1159 1991 
L 2875 3500 
L 3609 3500 
L 1753 1863 
L 3688 0 
L 2938 0 
L 1159 1709 
L 1159 0 
L 581 0 
L 581 4863 
z
" transform="scale(0.015625)"/>
       <path id="DejaVuSans-78" d="M 3513 3500 
L 2247 1797 
L 3578 0 
L 2900 0 
L 1881 1375 
L 863 0 
L 184 0 
L 1544 1831 
L 300 3500 
L 978 3500 
L 1906 2253 
L 2834 3500 
L 3513 3500 
z
" transform="scale(0.015625)"/>
      </defs>
      <use xlink:href="#DejaVuSans-53"/>
      <use xlink:href="#DejaVuSans-41" transform="translate(65.351562 0)"/>
      <use xlink:href="#DejaVuSans-43" transform="translate(132.009766 0)"/>
      <use xlink:href="#DejaVuSans-20" transform="translate(201.833984 0)"/>
      <use xlink:href="#DejaVuSans-77" transform="translate(233.621094 0)"/>
      <use xlink:href="#DejaVuSans-69" transform="translate(315.408203 0)"/>
      <use xlink:href="#DejaVuSans-74" transform="translate(343.191406 0)"/>
      <use xlink:href="#DejaVuSans-68" transform="translate(382.400391 0)"/>
      <use xlink:href="#DejaVuSans-20" transform="translate(445.779297 0)"/>
      <use xlink:href="#DejaVuSans-71" transform="translate(477.566406 0)"/>
      <use xlink:href="#DejaVuSans-75" transform="translate(541.042969 0)"/>
      <use xlink:href="#DejaVuSans-69" transform="translate(604.421875 0)"/>
      <use xlink:href="#DejaVuSans-63" transform="translate(632.205078 0)"/>
      <use xlink:href="#DejaVuSans-6b" transform="translate(687.185547 0)"/>
      <use xlink:href="#DejaVuSans-20" transform="translate(745.095703 0)"/>
      <use xlink:href="#DejaVuSans-66" transform="translate(776.882812 0)"/>
      <use xlink:href="#DejaVuSans-69" transform="translate(812.087891 0)"/>
      <use xlink:href="#DejaVuSans-78" transform="translate(839.871094 0)"/>
     </g>
    </g>
    <g id="line2d_22">
     <path d="M 392.505234 341.163516 
L 409.005234 341.163516 
L 425.505234 341.163516 
" style="fill: none; stroke: #55a868; stroke-width: 1.5; stroke-linecap: round"/>
     <g>
      <use xlink:href="#mc4423e6030" x="409.005234" y="341.163516" style="fill: #55a868; stroke: #ffffff; stroke-width: 0.75"/>
     </g>
    </g>
    <g id="text_22">
     <!-- SAC tuned for speed (part II) -->
     <g style="fill: #262626" transform="translate(438.705234 346.938516) scale(0.165 -0.165)">
      <use xlink:href="#DejaVuSans-53"/>
      <use xlink:href="#DejaVuSans-41" transform="translate(65.351562 0)"/>
      <use xlink:href="#DejaVuSans-43" transform="translate(132.009766 0)"/>
      <use xlink:href="#DejaVuSans-20" transform="translate(201.833984 0)"/>
      <use xlink:href="#DejaVuSans-74" transform="translate(233.621094 0)"/>
      <use xlink:href="#DejaVuSans-75" transform="translate(272.830078 0)"/>
      <use xlink:href="#DejaVuSans-6e" transform="translate(336.208984 0)"/>
      <use xlink:href="#DejaVuSans-65" transform="translate(399.587891 0)"/>
      <use xlink:href="#DejaVuSans-64" transform="translate(461.111328 0)"/>
      <use xlink:href="#DejaVuSans-20" transform="translate(524.587891 0)"/>
      <use xlink:href="#DejaVuSans-66" transform="translate(556.375 0)"/>
      <use xlink:href="#DejaVuSans-6f" transform="translate(591.580078 0)"/>
      <use xlink:href="#DejaVuSans-72" transform="translate(652.761719 0)"/>
      <use xlink:href="#DejaVuSans-20" transform="translate(693.875 0)"/>
      <use xlink:href="#DejaVuSans-73" transform="translate(725.662109 0)"/>
      <use xlink:href="#DejaVuSans-70" transform="translate(777.761719 0)"/>
      <use xlink:href="#DejaVuSans-65" transform="translate(841.238281 0)"/>
      <use xlink:href="#DejaVuSans-65" transform="translate(902.761719 0)"/>
      <use xlink:href="#DejaVuSans-64" transform="translate(964.285156 0)"/>
      <use xlink:href="#DejaVuSans-20" transform="translate(1027.761719 0)"/>
      <use xlink:href="#DejaVuSans-28" transform="translate(1059.548828 0)"/>
      <use xlink:href="#DejaVuSans-70" transform="translate(1098.5625 0)"/>
      <use xlink:href="#DejaVuSans-61" transform="translate(1162.039062 0)"/>
      <use xlink:href="#DejaVuSans-72" transform="translate(1223.318359 0)"/>
      <use xlink:href="#DejaVuSans-74" transform="translate(1264.431641 0)"/>
      <use xlink:href="#DejaVuSans-20" transform="translate(1303.640625 0)"/>
      <use xlink:href="#DejaVuSans-49" transform="translate(1335.427734 0)"/>
      <use xlink:href="#DejaVuSans-49" transform="translate(1364.919922 0)"/>
      <use xlink:href="#DejaVuSans-29" transform="translate(1394.412109 0)"/>
     </g>
    </g>
   </g>
  </g>
 </g>
 <defs>
  <clipPath id="pcce108cb7f">
   <rect x="74.52" y="39.12" width="615.555" height="326.1"/>
  </clipPath>
 </defs>
</svg>
