<?xml version="1.0" encoding="utf-8" standalone="no"?>
<!DOCTYPE svg PUBLIC "-//W3C//DTD SVG 1.1//EN"
  "http://www.w3.org/Graphics/SVG/1.1/DTD/svg11.dtd">
<svg xmlns:xlink="http://www.w3.org/1999/xlink" width="864pt" height="432pt" viewBox="0 0 864 432" xmlns="http://www.w3.org/2000/svg" version="1.1">
 <metadata>
  <rdf:RDF xmlns:dc="http://purl.org/dc/elements/1.1/" xmlns:cc="http://creativecommons.org/ns#" xmlns:rdf="http://www.w3.org/1999/02/22-rdf-syntax-ns#">
   <cc:Work>
    <dc:type rdf:resource="http://purl.org/dc/dcmitype/StillImage"/>
    <dc:date>2025-03-06T09:19:31.107524</dc:date>
    <dc:format>image/svg+xml</dc:format>
    <dc:creator>
     <cc:Agent>
      <dc:title>Matplotlib v3.10.1, https://matplotlib.org/</dc:title>
     </cc:Agent>
    </dc:creator>
   </cc:Work>
  </rdf:RDF>
 </metadata>
 <defs>
  <style type="text/css">*{stroke-linejoin: round; stroke-linecap: butt}</style>
 </defs>
 <g id="figure_1">
  <g id="patch_1">
   <path d="M 0 432 
L 864 432 
L 864 0 
L 0 0 
z
" style="fill: #ffffff"/>
  </g>
  <g id="axes_1">
   <g id="patch_2">
    <path d="M 87.03 365.22 
L 844.56 365.22 
L 844.56 53.28 
L 87.03 53.28 
z
" style="fill: #eaeaf2"/>
   </g>
   <g id="matplotlib.axis_1">
    <g id="xtick_1">
     <g id="line2d_1">
      <path d="M 121.213069 365.22 
L 121.213069 53.28 
" clip-path="url(#p788aa99006)" style="fill: none; stroke: #ffffff; stroke-linecap: round"/>
     </g>
     <g id="text_1">
      <!-- −100 -->
      <g style="fill: #262626" transform="translate(98.552639 387.257422) scale(0.165 -0.165)">
       <defs>
        <path id="DejaVuSans-2212" d="M 678 2272 
L 4684 2272 
L 4684 1741 
L 678 1741 
L 678 2272 
z
" transform="scale(0.015625)"/>
        <path id="DejaVuSans-31" d="M 794 531 
L 1825 531 
L 1825 4091 
L 703 3866 
L 703 4441 
L 1819 4666 
L 2450 4666 
L 2450 531 
L 3481 531 
L 3481 0 
L 794 0 
L 794 531 
z
" transform="scale(0.015625)"/>
        <path id="DejaVuSans-30" d="M 2034 4250 
Q 1547 4250 1301 3770 
Q 1056 3291 1056 2328 
Q 1056 1369 1301 889 
Q 1547 409 2034 409 
Q 2525 409 2770 889 
Q 3016 1369 3016 2328 
Q 3016 3291 2770 3770 
Q 2525 4250 2034 4250 
z
M 2034 4750 
Q 2819 4750 3233 4129 
Q 3647 3509 3647 2328 
Q 3647 1150 3233 529 
Q 2819 -91 2034 -91 
Q 1250 -91 836 529 
Q 422 1150 422 2328 
Q 422 3509 836 4129 
Q 1250 4750 2034 4750 
z
" transform="scale(0.015625)"/>
       </defs>
       <use xlink:href="#DejaVuSans-2212"/>
       <use xlink:href="#DejaVuSans-31" transform="translate(83.789062 0)"/>
       <use xlink:href="#DejaVuSans-30" transform="translate(147.412109 0)"/>
       <use xlink:href="#DejaVuSans-30" transform="translate(211.035156 0)"/>
      </g>
     </g>
    </g>
    <g id="xtick_2">
     <g id="line2d_2">
      <path d="M 207.341009 365.22 
L 207.341009 53.28 
" clip-path="url(#p788aa99006)" style="fill: none; stroke: #ffffff; stroke-linecap: round"/>
     </g>
     <g id="text_2">
      <!-- −75 -->
      <g style="fill: #262626" transform="translate(189.929642 387.257422) scale(0.165 -0.165)">
       <defs>
        <path id="DejaVuSans-37" d="M 525 4666 
L 3525 4666 
L 3525 4397 
L 1831 0 
L 1172 0 
L 2766 4134 
L 525 4134 
L 525 4666 
z
" transform="scale(0.015625)"/>
        <path id="DejaVuSans-35" d="M 691 4666 
L 3169 4666 
L 3169 4134 
L 1269 4134 
L 1269 2991 
Q 1406 3038 1543 3061 
Q 1681 3084 1819 3084 
Q 2600 3084 3056 2656 
Q 3513 2228 3513 1497 
Q 3513 744 3044 326 
Q 2575 -91 1722 -91 
Q 1428 -91 1123 -41 
Q 819 9 494 109 
L 494 744 
Q 775 591 1075 516 
Q 1375 441 1709 441 
Q 2250 441 2565 725 
Q 2881 1009 2881 1497 
Q 2881 1984 2565 2268 
Q 2250 2553 1709 2553 
Q 1456 2553 1204 2497 
Q 953 2441 691 2322 
L 691 4666 
z
" transform="scale(0.015625)"/>
       </defs>
       <use xlink:href="#DejaVuSans-2212"/>
       <use xlink:href="#DejaVuSans-37" transform="translate(83.789062 0)"/>
       <use xlink:href="#DejaVuSans-35" transform="translate(147.412109 0)"/>
      </g>
     </g>
    </g>
    <g id="xtick_3">
     <g id="line2d_3">
      <path d="M 293.468949 365.22 
L 293.468949 53.28 
" clip-path="url(#p788aa99006)" style="fill: none; stroke: #ffffff; stroke-linecap: round"/>
     </g>
     <g id="text_3">
      <!-- −50 -->
      <g style="fill: #262626" transform="translate(276.057582 387.257422) scale(0.165 -0.165)">
       <use xlink:href="#DejaVuSans-2212"/>
       <use xlink:href="#DejaVuSans-35" transform="translate(83.789062 0)"/>
       <use xlink:href="#DejaVuSans-30" transform="translate(147.412109 0)"/>
      </g>
     </g>
    </g>
    <g id="xtick_4">
     <g id="line2d_4">
      <path d="M 379.59689 365.22 
L 379.59689 53.28 
" clip-path="url(#p788aa99006)" style="fill: none; stroke: #ffffff; stroke-linecap: round"/>
     </g>
     <g id="text_4">
      <!-- −25 -->
      <g style="fill: #262626" transform="translate(362.185522 387.257422) scale(0.165 -0.165)">
       <defs>
        <path id="DejaVuSans-32" d="M 1228 531 
L 3431 531 
L 3431 0 
L 469 0 
L 469 531 
Q 828 903 1448 1529 
Q 2069 2156 2228 2338 
Q 2531 2678 2651 2914 
Q 2772 3150 2772 3378 
Q 2772 3750 2511 3984 
Q 2250 4219 1831 4219 
Q 1534 4219 1204 4116 
Q 875 4013 500 3803 
L 500 4441 
Q 881 4594 1212 4672 
Q 1544 4750 1819 4750 
Q 2544 4750 2975 4387 
Q 3406 4025 3406 3419 
Q 3406 3131 3298 2873 
Q 3191 2616 2906 2266 
Q 2828 2175 2409 1742 
Q 1991 1309 1228 531 
z
" transform="scale(0.015625)"/>
       </defs>
       <use xlink:href="#DejaVuSans-2212"/>
       <use xlink:href="#DejaVuSans-32" transform="translate(83.789062 0)"/>
       <use xlink:href="#DejaVuSans-35" transform="translate(147.412109 0)"/>
      </g>
     </g>
    </g>
    <g id="xtick_5">
     <g id="line2d_5">
      <path d="M 465.72483 365.22 
L 465.72483 53.28 
" clip-path="url(#p788aa99006)" style="fill: none; stroke: #ffffff; stroke-linecap: round"/>
     </g>
     <g id="text_5">
      <!-- 0 -->
      <g style="fill: #262626" transform="translate(460.475767 387.257422) scale(0.165 -0.165)">
       <use xlink:href="#DejaVuSans-30"/>
      </g>
     </g>
    </g>
    <g id="xtick_6">
     <g id="line2d_6">
      <path d="M 551.85277 365.22 
L 551.85277 53.28 
" clip-path="url(#p788aa99006)" style="fill: none; stroke: #ffffff; stroke-linecap: round"/>
     </g>
     <g id="text_6">
      <!-- 25 -->
      <g style="fill: #262626" transform="translate(541.354645 387.257422) scale(0.165 -0.165)">
       <use xlink:href="#DejaVuSans-32"/>
       <use xlink:href="#DejaVuSans-35" transform="translate(63.623047 0)"/>
      </g>
     </g>
    </g>
    <g id="xtick_7">
     <g id="line2d_7">
      <path d="M 637.98071 365.22 
L 637.98071 53.28 
" clip-path="url(#p788aa99006)" style="fill: none; stroke: #ffffff; stroke-linecap: round"/>
     </g>
     <g id="text_7">
      <!-- 50 -->
      <g style="fill: #262626" transform="translate(627.482585 387.257422) scale(0.165 -0.165)">
       <use xlink:href="#DejaVuSans-35"/>
       <use xlink:href="#DejaVuSans-30" transform="translate(63.623047 0)"/>
      </g>
     </g>
    </g>
    <g id="xtick_8">
     <g id="line2d_8">
      <path d="M 724.108651 365.22 
L 724.108651 53.28 
" clip-path="url(#p788aa99006)" style="fill: none; stroke: #ffffff; stroke-linecap: round"/>
     </g>
     <g id="text_8">
      <!-- 75 -->
      <g style="fill: #262626" transform="translate(713.610526 387.257422) scale(0.165 -0.165)">
       <use xlink:href="#DejaVuSans-37"/>
       <use xlink:href="#DejaVuSans-35" transform="translate(63.623047 0)"/>
      </g>
     </g>
    </g>
    <g id="xtick_9">
     <g id="line2d_9">
      <path d="M 810.236591 365.22 
L 810.236591 53.28 
" clip-path="url(#p788aa99006)" style="fill: none; stroke: #ffffff; stroke-linecap: round"/>
     </g>
     <g id="text_9">
      <!-- 100 -->
      <g style="fill: #262626" transform="translate(794.489403 387.257422) scale(0.165 -0.165)">
       <use xlink:href="#DejaVuSans-31"/>
       <use xlink:href="#DejaVuSans-30" transform="translate(63.623047 0)"/>
       <use xlink:href="#DejaVuSans-30" transform="translate(127.246094 0)"/>
      </g>
     </g>
    </g>
    <g id="text_10">
     <!-- Action -->
     <g style="fill: #262626" transform="translate(437.608125 408.366094) scale(0.18 -0.18)">
      <defs>
       <path id="DejaVuSans-41" d="M 2188 4044 
L 1331 1722 
L 3047 1722 
L 2188 4044 
z
M 1831 4666 
L 2547 4666 
L 4325 0 
L 3669 0 
L 3244 1197 
L 1141 1197 
L 716 0 
L 50 0 
L 1831 4666 
z
" transform="scale(0.015625)"/>
       <path id="DejaVuSans-63" d="M 3122 3366 
L 3122 2828 
Q 2878 2963 2633 3030 
Q 2388 3097 2138 3097 
Q 1578 3097 1268 2742 
Q 959 2388 959 1747 
Q 959 1106 1268 751 
Q 1578 397 2138 397 
Q 2388 397 2633 464 
Q 2878 531 3122 666 
L 3122 134 
Q 2881 22 2623 -34 
Q 2366 -91 2075 -91 
Q 1284 -91 818 406 
Q 353 903 353 1747 
Q 353 2603 823 3093 
Q 1294 3584 2113 3584 
Q 2378 3584 2631 3529 
Q 2884 3475 3122 3366 
z
" transform="scale(0.015625)"/>
       <path id="DejaVuSans-74" d="M 1172 4494 
L 1172 3500 
L 2356 3500 
L 2356 3053 
L 1172 3053 
L 1172 1153 
Q 1172 725 1289 603 
Q 1406 481 1766 481 
L 2356 481 
L 2356 0 
L 1766 0 
Q 1100 0 847 248 
Q 594 497 594 1153 
L 594 3053 
L 172 3053 
L 172 3500 
L 594 3500 
L 594 4494 
L 1172 4494 
z
" transform="scale(0.015625)"/>
       <path id="DejaVuSans-69" d="M 603 3500 
L 1178 3500 
L 1178 0 
L 603 0 
L 603 3500 
z
M 603 4863 
L 1178 4863 
L 1178 4134 
L 603 4134 
L 603 4863 
z
" transform="scale(0.015625)"/>
       <path id="DejaVuSans-6f" d="M 1959 3097 
Q 1497 3097 1228 2736 
Q 959 2375 959 1747 
Q 959 1119 1226 758 
Q 1494 397 1959 397 
Q 2419 397 2687 759 
Q 2956 1122 2956 1747 
Q 2956 2369 2687 2733 
Q 2419 3097 1959 3097 
z
M 1959 3584 
Q 2709 3584 3137 3096 
Q 3566 2609 3566 1747 
Q 3566 888 3137 398 
Q 2709 -91 1959 -91 
Q 1206 -91 779 398 
Q 353 888 353 1747 
Q 353 2609 779 3096 
Q 1206 3584 1959 3584 
z
" transform="scale(0.015625)"/>
       <path id="DejaVuSans-6e" d="M 3513 2113 
L 3513 0 
L 2938 0 
L 2938 2094 
Q 2938 2591 2744 2837 
Q 2550 3084 2163 3084 
Q 1697 3084 1428 2787 
Q 1159 2491 1159 1978 
L 1159 0 
L 581 0 
L 581 3500 
L 1159 3500 
L 1159 2956 
Q 1366 3272 1645 3428 
Q 1925 3584 2291 3584 
Q 2894 3584 3203 3211 
Q 3513 2838 3513 2113 
z
" transform="scale(0.015625)"/>
      </defs>
      <use xlink:href="#DejaVuSans-41"/>
      <use xlink:href="#DejaVuSans-63" transform="translate(66.658203 0)"/>
      <use xlink:href="#DejaVuSans-74" transform="translate(121.638672 0)"/>
      <use xlink:href="#DejaVuSans-69" transform="translate(160.847656 0)"/>
      <use xlink:href="#DejaVuSans-6f" transform="translate(188.630859 0)"/>
      <use xlink:href="#DejaVuSans-6e" transform="translate(249.8125 0)"/>
     </g>
    </g>
   </g>
   <g id="matplotlib.axis_2">
    <g id="ytick_1">
     <g id="line2d_10">
      <path d="M 87.03 365.22 
L 844.56 365.22 
" clip-path="url(#p788aa99006)" style="fill: none; stroke: #ffffff; stroke-linecap: round"/>
     </g>
     <g id="text_11">
      <!-- 0.00 -->
      <g style="fill: #262626" transform="translate(40.791719 371.488711) scale(0.165 -0.165)">
       <defs>
        <path id="DejaVuSans-2e" d="M 684 794 
L 1344 794 
L 1344 0 
L 684 0 
L 684 794 
z
" transform="scale(0.015625)"/>
       </defs>
       <use xlink:href="#DejaVuSans-30"/>
       <use xlink:href="#DejaVuSans-2e" transform="translate(63.623047 0)"/>
       <use xlink:href="#DejaVuSans-30" transform="translate(95.410156 0)"/>
       <use xlink:href="#DejaVuSans-30" transform="translate(159.033203 0)"/>
      </g>
     </g>
    </g>
    <g id="ytick_2">
     <g id="line2d_11">
      <path d="M 87.03 328.674585 
L 844.56 328.674585 
" clip-path="url(#p788aa99006)" style="fill: none; stroke: #ffffff; stroke-linecap: round"/>
     </g>
     <g id="text_12">
      <!-- 0.05 -->
      <g style="fill: #262626" transform="translate(40.791719 334.943296) scale(0.165 -0.165)">
       <use xlink:href="#DejaVuSans-30"/>
       <use xlink:href="#DejaVuSans-2e" transform="translate(63.623047 0)"/>
       <use xlink:href="#DejaVuSans-30" transform="translate(95.410156 0)"/>
       <use xlink:href="#DejaVuSans-35" transform="translate(159.033203 0)"/>
      </g>
     </g>
    </g>
    <g id="ytick_3">
     <g id="line2d_12">
      <path d="M 87.03 292.129171 
L 844.56 292.129171 
" clip-path="url(#p788aa99006)" style="fill: none; stroke: #ffffff; stroke-linecap: round"/>
     </g>
     <g id="text_13">
      <!-- 0.10 -->
      <g style="fill: #262626" transform="translate(40.791719 298.397882) scale(0.165 -0.165)">
       <use xlink:href="#DejaVuSans-30"/>
       <use xlink:href="#DejaVuSans-2e" transform="translate(63.623047 0)"/>
       <use xlink:href="#DejaVuSans-31" transform="translate(95.410156 0)"/>
       <use xlink:href="#DejaVuSans-30" transform="translate(159.033203 0)"/>
      </g>
     </g>
    </g>
    <g id="ytick_4">
     <g id="line2d_13">
      <path d="M 87.03 255.583756 
L 844.56 255.583756 
" clip-path="url(#p788aa99006)" style="fill: none; stroke: #ffffff; stroke-linecap: round"/>
     </g>
     <g id="text_14">
      <!-- 0.15 -->
      <g style="fill: #262626" transform="translate(40.791719 261.852467) scale(0.165 -0.165)">
       <use xlink:href="#DejaVuSans-30"/>
       <use xlink:href="#DejaVuSans-2e" transform="translate(63.623047 0)"/>
       <use xlink:href="#DejaVuSans-31" transform="translate(95.410156 0)"/>
       <use xlink:href="#DejaVuSans-35" transform="translate(159.033203 0)"/>
      </g>
     </g>
    </g>
    <g id="ytick_5">
     <g id="line2d_14">
      <path d="M 87.03 219.038342 
L 844.56 219.038342 
" clip-path="url(#p788aa99006)" style="fill: none; stroke: #ffffff; stroke-linecap: round"/>
     </g>
     <g id="text_15">
      <!-- 0.20 -->
      <g style="fill: #262626" transform="translate(40.791719 225.307053) scale(0.165 -0.165)">
       <use xlink:href="#DejaVuSans-30"/>
       <use xlink:href="#DejaVuSans-2e" transform="translate(63.623047 0)"/>
       <use xlink:href="#DejaVuSans-32" transform="translate(95.410156 0)"/>
       <use xlink:href="#DejaVuSans-30" transform="translate(159.033203 0)"/>
      </g>
     </g>
    </g>
    <g id="ytick_6">
     <g id="line2d_15">
      <path d="M 87.03 182.492927 
L 844.56 182.492927 
" clip-path="url(#p788aa99006)" style="fill: none; stroke: #ffffff; stroke-linecap: round"/>
     </g>
     <g id="text_16">
      <!-- 0.25 -->
      <g style="fill: #262626" transform="translate(40.791719 188.761638) scale(0.165 -0.165)">
       <use xlink:href="#DejaVuSans-30"/>
       <use xlink:href="#DejaVuSans-2e" transform="translate(63.623047 0)"/>
       <use xlink:href="#DejaVuSans-32" transform="translate(95.410156 0)"/>
       <use xlink:href="#DejaVuSans-35" transform="translate(159.033203 0)"/>
      </g>
     </g>
    </g>
    <g id="ytick_7">
     <g id="line2d_16">
      <path d="M 87.03 145.947513 
L 844.56 145.947513 
" clip-path="url(#p788aa99006)" style="fill: none; stroke: #ffffff; stroke-linecap: round"/>
     </g>
     <g id="text_17">
      <!-- 0.30 -->
      <g style="fill: #262626" transform="translate(40.791719 152.216224) scale(0.165 -0.165)">
       <defs>
        <path id="DejaVuSans-33" d="M 2597 2516 
Q 3050 2419 3304 2112 
Q 3559 1806 3559 1356 
Q 3559 666 3084 287 
Q 2609 -91 1734 -91 
Q 1441 -91 1130 -33 
Q 819 25 488 141 
L 488 750 
Q 750 597 1062 519 
Q 1375 441 1716 441 
Q 2309 441 2620 675 
Q 2931 909 2931 1356 
Q 2931 1769 2642 2001 
Q 2353 2234 1838 2234 
L 1294 2234 
L 1294 2753 
L 1863 2753 
Q 2328 2753 2575 2939 
Q 2822 3125 2822 3475 
Q 2822 3834 2567 4026 
Q 2313 4219 1838 4219 
Q 1578 4219 1281 4162 
Q 984 4106 628 3988 
L 628 4550 
Q 988 4650 1302 4700 
Q 1616 4750 1894 4750 
Q 2613 4750 3031 4423 
Q 3450 4097 3450 3541 
Q 3450 3153 3228 2886 
Q 3006 2619 2597 2516 
z
" transform="scale(0.015625)"/>
       </defs>
       <use xlink:href="#DejaVuSans-30"/>
       <use xlink:href="#DejaVuSans-2e" transform="translate(63.623047 0)"/>
       <use xlink:href="#DejaVuSans-33" transform="translate(95.410156 0)"/>
       <use xlink:href="#DejaVuSans-30" transform="translate(159.033203 0)"/>
      </g>
     </g>
    </g>
    <g id="ytick_8">
     <g id="line2d_17">
      <path d="M 87.03 109.402098 
L 844.56 109.402098 
" clip-path="url(#p788aa99006)" style="fill: none; stroke: #ffffff; stroke-linecap: round"/>
     </g>
     <g id="text_18">
      <!-- 0.35 -->
      <g style="fill: #262626" transform="translate(40.791719 115.670809) scale(0.165 -0.165)">
       <use xlink:href="#DejaVuSans-30"/>
       <use xlink:href="#DejaVuSans-2e" transform="translate(63.623047 0)"/>
       <use xlink:href="#DejaVuSans-33" transform="translate(95.410156 0)"/>
       <use xlink:href="#DejaVuSans-35" transform="translate(159.033203 0)"/>
      </g>
     </g>
    </g>
    <g id="ytick_9">
     <g id="line2d_18">
      <path d="M 87.03 72.856684 
L 844.56 72.856684 
" clip-path="url(#p788aa99006)" style="fill: none; stroke: #ffffff; stroke-linecap: round"/>
     </g>
     <g id="text_19">
      <!-- 0.40 -->
      <g style="fill: #262626" transform="translate(40.791719 79.125395) scale(0.165 -0.165)">
       <defs>
        <path id="DejaVuSans-34" d="M 2419 4116 
L 825 1625 
L 2419 1625 
L 2419 4116 
z
M 2253 4666 
L 3047 4666 
L 3047 1625 
L 3713 1625 
L 3713 1100 
L 3047 1100 
L 3047 0 
L 2419 0 
L 2419 1100 
L 313 1100 
L 313 1709 
L 2253 4666 
z
" transform="scale(0.015625)"/>
       </defs>
       <use xlink:href="#DejaVuSans-30"/>
       <use xlink:href="#DejaVuSans-2e" transform="translate(63.623047 0)"/>
       <use xlink:href="#DejaVuSans-34" transform="translate(95.410156 0)"/>
       <use xlink:href="#DejaVuSans-30" transform="translate(159.033203 0)"/>
      </g>
     </g>
    </g>
    <g id="text_20">
     <!-- Density -->
     <g style="fill: #262626" transform="translate(33.048281 243.465469) rotate(-90) scale(0.18 -0.18)">
      <defs>
       <path id="DejaVuSans-44" d="M 1259 4147 
L 1259 519 
L 2022 519 
Q 2988 519 3436 956 
Q 3884 1394 3884 2338 
Q 3884 3275 3436 3711 
Q 2988 4147 2022 4147 
L 1259 4147 
z
M 628 4666 
L 1925 4666 
Q 3281 4666 3915 4102 
Q 4550 3538 4550 2338 
Q 4550 1131 3912 565 
Q 3275 0 1925 0 
L 628 0 
L 628 4666 
z
" transform="scale(0.015625)"/>
       <path id="DejaVuSans-65" d="M 3597 1894 
L 3597 1613 
L 953 1613 
Q 991 1019 1311 708 
Q 1631 397 2203 397 
Q 2534 397 2845 478 
Q 3156 559 3463 722 
L 3463 178 
Q 3153 47 2828 -22 
Q 2503 -91 2169 -91 
Q 1331 -91 842 396 
Q 353 884 353 1716 
Q 353 2575 817 3079 
Q 1281 3584 2069 3584 
Q 2775 3584 3186 3129 
Q 3597 2675 3597 1894 
z
M 3022 2063 
Q 3016 2534 2758 2815 
Q 2500 3097 2075 3097 
Q 1594 3097 1305 2825 
Q 1016 2553 972 2059 
L 3022 2063 
z
" transform="scale(0.015625)"/>
       <path id="DejaVuSans-73" d="M 2834 3397 
L 2834 2853 
Q 2591 2978 2328 3040 
Q 2066 3103 1784 3103 
Q 1356 3103 1142 2972 
Q 928 2841 928 2578 
Q 928 2378 1081 2264 
Q 1234 2150 1697 2047 
L 1894 2003 
Q 2506 1872 2764 1633 
Q 3022 1394 3022 966 
Q 3022 478 2636 193 
Q 2250 -91 1575 -91 
Q 1294 -91 989 -36 
Q 684 19 347 128 
L 347 722 
Q 666 556 975 473 
Q 1284 391 1588 391 
Q 1994 391 2212 530 
Q 2431 669 2431 922 
Q 2431 1156 2273 1281 
Q 2116 1406 1581 1522 
L 1381 1569 
Q 847 1681 609 1914 
Q 372 2147 372 2553 
Q 372 3047 722 3315 
Q 1072 3584 1716 3584 
Q 2034 3584 2315 3537 
Q 2597 3491 2834 3397 
z
" transform="scale(0.015625)"/>
       <path id="DejaVuSans-79" d="M 2059 -325 
Q 1816 -950 1584 -1140 
Q 1353 -1331 966 -1331 
L 506 -1331 
L 506 -850 
L 844 -850 
Q 1081 -850 1212 -737 
Q 1344 -625 1503 -206 
L 1606 56 
L 191 3500 
L 800 3500 
L 1894 763 
L 2988 3500 
L 3597 3500 
L 2059 -325 
z
" transform="scale(0.015625)"/>
      </defs>
      <use xlink:href="#DejaVuSans-44"/>
      <use xlink:href="#DejaVuSans-65" transform="translate(77.001953 0)"/>
      <use xlink:href="#DejaVuSans-6e" transform="translate(138.525391 0)"/>
      <use xlink:href="#DejaVuSans-73" transform="translate(201.904297 0)"/>
      <use xlink:href="#DejaVuSans-69" transform="translate(254.003906 0)"/>
      <use xlink:href="#DejaVuSans-74" transform="translate(281.787109 0)"/>
      <use xlink:href="#DejaVuSans-79" transform="translate(320.996094 0)"/>
     </g>
    </g>
   </g>
   <g id="patch_3">
    <path d="M 452.080864 365.22 
L 452.280217 365.22 
L 452.280217 364.967376 
L 452.080864 364.967376 
z
" clip-path="url(#p788aa99006)" style="fill: #4c72b0; fill-opacity: 0.5; stroke: #ffffff; stroke-width: 0.422727; stroke-linejoin: miter"/>
   </g>
   <g id="patch_4">
    <path d="M 452.280217 365.22 
L 452.47957 365.22 
L 452.47957 365.22 
L 452.280217 365.22 
z
" clip-path="url(#p788aa99006)" style="fill: #4c72b0; fill-opacity: 0.5; stroke: #ffffff; stroke-width: 0.422727; stroke-linejoin: miter"/>
   </g>
   <g id="patch_5">
    <path d="M 452.47957 365.22 
L 452.678923 365.22 
L 452.678923 365.22 
L 452.47957 365.22 
z
" clip-path="url(#p788aa99006)" style="fill: #4c72b0; fill-opacity: 0.5; stroke: #ffffff; stroke-width: 0.422727; stroke-linejoin: miter"/>
   </g>
   <g id="patch_6">
    <path d="M 452.678923 365.22 
L 452.878276 365.22 
L 452.878276 365.093688 
L 452.678923 365.093688 
z
" clip-path="url(#p788aa99006)" style="fill: #4c72b0; fill-opacity: 0.5; stroke: #ffffff; stroke-width: 0.422727; stroke-linejoin: miter"/>
   </g>
   <g id="patch_7">
    <path d="M 452.878276 365.22 
L 453.077629 365.22 
L 453.077629 365.093688 
L 452.878276 365.093688 
z
" clip-path="url(#p788aa99006)" style="fill: #4c72b0; fill-opacity: 0.5; stroke: #ffffff; stroke-width: 0.422727; stroke-linejoin: miter"/>
   </g>
   <g id="patch_8">
    <path d="M 453.077629 365.22 
L 453.276981 365.22 
L 453.276981 364.335816 
L 453.077629 364.335816 
z
" clip-path="url(#p788aa99006)" style="fill: #4c72b0; fill-opacity: 0.5; stroke: #ffffff; stroke-width: 0.422727; stroke-linejoin: miter"/>
   </g>
   <g id="patch_9">
    <path d="M 453.276981 365.22 
L 453.476334 365.22 
L 453.476334 364.714752 
L 453.276981 364.714752 
z
" clip-path="url(#p788aa99006)" style="fill: #4c72b0; fill-opacity: 0.5; stroke: #ffffff; stroke-width: 0.422727; stroke-linejoin: miter"/>
   </g>
   <g id="patch_10">
    <path d="M 453.476334 365.22 
L 453.675687 365.22 
L 453.675687 364.335816 
L 453.476334 364.335816 
z
" clip-path="url(#p788aa99006)" style="fill: #4c72b0; fill-opacity: 0.5; stroke: #ffffff; stroke-width: 0.422727; stroke-linejoin: miter"/>
   </g>
   <g id="patch_11">
    <path d="M 453.675687 365.22 
L 453.87504 365.22 
L 453.87504 364.462128 
L 453.675687 364.462128 
z
" clip-path="url(#p788aa99006)" style="fill: #4c72b0; fill-opacity: 0.5; stroke: #ffffff; stroke-width: 0.422727; stroke-linejoin: miter"/>
   </g>
   <g id="patch_12">
    <path d="M 453.87504 365.22 
L 454.074393 365.22 
L 454.074393 364.083192 
L 453.87504 364.083192 
z
" clip-path="url(#p788aa99006)" style="fill: #4c72b0; fill-opacity: 0.5; stroke: #ffffff; stroke-width: 0.422727; stroke-linejoin: miter"/>
   </g>
   <g id="patch_13">
    <path d="M 454.074393 365.22 
L 454.273746 365.22 
L 454.273746 363.704257 
L 454.074393 363.704257 
z
" clip-path="url(#p788aa99006)" style="fill: #4c72b0; fill-opacity: 0.5; stroke: #ffffff; stroke-width: 0.422727; stroke-linejoin: miter"/>
   </g>
   <g id="patch_14">
    <path d="M 454.273746 365.22 
L 454.473099 365.22 
L 454.473099 364.083192 
L 454.273746 364.083192 
z
" clip-path="url(#p788aa99006)" style="fill: #4c72b0; fill-opacity: 0.5; stroke: #ffffff; stroke-width: 0.422727; stroke-linejoin: miter"/>
   </g>
   <g id="patch_15">
    <path d="M 454.473099 365.22 
L 454.672452 365.22 
L 454.672452 363.451633 
L 454.473099 363.451633 
z
" clip-path="url(#p788aa99006)" style="fill: #4c72b0; fill-opacity: 0.5; stroke: #ffffff; stroke-width: 0.422727; stroke-linejoin: miter"/>
   </g>
   <g id="patch_16">
    <path d="M 454.672452 365.22 
L 454.871804 365.22 
L 454.871804 363.072697 
L 454.672452 363.072697 
z
" clip-path="url(#p788aa99006)" style="fill: #4c72b0; fill-opacity: 0.5; stroke: #ffffff; stroke-width: 0.422727; stroke-linejoin: miter"/>
   </g>
   <g id="patch_17">
    <path d="M 454.871804 365.22 
L 455.071157 365.22 
L 455.071157 363.072697 
L 454.871804 363.072697 
z
" clip-path="url(#p788aa99006)" style="fill: #4c72b0; fill-opacity: 0.5; stroke: #ffffff; stroke-width: 0.422727; stroke-linejoin: miter"/>
   </g>
   <g id="patch_18">
    <path d="M 455.071157 365.22 
L 455.27051 365.22 
L 455.27051 362.062201 
L 455.071157 362.062201 
z
" clip-path="url(#p788aa99006)" style="fill: #4c72b0; fill-opacity: 0.5; stroke: #ffffff; stroke-width: 0.422727; stroke-linejoin: miter"/>
   </g>
   <g id="patch_19">
    <path d="M 455.27051 365.22 
L 455.469863 365.22 
L 455.469863 362.567449 
L 455.27051 362.567449 
z
" clip-path="url(#p788aa99006)" style="fill: #4c72b0; fill-opacity: 0.5; stroke: #ffffff; stroke-width: 0.422727; stroke-linejoin: miter"/>
   </g>
   <g id="patch_20">
    <path d="M 455.469863 365.22 
L 455.669216 365.22 
L 455.669216 361.935889 
L 455.469863 361.935889 
z
" clip-path="url(#p788aa99006)" style="fill: #4c72b0; fill-opacity: 0.5; stroke: #ffffff; stroke-width: 0.422727; stroke-linejoin: miter"/>
   </g>
   <g id="patch_21">
    <path d="M 455.669216 365.22 
L 455.868569 365.22 
L 455.868569 360.799082 
L 455.669216 360.799082 
z
" clip-path="url(#p788aa99006)" style="fill: #4c72b0; fill-opacity: 0.5; stroke: #ffffff; stroke-width: 0.422727; stroke-linejoin: miter"/>
   </g>
   <g id="patch_22">
    <path d="M 455.868569 365.22 
L 456.067922 365.22 
L 456.067922 360.420146 
L 455.868569 360.420146 
z
" clip-path="url(#p788aa99006)" style="fill: #4c72b0; fill-opacity: 0.5; stroke: #ffffff; stroke-width: 0.422727; stroke-linejoin: miter"/>
   </g>
   <g id="patch_23">
    <path d="M 456.067922 365.22 
L 456.267274 365.22 
L 456.267274 357.767595 
L 456.067922 357.767595 
z
" clip-path="url(#p788aa99006)" style="fill: #4c72b0; fill-opacity: 0.5; stroke: #ffffff; stroke-width: 0.422727; stroke-linejoin: miter"/>
   </g>
   <g id="patch_24">
    <path d="M 456.267274 365.22 
L 456.466627 365.22 
L 456.466627 357.009723 
L 456.267274 357.009723 
z
" clip-path="url(#p788aa99006)" style="fill: #4c72b0; fill-opacity: 0.5; stroke: #ffffff; stroke-width: 0.422727; stroke-linejoin: miter"/>
   </g>
   <g id="patch_25">
    <path d="M 456.466627 365.22 
L 456.66598 365.22 
L 456.66598 355.367668 
L 456.466627 355.367668 
z
" clip-path="url(#p788aa99006)" style="fill: #4c72b0; fill-opacity: 0.5; stroke: #ffffff; stroke-width: 0.422727; stroke-linejoin: miter"/>
   </g>
   <g id="patch_26">
    <path d="M 456.66598 365.22 
L 456.865333 365.22 
L 456.865333 356.251851 
L 456.66598 356.251851 
z
" clip-path="url(#p788aa99006)" style="fill: #4c72b0; fill-opacity: 0.5; stroke: #ffffff; stroke-width: 0.422727; stroke-linejoin: miter"/>
   </g>
   <g id="patch_27">
    <path d="M 456.865333 365.22 
L 457.064686 365.22 
L 457.064686 353.346676 
L 456.865333 353.346676 
z
" clip-path="url(#p788aa99006)" style="fill: #4c72b0; fill-opacity: 0.5; stroke: #ffffff; stroke-width: 0.422727; stroke-linejoin: miter"/>
   </g>
   <g id="patch_28">
    <path d="M 457.064686 365.22 
L 457.264039 365.22 
L 457.264039 351.957245 
L 457.064686 351.957245 
z
" clip-path="url(#p788aa99006)" style="fill: #4c72b0; fill-opacity: 0.5; stroke: #ffffff; stroke-width: 0.422727; stroke-linejoin: miter"/>
   </g>
   <g id="patch_29">
    <path d="M 457.264039 365.22 
L 457.463392 365.22 
L 457.463392 350.31519 
L 457.264039 350.31519 
z
" clip-path="url(#p788aa99006)" style="fill: #4c72b0; fill-opacity: 0.5; stroke: #ffffff; stroke-width: 0.422727; stroke-linejoin: miter"/>
   </g>
   <g id="patch_30">
    <path d="M 457.463392 365.22 
L 457.662745 365.22 
L 457.662745 345.894271 
L 457.463392 345.894271 
z
" clip-path="url(#p788aa99006)" style="fill: #4c72b0; fill-opacity: 0.5; stroke: #ffffff; stroke-width: 0.422727; stroke-linejoin: miter"/>
   </g>
   <g id="patch_31">
    <path d="M 457.662745 365.22 
L 457.862097 365.22 
L 457.862097 347.031079 
L 457.662745 347.031079 
z
" clip-path="url(#p788aa99006)" style="fill: #4c72b0; fill-opacity: 0.5; stroke: #ffffff; stroke-width: 0.422727; stroke-linejoin: miter"/>
   </g>
   <g id="patch_32">
    <path d="M 457.862097 365.22 
L 458.06145 365.22 
L 458.06145 342.736472 
L 457.862097 342.736472 
z
" clip-path="url(#p788aa99006)" style="fill: #4c72b0; fill-opacity: 0.5; stroke: #ffffff; stroke-width: 0.422727; stroke-linejoin: miter"/>
   </g>
   <g id="patch_33">
    <path d="M 458.06145 365.22 
L 458.260803 365.22 
L 458.260803 337.810306 
L 458.06145 337.810306 
z
" clip-path="url(#p788aa99006)" style="fill: #4c72b0; fill-opacity: 0.5; stroke: #ffffff; stroke-width: 0.422727; stroke-linejoin: miter"/>
   </g>
   <g id="patch_34">
    <path d="M 458.260803 365.22 
L 458.460156 365.22 
L 458.460156 333.642012 
L 458.260803 333.642012 
z
" clip-path="url(#p788aa99006)" style="fill: #4c72b0; fill-opacity: 0.5; stroke: #ffffff; stroke-width: 0.422727; stroke-linejoin: miter"/>
   </g>
   <g id="patch_35">
    <path d="M 458.460156 365.22 
L 458.659509 365.22 
L 458.659509 331.242085 
L 458.460156 331.242085 
z
" clip-path="url(#p788aa99006)" style="fill: #4c72b0; fill-opacity: 0.5; stroke: #ffffff; stroke-width: 0.422727; stroke-linejoin: miter"/>
   </g>
   <g id="patch_36">
    <path d="M 458.659509 365.22 
L 458.858862 365.22 
L 458.858862 326.189606 
L 458.659509 326.189606 
z
" clip-path="url(#p788aa99006)" style="fill: #4c72b0; fill-opacity: 0.5; stroke: #ffffff; stroke-width: 0.422727; stroke-linejoin: miter"/>
   </g>
   <g id="patch_37">
    <path d="M 458.858862 365.22 
L 459.058215 365.22 
L 459.058215 321.768688 
L 458.858862 321.768688 
z
" clip-path="url(#p788aa99006)" style="fill: #4c72b0; fill-opacity: 0.5; stroke: #ffffff; stroke-width: 0.422727; stroke-linejoin: miter"/>
   </g>
   <g id="patch_38">
    <path d="M 459.058215 365.22 
L 459.257567 365.22 
L 459.257567 318.863513 
L 459.058215 318.863513 
z
" clip-path="url(#p788aa99006)" style="fill: #4c72b0; fill-opacity: 0.5; stroke: #ffffff; stroke-width: 0.422727; stroke-linejoin: miter"/>
   </g>
   <g id="patch_39">
    <path d="M 459.257567 365.22 
L 459.45692 365.22 
L 459.45692 314.316283 
L 459.257567 314.316283 
z
" clip-path="url(#p788aa99006)" style="fill: #4c72b0; fill-opacity: 0.5; stroke: #ffffff; stroke-width: 0.422727; stroke-linejoin: miter"/>
   </g>
   <g id="patch_40">
    <path d="M 459.45692 365.22 
L 459.656273 365.22 
L 459.656273 309.263805 
L 459.45692 309.263805 
z
" clip-path="url(#p788aa99006)" style="fill: #4c72b0; fill-opacity: 0.5; stroke: #ffffff; stroke-width: 0.422727; stroke-linejoin: miter"/>
   </g>
   <g id="patch_41">
    <path d="M 459.656273 365.22 
L 459.855626 365.22 
L 459.855626 301.306152 
L 459.656273 301.306152 
z
" clip-path="url(#p788aa99006)" style="fill: #4c72b0; fill-opacity: 0.5; stroke: #ffffff; stroke-width: 0.422727; stroke-linejoin: miter"/>
   </g>
   <g id="patch_42">
    <path d="M 459.855626 365.22 
L 460.054979 365.22 
L 460.054979 290.443324 
L 459.855626 290.443324 
z
" clip-path="url(#p788aa99006)" style="fill: #4c72b0; fill-opacity: 0.5; stroke: #ffffff; stroke-width: 0.422727; stroke-linejoin: miter"/>
   </g>
   <g id="patch_43">
    <path d="M 460.054979 365.22 
L 460.254332 365.22 
L 460.254332 287.159213 
L 460.054979 287.159213 
z
" clip-path="url(#p788aa99006)" style="fill: #4c72b0; fill-opacity: 0.5; stroke: #ffffff; stroke-width: 0.422727; stroke-linejoin: miter"/>
   </g>
   <g id="patch_44">
    <path d="M 460.254332 365.22 
L 460.453685 365.22 
L 460.453685 279.454184 
L 460.254332 279.454184 
z
" clip-path="url(#p788aa99006)" style="fill: #4c72b0; fill-opacity: 0.5; stroke: #ffffff; stroke-width: 0.422727; stroke-linejoin: miter"/>
   </g>
   <g id="patch_45">
    <path d="M 460.453685 365.22 
L 460.653038 365.22 
L 460.653038 271.749155 
L 460.453685 271.749155 
z
" clip-path="url(#p788aa99006)" style="fill: #4c72b0; fill-opacity: 0.5; stroke: #ffffff; stroke-width: 0.422727; stroke-linejoin: miter"/>
   </g>
   <g id="patch_46">
    <path d="M 460.653038 365.22 
L 460.85239 365.22 
L 460.85239 261.896822 
L 460.653038 261.896822 
z
" clip-path="url(#p788aa99006)" style="fill: #4c72b0; fill-opacity: 0.5; stroke: #ffffff; stroke-width: 0.422727; stroke-linejoin: miter"/>
   </g>
   <g id="patch_47">
    <path d="M 460.85239 365.22 
L 461.051743 365.22 
L 461.051743 250.023499 
L 460.85239 250.023499 
z
" clip-path="url(#p788aa99006)" style="fill: #4c72b0; fill-opacity: 0.5; stroke: #ffffff; stroke-width: 0.422727; stroke-linejoin: miter"/>
   </g>
   <g id="patch_48">
    <path d="M 461.051743 365.22 
L 461.251096 365.22 
L 461.251096 243.202653 
L 461.051743 243.202653 
z
" clip-path="url(#p788aa99006)" style="fill: #4c72b0; fill-opacity: 0.5; stroke: #ffffff; stroke-width: 0.422727; stroke-linejoin: miter"/>
   </g>
   <g id="patch_49">
    <path d="M 461.251096 365.22 
L 461.450449 365.22 
L 461.450449 232.466137 
L 461.251096 232.466137 
z
" clip-path="url(#p788aa99006)" style="fill: #4c72b0; fill-opacity: 0.5; stroke: #ffffff; stroke-width: 0.422727; stroke-linejoin: miter"/>
   </g>
   <g id="patch_50">
    <path d="M 461.450449 365.22 
L 461.649802 365.22 
L 461.649802 223.119052 
L 461.450449 223.119052 
z
" clip-path="url(#p788aa99006)" style="fill: #4c72b0; fill-opacity: 0.5; stroke: #ffffff; stroke-width: 0.422727; stroke-linejoin: miter"/>
   </g>
   <g id="patch_51">
    <path d="M 461.649802 365.22 
L 461.849155 365.22 
L 461.849155 213.89828 
L 461.649802 213.89828 
z
" clip-path="url(#p788aa99006)" style="fill: #4c72b0; fill-opacity: 0.5; stroke: #ffffff; stroke-width: 0.422727; stroke-linejoin: miter"/>
   </g>
   <g id="patch_52">
    <path d="M 461.849155 365.22 
L 462.048508 365.22 
L 462.048508 206.698499 
L 461.849155 206.698499 
z
" clip-path="url(#p788aa99006)" style="fill: #4c72b0; fill-opacity: 0.5; stroke: #ffffff; stroke-width: 0.422727; stroke-linejoin: miter"/>
   </g>
   <g id="patch_53">
    <path d="M 462.048508 365.22 
L 462.247861 365.22 
L 462.247861 200.761837 
L 462.048508 200.761837 
z
" clip-path="url(#p788aa99006)" style="fill: #4c72b0; fill-opacity: 0.5; stroke: #ffffff; stroke-width: 0.422727; stroke-linejoin: miter"/>
   </g>
   <g id="patch_54">
    <path d="M 462.247861 365.22 
L 462.447213 365.22 
L 462.447213 183.709723 
L 462.247861 183.709723 
z
" clip-path="url(#p788aa99006)" style="fill: #4c72b0; fill-opacity: 0.5; stroke: #ffffff; stroke-width: 0.422727; stroke-linejoin: miter"/>
   </g>
   <g id="patch_55">
    <path d="M 462.447213 365.22 
L 462.646566 365.22 
L 462.646566 174.867886 
L 462.447213 174.867886 
z
" clip-path="url(#p788aa99006)" style="fill: #4c72b0; fill-opacity: 0.5; stroke: #ffffff; stroke-width: 0.422727; stroke-linejoin: miter"/>
   </g>
   <g id="patch_56">
    <path d="M 462.646566 365.22 
L 462.845919 365.22 
L 462.845919 159.457828 
L 462.646566 159.457828 
z
" clip-path="url(#p788aa99006)" style="fill: #4c72b0; fill-opacity: 0.5; stroke: #ffffff; stroke-width: 0.422727; stroke-linejoin: miter"/>
   </g>
   <g id="patch_57">
    <path d="M 462.845919 365.22 
L 463.045272 365.22 
L 463.045272 142.405714 
L 462.845919 142.405714 
z
" clip-path="url(#p788aa99006)" style="fill: #4c72b0; fill-opacity: 0.5; stroke: #ffffff; stroke-width: 0.422727; stroke-linejoin: miter"/>
   </g>
   <g id="patch_58">
    <path d="M 463.045272 365.22 
L 463.244625 365.22 
L 463.244625 143.542522 
L 463.045272 143.542522 
z
" clip-path="url(#p788aa99006)" style="fill: #4c72b0; fill-opacity: 0.5; stroke: #ffffff; stroke-width: 0.422727; stroke-linejoin: miter"/>
   </g>
   <g id="patch_59">
    <path d="M 463.244625 365.22 
L 463.443978 365.22 
L 463.443978 135.584869 
L 463.244625 135.584869 
z
" clip-path="url(#p788aa99006)" style="fill: #4c72b0; fill-opacity: 0.5; stroke: #ffffff; stroke-width: 0.422727; stroke-linejoin: miter"/>
   </g>
   <g id="patch_60">
    <path d="M 463.443978 365.22 
L 463.643331 365.22 
L 463.643331 118.785379 
L 463.443978 118.785379 
z
" clip-path="url(#p788aa99006)" style="fill: #4c72b0; fill-opacity: 0.5; stroke: #ffffff; stroke-width: 0.422727; stroke-linejoin: miter"/>
   </g>
   <g id="patch_61">
    <path d="M 463.643331 365.22 
L 463.842683 365.22 
L 463.842683 114.869708 
L 463.643331 114.869708 
z
" clip-path="url(#p788aa99006)" style="fill: #4c72b0; fill-opacity: 0.5; stroke: #ffffff; stroke-width: 0.422727; stroke-linejoin: miter"/>
   </g>
   <g id="patch_62">
    <path d="M 463.842683 365.22 
L 464.042036 365.22 
L 464.042036 116.8907 
L 463.842683 116.8907 
z
" clip-path="url(#p788aa99006)" style="fill: #4c72b0; fill-opacity: 0.5; stroke: #ffffff; stroke-width: 0.422727; stroke-linejoin: miter"/>
   </g>
   <g id="patch_63">
    <path d="M 464.042036 365.22 
L 464.241389 365.22 
L 464.241389 102.743761 
L 464.042036 102.743761 
z
" clip-path="url(#p788aa99006)" style="fill: #4c72b0; fill-opacity: 0.5; stroke: #ffffff; stroke-width: 0.422727; stroke-linejoin: miter"/>
   </g>
   <g id="patch_64">
    <path d="M 464.241389 365.22 
L 464.440742 365.22 
L 464.440742 97.817595 
L 464.241389 97.817595 
z
" clip-path="url(#p788aa99006)" style="fill: #4c72b0; fill-opacity: 0.5; stroke: #ffffff; stroke-width: 0.422727; stroke-linejoin: miter"/>
   </g>
   <g id="patch_65">
    <path d="M 464.440742 365.22 
L 464.640095 365.22 
L 464.640095 94.533484 
L 464.440742 94.533484 
z
" clip-path="url(#p788aa99006)" style="fill: #4c72b0; fill-opacity: 0.5; stroke: #ffffff; stroke-width: 0.422727; stroke-linejoin: miter"/>
   </g>
   <g id="patch_66">
    <path d="M 464.640095 365.22 
L 464.839448 365.22 
L 464.839448 82.786472 
L 464.640095 82.786472 
z
" clip-path="url(#p788aa99006)" style="fill: #4c72b0; fill-opacity: 0.5; stroke: #ffffff; stroke-width: 0.422727; stroke-linejoin: miter"/>
   </g>
   <g id="patch_67">
    <path d="M 464.839448 365.22 
L 465.038801 365.22 
L 465.038801 86.449519 
L 464.839448 86.449519 
z
" clip-path="url(#p788aa99006)" style="fill: #4c72b0; fill-opacity: 0.5; stroke: #ffffff; stroke-width: 0.422727; stroke-linejoin: miter"/>
   </g>
   <g id="patch_68">
    <path d="M 465.038801 365.22 
L 465.238154 365.22 
L 465.238154 79.123426 
L 465.038801 79.123426 
z
" clip-path="url(#p788aa99006)" style="fill: #4c72b0; fill-opacity: 0.5; stroke: #ffffff; stroke-width: 0.422727; stroke-linejoin: miter"/>
   </g>
   <g id="patch_69">
    <path d="M 465.238154 365.22 
L 465.437506 365.22 
L 465.437506 76.723499 
L 465.238154 76.723499 
z
" clip-path="url(#p788aa99006)" style="fill: #4c72b0; fill-opacity: 0.5; stroke: #ffffff; stroke-width: 0.422727; stroke-linejoin: miter"/>
   </g>
   <g id="patch_70">
    <path d="M 465.437506 365.22 
L 465.636859 365.22 
L 465.636859 68.134286 
L 465.437506 68.134286 
z
" clip-path="url(#p788aa99006)" style="fill: #4c72b0; fill-opacity: 0.5; stroke: #ffffff; stroke-width: 0.422727; stroke-linejoin: miter"/>
   </g>
   <g id="patch_71">
    <path d="M 465.636859 365.22 
L 465.836212 365.22 
L 465.836212 76.218251 
L 465.636859 76.218251 
z
" clip-path="url(#p788aa99006)" style="fill: #4c72b0; fill-opacity: 0.5; stroke: #ffffff; stroke-width: 0.422727; stroke-linejoin: miter"/>
   </g>
   <g id="patch_72">
    <path d="M 465.836212 365.22 
L 466.035565 365.22 
L 466.035565 72.428892 
L 465.836212 72.428892 
z
" clip-path="url(#p788aa99006)" style="fill: #4c72b0; fill-opacity: 0.5; stroke: #ffffff; stroke-width: 0.422727; stroke-linejoin: miter"/>
   </g>
   <g id="patch_73">
    <path d="M 466.035565 365.22 
L 466.234918 365.22 
L 466.234918 80.386545 
L 466.035565 80.386545 
z
" clip-path="url(#p788aa99006)" style="fill: #4c72b0; fill-opacity: 0.5; stroke: #ffffff; stroke-width: 0.422727; stroke-linejoin: miter"/>
   </g>
   <g id="patch_74">
    <path d="M 466.234918 365.22 
L 466.434271 365.22 
L 466.434271 80.639169 
L 466.234918 80.639169 
z
" clip-path="url(#p788aa99006)" style="fill: #4c72b0; fill-opacity: 0.5; stroke: #ffffff; stroke-width: 0.422727; stroke-linejoin: miter"/>
   </g>
   <g id="patch_75">
    <path d="M 466.434271 365.22 
L 466.633624 365.22 
L 466.633624 75.839315 
L 466.434271 75.839315 
z
" clip-path="url(#p788aa99006)" style="fill: #4c72b0; fill-opacity: 0.5; stroke: #ffffff; stroke-width: 0.422727; stroke-linejoin: miter"/>
   </g>
   <g id="patch_76">
    <path d="M 466.633624 365.22 
L 466.832976 365.22 
L 466.832976 82.533848 
L 466.633624 82.533848 
z
" clip-path="url(#p788aa99006)" style="fill: #4c72b0; fill-opacity: 0.5; stroke: #ffffff; stroke-width: 0.422727; stroke-linejoin: miter"/>
   </g>
   <g id="patch_77">
    <path d="M 466.832976 365.22 
L 467.032329 365.22 
L 467.032329 97.943907 
L 466.832976 97.943907 
z
" clip-path="url(#p788aa99006)" style="fill: #4c72b0; fill-opacity: 0.5; stroke: #ffffff; stroke-width: 0.422727; stroke-linejoin: miter"/>
   </g>
   <g id="patch_78">
    <path d="M 467.032329 365.22 
L 467.231682 365.22 
L 467.231682 88.217886 
L 467.032329 88.217886 
z
" clip-path="url(#p788aa99006)" style="fill: #4c72b0; fill-opacity: 0.5; stroke: #ffffff; stroke-width: 0.422727; stroke-linejoin: miter"/>
   </g>
   <g id="patch_79">
    <path d="M 467.231682 365.22 
L 467.431035 365.22 
L 467.431035 99.45965 
L 467.231682 99.45965 
z
" clip-path="url(#p788aa99006)" style="fill: #4c72b0; fill-opacity: 0.5; stroke: #ffffff; stroke-width: 0.422727; stroke-linejoin: miter"/>
   </g>
   <g id="patch_80">
    <path d="M 467.431035 365.22 
L 467.630388 365.22 
L 467.630388 118.406443 
L 467.431035 118.406443 
z
" clip-path="url(#p788aa99006)" style="fill: #4c72b0; fill-opacity: 0.5; stroke: #ffffff; stroke-width: 0.422727; stroke-linejoin: miter"/>
   </g>
   <g id="patch_81">
    <path d="M 467.630388 365.22 
L 467.829741 365.22 
L 467.829741 115.501268 
L 467.630388 115.501268 
z
" clip-path="url(#p788aa99006)" style="fill: #4c72b0; fill-opacity: 0.5; stroke: #ffffff; stroke-width: 0.422727; stroke-linejoin: miter"/>
   </g>
   <g id="patch_82">
    <path d="M 467.829741 365.22 
L 468.029094 365.22 
L 468.029094 134.321749 
L 467.829741 134.321749 
z
" clip-path="url(#p788aa99006)" style="fill: #4c72b0; fill-opacity: 0.5; stroke: #ffffff; stroke-width: 0.422727; stroke-linejoin: miter"/>
   </g>
   <g id="patch_83">
    <path d="M 468.029094 365.22 
L 468.228447 365.22 
L 468.228447 134.700685 
L 468.029094 134.700685 
z
" clip-path="url(#p788aa99006)" style="fill: #4c72b0; fill-opacity: 0.5; stroke: #ffffff; stroke-width: 0.422727; stroke-linejoin: miter"/>
   </g>
   <g id="patch_84">
    <path d="M 468.228447 365.22 
L 468.427799 365.22 
L 468.427799 153.14223 
L 468.228447 153.14223 
z
" clip-path="url(#p788aa99006)" style="fill: #4c72b0; fill-opacity: 0.5; stroke: #ffffff; stroke-width: 0.422727; stroke-linejoin: miter"/>
   </g>
   <g id="patch_85">
    <path d="M 468.427799 365.22 
L 468.627152 365.22 
L 468.627152 160.2157 
L 468.427799 160.2157 
z
" clip-path="url(#p788aa99006)" style="fill: #4c72b0; fill-opacity: 0.5; stroke: #ffffff; stroke-width: 0.422727; stroke-linejoin: miter"/>
   </g>
   <g id="patch_86">
    <path d="M 468.627152 365.22 
L 468.826505 365.22 
L 468.826505 167.920729 
L 468.627152 167.920729 
z
" clip-path="url(#p788aa99006)" style="fill: #4c72b0; fill-opacity: 0.5; stroke: #ffffff; stroke-width: 0.422727; stroke-linejoin: miter"/>
   </g>
   <g id="patch_87">
    <path d="M 468.826505 365.22 
L 469.025858 365.22 
L 469.025858 175.12051 
L 468.826505 175.12051 
z
" clip-path="url(#p788aa99006)" style="fill: #4c72b0; fill-opacity: 0.5; stroke: #ffffff; stroke-width: 0.422727; stroke-linejoin: miter"/>
   </g>
   <g id="patch_88">
    <path d="M 469.025858 365.22 
L 469.225211 365.22 
L 469.225211 179.667741 
L 469.025858 179.667741 
z
" clip-path="url(#p788aa99006)" style="fill: #4c72b0; fill-opacity: 0.5; stroke: #ffffff; stroke-width: 0.422727; stroke-linejoin: miter"/>
   </g>
   <g id="patch_89">
    <path d="M 469.225211 365.22 
L 469.424564 365.22 
L 469.424564 203.919636 
L 469.225211 203.919636 
z
" clip-path="url(#p788aa99006)" style="fill: #4c72b0; fill-opacity: 0.5; stroke: #ffffff; stroke-width: 0.422727; stroke-linejoin: miter"/>
   </g>
   <g id="patch_90">
    <path d="M 469.424564 365.22 
L 469.623917 365.22 
L 469.623917 212.256224 
L 469.424564 212.256224 
z
" clip-path="url(#p788aa99006)" style="fill: #4c72b0; fill-opacity: 0.5; stroke: #ffffff; stroke-width: 0.422727; stroke-linejoin: miter"/>
   </g>
   <g id="patch_91">
    <path d="M 469.623917 365.22 
L 469.82327 365.22 
L 469.82327 210.108921 
L 469.623917 210.108921 
z
" clip-path="url(#p788aa99006)" style="fill: #4c72b0; fill-opacity: 0.5; stroke: #ffffff; stroke-width: 0.422727; stroke-linejoin: miter"/>
   </g>
   <g id="patch_92">
    <path d="M 469.82327 365.22 
L 470.022622 365.22 
L 470.022622 233.729257 
L 469.82327 233.729257 
z
" clip-path="url(#p788aa99006)" style="fill: #4c72b0; fill-opacity: 0.5; stroke: #ffffff; stroke-width: 0.422727; stroke-linejoin: miter"/>
   </g>
   <g id="patch_93">
    <path d="M 470.022622 365.22 
L 470.221975 365.22 
L 470.221975 237.518615 
L 470.022622 237.518615 
z
" clip-path="url(#p788aa99006)" style="fill: #4c72b0; fill-opacity: 0.5; stroke: #ffffff; stroke-width: 0.422727; stroke-linejoin: miter"/>
   </g>
   <g id="patch_94">
    <path d="M 470.221975 365.22 
L 470.421328 365.22 
L 470.421328 248.128819 
L 470.221975 248.128819 
z
" clip-path="url(#p788aa99006)" style="fill: #4c72b0; fill-opacity: 0.5; stroke: #ffffff; stroke-width: 0.422727; stroke-linejoin: miter"/>
   </g>
   <g id="patch_95">
    <path d="M 470.421328 365.22 
L 470.620681 365.22 
L 470.620681 253.307609 
L 470.421328 253.307609 
z
" clip-path="url(#p788aa99006)" style="fill: #4c72b0; fill-opacity: 0.5; stroke: #ffffff; stroke-width: 0.422727; stroke-linejoin: miter"/>
   </g>
   <g id="patch_96">
    <path d="M 470.620681 365.22 
L 470.820034 365.22 
L 470.820034 263.66519 
L 470.620681 263.66519 
z
" clip-path="url(#p788aa99006)" style="fill: #4c72b0; fill-opacity: 0.5; stroke: #ffffff; stroke-width: 0.422727; stroke-linejoin: miter"/>
   </g>
   <g id="patch_97">
    <path d="M 470.820034 365.22 
L 471.019387 365.22 
L 471.019387 272.75965 
L 470.820034 272.75965 
z
" clip-path="url(#p788aa99006)" style="fill: #4c72b0; fill-opacity: 0.5; stroke: #ffffff; stroke-width: 0.422727; stroke-linejoin: miter"/>
   </g>
   <g id="patch_98">
    <path d="M 471.019387 365.22 
L 471.21874 365.22 
L 471.21874 279.327872 
L 471.019387 279.327872 
z
" clip-path="url(#p788aa99006)" style="fill: #4c72b0; fill-opacity: 0.5; stroke: #ffffff; stroke-width: 0.422727; stroke-linejoin: miter"/>
   </g>
   <g id="patch_99">
    <path d="M 471.21874 365.22 
L 471.418092 365.22 
L 471.418092 293.095875 
L 471.21874 293.095875 
z
" clip-path="url(#p788aa99006)" style="fill: #4c72b0; fill-opacity: 0.5; stroke: #ffffff; stroke-width: 0.422727; stroke-linejoin: miter"/>
   </g>
   <g id="patch_100">
    <path d="M 471.418092 365.22 
L 471.617445 365.22 
L 471.617445 291.832755 
L 471.418092 291.832755 
z
" clip-path="url(#p788aa99006)" style="fill: #4c72b0; fill-opacity: 0.5; stroke: #ffffff; stroke-width: 0.422727; stroke-linejoin: miter"/>
   </g>
   <g id="patch_101">
    <path d="M 471.617445 365.22 
L 471.816798 365.22 
L 471.816798 304.085015 
L 471.617445 304.085015 
z
" clip-path="url(#p788aa99006)" style="fill: #4c72b0; fill-opacity: 0.5; stroke: #ffffff; stroke-width: 0.422727; stroke-linejoin: miter"/>
   </g>
   <g id="patch_102">
    <path d="M 471.816798 365.22 
L 472.016151 365.22 
L 472.016151 308.632245 
L 471.816798 308.632245 
z
" clip-path="url(#p788aa99006)" style="fill: #4c72b0; fill-opacity: 0.5; stroke: #ffffff; stroke-width: 0.422727; stroke-linejoin: miter"/>
   </g>
   <g id="patch_103">
    <path d="M 472.016151 365.22 
L 472.215504 365.22 
L 472.215504 309.769052 
L 472.016151 309.769052 
z
" clip-path="url(#p788aa99006)" style="fill: #4c72b0; fill-opacity: 0.5; stroke: #ffffff; stroke-width: 0.422727; stroke-linejoin: miter"/>
   </g>
   <g id="patch_104">
    <path d="M 472.215504 365.22 
L 472.414857 365.22 
L 472.414857 322.652872 
L 472.215504 322.652872 
z
" clip-path="url(#p788aa99006)" style="fill: #4c72b0; fill-opacity: 0.5; stroke: #ffffff; stroke-width: 0.422727; stroke-linejoin: miter"/>
   </g>
   <g id="patch_105">
    <path d="M 472.414857 365.22 
L 472.61421 365.22 
L 472.61421 323.284431 
L 472.414857 323.284431 
z
" clip-path="url(#p788aa99006)" style="fill: #4c72b0; fill-opacity: 0.5; stroke: #ffffff; stroke-width: 0.422727; stroke-linejoin: miter"/>
   </g>
   <g id="patch_106">
    <path d="M 472.61421 365.22 
L 472.813563 365.22 
L 472.813563 327.200102 
L 472.61421 327.200102 
z
" clip-path="url(#p788aa99006)" style="fill: #4c72b0; fill-opacity: 0.5; stroke: #ffffff; stroke-width: 0.422727; stroke-linejoin: miter"/>
   </g>
   <g id="patch_107">
    <path d="M 472.813563 365.22 
L 473.012915 365.22 
L 473.012915 332.505204 
L 472.813563 332.505204 
z
" clip-path="url(#p788aa99006)" style="fill: #4c72b0; fill-opacity: 0.5; stroke: #ffffff; stroke-width: 0.422727; stroke-linejoin: miter"/>
   </g>
   <g id="patch_108">
    <path d="M 473.012915 365.22 
L 473.212268 365.22 
L 473.212268 335.284067 
L 473.012915 335.284067 
z
" clip-path="url(#p788aa99006)" style="fill: #4c72b0; fill-opacity: 0.5; stroke: #ffffff; stroke-width: 0.422727; stroke-linejoin: miter"/>
   </g>
   <g id="patch_109">
    <path d="M 473.212268 365.22 
L 473.411621 365.22 
L 473.411621 338.947114 
L 473.212268 338.947114 
z
" clip-path="url(#p788aa99006)" style="fill: #4c72b0; fill-opacity: 0.5; stroke: #ffffff; stroke-width: 0.422727; stroke-linejoin: miter"/>
   </g>
   <g id="patch_110">
    <path d="M 473.411621 365.22 
L 473.610974 365.22 
L 473.610974 340.715481 
L 473.411621 340.715481 
z
" clip-path="url(#p788aa99006)" style="fill: #4c72b0; fill-opacity: 0.5; stroke: #ffffff; stroke-width: 0.422727; stroke-linejoin: miter"/>
   </g>
   <g id="patch_111">
    <path d="M 473.610974 365.22 
L 473.810327 365.22 
L 473.810327 344.757464 
L 473.610974 344.757464 
z
" clip-path="url(#p788aa99006)" style="fill: #4c72b0; fill-opacity: 0.5; stroke: #ffffff; stroke-width: 0.422727; stroke-linejoin: miter"/>
   </g>
   <g id="patch_112">
    <path d="M 473.810327 365.22 
L 474.00968 365.22 
L 474.00968 345.136399 
L 473.810327 345.136399 
z
" clip-path="url(#p788aa99006)" style="fill: #4c72b0; fill-opacity: 0.5; stroke: #ffffff; stroke-width: 0.422727; stroke-linejoin: miter"/>
   </g>
   <g id="patch_113">
    <path d="M 474.00968 365.22 
L 474.209033 365.22 
L 474.209033 350.946749 
L 474.00968 350.946749 
z
" clip-path="url(#p788aa99006)" style="fill: #4c72b0; fill-opacity: 0.5; stroke: #ffffff; stroke-width: 0.422727; stroke-linejoin: miter"/>
   </g>
   <g id="patch_114">
    <path d="M 474.209033 365.22 
L 474.408386 365.22 
L 474.408386 351.073061 
L 474.209033 351.073061 
z
" clip-path="url(#p788aa99006)" style="fill: #4c72b0; fill-opacity: 0.5; stroke: #ffffff; stroke-width: 0.422727; stroke-linejoin: miter"/>
   </g>
   <g id="patch_115">
    <path d="M 474.408386 365.22 
L 474.607738 365.22 
L 474.607738 353.725612 
L 474.408386 353.725612 
z
" clip-path="url(#p788aa99006)" style="fill: #4c72b0; fill-opacity: 0.5; stroke: #ffffff; stroke-width: 0.422727; stroke-linejoin: miter"/>
   </g>
   <g id="patch_116">
    <path d="M 474.607738 365.22 
L 474.807091 365.22 
L 474.807091 355.367668 
L 474.607738 355.367668 
z
" clip-path="url(#p788aa99006)" style="fill: #4c72b0; fill-opacity: 0.5; stroke: #ffffff; stroke-width: 0.422727; stroke-linejoin: miter"/>
   </g>
   <g id="patch_117">
    <path d="M 474.807091 365.22 
L 475.006444 365.22 
L 475.006444 354.609796 
L 474.807091 354.609796 
z
" clip-path="url(#p788aa99006)" style="fill: #4c72b0; fill-opacity: 0.5; stroke: #ffffff; stroke-width: 0.422727; stroke-linejoin: miter"/>
   </g>
   <g id="patch_118">
    <path d="M 475.006444 365.22 
L 475.205797 365.22 
L 475.205797 357.388659 
L 475.006444 357.388659 
z
" clip-path="url(#p788aa99006)" style="fill: #4c72b0; fill-opacity: 0.5; stroke: #ffffff; stroke-width: 0.422727; stroke-linejoin: miter"/>
   </g>
   <g id="patch_119">
    <path d="M 475.205797 365.22 
L 475.40515 365.22 
L 475.40515 359.030714 
L 475.205797 359.030714 
z
" clip-path="url(#p788aa99006)" style="fill: #4c72b0; fill-opacity: 0.5; stroke: #ffffff; stroke-width: 0.422727; stroke-linejoin: miter"/>
   </g>
   <g id="patch_120">
    <path d="M 475.40515 365.22 
L 475.604503 365.22 
L 475.604503 358.77809 
L 475.40515 358.77809 
z
" clip-path="url(#p788aa99006)" style="fill: #4c72b0; fill-opacity: 0.5; stroke: #ffffff; stroke-width: 0.422727; stroke-linejoin: miter"/>
   </g>
   <g id="patch_121">
    <path d="M 475.604503 365.22 
L 475.803856 365.22 
L 475.803856 360.67277 
L 475.604503 360.67277 
z
" clip-path="url(#p788aa99006)" style="fill: #4c72b0; fill-opacity: 0.5; stroke: #ffffff; stroke-width: 0.422727; stroke-linejoin: miter"/>
   </g>
   <g id="patch_122">
    <path d="M 475.803856 365.22 
L 476.003208 365.22 
L 476.003208 361.304329 
L 475.803856 361.304329 
z
" clip-path="url(#p788aa99006)" style="fill: #4c72b0; fill-opacity: 0.5; stroke: #ffffff; stroke-width: 0.422727; stroke-linejoin: miter"/>
   </g>
   <g id="patch_123">
    <path d="M 476.003208 365.22 
L 476.202561 365.22 
L 476.202561 361.935889 
L 476.003208 361.935889 
z
" clip-path="url(#p788aa99006)" style="fill: #4c72b0; fill-opacity: 0.5; stroke: #ffffff; stroke-width: 0.422727; stroke-linejoin: miter"/>
   </g>
   <g id="patch_124">
    <path d="M 476.202561 365.22 
L 476.401914 365.22 
L 476.401914 362.314825 
L 476.202561 362.314825 
z
" clip-path="url(#p788aa99006)" style="fill: #4c72b0; fill-opacity: 0.5; stroke: #ffffff; stroke-width: 0.422727; stroke-linejoin: miter"/>
   </g>
   <g id="patch_125">
    <path d="M 476.401914 365.22 
L 476.601267 365.22 
L 476.601267 363.830569 
L 476.401914 363.830569 
z
" clip-path="url(#p788aa99006)" style="fill: #4c72b0; fill-opacity: 0.5; stroke: #ffffff; stroke-width: 0.422727; stroke-linejoin: miter"/>
   </g>
   <g id="patch_126">
    <path d="M 476.601267 365.22 
L 476.80062 365.22 
L 476.80062 363.451633 
L 476.601267 363.451633 
z
" clip-path="url(#p788aa99006)" style="fill: #4c72b0; fill-opacity: 0.5; stroke: #ffffff; stroke-width: 0.422727; stroke-linejoin: miter"/>
   </g>
   <g id="patch_127">
    <path d="M 476.80062 365.22 
L 476.999973 365.22 
L 476.999973 363.704257 
L 476.80062 363.704257 
z
" clip-path="url(#p788aa99006)" style="fill: #4c72b0; fill-opacity: 0.5; stroke: #ffffff; stroke-width: 0.422727; stroke-linejoin: miter"/>
   </g>
   <g id="patch_128">
    <path d="M 476.999973 365.22 
L 477.199326 365.22 
L 477.199326 364.462128 
L 476.999973 364.462128 
z
" clip-path="url(#p788aa99006)" style="fill: #4c72b0; fill-opacity: 0.5; stroke: #ffffff; stroke-width: 0.422727; stroke-linejoin: miter"/>
   </g>
   <g id="patch_129">
    <path d="M 477.199326 365.22 
L 477.398679 365.22 
L 477.398679 364.58844 
L 477.199326 364.58844 
z
" clip-path="url(#p788aa99006)" style="fill: #4c72b0; fill-opacity: 0.5; stroke: #ffffff; stroke-width: 0.422727; stroke-linejoin: miter"/>
   </g>
   <g id="patch_130">
    <path d="M 477.398679 365.22 
L 477.598031 365.22 
L 477.598031 364.335816 
L 477.398679 364.335816 
z
" clip-path="url(#p788aa99006)" style="fill: #4c72b0; fill-opacity: 0.5; stroke: #ffffff; stroke-width: 0.422727; stroke-linejoin: miter"/>
   </g>
   <g id="patch_131">
    <path d="M 477.598031 365.22 
L 477.797384 365.22 
L 477.797384 364.083192 
L 477.598031 364.083192 
z
" clip-path="url(#p788aa99006)" style="fill: #4c72b0; fill-opacity: 0.5; stroke: #ffffff; stroke-width: 0.422727; stroke-linejoin: miter"/>
   </g>
   <g id="patch_132">
    <path d="M 477.797384 365.22 
L 477.996737 365.22 
L 477.996737 364.967376 
L 477.797384 364.967376 
z
" clip-path="url(#p788aa99006)" style="fill: #4c72b0; fill-opacity: 0.5; stroke: #ffffff; stroke-width: 0.422727; stroke-linejoin: miter"/>
   </g>
   <g id="patch_133">
    <path d="M 477.996737 365.22 
L 478.19609 365.22 
L 478.19609 364.967376 
L 477.996737 364.967376 
z
" clip-path="url(#p788aa99006)" style="fill: #4c72b0; fill-opacity: 0.5; stroke: #ffffff; stroke-width: 0.422727; stroke-linejoin: miter"/>
   </g>
   <g id="patch_134">
    <path d="M 478.19609 365.22 
L 478.395443 365.22 
L 478.395443 364.967376 
L 478.19609 364.967376 
z
" clip-path="url(#p788aa99006)" style="fill: #4c72b0; fill-opacity: 0.5; stroke: #ffffff; stroke-width: 0.422727; stroke-linejoin: miter"/>
   </g>
   <g id="patch_135">
    <path d="M 478.395443 365.22 
L 478.594796 365.22 
L 478.594796 364.714752 
L 478.395443 364.714752 
z
" clip-path="url(#p788aa99006)" style="fill: #4c72b0; fill-opacity: 0.5; stroke: #ffffff; stroke-width: 0.422727; stroke-linejoin: miter"/>
   </g>
   <g id="patch_136">
    <path d="M 478.594796 365.22 
L 478.794149 365.22 
L 478.794149 364.841064 
L 478.594796 364.841064 
z
" clip-path="url(#p788aa99006)" style="fill: #4c72b0; fill-opacity: 0.5; stroke: #ffffff; stroke-width: 0.422727; stroke-linejoin: miter"/>
   </g>
   <g id="patch_137">
    <path d="M 478.794149 365.22 
L 478.993501 365.22 
L 478.993501 365.22 
L 478.794149 365.22 
z
" clip-path="url(#p788aa99006)" style="fill: #4c72b0; fill-opacity: 0.5; stroke: #ffffff; stroke-width: 0.422727; stroke-linejoin: miter"/>
   </g>
   <g id="patch_138">
    <path d="M 478.993501 365.22 
L 479.192854 365.22 
L 479.192854 365.093688 
L 478.993501 365.093688 
z
" clip-path="url(#p788aa99006)" style="fill: #4c72b0; fill-opacity: 0.5; stroke: #ffffff; stroke-width: 0.422727; stroke-linejoin: miter"/>
   </g>
   <g id="patch_139">
    <path d="M 479.192854 365.22 
L 479.392207 365.22 
L 479.392207 364.841064 
L 479.192854 364.841064 
z
" clip-path="url(#p788aa99006)" style="fill: #4c72b0; fill-opacity: 0.5; stroke: #ffffff; stroke-width: 0.422727; stroke-linejoin: miter"/>
   </g>
   <g id="patch_140">
    <path d="M 479.392207 365.22 
L 479.59156 365.22 
L 479.59156 365.093688 
L 479.392207 365.093688 
z
" clip-path="url(#p788aa99006)" style="fill: #4c72b0; fill-opacity: 0.5; stroke: #ffffff; stroke-width: 0.422727; stroke-linejoin: miter"/>
   </g>
   <g id="patch_141">
    <path d="M 479.59156 365.22 
L 479.790913 365.22 
L 479.790913 365.22 
L 479.59156 365.22 
z
" clip-path="url(#p788aa99006)" style="fill: #4c72b0; fill-opacity: 0.5; stroke: #ffffff; stroke-width: 0.422727; stroke-linejoin: miter"/>
   </g>
   <g id="patch_142">
    <path d="M 479.790913 365.22 
L 479.990266 365.22 
L 479.990266 364.967376 
L 479.790913 364.967376 
z
" clip-path="url(#p788aa99006)" style="fill: #4c72b0; fill-opacity: 0.5; stroke: #ffffff; stroke-width: 0.422727; stroke-linejoin: miter"/>
   </g>
   <g id="patch_143">
    <path d="M 479.990266 365.22 
L 480.189619 365.22 
L 480.189619 365.22 
L 479.990266 365.22 
z
" clip-path="url(#p788aa99006)" style="fill: #4c72b0; fill-opacity: 0.5; stroke: #ffffff; stroke-width: 0.422727; stroke-linejoin: miter"/>
   </g>
   <g id="patch_144">
    <path d="M 480.189619 365.22 
L 480.388972 365.22 
L 480.388972 365.22 
L 480.189619 365.22 
z
" clip-path="url(#p788aa99006)" style="fill: #4c72b0; fill-opacity: 0.5; stroke: #ffffff; stroke-width: 0.422727; stroke-linejoin: miter"/>
   </g>
   <g id="patch_145">
    <path d="M 480.388972 365.22 
L 480.588324 365.22 
L 480.588324 365.093688 
L 480.388972 365.093688 
z
" clip-path="url(#p788aa99006)" style="fill: #4c72b0; fill-opacity: 0.5; stroke: #ffffff; stroke-width: 0.422727; stroke-linejoin: miter"/>
   </g>
   <g id="patch_146">
    <path d="M 480.588324 365.22 
L 480.787677 365.22 
L 480.787677 365.093688 
L 480.588324 365.093688 
z
" clip-path="url(#p788aa99006)" style="fill: #4c72b0; fill-opacity: 0.5; stroke: #ffffff; stroke-width: 0.422727; stroke-linejoin: miter"/>
   </g>
   <g id="patch_147">
    <path d="M 121.463182 365.22 
L 138.679773 365.22 
L 138.679773 360.196036 
L 121.463182 360.196036 
z
" clip-path="url(#p788aa99006)" style="fill: #dd8452; fill-opacity: 0.5; stroke: #ffffff; stroke-linejoin: miter"/>
   </g>
   <g id="patch_148">
    <path d="M 138.679773 365.22 
L 155.896364 365.22 
L 155.896364 359.85233 
L 138.679773 359.85233 
z
" clip-path="url(#p788aa99006)" style="fill: #dd8452; fill-opacity: 0.5; stroke: #ffffff; stroke-linejoin: miter"/>
   </g>
   <g id="patch_149">
    <path d="M 155.896364 365.22 
L 173.112955 365.22 
L 173.112955 360.193111 
L 155.896364 360.193111 
z
" clip-path="url(#p788aa99006)" style="fill: #dd8452; fill-opacity: 0.5; stroke: #ffffff; stroke-linejoin: miter"/>
   </g>
   <g id="patch_150">
    <path d="M 173.112955 365.22 
L 190.329545 365.22 
L 190.329545 360.558756 
L 173.112955 360.558756 
z
" clip-path="url(#p788aa99006)" style="fill: #dd8452; fill-opacity: 0.5; stroke: #ffffff; stroke-linejoin: miter"/>
   </g>
   <g id="patch_151">
    <path d="M 190.329545 365.22 
L 207.546136 365.22 
L 207.546136 361.031169 
L 190.329545 361.031169 
z
" clip-path="url(#p788aa99006)" style="fill: #dd8452; fill-opacity: 0.5; stroke: #ffffff; stroke-linejoin: miter"/>
   </g>
   <g id="patch_152">
    <path d="M 207.546136 365.22 
L 224.762727 365.22 
L 224.762727 361.159877 
L 207.546136 361.159877 
z
" clip-path="url(#p788aa99006)" style="fill: #dd8452; fill-opacity: 0.5; stroke: #ffffff; stroke-linejoin: miter"/>
   </g>
   <g id="patch_153">
    <path d="M 224.762727 365.22 
L 241.979318 365.22 
L 241.979318 361.233006 
L 224.762727 361.233006 
z
" clip-path="url(#p788aa99006)" style="fill: #dd8452; fill-opacity: 0.5; stroke: #ffffff; stroke-linejoin: miter"/>
   </g>
   <g id="patch_154">
    <path d="M 241.979318 365.22 
L 259.195909 365.22 
L 259.195909 361.518209 
L 241.979318 361.518209 
z
" clip-path="url(#p788aa99006)" style="fill: #dd8452; fill-opacity: 0.5; stroke: #ffffff; stroke-linejoin: miter"/>
   </g>
   <g id="patch_155">
    <path d="M 259.195909 365.22 
L 276.4125 365.22 
L 276.4125 361.642528 
L 259.195909 361.642528 
z
" clip-path="url(#p788aa99006)" style="fill: #dd8452; fill-opacity: 0.5; stroke: #ffffff; stroke-linejoin: miter"/>
   </g>
   <g id="patch_156">
    <path d="M 276.4125 365.22 
L 293.629091 365.22 
L 293.629091 361.760997 
L 276.4125 361.760997 
z
" clip-path="url(#p788aa99006)" style="fill: #dd8452; fill-opacity: 0.5; stroke: #ffffff; stroke-linejoin: miter"/>
   </g>
   <g id="patch_157">
    <path d="M 293.629091 365.22 
L 310.845682 365.22 
L 310.845682 361.98916 
L 293.629091 361.98916 
z
" clip-path="url(#p788aa99006)" style="fill: #dd8452; fill-opacity: 0.5; stroke: #ffffff; stroke-linejoin: miter"/>
   </g>
   <g id="patch_158">
    <path d="M 310.845682 365.22 
L 328.062273 365.22 
L 328.062273 361.977459 
L 310.845682 361.977459 
z
" clip-path="url(#p788aa99006)" style="fill: #dd8452; fill-opacity: 0.5; stroke: #ffffff; stroke-linejoin: miter"/>
   </g>
   <g id="patch_159">
    <path d="M 328.062273 365.22 
L 345.278864 365.22 
L 345.278864 362.129567 
L 328.062273 362.129567 
z
" clip-path="url(#p788aa99006)" style="fill: #dd8452; fill-opacity: 0.5; stroke: #ffffff; stroke-linejoin: miter"/>
   </g>
   <g id="patch_160">
    <path d="M 345.278864 365.22 
L 362.495455 365.22 
L 362.495455 362.169057 
L 345.278864 362.169057 
z
" clip-path="url(#p788aa99006)" style="fill: #dd8452; fill-opacity: 0.5; stroke: #ffffff; stroke-linejoin: miter"/>
   </g>
   <g id="patch_161">
    <path d="M 362.495455 365.22 
L 379.712045 365.22 
L 379.712045 362.180758 
L 362.495455 362.180758 
z
" clip-path="url(#p788aa99006)" style="fill: #dd8452; fill-opacity: 0.5; stroke: #ffffff; stroke-linejoin: miter"/>
   </g>
   <g id="patch_162">
    <path d="M 379.712045 365.22 
L 396.928636 365.22 
L 396.928636 362.283138 
L 379.712045 362.283138 
z
" clip-path="url(#p788aa99006)" style="fill: #dd8452; fill-opacity: 0.5; stroke: #ffffff; stroke-linejoin: miter"/>
   </g>
   <g id="patch_163">
    <path d="M 396.928636 365.22 
L 414.145227 365.22 
L 414.145227 362.283138 
L 396.928636 362.283138 
z
" clip-path="url(#p788aa99006)" style="fill: #dd8452; fill-opacity: 0.5; stroke: #ffffff; stroke-linejoin: miter"/>
   </g>
   <g id="patch_164">
    <path d="M 414.145227 365.22 
L 431.361818 365.22 
L 431.361818 362.258274 
L 414.145227 362.258274 
z
" clip-path="url(#p788aa99006)" style="fill: #dd8452; fill-opacity: 0.5; stroke: #ffffff; stroke-linejoin: miter"/>
   </g>
   <g id="patch_165">
    <path d="M 431.361818 365.22 
L 448.578409 365.22 
L 448.578409 362.277288 
L 431.361818 362.277288 
z
" clip-path="url(#p788aa99006)" style="fill: #dd8452; fill-opacity: 0.5; stroke: #ffffff; stroke-linejoin: miter"/>
   </g>
   <g id="patch_166">
    <path d="M 448.578409 365.22 
L 465.795 365.22 
L 465.795 362.305077 
L 448.578409 362.305077 
z
" clip-path="url(#p788aa99006)" style="fill: #dd8452; fill-opacity: 0.5; stroke: #ffffff; stroke-linejoin: miter"/>
   </g>
   <g id="patch_167">
    <path d="M 465.795 365.22 
L 483.011591 365.22 
L 483.011591 362.290451 
L 465.795 362.290451 
z
" clip-path="url(#p788aa99006)" style="fill: #dd8452; fill-opacity: 0.5; stroke: #ffffff; stroke-linejoin: miter"/>
   </g>
   <g id="patch_168">
    <path d="M 483.011591 365.22 
L 500.228182 365.22 
L 500.228182 362.283138 
L 483.011591 362.283138 
z
" clip-path="url(#p788aa99006)" style="fill: #dd8452; fill-opacity: 0.5; stroke: #ffffff; stroke-linejoin: miter"/>
   </g>
   <g id="patch_169">
    <path d="M 500.228182 365.22 
L 517.444773 365.22 
L 517.444773 362.369431 
L 500.228182 362.369431 
z
" clip-path="url(#p788aa99006)" style="fill: #dd8452; fill-opacity: 0.5; stroke: #ffffff; stroke-linejoin: miter"/>
   </g>
   <g id="patch_170">
    <path d="M 517.444773 365.22 
L 534.661364 365.22 
L 534.661364 362.269975 
L 517.444773 362.269975 
z
" clip-path="url(#p788aa99006)" style="fill: #dd8452; fill-opacity: 0.5; stroke: #ffffff; stroke-linejoin: miter"/>
   </g>
   <g id="patch_171">
    <path d="M 534.661364 365.22 
L 551.877955 365.22 
L 551.877955 362.190996 
L 534.661364 362.190996 
z
" clip-path="url(#p788aa99006)" style="fill: #dd8452; fill-opacity: 0.5; stroke: #ffffff; stroke-linejoin: miter"/>
   </g>
   <g id="patch_172">
    <path d="M 551.877955 365.22 
L 569.094545 365.22 
L 569.094545 362.117867 
L 551.877955 362.117867 
z
" clip-path="url(#p788aa99006)" style="fill: #dd8452; fill-opacity: 0.5; stroke: #ffffff; stroke-linejoin: miter"/>
   </g>
   <g id="patch_173">
    <path d="M 569.094545 365.22 
L 586.311136 365.22 
L 586.311136 362.21586 
L 569.094545 362.21586 
z
" clip-path="url(#p788aa99006)" style="fill: #dd8452; fill-opacity: 0.5; stroke: #ffffff; stroke-linejoin: miter"/>
   </g>
   <g id="patch_174">
    <path d="M 586.311136 365.22 
L 603.527727 365.22 
L 603.527727 361.992085 
L 586.311136 361.992085 
z
" clip-path="url(#p788aa99006)" style="fill: #dd8452; fill-opacity: 0.5; stroke: #ffffff; stroke-linejoin: miter"/>
   </g>
   <g id="patch_175">
    <path d="M 603.527727 365.22 
L 620.744318 365.22 
L 620.744318 361.98916 
L 603.527727 361.98916 
z
" clip-path="url(#p788aa99006)" style="fill: #dd8452; fill-opacity: 0.5; stroke: #ffffff; stroke-linejoin: miter"/>
   </g>
   <g id="patch_176">
    <path d="M 620.744318 365.22 
L 637.960909 365.22 
L 637.960909 361.954058 
L 620.744318 361.954058 
z
" clip-path="url(#p788aa99006)" style="fill: #dd8452; fill-opacity: 0.5; stroke: #ffffff; stroke-linejoin: miter"/>
   </g>
   <g id="patch_177">
    <path d="M 637.960909 365.22 
L 655.1775 365.22 
L 655.1775 361.81365 
L 637.960909 361.81365 
z
" clip-path="url(#p788aa99006)" style="fill: #dd8452; fill-opacity: 0.5; stroke: #ffffff; stroke-linejoin: miter"/>
   </g>
   <g id="patch_178">
    <path d="M 655.1775 365.22 
L 672.394091 365.22 
L 672.394091 361.771235 
L 655.1775 361.771235 
z
" clip-path="url(#p788aa99006)" style="fill: #dd8452; fill-opacity: 0.5; stroke: #ffffff; stroke-linejoin: miter"/>
   </g>
   <g id="patch_179">
    <path d="M 672.394091 365.22 
L 689.610682 365.22 
L 689.610682 361.617664 
L 672.394091 361.617664 
z
" clip-path="url(#p788aa99006)" style="fill: #dd8452; fill-opacity: 0.5; stroke: #ffffff; stroke-linejoin: miter"/>
   </g>
   <g id="patch_180">
    <path d="M 689.610682 365.22 
L 706.827273 365.22 
L 706.827273 361.49042 
L 689.610682 361.49042 
z
" clip-path="url(#p788aa99006)" style="fill: #dd8452; fill-opacity: 0.5; stroke: #ffffff; stroke-linejoin: miter"/>
   </g>
   <g id="patch_181">
    <path d="M 706.827273 365.22 
L 724.043864 365.22 
L 724.043864 361.145251 
L 706.827273 361.145251 
z
" clip-path="url(#p788aa99006)" style="fill: #dd8452; fill-opacity: 0.5; stroke: #ffffff; stroke-linejoin: miter"/>
   </g>
   <g id="patch_182">
    <path d="M 724.043864 365.22 
L 741.260455 365.22 
L 741.260455 360.933177 
L 724.043864 360.933177 
z
" clip-path="url(#p788aa99006)" style="fill: #dd8452; fill-opacity: 0.5; stroke: #ffffff; stroke-linejoin: miter"/>
   </g>
   <g id="patch_183">
    <path d="M 741.260455 365.22 
L 758.477045 365.22 
L 758.477045 360.726953 
L 741.260455 360.726953 
z
" clip-path="url(#p788aa99006)" style="fill: #dd8452; fill-opacity: 0.5; stroke: #ffffff; stroke-linejoin: miter"/>
   </g>
   <g id="patch_184">
    <path d="M 758.477045 365.22 
L 775.693636 365.22 
L 775.693636 360.275015 
L 758.477045 360.275015 
z
" clip-path="url(#p788aa99006)" style="fill: #dd8452; fill-opacity: 0.5; stroke: #ffffff; stroke-linejoin: miter"/>
   </g>
   <g id="patch_185">
    <path d="M 775.693636 365.22 
L 792.910227 365.22 
L 792.910227 359.923996 
L 775.693636 359.923996 
z
" clip-path="url(#p788aa99006)" style="fill: #dd8452; fill-opacity: 0.5; stroke: #ffffff; stroke-linejoin: miter"/>
   </g>
   <g id="patch_186">
    <path d="M 792.910227 365.22 
L 810.126818 365.22 
L 810.126818 360.172635 
L 792.910227 360.172635 
z
" clip-path="url(#p788aa99006)" style="fill: #dd8452; fill-opacity: 0.5; stroke: #ffffff; stroke-linejoin: miter"/>
   </g>
   <g id="line2d_19">
    <path d="M 452.080864 365.158868 
L 452.657886 365.057484 
L 453.379162 364.563658 
L 454.100439 363.989256 
L 454.821716 363.093905 
L 455.254482 362.335662 
L 455.542992 361.542838 
L 455.975758 359.462393 
L 457.129801 351.880664 
L 457.706823 345.469859 
L 458.283844 335.775552 
L 459.293631 314.184595 
L 460.014908 291.124932 
L 460.736185 261.844069 
L 462.467249 177.589346 
L 463.332781 132.757215 
L 464.198313 103.0176 
L 464.91959 84.391629 
L 465.352356 76.609138 
L 465.640866 74.963684 
L 465.785122 75.330141 
L 466.073632 77.44045 
L 466.506398 82.184238 
L 466.939164 90.945108 
L 467.37193 105.315323 
L 468.525973 158.616951 
L 469.535761 208.621927 
L 470.545548 255.905725 
L 471.699591 301.079236 
L 472.565123 324.238825 
L 473.2864 337.786439 
L 474.151932 349.4395 
L 474.728953 354.605667 
L 475.594485 359.71664 
L 476.171506 362.093892 
L 476.748528 363.592593 
L 477.181294 364.18886 
L 478.191081 364.849727 
L 479.345124 365.050642 
L 480.787677 365.165559 
L 480.787677 365.165559 
" clip-path="url(#p788aa99006)" style="fill: none; stroke: #4c72b0; stroke-width: 1.5; stroke-linecap: round"/>
   </g>
   <g id="line2d_20">
    <path d="M 121.463182 362.666102 
L 135.305667 361.40847 
L 145.687531 360.757717 
L 156.069395 360.442869 
L 166.451259 360.399515 
L 183.754365 360.62646 
L 221.821199 361.1789 
L 297.954868 361.889446 
L 353.324808 362.151997 
L 415.615991 362.265712 
L 550.580222 362.192611 
L 640.556375 361.863103 
L 689.005073 361.508021 
L 730.532529 360.960645 
L 768.599363 360.459032 
L 778.981227 360.568366 
L 785.902469 360.801669 
L 792.823712 361.186826 
L 803.205576 362.019869 
L 810.126818 362.675625 
L 810.126818 362.675625 
" clip-path="url(#p788aa99006)" style="fill: none; stroke: #dd8452; stroke-width: 1.5; stroke-linecap: round"/>
   </g>
   <g id="patch_187">
    <path d="M 87.03 365.22 
L 87.03 53.28 
" style="fill: none; stroke: #ffffff; stroke-width: 1.25; stroke-linejoin: miter; stroke-linecap: square"/>
   </g>
   <g id="patch_188">
    <path d="M 844.56 365.22 
L 844.56 53.28 
" style="fill: none; stroke: #ffffff; stroke-width: 1.25; stroke-linejoin: miter; stroke-linecap: square"/>
   </g>
   <g id="patch_189">
    <path d="M 87.03 365.22 
L 844.56 365.22 
" style="fill: none; stroke: #ffffff; stroke-width: 1.25; stroke-linejoin: miter; stroke-linecap: square"/>
   </g>
   <g id="patch_190">
    <path d="M 87.03 53.28 
L 844.56 53.28 
" style="fill: none; stroke: #ffffff; stroke-width: 1.25; stroke-linejoin: miter; stroke-linecap: square"/>
   </g>
   <g id="legend_1">
    <g id="patch_191">
     <path d="M 530.397422 114.917812 
L 833.01 114.917812 
Q 836.31 114.917812 836.31 111.617812 
L 836.31 64.83 
Q 836.31 61.53 833.01 61.53 
L 530.397422 61.53 
Q 527.097422 61.53 527.097422 64.83 
L 527.097422 111.617812 
Q 527.097422 114.917812 530.397422 114.917812 
z
" style="fill: #eaeaf2; opacity: 0.8; stroke: #cccccc; stroke-linejoin: miter"/>
    </g>
    <g id="patch_192">
     <path d="M 533.697422 80.667422 
L 566.697422 80.667422 
L 566.697422 69.117422 
L 533.697422 69.117422 
z
" style="fill: #4c72b0; fill-opacity: 0.5; stroke: #ffffff; stroke-width: 0.422727; stroke-linejoin: miter"/>
    </g>
    <g id="text_21">
     <!-- Standard Gaussian -->
     <g style="fill: #262626" transform="translate(579.897422 80.667422) scale(0.165 -0.165)">
      <defs>
       <path id="DejaVuSans-53" d="M 3425 4513 
L 3425 3897 
Q 3066 4069 2747 4153 
Q 2428 4238 2131 4238 
Q 1616 4238 1336 4038 
Q 1056 3838 1056 3469 
Q 1056 3159 1242 3001 
Q 1428 2844 1947 2747 
L 2328 2669 
Q 3034 2534 3370 2195 
Q 3706 1856 3706 1288 
Q 3706 609 3251 259 
Q 2797 -91 1919 -91 
Q 1588 -91 1214 -16 
Q 841 59 441 206 
L 441 856 
Q 825 641 1194 531 
Q 1563 422 1919 422 
Q 2459 422 2753 634 
Q 3047 847 3047 1241 
Q 3047 1584 2836 1778 
Q 2625 1972 2144 2069 
L 1759 2144 
Q 1053 2284 737 2584 
Q 422 2884 422 3419 
Q 422 4038 858 4394 
Q 1294 4750 2059 4750 
Q 2388 4750 2728 4690 
Q 3069 4631 3425 4513 
z
" transform="scale(0.015625)"/>
       <path id="DejaVuSans-61" d="M 2194 1759 
Q 1497 1759 1228 1600 
Q 959 1441 959 1056 
Q 959 750 1161 570 
Q 1363 391 1709 391 
Q 2188 391 2477 730 
Q 2766 1069 2766 1631 
L 2766 1759 
L 2194 1759 
z
M 3341 1997 
L 3341 0 
L 2766 0 
L 2766 531 
Q 2569 213 2275 61 
Q 1981 -91 1556 -91 
Q 1019 -91 701 211 
Q 384 513 384 1019 
Q 384 1609 779 1909 
Q 1175 2209 1959 2209 
L 2766 2209 
L 2766 2266 
Q 2766 2663 2505 2880 
Q 2244 3097 1772 3097 
Q 1472 3097 1187 3025 
Q 903 2953 641 2809 
L 641 3341 
Q 956 3463 1253 3523 
Q 1550 3584 1831 3584 
Q 2591 3584 2966 3190 
Q 3341 2797 3341 1997 
z
" transform="scale(0.015625)"/>
       <path id="DejaVuSans-64" d="M 2906 2969 
L 2906 4863 
L 3481 4863 
L 3481 0 
L 2906 0 
L 2906 525 
Q 2725 213 2448 61 
Q 2172 -91 1784 -91 
Q 1150 -91 751 415 
Q 353 922 353 1747 
Q 353 2572 751 3078 
Q 1150 3584 1784 3584 
Q 2172 3584 2448 3432 
Q 2725 3281 2906 2969 
z
M 947 1747 
Q 947 1113 1208 752 
Q 1469 391 1925 391 
Q 2381 391 2643 752 
Q 2906 1113 2906 1747 
Q 2906 2381 2643 2742 
Q 2381 3103 1925 3103 
Q 1469 3103 1208 2742 
Q 947 2381 947 1747 
z
" transform="scale(0.015625)"/>
       <path id="DejaVuSans-72" d="M 2631 2963 
Q 2534 3019 2420 3045 
Q 2306 3072 2169 3072 
Q 1681 3072 1420 2755 
Q 1159 2438 1159 1844 
L 1159 0 
L 581 0 
L 581 3500 
L 1159 3500 
L 1159 2956 
Q 1341 3275 1631 3429 
Q 1922 3584 2338 3584 
Q 2397 3584 2469 3576 
Q 2541 3569 2628 3553 
L 2631 2963 
z
" transform="scale(0.015625)"/>
       <path id="DejaVuSans-20" transform="scale(0.015625)"/>
       <path id="DejaVuSans-47" d="M 3809 666 
L 3809 1919 
L 2778 1919 
L 2778 2438 
L 4434 2438 
L 4434 434 
Q 4069 175 3628 42 
Q 3188 -91 2688 -91 
Q 1594 -91 976 548 
Q 359 1188 359 2328 
Q 359 3472 976 4111 
Q 1594 4750 2688 4750 
Q 3144 4750 3555 4637 
Q 3966 4525 4313 4306 
L 4313 3634 
Q 3963 3931 3569 4081 
Q 3175 4231 2741 4231 
Q 1884 4231 1454 3753 
Q 1025 3275 1025 2328 
Q 1025 1384 1454 906 
Q 1884 428 2741 428 
Q 3075 428 3337 486 
Q 3600 544 3809 666 
z
" transform="scale(0.015625)"/>
       <path id="DejaVuSans-75" d="M 544 1381 
L 544 3500 
L 1119 3500 
L 1119 1403 
Q 1119 906 1312 657 
Q 1506 409 1894 409 
Q 2359 409 2629 706 
Q 2900 1003 2900 1516 
L 2900 3500 
L 3475 3500 
L 3475 0 
L 2900 0 
L 2900 538 
Q 2691 219 2414 64 
Q 2138 -91 1772 -91 
Q 1169 -91 856 284 
Q 544 659 544 1381 
z
M 1991 3584 
L 1991 3584 
z
" transform="scale(0.015625)"/>
      </defs>
      <use xlink:href="#DejaVuSans-53"/>
      <use xlink:href="#DejaVuSans-74" transform="translate(63.476562 0)"/>
      <use xlink:href="#DejaVuSans-61" transform="translate(102.685547 0)"/>
      <use xlink:href="#DejaVuSans-6e" transform="translate(163.964844 0)"/>
      <use xlink:href="#DejaVuSans-64" transform="translate(227.34375 0)"/>
      <use xlink:href="#DejaVuSans-61" transform="translate(290.820312 0)"/>
      <use xlink:href="#DejaVuSans-72" transform="translate(352.099609 0)"/>
      <use xlink:href="#DejaVuSans-64" transform="translate(391.462891 0)"/>
      <use xlink:href="#DejaVuSans-20" transform="translate(454.939453 0)"/>
      <use xlink:href="#DejaVuSans-47" transform="translate(486.726562 0)"/>
      <use xlink:href="#DejaVuSans-61" transform="translate(564.216797 0)"/>
      <use xlink:href="#DejaVuSans-75" transform="translate(625.496094 0)"/>
      <use xlink:href="#DejaVuSans-73" transform="translate(688.875 0)"/>
      <use xlink:href="#DejaVuSans-73" transform="translate(740.974609 0)"/>
      <use xlink:href="#DejaVuSans-69" transform="translate(793.074219 0)"/>
      <use xlink:href="#DejaVuSans-61" transform="translate(820.857422 0)"/>
      <use xlink:href="#DejaVuSans-6e" transform="translate(882.136719 0)"/>
     </g>
    </g>
    <g id="patch_193">
     <path d="M 533.697422 104.886328 
L 566.697422 104.886328 
L 566.697422 93.336328 
L 533.697422 93.336328 
z
" style="fill: #dd8452; fill-opacity: 0.5; stroke: #ffffff; stroke-linejoin: miter"/>
    </g>
    <g id="text_22">
     <!-- Squashed Gaussian (rescaled) -->
     <g style="fill: #262626" transform="translate(579.897422 104.886328) scale(0.165 -0.165)">
      <defs>
       <path id="DejaVuSans-71" d="M 947 1747 
Q 947 1113 1208 752 
Q 1469 391 1925 391 
Q 2381 391 2643 752 
Q 2906 1113 2906 1747 
Q 2906 2381 2643 2742 
Q 2381 3103 1925 3103 
Q 1469 3103 1208 2742 
Q 947 2381 947 1747 
z
M 2906 525 
Q 2725 213 2448 61 
Q 2172 -91 1784 -91 
Q 1150 -91 751 415 
Q 353 922 353 1747 
Q 353 2572 751 3078 
Q 1150 3584 1784 3584 
Q 2172 3584 2448 3432 
Q 2725 3281 2906 2969 
L 2906 3500 
L 3481 3500 
L 3481 -1331 
L 2906 -1331 
L 2906 525 
z
" transform="scale(0.015625)"/>
       <path id="DejaVuSans-68" d="M 3513 2113 
L 3513 0 
L 2938 0 
L 2938 2094 
Q 2938 2591 2744 2837 
Q 2550 3084 2163 3084 
Q 1697 3084 1428 2787 
Q 1159 2491 1159 1978 
L 1159 0 
L 581 0 
L 581 4863 
L 1159 4863 
L 1159 2956 
Q 1366 3272 1645 3428 
Q 1925 3584 2291 3584 
Q 2894 3584 3203 3211 
Q 3513 2838 3513 2113 
z
" transform="scale(0.015625)"/>
       <path id="DejaVuSans-28" d="M 1984 4856 
Q 1566 4138 1362 3434 
Q 1159 2731 1159 2009 
Q 1159 1288 1364 580 
Q 1569 -128 1984 -844 
L 1484 -844 
Q 1016 -109 783 600 
Q 550 1309 550 2009 
Q 550 2706 781 3412 
Q 1013 4119 1484 4856 
L 1984 4856 
z
" transform="scale(0.015625)"/>
       <path id="DejaVuSans-6c" d="M 603 4863 
L 1178 4863 
L 1178 0 
L 603 0 
L 603 4863 
z
" transform="scale(0.015625)"/>
       <path id="DejaVuSans-29" d="M 513 4856 
L 1013 4856 
Q 1481 4119 1714 3412 
Q 1947 2706 1947 2009 
Q 1947 1309 1714 600 
Q 1481 -109 1013 -844 
L 513 -844 
Q 928 -128 1133 580 
Q 1338 1288 1338 2009 
Q 1338 2731 1133 3434 
Q 928 4138 513 4856 
z
" transform="scale(0.015625)"/>
      </defs>
      <use xlink:href="#DejaVuSans-53"/>
      <use xlink:href="#DejaVuSans-71" transform="translate(63.476562 0)"/>
      <use xlink:href="#DejaVuSans-75" transform="translate(126.953125 0)"/>
      <use xlink:href="#DejaVuSans-61" transform="translate(190.332031 0)"/>
      <use xlink:href="#DejaVuSans-73" transform="translate(251.611328 0)"/>
      <use xlink:href="#DejaVuSans-68" transform="translate(303.710938 0)"/>
      <use xlink:href="#DejaVuSans-65" transform="translate(367.089844 0)"/>
      <use xlink:href="#DejaVuSans-64" transform="translate(428.613281 0)"/>
      <use xlink:href="#DejaVuSans-20" transform="translate(492.089844 0)"/>
      <use xlink:href="#DejaVuSans-47" transform="translate(523.876953 0)"/>
      <use xlink:href="#DejaVuSans-61" transform="translate(601.367188 0)"/>
      <use xlink:href="#DejaVuSans-75" transform="translate(662.646484 0)"/>
      <use xlink:href="#DejaVuSans-73" transform="translate(726.025391 0)"/>
      <use xlink:href="#DejaVuSans-73" transform="translate(778.125 0)"/>
      <use xlink:href="#DejaVuSans-69" transform="translate(830.224609 0)"/>
      <use xlink:href="#DejaVuSans-61" transform="translate(858.007812 0)"/>
      <use xlink:href="#DejaVuSans-6e" transform="translate(919.287109 0)"/>
      <use xlink:href="#DejaVuSans-20" transform="translate(982.666016 0)"/>
      <use xlink:href="#DejaVuSans-28" transform="translate(1014.453125 0)"/>
      <use xlink:href="#DejaVuSans-72" transform="translate(1053.466797 0)"/>
      <use xlink:href="#DejaVuSans-65" transform="translate(1092.330078 0)"/>
      <use xlink:href="#DejaVuSans-73" transform="translate(1153.853516 0)"/>
      <use xlink:href="#DejaVuSans-63" transform="translate(1205.953125 0)"/>
      <use xlink:href="#DejaVuSans-61" transform="translate(1260.933594 0)"/>
      <use xlink:href="#DejaVuSans-6c" transform="translate(1322.212891 0)"/>
      <use xlink:href="#DejaVuSans-65" transform="translate(1349.996094 0)"/>
      <use xlink:href="#DejaVuSans-64" transform="translate(1411.519531 0)"/>
      <use xlink:href="#DejaVuSans-29" transform="translate(1474.996094 0)"/>
     </g>
    </g>
   </g>
  </g>
  <g id="text_23">
   <!-- Distribution of actions for a Gaussian and squashed Gaussian distributions -->
   <g style="fill: #262626" transform="translate(133.37375 20.7975) scale(0.16 -0.16)">
    <defs>
     <path id="DejaVuSans-62" d="M 3116 1747 
Q 3116 2381 2855 2742 
Q 2594 3103 2138 3103 
Q 1681 3103 1420 2742 
Q 1159 2381 1159 1747 
Q 1159 1113 1420 752 
Q 1681 391 2138 391 
Q 2594 391 2855 752 
Q 3116 1113 3116 1747 
z
M 1159 2969 
Q 1341 3281 1617 3432 
Q 1894 3584 2278 3584 
Q 2916 3584 3314 3078 
Q 3713 2572 3713 1747 
Q 3713 922 3314 415 
Q 2916 -91 2278 -91 
Q 1894 -91 1617 61 
Q 1341 213 1159 525 
L 1159 0 
L 581 0 
L 581 4863 
L 1159 4863 
L 1159 2969 
z
" transform="scale(0.015625)"/>
     <path id="DejaVuSans-66" d="M 2375 4863 
L 2375 4384 
L 1825 4384 
Q 1516 4384 1395 4259 
Q 1275 4134 1275 3809 
L 1275 3500 
L 2222 3500 
L 2222 3053 
L 1275 3053 
L 1275 0 
L 697 0 
L 697 3053 
L 147 3053 
L 147 3500 
L 697 3500 
L 697 3744 
Q 697 4328 969 4595 
Q 1241 4863 1831 4863 
L 2375 4863 
z
" transform="scale(0.015625)"/>
    </defs>
    <use xlink:href="#DejaVuSans-44"/>
    <use xlink:href="#DejaVuSans-69" transform="translate(77.001953 0)"/>
    <use xlink:href="#DejaVuSans-73" transform="translate(104.785156 0)"/>
    <use xlink:href="#DejaVuSans-74" transform="translate(156.884766 0)"/>
    <use xlink:href="#DejaVuSans-72" transform="translate(196.09375 0)"/>
    <use xlink:href="#DejaVuSans-69" transform="translate(237.207031 0)"/>
    <use xlink:href="#DejaVuSans-62" transform="translate(264.990234 0)"/>
    <use xlink:href="#DejaVuSans-75" transform="translate(328.466797 0)"/>
    <use xlink:href="#DejaVuSans-74" transform="translate(391.845703 0)"/>
    <use xlink:href="#DejaVuSans-69" transform="translate(431.054688 0)"/>
    <use xlink:href="#DejaVuSans-6f" transform="translate(458.837891 0)"/>
    <use xlink:href="#DejaVuSans-6e" transform="translate(520.019531 0)"/>
    <use xlink:href="#DejaVuSans-20" transform="translate(583.398438 0)"/>
    <use xlink:href="#DejaVuSans-6f" transform="translate(615.185547 0)"/>
    <use xlink:href="#DejaVuSans-66" transform="translate(676.367188 0)"/>
    <use xlink:href="#DejaVuSans-20" transform="translate(711.572266 0)"/>
    <use xlink:href="#DejaVuSans-61" transform="translate(743.359375 0)"/>
    <use xlink:href="#DejaVuSans-63" transform="translate(804.638672 0)"/>
    <use xlink:href="#DejaVuSans-74" transform="translate(859.619141 0)"/>
    <use xlink:href="#DejaVuSans-69" transform="translate(898.828125 0)"/>
    <use xlink:href="#DejaVuSans-6f" transform="translate(926.611328 0)"/>
    <use xlink:href="#DejaVuSans-6e" transform="translate(987.792969 0)"/>
    <use xlink:href="#DejaVuSans-73" transform="translate(1051.171875 0)"/>
    <use xlink:href="#DejaVuSans-20" transform="translate(1103.271484 0)"/>
    <use xlink:href="#DejaVuSans-66" transform="translate(1135.058594 0)"/>
    <use xlink:href="#DejaVuSans-6f" transform="translate(1170.263672 0)"/>
    <use xlink:href="#DejaVuSans-72" transform="translate(1231.445312 0)"/>
    <use xlink:href="#DejaVuSans-20" transform="translate(1272.558594 0)"/>
    <use xlink:href="#DejaVuSans-61" transform="translate(1304.345703 0)"/>
    <use xlink:href="#DejaVuSans-20" transform="translate(1365.625 0)"/>
    <use xlink:href="#DejaVuSans-47" transform="translate(1397.412109 0)"/>
    <use xlink:href="#DejaVuSans-61" transform="translate(1474.902344 0)"/>
    <use xlink:href="#DejaVuSans-75" transform="translate(1536.181641 0)"/>
    <use xlink:href="#DejaVuSans-73" transform="translate(1599.560547 0)"/>
    <use xlink:href="#DejaVuSans-73" transform="translate(1651.660156 0)"/>
    <use xlink:href="#DejaVuSans-69" transform="translate(1703.759766 0)"/>
    <use xlink:href="#DejaVuSans-61" transform="translate(1731.542969 0)"/>
    <use xlink:href="#DejaVuSans-6e" transform="translate(1792.822266 0)"/>
    <use xlink:href="#DejaVuSans-20" transform="translate(1856.201172 0)"/>
    <use xlink:href="#DejaVuSans-61" transform="translate(1887.988281 0)"/>
    <use xlink:href="#DejaVuSans-6e" transform="translate(1949.267578 0)"/>
    <use xlink:href="#DejaVuSans-64" transform="translate(2012.646484 0)"/>
    <use xlink:href="#DejaVuSans-20" transform="translate(2076.123047 0)"/>
    <use xlink:href="#DejaVuSans-73" transform="translate(2107.910156 0)"/>
    <use xlink:href="#DejaVuSans-71" transform="translate(2160.009766 0)"/>
    <use xlink:href="#DejaVuSans-75" transform="translate(2223.486328 0)"/>
    <use xlink:href="#DejaVuSans-61" transform="translate(2286.865234 0)"/>
    <use xlink:href="#DejaVuSans-73" transform="translate(2348.144531 0)"/>
    <use xlink:href="#DejaVuSans-68" transform="translate(2400.244141 0)"/>
    <use xlink:href="#DejaVuSans-65" transform="translate(2463.623047 0)"/>
    <use xlink:href="#DejaVuSans-64" transform="translate(2525.146484 0)"/>
    <use xlink:href="#DejaVuSans-20" transform="translate(2588.623047 0)"/>
    <use xlink:href="#DejaVuSans-47" transform="translate(2620.410156 0)"/>
    <use xlink:href="#DejaVuSans-61" transform="translate(2697.900391 0)"/>
    <use xlink:href="#DejaVuSans-75" transform="translate(2759.179688 0)"/>
    <use xlink:href="#DejaVuSans-73" transform="translate(2822.558594 0)"/>
    <use xlink:href="#DejaVuSans-73" transform="translate(2874.658203 0)"/>
    <use xlink:href="#DejaVuSans-69" transform="translate(2926.757812 0)"/>
    <use xlink:href="#DejaVuSans-61" transform="translate(2954.541016 0)"/>
    <use xlink:href="#DejaVuSans-6e" transform="translate(3015.820312 0)"/>
    <use xlink:href="#DejaVuSans-20" transform="translate(3079.199219 0)"/>
    <use xlink:href="#DejaVuSans-64" transform="translate(3110.986328 0)"/>
    <use xlink:href="#DejaVuSans-69" transform="translate(3174.462891 0)"/>
    <use xlink:href="#DejaVuSans-73" transform="translate(3202.246094 0)"/>
    <use xlink:href="#DejaVuSans-74" transform="translate(3254.345703 0)"/>
    <use xlink:href="#DejaVuSans-72" transform="translate(3293.554688 0)"/>
    <use xlink:href="#DejaVuSans-69" transform="translate(3334.667969 0)"/>
    <use xlink:href="#DejaVuSans-62" transform="translate(3362.451172 0)"/>
    <use xlink:href="#DejaVuSans-75" transform="translate(3425.927734 0)"/>
    <use xlink:href="#DejaVuSans-74" transform="translate(3489.306641 0)"/>
    <use xlink:href="#DejaVuSans-69" transform="translate(3528.515625 0)"/>
    <use xlink:href="#DejaVuSans-6f" transform="translate(3556.298828 0)"/>
    <use xlink:href="#DejaVuSans-6e" transform="translate(3617.480469 0)"/>
    <use xlink:href="#DejaVuSans-73" transform="translate(3680.859375 0)"/>
   </g>
  </g>
 </g>
 <defs>
  <clipPath id="p788aa99006">
   <rect x="87.03" y="53.28" width="757.53" height="311.94"/>
  </clipPath>
 </defs>
</svg>
