<?xml version="1.0" encoding="utf-8" standalone="no"?>
<!DOCTYPE svg PUBLIC "-//W3C//DTD SVG 1.1//EN"
  "http://www.w3.org/Graphics/SVG/1.1/DTD/svg11.dtd">
<svg xmlns:xlink="http://www.w3.org/1999/xlink" width="864pt" height="432pt" viewBox="0 0 864 432" xmlns="http://www.w3.org/2000/svg" version="1.1">
 <metadata>
  <rdf:RDF xmlns:dc="http://purl.org/dc/elements/1.1/" xmlns:cc="http://creativecommons.org/ns#" xmlns:rdf="http://www.w3.org/1999/02/22-rdf-syntax-ns#">
   <cc:Work>
    <dc:type rdf:resource="http://purl.org/dc/dcmitype/StillImage"/>
    <dc:date>2025-03-06T09:26:19.505320</dc:date>
    <dc:format>image/svg+xml</dc:format>
    <dc:creator>
     <cc:Agent>
      <dc:title>Matplotlib v3.10.1, https://matplotlib.org/</dc:title>
     </cc:Agent>
    </dc:creator>
   </cc:Work>
  </rdf:RDF>
 </metadata>
 <defs>
  <style type="text/css">*{stroke-linejoin: round; stroke-linecap: butt}</style>
 </defs>
 <g id="figure_1">
  <g id="patch_1">
   <path d="M 0 432 
L 864 432 
L 864 0 
L 0 0 
z
" style="fill: #ffffff"/>
  </g>
  <g id="axes_1">
   <g id="patch_2">
    <path d="M 76.5 365.22 
L 844.56 365.22 
L 844.56 53.28 
L 76.5 53.28 
z
" style="fill: #eaeaf2"/>
   </g>
   <g id="matplotlib.axis_1">
    <g id="xtick_1">
     <g id="line2d_1">
      <path d="M 108.091607 365.22 
L 108.091607 53.28 
" clip-path="url(#p5839847831)" style="fill: none; stroke: #ffffff; stroke-linecap: round"/>
     </g>
     <g id="text_1">
      <!-- −4 -->
      <g style="fill: #262626" transform="translate(95.929302 387.257422) scale(0.165 -0.165)">
       <defs>
        <path id="DejaVuSans-2212" d="M 678 2272 
L 4684 2272 
L 4684 1741 
L 678 1741 
L 678 2272 
z
" transform="scale(0.015625)"/>
        <path id="DejaVuSans-34" d="M 2419 4116 
L 825 1625 
L 2419 1625 
L 2419 4116 
z
M 2253 4666 
L 3047 4666 
L 3047 1625 
L 3713 1625 
L 3713 1100 
L 3047 1100 
L 3047 0 
L 2419 0 
L 2419 1100 
L 313 1100 
L 313 1709 
L 2253 4666 
z
" transform="scale(0.015625)"/>
       </defs>
       <use xlink:href="#DejaVuSans-2212"/>
       <use xlink:href="#DejaVuSans-34" transform="translate(83.789062 0)"/>
      </g>
     </g>
    </g>
    <g id="xtick_2">
     <g id="line2d_2">
      <path d="M 275.68293 365.22 
L 275.68293 53.28 
" clip-path="url(#p5839847831)" style="fill: none; stroke: #ffffff; stroke-linecap: round"/>
     </g>
     <g id="text_2">
      <!-- −2 -->
      <g style="fill: #262626" transform="translate(263.520626 387.257422) scale(0.165 -0.165)">
       <defs>
        <path id="DejaVuSans-32" d="M 1228 531 
L 3431 531 
L 3431 0 
L 469 0 
L 469 531 
Q 828 903 1448 1529 
Q 2069 2156 2228 2338 
Q 2531 2678 2651 2914 
Q 2772 3150 2772 3378 
Q 2772 3750 2511 3984 
Q 2250 4219 1831 4219 
Q 1534 4219 1204 4116 
Q 875 4013 500 3803 
L 500 4441 
Q 881 4594 1212 4672 
Q 1544 4750 1819 4750 
Q 2544 4750 2975 4387 
Q 3406 4025 3406 3419 
Q 3406 3131 3298 2873 
Q 3191 2616 2906 2266 
Q 2828 2175 2409 1742 
Q 1991 1309 1228 531 
z
" transform="scale(0.015625)"/>
       </defs>
       <use xlink:href="#DejaVuSans-2212"/>
       <use xlink:href="#DejaVuSans-32" transform="translate(83.789062 0)"/>
      </g>
     </g>
    </g>
    <g id="xtick_3">
     <g id="line2d_3">
      <path d="M 443.274253 365.22 
L 443.274253 53.28 
" clip-path="url(#p5839847831)" style="fill: none; stroke: #ffffff; stroke-linecap: round"/>
     </g>
     <g id="text_3">
      <!-- 0 -->
      <g style="fill: #262626" transform="translate(438.025191 387.257422) scale(0.165 -0.165)">
       <defs>
        <path id="DejaVuSans-30" d="M 2034 4250 
Q 1547 4250 1301 3770 
Q 1056 3291 1056 2328 
Q 1056 1369 1301 889 
Q 1547 409 2034 409 
Q 2525 409 2770 889 
Q 3016 1369 3016 2328 
Q 3016 3291 2770 3770 
Q 2525 4250 2034 4250 
z
M 2034 4750 
Q 2819 4750 3233 4129 
Q 3647 3509 3647 2328 
Q 3647 1150 3233 529 
Q 2819 -91 2034 -91 
Q 1250 -91 836 529 
Q 422 1150 422 2328 
Q 422 3509 836 4129 
Q 1250 4750 2034 4750 
z
" transform="scale(0.015625)"/>
       </defs>
       <use xlink:href="#DejaVuSans-30"/>
      </g>
     </g>
    </g>
    <g id="xtick_4">
     <g id="line2d_4">
      <path d="M 610.865576 365.22 
L 610.865576 53.28 
" clip-path="url(#p5839847831)" style="fill: none; stroke: #ffffff; stroke-linecap: round"/>
     </g>
     <g id="text_4">
      <!-- 2 -->
      <g style="fill: #262626" transform="translate(605.616514 387.257422) scale(0.165 -0.165)">
       <use xlink:href="#DejaVuSans-32"/>
      </g>
     </g>
    </g>
    <g id="xtick_5">
     <g id="line2d_5">
      <path d="M 778.456899 365.22 
L 778.456899 53.28 
" clip-path="url(#p5839847831)" style="fill: none; stroke: #ffffff; stroke-linecap: round"/>
     </g>
     <g id="text_5">
      <!-- 4 -->
      <g style="fill: #262626" transform="translate(773.207837 387.257422) scale(0.165 -0.165)">
       <use xlink:href="#DejaVuSans-34"/>
      </g>
     </g>
    </g>
    <g id="text_6">
     <!-- Action -->
     <g style="fill: #262626" transform="translate(432.343125 408.366094) scale(0.18 -0.18)">
      <defs>
       <path id="DejaVuSans-41" d="M 2188 4044 
L 1331 1722 
L 3047 1722 
L 2188 4044 
z
M 1831 4666 
L 2547 4666 
L 4325 0 
L 3669 0 
L 3244 1197 
L 1141 1197 
L 716 0 
L 50 0 
L 1831 4666 
z
" transform="scale(0.015625)"/>
       <path id="DejaVuSans-63" d="M 3122 3366 
L 3122 2828 
Q 2878 2963 2633 3030 
Q 2388 3097 2138 3097 
Q 1578 3097 1268 2742 
Q 959 2388 959 1747 
Q 959 1106 1268 751 
Q 1578 397 2138 397 
Q 2388 397 2633 464 
Q 2878 531 3122 666 
L 3122 134 
Q 2881 22 2623 -34 
Q 2366 -91 2075 -91 
Q 1284 -91 818 406 
Q 353 903 353 1747 
Q 353 2603 823 3093 
Q 1294 3584 2113 3584 
Q 2378 3584 2631 3529 
Q 2884 3475 3122 3366 
z
" transform="scale(0.015625)"/>
       <path id="DejaVuSans-74" d="M 1172 4494 
L 1172 3500 
L 2356 3500 
L 2356 3053 
L 1172 3053 
L 1172 1153 
Q 1172 725 1289 603 
Q 1406 481 1766 481 
L 2356 481 
L 2356 0 
L 1766 0 
Q 1100 0 847 248 
Q 594 497 594 1153 
L 594 3053 
L 172 3053 
L 172 3500 
L 594 3500 
L 594 4494 
L 1172 4494 
z
" transform="scale(0.015625)"/>
       <path id="DejaVuSans-69" d="M 603 3500 
L 1178 3500 
L 1178 0 
L 603 0 
L 603 3500 
z
M 603 4863 
L 1178 4863 
L 1178 4134 
L 603 4134 
L 603 4863 
z
" transform="scale(0.015625)"/>
       <path id="DejaVuSans-6f" d="M 1959 3097 
Q 1497 3097 1228 2736 
Q 959 2375 959 1747 
Q 959 1119 1226 758 
Q 1494 397 1959 397 
Q 2419 397 2687 759 
Q 2956 1122 2956 1747 
Q 2956 2369 2687 2733 
Q 2419 3097 1959 3097 
z
M 1959 3584 
Q 2709 3584 3137 3096 
Q 3566 2609 3566 1747 
Q 3566 888 3137 398 
Q 2709 -91 1959 -91 
Q 1206 -91 779 398 
Q 353 888 353 1747 
Q 353 2609 779 3096 
Q 1206 3584 1959 3584 
z
" transform="scale(0.015625)"/>
       <path id="DejaVuSans-6e" d="M 3513 2113 
L 3513 0 
L 2938 0 
L 2938 2094 
Q 2938 2591 2744 2837 
Q 2550 3084 2163 3084 
Q 1697 3084 1428 2787 
Q 1159 2491 1159 1978 
L 1159 0 
L 581 0 
L 581 3500 
L 1159 3500 
L 1159 2956 
Q 1366 3272 1645 3428 
Q 1925 3584 2291 3584 
Q 2894 3584 3203 3211 
Q 3513 2838 3513 2113 
z
" transform="scale(0.015625)"/>
      </defs>
      <use xlink:href="#DejaVuSans-41"/>
      <use xlink:href="#DejaVuSans-63" transform="translate(66.658203 0)"/>
      <use xlink:href="#DejaVuSans-74" transform="translate(121.638672 0)"/>
      <use xlink:href="#DejaVuSans-69" transform="translate(160.847656 0)"/>
      <use xlink:href="#DejaVuSans-6f" transform="translate(188.630859 0)"/>
      <use xlink:href="#DejaVuSans-6e" transform="translate(249.8125 0)"/>
     </g>
    </g>
   </g>
   <g id="matplotlib.axis_2">
    <g id="ytick_1">
     <g id="line2d_6">
      <path d="M 76.5 365.22 
L 844.56 365.22 
" clip-path="url(#p5839847831)" style="fill: none; stroke: #ffffff; stroke-linecap: round"/>
     </g>
     <g id="text_7">
      <!-- 0.0 -->
      <g style="fill: #262626" transform="translate(40.759844 371.488711) scale(0.165 -0.165)">
       <defs>
        <path id="DejaVuSans-2e" d="M 684 794 
L 1344 794 
L 1344 0 
L 684 0 
L 684 794 
z
" transform="scale(0.015625)"/>
       </defs>
       <use xlink:href="#DejaVuSans-30"/>
       <use xlink:href="#DejaVuSans-2e" transform="translate(63.623047 0)"/>
       <use xlink:href="#DejaVuSans-30" transform="translate(95.410156 0)"/>
      </g>
     </g>
    </g>
    <g id="ytick_2">
     <g id="line2d_7">
      <path d="M 76.5 324.766248 
L 844.56 324.766248 
" clip-path="url(#p5839847831)" style="fill: none; stroke: #ffffff; stroke-linecap: round"/>
     </g>
     <g id="text_8">
      <!-- 0.1 -->
      <g style="fill: #262626" transform="translate(40.759844 331.034959) scale(0.165 -0.165)">
       <defs>
        <path id="DejaVuSans-31" d="M 794 531 
L 1825 531 
L 1825 4091 
L 703 3866 
L 703 4441 
L 1819 4666 
L 2450 4666 
L 2450 531 
L 3481 531 
L 3481 0 
L 794 0 
L 794 531 
z
" transform="scale(0.015625)"/>
       </defs>
       <use xlink:href="#DejaVuSans-30"/>
       <use xlink:href="#DejaVuSans-2e" transform="translate(63.623047 0)"/>
       <use xlink:href="#DejaVuSans-31" transform="translate(95.410156 0)"/>
      </g>
     </g>
    </g>
    <g id="ytick_3">
     <g id="line2d_8">
      <path d="M 76.5 284.312495 
L 844.56 284.312495 
" clip-path="url(#p5839847831)" style="fill: none; stroke: #ffffff; stroke-linecap: round"/>
     </g>
     <g id="text_9">
      <!-- 0.2 -->
      <g style="fill: #262626" transform="translate(40.759844 290.581206) scale(0.165 -0.165)">
       <use xlink:href="#DejaVuSans-30"/>
       <use xlink:href="#DejaVuSans-2e" transform="translate(63.623047 0)"/>
       <use xlink:href="#DejaVuSans-32" transform="translate(95.410156 0)"/>
      </g>
     </g>
    </g>
    <g id="ytick_4">
     <g id="line2d_9">
      <path d="M 76.5 243.858743 
L 844.56 243.858743 
" clip-path="url(#p5839847831)" style="fill: none; stroke: #ffffff; stroke-linecap: round"/>
     </g>
     <g id="text_10">
      <!-- 0.3 -->
      <g style="fill: #262626" transform="translate(40.759844 250.127454) scale(0.165 -0.165)">
       <defs>
        <path id="DejaVuSans-33" d="M 2597 2516 
Q 3050 2419 3304 2112 
Q 3559 1806 3559 1356 
Q 3559 666 3084 287 
Q 2609 -91 1734 -91 
Q 1441 -91 1130 -33 
Q 819 25 488 141 
L 488 750 
Q 750 597 1062 519 
Q 1375 441 1716 441 
Q 2309 441 2620 675 
Q 2931 909 2931 1356 
Q 2931 1769 2642 2001 
Q 2353 2234 1838 2234 
L 1294 2234 
L 1294 2753 
L 1863 2753 
Q 2328 2753 2575 2939 
Q 2822 3125 2822 3475 
Q 2822 3834 2567 4026 
Q 2313 4219 1838 4219 
Q 1578 4219 1281 4162 
Q 984 4106 628 3988 
L 628 4550 
Q 988 4650 1302 4700 
Q 1616 4750 1894 4750 
Q 2613 4750 3031 4423 
Q 3450 4097 3450 3541 
Q 3450 3153 3228 2886 
Q 3006 2619 2597 2516 
z
" transform="scale(0.015625)"/>
       </defs>
       <use xlink:href="#DejaVuSans-30"/>
       <use xlink:href="#DejaVuSans-2e" transform="translate(63.623047 0)"/>
       <use xlink:href="#DejaVuSans-33" transform="translate(95.410156 0)"/>
      </g>
     </g>
    </g>
    <g id="ytick_5">
     <g id="line2d_10">
      <path d="M 76.5 203.40499 
L 844.56 203.40499 
" clip-path="url(#p5839847831)" style="fill: none; stroke: #ffffff; stroke-linecap: round"/>
     </g>
     <g id="text_11">
      <!-- 0.4 -->
      <g style="fill: #262626" transform="translate(40.759844 209.673701) scale(0.165 -0.165)">
       <use xlink:href="#DejaVuSans-30"/>
       <use xlink:href="#DejaVuSans-2e" transform="translate(63.623047 0)"/>
       <use xlink:href="#DejaVuSans-34" transform="translate(95.410156 0)"/>
      </g>
     </g>
    </g>
    <g id="ytick_6">
     <g id="line2d_11">
      <path d="M 76.5 162.951238 
L 844.56 162.951238 
" clip-path="url(#p5839847831)" style="fill: none; stroke: #ffffff; stroke-linecap: round"/>
     </g>
     <g id="text_12">
      <!-- 0.5 -->
      <g style="fill: #262626" transform="translate(40.759844 169.219949) scale(0.165 -0.165)">
       <defs>
        <path id="DejaVuSans-35" d="M 691 4666 
L 3169 4666 
L 3169 4134 
L 1269 4134 
L 1269 2991 
Q 1406 3038 1543 3061 
Q 1681 3084 1819 3084 
Q 2600 3084 3056 2656 
Q 3513 2228 3513 1497 
Q 3513 744 3044 326 
Q 2575 -91 1722 -91 
Q 1428 -91 1123 -41 
Q 819 9 494 109 
L 494 744 
Q 775 591 1075 516 
Q 1375 441 1709 441 
Q 2250 441 2565 725 
Q 2881 1009 2881 1497 
Q 2881 1984 2565 2268 
Q 2250 2553 1709 2553 
Q 1456 2553 1204 2497 
Q 953 2441 691 2322 
L 691 4666 
z
" transform="scale(0.015625)"/>
       </defs>
       <use xlink:href="#DejaVuSans-30"/>
       <use xlink:href="#DejaVuSans-2e" transform="translate(63.623047 0)"/>
       <use xlink:href="#DejaVuSans-35" transform="translate(95.410156 0)"/>
      </g>
     </g>
    </g>
    <g id="ytick_7">
     <g id="line2d_12">
      <path d="M 76.5 122.497486 
L 844.56 122.497486 
" clip-path="url(#p5839847831)" style="fill: none; stroke: #ffffff; stroke-linecap: round"/>
     </g>
     <g id="text_13">
      <!-- 0.6 -->
      <g style="fill: #262626" transform="translate(40.759844 128.766196) scale(0.165 -0.165)">
       <defs>
        <path id="DejaVuSans-36" d="M 2113 2584 
Q 1688 2584 1439 2293 
Q 1191 2003 1191 1497 
Q 1191 994 1439 701 
Q 1688 409 2113 409 
Q 2538 409 2786 701 
Q 3034 994 3034 1497 
Q 3034 2003 2786 2293 
Q 2538 2584 2113 2584 
z
M 3366 4563 
L 3366 3988 
Q 3128 4100 2886 4159 
Q 2644 4219 2406 4219 
Q 1781 4219 1451 3797 
Q 1122 3375 1075 2522 
Q 1259 2794 1537 2939 
Q 1816 3084 2150 3084 
Q 2853 3084 3261 2657 
Q 3669 2231 3669 1497 
Q 3669 778 3244 343 
Q 2819 -91 2113 -91 
Q 1303 -91 875 529 
Q 447 1150 447 2328 
Q 447 3434 972 4092 
Q 1497 4750 2381 4750 
Q 2619 4750 2861 4703 
Q 3103 4656 3366 4563 
z
" transform="scale(0.015625)"/>
       </defs>
       <use xlink:href="#DejaVuSans-30"/>
       <use xlink:href="#DejaVuSans-2e" transform="translate(63.623047 0)"/>
       <use xlink:href="#DejaVuSans-36" transform="translate(95.410156 0)"/>
      </g>
     </g>
    </g>
    <g id="ytick_8">
     <g id="line2d_13">
      <path d="M 76.5 82.043733 
L 844.56 82.043733 
" clip-path="url(#p5839847831)" style="fill: none; stroke: #ffffff; stroke-linecap: round"/>
     </g>
     <g id="text_14">
      <!-- 0.7 -->
      <g style="fill: #262626" transform="translate(40.759844 88.312444) scale(0.165 -0.165)">
       <defs>
        <path id="DejaVuSans-37" d="M 525 4666 
L 3525 4666 
L 3525 4397 
L 1831 0 
L 1172 0 
L 2766 4134 
L 525 4134 
L 525 4666 
z
" transform="scale(0.015625)"/>
       </defs>
       <use xlink:href="#DejaVuSans-30"/>
       <use xlink:href="#DejaVuSans-2e" transform="translate(63.623047 0)"/>
       <use xlink:href="#DejaVuSans-37" transform="translate(95.410156 0)"/>
      </g>
     </g>
    </g>
    <g id="text_15">
     <!-- Density -->
     <g style="fill: #262626" transform="translate(33.016406 243.465469) rotate(-90) scale(0.18 -0.18)">
      <defs>
       <path id="DejaVuSans-44" d="M 1259 4147 
L 1259 519 
L 2022 519 
Q 2988 519 3436 956 
Q 3884 1394 3884 2338 
Q 3884 3275 3436 3711 
Q 2988 4147 2022 4147 
L 1259 4147 
z
M 628 4666 
L 1925 4666 
Q 3281 4666 3915 4102 
Q 4550 3538 4550 2338 
Q 4550 1131 3912 565 
Q 3275 0 1925 0 
L 628 0 
L 628 4666 
z
" transform="scale(0.015625)"/>
       <path id="DejaVuSans-65" d="M 3597 1894 
L 3597 1613 
L 953 1613 
Q 991 1019 1311 708 
Q 1631 397 2203 397 
Q 2534 397 2845 478 
Q 3156 559 3463 722 
L 3463 178 
Q 3153 47 2828 -22 
Q 2503 -91 2169 -91 
Q 1331 -91 842 396 
Q 353 884 353 1716 
Q 353 2575 817 3079 
Q 1281 3584 2069 3584 
Q 2775 3584 3186 3129 
Q 3597 2675 3597 1894 
z
M 3022 2063 
Q 3016 2534 2758 2815 
Q 2500 3097 2075 3097 
Q 1594 3097 1305 2825 
Q 1016 2553 972 2059 
L 3022 2063 
z
" transform="scale(0.015625)"/>
       <path id="DejaVuSans-73" d="M 2834 3397 
L 2834 2853 
Q 2591 2978 2328 3040 
Q 2066 3103 1784 3103 
Q 1356 3103 1142 2972 
Q 928 2841 928 2578 
Q 928 2378 1081 2264 
Q 1234 2150 1697 2047 
L 1894 2003 
Q 2506 1872 2764 1633 
Q 3022 1394 3022 966 
Q 3022 478 2636 193 
Q 2250 -91 1575 -91 
Q 1294 -91 989 -36 
Q 684 19 347 128 
L 347 722 
Q 666 556 975 473 
Q 1284 391 1588 391 
Q 1994 391 2212 530 
Q 2431 669 2431 922 
Q 2431 1156 2273 1281 
Q 2116 1406 1581 1522 
L 1381 1569 
Q 847 1681 609 1914 
Q 372 2147 372 2553 
Q 372 3047 722 3315 
Q 1072 3584 1716 3584 
Q 2034 3584 2315 3537 
Q 2597 3491 2834 3397 
z
" transform="scale(0.015625)"/>
       <path id="DejaVuSans-79" d="M 2059 -325 
Q 1816 -950 1584 -1140 
Q 1353 -1331 966 -1331 
L 506 -1331 
L 506 -850 
L 844 -850 
Q 1081 -850 1212 -737 
Q 1344 -625 1503 -206 
L 1606 56 
L 191 3500 
L 800 3500 
L 1894 763 
L 2988 3500 
L 3597 3500 
L 2059 -325 
z
" transform="scale(0.015625)"/>
      </defs>
      <use xlink:href="#DejaVuSans-44"/>
      <use xlink:href="#DejaVuSans-65" transform="translate(77.001953 0)"/>
      <use xlink:href="#DejaVuSans-6e" transform="translate(138.525391 0)"/>
      <use xlink:href="#DejaVuSans-73" transform="translate(201.904297 0)"/>
      <use xlink:href="#DejaVuSans-69" transform="translate(254.003906 0)"/>
      <use xlink:href="#DejaVuSans-74" transform="translate(281.787109 0)"/>
      <use xlink:href="#DejaVuSans-79" transform="translate(320.996094 0)"/>
     </g>
    </g>
   </g>
   <g id="patch_3">
    <path d="M 111.411818 365.22 
L 116.260682 365.22 
L 116.260682 365.08018 
L 111.411818 365.08018 
z
" clip-path="url(#p5839847831)" style="fill: #4c72b0; fill-opacity: 0.5; stroke: #ffffff; stroke-width: 0.422727; stroke-linejoin: miter"/>
   </g>
   <g id="patch_4">
    <path d="M 116.260682 365.22 
L 121.109545 365.22 
L 121.109545 365.22 
L 116.260682 365.22 
z
" clip-path="url(#p5839847831)" style="fill: #4c72b0; fill-opacity: 0.5; stroke: #ffffff; stroke-width: 0.422727; stroke-linejoin: miter"/>
   </g>
   <g id="patch_5">
    <path d="M 121.109545 365.22 
L 125.958409 365.22 
L 125.958409 365.22 
L 121.109545 365.22 
z
" clip-path="url(#p5839847831)" style="fill: #4c72b0; fill-opacity: 0.5; stroke: #ffffff; stroke-width: 0.422727; stroke-linejoin: miter"/>
   </g>
   <g id="patch_6">
    <path d="M 125.958409 365.22 
L 130.807273 365.22 
L 130.807273 365.15009 
L 125.958409 365.15009 
z
" clip-path="url(#p5839847831)" style="fill: #4c72b0; fill-opacity: 0.5; stroke: #ffffff; stroke-width: 0.422727; stroke-linejoin: miter"/>
   </g>
   <g id="patch_7">
    <path d="M 130.807273 365.22 
L 135.656136 365.22 
L 135.656136 365.15009 
L 130.807273 365.15009 
z
" clip-path="url(#p5839847831)" style="fill: #4c72b0; fill-opacity: 0.5; stroke: #ffffff; stroke-width: 0.422727; stroke-linejoin: miter"/>
   </g>
   <g id="patch_8">
    <path d="M 135.656136 365.22 
L 140.505 365.22 
L 140.505 364.730629 
L 135.656136 364.730629 
z
" clip-path="url(#p5839847831)" style="fill: #4c72b0; fill-opacity: 0.5; stroke: #ffffff; stroke-width: 0.422727; stroke-linejoin: miter"/>
   </g>
   <g id="patch_9">
    <path d="M 140.505 365.22 
L 145.353864 365.22 
L 145.353864 364.940359 
L 140.505 364.940359 
z
" clip-path="url(#p5839847831)" style="fill: #4c72b0; fill-opacity: 0.5; stroke: #ffffff; stroke-width: 0.422727; stroke-linejoin: miter"/>
   </g>
   <g id="patch_10">
    <path d="M 145.353864 365.22 
L 150.202727 365.22 
L 150.202727 364.730629 
L 145.353864 364.730629 
z
" clip-path="url(#p5839847831)" style="fill: #4c72b0; fill-opacity: 0.5; stroke: #ffffff; stroke-width: 0.422727; stroke-linejoin: miter"/>
   </g>
   <g id="patch_11">
    <path d="M 150.202727 365.22 
L 155.051591 365.22 
L 155.051591 364.800539 
L 150.202727 364.800539 
z
" clip-path="url(#p5839847831)" style="fill: #4c72b0; fill-opacity: 0.5; stroke: #ffffff; stroke-width: 0.422727; stroke-linejoin: miter"/>
   </g>
   <g id="patch_12">
    <path d="M 155.051591 365.22 
L 159.900455 365.22 
L 159.900455 364.590808 
L 155.051591 364.590808 
z
" clip-path="url(#p5839847831)" style="fill: #4c72b0; fill-opacity: 0.5; stroke: #ffffff; stroke-width: 0.422727; stroke-linejoin: miter"/>
   </g>
   <g id="patch_13">
    <path d="M 159.900455 365.22 
L 164.749318 365.22 
L 164.749318 364.381078 
L 159.900455 364.381078 
z
" clip-path="url(#p5839847831)" style="fill: #4c72b0; fill-opacity: 0.5; stroke: #ffffff; stroke-width: 0.422727; stroke-linejoin: miter"/>
   </g>
   <g id="patch_14">
    <path d="M 164.749318 365.22 
L 169.598182 365.22 
L 169.598182 364.590808 
L 164.749318 364.590808 
z
" clip-path="url(#p5839847831)" style="fill: #4c72b0; fill-opacity: 0.5; stroke: #ffffff; stroke-width: 0.422727; stroke-linejoin: miter"/>
   </g>
   <g id="patch_15">
    <path d="M 169.598182 365.22 
L 174.447045 365.22 
L 174.447045 364.241258 
L 169.598182 364.241258 
z
" clip-path="url(#p5839847831)" style="fill: #4c72b0; fill-opacity: 0.5; stroke: #ffffff; stroke-width: 0.422727; stroke-linejoin: miter"/>
   </g>
   <g id="patch_16">
    <path d="M 174.447045 365.22 
L 179.295909 365.22 
L 179.295909 364.031527 
L 174.447045 364.031527 
z
" clip-path="url(#p5839847831)" style="fill: #4c72b0; fill-opacity: 0.5; stroke: #ffffff; stroke-width: 0.422727; stroke-linejoin: miter"/>
   </g>
   <g id="patch_17">
    <path d="M 179.295909 365.22 
L 184.144773 365.22 
L 184.144773 364.031527 
L 179.295909 364.031527 
z
" clip-path="url(#p5839847831)" style="fill: #4c72b0; fill-opacity: 0.5; stroke: #ffffff; stroke-width: 0.422727; stroke-linejoin: miter"/>
   </g>
   <g id="patch_18">
    <path d="M 184.144773 365.22 
L 188.993636 365.22 
L 188.993636 363.472246 
L 184.144773 363.472246 
z
" clip-path="url(#p5839847831)" style="fill: #4c72b0; fill-opacity: 0.5; stroke: #ffffff; stroke-width: 0.422727; stroke-linejoin: miter"/>
   </g>
   <g id="patch_19">
    <path d="M 188.993636 365.22 
L 193.8425 365.22 
L 193.8425 363.751886 
L 188.993636 363.751886 
z
" clip-path="url(#p5839847831)" style="fill: #4c72b0; fill-opacity: 0.5; stroke: #ffffff; stroke-width: 0.422727; stroke-linejoin: miter"/>
   </g>
   <g id="patch_20">
    <path d="M 193.8425 365.22 
L 198.691364 365.22 
L 198.691364 363.402336 
L 193.8425 363.402336 
z
" clip-path="url(#p5839847831)" style="fill: #4c72b0; fill-opacity: 0.5; stroke: #ffffff; stroke-width: 0.422727; stroke-linejoin: miter"/>
   </g>
   <g id="patch_21">
    <path d="M 198.691364 365.22 
L 203.540227 365.22 
L 203.540227 362.773144 
L 198.691364 362.773144 
z
" clip-path="url(#p5839847831)" style="fill: #4c72b0; fill-opacity: 0.5; stroke: #ffffff; stroke-width: 0.422727; stroke-linejoin: miter"/>
   </g>
   <g id="patch_22">
    <path d="M 203.540227 365.22 
L 208.389091 365.22 
L 208.389091 362.563413 
L 203.540227 362.563413 
z
" clip-path="url(#p5839847831)" style="fill: #4c72b0; fill-opacity: 0.5; stroke: #ffffff; stroke-width: 0.422727; stroke-linejoin: miter"/>
   </g>
   <g id="patch_23">
    <path d="M 208.389091 365.22 
L 213.237955 365.22 
L 213.237955 361.0953 
L 208.389091 361.0953 
z
" clip-path="url(#p5839847831)" style="fill: #4c72b0; fill-opacity: 0.5; stroke: #ffffff; stroke-width: 0.422727; stroke-linejoin: miter"/>
   </g>
   <g id="patch_24">
    <path d="M 213.237955 365.22 
L 218.086818 365.22 
L 218.086818 360.675839 
L 213.237955 360.675839 
z
" clip-path="url(#p5839847831)" style="fill: #4c72b0; fill-opacity: 0.5; stroke: #ffffff; stroke-width: 0.422727; stroke-linejoin: miter"/>
   </g>
   <g id="patch_25">
    <path d="M 218.086818 365.22 
L 222.935682 365.22 
L 222.935682 359.767007 
L 218.086818 359.767007 
z
" clip-path="url(#p5839847831)" style="fill: #4c72b0; fill-opacity: 0.5; stroke: #ffffff; stroke-width: 0.422727; stroke-linejoin: miter"/>
   </g>
   <g id="patch_26">
    <path d="M 222.935682 365.22 
L 227.784545 365.22 
L 227.784545 360.256378 
L 222.935682 360.256378 
z
" clip-path="url(#p5839847831)" style="fill: #4c72b0; fill-opacity: 0.5; stroke: #ffffff; stroke-width: 0.422727; stroke-linejoin: miter"/>
   </g>
   <g id="patch_27">
    <path d="M 227.784545 365.22 
L 232.633409 365.22 
L 232.633409 358.648444 
L 227.784545 358.648444 
z
" clip-path="url(#p5839847831)" style="fill: #4c72b0; fill-opacity: 0.5; stroke: #ffffff; stroke-width: 0.422727; stroke-linejoin: miter"/>
   </g>
   <g id="patch_28">
    <path d="M 232.633409 365.22 
L 237.482273 365.22 
L 237.482273 357.879432 
L 232.633409 357.879432 
z
" clip-path="url(#p5839847831)" style="fill: #4c72b0; fill-opacity: 0.5; stroke: #ffffff; stroke-width: 0.422727; stroke-linejoin: miter"/>
   </g>
   <g id="patch_29">
    <path d="M 237.482273 365.22 
L 242.331136 365.22 
L 242.331136 356.9706 
L 237.482273 356.9706 
z
" clip-path="url(#p5839847831)" style="fill: #4c72b0; fill-opacity: 0.5; stroke: #ffffff; stroke-width: 0.422727; stroke-linejoin: miter"/>
   </g>
   <g id="patch_30">
    <path d="M 242.331136 365.22 
L 247.18 365.22 
L 247.18 354.523744 
L 242.331136 354.523744 
z
" clip-path="url(#p5839847831)" style="fill: #4c72b0; fill-opacity: 0.5; stroke: #ffffff; stroke-width: 0.422727; stroke-linejoin: miter"/>
   </g>
   <g id="patch_31">
    <path d="M 247.18 365.22 
L 252.028864 365.22 
L 252.028864 355.152935 
L 247.18 355.152935 
z
" clip-path="url(#p5839847831)" style="fill: #4c72b0; fill-opacity: 0.5; stroke: #ffffff; stroke-width: 0.422727; stroke-linejoin: miter"/>
   </g>
   <g id="patch_32">
    <path d="M 252.028864 365.22 
L 256.877727 365.22 
L 256.877727 352.775989 
L 252.028864 352.775989 
z
" clip-path="url(#p5839847831)" style="fill: #4c72b0; fill-opacity: 0.5; stroke: #ffffff; stroke-width: 0.422727; stroke-linejoin: miter"/>
   </g>
   <g id="patch_33">
    <path d="M 256.877727 365.22 
L 261.726591 365.22 
L 261.726591 350.049493 
L 256.877727 350.049493 
z
" clip-path="url(#p5839847831)" style="fill: #4c72b0; fill-opacity: 0.5; stroke: #ffffff; stroke-width: 0.422727; stroke-linejoin: miter"/>
   </g>
   <g id="patch_34">
    <path d="M 261.726591 365.22 
L 266.575455 365.22 
L 266.575455 347.742457 
L 261.726591 347.742457 
z
" clip-path="url(#p5839847831)" style="fill: #4c72b0; fill-opacity: 0.5; stroke: #ffffff; stroke-width: 0.422727; stroke-linejoin: miter"/>
   </g>
   <g id="patch_35">
    <path d="M 266.575455 365.22 
L 271.424318 365.22 
L 271.424318 346.414164 
L 266.575455 346.414164 
z
" clip-path="url(#p5839847831)" style="fill: #4c72b0; fill-opacity: 0.5; stroke: #ffffff; stroke-width: 0.422727; stroke-linejoin: miter"/>
   </g>
   <g id="patch_36">
    <path d="M 271.424318 365.22 
L 276.273182 365.22 
L 276.273182 343.617757 
L 271.424318 343.617757 
z
" clip-path="url(#p5839847831)" style="fill: #4c72b0; fill-opacity: 0.5; stroke: #ffffff; stroke-width: 0.422727; stroke-linejoin: miter"/>
   </g>
   <g id="patch_37">
    <path d="M 276.273182 365.22 
L 281.122045 365.22 
L 281.122045 341.170901 
L 276.273182 341.170901 
z
" clip-path="url(#p5839847831)" style="fill: #4c72b0; fill-opacity: 0.5; stroke: #ffffff; stroke-width: 0.422727; stroke-linejoin: miter"/>
   </g>
   <g id="patch_38">
    <path d="M 281.122045 365.22 
L 285.970909 365.22 
L 285.970909 339.562967 
L 281.122045 339.562967 
z
" clip-path="url(#p5839847831)" style="fill: #4c72b0; fill-opacity: 0.5; stroke: #ffffff; stroke-width: 0.422727; stroke-linejoin: miter"/>
   </g>
   <g id="patch_39">
    <path d="M 285.970909 365.22 
L 290.819773 365.22 
L 290.819773 337.0462 
L 285.970909 337.0462 
z
" clip-path="url(#p5839847831)" style="fill: #4c72b0; fill-opacity: 0.5; stroke: #ffffff; stroke-width: 0.422727; stroke-linejoin: miter"/>
   </g>
   <g id="patch_40">
    <path d="M 290.819773 365.22 
L 295.668636 365.22 
L 295.668636 334.249793 
L 290.819773 334.249793 
z
" clip-path="url(#p5839847831)" style="fill: #4c72b0; fill-opacity: 0.5; stroke: #ffffff; stroke-width: 0.422727; stroke-linejoin: miter"/>
   </g>
   <g id="patch_41">
    <path d="M 295.668636 365.22 
L 300.5175 365.22 
L 300.5175 329.845453 
L 295.668636 329.845453 
z
" clip-path="url(#p5839847831)" style="fill: #4c72b0; fill-opacity: 0.5; stroke: #ffffff; stroke-width: 0.422727; stroke-linejoin: miter"/>
   </g>
   <g id="patch_42">
    <path d="M 300.5175 365.22 
L 305.366364 365.22 
L 305.366364 323.833178 
L 300.5175 323.833178 
z
" clip-path="url(#p5839847831)" style="fill: #4c72b0; fill-opacity: 0.5; stroke: #ffffff; stroke-width: 0.422727; stroke-linejoin: miter"/>
   </g>
   <g id="patch_43">
    <path d="M 305.366364 365.22 
L 310.215227 365.22 
L 310.215227 322.015513 
L 305.366364 322.015513 
z
" clip-path="url(#p5839847831)" style="fill: #4c72b0; fill-opacity: 0.5; stroke: #ffffff; stroke-width: 0.422727; stroke-linejoin: miter"/>
   </g>
   <g id="patch_44">
    <path d="M 310.215227 365.22 
L 315.064091 365.22 
L 315.064091 317.750993 
L 310.215227 317.750993 
z
" clip-path="url(#p5839847831)" style="fill: #4c72b0; fill-opacity: 0.5; stroke: #ffffff; stroke-width: 0.422727; stroke-linejoin: miter"/>
   </g>
   <g id="patch_45">
    <path d="M 315.064091 365.22 
L 319.912955 365.22 
L 319.912955 313.486472 
L 315.064091 313.486472 
z
" clip-path="url(#p5839847831)" style="fill: #4c72b0; fill-opacity: 0.5; stroke: #ffffff; stroke-width: 0.422727; stroke-linejoin: miter"/>
   </g>
   <g id="patch_46">
    <path d="M 319.912955 365.22 
L 324.761818 365.22 
L 324.761818 308.033479 
L 319.912955 308.033479 
z
" clip-path="url(#p5839847831)" style="fill: #4c72b0; fill-opacity: 0.5; stroke: #ffffff; stroke-width: 0.422727; stroke-linejoin: miter"/>
   </g>
   <g id="patch_47">
    <path d="M 324.761818 365.22 
L 329.610682 365.22 
L 329.610682 301.461922 
L 324.761818 301.461922 
z
" clip-path="url(#p5839847831)" style="fill: #4c72b0; fill-opacity: 0.5; stroke: #ffffff; stroke-width: 0.422727; stroke-linejoin: miter"/>
   </g>
   <g id="patch_48">
    <path d="M 329.610682 365.22 
L 334.459545 365.22 
L 334.459545 297.686773 
L 329.610682 297.686773 
z
" clip-path="url(#p5839847831)" style="fill: #4c72b0; fill-opacity: 0.5; stroke: #ffffff; stroke-width: 0.422727; stroke-linejoin: miter"/>
   </g>
   <g id="patch_49">
    <path d="M 334.459545 365.22 
L 339.308409 365.22 
L 339.308409 291.744408 
L 334.459545 291.744408 
z
" clip-path="url(#p5839847831)" style="fill: #4c72b0; fill-opacity: 0.5; stroke: #ffffff; stroke-width: 0.422727; stroke-linejoin: miter"/>
   </g>
   <g id="patch_50">
    <path d="M 339.308409 365.22 
L 344.157273 365.22 
L 344.157273 286.571056 
L 339.308409 286.571056 
z
" clip-path="url(#p5839847831)" style="fill: #4c72b0; fill-opacity: 0.5; stroke: #ffffff; stroke-width: 0.422727; stroke-linejoin: miter"/>
   </g>
   <g id="patch_51">
    <path d="M 344.157273 365.22 
L 349.006136 365.22 
L 349.006136 281.467613 
L 344.157273 281.467613 
z
" clip-path="url(#p5839847831)" style="fill: #4c72b0; fill-opacity: 0.5; stroke: #ffffff; stroke-width: 0.422727; stroke-linejoin: miter"/>
   </g>
   <g id="patch_52">
    <path d="M 349.006136 365.22 
L 353.855 365.22 
L 353.855 277.482733 
L 349.006136 277.482733 
z
" clip-path="url(#p5839847831)" style="fill: #4c72b0; fill-opacity: 0.5; stroke: #ffffff; stroke-width: 0.422727; stroke-linejoin: miter"/>
   </g>
   <g id="patch_53">
    <path d="M 353.855 365.22 
L 358.703864 365.22 
L 358.703864 274.196955 
L 353.855 274.196955 
z
" clip-path="url(#p5839847831)" style="fill: #4c72b0; fill-opacity: 0.5; stroke: #ffffff; stroke-width: 0.422727; stroke-linejoin: miter"/>
   </g>
   <g id="patch_54">
    <path d="M 358.703864 365.22 
L 363.552727 365.22 
L 363.552727 264.759082 
L 358.703864 264.759082 
z
" clip-path="url(#p5839847831)" style="fill: #4c72b0; fill-opacity: 0.5; stroke: #ffffff; stroke-width: 0.422727; stroke-linejoin: miter"/>
   </g>
   <g id="patch_55">
    <path d="M 363.552727 365.22 
L 368.401591 365.22 
L 368.401591 259.86537 
L 363.552727 259.86537 
z
" clip-path="url(#p5839847831)" style="fill: #4c72b0; fill-opacity: 0.5; stroke: #ffffff; stroke-width: 0.422727; stroke-linejoin: miter"/>
   </g>
   <g id="patch_56">
    <path d="M 368.401591 365.22 
L 373.250455 365.22 
L 373.250455 251.336329 
L 368.401591 251.336329 
z
" clip-path="url(#p5839847831)" style="fill: #4c72b0; fill-opacity: 0.5; stroke: #ffffff; stroke-width: 0.422727; stroke-linejoin: miter"/>
   </g>
   <g id="patch_57">
    <path d="M 373.250455 365.22 
L 378.099318 365.22 
L 378.099318 241.898455 
L 373.250455 241.898455 
z
" clip-path="url(#p5839847831)" style="fill: #4c72b0; fill-opacity: 0.5; stroke: #ffffff; stroke-width: 0.422727; stroke-linejoin: miter"/>
   </g>
   <g id="patch_58">
    <path d="M 378.099318 365.22 
L 382.948182 365.22 
L 382.948182 242.527647 
L 378.099318 242.527647 
z
" clip-path="url(#p5839847831)" style="fill: #4c72b0; fill-opacity: 0.5; stroke: #ffffff; stroke-width: 0.422727; stroke-linejoin: miter"/>
   </g>
   <g id="patch_59">
    <path d="M 382.948182 365.22 
L 387.797045 365.22 
L 387.797045 238.123306 
L 382.948182 238.123306 
z
" clip-path="url(#p5839847831)" style="fill: #4c72b0; fill-opacity: 0.5; stroke: #ffffff; stroke-width: 0.422727; stroke-linejoin: miter"/>
   </g>
   <g id="patch_60">
    <path d="M 387.797045 365.22 
L 392.645909 365.22 
L 392.645909 228.825253 
L 387.797045 228.825253 
z
" clip-path="url(#p5839847831)" style="fill: #4c72b0; fill-opacity: 0.5; stroke: #ffffff; stroke-width: 0.422727; stroke-linejoin: miter"/>
   </g>
   <g id="patch_61">
    <path d="M 392.645909 365.22 
L 397.494773 365.22 
L 397.494773 226.658038 
L 392.645909 226.658038 
z
" clip-path="url(#p5839847831)" style="fill: #4c72b0; fill-opacity: 0.5; stroke: #ffffff; stroke-width: 0.422727; stroke-linejoin: miter"/>
   </g>
   <g id="patch_62">
    <path d="M 397.494773 365.22 
L 402.343636 365.22 
L 402.343636 227.7766 
L 397.494773 227.7766 
z
" clip-path="url(#p5839847831)" style="fill: #4c72b0; fill-opacity: 0.5; stroke: #ffffff; stroke-width: 0.422727; stroke-linejoin: miter"/>
   </g>
   <g id="patch_63">
    <path d="M 402.343636 365.22 
L 407.1925 365.22 
L 407.1925 219.946661 
L 402.343636 219.946661 
z
" clip-path="url(#p5839847831)" style="fill: #4c72b0; fill-opacity: 0.5; stroke: #ffffff; stroke-width: 0.422727; stroke-linejoin: miter"/>
   </g>
   <g id="patch_64">
    <path d="M 407.1925 365.22 
L 412.041364 365.22 
L 412.041364 217.220164 
L 407.1925 217.220164 
z
" clip-path="url(#p5839847831)" style="fill: #4c72b0; fill-opacity: 0.5; stroke: #ffffff; stroke-width: 0.422727; stroke-linejoin: miter"/>
   </g>
   <g id="patch_65">
    <path d="M 412.041364 365.22 
L 416.890227 365.22 
L 416.890227 215.4025 
L 412.041364 215.4025 
z
" clip-path="url(#p5839847831)" style="fill: #4c72b0; fill-opacity: 0.5; stroke: #ffffff; stroke-width: 0.422727; stroke-linejoin: miter"/>
   </g>
   <g id="patch_66">
    <path d="M 416.890227 365.22 
L 421.739091 365.22 
L 421.739091 208.900854 
L 416.890227 208.900854 
z
" clip-path="url(#p5839847831)" style="fill: #4c72b0; fill-opacity: 0.5; stroke: #ffffff; stroke-width: 0.422727; stroke-linejoin: miter"/>
   </g>
   <g id="patch_67">
    <path d="M 421.739091 365.22 
L 426.587955 365.22 
L 426.587955 210.928249 
L 421.739091 210.928249 
z
" clip-path="url(#p5839847831)" style="fill: #4c72b0; fill-opacity: 0.5; stroke: #ffffff; stroke-width: 0.422727; stroke-linejoin: miter"/>
   </g>
   <g id="patch_68">
    <path d="M 426.587955 365.22 
L 431.436818 365.22 
L 431.436818 206.873459 
L 426.587955 206.873459 
z
" clip-path="url(#p5839847831)" style="fill: #4c72b0; fill-opacity: 0.5; stroke: #ffffff; stroke-width: 0.422727; stroke-linejoin: miter"/>
   </g>
   <g id="patch_69">
    <path d="M 431.436818 365.22 
L 436.285682 365.22 
L 436.285682 205.545165 
L 431.436818 205.545165 
z
" clip-path="url(#p5839847831)" style="fill: #4c72b0; fill-opacity: 0.5; stroke: #ffffff; stroke-width: 0.422727; stroke-linejoin: miter"/>
   </g>
   <g id="patch_70">
    <path d="M 436.285682 365.22 
L 441.134545 365.22 
L 441.134545 200.791274 
L 436.285682 200.791274 
z
" clip-path="url(#p5839847831)" style="fill: #4c72b0; fill-opacity: 0.5; stroke: #ffffff; stroke-width: 0.422727; stroke-linejoin: miter"/>
   </g>
   <g id="patch_71">
    <path d="M 441.134545 365.22 
L 445.983409 365.22 
L 445.983409 205.265525 
L 441.134545 205.265525 
z
" clip-path="url(#p5839847831)" style="fill: #4c72b0; fill-opacity: 0.5; stroke: #ffffff; stroke-width: 0.422727; stroke-linejoin: miter"/>
   </g>
   <g id="patch_72">
    <path d="M 445.983409 365.22 
L 450.832273 365.22 
L 450.832273 203.16822 
L 445.983409 203.16822 
z
" clip-path="url(#p5839847831)" style="fill: #4c72b0; fill-opacity: 0.5; stroke: #ffffff; stroke-width: 0.422727; stroke-linejoin: miter"/>
   </g>
   <g id="patch_73">
    <path d="M 450.832273 365.22 
L 455.681136 365.22 
L 455.681136 207.57256 
L 450.832273 207.57256 
z
" clip-path="url(#p5839847831)" style="fill: #4c72b0; fill-opacity: 0.5; stroke: #ffffff; stroke-width: 0.422727; stroke-linejoin: miter"/>
   </g>
   <g id="patch_74">
    <path d="M 455.681136 365.22 
L 460.53 365.22 
L 460.53 207.712381 
L 455.681136 207.712381 
z
" clip-path="url(#p5839847831)" style="fill: #4c72b0; fill-opacity: 0.5; stroke: #ffffff; stroke-width: 0.422727; stroke-linejoin: miter"/>
   </g>
   <g id="patch_75">
    <path d="M 460.53 365.22 
L 465.378864 365.22 
L 465.378864 205.055794 
L 460.53 205.055794 
z
" clip-path="url(#p5839847831)" style="fill: #4c72b0; fill-opacity: 0.5; stroke: #ffffff; stroke-width: 0.422727; stroke-linejoin: miter"/>
   </g>
   <g id="patch_76">
    <path d="M 465.378864 365.22 
L 470.227727 365.22 
L 470.227727 208.761033 
L 465.378864 208.761033 
z
" clip-path="url(#p5839847831)" style="fill: #4c72b0; fill-opacity: 0.5; stroke: #ffffff; stroke-width: 0.422727; stroke-linejoin: miter"/>
   </g>
   <g id="patch_77">
    <path d="M 470.227727 365.22 
L 475.076591 365.22 
L 475.076591 217.290075 
L 470.227727 217.290075 
z
" clip-path="url(#p5839847831)" style="fill: #4c72b0; fill-opacity: 0.5; stroke: #ffffff; stroke-width: 0.422727; stroke-linejoin: miter"/>
   </g>
   <g id="patch_78">
    <path d="M 475.076591 365.22 
L 479.925455 365.22 
L 479.925455 211.906991 
L 475.076591 211.906991 
z
" clip-path="url(#p5839847831)" style="fill: #4c72b0; fill-opacity: 0.5; stroke: #ffffff; stroke-width: 0.422727; stroke-linejoin: miter"/>
   </g>
   <g id="patch_79">
    <path d="M 479.925455 365.22 
L 484.774318 365.22 
L 484.774318 218.128997 
L 479.925455 218.128997 
z
" clip-path="url(#p5839847831)" style="fill: #4c72b0; fill-opacity: 0.5; stroke: #ffffff; stroke-width: 0.422727; stroke-linejoin: miter"/>
   </g>
   <g id="patch_80">
    <path d="M 484.774318 365.22 
L 489.623182 365.22 
L 489.623182 228.615522 
L 484.774318 228.615522 
z
" clip-path="url(#p5839847831)" style="fill: #4c72b0; fill-opacity: 0.5; stroke: #ffffff; stroke-width: 0.422727; stroke-linejoin: miter"/>
   </g>
   <g id="patch_81">
    <path d="M 489.623182 365.22 
L 494.472045 365.22 
L 494.472045 227.007589 
L 489.623182 227.007589 
z
" clip-path="url(#p5839847831)" style="fill: #4c72b0; fill-opacity: 0.5; stroke: #ffffff; stroke-width: 0.422727; stroke-linejoin: miter"/>
   </g>
   <g id="patch_82">
    <path d="M 494.472045 365.22 
L 499.320909 365.22 
L 499.320909 237.424204 
L 494.472045 237.424204 
z
" clip-path="url(#p5839847831)" style="fill: #4c72b0; fill-opacity: 0.5; stroke: #ffffff; stroke-width: 0.422727; stroke-linejoin: miter"/>
   </g>
   <g id="patch_83">
    <path d="M 499.320909 365.22 
L 504.169773 365.22 
L 504.169773 237.633935 
L 499.320909 237.633935 
z
" clip-path="url(#p5839847831)" style="fill: #4c72b0; fill-opacity: 0.5; stroke: #ffffff; stroke-width: 0.422727; stroke-linejoin: miter"/>
   </g>
   <g id="patch_84">
    <path d="M 504.169773 365.22 
L 509.018636 365.22 
L 509.018636 247.84082 
L 504.169773 247.84082 
z
" clip-path="url(#p5839847831)" style="fill: #4c72b0; fill-opacity: 0.5; stroke: #ffffff; stroke-width: 0.422727; stroke-linejoin: miter"/>
   </g>
   <g id="patch_85">
    <path d="M 509.018636 365.22 
L 513.8675 365.22 
L 513.8675 251.75579 
L 509.018636 251.75579 
z
" clip-path="url(#p5839847831)" style="fill: #4c72b0; fill-opacity: 0.5; stroke: #ffffff; stroke-width: 0.422727; stroke-linejoin: miter"/>
   </g>
   <g id="patch_86">
    <path d="M 513.8675 365.22 
L 518.716364 365.22 
L 518.716364 256.02031 
L 513.8675 256.02031 
z
" clip-path="url(#p5839847831)" style="fill: #4c72b0; fill-opacity: 0.5; stroke: #ffffff; stroke-width: 0.422727; stroke-linejoin: miter"/>
   </g>
   <g id="patch_87">
    <path d="M 518.716364 365.22 
L 523.565227 365.22 
L 523.565227 260.00519 
L 518.716364 260.00519 
z
" clip-path="url(#p5839847831)" style="fill: #4c72b0; fill-opacity: 0.5; stroke: #ffffff; stroke-width: 0.422727; stroke-linejoin: miter"/>
   </g>
   <g id="patch_88">
    <path d="M 523.565227 365.22 
L 528.414091 365.22 
L 528.414091 262.521956 
L 523.565227 262.521956 
z
" clip-path="url(#p5839847831)" style="fill: #4c72b0; fill-opacity: 0.5; stroke: #ffffff; stroke-width: 0.422727; stroke-linejoin: miter"/>
   </g>
   <g id="patch_89">
    <path d="M 528.414091 365.22 
L 533.262955 365.22 
L 533.262955 275.944709 
L 528.414091 275.944709 
z
" clip-path="url(#p5839847831)" style="fill: #4c72b0; fill-opacity: 0.5; stroke: #ffffff; stroke-width: 0.422727; stroke-linejoin: miter"/>
   </g>
   <g id="patch_90">
    <path d="M 533.262955 365.22 
L 538.111818 365.22 
L 538.111818 280.558781 
L 533.262955 280.558781 
z
" clip-path="url(#p5839847831)" style="fill: #4c72b0; fill-opacity: 0.5; stroke: #ffffff; stroke-width: 0.422727; stroke-linejoin: miter"/>
   </g>
   <g id="patch_91">
    <path d="M 538.111818 365.22 
L 542.960682 365.22 
L 542.960682 279.370308 
L 538.111818 279.370308 
z
" clip-path="url(#p5839847831)" style="fill: #4c72b0; fill-opacity: 0.5; stroke: #ffffff; stroke-width: 0.422727; stroke-linejoin: miter"/>
   </g>
   <g id="patch_92">
    <path d="M 542.960682 365.22 
L 547.809545 365.22 
L 547.809545 292.44351 
L 542.960682 292.44351 
z
" clip-path="url(#p5839847831)" style="fill: #4c72b0; fill-opacity: 0.5; stroke: #ffffff; stroke-width: 0.422727; stroke-linejoin: miter"/>
   </g>
   <g id="patch_93">
    <path d="M 547.809545 365.22 
L 552.658409 365.22 
L 552.658409 294.540815 
L 547.809545 294.540815 
z
" clip-path="url(#p5839847831)" style="fill: #4c72b0; fill-opacity: 0.5; stroke: #ffffff; stroke-width: 0.422727; stroke-linejoin: miter"/>
   </g>
   <g id="patch_94">
    <path d="M 552.658409 365.22 
L 557.507273 365.22 
L 557.507273 300.41327 
L 552.658409 300.41327 
z
" clip-path="url(#p5839847831)" style="fill: #4c72b0; fill-opacity: 0.5; stroke: #ffffff; stroke-width: 0.422727; stroke-linejoin: miter"/>
   </g>
   <g id="patch_95">
    <path d="M 557.507273 365.22 
L 562.356136 365.22 
L 562.356136 303.279587 
L 557.507273 303.279587 
z
" clip-path="url(#p5839847831)" style="fill: #4c72b0; fill-opacity: 0.5; stroke: #ffffff; stroke-width: 0.422727; stroke-linejoin: miter"/>
   </g>
   <g id="patch_96">
    <path d="M 562.356136 365.22 
L 567.205 365.22 
L 567.205 309.012221 
L 562.356136 309.012221 
z
" clip-path="url(#p5839847831)" style="fill: #4c72b0; fill-opacity: 0.5; stroke: #ffffff; stroke-width: 0.422727; stroke-linejoin: miter"/>
   </g>
   <g id="patch_97">
    <path d="M 567.205 365.22 
L 572.053864 365.22 
L 572.053864 314.045754 
L 567.205 314.045754 
z
" clip-path="url(#p5839847831)" style="fill: #4c72b0; fill-opacity: 0.5; stroke: #ffffff; stroke-width: 0.422727; stroke-linejoin: miter"/>
   </g>
   <g id="patch_98">
    <path d="M 572.053864 365.22 
L 576.902727 365.22 
L 576.902727 317.681083 
L 572.053864 317.681083 
z
" clip-path="url(#p5839847831)" style="fill: #4c72b0; fill-opacity: 0.5; stroke: #ffffff; stroke-width: 0.422727; stroke-linejoin: miter"/>
   </g>
   <g id="patch_99">
    <path d="M 576.902727 365.22 
L 581.751591 365.22 
L 581.751591 325.301291 
L 576.902727 325.301291 
z
" clip-path="url(#p5839847831)" style="fill: #4c72b0; fill-opacity: 0.5; stroke: #ffffff; stroke-width: 0.422727; stroke-linejoin: miter"/>
   </g>
   <g id="patch_100">
    <path d="M 581.751591 365.22 
L 586.600455 365.22 
L 586.600455 324.60219 
L 581.751591 324.60219 
z
" clip-path="url(#p5839847831)" style="fill: #4c72b0; fill-opacity: 0.5; stroke: #ffffff; stroke-width: 0.422727; stroke-linejoin: miter"/>
   </g>
   <g id="patch_101">
    <path d="M 586.600455 365.22 
L 591.449318 365.22 
L 591.449318 331.383476 
L 586.600455 331.383476 
z
" clip-path="url(#p5839847831)" style="fill: #4c72b0; fill-opacity: 0.5; stroke: #ffffff; stroke-width: 0.422727; stroke-linejoin: miter"/>
   </g>
   <g id="patch_102">
    <path d="M 591.449318 365.22 
L 596.298182 365.22 
L 596.298182 333.900243 
L 591.449318 333.900243 
z
" clip-path="url(#p5839847831)" style="fill: #4c72b0; fill-opacity: 0.5; stroke: #ffffff; stroke-width: 0.422727; stroke-linejoin: miter"/>
   </g>
   <g id="patch_103">
    <path d="M 596.298182 365.22 
L 601.147045 365.22 
L 601.147045 334.529434 
L 596.298182 334.529434 
z
" clip-path="url(#p5839847831)" style="fill: #4c72b0; fill-opacity: 0.5; stroke: #ffffff; stroke-width: 0.422727; stroke-linejoin: miter"/>
   </g>
   <g id="patch_104">
    <path d="M 601.147045 365.22 
L 605.995909 365.22 
L 605.995909 341.660272 
L 601.147045 341.660272 
z
" clip-path="url(#p5839847831)" style="fill: #4c72b0; fill-opacity: 0.5; stroke: #ffffff; stroke-width: 0.422727; stroke-linejoin: miter"/>
   </g>
   <g id="patch_105">
    <path d="M 605.995909 365.22 
L 610.844773 365.22 
L 610.844773 342.009823 
L 605.995909 342.009823 
z
" clip-path="url(#p5839847831)" style="fill: #4c72b0; fill-opacity: 0.5; stroke: #ffffff; stroke-width: 0.422727; stroke-linejoin: miter"/>
   </g>
   <g id="patch_106">
    <path d="M 610.844773 365.22 
L 615.693636 365.22 
L 615.693636 344.177038 
L 610.844773 344.177038 
z
" clip-path="url(#p5839847831)" style="fill: #4c72b0; fill-opacity: 0.5; stroke: #ffffff; stroke-width: 0.422727; stroke-linejoin: miter"/>
   </g>
   <g id="patch_107">
    <path d="M 615.693636 365.22 
L 620.5425 365.22 
L 620.5425 347.113265 
L 615.693636 347.113265 
z
" clip-path="url(#p5839847831)" style="fill: #4c72b0; fill-opacity: 0.5; stroke: #ffffff; stroke-width: 0.422727; stroke-linejoin: miter"/>
   </g>
   <g id="patch_108">
    <path d="M 620.5425 365.22 
L 625.391364 365.22 
L 625.391364 348.651289 
L 620.5425 348.651289 
z
" clip-path="url(#p5839847831)" style="fill: #4c72b0; fill-opacity: 0.5; stroke: #ffffff; stroke-width: 0.422727; stroke-linejoin: miter"/>
   </g>
   <g id="patch_109">
    <path d="M 625.391364 365.22 
L 630.240227 365.22 
L 630.240227 350.678684 
L 625.391364 350.678684 
z
" clip-path="url(#p5839847831)" style="fill: #4c72b0; fill-opacity: 0.5; stroke: #ffffff; stroke-width: 0.422727; stroke-linejoin: miter"/>
   </g>
   <g id="patch_110">
    <path d="M 630.240227 365.22 
L 635.089091 365.22 
L 635.089091 351.657426 
L 630.240227 351.657426 
z
" clip-path="url(#p5839847831)" style="fill: #4c72b0; fill-opacity: 0.5; stroke: #ffffff; stroke-width: 0.422727; stroke-linejoin: miter"/>
   </g>
   <g id="patch_111">
    <path d="M 635.089091 365.22 
L 639.937955 365.22 
L 639.937955 353.894552 
L 635.089091 353.894552 
z
" clip-path="url(#p5839847831)" style="fill: #4c72b0; fill-opacity: 0.5; stroke: #ffffff; stroke-width: 0.422727; stroke-linejoin: miter"/>
   </g>
   <g id="patch_112">
    <path d="M 639.937955 365.22 
L 644.786818 365.22 
L 644.786818 354.104283 
L 639.937955 354.104283 
z
" clip-path="url(#p5839847831)" style="fill: #4c72b0; fill-opacity: 0.5; stroke: #ffffff; stroke-width: 0.422727; stroke-linejoin: miter"/>
   </g>
   <g id="patch_113">
    <path d="M 644.786818 365.22 
L 649.635682 365.22 
L 649.635682 357.32015 
L 644.786818 357.32015 
z
" clip-path="url(#p5839847831)" style="fill: #4c72b0; fill-opacity: 0.5; stroke: #ffffff; stroke-width: 0.422727; stroke-linejoin: miter"/>
   </g>
   <g id="patch_114">
    <path d="M 649.635682 365.22 
L 654.484545 365.22 
L 654.484545 357.390061 
L 649.635682 357.390061 
z
" clip-path="url(#p5839847831)" style="fill: #4c72b0; fill-opacity: 0.5; stroke: #ffffff; stroke-width: 0.422727; stroke-linejoin: miter"/>
   </g>
   <g id="patch_115">
    <path d="M 654.484545 365.22 
L 659.333409 365.22 
L 659.333409 358.858174 
L 654.484545 358.858174 
z
" clip-path="url(#p5839847831)" style="fill: #4c72b0; fill-opacity: 0.5; stroke: #ffffff; stroke-width: 0.422727; stroke-linejoin: miter"/>
   </g>
   <g id="patch_116">
    <path d="M 659.333409 365.22 
L 664.182273 365.22 
L 664.182273 359.767007 
L 659.333409 359.767007 
z
" clip-path="url(#p5839847831)" style="fill: #4c72b0; fill-opacity: 0.5; stroke: #ffffff; stroke-width: 0.422727; stroke-linejoin: miter"/>
   </g>
   <g id="patch_117">
    <path d="M 664.182273 365.22 
L 669.031136 365.22 
L 669.031136 359.347545 
L 664.182273 359.347545 
z
" clip-path="url(#p5839847831)" style="fill: #4c72b0; fill-opacity: 0.5; stroke: #ffffff; stroke-width: 0.422727; stroke-linejoin: miter"/>
   </g>
   <g id="patch_118">
    <path d="M 669.031136 365.22 
L 673.88 365.22 
L 673.88 360.885569 
L 669.031136 360.885569 
z
" clip-path="url(#p5839847831)" style="fill: #4c72b0; fill-opacity: 0.5; stroke: #ffffff; stroke-width: 0.422727; stroke-linejoin: miter"/>
   </g>
   <g id="patch_119">
    <path d="M 673.88 365.22 
L 678.728864 365.22 
L 678.728864 361.794402 
L 673.88 361.794402 
z
" clip-path="url(#p5839847831)" style="fill: #4c72b0; fill-opacity: 0.5; stroke: #ffffff; stroke-width: 0.422727; stroke-linejoin: miter"/>
   </g>
   <g id="patch_120">
    <path d="M 678.728864 365.22 
L 683.577727 365.22 
L 683.577727 361.654581 
L 678.728864 361.654581 
z
" clip-path="url(#p5839847831)" style="fill: #4c72b0; fill-opacity: 0.5; stroke: #ffffff; stroke-width: 0.422727; stroke-linejoin: miter"/>
   </g>
   <g id="patch_121">
    <path d="M 683.577727 365.22 
L 688.426591 365.22 
L 688.426591 362.703234 
L 683.577727 362.703234 
z
" clip-path="url(#p5839847831)" style="fill: #4c72b0; fill-opacity: 0.5; stroke: #ffffff; stroke-width: 0.422727; stroke-linejoin: miter"/>
   </g>
   <g id="patch_122">
    <path d="M 688.426591 365.22 
L 693.275455 365.22 
L 693.275455 363.052785 
L 688.426591 363.052785 
z
" clip-path="url(#p5839847831)" style="fill: #4c72b0; fill-opacity: 0.5; stroke: #ffffff; stroke-width: 0.422727; stroke-linejoin: miter"/>
   </g>
   <g id="patch_123">
    <path d="M 693.275455 365.22 
L 698.124318 365.22 
L 698.124318 363.402336 
L 693.275455 363.402336 
z
" clip-path="url(#p5839847831)" style="fill: #4c72b0; fill-opacity: 0.5; stroke: #ffffff; stroke-width: 0.422727; stroke-linejoin: miter"/>
   </g>
   <g id="patch_124">
    <path d="M 698.124318 365.22 
L 702.973182 365.22 
L 702.973182 363.612066 
L 698.124318 363.612066 
z
" clip-path="url(#p5839847831)" style="fill: #4c72b0; fill-opacity: 0.5; stroke: #ffffff; stroke-width: 0.422727; stroke-linejoin: miter"/>
   </g>
   <g id="patch_125">
    <path d="M 702.973182 365.22 
L 707.822045 365.22 
L 707.822045 364.450988 
L 702.973182 364.450988 
z
" clip-path="url(#p5839847831)" style="fill: #4c72b0; fill-opacity: 0.5; stroke: #ffffff; stroke-width: 0.422727; stroke-linejoin: miter"/>
   </g>
   <g id="patch_126">
    <path d="M 707.822045 365.22 
L 712.670909 365.22 
L 712.670909 364.241258 
L 707.822045 364.241258 
z
" clip-path="url(#p5839847831)" style="fill: #4c72b0; fill-opacity: 0.5; stroke: #ffffff; stroke-width: 0.422727; stroke-linejoin: miter"/>
   </g>
   <g id="patch_127">
    <path d="M 712.670909 365.22 
L 717.519773 365.22 
L 717.519773 364.381078 
L 712.670909 364.381078 
z
" clip-path="url(#p5839847831)" style="fill: #4c72b0; fill-opacity: 0.5; stroke: #ffffff; stroke-width: 0.422727; stroke-linejoin: miter"/>
   </g>
   <g id="patch_128">
    <path d="M 717.519773 365.22 
L 722.368636 365.22 
L 722.368636 364.800539 
L 717.519773 364.800539 
z
" clip-path="url(#p5839847831)" style="fill: #4c72b0; fill-opacity: 0.5; stroke: #ffffff; stroke-width: 0.422727; stroke-linejoin: miter"/>
   </g>
   <g id="patch_129">
    <path d="M 722.368636 365.22 
L 727.2175 365.22 
L 727.2175 364.870449 
L 722.368636 364.870449 
z
" clip-path="url(#p5839847831)" style="fill: #4c72b0; fill-opacity: 0.5; stroke: #ffffff; stroke-width: 0.422727; stroke-linejoin: miter"/>
   </g>
   <g id="patch_130">
    <path d="M 727.2175 365.22 
L 732.066364 365.22 
L 732.066364 364.730629 
L 727.2175 364.730629 
z
" clip-path="url(#p5839847831)" style="fill: #4c72b0; fill-opacity: 0.5; stroke: #ffffff; stroke-width: 0.422727; stroke-linejoin: miter"/>
   </g>
   <g id="patch_131">
    <path d="M 732.066364 365.22 
L 736.915227 365.22 
L 736.915227 364.590808 
L 732.066364 364.590808 
z
" clip-path="url(#p5839847831)" style="fill: #4c72b0; fill-opacity: 0.5; stroke: #ffffff; stroke-width: 0.422727; stroke-linejoin: miter"/>
   </g>
   <g id="patch_132">
    <path d="M 736.915227 365.22 
L 741.764091 365.22 
L 741.764091 365.08018 
L 736.915227 365.08018 
z
" clip-path="url(#p5839847831)" style="fill: #4c72b0; fill-opacity: 0.5; stroke: #ffffff; stroke-width: 0.422727; stroke-linejoin: miter"/>
   </g>
   <g id="patch_133">
    <path d="M 741.764091 365.22 
L 746.612955 365.22 
L 746.612955 365.08018 
L 741.764091 365.08018 
z
" clip-path="url(#p5839847831)" style="fill: #4c72b0; fill-opacity: 0.5; stroke: #ffffff; stroke-width: 0.422727; stroke-linejoin: miter"/>
   </g>
   <g id="patch_134">
    <path d="M 746.612955 365.22 
L 751.461818 365.22 
L 751.461818 365.08018 
L 746.612955 365.08018 
z
" clip-path="url(#p5839847831)" style="fill: #4c72b0; fill-opacity: 0.5; stroke: #ffffff; stroke-width: 0.422727; stroke-linejoin: miter"/>
   </g>
   <g id="patch_135">
    <path d="M 751.461818 365.22 
L 756.310682 365.22 
L 756.310682 364.940359 
L 751.461818 364.940359 
z
" clip-path="url(#p5839847831)" style="fill: #4c72b0; fill-opacity: 0.5; stroke: #ffffff; stroke-width: 0.422727; stroke-linejoin: miter"/>
   </g>
   <g id="patch_136">
    <path d="M 756.310682 365.22 
L 761.159545 365.22 
L 761.159545 365.010269 
L 756.310682 365.010269 
z
" clip-path="url(#p5839847831)" style="fill: #4c72b0; fill-opacity: 0.5; stroke: #ffffff; stroke-width: 0.422727; stroke-linejoin: miter"/>
   </g>
   <g id="patch_137">
    <path d="M 761.159545 365.22 
L 766.008409 365.22 
L 766.008409 365.22 
L 761.159545 365.22 
z
" clip-path="url(#p5839847831)" style="fill: #4c72b0; fill-opacity: 0.5; stroke: #ffffff; stroke-width: 0.422727; stroke-linejoin: miter"/>
   </g>
   <g id="patch_138">
    <path d="M 766.008409 365.22 
L 770.857273 365.22 
L 770.857273 365.15009 
L 766.008409 365.15009 
z
" clip-path="url(#p5839847831)" style="fill: #4c72b0; fill-opacity: 0.5; stroke: #ffffff; stroke-width: 0.422727; stroke-linejoin: miter"/>
   </g>
   <g id="patch_139">
    <path d="M 770.857273 365.22 
L 775.706136 365.22 
L 775.706136 365.010269 
L 770.857273 365.010269 
z
" clip-path="url(#p5839847831)" style="fill: #4c72b0; fill-opacity: 0.5; stroke: #ffffff; stroke-width: 0.422727; stroke-linejoin: miter"/>
   </g>
   <g id="patch_140">
    <path d="M 775.706136 365.22 
L 780.555 365.22 
L 780.555 365.15009 
L 775.706136 365.15009 
z
" clip-path="url(#p5839847831)" style="fill: #4c72b0; fill-opacity: 0.5; stroke: #ffffff; stroke-width: 0.422727; stroke-linejoin: miter"/>
   </g>
   <g id="patch_141">
    <path d="M 780.555 365.22 
L 785.403864 365.22 
L 785.403864 365.22 
L 780.555 365.22 
z
" clip-path="url(#p5839847831)" style="fill: #4c72b0; fill-opacity: 0.5; stroke: #ffffff; stroke-width: 0.422727; stroke-linejoin: miter"/>
   </g>
   <g id="patch_142">
    <path d="M 785.403864 365.22 
L 790.252727 365.22 
L 790.252727 365.08018 
L 785.403864 365.08018 
z
" clip-path="url(#p5839847831)" style="fill: #4c72b0; fill-opacity: 0.5; stroke: #ffffff; stroke-width: 0.422727; stroke-linejoin: miter"/>
   </g>
   <g id="patch_143">
    <path d="M 790.252727 365.22 
L 795.101591 365.22 
L 795.101591 365.22 
L 790.252727 365.22 
z
" clip-path="url(#p5839847831)" style="fill: #4c72b0; fill-opacity: 0.5; stroke: #ffffff; stroke-width: 0.422727; stroke-linejoin: miter"/>
   </g>
   <g id="patch_144">
    <path d="M 795.101591 365.22 
L 799.950455 365.22 
L 799.950455 365.22 
L 795.101591 365.22 
z
" clip-path="url(#p5839847831)" style="fill: #4c72b0; fill-opacity: 0.5; stroke: #ffffff; stroke-width: 0.422727; stroke-linejoin: miter"/>
   </g>
   <g id="patch_145">
    <path d="M 799.950455 365.22 
L 804.799318 365.22 
L 804.799318 365.15009 
L 799.950455 365.15009 
z
" clip-path="url(#p5839847831)" style="fill: #4c72b0; fill-opacity: 0.5; stroke: #ffffff; stroke-width: 0.422727; stroke-linejoin: miter"/>
   </g>
   <g id="patch_146">
    <path d="M 804.799318 365.22 
L 809.648182 365.22 
L 809.648182 365.15009 
L 804.799318 365.15009 
z
" clip-path="url(#p5839847831)" style="fill: #4c72b0; fill-opacity: 0.5; stroke: #ffffff; stroke-width: 0.422727; stroke-linejoin: miter"/>
   </g>
   <g id="patch_147">
    <path d="M 359.539427 365.22 
L 363.727021 365.22 
L 363.727021 87.157485 
L 359.539427 87.157485 
z
" clip-path="url(#p5839847831)" style="fill: #dd8452; fill-opacity: 0.5; stroke: #ffffff; stroke-width: 0.365077; stroke-linejoin: miter"/>
   </g>
   <g id="patch_148">
    <path d="M 363.727021 365.22 
L 367.914616 365.22 
L 367.914616 68.134286 
L 363.727021 68.134286 
z
" clip-path="url(#p5839847831)" style="fill: #dd8452; fill-opacity: 0.5; stroke: #ffffff; stroke-width: 0.365077; stroke-linejoin: miter"/>
   </g>
   <g id="patch_149">
    <path d="M 367.914616 365.22 
L 372.102211 365.22 
L 372.102211 86.995586 
L 367.914616 86.995586 
z
" clip-path="url(#p5839847831)" style="fill: #dd8452; fill-opacity: 0.5; stroke: #ffffff; stroke-width: 0.365077; stroke-linejoin: miter"/>
   </g>
   <g id="patch_150">
    <path d="M 372.102211 365.22 
L 376.289806 365.22 
L 376.289806 107.233032 
L 372.102211 107.233032 
z
" clip-path="url(#p5839847831)" style="fill: #dd8452; fill-opacity: 0.5; stroke: #ffffff; stroke-width: 0.365077; stroke-linejoin: miter"/>
   </g>
   <g id="patch_151">
    <path d="M 376.289806 365.22 
L 380.4774 365.22 
L 380.4774 133.379813 
L 376.289806 133.379813 
z
" clip-path="url(#p5839847831)" style="fill: #dd8452; fill-opacity: 0.5; stroke: #ffffff; stroke-width: 0.365077; stroke-linejoin: miter"/>
   </g>
   <g id="patch_152">
    <path d="M 380.4774 365.22 
L 384.664995 365.22 
L 384.664995 140.503394 
L 380.4774 140.503394 
z
" clip-path="url(#p5839847831)" style="fill: #dd8452; fill-opacity: 0.5; stroke: #ffffff; stroke-width: 0.365077; stroke-linejoin: miter"/>
   </g>
   <g id="patch_153">
    <path d="M 384.664995 365.22 
L 388.85259 365.22 
L 388.85259 144.550884 
L 384.664995 144.550884 
z
" clip-path="url(#p5839847831)" style="fill: #dd8452; fill-opacity: 0.5; stroke: #ffffff; stroke-width: 0.365077; stroke-linejoin: miter"/>
   </g>
   <g id="patch_154">
    <path d="M 388.85259 365.22 
L 393.040184 365.22 
L 393.040184 160.336092 
L 388.85259 160.336092 
z
" clip-path="url(#p5839847831)" style="fill: #dd8452; fill-opacity: 0.5; stroke: #ffffff; stroke-width: 0.365077; stroke-linejoin: miter"/>
   </g>
   <g id="patch_155">
    <path d="M 393.040184 365.22 
L 397.227779 365.22 
L 397.227779 167.216824 
L 393.040184 167.216824 
z
" clip-path="url(#p5839847831)" style="fill: #dd8452; fill-opacity: 0.5; stroke: #ffffff; stroke-width: 0.365077; stroke-linejoin: miter"/>
   </g>
   <g id="patch_156">
    <path d="M 397.227779 365.22 
L 401.415374 365.22 
L 401.415374 173.773756 
L 397.227779 173.773756 
z
" clip-path="url(#p5839847831)" style="fill: #dd8452; fill-opacity: 0.5; stroke: #ffffff; stroke-width: 0.365077; stroke-linejoin: miter"/>
   </g>
   <g id="patch_157">
    <path d="M 401.415374 365.22 
L 405.602968 365.22 
L 405.602968 186.401923 
L 401.415374 186.401923 
z
" clip-path="url(#p5839847831)" style="fill: #dd8452; fill-opacity: 0.5; stroke: #ffffff; stroke-width: 0.365077; stroke-linejoin: miter"/>
   </g>
   <g id="patch_158">
    <path d="M 405.602968 365.22 
L 409.790563 365.22 
L 409.790563 185.754325 
L 405.602968 185.754325 
z
" clip-path="url(#p5839847831)" style="fill: #dd8452; fill-opacity: 0.5; stroke: #ffffff; stroke-width: 0.365077; stroke-linejoin: miter"/>
   </g>
   <g id="patch_159">
    <path d="M 409.790563 365.22 
L 413.978158 365.22 
L 413.978158 194.173102 
L 409.790563 194.173102 
z
" clip-path="url(#p5839847831)" style="fill: #dd8452; fill-opacity: 0.5; stroke: #ffffff; stroke-width: 0.365077; stroke-linejoin: miter"/>
   </g>
   <g id="patch_160">
    <path d="M 413.978158 365.22 
L 418.165753 365.22 
L 418.165753 196.358747 
L 413.978158 196.358747 
z
" clip-path="url(#p5839847831)" style="fill: #dd8452; fill-opacity: 0.5; stroke: #ffffff; stroke-width: 0.365077; stroke-linejoin: miter"/>
   </g>
   <g id="patch_161">
    <path d="M 418.165753 365.22 
L 422.353347 365.22 
L 422.353347 197.006345 
L 418.165753 197.006345 
z
" clip-path="url(#p5839847831)" style="fill: #dd8452; fill-opacity: 0.5; stroke: #ffffff; stroke-width: 0.365077; stroke-linejoin: miter"/>
   </g>
   <g id="patch_162">
    <path d="M 422.353347 365.22 
L 426.540942 365.22 
L 426.540942 202.67283 
L 422.353347 202.67283 
z
" clip-path="url(#p5839847831)" style="fill: #dd8452; fill-opacity: 0.5; stroke: #ffffff; stroke-width: 0.365077; stroke-linejoin: miter"/>
   </g>
   <g id="patch_163">
    <path d="M 426.540942 365.22 
L 430.728537 365.22 
L 430.728537 202.67283 
L 426.540942 202.67283 
z
" clip-path="url(#p5839847831)" style="fill: #dd8452; fill-opacity: 0.5; stroke: #ffffff; stroke-width: 0.365077; stroke-linejoin: miter"/>
   </g>
   <g id="patch_164">
    <path d="M 430.728537 365.22 
L 434.916131 365.22 
L 434.916131 201.296684 
L 430.728537 201.296684 
z
" clip-path="url(#p5839847831)" style="fill: #dd8452; fill-opacity: 0.5; stroke: #ffffff; stroke-width: 0.365077; stroke-linejoin: miter"/>
   </g>
   <g id="patch_165">
    <path d="M 434.916131 365.22 
L 439.103726 365.22 
L 439.103726 202.349031 
L 434.916131 202.349031 
z
" clip-path="url(#p5839847831)" style="fill: #dd8452; fill-opacity: 0.5; stroke: #ffffff; stroke-width: 0.365077; stroke-linejoin: miter"/>
   </g>
   <g id="patch_166">
    <path d="M 439.103726 365.22 
L 443.291321 365.22 
L 443.291321 203.887077 
L 439.103726 203.887077 
z
" clip-path="url(#p5839847831)" style="fill: #dd8452; fill-opacity: 0.5; stroke: #ffffff; stroke-width: 0.365077; stroke-linejoin: miter"/>
   </g>
   <g id="patch_167">
    <path d="M 443.291321 365.22 
L 447.478915 365.22 
L 447.478915 203.077579 
L 443.291321 203.077579 
z
" clip-path="url(#p5839847831)" style="fill: #dd8452; fill-opacity: 0.5; stroke: #ffffff; stroke-width: 0.365077; stroke-linejoin: miter"/>
   </g>
   <g id="patch_168">
    <path d="M 447.478915 365.22 
L 451.66651 365.22 
L 451.66651 202.67283 
L 447.478915 202.67283 
z
" clip-path="url(#p5839847831)" style="fill: #dd8452; fill-opacity: 0.5; stroke: #ffffff; stroke-width: 0.365077; stroke-linejoin: miter"/>
   </g>
   <g id="patch_169">
    <path d="M 451.66651 365.22 
L 455.854105 365.22 
L 455.854105 207.448867 
L 451.66651 207.448867 
z
" clip-path="url(#p5839847831)" style="fill: #dd8452; fill-opacity: 0.5; stroke: #ffffff; stroke-width: 0.365077; stroke-linejoin: miter"/>
   </g>
   <g id="patch_170">
    <path d="M 455.854105 365.22 
L 460.0417 365.22 
L 460.0417 201.944282 
L 455.854105 201.944282 
z
" clip-path="url(#p5839847831)" style="fill: #dd8452; fill-opacity: 0.5; stroke: #ffffff; stroke-width: 0.365077; stroke-linejoin: miter"/>
   </g>
   <g id="patch_171">
    <path d="M 460.0417 365.22 
L 464.229294 365.22 
L 464.229294 197.572993 
L 460.0417 197.572993 
z
" clip-path="url(#p5839847831)" style="fill: #dd8452; fill-opacity: 0.5; stroke: #ffffff; stroke-width: 0.365077; stroke-linejoin: miter"/>
   </g>
   <g id="patch_172">
    <path d="M 464.229294 365.22 
L 468.416889 365.22 
L 468.416889 193.525504 
L 464.229294 193.525504 
z
" clip-path="url(#p5839847831)" style="fill: #dd8452; fill-opacity: 0.5; stroke: #ffffff; stroke-width: 0.365077; stroke-linejoin: miter"/>
   </g>
   <g id="patch_173">
    <path d="M 468.416889 365.22 
L 472.604484 365.22 
L 472.604484 198.94914 
L 468.416889 198.94914 
z
" clip-path="url(#p5839847831)" style="fill: #dd8452; fill-opacity: 0.5; stroke: #ffffff; stroke-width: 0.365077; stroke-linejoin: miter"/>
   </g>
   <g id="patch_174">
    <path d="M 472.604484 365.22 
L 476.792078 365.22 
L 476.792078 186.563822 
L 472.604484 186.563822 
z
" clip-path="url(#p5839847831)" style="fill: #dd8452; fill-opacity: 0.5; stroke: #ffffff; stroke-width: 0.365077; stroke-linejoin: miter"/>
   </g>
   <g id="patch_175">
    <path d="M 476.792078 365.22 
L 480.979673 365.22 
L 480.979673 186.401923 
L 476.792078 186.401923 
z
" clip-path="url(#p5839847831)" style="fill: #dd8452; fill-opacity: 0.5; stroke: #ffffff; stroke-width: 0.365077; stroke-linejoin: miter"/>
   </g>
   <g id="patch_176">
    <path d="M 480.979673 365.22 
L 485.167268 365.22 
L 485.167268 184.459128 
L 480.979673 184.459128 
z
" clip-path="url(#p5839847831)" style="fill: #dd8452; fill-opacity: 0.5; stroke: #ffffff; stroke-width: 0.365077; stroke-linejoin: miter"/>
   </g>
   <g id="patch_177">
    <path d="M 485.167268 365.22 
L 489.354862 365.22 
L 489.354862 176.687949 
L 485.167268 176.687949 
z
" clip-path="url(#p5839847831)" style="fill: #dd8452; fill-opacity: 0.5; stroke: #ffffff; stroke-width: 0.365077; stroke-linejoin: miter"/>
   </g>
   <g id="patch_178">
    <path d="M 489.354862 365.22 
L 493.542457 365.22 
L 493.542457 174.340405 
L 489.354862 174.340405 
z
" clip-path="url(#p5839847831)" style="fill: #dd8452; fill-opacity: 0.5; stroke: #ffffff; stroke-width: 0.365077; stroke-linejoin: miter"/>
   </g>
   <g id="patch_179">
    <path d="M 493.542457 365.22 
L 497.730052 365.22 
L 497.730052 165.840677 
L 493.542457 165.840677 
z
" clip-path="url(#p5839847831)" style="fill: #dd8452; fill-opacity: 0.5; stroke: #ffffff; stroke-width: 0.365077; stroke-linejoin: miter"/>
   </g>
   <g id="patch_180">
    <path d="M 497.730052 365.22 
L 501.917647 365.22 
L 501.917647 158.798046 
L 497.730052 158.798046 
z
" clip-path="url(#p5839847831)" style="fill: #dd8452; fill-opacity: 0.5; stroke: #ffffff; stroke-width: 0.365077; stroke-linejoin: miter"/>
   </g>
   <g id="patch_181">
    <path d="M 501.917647 365.22 
L 506.105241 365.22 
L 506.105241 139.693896 
L 501.917647 139.693896 
z
" clip-path="url(#p5839847831)" style="fill: #dd8452; fill-opacity: 0.5; stroke: #ffffff; stroke-width: 0.365077; stroke-linejoin: miter"/>
   </g>
   <g id="patch_182">
    <path d="M 506.105241 365.22 
L 510.292836 365.22 
L 510.292836 127.956178 
L 506.105241 127.956178 
z
" clip-path="url(#p5839847831)" style="fill: #dd8452; fill-opacity: 0.5; stroke: #ffffff; stroke-width: 0.365077; stroke-linejoin: miter"/>
   </g>
   <g id="patch_183">
    <path d="M 510.292836 365.22 
L 514.480431 365.22 
L 514.480431 116.542258 
L 510.292836 116.542258 
z
" clip-path="url(#p5839847831)" style="fill: #dd8452; fill-opacity: 0.5; stroke: #ffffff; stroke-width: 0.365077; stroke-linejoin: miter"/>
   </g>
   <g id="patch_184">
    <path d="M 514.480431 365.22 
L 518.668025 365.22 
L 518.668025 91.528774 
L 514.480431 91.528774 
z
" clip-path="url(#p5839847831)" style="fill: #dd8452; fill-opacity: 0.5; stroke: #ffffff; stroke-width: 0.365077; stroke-linejoin: miter"/>
   </g>
   <g id="patch_185">
    <path d="M 518.668025 365.22 
L 522.85562 365.22 
L 522.85562 72.100825 
L 518.668025 72.100825 
z
" clip-path="url(#p5839847831)" style="fill: #dd8452; fill-opacity: 0.5; stroke: #ffffff; stroke-width: 0.365077; stroke-linejoin: miter"/>
   </g>
   <g id="patch_186">
    <path d="M 522.85562 365.22 
L 527.043215 365.22 
L 527.043215 85.862289 
L 522.85562 85.862289 
z
" clip-path="url(#p5839847831)" style="fill: #dd8452; fill-opacity: 0.5; stroke: #ffffff; stroke-width: 0.365077; stroke-linejoin: miter"/>
   </g>
   <g id="line2d_14">
    <path d="M 111.411818 365.186165 
L 128.955445 365.088125 
L 164.0427 364.453523 
L 181.586327 363.919943 
L 192.112503 363.429954 
L 199.129954 362.871519 
L 206.147405 362.033324 
L 227.199758 359.149919 
L 234.217209 357.837046 
L 241.23466 356.225463 
L 248.252111 354.288843 
L 251.760836 353.133899 
L 255.269561 351.836966 
L 262.287012 348.923312 
L 272.813189 344.1732 
L 279.83064 340.794572 
L 283.339365 338.968603 
L 286.84809 336.973315 
L 290.356816 334.760721 
L 293.865541 332.32875 
L 300.882992 327.006743 
L 307.900443 321.31592 
L 311.409169 318.271707 
L 314.917894 315.034562 
L 318.426619 311.600342 
L 325.44407 304.298281 
L 339.478972 289.283775 
L 350.005148 278.440006 
L 353.513874 274.585494 
L 357.022599 270.438076 
L 360.531325 266.001514 
L 371.057501 252.119648 
L 374.566227 247.770654 
L 378.074952 243.719779 
L 381.583677 239.985834 
L 385.092403 236.558278 
L 388.601128 233.421404 
L 392.109854 230.542385 
L 399.127305 225.226999 
L 406.144756 220.098223 
L 409.653481 217.702147 
L 413.162206 215.499295 
L 416.670932 213.47812 
L 423.688383 209.789264 
L 427.197108 208.103518 
L 430.705834 206.623254 
L 434.214559 205.48187 
L 437.723285 204.787731 
L 441.23201 204.571157 
L 444.740735 204.77398 
L 448.249461 205.275517 
L 455.266912 206.690568 
L 458.775637 207.535372 
L 462.284363 208.567534 
L 465.793088 209.876474 
L 469.301814 211.49321 
L 472.810539 213.416433 
L 476.319265 215.67333 
L 479.82799 218.319585 
L 483.336715 221.369949 
L 486.845441 224.74917 
L 493.862892 232.002208 
L 504.389068 243.358759 
L 511.406519 250.870926 
L 521.932695 261.793629 
L 525.441421 265.757407 
L 532.458872 274.25793 
L 539.476323 282.738175 
L 546.493773 290.687481 
L 550.002499 294.38469 
L 557.01995 301.318487 
L 574.563577 318.207723 
L 578.072302 321.341143 
L 581.581028 324.312836 
L 585.089753 327.106752 
L 588.598479 329.719861 
L 592.107204 332.166861 
L 599.124655 336.66673 
L 606.142106 340.705003 
L 613.159557 344.255339 
L 620.177008 347.373625 
L 627.194459 350.036283 
L 634.21191 352.342334 
L 644.738086 355.531197 
L 651.755537 357.345292 
L 658.772988 358.759779 
L 665.790439 359.882795 
L 676.316615 361.339975 
L 686.842791 362.547883 
L 697.368968 363.489786 
L 707.895144 364.159575 
L 718.42132 364.563631 
L 732.456222 364.810272 
L 753.508575 365.04864 
L 809.648182 365.189868 
L 809.648182 365.189868 
" clip-path="url(#p5839847831)" style="fill: none; stroke: #4c72b0; stroke-width: 1.5; stroke-linecap: round"/>
   </g>
   <g id="line2d_15">
    <path d="M 359.539427 223.868818 
L 362.064609 170.028284 
L 363.748065 140.233637 
L 364.589792 128.184677 
L 365.43152 118.244994 
L 366.273247 110.434685 
L 367.114975 104.677261 
L 367.956703 100.819031 
L 368.79843 98.651783 
L 369.640158 97.935621 
L 370.481885 98.419481 
L 371.323613 99.857708 
L 372.16534 102.022011 
L 373.848796 107.743566 
L 378.899161 126.943476 
L 380.582616 132.386198 
L 382.266071 137.210225 
L 384.791254 143.605292 
L 388.999892 153.299585 
L 394.050257 164.455206 
L 398.258895 173.253629 
L 400.784078 178.052017 
L 402.467533 180.883043 
L 404.150988 183.359155 
L 405.834444 185.503462 
L 408.359626 188.290245 
L 412.568264 192.459105 
L 415.093447 194.721245 
L 417.61863 196.704324 
L 420.143812 198.413633 
L 422.668995 199.835894 
L 424.35245 200.5727 
L 426.035905 201.104003 
L 427.719361 201.434025 
L 430.244543 201.663656 
L 434.453181 201.961312 
L 437.820091 202.466015 
L 442.870457 203.267285 
L 447.920822 203.785955 
L 450.446005 203.870469 
L 452.12946 203.737812 
L 453.812915 203.376839 
L 455.496371 202.756839 
L 457.179826 201.896551 
L 459.705008 200.311948 
L 463.071919 198.154906 
L 468.964012 194.690696 
L 470.647467 193.41054 
L 473.17265 191.121262 
L 478.223015 186.329877 
L 484.115108 181.197225 
L 485.798563 179.425013 
L 487.482019 177.40318 
L 490.007201 173.900364 
L 492.532384 169.86154 
L 494.215839 166.84423 
L 495.899294 163.50383 
L 497.582749 159.772232 
L 499.266205 155.603589 
L 501.791387 148.552683 
L 504.31657 140.738141 
L 507.68348 129.476483 
L 511.050391 117.342508 
L 513.575573 108.407649 
L 514.417301 105.854072 
L 515.259029 103.751109 
L 516.100756 102.294953 
L 516.942484 101.713564 
L 517.784211 102.258355 
L 518.625939 104.190921 
L 519.467667 107.764929 
L 520.309394 113.204034 
L 521.151122 120.677619 
L 521.992849 130.276959 
L 522.834577 141.994952 
L 524.518032 171.195758 
L 526.201487 205.998744 
L 527.043215 224.395854 
L 527.043215 224.395854 
" clip-path="url(#p5839847831)" style="fill: none; stroke: #dd8452; stroke-width: 1.5; stroke-linecap: round"/>
   </g>
   <g id="patch_187">
    <path d="M 76.5 365.22 
L 76.5 53.28 
" style="fill: none; stroke: #ffffff; stroke-width: 1.25; stroke-linejoin: miter; stroke-linecap: square"/>
   </g>
   <g id="patch_188">
    <path d="M 844.56 365.22 
L 844.56 53.28 
" style="fill: none; stroke: #ffffff; stroke-width: 1.25; stroke-linejoin: miter; stroke-linecap: square"/>
   </g>
   <g id="patch_189">
    <path d="M 76.5 365.22 
L 844.56 365.22 
" style="fill: none; stroke: #ffffff; stroke-width: 1.25; stroke-linejoin: miter; stroke-linecap: square"/>
   </g>
   <g id="patch_190">
    <path d="M 76.5 53.28 
L 844.56 53.28 
" style="fill: none; stroke: #ffffff; stroke-width: 1.25; stroke-linejoin: miter; stroke-linecap: square"/>
   </g>
   <g id="legend_1">
    <g id="patch_191">
     <path d="M 618.071719 114.917812 
L 833.01 114.917812 
Q 836.31 114.917812 836.31 111.617812 
L 836.31 64.83 
Q 836.31 61.53 833.01 61.53 
L 618.071719 61.53 
Q 614.771719 61.53 614.771719 64.83 
L 614.771719 111.617812 
Q 614.771719 114.917812 618.071719 114.917812 
z
" style="fill: #eaeaf2; opacity: 0.8; stroke: #cccccc; stroke-linejoin: miter"/>
    </g>
    <g id="patch_192">
     <path d="M 621.371719 80.667422 
L 654.371719 80.667422 
L 654.371719 69.117422 
L 621.371719 69.117422 
z
" style="fill: #4c72b0; fill-opacity: 0.5; stroke: #ffffff; stroke-width: 0.422727; stroke-linejoin: miter"/>
    </g>
    <g id="text_16">
     <!-- Standard Gaussian -->
     <g style="fill: #262626" transform="translate(667.571719 80.667422) scale(0.165 -0.165)">
      <defs>
       <path id="DejaVuSans-53" d="M 3425 4513 
L 3425 3897 
Q 3066 4069 2747 4153 
Q 2428 4238 2131 4238 
Q 1616 4238 1336 4038 
Q 1056 3838 1056 3469 
Q 1056 3159 1242 3001 
Q 1428 2844 1947 2747 
L 2328 2669 
Q 3034 2534 3370 2195 
Q 3706 1856 3706 1288 
Q 3706 609 3251 259 
Q 2797 -91 1919 -91 
Q 1588 -91 1214 -16 
Q 841 59 441 206 
L 441 856 
Q 825 641 1194 531 
Q 1563 422 1919 422 
Q 2459 422 2753 634 
Q 3047 847 3047 1241 
Q 3047 1584 2836 1778 
Q 2625 1972 2144 2069 
L 1759 2144 
Q 1053 2284 737 2584 
Q 422 2884 422 3419 
Q 422 4038 858 4394 
Q 1294 4750 2059 4750 
Q 2388 4750 2728 4690 
Q 3069 4631 3425 4513 
z
" transform="scale(0.015625)"/>
       <path id="DejaVuSans-61" d="M 2194 1759 
Q 1497 1759 1228 1600 
Q 959 1441 959 1056 
Q 959 750 1161 570 
Q 1363 391 1709 391 
Q 2188 391 2477 730 
Q 2766 1069 2766 1631 
L 2766 1759 
L 2194 1759 
z
M 3341 1997 
L 3341 0 
L 2766 0 
L 2766 531 
Q 2569 213 2275 61 
Q 1981 -91 1556 -91 
Q 1019 -91 701 211 
Q 384 513 384 1019 
Q 384 1609 779 1909 
Q 1175 2209 1959 2209 
L 2766 2209 
L 2766 2266 
Q 2766 2663 2505 2880 
Q 2244 3097 1772 3097 
Q 1472 3097 1187 3025 
Q 903 2953 641 2809 
L 641 3341 
Q 956 3463 1253 3523 
Q 1550 3584 1831 3584 
Q 2591 3584 2966 3190 
Q 3341 2797 3341 1997 
z
" transform="scale(0.015625)"/>
       <path id="DejaVuSans-64" d="M 2906 2969 
L 2906 4863 
L 3481 4863 
L 3481 0 
L 2906 0 
L 2906 525 
Q 2725 213 2448 61 
Q 2172 -91 1784 -91 
Q 1150 -91 751 415 
Q 353 922 353 1747 
Q 353 2572 751 3078 
Q 1150 3584 1784 3584 
Q 2172 3584 2448 3432 
Q 2725 3281 2906 2969 
z
M 947 1747 
Q 947 1113 1208 752 
Q 1469 391 1925 391 
Q 2381 391 2643 752 
Q 2906 1113 2906 1747 
Q 2906 2381 2643 2742 
Q 2381 3103 1925 3103 
Q 1469 3103 1208 2742 
Q 947 2381 947 1747 
z
" transform="scale(0.015625)"/>
       <path id="DejaVuSans-72" d="M 2631 2963 
Q 2534 3019 2420 3045 
Q 2306 3072 2169 3072 
Q 1681 3072 1420 2755 
Q 1159 2438 1159 1844 
L 1159 0 
L 581 0 
L 581 3500 
L 1159 3500 
L 1159 2956 
Q 1341 3275 1631 3429 
Q 1922 3584 2338 3584 
Q 2397 3584 2469 3576 
Q 2541 3569 2628 3553 
L 2631 2963 
z
" transform="scale(0.015625)"/>
       <path id="DejaVuSans-20" transform="scale(0.015625)"/>
       <path id="DejaVuSans-47" d="M 3809 666 
L 3809 1919 
L 2778 1919 
L 2778 2438 
L 4434 2438 
L 4434 434 
Q 4069 175 3628 42 
Q 3188 -91 2688 -91 
Q 1594 -91 976 548 
Q 359 1188 359 2328 
Q 359 3472 976 4111 
Q 1594 4750 2688 4750 
Q 3144 4750 3555 4637 
Q 3966 4525 4313 4306 
L 4313 3634 
Q 3963 3931 3569 4081 
Q 3175 4231 2741 4231 
Q 1884 4231 1454 3753 
Q 1025 3275 1025 2328 
Q 1025 1384 1454 906 
Q 1884 428 2741 428 
Q 3075 428 3337 486 
Q 3600 544 3809 666 
z
" transform="scale(0.015625)"/>
       <path id="DejaVuSans-75" d="M 544 1381 
L 544 3500 
L 1119 3500 
L 1119 1403 
Q 1119 906 1312 657 
Q 1506 409 1894 409 
Q 2359 409 2629 706 
Q 2900 1003 2900 1516 
L 2900 3500 
L 3475 3500 
L 3475 0 
L 2900 0 
L 2900 538 
Q 2691 219 2414 64 
Q 2138 -91 1772 -91 
Q 1169 -91 856 284 
Q 544 659 544 1381 
z
M 1991 3584 
L 1991 3584 
z
" transform="scale(0.015625)"/>
      </defs>
      <use xlink:href="#DejaVuSans-53"/>
      <use xlink:href="#DejaVuSans-74" transform="translate(63.476562 0)"/>
      <use xlink:href="#DejaVuSans-61" transform="translate(102.685547 0)"/>
      <use xlink:href="#DejaVuSans-6e" transform="translate(163.964844 0)"/>
      <use xlink:href="#DejaVuSans-64" transform="translate(227.34375 0)"/>
      <use xlink:href="#DejaVuSans-61" transform="translate(290.820312 0)"/>
      <use xlink:href="#DejaVuSans-72" transform="translate(352.099609 0)"/>
      <use xlink:href="#DejaVuSans-64" transform="translate(391.462891 0)"/>
      <use xlink:href="#DejaVuSans-20" transform="translate(454.939453 0)"/>
      <use xlink:href="#DejaVuSans-47" transform="translate(486.726562 0)"/>
      <use xlink:href="#DejaVuSans-61" transform="translate(564.216797 0)"/>
      <use xlink:href="#DejaVuSans-75" transform="translate(625.496094 0)"/>
      <use xlink:href="#DejaVuSans-73" transform="translate(688.875 0)"/>
      <use xlink:href="#DejaVuSans-73" transform="translate(740.974609 0)"/>
      <use xlink:href="#DejaVuSans-69" transform="translate(793.074219 0)"/>
      <use xlink:href="#DejaVuSans-61" transform="translate(820.857422 0)"/>
      <use xlink:href="#DejaVuSans-6e" transform="translate(882.136719 0)"/>
     </g>
    </g>
    <g id="patch_193">
     <path d="M 621.371719 104.886328 
L 654.371719 104.886328 
L 654.371719 93.336328 
L 621.371719 93.336328 
z
" style="fill: #dd8452; fill-opacity: 0.5; stroke: #ffffff; stroke-width: 0.365077; stroke-linejoin: miter"/>
    </g>
    <g id="text_17">
     <!-- Squashed Gaussian -->
     <g style="fill: #262626" transform="translate(667.571719 104.886328) scale(0.165 -0.165)">
      <defs>
       <path id="DejaVuSans-71" d="M 947 1747 
Q 947 1113 1208 752 
Q 1469 391 1925 391 
Q 2381 391 2643 752 
Q 2906 1113 2906 1747 
Q 2906 2381 2643 2742 
Q 2381 3103 1925 3103 
Q 1469 3103 1208 2742 
Q 947 2381 947 1747 
z
M 2906 525 
Q 2725 213 2448 61 
Q 2172 -91 1784 -91 
Q 1150 -91 751 415 
Q 353 922 353 1747 
Q 353 2572 751 3078 
Q 1150 3584 1784 3584 
Q 2172 3584 2448 3432 
Q 2725 3281 2906 2969 
L 2906 3500 
L 3481 3500 
L 3481 -1331 
L 2906 -1331 
L 2906 525 
z
" transform="scale(0.015625)"/>
       <path id="DejaVuSans-68" d="M 3513 2113 
L 3513 0 
L 2938 0 
L 2938 2094 
Q 2938 2591 2744 2837 
Q 2550 3084 2163 3084 
Q 1697 3084 1428 2787 
Q 1159 2491 1159 1978 
L 1159 0 
L 581 0 
L 581 4863 
L 1159 4863 
L 1159 2956 
Q 1366 3272 1645 3428 
Q 1925 3584 2291 3584 
Q 2894 3584 3203 3211 
Q 3513 2838 3513 2113 
z
" transform="scale(0.015625)"/>
      </defs>
      <use xlink:href="#DejaVuSans-53"/>
      <use xlink:href="#DejaVuSans-71" transform="translate(63.476562 0)"/>
      <use xlink:href="#DejaVuSans-75" transform="translate(126.953125 0)"/>
      <use xlink:href="#DejaVuSans-61" transform="translate(190.332031 0)"/>
      <use xlink:href="#DejaVuSans-73" transform="translate(251.611328 0)"/>
      <use xlink:href="#DejaVuSans-68" transform="translate(303.710938 0)"/>
      <use xlink:href="#DejaVuSans-65" transform="translate(367.089844 0)"/>
      <use xlink:href="#DejaVuSans-64" transform="translate(428.613281 0)"/>
      <use xlink:href="#DejaVuSans-20" transform="translate(492.089844 0)"/>
      <use xlink:href="#DejaVuSans-47" transform="translate(523.876953 0)"/>
      <use xlink:href="#DejaVuSans-61" transform="translate(601.367188 0)"/>
      <use xlink:href="#DejaVuSans-75" transform="translate(662.646484 0)"/>
      <use xlink:href="#DejaVuSans-73" transform="translate(726.025391 0)"/>
      <use xlink:href="#DejaVuSans-73" transform="translate(778.125 0)"/>
      <use xlink:href="#DejaVuSans-69" transform="translate(830.224609 0)"/>
      <use xlink:href="#DejaVuSans-61" transform="translate(858.007812 0)"/>
      <use xlink:href="#DejaVuSans-6e" transform="translate(919.287109 0)"/>
     </g>
    </g>
   </g>
  </g>
  <g id="text_18">
   <!-- Distribution of actions for a Gaussian and squashed Gaussian distributions -->
   <g style="fill: #262626" transform="translate(133.37375 20.7975) scale(0.16 -0.16)">
    <defs>
     <path id="DejaVuSans-62" d="M 3116 1747 
Q 3116 2381 2855 2742 
Q 2594 3103 2138 3103 
Q 1681 3103 1420 2742 
Q 1159 2381 1159 1747 
Q 1159 1113 1420 752 
Q 1681 391 2138 391 
Q 2594 391 2855 752 
Q 3116 1113 3116 1747 
z
M 1159 2969 
Q 1341 3281 1617 3432 
Q 1894 3584 2278 3584 
Q 2916 3584 3314 3078 
Q 3713 2572 3713 1747 
Q 3713 922 3314 415 
Q 2916 -91 2278 -91 
Q 1894 -91 1617 61 
Q 1341 213 1159 525 
L 1159 0 
L 581 0 
L 581 4863 
L 1159 4863 
L 1159 2969 
z
" transform="scale(0.015625)"/>
     <path id="DejaVuSans-66" d="M 2375 4863 
L 2375 4384 
L 1825 4384 
Q 1516 4384 1395 4259 
Q 1275 4134 1275 3809 
L 1275 3500 
L 2222 3500 
L 2222 3053 
L 1275 3053 
L 1275 0 
L 697 0 
L 697 3053 
L 147 3053 
L 147 3500 
L 697 3500 
L 697 3744 
Q 697 4328 969 4595 
Q 1241 4863 1831 4863 
L 2375 4863 
z
" transform="scale(0.015625)"/>
    </defs>
    <use xlink:href="#DejaVuSans-44"/>
    <use xlink:href="#DejaVuSans-69" transform="translate(77.001953 0)"/>
    <use xlink:href="#DejaVuSans-73" transform="translate(104.785156 0)"/>
    <use xlink:href="#DejaVuSans-74" transform="translate(156.884766 0)"/>
    <use xlink:href="#DejaVuSans-72" transform="translate(196.09375 0)"/>
    <use xlink:href="#DejaVuSans-69" transform="translate(237.207031 0)"/>
    <use xlink:href="#DejaVuSans-62" transform="translate(264.990234 0)"/>
    <use xlink:href="#DejaVuSans-75" transform="translate(328.466797 0)"/>
    <use xlink:href="#DejaVuSans-74" transform="translate(391.845703 0)"/>
    <use xlink:href="#DejaVuSans-69" transform="translate(431.054688 0)"/>
    <use xlink:href="#DejaVuSans-6f" transform="translate(458.837891 0)"/>
    <use xlink:href="#DejaVuSans-6e" transform="translate(520.019531 0)"/>
    <use xlink:href="#DejaVuSans-20" transform="translate(583.398438 0)"/>
    <use xlink:href="#DejaVuSans-6f" transform="translate(615.185547 0)"/>
    <use xlink:href="#DejaVuSans-66" transform="translate(676.367188 0)"/>
    <use xlink:href="#DejaVuSans-20" transform="translate(711.572266 0)"/>
    <use xlink:href="#DejaVuSans-61" transform="translate(743.359375 0)"/>
    <use xlink:href="#DejaVuSans-63" transform="translate(804.638672 0)"/>
    <use xlink:href="#DejaVuSans-74" transform="translate(859.619141 0)"/>
    <use xlink:href="#DejaVuSans-69" transform="translate(898.828125 0)"/>
    <use xlink:href="#DejaVuSans-6f" transform="translate(926.611328 0)"/>
    <use xlink:href="#DejaVuSans-6e" transform="translate(987.792969 0)"/>
    <use xlink:href="#DejaVuSans-73" transform="translate(1051.171875 0)"/>
    <use xlink:href="#DejaVuSans-20" transform="translate(1103.271484 0)"/>
    <use xlink:href="#DejaVuSans-66" transform="translate(1135.058594 0)"/>
    <use xlink:href="#DejaVuSans-6f" transform="translate(1170.263672 0)"/>
    <use xlink:href="#DejaVuSans-72" transform="translate(1231.445312 0)"/>
    <use xlink:href="#DejaVuSans-20" transform="translate(1272.558594 0)"/>
    <use xlink:href="#DejaVuSans-61" transform="translate(1304.345703 0)"/>
    <use xlink:href="#DejaVuSans-20" transform="translate(1365.625 0)"/>
    <use xlink:href="#DejaVuSans-47" transform="translate(1397.412109 0)"/>
    <use xlink:href="#DejaVuSans-61" transform="translate(1474.902344 0)"/>
    <use xlink:href="#DejaVuSans-75" transform="translate(1536.181641 0)"/>
    <use xlink:href="#DejaVuSans-73" transform="translate(1599.560547 0)"/>
    <use xlink:href="#DejaVuSans-73" transform="translate(1651.660156 0)"/>
    <use xlink:href="#DejaVuSans-69" transform="translate(1703.759766 0)"/>
    <use xlink:href="#DejaVuSans-61" transform="translate(1731.542969 0)"/>
    <use xlink:href="#DejaVuSans-6e" transform="translate(1792.822266 0)"/>
    <use xlink:href="#DejaVuSans-20" transform="translate(1856.201172 0)"/>
    <use xlink:href="#DejaVuSans-61" transform="translate(1887.988281 0)"/>
    <use xlink:href="#DejaVuSans-6e" transform="translate(1949.267578 0)"/>
    <use xlink:href="#DejaVuSans-64" transform="translate(2012.646484 0)"/>
    <use xlink:href="#DejaVuSans-20" transform="translate(2076.123047 0)"/>
    <use xlink:href="#DejaVuSans-73" transform="translate(2107.910156 0)"/>
    <use xlink:href="#DejaVuSans-71" transform="translate(2160.009766 0)"/>
    <use xlink:href="#DejaVuSans-75" transform="translate(2223.486328 0)"/>
    <use xlink:href="#DejaVuSans-61" transform="translate(2286.865234 0)"/>
    <use xlink:href="#DejaVuSans-73" transform="translate(2348.144531 0)"/>
    <use xlink:href="#DejaVuSans-68" transform="translate(2400.244141 0)"/>
    <use xlink:href="#DejaVuSans-65" transform="translate(2463.623047 0)"/>
    <use xlink:href="#DejaVuSans-64" transform="translate(2525.146484 0)"/>
    <use xlink:href="#DejaVuSans-20" transform="translate(2588.623047 0)"/>
    <use xlink:href="#DejaVuSans-47" transform="translate(2620.410156 0)"/>
    <use xlink:href="#DejaVuSans-61" transform="translate(2697.900391 0)"/>
    <use xlink:href="#DejaVuSans-75" transform="translate(2759.179688 0)"/>
    <use xlink:href="#DejaVuSans-73" transform="translate(2822.558594 0)"/>
    <use xlink:href="#DejaVuSans-73" transform="translate(2874.658203 0)"/>
    <use xlink:href="#DejaVuSans-69" transform="translate(2926.757812 0)"/>
    <use xlink:href="#DejaVuSans-61" transform="translate(2954.541016 0)"/>
    <use xlink:href="#DejaVuSans-6e" transform="translate(3015.820312 0)"/>
    <use xlink:href="#DejaVuSans-20" transform="translate(3079.199219 0)"/>
    <use xlink:href="#DejaVuSans-64" transform="translate(3110.986328 0)"/>
    <use xlink:href="#DejaVuSans-69" transform="translate(3174.462891 0)"/>
    <use xlink:href="#DejaVuSans-73" transform="translate(3202.246094 0)"/>
    <use xlink:href="#DejaVuSans-74" transform="translate(3254.345703 0)"/>
    <use xlink:href="#DejaVuSans-72" transform="translate(3293.554688 0)"/>
    <use xlink:href="#DejaVuSans-69" transform="translate(3334.667969 0)"/>
    <use xlink:href="#DejaVuSans-62" transform="translate(3362.451172 0)"/>
    <use xlink:href="#DejaVuSans-75" transform="translate(3425.927734 0)"/>
    <use xlink:href="#DejaVuSans-74" transform="translate(3489.306641 0)"/>
    <use xlink:href="#DejaVuSans-69" transform="translate(3528.515625 0)"/>
    <use xlink:href="#DejaVuSans-6f" transform="translate(3556.298828 0)"/>
    <use xlink:href="#DejaVuSans-6e" transform="translate(3617.480469 0)"/>
    <use xlink:href="#DejaVuSans-73" transform="translate(3680.859375 0)"/>
   </g>
  </g>
 </g>
 <defs>
  <clipPath id="p5839847831">
   <rect x="76.5" y="53.28" width="768.06" height="311.94"/>
  </clipPath>
 </defs>
</svg>
