<svg version="1.1" xmlns="http://www.w3.org/2000/svg" viewBox="0 0 660.2006325911191 255.51264806288623" width="1320.4012651822381" height="511.02529612577246">
  <!-- svg-source:excalidraw -->
  
  <defs>
    <style class="style-fonts">
      
    </style>
    
  </defs>
  <g stroke-linecap="round"><g transform="translate(445.8289307878597 220.51008718124058) rotate(0 102.18585090162969 0)"><path d="M0 0 C34.06 0, 170.31 0, 204.37 0 M0 0 C34.06 0, 170.31 0, 204.37 0" stroke="#1e1e1e" stroke-width="2" fill="none"></path></g></g><mask></mask><g stroke-linecap="round" transform="translate(475.34596541335964 95.17509776944894) rotate(0 20.16668701171875 62.66749470589579)"><path d="M0 0 L40.33 0 L40.33 125.33 L0 125.33" stroke="none" stroke-width="0" fill="#eebefa"></path><path d="M0 0 C9.48 0, 18.96 0, 40.33 0 M0 0 C12.98 0, 25.96 0, 40.33 0 M40.33 0 C40.33 46.29, 40.33 92.58, 40.33 125.33 M40.33 0 C40.33 49.23, 40.33 98.47, 40.33 125.33 M40.33 125.33 C24.8 125.33, 9.26 125.33, 0 125.33 M40.33 125.33 C28.63 125.33, 16.93 125.33, 0 125.33 M0 125.33 C0 88.55, 0 51.76, 0 0 M0 125.33 C0 99.49, 0 73.65, 0 0" stroke="#1e1e1e" stroke-width="2" fill="none"></path></g><g stroke-linecap="round" transform="translate(531.4509391546055 214.50538417097368) rotate(0 20.16668701171875 3.0023515051337313)"><path d="M0 0 L40.33 0 L40.33 6 L0 6" stroke="none" stroke-width="0" fill="#eebefa"></path><path d="M0 0 C8.15 0, 16.31 0, 40.33 0 M0 0 C12.39 0, 24.79 0, 40.33 0 M40.33 0 C40.33 1.54, 40.33 3.08, 40.33 6 M40.33 0 C40.33 1.22, 40.33 2.43, 40.33 6 M40.33 6 C26.22 6, 12.11 6, 0 6 M40.33 6 C32.21 6, 24.09 6, 0 6 M0 6 C0 4.66, 0 3.31, 0 0 M0 6 C0 3.9, 0 1.79, 0 0" stroke="#1e1e1e" stroke-width="2" fill="none"></path></g><g stroke-linecap="round" transform="translate(586.1568119315518 204.31916509946905) rotate(0 20.16668701171875 8.095461040885965)"><path d="M0 0 L40.33 0 L40.33 16.19 L0 16.19" stroke="none" stroke-width="0" fill="#eebefa"></path><path d="M0 0 C15.56 0, 31.11 0, 40.33 0 M0 0 C11.72 0, 23.45 0, 40.33 0 M40.33 0 C40.33 5.23, 40.33 10.45, 40.33 16.19 M40.33 0 C40.33 6.1, 40.33 12.19, 40.33 16.19 M40.33 16.19 C29.57 16.19, 18.81 16.19, 0 16.19 M40.33 16.19 C31.87 16.19, 23.4 16.19, 0 16.19 M0 16.19 C0 11.14, 0 6.09, 0 0 M0 16.19 C0 10.97, 0 5.75, 0 0" stroke="#1e1e1e" stroke-width="2" fill="none"></path></g><g stroke-linecap="round"><g transform="translate(445.21516820245256 231.1446821590962) rotate(0 0 -97.60601944460687)"><path d="M0 0 C0 -32.54, 0 -162.68, 0 -195.21 M0 0 C0 -32.54, 0 -162.68, 0 -195.21" stroke="#1e1e1e" stroke-width="2" fill="none"></path></g><g transform="translate(445.21516820245256 231.1446821590962) rotate(0 0 -97.60601944460687)"><path d="M0 -195.21 L6.34 -181.62 L-6.34 -181.62 L0 -195.21" stroke="none" stroke-width="0" fill="#1e1e1e" fill-rule="evenodd"></path><path d="M0 -195.21 C1.7 -191.56, 3.4 -187.91, 6.34 -181.62 M0 -195.21 C2.33 -190.22, 4.66 -185.23, 6.34 -181.62 M6.34 -181.62 C3.69 -181.62, 1.04 -181.62, -6.34 -181.62 M6.34 -181.62 C3.63 -181.62, 0.93 -181.62, -6.34 -181.62 M-6.34 -181.62 C-4.84 -184.83, -3.35 -188.03, 0 -195.21 M-6.34 -181.62 C-4.66 -185.23, -2.97 -188.84, 0 -195.21 M0 -195.21 C0 -195.21, 0 -195.21, 0 -195.21 M0 -195.21 C0 -195.21, 0 -195.21, 0 -195.21" stroke="#1e1e1e" stroke-width="2" fill="none"></path></g></g><mask></mask><g stroke-linecap="round"><g transform="translate(440.95175157133167 69.31457763256208) rotate(0 5.343749058912408 0)"><path d="M0 0 C2.71 0, 5.41 0, 10.69 0 M0 0 C3.35 0, 6.7 0, 10.69 0" stroke="#1e1e1e" stroke-width="2" fill="none"></path></g></g><mask></mask><g transform="translate(399.7339084772477 55.36092113752352) rotate(0 14.458335876464844 11.5)"><svg overflow="visible" version="1.1" viewBox="0 0 28.916671752929688 23" width="28.916671752929688" height="23"><g font-family="Helvetica, Segoe UI Emoji" font-size="20px" color="#1e1e1e"><svg overflow="visible" style="vertical-align: -0.05ex;" xmlns="http://www.w3.org/2000/svg" width="2.891ex" height="1.557ex" role="img" focusable="false" viewBox="-2.76 -2.76 51.269 27.6" xmlns:xlink="http://www.w3.org/1999/xlink" x="0" y="5.933349609375"><defs><path id="MJX-159-TEX-N-31" d="M213 578L200 573Q186 568 160 563T102 556H83V602H102Q149 604 189 617T245 641T273 663Q275 666 285 666Q294 666 302 660V361L303 61Q310 54 315 52T339 48T401 46H427V0H416Q395 3 257 3Q121 3 100 0H88V46H114Q136 46 152 46T177 47T193 50T201 52T207 57T213 61V578Z"></path><path id="MJX-159-TEX-N-2E" d="M78 60Q78 84 95 102T138 120Q162 120 180 104T199 61Q199 36 182 18T139 0T96 17T78 60Z"></path><path id="MJX-159-TEX-N-30" d="M96 585Q152 666 249 666Q297 666 345 640T423 548Q460 465 460 320Q460 165 417 83Q397 41 362 16T301 -15T250 -22Q224 -22 198 -16T137 16T82 83Q39 165 39 320Q39 494 96 585ZM321 597Q291 629 250 629Q208 629 178 597Q153 571 145 525T137 333Q137 175 145 125T181 46Q209 16 250 16Q290 16 318 46Q347 76 354 130T362 333Q362 478 354 524T321 597Z"></path></defs><g stroke="currentColor" fill="currentColor" stroke-width="0" transform="translate(-2.76 23.957) scale(0.04011627906976744) scale(1,-1)"><g data-mml-node="math"><g data-mml-node="mn"><use data-c="31" xlink:href="#MJX-159-TEX-N-31"></use><use data-c="2E" xlink:href="#MJX-159-TEX-N-2E" transform="translate(500,0)"></use><use data-c="30" xlink:href="#MJX-159-TEX-N-30" transform="translate(778,0)"></use></g></g></g></svg></g></svg></g><g transform="translate(472.0707549979172 60.03353329241304) rotate(0 43.14167022705078 11.5)"><svg overflow="visible" version="1.1" viewBox="0 0 86.28334045410156 23" width="86.28334045410156" height="23"><g font-family="Helvetica, Segoe UI Emoji" font-size="20px" color="#1e1e1e"><svg overflow="visible" style="vertical-align: -0.566ex;" xmlns="http://www.w3.org/2000/svg" width="8.628ex" height="2.262ex" role="img" focusable="false" viewBox="-2.76 -2.76 105.253 27.6" xmlns:xlink="http://www.w3.org/1999/xlink" x="0" y="4.050048828125"><defs><path id="MJX-460-TEX-I-1D70B" d="M132 -11Q98 -11 98 22V33L111 61Q186 219 220 334L228 358H196Q158 358 142 355T103 336Q92 329 81 318T62 297T53 285Q51 284 38 284Q19 284 19 294Q19 300 38 329T93 391T164 429Q171 431 389 431Q549 431 553 430Q573 423 573 402Q573 371 541 360Q535 358 472 358H408L405 341Q393 269 393 222Q393 170 402 129T421 65T431 37Q431 20 417 5T381 -10Q370 -10 363 -7T347 17T331 77Q330 86 330 121Q330 170 339 226T357 318T367 358H269L268 354Q268 351 249 275T206 114T175 17Q164 -11 132 -11Z"></path><path id="MJX-460-TEX-I-1D703" d="M35 200Q35 302 74 415T180 610T319 704Q320 704 327 704T339 705Q393 701 423 656Q462 596 462 495Q462 380 417 261T302 66T168 -10H161Q125 -10 99 10T60 63T41 130T35 200ZM383 566Q383 668 330 668Q294 668 260 623T204 521T170 421T157 371Q206 370 254 370L351 371Q352 372 359 404T375 484T383 566ZM113 132Q113 26 166 26Q181 26 198 36T239 74T287 161T335 307L340 324H145Q145 321 136 286T120 208T113 132Z"></path><path id="MJX-460-TEX-N-28" d="M94 250Q94 319 104 381T127 488T164 576T202 643T244 695T277 729T302 750H315H319Q333 750 333 741Q333 738 316 720T275 667T226 581T184 443T167 250T184 58T225 -81T274 -167T316 -220T333 -241Q333 -250 318 -250H315H302L274 -226Q180 -141 137 -14T94 250Z"></path><path id="MJX-460-TEX-I-1D44E" d="M33 157Q33 258 109 349T280 441Q331 441 370 392Q386 422 416 422Q429 422 439 414T449 394Q449 381 412 234T374 68Q374 43 381 35T402 26Q411 27 422 35Q443 55 463 131Q469 151 473 152Q475 153 483 153H487Q506 153 506 144Q506 138 501 117T481 63T449 13Q436 0 417 -8Q409 -10 393 -10Q359 -10 336 5T306 36L300 51Q299 52 296 50Q294 48 292 46Q233 -10 172 -10Q117 -10 75 30T33 157ZM351 328Q351 334 346 350T323 385T277 405Q242 405 210 374T160 293Q131 214 119 129Q119 126 119 118T118 106Q118 61 136 44T179 26Q217 26 254 59T298 110Q300 114 325 217T351 328Z"></path><path id="MJX-460-TEX-N-31" d="M213 578L200 573Q186 568 160 563T102 556H83V602H102Q149 604 189 617T245 641T273 663Q275 666 285 666Q294 666 302 660V361L303 61Q310 54 315 52T339 48T401 46H427V0H416Q395 3 257 3Q121 3 100 0H88V46H114Q136 46 152 46T177 47T193 50T201 52T207 57T213 61V578Z"></path><path id="MJX-460-TEX-N-7C" d="M139 -249H137Q125 -249 119 -235V251L120 737Q130 750 139 750Q152 750 159 735V-235Q151 -249 141 -249H139Z"></path><path id="MJX-460-TEX-I-1D460" d="M131 289Q131 321 147 354T203 415T300 442Q362 442 390 415T419 355Q419 323 402 308T364 292Q351 292 340 300T328 326Q328 342 337 354T354 372T367 378Q368 378 368 379Q368 382 361 388T336 399T297 405Q249 405 227 379T204 326Q204 301 223 291T278 274T330 259Q396 230 396 163Q396 135 385 107T352 51T289 7T195 -10Q118 -10 86 19T53 87Q53 126 74 143T118 160Q133 160 146 151T160 120Q160 94 142 76T111 58Q109 57 108 57T107 55Q108 52 115 47T146 34T201 27Q237 27 263 38T301 66T318 97T323 122Q323 150 302 164T254 181T195 196T148 231Q131 256 131 289Z"></path><path id="MJX-460-TEX-I-1D461" d="M26 385Q19 392 19 395Q19 399 22 411T27 425Q29 430 36 430T87 431H140L159 511Q162 522 166 540T173 566T179 586T187 603T197 615T211 624T229 626Q247 625 254 615T261 596Q261 589 252 549T232 470L222 433Q222 431 272 431H323Q330 424 330 420Q330 398 317 385H210L174 240Q135 80 135 68Q135 26 162 26Q197 26 230 60T283 144Q285 150 288 151T303 153H307Q322 153 322 145Q322 142 319 133Q314 117 301 95T267 48T216 6T155 -11Q125 -11 98 4T59 56Q57 64 57 83V101L92 241Q127 382 128 383Q128 385 77 385H26Z"></path><path id="MJX-460-TEX-N-29" d="M60 749L64 750Q69 750 74 750H86L114 726Q208 641 251 514T294 250Q294 182 284 119T261 12T224 -76T186 -143T145 -194T113 -227T90 -246Q87 -249 86 -250H74Q66 -250 63 -250T58 -247T55 -238Q56 -237 66 -225Q221 -64 221 250T66 725Q56 737 55 738Q55 746 60 749Z"></path></defs><g stroke="currentColor" fill="currentColor" stroke-width="0" transform="translate(-2.76 17.939999999999998) scale(0.0276) scale(1,-1)"><g data-mml-node="math"><g data-mml-node="msub"><g data-mml-node="mi"><use data-c="1D70B" xlink:href="#MJX-460-TEX-I-1D70B"></use></g><g data-mml-node="mi" transform="translate(603,-150) scale(0.707)"><use data-c="1D703" xlink:href="#MJX-460-TEX-I-1D703"></use></g></g><g data-mml-node="mo" transform="translate(984.6,0)"><use data-c="28" xlink:href="#MJX-460-TEX-N-28"></use></g><g data-mml-node="msub" transform="translate(1373.6,0)"><g data-mml-node="mi"><use data-c="1D44E" xlink:href="#MJX-460-TEX-I-1D44E"></use></g><g data-mml-node="mn" transform="translate(562,-150) scale(0.707)"><use data-c="31" xlink:href="#MJX-460-TEX-N-31"></use></g></g><g data-mml-node="TeXAtom" data-mjx-texclass="ORD" transform="translate(2339.2,0)"><g data-mml-node="mo" transform="translate(0 -0.5)"><use data-c="7C" xlink:href="#MJX-460-TEX-N-7C"></use></g></g><g data-mml-node="msub" transform="translate(2617.2,0)"><g data-mml-node="mi"><use data-c="1D460" xlink:href="#MJX-460-TEX-I-1D460"></use></g><g data-mml-node="mi" transform="translate(502,-150) scale(0.707)"><use data-c="1D461" xlink:href="#MJX-460-TEX-I-1D461"></use></g></g><g data-mml-node="mo" transform="translate(3424.5,0)"><use data-c="29" xlink:href="#MJX-460-TEX-N-29"></use></g></g></g></svg></g></svg></g><g transform="translate(485.36918212822206 222.23622405908372) rotate(0 10.925003051757812 11.5)"><svg overflow="visible" version="1.1" viewBox="0 0 21.850006103515625 23" width="21.850006103515625" height="23"><g font-family="Helvetica, Segoe UI Emoji" font-size="20px" color="#1e1e1e"><svg overflow="visible" style="vertical-align: -0.339ex;" xmlns="http://www.w3.org/2000/svg" width="2.185ex" height="1.337ex" role="img" focusable="false" viewBox="-2.76 -2.76 45.094 27.6" xmlns:xlink="http://www.w3.org/1999/xlink" x="0" y="11.0167236328125"><defs><path id="MJX-296-TEX-I-1D44E" d="M33 157Q33 258 109 349T280 441Q331 441 370 392Q386 422 416 422Q429 422 439 414T449 394Q449 381 412 234T374 68Q374 43 381 35T402 26Q411 27 422 35Q443 55 463 131Q469 151 473 152Q475 153 483 153H487Q506 153 506 144Q506 138 501 117T481 63T449 13Q436 0 417 -8Q409 -10 393 -10Q359 -10 336 5T306 36L300 51Q299 52 296 50Q294 48 292 46Q233 -10 172 -10Q117 -10 75 30T33 157ZM351 328Q351 334 346 350T323 385T277 405Q242 405 210 374T160 293Q131 214 119 129Q119 126 119 118T118 106Q118 61 136 44T179 26Q217 26 254 59T298 110Q300 114 325 217T351 328Z"></path><path id="MJX-296-TEX-N-31" d="M213 578L200 573Q186 568 160 563T102 556H83V602H102Q149 604 189 617T245 641T273 663Q275 666 285 666Q294 666 302 660V361L303 61Q310 54 315 52T339 48T401 46H427V0H416Q395 3 257 3Q121 3 100 0H88V46H114Q136 46 152 46T177 47T193 50T201 52T207 57T213 61V578Z"></path></defs><g stroke="currentColor" fill="currentColor" stroke-width="0" transform="translate(-2.76 17.835) scale(0.046700507614213196) scale(1,-1)"><g data-mml-node="math"><g data-mml-node="msub"><g data-mml-node="mi"><use data-c="1D44E" xlink:href="#MJX-296-TEX-I-1D44E"></use></g><g data-mml-node="mn" transform="translate(562,-150) scale(0.707)"><use data-c="31" xlink:href="#MJX-296-TEX-N-31"></use></g></g></g></g></svg></g></svg></g><g transform="translate(541.4741558694689 222.23622405908372) rotate(0 10.925003051757812 11.5)"><svg overflow="visible" version="1.1" viewBox="0 0 21.850006103515625 23" width="21.850006103515625" height="23"><g font-family="Helvetica, Segoe UI Emoji" font-size="20px" color="#1e1e1e"><svg overflow="visible" style="vertical-align: -0.339ex;" xmlns="http://www.w3.org/2000/svg" width="2.185ex" height="1.337ex" role="img" focusable="false" viewBox="-2.76 -2.76 45.094 27.6" xmlns:xlink="http://www.w3.org/1999/xlink" x="0" y="11.0167236328125"><defs><path id="MJX-297-TEX-I-1D44E" d="M33 157Q33 258 109 349T280 441Q331 441 370 392Q386 422 416 422Q429 422 439 414T449 394Q449 381 412 234T374 68Q374 43 381 35T402 26Q411 27 422 35Q443 55 463 131Q469 151 473 152Q475 153 483 153H487Q506 153 506 144Q506 138 501 117T481 63T449 13Q436 0 417 -8Q409 -10 393 -10Q359 -10 336 5T306 36L300 51Q299 52 296 50Q294 48 292 46Q233 -10 172 -10Q117 -10 75 30T33 157ZM351 328Q351 334 346 350T323 385T277 405Q242 405 210 374T160 293Q131 214 119 129Q119 126 119 118T118 106Q118 61 136 44T179 26Q217 26 254 59T298 110Q300 114 325 217T351 328Z"></path><path id="MJX-297-TEX-N-32" d="M109 429Q82 429 66 447T50 491Q50 562 103 614T235 666Q326 666 387 610T449 465Q449 422 429 383T381 315T301 241Q265 210 201 149L142 93L218 92Q375 92 385 97Q392 99 409 186V189H449V186Q448 183 436 95T421 3V0H50V19V31Q50 38 56 46T86 81Q115 113 136 137Q145 147 170 174T204 211T233 244T261 278T284 308T305 340T320 369T333 401T340 431T343 464Q343 527 309 573T212 619Q179 619 154 602T119 569T109 550Q109 549 114 549Q132 549 151 535T170 489Q170 464 154 447T109 429Z"></path></defs><g stroke="currentColor" fill="currentColor" stroke-width="0" transform="translate(-2.76 17.835) scale(0.046700507614213196) scale(1,-1)"><g data-mml-node="math"><g data-mml-node="msub"><g data-mml-node="mi"><use data-c="1D44E" xlink:href="#MJX-297-TEX-I-1D44E"></use></g><g data-mml-node="mn" transform="translate(562,-150) scale(0.707)"><use data-c="32" xlink:href="#MJX-297-TEX-N-32"></use></g></g></g></g></svg></g></svg></g><g transform="translate(596.1800286464143 222.23622405908372) rotate(0 10.925003051757812 11.5)"><svg overflow="visible" version="1.1" viewBox="0 0 21.850006103515625 23" width="21.850006103515625" height="23"><g font-family="Helvetica, Segoe UI Emoji" font-size="20px" color="#1e1e1e"><svg overflow="visible" style="vertical-align: -0.375ex;" xmlns="http://www.w3.org/2000/svg" width="2.185ex" height="1.372ex" role="img" focusable="false" viewBox="-2.76 -2.76 43.934 27.6" xmlns:xlink="http://www.w3.org/1999/xlink" x="0" y="11.03338623046875"><defs><path id="MJX-298-TEX-I-1D44E" d="M33 157Q33 258 109 349T280 441Q331 441 370 392Q386 422 416 422Q429 422 439 414T449 394Q449 381 412 234T374 68Q374 43 381 35T402 26Q411 27 422 35Q443 55 463 131Q469 151 473 152Q475 153 483 153H487Q506 153 506 144Q506 138 501 117T481 63T449 13Q436 0 417 -8Q409 -10 393 -10Q359 -10 336 5T306 36L300 51Q299 52 296 50Q294 48 292 46Q233 -10 172 -10Q117 -10 75 30T33 157ZM351 328Q351 334 346 350T323 385T277 405Q242 405 210 374T160 293Q131 214 119 129Q119 126 119 118T118 106Q118 61 136 44T179 26Q217 26 254 59T298 110Q300 114 325 217T351 328Z"></path><path id="MJX-298-TEX-N-33" d="M127 463Q100 463 85 480T69 524Q69 579 117 622T233 665Q268 665 277 664Q351 652 390 611T430 522Q430 470 396 421T302 350L299 348Q299 347 308 345T337 336T375 315Q457 262 457 175Q457 96 395 37T238 -22Q158 -22 100 21T42 130Q42 158 60 175T105 193Q133 193 151 175T169 130Q169 119 166 110T159 94T148 82T136 74T126 70T118 67L114 66Q165 21 238 21Q293 21 321 74Q338 107 338 175V195Q338 290 274 322Q259 328 213 329L171 330L168 332Q166 335 166 348Q166 366 174 366Q202 366 232 371Q266 376 294 413T322 525V533Q322 590 287 612Q265 626 240 626Q208 626 181 615T143 592T132 580H135Q138 579 143 578T153 573T165 566T175 555T183 540T186 520Q186 498 172 481T127 463Z"></path></defs><g stroke="currentColor" fill="currentColor" stroke-width="0" transform="translate(-2.76 17.305) scale(0.045499507271394346) scale(1,-1)"><g data-mml-node="math"><g data-mml-node="msub"><g data-mml-node="mi"><use data-c="1D44E" xlink:href="#MJX-298-TEX-I-1D44E"></use></g><g data-mml-node="mn" transform="translate(562,-150) scale(0.707)"><use data-c="33" xlink:href="#MJX-298-TEX-N-33"></use></g></g></g></g></svg></g></svg></g><g transform="translate(513.3120558233575 10.276424003802504) rotate(0 44.352272033691406 11.5)"><svg overflow="visible" version="1.1" viewBox="0 0 88.70454406738281 23" width="88.70454406738281" height="23"><g font-family="Helvetica, Segoe UI Emoji" font-size="20px" color="#9c36b5"><text style="white-space: pre;" fill="#9c36b5" direction="ltr" text-anchor="start" x="0" y="21">Prediction</text></g></svg></g><g stroke-linecap="round"><g transform="translate(56.095022310612876 220.23366317743807) rotate(0 102.18585090162958 0)"><path d="M0 0 C34.06 0, 170.31 0, 204.37 0 M0 0 C34.06 0, 170.31 0, 204.37 0" stroke="#1e1e1e" stroke-width="2" fill="none"></path></g></g><mask></mask><g stroke-linecap="round" transform="translate(196.4229034543041 69.42011078005271) rotate(0 20.16668701171875 75.40677619869277)"><path d="M0 0 L40.33 0 L40.33 150.81 L0 150.81" stroke="none" stroke-width="0" fill="#b2f2bb"></path><path d="M0 0 C9.8 0, 19.6 0, 40.33 0 M0 0 C13.28 0, 26.55 0, 40.33 0 M40.33 0 C40.33 52.95, 40.33 105.91, 40.33 150.81 M40.33 0 C40.33 31.26, 40.33 62.52, 40.33 150.81 M40.33 150.81 C29.04 150.81, 17.74 150.81, 0 150.81 M40.33 150.81 C31.67 150.81, 23.02 150.81, 0 150.81 M0 150.81 C0 97.34, 0 43.87, 0 0 M0 150.81 C0 111.86, 0 72.91, 0 0" stroke="#1e1e1e" stroke-width="2" fill="none"></path></g><g stroke-linecap="round"><g transform="translate(55.481259725205746 230.8682581552937) rotate(0 0 -97.60601944460687)"><path d="M0 0 C0 -32.54, 0 -162.68, 0 -195.21 M0 0 C0 -32.54, 0 -162.68, 0 -195.21" stroke="#1e1e1e" stroke-width="2" fill="none"></path></g><g transform="translate(55.481259725205746 230.8682581552937) rotate(0 0 -97.60601944460687)"><path d="M0 -195.21 L6.34 -181.62 L-6.34 -181.62 L0 -195.21" stroke="none" stroke-width="0" fill="#1e1e1e" fill-rule="evenodd"></path><path d="M0 -195.21 C1.7 -191.57, 3.4 -187.92, 6.34 -181.62 M0 -195.21 C1.54 -191.9, 3.08 -188.6, 6.34 -181.62 M6.34 -181.62 C1.33 -181.62, -3.69 -181.62, -6.34 -181.62 M6.34 -181.62 C1.58 -181.62, -3.18 -181.62, -6.34 -181.62 M-6.34 -181.62 C-4.39 -185.8, -2.44 -189.99, 0 -195.21 M-6.34 -181.62 C-4.09 -186.43, -1.85 -191.24, 0 -195.21 M0 -195.21 C0 -195.21, 0 -195.21, 0 -195.21 M0 -195.21 C0 -195.21, 0 -195.21, 0 -195.21" stroke="#1e1e1e" stroke-width="2" fill="none"></path></g></g><mask></mask><g stroke-linecap="round"><g transform="translate(51.217843094083946 69.03815362875935) rotate(0 5.343749058912408 0)"><path d="M0 0 C4.14 0, 8.28 0, 10.69 0 M0 0 C2.5 0, 5.01 0, 10.69 0" stroke="#1e1e1e" stroke-width="2" fill="none"></path></g></g><mask></mask><g transform="translate(10 55.08449713372079) rotate(0 14.458335876464844 11.5)"><svg overflow="visible" version="1.1" viewBox="0 0 28.916671752929688 23" width="28.916671752929688" height="23"><g font-family="Helvetica, Segoe UI Emoji" font-size="20px" color="#1e1e1e"><svg overflow="visible" style="vertical-align: -0.05ex;" xmlns="http://www.w3.org/2000/svg" width="2.891ex" height="1.557ex" role="img" focusable="false" viewBox="-2.76 -2.76 51.269 27.6" xmlns:xlink="http://www.w3.org/1999/xlink" x="0" y="5.933349609375"><defs><path id="MJX-159-TEX-N-31" d="M213 578L200 573Q186 568 160 563T102 556H83V602H102Q149 604 189 617T245 641T273 663Q275 666 285 666Q294 666 302 660V361L303 61Q310 54 315 52T339 48T401 46H427V0H416Q395 3 257 3Q121 3 100 0H88V46H114Q136 46 152 46T177 47T193 50T201 52T207 57T213 61V578Z"></path><path id="MJX-159-TEX-N-2E" d="M78 60Q78 84 95 102T138 120Q162 120 180 104T199 61Q199 36 182 18T139 0T96 17T78 60Z"></path><path id="MJX-159-TEX-N-30" d="M96 585Q152 666 249 666Q297 666 345 640T423 548Q460 465 460 320Q460 165 417 83Q397 41 362 16T301 -15T250 -22Q224 -22 198 -16T137 16T82 83Q39 165 39 320Q39 494 96 585ZM321 597Q291 629 250 629Q208 629 178 597Q153 571 145 525T137 333Q137 175 145 125T181 46Q209 16 250 16Q290 16 318 46Q347 76 354 130T362 333Q362 478 354 524T321 597Z"></path></defs><g stroke="currentColor" fill="currentColor" stroke-width="0" transform="translate(-2.76 23.957) scale(0.04011627906976744) scale(1,-1)"><g data-mml-node="math"><g data-mml-node="mn"><use data-c="31" xlink:href="#MJX-159-TEX-N-31"></use><use data-c="2E" xlink:href="#MJX-159-TEX-N-2E" transform="translate(500,0)"></use><use data-c="30" xlink:href="#MJX-159-TEX-N-30" transform="translate(778,0)"></use></g></g></g></svg></g></svg></g><g transform="translate(95.63527365097525 221.95980005528122) rotate(0 10.925003051757812 11.5)"><svg overflow="visible" version="1.1" viewBox="0 0 21.850006103515625 23" width="21.850006103515625" height="23"><g font-family="Helvetica, Segoe UI Emoji" font-size="20px" color="#1e1e1e"><svg overflow="visible" style="vertical-align: -0.339ex;" xmlns="http://www.w3.org/2000/svg" width="2.185ex" height="1.337ex" role="img" focusable="false" viewBox="-2.76 -2.76 45.094 27.6" xmlns:xlink="http://www.w3.org/1999/xlink" x="0" y="11.0167236328125"><defs><path id="MJX-296-TEX-I-1D44E" d="M33 157Q33 258 109 349T280 441Q331 441 370 392Q386 422 416 422Q429 422 439 414T449 394Q449 381 412 234T374 68Q374 43 381 35T402 26Q411 27 422 35Q443 55 463 131Q469 151 473 152Q475 153 483 153H487Q506 153 506 144Q506 138 501 117T481 63T449 13Q436 0 417 -8Q409 -10 393 -10Q359 -10 336 5T306 36L300 51Q299 52 296 50Q294 48 292 46Q233 -10 172 -10Q117 -10 75 30T33 157ZM351 328Q351 334 346 350T323 385T277 405Q242 405 210 374T160 293Q131 214 119 129Q119 126 119 118T118 106Q118 61 136 44T179 26Q217 26 254 59T298 110Q300 114 325 217T351 328Z"></path><path id="MJX-296-TEX-N-31" d="M213 578L200 573Q186 568 160 563T102 556H83V602H102Q149 604 189 617T245 641T273 663Q275 666 285 666Q294 666 302 660V361L303 61Q310 54 315 52T339 48T401 46H427V0H416Q395 3 257 3Q121 3 100 0H88V46H114Q136 46 152 46T177 47T193 50T201 52T207 57T213 61V578Z"></path></defs><g stroke="currentColor" fill="currentColor" stroke-width="0" transform="translate(-2.76 17.835) scale(0.046700507614213196) scale(1,-1)"><g data-mml-node="math"><g data-mml-node="msub"><g data-mml-node="mi"><use data-c="1D44E" xlink:href="#MJX-296-TEX-I-1D44E"></use></g><g data-mml-node="mn" transform="translate(562,-150) scale(0.707)"><use data-c="31" xlink:href="#MJX-296-TEX-N-31"></use></g></g></g></g></svg></g></svg></g><g transform="translate(151.74024739222114 221.95980005528122) rotate(0 10.925003051757812 11.5)"><svg overflow="visible" version="1.1" viewBox="0 0 21.850006103515625 23" width="21.850006103515625" height="23"><g font-family="Helvetica, Segoe UI Emoji" font-size="20px" color="#1e1e1e"><svg overflow="visible" style="vertical-align: -0.339ex;" xmlns="http://www.w3.org/2000/svg" width="2.185ex" height="1.337ex" role="img" focusable="false" viewBox="-2.76 -2.76 45.094 27.6" xmlns:xlink="http://www.w3.org/1999/xlink" x="0" y="11.0167236328125"><defs><path id="MJX-297-TEX-I-1D44E" d="M33 157Q33 258 109 349T280 441Q331 441 370 392Q386 422 416 422Q429 422 439 414T449 394Q449 381 412 234T374 68Q374 43 381 35T402 26Q411 27 422 35Q443 55 463 131Q469 151 473 152Q475 153 483 153H487Q506 153 506 144Q506 138 501 117T481 63T449 13Q436 0 417 -8Q409 -10 393 -10Q359 -10 336 5T306 36L300 51Q299 52 296 50Q294 48 292 46Q233 -10 172 -10Q117 -10 75 30T33 157ZM351 328Q351 334 346 350T323 385T277 405Q242 405 210 374T160 293Q131 214 119 129Q119 126 119 118T118 106Q118 61 136 44T179 26Q217 26 254 59T298 110Q300 114 325 217T351 328Z"></path><path id="MJX-297-TEX-N-32" d="M109 429Q82 429 66 447T50 491Q50 562 103 614T235 666Q326 666 387 610T449 465Q449 422 429 383T381 315T301 241Q265 210 201 149L142 93L218 92Q375 92 385 97Q392 99 409 186V189H449V186Q448 183 436 95T421 3V0H50V19V31Q50 38 56 46T86 81Q115 113 136 137Q145 147 170 174T204 211T233 244T261 278T284 308T305 340T320 369T333 401T340 431T343 464Q343 527 309 573T212 619Q179 619 154 602T119 569T109 550Q109 549 114 549Q132 549 151 535T170 489Q170 464 154 447T109 429Z"></path></defs><g stroke="currentColor" fill="currentColor" stroke-width="0" transform="translate(-2.76 17.835) scale(0.046700507614213196) scale(1,-1)"><g data-mml-node="math"><g data-mml-node="msub"><g data-mml-node="mi"><use data-c="1D44E" xlink:href="#MJX-297-TEX-I-1D44E"></use></g><g data-mml-node="mn" transform="translate(562,-150) scale(0.707)"><use data-c="32" xlink:href="#MJX-297-TEX-N-32"></use></g></g></g></g></svg></g></svg></g><g transform="translate(187.6493799369 222.51264806288623) rotate(0 31.550003051757812 11.5)"><svg overflow="visible" version="1.1" viewBox="0 0 63.100006103515625 23" width="63.100006103515625" height="23"><g font-family="Helvetica, Segoe UI Emoji" font-size="20px" color="#2f9e44"><svg overflow="visible" style="vertical-align: -0.464ex;" xmlns="http://www.w3.org/2000/svg" width="6.31ex" height="1.783ex" role="img" focusable="false" viewBox="-2.76 -2.76 97.689 27.6" xmlns:xlink="http://www.w3.org/1999/xlink" x="0" y="7.800048828125"><defs><path id="MJX-312-TEX-I-1D466" d="M21 287Q21 301 36 335T84 406T158 442Q199 442 224 419T250 355Q248 336 247 334Q247 331 231 288T198 191T182 105Q182 62 196 45T238 27Q261 27 281 38T312 61T339 94Q339 95 344 114T358 173T377 247Q415 397 419 404Q432 431 462 431Q475 431 483 424T494 412T496 403Q496 390 447 193T391 -23Q363 -106 294 -155T156 -205Q111 -205 77 -183T43 -117Q43 -95 50 -80T69 -58T89 -48T106 -45Q150 -45 150 -87Q150 -107 138 -122T115 -142T102 -147L99 -148Q101 -153 118 -160T152 -167H160Q177 -167 186 -165Q219 -156 247 -127T290 -65T313 -9T321 21L315 17Q309 13 296 6T270 -6Q250 -11 231 -11Q185 -11 150 11T104 82Q103 89 103 113Q103 170 138 262T173 379Q173 380 173 381Q173 390 173 393T169 400T158 404H154Q131 404 112 385T82 344T65 302T57 280Q55 278 41 278H27Q21 284 21 287Z"></path><path id="MJX-312-TEX-N-3D" d="M56 347Q56 360 70 367H707Q722 359 722 347Q722 336 708 328L390 327H72Q56 332 56 347ZM56 153Q56 168 72 173H708Q722 163 722 153Q722 140 707 133H70Q56 140 56 153Z"></path><path id="MJX-312-TEX-I-1D44E" d="M33 157Q33 258 109 349T280 441Q331 441 370 392Q386 422 416 422Q429 422 439 414T449 394Q449 381 412 234T374 68Q374 43 381 35T402 26Q411 27 422 35Q443 55 463 131Q469 151 473 152Q475 153 483 153H487Q506 153 506 144Q506 138 501 117T481 63T449 13Q436 0 417 -8Q409 -10 393 -10Q359 -10 336 5T306 36L300 51Q299 52 296 50Q294 48 292 46Q233 -10 172 -10Q117 -10 75 30T33 157ZM351 328Q351 334 346 350T323 385T277 405Q242 405 210 374T160 293Q131 214 119 129Q119 126 119 118T118 106Q118 61 136 44T179 26Q217 26 254 59T298 110Q300 114 325 217T351 328Z"></path><path id="MJX-312-TEX-N-33" d="M127 463Q100 463 85 480T69 524Q69 579 117 622T233 665Q268 665 277 664Q351 652 390 611T430 522Q430 470 396 421T302 350L299 348Q299 347 308 345T337 336T375 315Q457 262 457 175Q457 96 395 37T238 -22Q158 -22 100 21T42 130Q42 158 60 175T105 193Q133 193 151 175T169 130Q169 119 166 110T159 94T148 82T136 74T126 70T118 67L114 66Q165 21 238 21Q293 21 321 74Q338 107 338 175V195Q338 290 274 322Q259 328 213 329L171 330L168 332Q166 335 166 348Q166 366 174 366Q202 366 232 371Q266 376 294 413T322 525V533Q322 590 287 612Q265 626 240 626Q208 626 181 615T143 592T132 580H135Q138 579 143 578T153 573T165 566T175 555T183 540T186 520Q186 498 172 481T127 463Z"></path></defs><g stroke="currentColor" fill="currentColor" stroke-width="0" transform="translate(-2.76 17.660000000000004) scale(0.035025380710659894) scale(1,-1)"><g data-mml-node="math"><g data-mml-node="mi"><use data-c="1D466" xlink:href="#MJX-312-TEX-I-1D466"></use></g><g data-mml-node="mo" transform="translate(767.8,0)"><use data-c="3D" xlink:href="#MJX-312-TEX-N-3D"></use></g><g data-mml-node="msub" transform="translate(1823.6,0)"><g data-mml-node="mi"><use data-c="1D44E" xlink:href="#MJX-312-TEX-I-1D44E"></use></g><g data-mml-node="mn" transform="translate(562,-150) scale(0.707)"><use data-c="33" xlink:href="#MJX-312-TEX-N-33"></use></g></g></g></g></svg></g></svg></g><g transform="translate(104.75012919769051 10) rotate(0 127.375 11.5)"><svg overflow="visible" version="1.1" viewBox="0 0 254.75 23" width="254.75" height="23"><g font-family="Helvetica, Segoe UI Emoji" font-size="20px" color="#2f9e44"><text style="white-space: pre;" fill="#2f9e44" direction="ltr" text-anchor="start" x="0" y="21">Taken action ("ground truth")</text></g></svg></g></svg>