<svg version="1.1" xmlns="http://www.w3.org/2000/svg" viewBox="0 0 452.51666259765625 87.85000610351562" width="905.0333251953125" height="175.70001220703125">
  <!-- svg-source:excalidraw -->
  
  <defs>
    <style class="style-fonts">
      
    </style>
    
  </defs>
  <g transform="translate(10 10) rotate(0 216.25833129882812 33.92500305175781)"><svg overflow="visible" version="1.1" viewBox="0 0 432.51666259765625 67.85000610351562" width="432.51666259765625" height="67.85000610351562"><g font-family="Helvetica, Segoe UI Emoji" font-size="20px" color="#1e1e1e"><svg overflow="visible" style="vertical-align: -2.827ex;" xmlns="http://www.w3.org/2000/svg" width="43.251ex" height="6.785ex" role="img" focusable="false" viewBox="-8.142 -8.142 519.003 81.42" xmlns:xlink="http://www.w3.org/1999/xlink" x="0" y="-1"><defs><path id="MJX-482-TEX-N-2207" d="M46 676Q46 679 51 683H781Q786 679 786 676Q786 674 617 326T444 -26Q439 -33 416 -33T388 -26Q385 -22 216 326T46 676ZM697 596Q697 597 445 597T193 596Q195 591 319 336T445 80L697 596Z"></path><path id="MJX-482-TEX-I-1D703" d="M35 200Q35 302 74 415T180 610T319 704Q320 704 327 704T339 705Q393 701 423 656Q462 596 462 495Q462 380 417 261T302 66T168 -10H161Q125 -10 99 10T60 63T41 130T35 200ZM383 566Q383 668 330 668Q294 668 260 623T204 521T170 421T157 371Q206 370 254 370L351 371Q352 372 359 404T375 484T383 566ZM113 132Q113 26 166 26Q181 26 198 36T239 74T287 161T335 307L340 324H145Q145 321 136 286T120 208T113 132Z"></path><path id="MJX-482-TEX-I-1D43D" d="M447 625Q447 637 354 637H329Q323 642 323 645T325 664Q329 677 335 683H352Q393 681 498 681Q541 681 568 681T605 682T619 682Q633 682 633 672Q633 670 630 658Q626 642 623 640T604 637Q552 637 545 623Q541 610 483 376Q420 128 419 127Q397 64 333 21T195 -22Q137 -22 97 8T57 88Q57 130 80 152T132 174Q177 174 182 130Q182 98 164 80T123 56Q115 54 115 53T122 44Q148 15 197 15Q235 15 271 47T324 130Q328 142 387 380T447 625Z"></path><path id="MJX-482-TEX-N-28" d="M94 250Q94 319 104 381T127 488T164 576T202 643T244 695T277 729T302 750H315H319Q333 750 333 741Q333 738 316 720T275 667T226 581T184 443T167 250T184 58T225 -81T274 -167T316 -220T333 -241Q333 -250 318 -250H315H302L274 -226Q180 -141 137 -14T94 250Z"></path><path id="MJX-482-TEX-N-29" d="M60 749L64 750Q69 750 74 750H86L114 726Q208 641 251 514T294 250Q294 182 284 119T261 12T224 -76T186 -143T145 -194T113 -227T90 -246Q87 -249 86 -250H74Q66 -250 63 -250T58 -247T55 -238Q56 -237 66 -225Q221 -64 221 250T66 725Q56 737 55 738Q55 746 60 749Z"></path><path id="MJX-482-TEX-N-3D" d="M56 347Q56 360 70 367H707Q722 359 722 347Q722 336 708 328L390 327H72Q56 332 56 347ZM56 153Q56 168 72 173H708Q722 163 722 153Q722 140 707 133H70Q56 140 56 153Z"></path><path id="MJX-482-TEX-D-1D53C" d="M12 666Q12 675 24 683H582Q590 680 593 672V588Q593 514 591 502T575 490Q567 490 563 495T555 517Q552 556 517 590Q486 623 445 634T340 648H282Q266 636 264 620T260 492V370H277Q329 375 358 391T404 439Q420 480 420 506Q420 529 436 529Q445 529 451 521Q455 517 455 361Q455 333 455 298T456 253Q456 217 453 207T437 197Q420 196 420 217Q420 240 406 270Q377 328 284 335H260V201Q261 174 261 134Q262 73 264 61T278 38Q281 36 282 35H331Q400 35 449 50Q571 93 602 179Q605 203 622 203Q629 203 634 197T640 183Q638 181 624 95T604 3L600 -1H24Q12 5 12 16Q12 35 51 35Q92 38 97 52Q102 60 102 341T97 632Q91 645 51 648Q12 648 12 666ZM137 341Q137 131 136 89T130 37Q129 36 129 35H235Q233 41 231 48L226 61V623L231 635L235 648H129Q132 641 133 638T135 603T137 517T137 341ZM557 603V648H504Q504 646 515 639Q527 634 542 619L557 603ZM420 317V397L406 383Q394 370 380 363L366 355Q373 350 382 346Q400 333 409 328L420 317ZM582 61L586 88Q585 88 582 83Q557 61 526 46L511 37L542 35H577Q577 36 578 39T580 49T582 61Z"></path><path id="MJX-482-TEX-I-1D70F" d="M39 284Q18 284 18 294Q18 301 45 338T99 398Q134 425 164 429Q170 431 332 431Q492 431 497 429Q517 424 517 402Q517 388 508 376T485 360Q479 358 389 358T299 356Q298 355 283 274T251 109T233 20Q228 5 215 -4T186 -13Q153 -13 153 20V30L203 192Q214 228 227 272T248 336L254 357Q254 358 208 358Q206 358 197 358T183 359Q105 359 61 295Q56 287 53 286T39 284Z"></path><path id="MJX-482-TEX-N-223C" d="M55 166Q55 241 101 304T222 367Q260 367 296 349T362 304T421 252T484 208T554 189Q616 189 655 236T694 338Q694 350 698 358T708 367Q722 367 722 334Q722 260 677 197T562 134H554Q517 134 481 152T414 196T355 248T292 293T223 311Q179 311 145 286Q109 257 96 218T80 156T69 133Q55 133 55 166Z"></path><path id="MJX-482-TEX-I-1D70B" d="M132 -11Q98 -11 98 22V33L111 61Q186 219 220 334L228 358H196Q158 358 142 355T103 336Q92 329 81 318T62 297T53 285Q51 284 38 284Q19 284 19 294Q19 300 38 329T93 391T164 429Q171 431 389 431Q549 431 553 430Q573 423 573 402Q573 371 541 360Q535 358 472 358H408L405 341Q393 269 393 222Q393 170 402 129T421 65T431 37Q431 20 417 5T381 -10Q370 -10 363 -7T347 17T331 77Q330 86 330 121Q330 170 339 226T357 318T367 358H269L268 354Q268 351 249 275T206 114T175 17Q164 -11 132 -11Z"></path><path id="MJX-482-TEX-S4-5B" d="M269 -1249V1750H577V1677H342V-1176H577V-1249H269Z"></path><path id="MJX-482-TEX-I-1D445" d="M230 637Q203 637 198 638T193 649Q193 676 204 682Q206 683 378 683Q550 682 564 680Q620 672 658 652T712 606T733 563T739 529Q739 484 710 445T643 385T576 351T538 338L545 333Q612 295 612 223Q612 212 607 162T602 80V71Q602 53 603 43T614 25T640 16Q668 16 686 38T712 85Q717 99 720 102T735 105Q755 105 755 93Q755 75 731 36Q693 -21 641 -21H632Q571 -21 531 4T487 82Q487 109 502 166T517 239Q517 290 474 313Q459 320 449 321T378 323H309L277 193Q244 61 244 59Q244 55 245 54T252 50T269 48T302 46H333Q339 38 339 37T336 19Q332 6 326 0H311Q275 2 180 2Q146 2 117 2T71 2T50 1Q33 1 33 10Q33 12 36 24Q41 43 46 45Q50 46 61 46H67Q94 46 127 49Q141 52 146 61Q149 65 218 339T287 628Q287 635 230 637ZM630 554Q630 586 609 608T523 636Q521 636 500 636T462 637H440Q393 637 386 627Q385 624 352 494T319 361Q319 360 388 360Q466 361 492 367Q556 377 592 426Q608 449 619 486T630 554Z"></path><path id="MJX-482-TEX-LO-2211" d="M60 948Q63 950 665 950H1267L1325 815Q1384 677 1388 669H1348L1341 683Q1320 724 1285 761Q1235 809 1174 838T1033 881T882 898T699 902H574H543H251L259 891Q722 258 724 252Q725 250 724 246Q721 243 460 -56L196 -356Q196 -357 407 -357Q459 -357 548 -357T676 -358Q812 -358 896 -353T1063 -332T1204 -283T1307 -196Q1328 -170 1348 -124H1388Q1388 -125 1381 -145T1356 -210T1325 -294L1267 -449L666 -450Q64 -450 61 -448Q55 -446 55 -439Q55 -437 57 -433L590 177Q590 178 557 222T452 366T322 544L56 909L55 924Q55 945 60 948Z"></path><path id="MJX-482-TEX-I-1D461" d="M26 385Q19 392 19 395Q19 399 22 411T27 425Q29 430 36 430T87 431H140L159 511Q162 522 166 540T173 566T179 586T187 603T197 615T211 624T229 626Q247 625 254 615T261 596Q261 589 252 549T232 470L222 433Q222 431 272 431H323Q330 424 330 420Q330 398 317 385H210L174 240Q135 80 135 68Q135 26 162 26Q197 26 230 60T283 144Q285 150 288 151T303 153H307Q322 153 322 145Q322 142 319 133Q314 117 301 95T267 48T216 6T155 -11Q125 -11 98 4T59 56Q57 64 57 83V101L92 241Q127 382 128 383Q128 385 77 385H26Z"></path><path id="MJX-482-TEX-N-30" d="M96 585Q152 666 249 666Q297 666 345 640T423 548Q460 465 460 320Q460 165 417 83Q397 41 362 16T301 -15T250 -22Q224 -22 198 -16T137 16T82 83Q39 165 39 320Q39 494 96 585ZM321 597Q291 629 250 629Q208 629 178 597Q153 571 145 525T137 333Q137 175 145 125T181 46Q209 16 250 16Q290 16 318 46Q347 76 354 130T362 333Q362 478 354 524T321 597Z"></path><path id="MJX-482-TEX-I-1D447" d="M40 437Q21 437 21 445Q21 450 37 501T71 602L88 651Q93 669 101 677H569H659Q691 677 697 676T704 667Q704 661 687 553T668 444Q668 437 649 437Q640 437 637 437T631 442L629 445Q629 451 635 490T641 551Q641 586 628 604T573 629Q568 630 515 631Q469 631 457 630T439 622Q438 621 368 343T298 60Q298 48 386 46Q418 46 427 45T436 36Q436 31 433 22Q429 4 424 1L422 0Q419 0 415 0Q410 0 363 1T228 2Q99 2 64 0H49Q43 6 43 9T45 27Q49 40 55 46H83H94Q174 46 189 55Q190 56 191 56Q196 59 201 76T241 233Q258 301 269 344Q339 619 339 625Q339 630 310 630H279Q212 630 191 624Q146 614 121 583T67 467Q60 445 57 441T43 437H40Z"></path><path id="MJX-482-TEX-N-6C" d="M42 46H56Q95 46 103 60V68Q103 77 103 91T103 124T104 167T104 217T104 272T104 329Q104 366 104 407T104 482T104 542T103 586T103 603Q100 622 89 628T44 637H26V660Q26 683 28 683L38 684Q48 685 67 686T104 688Q121 689 141 690T171 693T182 694H185V379Q185 62 186 60Q190 52 198 49Q219 46 247 46H263V0H255L232 1Q209 2 183 2T145 3T107 3T57 1L34 0H26V46H42Z"></path><path id="MJX-482-TEX-N-6F" d="M28 214Q28 309 93 378T250 448Q340 448 405 380T471 215Q471 120 407 55T250 -10Q153 -10 91 57T28 214ZM250 30Q372 30 372 193V225V250Q372 272 371 288T364 326T348 362T317 390T268 410Q263 411 252 411Q222 411 195 399Q152 377 139 338T126 246V226Q126 130 145 91Q177 30 250 30Z"></path><path id="MJX-482-TEX-N-67" d="M329 409Q373 453 429 453Q459 453 472 434T485 396Q485 382 476 371T449 360Q416 360 412 390Q410 404 415 411Q415 412 416 414V415Q388 412 363 393Q355 388 355 386Q355 385 359 381T368 369T379 351T388 325T392 292Q392 230 343 187T222 143Q172 143 123 171Q112 153 112 133Q112 98 138 81Q147 75 155 75T227 73Q311 72 335 67Q396 58 431 26Q470 -13 470 -72Q470 -139 392 -175Q332 -206 250 -206Q167 -206 107 -175Q29 -140 29 -75Q29 -39 50 -15T92 18L103 24Q67 55 67 108Q67 155 96 193Q52 237 52 292Q52 355 102 398T223 442Q274 442 318 416L329 409ZM299 343Q294 371 273 387T221 404Q192 404 171 388T145 343Q142 326 142 292Q142 248 149 227T179 192Q196 182 222 182Q244 182 260 189T283 207T294 227T299 242Q302 258 302 292T299 343ZM403 -75Q403 -50 389 -34T348 -11T299 -2T245 0H218Q151 0 138 -6Q118 -15 107 -34T95 -74Q95 -84 101 -97T122 -127T170 -155T250 -167Q319 -167 361 -139T403 -75Z"></path><path id="MJX-482-TEX-N-2061" d=""></path><path id="MJX-482-TEX-I-1D44E" d="M33 157Q33 258 109 349T280 441Q331 441 370 392Q386 422 416 422Q429 422 439 414T449 394Q449 381 412 234T374 68Q374 43 381 35T402 26Q411 27 422 35Q443 55 463 131Q469 151 473 152Q475 153 483 153H487Q506 153 506 144Q506 138 501 117T481 63T449 13Q436 0 417 -8Q409 -10 393 -10Q359 -10 336 5T306 36L300 51Q299 52 296 50Q294 48 292 46Q233 -10 172 -10Q117 -10 75 30T33 157ZM351 328Q351 334 346 350T323 385T277 405Q242 405 210 374T160 293Q131 214 119 129Q119 126 119 118T118 106Q118 61 136 44T179 26Q217 26 254 59T298 110Q300 114 325 217T351 328Z"></path><path id="MJX-482-TEX-N-2223" d="M139 -249H137Q125 -249 119 -235V251L120 737Q130 750 139 750Q152 750 159 735V-235Q151 -249 141 -249H139Z"></path><path id="MJX-482-TEX-I-1D460" d="M131 289Q131 321 147 354T203 415T300 442Q362 442 390 415T419 355Q419 323 402 308T364 292Q351 292 340 300T328 326Q328 342 337 354T354 372T367 378Q368 378 368 379Q368 382 361 388T336 399T297 405Q249 405 227 379T204 326Q204 301 223 291T278 274T330 259Q396 230 396 163Q396 135 385 107T352 51T289 7T195 -10Q118 -10 86 19T53 87Q53 126 74 143T118 160Q133 160 146 151T160 120Q160 94 142 76T111 58Q109 57 108 57T107 55Q108 52 115 47T146 34T201 27Q237 27 263 38T301 66T318 97T323 122Q323 150 302 164T254 181T195 196T148 231Q131 256 131 289Z"></path><path id="MJX-482-TEX-S4-5D" d="M5 1677V1750H313V-1249H5V-1176H240V1677H5Z"></path></defs><g stroke="currentColor" fill="currentColor" stroke-width="0" transform="translate(-8.142 39.355000000000004) scale(0.027149052125448065) scale(1,-1)"><g data-mml-node="math"><g data-mml-node="msub"><g data-mml-node="mi"><use data-c="2207" xlink:href="#MJX-482-TEX-N-2207"></use></g><g data-mml-node="mi" transform="translate(866,-150) scale(0.707)"><use data-c="1D703" xlink:href="#MJX-482-TEX-I-1D703"></use></g></g><g data-mml-node="mi" transform="translate(1247.6,0)"><use data-c="1D43D" xlink:href="#MJX-482-TEX-I-1D43D"></use></g><g data-mml-node="mo" transform="translate(1880.6,0)"><use data-c="28" xlink:href="#MJX-482-TEX-N-28"></use></g><g data-mml-node="mi" transform="translate(2269.6,0)"><use data-c="1D703" xlink:href="#MJX-482-TEX-I-1D703"></use></g><g data-mml-node="mo" transform="translate(2738.6,0)"><use data-c="29" xlink:href="#MJX-482-TEX-N-29"></use></g><g data-mml-node="mo" transform="translate(3405.4,0)"><use data-c="3D" xlink:href="#MJX-482-TEX-N-3D"></use></g><g data-mml-node="msub" transform="translate(4461.2,0)"><g data-mml-node="TeXAtom" data-mjx-texclass="ORD"><g data-mml-node="mi"><use data-c="1D53C" xlink:href="#MJX-482-TEX-D-1D53C"></use></g></g><g data-mml-node="TeXAtom" transform="translate(700,-150) scale(0.707)" data-mjx-texclass="ORD"><g data-mml-node="mi"><use data-c="1D70F" xlink:href="#MJX-482-TEX-I-1D70F"></use></g><g data-mml-node="mo" transform="translate(517,0)"><use data-c="223C" xlink:href="#MJX-482-TEX-N-223C"></use></g><g data-mml-node="msub" transform="translate(1295,0)"><g data-mml-node="mi"><use data-c="1D70B" xlink:href="#MJX-482-TEX-I-1D70B"></use></g><g data-mml-node="mi" transform="translate(603,-150) scale(0.707)"><use data-c="1D703" xlink:href="#MJX-482-TEX-I-1D703"></use></g></g></g></g><g data-mml-node="TeXAtom" data-mjx-texclass="INNER" transform="translate(6989.8,0)"><g data-mml-node="mo" transform="translate(0 -0.5)"><use data-c="5B" xlink:href="#MJX-482-TEX-S4-5B"></use></g><g data-mml-node="mi" transform="translate(583,0)"><use data-c="1D445" xlink:href="#MJX-482-TEX-I-1D445"></use></g><g data-mml-node="mo" transform="translate(1342,0)"><use data-c="28" xlink:href="#MJX-482-TEX-N-28"></use></g><g data-mml-node="mi" transform="translate(1731,0)"><use data-c="1D70F" xlink:href="#MJX-482-TEX-I-1D70F"></use></g><g data-mml-node="mo" transform="translate(2248,0)"><use data-c="29" xlink:href="#MJX-482-TEX-N-29"></use></g><g data-mml-node="munderover" transform="translate(2803.7,0)"><g data-mml-node="mo"><use data-c="2211" xlink:href="#MJX-482-TEX-LO-2211"></use></g><g data-mml-node="TeXAtom" transform="translate(142.5,-1087.9) scale(0.707)" data-mjx-texclass="ORD"><g data-mml-node="mi"><use data-c="1D461" xlink:href="#MJX-482-TEX-I-1D461"></use></g><g data-mml-node="mo" transform="translate(361,0)"><use data-c="3D" xlink:href="#MJX-482-TEX-N-3D"></use></g><g data-mml-node="mn" transform="translate(1139,0)"><use data-c="30" xlink:href="#MJX-482-TEX-N-30"></use></g></g><g data-mml-node="TeXAtom" transform="translate(473.1,1150) scale(0.707)" data-mjx-texclass="ORD"><g data-mml-node="mi"><use data-c="1D447" xlink:href="#MJX-482-TEX-I-1D447"></use></g></g></g><g data-mml-node="msub" transform="translate(4414.3,0)"><g data-mml-node="mi"><use data-c="2207" xlink:href="#MJX-482-TEX-N-2207"></use></g><g data-mml-node="mi" transform="translate(866,-150) scale(0.707)"><use data-c="1D703" xlink:href="#MJX-482-TEX-I-1D703"></use></g></g><g data-mml-node="mi" transform="translate(5828.6,0)"><use data-c="6C" xlink:href="#MJX-482-TEX-N-6C"></use><use data-c="6F" xlink:href="#MJX-482-TEX-N-6F" transform="translate(278,0)"></use><use data-c="67" xlink:href="#MJX-482-TEX-N-67" transform="translate(778,0)"></use></g><g data-mml-node="mo" transform="translate(7106.6,0)"><use data-c="2061" xlink:href="#MJX-482-TEX-N-2061"></use></g><g data-mml-node="msub" transform="translate(7273.3,0)"><g data-mml-node="mi"><use data-c="1D70B" xlink:href="#MJX-482-TEX-I-1D70B"></use></g><g data-mml-node="mi" transform="translate(603,-150) scale(0.707)"><use data-c="1D703" xlink:href="#MJX-482-TEX-I-1D703"></use></g></g><g data-mml-node="mo" transform="translate(8257.9,0)"><use data-c="28" xlink:href="#MJX-482-TEX-N-28"></use></g><g data-mml-node="msub" transform="translate(8646.9,0)"><g data-mml-node="mi"><use data-c="1D44E" xlink:href="#MJX-482-TEX-I-1D44E"></use></g><g data-mml-node="mi" transform="translate(562,-150) scale(0.707)"><use data-c="1D461" xlink:href="#MJX-482-TEX-I-1D461"></use></g></g><g data-mml-node="mo" transform="translate(9792,0)"><use data-c="2223" xlink:href="#MJX-482-TEX-N-2223"></use></g><g data-mml-node="msub" transform="translate(10347.8,0)"><g data-mml-node="mi"><use data-c="1D460" xlink:href="#MJX-482-TEX-I-1D460"></use></g><g data-mml-node="mi" transform="translate(502,-150) scale(0.707)"><use data-c="1D461" xlink:href="#MJX-482-TEX-I-1D461"></use></g></g><g data-mml-node="mo" transform="translate(11155,0)"><use data-c="29" xlink:href="#MJX-482-TEX-N-29"></use></g><g data-mml-node="mo" transform="translate(11544,0) translate(0 -0.5)"><use data-c="5D" xlink:href="#MJX-482-TEX-S4-5D"></use></g></g></g></g></svg></g></svg></g></svg>