<?xml version="1.0" standalone="no"?>
<!DOCTYPE svg PUBLIC "-//W3C//DTD SVG 1.1//EN" "http://www.w3.org/Graphics/SVG/1.1/DTD/svg11.dtd">
<svg version="1.1" xmlns="http://www.w3.org/2000/svg" viewBox="0 0 723.6650254244684 380" width="1447.3300508489367" height="760"><!-- svg-source:excalidraw --><metadata></metadata><defs><style class="style-fonts">
      @font-face { font-family: Excalifont; src: url(https://esm.sh/@excalidraw/excalidraw/dist/prod/fonts/Excalifont/Excalifont-Regular-a88b72a24fb54c9f94e3b5fdaa7481c9.woff2); }
      @font-face { font-family: Nunito; src: url(https://esm.sh/@excalidraw/excalidraw/dist/prod/fonts/Nunito/Nunito-Regular-XRXI3I6Li01BKofiOc5wtlZ2di8HDIkhdTQ3j6zbXWjgeg.woff2); }</style></defs><g stroke-linecap="round" transform="translate(84.17256326626523 70) rotate(0 210 50)"><path d="M25 0 C154.99 0, 284.99 0, 395 0 M25 0 C139.61 0, 254.22 0, 395 0 M395 0 C411.67 0, 420 8.33, 420 25 M395 0 C411.67 0, 420 8.33, 420 25 M420 25 C420 42.7, 420 60.4, 420 75 M420 25 C420 37.98, 420 50.96, 420 75 M420 75 C420 91.67, 411.67 100, 395 100 M420 75 C420 91.67, 411.67 100, 395 100 M395 100 C274.99 100, 154.98 100, 25 100 M395 100 C262.71 100, 130.43 100, 25 100 M25 100 C8.33 100, 0 91.67, 0 75 M25 100 C8.33 100, 0 91.67, 0 75 M0 75 C0 60.93, 0 46.86, 0 25 M0 75 C0 58.03, 0 41.05, 0 25 M0 25 C0 8.33, 8.33 0, 25 0 M0 25 C0 8.33, 8.33 0, 25 0" stroke="#228be6" stroke-width="4" fill="none"></path></g><g stroke-linecap="round" transform="translate(83.92256326626523 275) rotate(0 210.125 47.5)"><path d="M23.75 0 C131.11 0, 238.46 0, 396.5 0 M23.75 0 C141.91 0, 260.07 0, 396.5 0 M396.5 0 C412.33 0, 420.25 7.92, 420.25 23.75 M396.5 0 C412.33 0, 420.25 7.92, 420.25 23.75 M420.25 23.75 C420.25 41.51, 420.25 59.27, 420.25 71.25 M420.25 23.75 C420.25 35.7, 420.25 47.65, 420.25 71.25 M420.25 71.25 C420.25 87.08, 412.33 95, 396.5 95 M420.25 71.25 C420.25 87.08, 412.33 95, 396.5 95 M396.5 95 C292.99 95, 189.49 95, 23.75 95 M396.5 95 C299.06 95, 201.61 95, 23.75 95 M23.75 95 C7.92 95, 0 87.08, 0 71.25 M23.75 95 C7.92 95, 0 87.08, 0 71.25 M0 71.25 C0 52.53, 0 33.81, 0 23.75 M0 71.25 C0 54.75, 0 38.25, 0 23.75 M0 23.75 C0 7.92, 7.92 0, 23.75 0 M0 23.75 C0 7.92, 7.92 0, 23.75 0" stroke="#7950f2" stroke-width="4" fill="none"></path></g><g transform="translate(10 19.241642346155146) rotate(0 136.3295440673828 17.5)"><text x="0" y="24.668" font-family="Excalifont, Xiaolai, sans-serif, Segoe UI Emoji" font-size="28px" fill="#228be6" text-anchor="start" style="white-space: pre;" direction="ltr" dominant-baseline="alphabetic">1. Collect experience</text></g><g transform="translate(10 223.2063187120134) rotate(0 156.8295440673828 17.5)"><text x="0" y="24.668" font-family="Excalifont, Xiaolai, sans-serif, Segoe UI Emoji" font-size="28px" fill="#7950f2" text-anchor="start" style="white-space: pre;" direction="ltr" dominant-baseline="alphabetic">2. Update the network</text></g><g transform="translate(106.21801919888242 95) rotate(0 187.9545440673828 25)"><text x="187.9545440673828" y="19.08" font-family="Nunito, sans-serif, Segoe UI Emoji" font-size="20px" fill="#000000" text-anchor="middle" style="white-space: pre;" direction="ltr" dominant-baseline="alphabetic">Use the current stochastic policy</text><text x="187.9545440673828" y="44.08" font-family="Nunito, sans-serif, Segoe UI Emoji" font-size="20px" fill="#000000" text-anchor="middle" style="white-space: pre;" direction="ltr" dominant-baseline="alphabetic">in the environment, fill the episode buffer.</text></g><g transform="translate(167.96801919888242 297.5) rotate(0 126.07954406738281 25)"><text x="126.07954406738281" y="19.08" font-family="Nunito, sans-serif, Segoe UI Emoji" font-size="20px" fill="#000000" text-anchor="middle" style="white-space: pre;" direction="ltr" dominant-baseline="alphabetic">Estimate the policy gradient</text><text x="126.07954406738281" y="44.08" font-family="Nunito, sans-serif, Segoe UI Emoji" font-size="20px" fill="#000000" text-anchor="middle" style="white-space: pre;" direction="ltr" dominant-baseline="alphabetic">and update the policy.</text></g><g stroke-linecap="round"><g transform="translate(363.0499310483291 172) rotate(0 0.5380767103708877 46.971320414519425)"><path d="M0 0 C0.18 15.66, 0.9 78.29, 1.08 93.94 M0 0 C0.18 15.66, 0.9 78.29, 1.08 93.94" stroke="#228be6" stroke-width="4" fill="none"></path></g><g transform="translate(363.0499310483291 172) rotate(0 0.5380767103708877 46.971320414519425)"><path d="M1.08 93.94 L-5.42 80.42 L7.26 80.28 L1.08 93.94" stroke="none" stroke-width="0" fill="#228be6" fill-rule="evenodd"></path><path d="M1.08 93.94 C-1.23 89.14, -3.54 84.34, -5.42 80.42 M1.08 93.94 C-0.23 91.23, -1.53 88.51, -5.42 80.42 M-5.42 80.42 C-2.03 80.38, 1.36 80.34, 7.26 80.28 M-5.42 80.42 C-0.91 80.37, 3.6 80.32, 7.26 80.28 M7.26 80.28 C5.47 84.23, 3.68 88.19, 1.08 93.94 M7.26 80.28 C5.52 84.13, 3.77 87.98, 1.08 93.94 M1.08 93.94 C1.08 93.94, 1.08 93.94, 1.08 93.94 M1.08 93.94 C1.08 93.94, 1.08 93.94, 1.08 93.94" stroke="#228be6" stroke-width="4" fill="none"></path></g></g><mask></mask><g transform="translate(384.17256326626523 210) rotate(0 50.568180084228516 10)"><text x="0" y="15.264000000000001" font-family="Nunito, sans-serif, Segoe UI Emoji" font-size="16px" fill="#000000" text-anchor="start" style="white-space: pre;" direction="ltr" dominant-baseline="alphabetic">Every episode</text></g><g transform="translate(562.5059372897027 65.9000244140625) rotate(0 75.57954406738281 62.5)"><text x="0" y="19.08" font-family="Nunito, sans-serif, Segoe UI Emoji" font-size="20px" fill="#000000" text-anchor="start" style="white-space: pre;" direction="ltr" dominant-baseline="alphabetic">Repeat until</text><text x="0" y="44.08" font-family="Nunito, sans-serif, Segoe UI Emoji" font-size="20px" fill="#000000" text-anchor="start" style="white-space: pre;" direction="ltr" dominant-baseline="alphabetic">the total number</text><text x="0" y="69.08" font-family="Nunito, sans-serif, Segoe UI Emoji" font-size="20px" fill="#000000" text-anchor="start" style="white-space: pre;" direction="ltr" dominant-baseline="alphabetic">of timesteps</text><text x="0" y="94.08" font-family="Nunito, sans-serif, Segoe UI Emoji" font-size="20px" fill="#000000" text-anchor="start" style="white-space: pre;" direction="ltr" dominant-baseline="alphabetic">is greater than</text><text x="0" y="119.08" font-family="Nunito, sans-serif, Segoe UI Emoji" font-size="20px" fill="#000000" text-anchor="start" style="white-space: pre;" direction="ltr" dominant-baseline="alphabetic">the budget</text></g><g stroke-linecap="round"><g transform="translate(506.1226792755459 322.42910447761193) rotate(0 -51.82712435459587 -156.21455223880596)"><path d="M0 0 C8.4 0, 16.8 0, 22.05 0 M0 0 C4.41 0, 8.83 0, 22.05 0 M22.05 0 C32.72 0, 38.05 -5.33, 38.05 -16 M22.05 0 C32.72 0, 38.05 -5.33, 38.05 -16 M38.05 -16 C38.05 -97.17, 38.05 -178.34, 38.05 -296.43 M38.05 -16 C38.05 -95.02, 38.05 -174.04, 38.05 -296.43 M38.05 -296.43 C38.05 -307.1, 32.72 -312.43, 22.05 -312.43 M38.05 -296.43 C38.05 -307.1, 32.72 -312.43, 22.05 -312.43 M22.05 -312.43 C-30.68 -312.43, -83.4 -312.43, -125.7 -312.43 M22.05 -312.43 C-22.97 -312.43, -68 -312.43, -125.7 -312.43 M-125.7 -312.43 C-136.37 -312.43, -141.7 -307.1, -141.7 -296.43 M-125.7 -312.43 C-136.37 -312.43, -141.7 -307.1, -141.7 -296.43 M-141.7 -296.43 C-141.7 -285.43, -141.7 -274.43, -141.7 -260.67 M-141.7 -296.43 C-141.7 -286.95, -141.7 -277.46, -141.7 -260.67" stroke="#7950f2" stroke-width="4" fill="none"></path></g><g transform="translate(506.1226792755459 322.42910447761193) rotate(0 -51.82712435459587 -156.21455223880596)"><path d="M-141.7 -260.67 L-148.04 -274.26 L-135.36 -274.26 L-141.7 -260.67" stroke="none" stroke-width="0" fill="#7950f2" fill-rule="evenodd"></path><path d="M-141.7 -260.67 C-144.12 -265.85, -146.53 -271.03, -148.04 -274.26 M-141.7 -260.67 C-142.97 -263.39, -144.24 -266.11, -148.04 -274.26 M-148.04 -274.26 C-144.43 -274.26, -140.81 -274.26, -135.36 -274.26 M-148.04 -274.26 C-145.44 -274.26, -142.84 -274.26, -135.36 -274.26 M-135.36 -274.26 C-137.13 -270.49, -138.89 -266.71, -141.7 -260.67 M-135.36 -274.26 C-137.02 -270.71, -138.68 -267.15, -141.7 -260.67 M-141.7 -260.67 C-141.7 -260.67, -141.7 -260.67, -141.7 -260.67 M-141.7 -260.67 C-141.7 -260.67, -141.7 -260.67, -141.7 -260.67" stroke="#7950f2" stroke-width="4" fill="none"></path></g></g><mask></mask></svg>