<svg version="1.1" xmlns="http://www.w3.org/2000/svg" viewBox="0 0 251.68333435058594 87.85000610351562" width="503.3666687011719" height="175.70001220703125">
  <!-- svg-source:excalidraw -->
  
  <defs>
    <style class="style-fonts">
      
    </style>
    
  </defs>
  <g transform="translate(10 10) rotate(0 115.84166717529297 33.92500305175781)"><svg overflow="visible" version="1.1" viewBox="0 0 231.68333435058594 67.85000610351562" width="231.68333435058594" height="67.85000610351562"><g font-family="Helvetica, Segoe UI Emoji" font-size="20px" color="#1e1e1e"><svg overflow="visible" style="vertical-align: -2.827ex;" xmlns="http://www.w3.org/2000/svg" width="23.169ex" height="6.785ex" role="img" focusable="false" viewBox="-8.142 -8.142 278.023 81.42" xmlns:xlink="http://www.w3.org/1999/xlink" x="0" y="-1"><defs><path id="MJX-480-TEX-I-1D43D" d="M447 625Q447 637 354 637H329Q323 642 323 645T325 664Q329 677 335 683H352Q393 681 498 681Q541 681 568 681T605 682T619 682Q633 682 633 672Q633 670 630 658Q626 642 623 640T604 637Q552 637 545 623Q541 610 483 376Q420 128 419 127Q397 64 333 21T195 -22Q137 -22 97 8T57 88Q57 130 80 152T132 174Q177 174 182 130Q182 98 164 80T123 56Q115 54 115 53T122 44Q148 15 197 15Q235 15 271 47T324 130Q328 142 387 380T447 625Z"></path><path id="MJX-480-TEX-N-28" d="M94 250Q94 319 104 381T127 488T164 576T202 643T244 695T277 729T302 750H315H319Q333 750 333 741Q333 738 316 720T275 667T226 581T184 443T167 250T184 58T225 -81T274 -167T316 -220T333 -241Q333 -250 318 -250H315H302L274 -226Q180 -141 137 -14T94 250Z"></path><path id="MJX-480-TEX-I-1D703" d="M35 200Q35 302 74 415T180 610T319 704Q320 704 327 704T339 705Q393 701 423 656Q462 596 462 495Q462 380 417 261T302 66T168 -10H161Q125 -10 99 10T60 63T41 130T35 200ZM383 566Q383 668 330 668Q294 668 260 623T204 521T170 421T157 371Q206 370 254 370L351 371Q352 372 359 404T375 484T383 566ZM113 132Q113 26 166 26Q181 26 198 36T239 74T287 161T335 307L340 324H145Q145 321 136 286T120 208T113 132Z"></path><path id="MJX-480-TEX-N-29" d="M60 749L64 750Q69 750 74 750H86L114 726Q208 641 251 514T294 250Q294 182 284 119T261 12T224 -76T186 -143T145 -194T113 -227T90 -246Q87 -249 86 -250H74Q66 -250 63 -250T58 -247T55 -238Q56 -237 66 -225Q221 -64 221 250T66 725Q56 737 55 738Q55 746 60 749Z"></path><path id="MJX-480-TEX-N-3D" d="M56 347Q56 360 70 367H707Q722 359 722 347Q722 336 708 328L390 327H72Q56 332 56 347ZM56 153Q56 168 72 173H708Q722 163 722 153Q722 140 707 133H70Q56 140 56 153Z"></path><path id="MJX-480-TEX-D-1D53C" d="M12 666Q12 675 24 683H582Q590 680 593 672V588Q593 514 591 502T575 490Q567 490 563 495T555 517Q552 556 517 590Q486 623 445 634T340 648H282Q266 636 264 620T260 492V370H277Q329 375 358 391T404 439Q420 480 420 506Q420 529 436 529Q445 529 451 521Q455 517 455 361Q455 333 455 298T456 253Q456 217 453 207T437 197Q420 196 420 217Q420 240 406 270Q377 328 284 335H260V201Q261 174 261 134Q262 73 264 61T278 38Q281 36 282 35H331Q400 35 449 50Q571 93 602 179Q605 203 622 203Q629 203 634 197T640 183Q638 181 624 95T604 3L600 -1H24Q12 5 12 16Q12 35 51 35Q92 38 97 52Q102 60 102 341T97 632Q91 645 51 648Q12 648 12 666ZM137 341Q137 131 136 89T130 37Q129 36 129 35H235Q233 41 231 48L226 61V623L231 635L235 648H129Q132 641 133 638T135 603T137 517T137 341ZM557 603V648H504Q504 646 515 639Q527 634 542 619L557 603ZM420 317V397L406 383Q394 370 380 363L366 355Q373 350 382 346Q400 333 409 328L420 317ZM582 61L586 88Q585 88 582 83Q557 61 526 46L511 37L542 35H577Q577 36 578 39T580 49T582 61Z"></path><path id="MJX-480-TEX-I-1D70F" d="M39 284Q18 284 18 294Q18 301 45 338T99 398Q134 425 164 429Q170 431 332 431Q492 431 497 429Q517 424 517 402Q517 388 508 376T485 360Q479 358 389 358T299 356Q298 355 283 274T251 109T233 20Q228 5 215 -4T186 -13Q153 -13 153 20V30L203 192Q214 228 227 272T248 336L254 357Q254 358 208 358Q206 358 197 358T183 359Q105 359 61 295Q56 287 53 286T39 284Z"></path><path id="MJX-480-TEX-N-223C" d="M55 166Q55 241 101 304T222 367Q260 367 296 349T362 304T421 252T484 208T554 189Q616 189 655 236T694 338Q694 350 698 358T708 367Q722 367 722 334Q722 260 677 197T562 134H554Q517 134 481 152T414 196T355 248T292 293T223 311Q179 311 145 286Q109 257 96 218T80 156T69 133Q55 133 55 166Z"></path><path id="MJX-480-TEX-I-1D70B" d="M132 -11Q98 -11 98 22V33L111 61Q186 219 220 334L228 358H196Q158 358 142 355T103 336Q92 329 81 318T62 297T53 285Q51 284 38 284Q19 284 19 294Q19 300 38 329T93 391T164 429Q171 431 389 431Q549 431 553 430Q573 423 573 402Q573 371 541 360Q535 358 472 358H408L405 341Q393 269 393 222Q393 170 402 129T421 65T431 37Q431 20 417 5T381 -10Q370 -10 363 -7T347 17T331 77Q330 86 330 121Q330 170 339 226T357 318T367 358H269L268 354Q268 351 249 275T206 114T175 17Q164 -11 132 -11Z"></path><path id="MJX-480-TEX-S4-5B" d="M269 -1249V1750H577V1677H342V-1176H577V-1249H269Z"></path><path id="MJX-480-TEX-LO-2211" d="M60 948Q63 950 665 950H1267L1325 815Q1384 677 1388 669H1348L1341 683Q1320 724 1285 761Q1235 809 1174 838T1033 881T882 898T699 902H574H543H251L259 891Q722 258 724 252Q725 250 724 246Q721 243 460 -56L196 -356Q196 -357 407 -357Q459 -357 548 -357T676 -358Q812 -358 896 -353T1063 -332T1204 -283T1307 -196Q1328 -170 1348 -124H1388Q1388 -125 1381 -145T1356 -210T1325 -294L1267 -449L666 -450Q64 -450 61 -448Q55 -446 55 -439Q55 -437 57 -433L590 177Q590 178 557 222T452 366T322 544L56 909L55 924Q55 945 60 948Z"></path><path id="MJX-480-TEX-I-1D461" d="M26 385Q19 392 19 395Q19 399 22 411T27 425Q29 430 36 430T87 431H140L159 511Q162 522 166 540T173 566T179 586T187 603T197 615T211 624T229 626Q247 625 254 615T261 596Q261 589 252 549T232 470L222 433Q222 431 272 431H323Q330 424 330 420Q330 398 317 385H210L174 240Q135 80 135 68Q135 26 162 26Q197 26 230 60T283 144Q285 150 288 151T303 153H307Q322 153 322 145Q322 142 319 133Q314 117 301 95T267 48T216 6T155 -11Q125 -11 98 4T59 56Q57 64 57 83V101L92 241Q127 382 128 383Q128 385 77 385H26Z"></path><path id="MJX-480-TEX-N-30" d="M96 585Q152 666 249 666Q297 666 345 640T423 548Q460 465 460 320Q460 165 417 83Q397 41 362 16T301 -15T250 -22Q224 -22 198 -16T137 16T82 83Q39 165 39 320Q39 494 96 585ZM321 597Q291 629 250 629Q208 629 178 597Q153 571 145 525T137 333Q137 175 145 125T181 46Q209 16 250 16Q290 16 318 46Q347 76 354 130T362 333Q362 478 354 524T321 597Z"></path><path id="MJX-480-TEX-N-221E" d="M55 217Q55 305 111 373T254 442Q342 442 419 381Q457 350 493 303L507 284L514 294Q618 442 747 442Q833 442 888 374T944 214Q944 128 889 59T743 -11Q657 -11 580 50Q542 81 506 128L492 147L485 137Q381 -11 252 -11Q166 -11 111 57T55 217ZM907 217Q907 285 869 341T761 397Q740 397 720 392T682 378T648 359T619 335T594 310T574 285T559 263T548 246L543 238L574 198Q605 158 622 138T664 94T714 61T765 51Q827 51 867 100T907 217ZM92 214Q92 145 131 89T239 33Q357 33 456 193L425 233Q364 312 334 337Q285 380 233 380Q171 380 132 331T92 214Z"></path><path id="MJX-480-TEX-I-1D6FE" d="M31 249Q11 249 11 258Q11 275 26 304T66 365T129 418T206 441Q233 441 239 440Q287 429 318 386T371 255Q385 195 385 170Q385 166 386 166L398 193Q418 244 443 300T486 391T508 430Q510 431 524 431H537Q543 425 543 422Q543 418 522 378T463 251T391 71Q385 55 378 6T357 -100Q341 -165 330 -190T303 -216Q286 -216 286 -188Q286 -138 340 32L346 51L347 69Q348 79 348 100Q348 257 291 317Q251 355 196 355Q148 355 108 329T51 260Q49 251 47 251Q45 249 31 249Z"></path><path id="MJX-480-TEX-I-1D45F" d="M21 287Q22 290 23 295T28 317T38 348T53 381T73 411T99 433T132 442Q161 442 183 430T214 408T225 388Q227 382 228 382T236 389Q284 441 347 441H350Q398 441 422 400Q430 381 430 363Q430 333 417 315T391 292T366 288Q346 288 334 299T322 328Q322 376 378 392Q356 405 342 405Q286 405 239 331Q229 315 224 298T190 165Q156 25 151 16Q138 -11 108 -11Q95 -11 87 -5T76 7T74 17Q74 30 114 189T154 366Q154 405 128 405Q107 405 92 377T68 316T57 280Q55 278 41 278H27Q21 284 21 287Z"></path><path id="MJX-480-TEX-S4-5D" d="M5 1677V1750H313V-1249H5V-1176H240V1677H5Z"></path></defs><g stroke="currentColor" fill="currentColor" stroke-width="0" transform="translate(-8.142 39.355000000000004) scale(0.027149052125448065) scale(1,-1)"><g data-mml-node="math"><g data-mml-node="mi"><use data-c="1D43D" xlink:href="#MJX-480-TEX-I-1D43D"></use></g><g data-mml-node="mo" transform="translate(633,0)"><use data-c="28" xlink:href="#MJX-480-TEX-N-28"></use></g><g data-mml-node="mi" transform="translate(1022,0)"><use data-c="1D703" xlink:href="#MJX-480-TEX-I-1D703"></use></g><g data-mml-node="mo" transform="translate(1491,0)"><use data-c="29" xlink:href="#MJX-480-TEX-N-29"></use></g><g data-mml-node="mo" transform="translate(2157.8,0)"><use data-c="3D" xlink:href="#MJX-480-TEX-N-3D"></use></g><g data-mml-node="msub" transform="translate(3213.6,0)"><g data-mml-node="TeXAtom" data-mjx-texclass="ORD"><g data-mml-node="mi"><use data-c="1D53C" xlink:href="#MJX-480-TEX-D-1D53C"></use></g></g><g data-mml-node="TeXAtom" transform="translate(700,-150) scale(0.707)" data-mjx-texclass="ORD"><g data-mml-node="mi"><use data-c="1D70F" xlink:href="#MJX-480-TEX-I-1D70F"></use></g><g data-mml-node="mo" transform="translate(517,0)"><use data-c="223C" xlink:href="#MJX-480-TEX-N-223C"></use></g><g data-mml-node="msub" transform="translate(1295,0)"><g data-mml-node="mi"><use data-c="1D70B" xlink:href="#MJX-480-TEX-I-1D70B"></use></g><g data-mml-node="mi" transform="translate(603,-150) scale(0.707)"><use data-c="1D703" xlink:href="#MJX-480-TEX-I-1D703"></use></g></g></g></g><g data-mml-node="TeXAtom" data-mjx-texclass="INNER" transform="translate(5742.2,0)"><g data-mml-node="mo" transform="translate(0 -0.5)"><use data-c="5B" xlink:href="#MJX-480-TEX-S4-5B"></use></g><g data-mml-node="munderover" transform="translate(583,0)"><g data-mml-node="mo"><use data-c="2211" xlink:href="#MJX-480-TEX-LO-2211"></use></g><g data-mml-node="TeXAtom" transform="translate(142.5,-1087.9) scale(0.707)" data-mjx-texclass="ORD"><g data-mml-node="mi"><use data-c="1D461" xlink:href="#MJX-480-TEX-I-1D461"></use></g><g data-mml-node="mo" transform="translate(361,0)"><use data-c="3D" xlink:href="#MJX-480-TEX-N-3D"></use></g><g data-mml-node="mn" transform="translate(1139,0)"><use data-c="30" xlink:href="#MJX-480-TEX-N-30"></use></g></g><g data-mml-node="TeXAtom" transform="translate(368.4,1150) scale(0.707)" data-mjx-texclass="ORD"><g data-mml-node="mi"><use data-c="221E" xlink:href="#MJX-480-TEX-N-221E"></use></g></g></g><g data-mml-node="msup" transform="translate(2193.7,0)"><g data-mml-node="mi"><use data-c="1D6FE" xlink:href="#MJX-480-TEX-I-1D6FE"></use></g><g data-mml-node="mi" transform="translate(627.3,413) scale(0.707)"><use data-c="1D461" xlink:href="#MJX-480-TEX-I-1D461"></use></g></g><g data-mml-node="msub" transform="translate(3126.2,0)"><g data-mml-node="mi"><use data-c="1D45F" xlink:href="#MJX-480-TEX-I-1D45F"></use></g><g data-mml-node="mi" transform="translate(484,-150) scale(0.707)"><use data-c="1D461" xlink:href="#MJX-480-TEX-I-1D461"></use></g></g><g data-mml-node="mo" transform="translate(3915.4,0) translate(0 -0.5)"><use data-c="5D" xlink:href="#MJX-480-TEX-S4-5D"></use></g></g></g></g></svg></g></svg></g></svg>