<svg version="1.1" xmlns="http://www.w3.org/2000/svg" viewBox="0 0 1113 499.5" width="3339" height="1498.5" filter="invert(93%) hue-rotate(180deg)">
  <!-- svg-source:excalidraw -->
  
  <defs>
    <style>
      @font-face {
        font-family: "Virgil";
        src: url("https://excalidraw.com/Virgil.woff2");
      }
      @font-face {
        font-family: "Cascadia";
        src: url("https://excalidraw.com/Cascadia.woff2");
      }
    </style>
  </defs>
  <rect x="0" y="0" width="1113" height="499.5" fill="#ffffff"></rect><g stroke-linecap="round" transform="translate(210.75000000000006 181.25) rotate(0 15 14.499999999999986)"><path d="M10.24 0.14 C13.07 -0.9, 17.46 0.39, 20.47 1.54 C23.47 2.68, 26.6 4.6, 28.29 7 C29.98 9.41, 31.19 13.03, 30.61 15.95 C30.03 18.86, 27.48 22.27, 24.8 24.49 C22.11 26.71, 17.65 29.17, 14.51 29.26 C11.36 29.35, 8.18 27.04, 5.93 25.03 C3.68 23.01, 1.55 20.22, 0.99 17.17 C0.43 14.11, 1.01 9.63, 2.56 6.7 C4.11 3.76, 8.56 0.57, 10.28 -0.45 C12 -1.47, 12.64 0.04, 12.89 0.59 M8.98 0.87 C11.8 -0.46, 17.03 -1.48, 20.33 -0.21 C23.63 1.06, 27.32 5.46, 28.78 8.48 C30.24 11.49, 29.66 14.86, 29.1 17.87 C28.55 20.88, 28.1 24.55, 25.46 26.54 C22.81 28.53, 16.74 29.8, 13.23 29.8 C9.72 29.79, 6.45 28.86, 4.38 26.52 C2.31 24.19, 1.4 19.05, 0.82 15.81 C0.25 12.57, -0.6 9.85, 0.91 7.09 C2.42 4.33, 8.08 0.21, 9.87 -0.75 C11.66 -1.71, 11.7 1.06, 11.65 1.35" stroke="none" stroke-width="0" fill="#be4bdb"></path><path d="M7.96 0.93 C10.89 -0.32, 16.59 -0.28, 20.01 0.48 C23.43 1.24, 26.94 2.93, 28.46 5.48 C29.98 8.04, 29.62 12.61, 29.13 15.82 C28.63 19.04, 27.59 22.61, 25.51 24.75 C23.43 26.9, 19.99 28.34, 16.65 28.69 C13.3 29.04, 8.22 28.66, 5.43 26.85 C2.63 25.04, 0.4 20.86, -0.14 17.83 C-0.67 14.79, 0.17 11.66, 2.22 8.65 C4.28 5.63, 10.04 1.03, 12.18 -0.27 C14.32 -1.57, 15.07 0.37, 15.06 0.83 M11.69 0.79 C14.65 0.05, 19.22 -0.14, 22.17 1.23 C25.13 2.59, 28.31 6.14, 29.42 8.98 C30.54 11.83, 29.83 15.25, 28.87 18.32 C27.9 21.39, 26.43 25.87, 23.63 27.4 C20.83 28.93, 15.37 27.97, 12.08 27.5 C8.78 27.02, 5.99 26.7, 3.84 24.54 C1.7 22.37, -0.92 17.71, -0.79 14.5 C-0.65 11.29, 2.26 7.43, 4.66 5.27 C7.07 3.11, 12.45 2.37, 13.66 1.55 C14.86 0.74, 12.07 0.57, 11.9 0.36" stroke="#000000" stroke-width="1" fill="none"></path></g><g stroke-linecap="round" transform="translate(253.25 181.25) rotate(0 15 14.499999999999986)"><path d="M15.58 -0.82 C18.85 -0.78, 23.25 2.12, 25.57 4.42 C27.89 6.71, 29.03 9.9, 29.5 12.96 C29.97 16.02, 30.22 20.14, 28.4 22.79 C26.57 25.45, 21.84 27.91, 18.57 28.89 C15.29 29.88, 11.51 30.06, 8.76 28.68 C6.02 27.3, 3.65 23.49, 2.1 20.62 C0.55 17.74, -1.11 14.55, -0.52 11.44 C0.07 8.33, 2.54 3.8, 5.64 1.96 C8.74 0.12, 16.03 0.73, 18.06 0.4 C20.1 0.07, 18.12 -0.23, 17.84 -0.01 M11.56 -0.76 C14.36 -1.97, 18.95 -0.49, 21.93 0.79 C24.91 2.08, 28.31 3.95, 29.42 6.95 C30.53 9.95, 29.55 15.53, 28.59 18.8 C27.63 22.06, 26.31 24.81, 23.66 26.56 C21.01 28.3, 16.1 29.67, 12.69 29.24 C9.29 28.81, 5.32 26.33, 3.24 23.97 C1.15 21.61, 0.28 17.96, 0.18 15.09 C0.08 12.23, 0.84 9.19, 2.64 6.76 C4.45 4.34, 9.72 1.46, 11 0.53 C12.28 -0.4, 10.35 0.86, 10.3 1.19" stroke="none" stroke-width="0" fill="#fa5252"></path><path d="M12.57 -0.34 C15.68 -1.09, 20.32 0.17, 23.08 1.75 C25.83 3.33, 27.99 6.09, 29.1 9.14 C30.21 12.19, 30.92 17.18, 29.73 20.06 C28.54 22.94, 24.86 24.89, 21.95 26.41 C19.03 27.94, 15.42 29.69, 12.22 29.21 C9.01 28.73, 4.62 26.04, 2.71 23.53 C0.8 21.03, 0.44 17.13, 0.75 14.17 C1.07 11.21, 2.39 8.13, 4.6 5.76 C6.81 3.38, 12.11 0.98, 14 -0.08 C15.89 -1.13, 15.97 -0.88, 15.93 -0.58 M10.66 -0.31 C13.52 -1.23, 17.88 0.72, 20.87 1.95 C23.85 3.18, 26.88 4.8, 28.57 7.08 C30.26 9.37, 31.64 12.82, 30.99 15.65 C30.34 18.48, 27.52 21.79, 24.69 24.09 C21.86 26.38, 17.13 29.31, 14.02 29.4 C10.91 29.48, 8.14 26.65, 6.02 24.59 C3.91 22.53, 1.84 20.07, 1.32 17.01 C0.81 13.95, 1.82 9.11, 2.96 6.21 C4.09 3.32, 7.06 0.4, 8.14 -0.37 C9.22 -1.15, 9.08 0.86, 9.44 1.56" stroke="#000000" stroke-width="1" fill="none"></path></g><g stroke-linecap="round" transform="translate(447.625 181.49999999999997) rotate(0 15 14.5)"><path d="M7.98 1.64 C7.98 1.64, 7.98 1.64, 7.98 1.64 M7.98 1.64 C7.98 1.64, 7.98 1.64, 7.98 1.64 M5.23 10.91 C7.23 8.11, 10.77 4.84, 12.94 2.33 M5.71 11.52 C7.32 8.4, 10.54 4.6, 13.68 1.25 M4.65 20.43 C5.13 14.25, 12.31 9.43, 20.31 2.74 M3.05 20.34 C8.18 13.13, 14.95 7.17, 19.12 0.73 M6.07 23.31 C10.36 15.38, 14 10.67, 21.16 4.27 M4.9 22.39 C11.93 16.34, 18.83 7.49, 22.57 2.59 M8.18 28.58 C14.92 19.36, 20.68 11.28, 26.44 5.4 M7.74 27.16 C13.16 20.52, 19.56 12.56, 25.93 6.31 M13 27.86 C18.94 20.72, 23.49 13, 30.25 6.79 M11.85 27.38 C16.7 22.01, 22.94 14.53, 28.8 7.88 M15.03 30.28 C22.11 23.58, 26.09 19.02, 30.35 13.16 M15.43 28.57 C19.66 23.59, 24.69 19.2, 30.07 13.46 M20.58 32.21 C21.56 26.31, 25.52 21.51, 32.69 17.24 M18.81 31.18 C22.71 26.24, 27.55 21.83, 31.29 17.59 M6.81 27.23 C6.81 27.23, 6.81 27.23, 6.81 27.23 M6.81 27.23 C6.81 27.23, 6.81 27.23, 6.81 27.23 M14.16 29.17 C9.98 25.2, 5.96 18.97, 0.93 18.43 M13.85 28.48 C8.28 23.3, 4.48 19.12, 0.85 17.1 M18.24 29.05 C15.39 23.78, 11.03 17.36, 3.84 14.47 M18.29 26.75 C13.87 23.11, 9.94 19.02, 3.11 13.42 M23 23.52 C15.62 20.25, 12.51 13.96, 0.85 7.55 M23.84 25.67 C17.91 21.48, 12.49 16.2, 1.62 7.59 M29.22 23.29 C22.32 17.44, 15.37 11.95, 5.99 4.63 M27.97 24.47 C23.09 19.31, 18.03 15.96, 5.69 4.9 M29.43 18.99 C22.8 14.42, 14.83 6.86, 7.78 1.29 M28.23 19.9 C20.54 13.93, 13.54 6.99, 7.58 1.79 M29.22 16.91 C26.02 11.69, 21.93 9.77, 14.62 2.29 M30.14 16.16 C25.26 12.9, 21.67 7.83, 12.55 0.45 M28.11 9.59 C27.29 7.27, 22.77 4.04, 17.84 1.58 M28.58 9.73 C26.66 7.01, 24.39 5.37, 18.36 -0.07" stroke="#12b886" stroke-width="0.5" fill="none"></path><path d="M18.48 0.56 C21.48 1.07, 25.47 4.16, 27.23 6.81 C28.99 9.46, 29.2 13.34, 29.02 16.47 C28.85 19.61, 28.17 23.55, 26.18 25.61 C24.19 27.67, 20.36 28.6, 17.08 28.83 C13.8 29.06, 9.19 28.83, 6.52 26.98 C3.84 25.13, 1.78 20.77, 1.04 17.75 C0.29 14.73, 0.91 11.49, 2.03 8.85 C3.14 6.21, 4.2 3.06, 7.75 1.91 C11.3 0.77, 20.21 1.34, 23.32 1.97 C26.44 2.6, 26.43 5.47, 26.42 5.69 M9.84 -0.24 C12.64 -1.14, 15.72 0.6, 18.86 1.68 C21.99 2.76, 26.79 3.8, 28.64 6.24 C30.5 8.68, 30.44 13.05, 29.98 16.33 C29.51 19.61, 28.1 23.61, 25.84 25.91 C23.57 28.21, 19.62 30.08, 16.37 30.12 C13.12 30.17, 9.15 28.52, 6.34 26.18 C3.54 23.83, 0.23 19.12, -0.46 16.07 C-1.15 13.02, 0.56 10.42, 2.2 7.88 C3.85 5.34, 8.14 2.04, 9.4 0.83 C10.66 -0.39, 9.53 0.57, 9.75 0.58" stroke="#364fc7" stroke-width="1" fill="none"></path></g><g stroke-linecap="round" transform="translate(362.375 181) rotate(0 15 14.499999999999986)"><path d="M2.41 6.07 C2.41 6.07, 2.41 6.07, 2.41 6.07 M2.41 6.07 C2.41 6.07, 2.41 6.07, 2.41 6.07 M-0.12 14.23 C3.29 11.42, 4.63 10.01, 12.68 0.2 M0.35 14.39 C4.56 9.16, 7.7 5.95, 12.18 1.06 M1.54 16.6 C9.03 11.23, 13.09 8.87, 18.05 0.81 M2.65 17.31 C6.62 14.46, 9.08 10.2, 16.91 1.19 M4.98 19.52 C8.41 14.94, 13.42 11.08, 22.96 2.47 M5.07 22.4 C11.95 13.76, 18.14 5.9, 22.18 3.44 M7.68 25.82 C10.75 20.56, 16.71 14.35, 26.16 3.7 M6.17 26.33 C9.69 21.5, 14.84 16.92, 25.29 4.09 M12.03 26.52 C15.04 20.43, 20.34 16.06, 27.75 8.92 M10.16 27.81 C16.98 19.7, 22.7 12.96, 27.96 7.93 M14.2 30.75 C18.7 25.6, 24.48 17.93, 30 13.19 M12.54 29.87 C16.91 26.43, 20.56 22.63, 29.78 11.43 M19.17 27.5 C22.22 23.64, 27.25 21.17, 30.82 15.82 M19.62 27.88 C22.92 25.14, 25.74 22.06, 30.45 16.44 M4.57 23.71 C4.57 23.71, 4.57 23.71, 4.57 23.71 M4.57 23.71 C4.57 23.71, 4.57 23.71, 4.57 23.71 M15.43 28.36 C11.19 21.72, 4.79 20.49, 2.01 15.64 M13.97 26.63 C11 23.11, 5.94 20.02, 0.25 15.38 M20.97 27.1 C17.27 21.38, 13.07 21.06, 0.88 10.94 M19.13 25.99 C13.33 20.12, 7.74 15.73, 1.33 10.03 M22.81 24.93 C18.22 17.15, 8.34 12.29, 1.32 7.96 M24.39 25.46 C17.74 19.32, 11.68 14.96, 2.44 6.49 M28.03 20.66 C19.85 14.11, 12.87 9.03, 3.69 4.01 M27.48 21.58 C21.95 17.88, 16.66 12.9, 5.68 2.25 M31.41 20.36 C22.96 12.3, 15.07 5.97, 10.32 1.23 M30.25 20.61 C23.49 13.73, 14.35 5.95, 7.74 0.83 M28.8 12.68 C24.88 10.95, 23.79 8.72, 11.54 0.37 M28.59 14.17 C24.39 8.66, 19.29 4.82, 12.48 -0.09" stroke="#fa5252" stroke-width="0.5" fill="none"></path><path d="M22.23 2.55 C24.89 3.93, 26.79 7.18, 28.03 10.11 C29.26 13.03, 30.43 17.33, 29.65 20.11 C28.88 22.89, 26.22 25.24, 23.39 26.78 C20.57 28.31, 15.92 29.89, 12.72 29.33 C9.53 28.77, 6.23 25.77, 4.22 23.41 C2.22 21.04, 0.99 18.07, 0.71 15.16 C0.43 12.25, 0.64 8.48, 2.54 5.93 C4.44 3.39, 8.52 0.36, 12.13 -0.12 C15.74 -0.59, 21.71 2.25, 24.19 3.08 C26.67 3.92, 27.24 4.8, 27 4.88 M8.55 1.87 C11.43 0.7, 17.39 -0.8, 20.63 -0.02 C23.87 0.76, 26.3 3.69, 27.99 6.55 C29.69 9.42, 31.15 13.86, 30.82 17.19 C30.49 20.52, 28.44 24.5, 25.99 26.54 C23.54 28.57, 19.61 29.73, 16.09 29.41 C12.57 29.08, 7.44 26.55, 4.86 24.61 C2.28 22.66, 1.14 20.59, 0.61 17.72 C0.07 14.85, 0.13 10.27, 1.63 7.37 C3.13 4.47, 8.16 1.59, 9.59 0.33 C11.03 -0.94, 10.06 -0.47, 10.23 -0.2" stroke="#364fc7" stroke-width="1" fill="none"></path></g><g stroke-linecap="round" transform="translate(405 181) rotate(0 15 14.499999999999986)"><path d="M6 2.57 C6 2.57, 6 2.57, 6 2.57 M6 2.57 C6 2.57, 6 2.57, 6 2.57 M2.53 12.88 C4.57 10.71, 8.23 6.03, 12.19 2.82 M2.79 12.11 C6.24 8.5, 9.43 4.84, 12.5 2.09 M4.33 17.47 C8.65 15.01, 13.31 7.09, 15.02 2.89 M3.28 19.04 C7.78 12.53, 12.84 6.6, 16.6 2.95 M1.97 23.09 C7.62 18.66, 15.9 11.37, 22.82 2.99 M3.79 23.59 C7.55 18.31, 12.19 15.35, 20.44 4.27 M6.64 26.18 C14.46 17.7, 21.01 10.11, 22.87 7.12 M6.28 26.23 C12.82 20.02, 17.69 13.44, 24.26 6.38 M10.39 26.55 C16.1 21.6, 20.29 18, 29.76 8.54 M10.39 27.86 C13.53 24.06, 18.07 19.9, 28.59 6.78 M15.49 29.91 C21.54 21.8, 27.24 16.86, 28.98 9.11 M15.5 28.47 C20.08 23.79, 24.44 18.39, 30.58 11.49 M19.59 26.99 C26.4 23.3, 29.77 17.78, 31.79 13.97 M20.54 28.39 C24.24 24.53, 27.8 20.3, 31.62 14.13 M1.05 21.66 C1.05 21.66, 1.05 21.66, 1.05 21.66 M1.05 21.66 C1.05 21.66, 1.05 21.66, 1.05 21.66 M13.02 24.76 C7.69 23.64, 5.05 19.51, 0.61 15.82 M12.37 25.47 C7.97 22.54, 4.25 19.58, 0.1 15.79 M21.57 26 C13.56 22.54, 3.51 14.44, 1.35 9.25 M19.91 27 C15.62 23.62, 9.35 17.9, 0.55 10.38 M24.17 23.54 C17.45 21.26, 13.69 19.57, 2.23 9.07 M22.49 24.26 C15.62 19.24, 9.73 13.89, 3.29 8.03 M27.68 21.94 C22.46 18.3, 14.53 14.36, 3.74 3.88 M27.69 23.83 C20.7 17.31, 13.56 10.05, 5.26 3.9 M30.17 19.66 C24.22 15.16, 20.34 11.1, 8.71 -0.85 M30.87 21.3 C23.24 14.98, 16.06 9.22, 6.42 0.22 M29.96 16.34 C25.49 11.05, 16.3 5.41, 11.76 -0.3 M30.72 15.09 C23.73 9.64, 17.82 5.59, 11.83 -0.99 M31.01 10.61 C26.12 9.01, 20.54 4.42, 18.45 -2.44 M31.29 10.61 C26.46 6.2, 21.57 2.3, 17.43 -1.74" stroke="#7950f2" stroke-width="0.5" fill="none"></path><path d="M14.9 0.92 C18.03 0.94, 23.11 2.96, 25.7 4.92 C28.3 6.88, 30.17 9.69, 30.47 12.69 C30.77 15.69, 29.28 20.43, 27.51 22.93 C25.73 25.43, 22.76 26.83, 19.81 27.69 C16.85 28.56, 12.95 29.16, 9.79 28.13 C6.64 27.1, 2.43 24.4, 0.88 21.51 C-0.67 18.62, -0.33 13.91, 0.5 10.78 C1.32 7.66, 2.71 4.57, 5.82 2.78 C8.92 0.99, 16.81 0.43, 19.12 0.05 C21.42 -0.33, 19.97 0.2, 19.64 0.51 M9.93 0.36 C12.87 -1.19, 16.45 -0.92, 19.56 0.2 C22.66 1.32, 26.68 4.21, 28.58 7.07 C30.49 9.94, 31.43 14.33, 31 17.4 C30.57 20.48, 28.67 23.79, 26.01 25.52 C23.35 27.25, 18.33 27.63, 15.04 27.79 C11.75 27.95, 8.77 28.18, 6.29 26.49 C3.81 24.79, 0.93 20.82, 0.16 17.62 C-0.62 14.41, 0.06 10.24, 1.65 7.26 C3.24 4.27, 8.34 0.73, 9.69 -0.3 C11.04 -1.34, 9.56 0.54, 9.76 1.03" stroke="#364fc7" stroke-width="1" fill="none"></path></g><g stroke-linecap="round" transform="translate(531.2499999999999 95.5) rotate(0 72.49999999999994 63.999999999999986)"><path d="M-0.09 -0.6 C43.38 -0.28, 84.51 0.85, 143.57 0.18 M-0.47 -0.24 C34.25 1, 68.27 0.46, 144.73 -0.31 M146.52 -0.52 C147.01 39.98, 145.52 78.95, 144.68 129.19 M145.42 -0.22 C145.9 39.4, 145.67 80.39, 145.11 127.4 M143.51 127.82 C113.55 126.86, 78.73 126.12, -1.33 126.34 M144.54 127.77 C113.15 128.84, 82.22 128.11, 0.98 127.82 M1.02 129.26 C-0.87 96.24, -0.6 69.11, -1.48 -1.69 M-0.84 128.06 C0.84 99.2, -0.04 71.43, 0.51 0.57" stroke="#2b8a3e" stroke-width="1" fill="none"></path></g><g stroke-linecap="round" transform="translate(546.8749999999999 185.24999999999997) rotate(0 15 14.5)"><path d="M17.77 -0.2 C20.65 0.21, 24.03 3.37, 26.03 5.95 C28.02 8.52, 29.75 12.24, 29.76 15.24 C29.77 18.24, 28.26 21.59, 26.09 23.95 C23.92 26.3, 19.93 28.83, 16.75 29.39 C13.58 29.95, 9.57 28.83, 7.03 27.32 C4.48 25.81, 2.4 23.41, 1.47 20.3 C0.54 17.2, 0.47 11.7, 1.44 8.7 C2.4 5.7, 4.3 3.8, 7.25 2.32 C10.21 0.83, 17.11 0.02, 19.18 -0.2 C21.25 -0.42, 19.71 0.65, 19.67 1" stroke="none" stroke-width="0" fill="#4c6ef5"></path><path d="M13.69 0.17 C16.73 0.01, 22.5 1.65, 25.09 3.57 C27.67 5.49, 28.84 8.6, 29.22 11.69 C29.61 14.78, 28.68 19.49, 27.39 22.11 C26.11 24.72, 24.22 26.25, 21.5 27.39 C18.78 28.54, 14.16 29.83, 11.06 28.99 C7.95 28.15, 4.69 25.06, 2.85 22.34 C1 19.63, -0.45 15.85, -0.01 12.7 C0.43 9.54, 2.32 5.55, 5.48 3.43 C8.63 1.3, 16.33 0.08, 18.92 -0.03 C21.51 -0.15, 21.18 2.52, 21.01 2.75" stroke="#2b8a3e" stroke-width="1.5" fill="none" stroke-dasharray="1.5 7"></path></g><g stroke-linecap="round" transform="translate(590.6249999999999 185.24999999999997) rotate(0 15 14.5)"><path d="M16.23 0.95 C19.2 1.29, 23.37 3.19, 25.58 5.33 C27.78 7.46, 29.39 10.69, 29.48 13.75 C29.57 16.81, 28.04 21.19, 26.13 23.69 C24.22 26.19, 20.87 28.02, 18 28.78 C15.13 29.53, 11.6 29.8, 8.91 28.24 C6.22 26.68, 3.27 22.31, 1.86 19.4 C0.45 16.49, -0.41 13.71, 0.46 10.77 C1.34 7.84, 3.87 3.47, 7.1 1.8 C10.32 0.13, 17.07 0.61, 19.82 0.74 C22.57 0.88, 23.58 2.47, 23.57 2.61" stroke="none" stroke-width="0" fill="#40c057"></path><path d="M13.43 0.73 C16.46 0.09, 19.71 0.65, 22.18 2.28 C24.65 3.92, 26.97 7.73, 28.25 10.53 C29.53 13.32, 30.73 16.18, 29.86 19.05 C28.99 21.93, 25.85 26.16, 23.01 27.79 C20.16 29.43, 16.08 29.51, 12.79 28.86 C9.51 28.2, 5.32 26.34, 3.28 23.87 C1.24 21.39, 0.42 17.22, 0.57 14.03 C0.72 10.83, 1.77 6.89, 4.18 4.69 C6.6 2.49, 12.56 1.54, 15.06 0.83 C17.56 0.12, 18.91 0.44, 19.16 0.44" stroke="#2b8a3e" stroke-width="1.5" fill="none" stroke-dasharray="1.5 7"></path></g><g stroke-linecap="round" transform="translate(630.6249999999999 185.24999999999997) rotate(0 15 14.5)"><path d="M11.76 1.16 C14.69 0.28, 18.96 0.54, 21.66 1.98 C24.37 3.42, 26.81 6.93, 27.97 9.81 C29.13 12.7, 29.4 16.33, 28.64 19.29 C27.87 22.25, 25.91 26.15, 23.37 27.58 C20.82 29.01, 16.66 28.41, 13.37 27.88 C10.08 27.35, 5.79 26.7, 3.64 24.42 C1.49 22.15, 0.55 17.4, 0.46 14.23 C0.36 11.06, 0.59 7.75, 3.07 5.39 C5.56 3.03, 12.92 0.97, 15.37 0.05 C17.82 -0.87, 17.73 -0.42, 17.76 -0.12" stroke="none" stroke-width="0" fill="#7950f2"></path><path d="M15.74 0.32 C18.5 0.42, 22.13 2.98, 24.63 5.02 C27.13 7.07, 30.18 9.52, 30.74 12.59 C31.3 15.65, 29.85 20.72, 27.98 23.39 C26.12 26.05, 22.76 27.83, 19.54 28.57 C16.31 29.31, 11.55 29.2, 8.64 27.84 C5.72 26.47, 3.29 23.29, 2.03 20.39 C0.77 17.5, 0.5 13.29, 1.07 10.47 C1.63 7.66, 2.75 5.29, 5.4 3.5 C8.06 1.7, 14.8 0.28, 17 -0.31 C19.2 -0.91, 18.58 -0.49, 18.61 -0.07" stroke="#2b8a3e" stroke-width="1.5" fill="none" stroke-dasharray="1.5 7"></path></g><g stroke-linecap="round" transform="translate(546.8749999999999 143.99999999999997) rotate(0 15 14.499999999999986)"><path d="M16.09 0.29 C19.4 0.45, 23.98 3.17, 26.39 5.23 C28.8 7.29, 30.46 9.61, 30.55 12.64 C30.64 15.67, 28.87 20.87, 26.94 23.42 C25.01 25.97, 22.1 27.28, 18.97 27.94 C15.84 28.6, 10.99 28.66, 8.14 27.39 C5.29 26.13, 3.07 23.28, 1.86 20.35 C0.65 17.41, -0.05 12.7, 0.89 9.79 C1.83 6.87, 4.54 4.44, 7.5 2.86 C10.46 1.29, 16.44 0.59, 18.65 0.31 C20.86 0.04, 20.83 0.98, 20.75 1.24" stroke="none" stroke-width="0" fill="#228be6"></path><path d="M21.9 2.01 C24.71 3.18, 27.85 5.69, 29.1 8.42 C30.34 11.14, 30.17 15.41, 29.36 18.34 C28.55 21.27, 26.73 24.29, 24.22 26 C21.72 27.7, 17.79 28.62, 14.34 28.55 C10.9 28.49, 5.94 27.79, 3.55 25.6 C1.16 23.4, 0.02 18.71, -0.01 15.37 C-0.04 12.04, 1.48 7.96, 3.38 5.59 C5.28 3.22, 8.26 1.74, 11.39 1.13 C14.52 0.52, 20.38 1.82, 22.15 1.94 C23.92 2.06, 22.02 1.73, 22.02 1.85" stroke="#2b8a3e" stroke-width="1.5" fill="none" stroke-dasharray="1.5 7"></path></g><g stroke-linecap="round" transform="translate(347.5 95.5) rotate(0 72.5 63.999999999999986)"><path d="M1.24 -1.92 C36.3 -0.93, 75.58 2.29, 146.92 1.1 M-0.36 -0.71 C42.03 0.25, 84.09 1.05, 144.3 -0.12 M144.5 -1.03 C146.98 40.98, 145.61 83.72, 146.21 127.02 M145.8 0.97 C144.31 49.22, 145.25 98.91, 144.16 128.45 M143.79 126.59 C105.42 130.64, 65.2 128.41, 1.72 129.85 M145.73 127.67 C87.35 125.72, 30.65 125.59, -0.15 127.84 M-0.24 129.35 C-0.21 89.9, -0.78 49.38, -0.07 -1.58 M-0.67 128.13 C1.52 90.83, 1 55.04, -0.41 -0.16" stroke="#364fc7" stroke-width="1" fill="none"></path></g><g stroke-linecap="round" transform="translate(174.5 95.5) rotate(0 72.5 63.999999999999986)"><path d="M0.26 0.64 C55.89 1.02, 114.67 1.58, 146.38 -1.21 M0.07 -0.29 C34.16 -0.26, 67.56 -1.91, 144.02 0.73 M145.58 -1.98 C144.28 33.85, 144.61 70.17, 145.33 127.76 M145.2 -0.65 C145.58 46.24, 145.48 93.54, 145.79 127.33 M145.67 128.77 C98.8 126.96, 52.77 127.65, 0.35 129.37 M145.07 127.89 C92.96 127.62, 41.3 127.53, 0.72 128.84 M0.74 126.34 C-0.89 83.88, -2.04 41.74, -0.64 0.04 M-0.78 127.56 C0.34 89.14, 0.88 49.56, 0.77 -0.79" stroke="#000000" stroke-width="1" fill="none"></path></g><g transform="translate(10 306) rotate(0 57.5 13)"><text x="0" y="18" font-family="Virgil, Segoe UI Emoji" font-size="20px" fill="#1864ab" text-anchor="start" style="white-space: pre;" direction="ltr">1st Sampling</text></g><g stroke-linecap="round" transform="translate(208.25000000000006 305.5) rotate(0 15 14.5)"><path d="M20.78 1.14 C23.6 2.15, 26.87 6.25, 28.2 8.92 C29.53 11.6, 29.52 14.45, 28.77 17.2 C28.02 19.94, 26.27 23.29, 23.71 25.39 C21.15 27.49, 16.45 29.84, 13.41 29.79 C10.37 29.73, 7.73 27.26, 5.48 25.06 C3.23 22.85, 0.43 19.53, -0.09 16.54 C-0.61 13.54, 0.61 9.71, 2.35 7.08 C4.1 4.45, 6.68 1.56, 10.38 0.78 C14.08 -0.01, 22.01 1.46, 24.56 2.37 C27.12 3.28, 25.91 5.93, 25.71 6.23 M13.22 1.42 C16.49 1.23, 22.66 0.53, 25.19 2.32 C27.72 4.11, 27.88 8.87, 28.41 12.14 C28.94 15.41, 29.47 19.2, 28.39 21.93 C27.32 24.67, 24.78 27.24, 21.96 28.55 C19.15 29.86, 14.69 30.92, 11.51 29.79 C8.33 28.67, 4.85 24.57, 2.86 21.8 C0.87 19.03, -0.57 16.03, -0.43 13.16 C-0.3 10.29, 1.14 6.65, 3.65 4.56 C6.17 2.47, 12.87 1.17, 14.66 0.63 C16.44 0.08, 14.46 1.34, 14.38 1.31" stroke="none" stroke-width="0" fill="#be4bdb"></path><path d="M10.53 0.43 C13.25 -0.19, 18.18 0.93, 21.28 2.22 C24.39 3.5, 27.94 5.47, 29.16 8.14 C30.39 10.82, 29.77 15.25, 28.65 18.26 C27.52 21.26, 25.05 24.39, 22.42 26.19 C19.79 27.98, 15.93 29.27, 12.85 29.03 C9.78 28.8, 6.01 27.19, 3.97 24.77 C1.93 22.35, 0.65 17.78, 0.59 14.51 C0.54 11.24, 1.71 7.43, 3.63 5.16 C5.55 2.9, 10.37 1.6, 12.11 0.9 C13.85 0.21, 13.89 0.78, 14.08 1.02 M19.44 1.81 C22.76 2.53, 27.22 4.63, 28.72 7.36 C30.23 10.09, 29.16 14.92, 28.46 18.19 C27.77 21.46, 26.74 25.13, 24.54 26.99 C22.35 28.85, 18.57 29.74, 15.32 29.33 C12.07 28.92, 7.38 26.36, 5.05 24.55 C2.71 22.74, 2.08 21.46, 1.31 18.48 C0.55 15.5, -0.98 9.5, 0.45 6.67 C1.88 3.85, 6.45 2.29, 9.91 1.52 C13.36 0.76, 19.33 2.24, 21.18 2.09 C23.02 1.94, 21.2 0.48, 20.98 0.62" stroke="#000000" stroke-width="1" fill="none"></path></g><g stroke-linecap="round" transform="translate(255.75 305.5) rotate(0 15 14.5)"><path d="M15.06 0.57 C18.09 0.39, 21.92 1.86, 24.44 3.68 C26.97 5.51, 29.77 8.39, 30.2 11.51 C30.63 14.63, 28.73 19.63, 27.04 22.41 C25.35 25.18, 22.95 27.27, 20.05 28.18 C17.14 29.09, 12.78 29.1, 9.6 27.88 C6.41 26.66, 2.33 23.44, 0.93 20.88 C-0.47 18.33, 0.5 15.61, 1.19 12.54 C1.89 9.47, 1.92 4.43, 5.08 2.46 C8.23 0.5, 17 0.54, 20.14 0.73 C23.29 0.93, 24.03 3.29, 23.93 3.62 M21.4 2.15 C23.92 3.56, 26.33 6.8, 27.7 9.7 C29.08 12.59, 30.43 16.49, 29.67 19.5 C28.9 22.51, 25.92 26.36, 23.11 27.75 C20.31 29.14, 15.9 28.62, 12.84 27.85 C9.77 27.09, 6.85 25.41, 4.73 23.17 C2.62 20.93, 0.54 17.17, 0.16 14.42 C-0.21 11.66, 0.39 9.02, 2.47 6.64 C4.56 4.27, 9.65 0.86, 12.68 0.18 C15.72 -0.5, 19.37 2.38, 20.7 2.55 C22.03 2.72, 20.46 1.1, 20.68 1.2" stroke="none" stroke-width="0" fill="#fa5252"></path><path d="M16.41 -0.94 C19.63 -1.12, 23.93 0.74, 26.03 3.16 C28.12 5.58, 28.83 10.24, 28.99 13.58 C29.15 16.91, 28.59 20.58, 26.97 23.18 C25.36 25.78, 22.17 28.55, 19.3 29.16 C16.43 29.77, 12.62 28.26, 9.75 26.84 C6.88 25.43, 3.52 23.18, 2.07 20.66 C0.63 18.14, 0.37 14.82, 1.05 11.71 C1.74 8.6, 3.39 3.94, 6.19 1.99 C8.99 0.03, 15.72 0.2, 17.85 -0.02 C19.98 -0.23, 19.14 0.49, 18.99 0.7 M7.9 0.35 C10.51 -1.05, 16.31 0.02, 19.82 1.31 C23.32 2.6, 27.05 5.63, 28.91 8.08 C30.77 10.54, 31.53 13.05, 30.95 16.04 C30.37 19.03, 28 23.62, 25.45 26.02 C22.9 28.42, 18.72 30.41, 15.64 30.43 C12.57 30.45, 9.33 28.34, 6.99 26.14 C4.65 23.94, 2.5 20.37, 1.61 17.24 C0.72 14.11, 0.15 10.27, 1.67 7.37 C3.19 4.47, 9.61 0.89, 10.74 -0.18 C11.88 -1.24, 8.81 0.72, 8.49 0.98" stroke="#000000" stroke-width="1" fill="none"></path></g><g stroke-linecap="round" transform="translate(405 305.5) rotate(0 15 14.5)"><path d="M1.55 7.97 C1.55 7.97, 1.55 7.97, 1.55 7.97 M1.55 7.97 C1.55 7.97, 1.55 7.97, 1.55 7.97 M1.98 14.4 C3.81 12.67, 5.73 8.36, 10.17 3.63 M0.72 14.07 C4.64 11.13, 7.61 6.14, 11.33 2.91 M2.04 18.52 C6.12 16.06, 9.29 13.05, 17.94 4.12 M2.99 19.23 C6.44 15.25, 11.23 10.76, 15.86 3.28 M3.09 24.38 C11.36 16.36, 13.67 9.48, 20.11 4.11 M4.59 22.65 C10.22 15.87, 17.02 7.85, 21.29 2.83 M5.92 26.09 C13.31 19.47, 21.09 8.05, 25.88 5.38 M6.91 25.93 C12.59 19.99, 17.15 14.85, 26.01 3.9 M10.43 29.48 C15.9 24.47, 16.62 19.07, 26.91 8.58 M11.19 27.9 C16.09 20.68, 21.49 15.61, 27.63 7.57 M15.16 28.53 C16.88 24.99, 20.69 21.41, 30.23 11.11 M13.96 29.68 C18.27 24.55, 24.37 20.09, 30.63 11.99 M18.92 32.14 C20.96 25.66, 28.03 21.7, 32.64 18.23 M19.03 32.13 C22.54 25.85, 26.5 21.73, 31 16.16 M5.66 25.5 C5.66 25.5, 5.66 25.5, 5.66 25.5 M5.66 25.5 C5.66 25.5, 5.66 25.5, 5.66 25.5 M15.02 28.22 C11.12 27.36, 7.42 24.12, 3.12 18.75 M16.05 28.18 C11.91 25.1, 6.41 19.89, 2.05 16.61 M19.34 25.89 C12.83 23.01, 7.01 17.66, 3.7 11.68 M19.83 27.1 C15.76 24.68, 11.63 19.87, 1.15 10.6 M25.2 27.23 C15.68 20.9, 8.11 13.52, 0.31 7.98 M24.17 25.47 C19.45 20.89, 13.01 15.23, 1.64 6.09 M26.46 21.71 C21.47 19.91, 16.41 14.32, 3.86 5.05 M27.55 23.04 C22.87 19.08, 18.71 14.66, 5.11 3.25 M28.12 19.6 C22.7 15.96, 16.05 10.87, 9.36 0.08 M30.35 19.35 C23.75 14.5, 20.3 11.95, 9.04 1.46 M30.92 16.11 C26.43 10.64, 20.98 9.43, 10.12 -0.26 M29.81 14.46 C26.45 10.94, 20.73 5.9, 11.21 -2.62 M29.29 9.39 C26.21 5.83, 23.4 3.89, 21.21 2.11 M28.79 8.48 C25.36 5.38, 23.45 3.54, 20.22 0.71" stroke="#40c057" stroke-width="0.5" fill="none"></path><path d="M8.24 0.52 C11.21 -0.66, 16.84 0.42, 20.05 1.38 C23.26 2.34, 25.81 3.86, 27.52 6.29 C29.23 8.73, 30.55 12.93, 30.28 15.99 C30.02 19.05, 28.27 22.43, 25.91 24.66 C23.55 26.89, 19.52 29.26, 16.11 29.37 C12.7 29.48, 7.98 27.21, 5.44 25.31 C2.91 23.42, 1.57 20.89, 0.92 18 C0.27 15.11, -0.27 11.07, 1.56 7.96 C3.38 4.84, 9.7 0.42, 11.86 -0.7 C14.02 -1.82, 14.31 0.89, 14.51 1.22 M9.85 2.35 C12.56 1.16, 16.8 0.8, 19.99 1.57 C23.18 2.35, 27.42 4.67, 28.98 7.02 C30.54 9.36, 29.89 12.83, 29.36 15.64 C28.82 18.45, 27.91 21.6, 25.78 23.89 C23.65 26.17, 19.77 28.96, 16.58 29.35 C13.39 29.73, 9.18 28.16, 6.65 26.21 C4.12 24.26, 2.42 20.57, 1.4 17.67 C0.39 14.76, -0.51 11.52, 0.58 8.8 C1.68 6.08, 6.65 2.67, 7.97 1.33 C9.29 0, 8.06 0.45, 8.5 0.8" stroke="#364fc7" stroke-width="1" fill="none"></path></g><g stroke-linecap="round" transform="translate(358.5 305.5) rotate(0 15 14.5)"><path d="M1.44 9.2 C1.44 9.2, 1.44 9.2, 1.44 9.2 M1.44 9.2 C1.44 9.2, 1.44 9.2, 1.44 9.2 M1.96 16.11 C4.02 15.11, 5.67 10.29, 10.92 3.05 M0.86 16.71 C4.24 12.08, 7.21 7.81, 11.2 3.62 M2.21 21.24 C6.31 12.96, 12.6 6.75, 20.16 0.94 M2.94 20.04 C6.84 14.41, 11.75 10.58, 20.22 1.33 M3.98 24.7 C10.98 15.5, 15.44 11.36, 22.43 4.92 M3.86 24.81 C11.83 15.89, 17.52 7.45, 22.8 3.28 M8.69 28.8 C10.64 20.12, 15.45 15.62, 25.23 4.37 M6.58 27.73 C13.66 19.52, 21.97 10.36, 25.77 6.29 M12.63 27.46 C15.03 21.64, 21.82 16.08, 30.01 8.95 M11.37 28.6 C17.02 21.53, 25.04 12.95, 28.12 7.77 M15.62 28.85 C17.4 24.98, 23.47 21.8, 31.61 14.72 M14.8 29.34 C19.93 23.97, 25.3 18.53, 29.25 12.17 M21.09 32.39 C23.29 27.17, 25.39 23.77, 31.66 15.2 M18.68 31.41 C23.81 26.86, 28.72 20.66, 31.07 16.46 M6.01 26.61 C6.01 26.61, 6.01 26.61, 6.01 26.61 M6.01 26.61 C6.01 26.61, 6.01 26.61, 6.01 26.61 M15.51 27.8 C11.28 25.14, 9.19 21.72, 3.39 18.66 M14.02 29.69 C11.43 25.36, 7.85 23.77, 2.53 18.39 M18.2 26.94 C13.9 21.81, 6.76 15.9, 3.33 11.99 M17.15 25.83 C11.36 21.95, 6.17 15.79, 1.29 13.07 M22.41 26.11 C19.91 21.02, 12.9 16.52, 2.03 9.46 M21.67 25.2 C14.73 17.31, 5.84 12.18, 2.75 7.65 M27.34 22.91 C23.96 18.97, 15.47 14.42, 4.66 6.11 M26.6 23.49 C20.87 18.08, 16.01 14.11, 4.9 4.42 M27.13 18.74 C21.55 14.49, 17.63 9.76, 9.83 1.19 M27.75 19.98 C22.18 14.78, 16.12 10.14, 9.14 2.89 M30.7 16.94 C23.45 12.4, 17.7 5.48, 14.77 2.8 M30.05 14.3 C23.6 9.98, 16.93 4.52, 13.99 0.58 M30.16 12.67 C28.35 8.72, 22.96 2, 16.93 -1.61 M32.47 12.61 C28.43 8.1, 24.41 5.48, 17.38 -0.13" stroke="#fa5252" stroke-width="0.5" fill="none"></path><path d="M17.53 -0.04 C20.66 0.7, 24.8 4.03, 26.76 6.45 C28.71 8.87, 29.35 11.52, 29.27 14.47 C29.2 17.42, 28.52 21.69, 26.31 24.13 C24.1 26.58, 19.42 28.76, 16.03 29.17 C12.64 29.57, 8.57 28.21, 5.96 26.56 C3.34 24.92, 1.12 22.14, 0.32 19.3 C-0.48 16.46, -0.17 12.32, 1.16 9.52 C2.48 6.73, 5.03 3.98, 8.27 2.54 C11.5 1.1, 18.24 0.98, 20.57 0.86 C22.89 0.74, 22.26 1.58, 22.23 1.81 M16.91 -0.36 C19.77 -0.62, 22.51 1.63, 24.92 3.79 C27.32 5.94, 31.09 9.26, 31.35 12.55 C31.61 15.85, 28.22 20.98, 26.47 23.56 C24.72 26.14, 23.85 27.48, 20.86 28.03 C17.86 28.59, 11.89 27.89, 8.49 26.89 C5.1 25.89, 1.67 24.48, 0.48 22.06 C-0.7 19.63, 0.29 15.52, 1.37 12.32 C2.45 9.13, 4.59 5.08, 6.97 2.87 C9.34 0.66, 14.05 -0.48, 15.63 -0.94 C17.22 -1.39, 16.54 -0.15, 16.48 0.14" stroke="#364fc7" stroke-width="1" fill="none"></path></g><g stroke-linecap="round" transform="translate(451.5 304.5) rotate(0 15 14.5)"><path d="M6.09 3.97 C6.09 3.97, 6.09 3.97, 6.09 3.97 M6.09 3.97 C6.09 3.97, 6.09 3.97, 6.09 3.97 M2.42 12.8 C7.14 9.95, 9.71 5.38, 13.51 2.53 M2.69 14.84 C6.2 11.35, 8.55 7.97, 14.34 1.05 M0.68 22.58 C7.31 16.39, 14.5 9.46, 19.19 0.96 M1.01 20.68 C8.5 13.65, 14.1 6.55, 17.4 3.3 M3.5 23.32 C11.37 14.62, 20.14 7.58, 23.67 2.81 M4.87 24.05 C11.44 16.84, 16.74 9.06, 22.95 4.21 M8.99 24.85 C13.64 22.06, 19.16 16.6, 26.71 4.83 M7.93 26.79 C13.17 19.04, 19.52 12.72, 27.11 4.66 M12.64 28.45 C17.63 25.04, 20.74 16.06, 28.06 7.17 M12.09 27.55 C15.48 22.17, 20.18 17.45, 29 9.74 M16.85 27.71 C20.57 21.82, 27.18 16.83, 30.22 11.65 M15.84 29.43 C19.42 23.72, 24.06 18.86, 30.28 13.12 M1.5 21.14 C1.5 21.14, 1.5 21.14, 1.5 21.14 M1.5 21.14 C1.5 21.14, 1.5 21.14, 1.5 21.14 M13.61 24.41 C11.08 23.81, 6.16 19.48, 0.76 14.34 M11.83 25.67 C8.52 21.92, 3.57 16.65, 0.69 15.55 M20.69 26.66 C16.56 21.99, 10.64 16.04, 1.76 9.35 M21.83 27.96 C16.45 24.73, 11.94 20.21, 1.96 11.28 M23.71 24.44 C16.28 20.45, 11.21 12.89, 4.18 6.46 M23.61 26.01 C17.62 18.92, 9.77 12.09, 3.8 7.62 M25.42 21.73 C20.92 18.8, 15.38 12.16, 5.58 2.86 M27.81 22.89 C21.02 16.73, 15.34 11.18, 6.25 3.29 M30.25 19.24 C26.03 13.63, 19.56 10.36, 10.07 1.89 M29.09 19.95 C23.56 13.91, 16.27 6.81, 9.91 3.46 M28.83 13.83 C25.97 11.06, 20.26 2.91, 16.63 2.55 M30.78 14.95 C27.76 11.07, 24.34 7.72, 14.84 0.12 M33.38 9.63 C26.41 5.26, 22.2 2.39, 15.79 -0.88 M32.89 11.44 C26.47 6.29, 21.09 1.25, 17.88 -2.02" stroke="#7950f2" stroke-width="0.5" fill="none"></path><path d="M15.63 0.87 C18.63 0.52, 21.92 1.18, 24.27 3.17 C26.62 5.17, 29.12 9.88, 29.75 12.82 C30.38 15.76, 29.5 18.13, 28.06 20.81 C26.63 23.5, 24.19 27.8, 21.15 28.94 C18.11 30.08, 13.12 28.95, 9.83 27.64 C6.54 26.32, 2.92 23.53, 1.41 21.06 C-0.11 18.59, 0.01 15.62, 0.75 12.81 C1.49 10.01, 3.03 6.34, 5.85 4.25 C8.67 2.15, 15.33 0.66, 17.66 0.26 C19.99 -0.13, 19.88 1.69, 19.83 1.89 M10.75 1.02 C13.67 -0.15, 18.46 -0.42, 21.38 1.04 C24.31 2.5, 27.01 7.02, 28.3 9.76 C29.6 12.51, 29.94 14.64, 29.15 17.51 C28.36 20.38, 26.29 25.34, 23.57 26.99 C20.85 28.64, 16.09 27.71, 12.85 27.41 C9.61 27.12, 6.48 27.03, 4.13 25.2 C1.79 23.38, -0.85 19.67, -1.24 16.47 C-1.62 13.27, -0.35 8.54, 1.8 6.01 C3.94 3.47, 10.26 2.37, 11.65 1.25 C13.04 0.14, 9.97 -1, 10.15 -0.69" stroke="#364fc7" stroke-width="1" fill="none"></path></g><g transform="translate(10 380.5) rotate(0 61 13)"><text x="0" y="18" font-family="Virgil, Segoe UI Emoji" font-size="20px" fill="#087f5b" text-anchor="start" style="white-space: pre;" direction="ltr">2nd Sampling</text></g><g stroke-linecap="round" transform="translate(208.25 378) rotate(0 15 14.5)"><path d="M19.54 0.42 C22.28 1.36, 25.74 5.15, 27.61 7.94 C29.48 10.73, 31.2 14.31, 30.74 17.15 C30.28 19.98, 27.37 22.92, 24.86 24.95 C22.34 26.98, 18.99 29.33, 15.64 29.32 C12.29 29.31, 7.19 26.87, 4.76 24.89 C2.34 22.9, 1.57 20.43, 1.08 17.41 C0.59 14.39, 0.54 9.53, 1.83 6.74 C3.12 3.95, 5.47 1.59, 8.82 0.66 C12.17 -0.27, 19.36 0.83, 21.93 1.17 C24.51 1.5, 24.54 2.43, 24.27 2.68 M12.68 -0.16 C15.39 -0.72, 19.65 0.31, 22.33 1.91 C25.02 3.51, 27.53 6.24, 28.8 9.44 C30.07 12.64, 31.16 18.19, 29.94 21.1 C28.72 24.02, 24.56 25.87, 21.5 26.94 C18.43 28.01, 14.55 28.26, 11.55 27.53 C8.56 26.79, 5.54 24.96, 3.54 22.54 C1.53 20.12, -0.53 15.92, -0.48 13.01 C-0.42 10.11, 1.61 7.1, 3.87 5.11 C6.13 3.12, 11.69 1.88, 13.08 1.07 C14.47 0.27, 12.19 0.31, 12.21 0.29" stroke="none" stroke-width="0" fill="#fa5252"></path><path d="M18.49 0.13 C21.63 0.53, 25.7 2.68, 27.66 5.13 C29.62 7.57, 30.54 11.78, 30.26 14.82 C29.97 17.85, 28.08 21.09, 25.94 23.33 C23.8 25.57, 20.6 27.76, 17.43 28.27 C14.26 28.77, 9.59 28.04, 6.93 26.36 C4.27 24.69, 2.29 21.03, 1.48 18.22 C0.67 15.41, 1.05 12.4, 2.06 9.5 C3.06 6.61, 4.53 2.44, 7.52 0.88 C10.51 -0.68, 17.42 0, 19.98 0.13 C22.55 0.27, 23.11 1.49, 22.92 1.72 M18.65 -1.08 C21.34 -0.8, 24.16 3, 26.11 5.82 C28.05 8.64, 30.35 12.87, 30.33 15.81 C30.3 18.75, 28.37 21.15, 25.94 23.47 C23.51 25.79, 19 28.99, 15.74 29.72 C12.48 30.46, 9.02 29.74, 6.36 27.86 C3.71 25.99, 0.91 21.79, -0.19 18.47 C-1.28 15.15, -1.38 10.56, -0.2 7.93 C0.99 5.3, 3.84 4, 6.92 2.67 C10 1.34, 16.62 0.2, 18.28 -0.04 C19.93 -0.29, 17.11 0.92, 16.85 1.19" stroke="#000000" stroke-width="1" fill="none"></path></g><g stroke-linecap="round" transform="translate(255.75 378) rotate(0 15 14.5)"><path d="M21.73 1.47 C24.65 2.92, 28.5 7.14, 29.81 10.08 C31.12 13.01, 30.82 16.24, 29.58 19.1 C28.34 21.97, 25.1 25.76, 22.36 27.26 C19.62 28.76, 16.39 28.47, 13.15 28.08 C9.91 27.7, 5.1 27.16, 2.94 24.95 C0.78 22.75, 0.25 18.24, 0.19 14.86 C0.12 11.48, 0.62 7.08, 2.54 4.67 C4.45 2.27, 8.03 0.48, 11.67 0.43 C15.32 0.39, 21.91 3.63, 24.41 4.42 C26.91 5.22, 26.8 5.21, 26.66 5.21 M19.88 0.17 C22.83 0.99, 26.12 3.79, 27.65 6.78 C29.19 9.78, 29.41 15.06, 29.08 18.13 C28.75 21.2, 28.1 23.42, 25.67 25.19 C23.25 26.97, 18.12 28.65, 14.54 28.79 C10.96 28.93, 6.71 28.07, 4.2 26.01 C1.68 23.96, -0.07 19.63, -0.57 16.49 C-1.08 13.35, -0.65 9.75, 1.16 7.15 C2.98 4.56, 6.98 2.1, 10.31 0.91 C13.63 -0.27, 19.51 -0.01, 21.12 0.03 C22.72 0.07, 20.28 0.88, 19.94 1.14" stroke="none" stroke-width="0" fill="#fa5252"></path><path d="M15.34 0.76 C18.35 0.69, 22.14 2.08, 24.5 4.02 C26.87 5.96, 29.16 9.3, 29.53 12.42 C29.9 15.53, 28.48 20.06, 26.72 22.71 C24.97 25.35, 21.94 27.3, 18.98 28.31 C16.03 29.31, 11.97 29.74, 8.99 28.72 C6.01 27.7, 2.47 25.15, 1.12 22.18 C-0.23 19.21, 0.25 14.1, 0.91 10.88 C1.56 7.65, 2.13 4.37, 5.05 2.82 C7.97 1.27, 15.57 1.82, 18.42 1.58 C21.28 1.33, 22.24 1.22, 22.17 1.36 M19.39 0.32 C22.09 1.29, 26.65 5.34, 28.46 8.23 C30.27 11.12, 31.14 14.87, 30.26 17.64 C29.38 20.42, 25.72 23.09, 23.19 24.89 C20.66 26.69, 17.96 28.55, 15.09 28.44 C12.21 28.34, 8.5 26.51, 5.95 24.26 C3.4 22.01, 0.52 18.08, -0.23 14.94 C-0.99 11.8, -0.55 7.82, 1.42 5.43 C3.4 3.05, 8.47 1.57, 11.64 0.63 C14.81 -0.32, 18.83 -0.16, 20.44 -0.23 C22.04 -0.31, 21.34 -0.21, 21.27 0.18" stroke="#000000" stroke-width="1" fill="none"></path></g><g stroke-linecap="round" transform="translate(405 378) rotate(0 15 14.5)"><path d="M4.07 3.54 C4.07 3.54, 4.07 3.54, 4.07 3.54 M4.07 3.54 C4.07 3.54, 4.07 3.54, 4.07 3.54 M-0.97 13.3 C3 11.47, 6 6.27, 12 -0.73 M1.18 14.35 C3.58 9.76, 6.98 5.58, 12.6 -0.35 M2.77 17.92 C7.46 12.27, 9.89 8.95, 15.9 0.37 M1.62 18.63 C8.04 12.37, 12.71 5.2, 15.74 1.94 M1.95 20.98 C12.08 15.62, 19.32 5.17, 22.65 3.85 M3.9 22.1 C8.22 16.85, 12.18 12.19, 20.87 1.42 M7.82 24.43 C11.77 16.69, 18.7 10.75, 23.43 4.61 M7.3 26.34 C12.77 17.82, 19.38 9.35, 25.62 3.41 M9.26 25.99 C15.11 23.5, 17.37 16.34, 26.82 7.75 M10.33 27.49 C14.87 22.78, 18.15 16.74, 27.01 7.09 M13.58 28.46 C18.57 23.74, 19.72 18.66, 31.6 8.76 M14.37 29.98 C19.29 23.34, 25.04 15.57, 30.88 10.1 M18.7 28.79 C20.7 24.94, 25.55 23.15, 29.19 18.17 M18.67 28.12 C22.74 24, 26.03 21.45, 29.12 15.97 M3.51 23.4 C3.51 23.4, 3.51 23.4, 3.51 23.4 M3.51 23.4 C3.51 23.4, 3.51 23.4, 3.51 23.4 M12.56 26.61 C11.17 23.08, 7.58 21.35, -0.13 14.57 M14.09 26.22 C8.12 22.28, 3.04 18.45, 0.46 16.57 M19.05 24.65 C13.63 21.74, 11.62 17.31, 1.19 8.88 M18.22 25.76 C14.8 23.05, 10.31 19.48, 1.98 9.9 M21.53 25.99 C20.78 23.05, 16.81 18.3, 3.62 5.24 M24.27 24.55 C16.33 18.7, 7.66 11.81, 3.39 6.45 M24.64 20.49 C22.19 17.34, 15.52 15.74, 3.29 2.62 M26.68 21.93 C18.5 15.53, 10.68 8.87, 4.54 2.43 M31.01 19.4 C20.78 12.32, 15.97 5.76, 8.88 2.28 M28.91 20.08 C21.78 11.68, 13.12 4.65, 9.25 0.21 M31.78 15.89 C23.21 9.23, 18.75 5.75, 11.5 -0.48 M28.95 14.83 C24.45 11.38, 21.05 6.06, 11.97 -1.26 M30.29 7.48 C23.94 3.38, 19.07 0.96, 16.57 -1.45 M29.73 8.3 C24.15 4.88, 20.95 0.7, 16.31 -3.1" stroke="#fd7e14" stroke-width="0.5" fill="none"></path><path d="M14.04 -0.47 C17.06 -1.01, 21 0.43, 23.54 2.07 C26.08 3.71, 28.32 6.46, 29.27 9.39 C30.23 12.33, 30.51 16.7, 29.25 19.66 C27.99 22.61, 24.53 25.73, 21.71 27.12 C18.88 28.5, 15.28 28.55, 12.3 27.98 C9.33 27.42, 6 26.22, 3.86 23.71 C1.71 21.19, -0.55 16.2, -0.54 12.88 C-0.54 9.56, 0.98 5.94, 3.89 3.76 C6.79 1.58, 14.6 0.43, 16.87 -0.22 C19.13 -0.87, 17.59 -0.54, 17.48 -0.13 M20.19 1.33 C23.06 2.68, 27.23 6.07, 28.78 8.69 C30.33 11.31, 30.5 14, 29.49 17.05 C28.48 20.1, 25.39 24.83, 22.73 27.01 C20.06 29.19, 16.67 30.52, 13.52 30.13 C10.36 29.73, 6.25 27.15, 3.79 24.65 C1.32 22.15, -0.85 17.99, -1.27 15.14 C-1.68 12.28, -0.69 10.02, 1.31 7.53 C3.32 5.04, 7.7 1.15, 10.75 0.19 C13.81 -0.77, 18.15 1.59, 19.63 1.77 C21.12 1.95, 19.59 1.11, 19.66 1.27" stroke="#364fc7" stroke-width="1" fill="none"></path></g><g stroke-linecap="round" transform="translate(358.5 378) rotate(0 15 14.5)"><path d="M5.03 4.38 C5.03 4.38, 5.03 4.38, 5.03 4.38 M5.03 4.38 C5.03 4.38, 5.03 4.38, 5.03 4.38 M0.99 15.88 C4.6 10.04, 8.36 5.49, 13.51 -0.43 M1.21 14.28 C4.43 10.1, 8 6.67, 13.65 -0.34 M4.46 17.54 C7.65 13.29, 11.69 7.08, 20.13 0 M3.77 19.23 C8.79 11.66, 13.22 6.78, 19.88 0.02 M5.56 25.08 C13.63 14.01, 20.78 8.29, 21.76 2.52 M4.79 22.86 C10.98 15.62, 16.23 8.69, 23.61 2.5 M6.57 24.94 C13.75 18.63, 18.67 11.93, 26.84 6.61 M7.05 26.51 C11.86 19.69, 17.87 13.85, 24.91 4.87 M12 29.08 C16.85 19.14, 23.21 14.03, 27.75 8.44 M11.4 28.96 C17.01 20.12, 24.01 12.35, 27.88 8.23 M15.33 29.68 C19.57 21.11, 28.98 13.78, 31.79 13.04 M14.22 31.39 C20.16 23.1, 26.4 16.88, 30.28 11.54 M21.54 26.48 C25.6 24.68, 26.15 23.43, 30.45 18.34 M22.23 26.79 C25.19 24.45, 27.83 19.9, 29.86 18.09 M2.02 22.06 C2.02 22.06, 2.02 22.06, 2.02 22.06 M2.02 22.06 C2.02 22.06, 2.02 22.06, 2.02 22.06 M14.13 25.64 C10.76 24.01, 7.38 20.96, 2.45 15.49 M13.17 26.64 C9.3 23.81, 5.74 21.04, 0.33 15.44 M17.69 25.31 C14.87 20.1, 8.8 15.37, -0.25 11.07 M18.77 26.41 C12.81 21.5, 8.53 15.47, 0.36 9.9 M25.75 27.36 C19.23 20.36, 10.82 11.42, 5.35 6.67 M24.65 26.16 C19.35 22.27, 16.17 17.57, 2.91 8.66 M27.64 21.82 C18.62 17.92, 12.13 10, 6.61 2.78 M26.68 22.62 C19.17 16.35, 12.88 9.75, 6.36 4.47 M28.54 18.92 C24.77 13.37, 16.91 9.32, 10.89 2.72 M30.13 18.86 C24.18 14.23, 19.3 8.93, 9 2.11 M28.32 13.53 C23.39 9.89, 18.05 5.4, 12.4 0.51 M28.99 15.24 C25.21 9.55, 19.5 5.19, 14.24 0.53 M30.22 8.79 C27.46 8.26, 24.33 5.24, 16.53 -2.69 M29.46 9.37 C25.65 4.54, 20.27 0.21, 15.63 -2.39" stroke="#7950f2" stroke-width="0.5" fill="none"></path><path d="M13.62 -0.25 C16.49 -0.82, 20.5 -0.22, 23.22 1.46 C25.93 3.13, 28.96 6.73, 29.89 9.81 C30.81 12.9, 29.98 17.13, 28.74 19.97 C27.5 22.81, 25.17 25.35, 22.44 26.88 C19.71 28.41, 15.71 29.92, 12.36 29.16 C9.01 28.4, 4.43 25.07, 2.34 22.34 C0.25 19.61, -0.66 15.82, -0.2 12.8 C0.27 9.78, 2.67 6.5, 5.15 4.24 C7.64 1.98, 12.53 -0.3, 14.71 -0.78 C16.88 -1.26, 17.91 0.92, 18.18 1.34 M8.42 2.27 C11.17 0.58, 15.28 -1.22, 18.17 -0.52 C21.05 0.19, 23.85 3.72, 25.73 6.52 C27.61 9.33, 29.54 13.39, 29.45 16.3 C29.36 19.21, 27.49 22.02, 25.18 23.96 C22.87 25.89, 18.83 27.26, 15.59 27.9 C12.35 28.54, 8.22 29.35, 5.74 27.78 C3.25 26.2, 1.67 21.5, 0.68 18.45 C-0.32 15.41, -1.26 12.33, -0.23 9.5 C0.8 6.66, 5.51 2.66, 6.85 1.42 C8.2 0.18, 7.34 1.56, 7.83 2.06" stroke="#364fc7" stroke-width="1" fill="none"></path></g><g stroke-linecap="round" transform="translate(451.5 378) rotate(0 15 14.5)"><path d="M1.47 7.9 C1.47 7.9, 1.47 7.9, 1.47 7.9 M1.47 7.9 C1.47 7.9, 1.47 7.9, 1.47 7.9 M0.64 15.97 C1.65 12.95, 4 9.58, 11.69 0.55 M-1.04 16.42 C3.25 11.28, 8.36 5.05, 11.78 1.43 M1.11 19.03 C6.93 12.9, 10.8 9.43, 16.12 3.47 M2.8 19.25 C4.9 14.22, 9.7 12.14, 16.14 3.44 M6.13 24.4 C7.05 20.02, 13.31 12.77, 23.17 2.55 M3.91 23.23 C8.86 16.31, 14.13 10.76, 23.15 2.85 M5.73 25.85 C13.82 16.45, 21.51 11.91, 26.24 5.29 M7.29 25.49 C13.59 18.13, 20.88 8.97, 24.5 6.26 M11.68 27.11 C13.77 21.67, 20.68 16.46, 28.46 10 M11.55 27.03 C16.37 20.48, 22.27 13.82, 28.26 9.14 M13.33 28.55 C16.77 26.21, 21.46 20.53, 30.74 13.98 M15.04 30.14 C18.87 24.3, 24.78 16.57, 29.24 12.84 M20.42 29.05 C23.42 24.76, 27.01 23.06, 29.95 19.05 M20.76 27.64 C23.88 25.07, 24.59 23.19, 29.68 17.5 M6 25.11 C6 25.11, 6 25.11, 6 25.11 M6 25.11 C6 25.11, 6 25.11, 6 25.11 M13.92 27.63 C11.28 23.81, 6.93 23.73, 0 14.74 M15.09 27.31 C10.58 22.87, 5.91 18.1, -0.06 14.68 M19.75 28.13 C12.87 21.53, 6.26 14.75, 1.73 10.81 M20.84 26.56 C15.71 23.4, 9.41 17.41, 0.57 11.01 M27.08 27.78 C21.38 22.6, 13.98 19.54, 1.47 4.25 M25.88 25.27 C17.06 18.79, 7.3 10.03, 3.45 6.51 M26.43 20.82 C24.03 17.2, 17.36 14.79, 4.63 4.58 M27.23 21.75 C19.48 15.91, 11.43 9.56, 6.31 4.03 M28.42 20.46 C20.83 12.31, 14.74 6.86, 9.56 0.33 M28.36 18.75 C23.36 15.25, 17.94 9.88, 8.94 1.05 M29.88 13.91 C22.85 6.97, 15.2 0.3, 11.68 -2.18 M31.6 15.1 C25.93 10.57, 21.72 8.42, 11.7 -2.89" stroke="#7950f2" stroke-width="0.5" fill="none"></path><path d="M20.15 0.9 C22.99 1.84, 25.71 5.31, 27.2 8.06 C28.69 10.8, 29.62 14.28, 29.09 17.38 C28.56 20.47, 26.51 24.54, 24 26.63 C21.48 28.72, 17.07 30.21, 14.01 29.9 C10.95 29.6, 8.08 27.05, 5.65 24.8 C3.21 22.56, 0.12 19.24, -0.58 16.43 C-1.28 13.62, -0.33 10.7, 1.43 7.94 C3.19 5.18, 6.65 0.83, 9.98 -0.12 C13.31 -1.07, 18.99 1.56, 21.4 2.22 C23.8 2.87, 24.36 3.83, 24.41 3.81 M11.58 0.45 C14.3 -0.78, 17.35 -1.09, 20.31 0.11 C23.28 1.32, 27.63 4.82, 29.36 7.67 C31.09 10.52, 31.68 14.34, 30.69 17.21 C29.7 20.09, 26.37 23.16, 23.4 24.92 C20.44 26.67, 15.87 27.77, 12.9 27.76 C9.93 27.75, 7.78 27.06, 5.58 24.86 C3.38 22.66, 0.08 17.86, -0.32 14.56 C-0.72 11.27, 1.32 7.5, 3.16 5.1 C5.01 2.7, 9.39 0.7, 10.73 0.15 C12.07 -0.4, 10.84 1.52, 11.19 1.82" stroke="#364fc7" stroke-width="1" fill="none"></path></g><g transform="translate(405 424.5) rotate(0 15 23.5)"><text x="0" y="33" font-family="Virgil, Segoe UI Emoji" font-size="36px" fill="#000000" text-anchor="start" style="white-space: pre;" direction="ltr">...</text></g><g stroke-linecap="round" transform="translate(163.75000000000006 298.5) rotate(0 272.5 21.5)"><path d="M10.75 0 M10.75 0 C191.74 -1.74, 374.52 -0.69, 534.25 0 M10.75 0 C166.34 0.27, 321.83 0.65, 534.25 0 M534.25 0 C540.73 -0.01, 546.09 4.9, 545 10.75 M534.25 0 C540.23 -1.34, 544.76 2.23, 545 10.75 M545 10.75 C546.05 20.72, 546.43 24.84, 545 32.25 M545 10.75 C545.01 19.68, 545.1 27.79, 545 32.25 M545 32.25 C543.26 37.52, 543.29 43.58, 534.25 43 M545 32.25 C544.88 37.56, 539.12 42.94, 534.25 43 M534.25 43 C428.95 44.55, 322.51 44.92, 10.75 43 M534.25 43 C421.25 43.33, 308.39 42.95, 10.75 43 M10.75 43 C3.82 44.48, 0.91 39.03, 0 32.25 M10.75 43 C2.9 42.36, 0.73 40.68, 0 32.25 M0 32.25 C0.95 28.2, 1.44 20.31, 0 10.75 M0 32.25 C0.54 24.88, -0.65 15.78, 0 10.75 M0 10.75 C-0.2 5.48, 5.2 -1.23, 10.75 0 M0 10.75 C2.21 4.47, 4.98 1.59, 10.75 0" stroke="#1864ab" stroke-width="1" fill="none"></path></g><g transform="translate(182 10) rotate(0 256 23.5)"><text x="0" y="33" font-family="Virgil, Segoe UI Emoji" font-size="36px" fill="#000000" text-anchor="start" style="white-space: pre;" direction="ltr">Stratified Bootstrap for RL</text></g><g stroke-linecap="round" transform="translate(520.7499999999999 305.75) rotate(0 15 14.5)"><path d="M17.73 -0.53 C20.94 -0.04, 25.06 2.85, 27.06 5.37 C29.06 7.89, 29.87 11.37, 29.74 14.59 C29.6 17.81, 28.38 22.33, 26.25 24.69 C24.12 27.04, 20.23 28.33, 16.95 28.74 C13.68 29.14, 9.15 28.54, 6.6 27.12 C4.05 25.7, 2.51 23.12, 1.66 20.21 C0.8 17.31, 0.39 12.65, 1.45 9.71 C2.51 6.77, 4.9 3.97, 8.02 2.59 C11.14 1.21, 17.66 1.56, 20.16 1.41 C22.66 1.27, 23.16 1.48, 23.04 1.74" stroke="none" stroke-width="0" fill="#228be6"></path><path d="M14.89 -0.88 C18.03 -0.84, 23.34 2.44, 25.82 4.86 C28.3 7.27, 29.33 10.6, 29.75 13.62 C30.16 16.65, 30.17 20.53, 28.31 22.98 C26.44 25.43, 21.92 27.44, 18.58 28.33 C15.24 29.23, 11.11 29.47, 8.28 28.35 C5.46 27.22, 2.88 24.36, 1.64 21.57 C0.4 18.78, 0.1 14.7, 0.84 11.6 C1.57 8.49, 3.55 4.84, 6.07 2.93 C8.58 1.03, 13.96 0.71, 15.95 0.18 C17.94 -0.35, 17.88 -0.42, 18.01 -0.27" stroke="#2b8a3e" stroke-width="1.5" fill="none" stroke-dasharray="1.5 7"></path></g><g stroke-linecap="round" transform="translate(566.0833333333333 305.75) rotate(0 15 14.5)"><path d="M17.59 0.18 C20.88 0.6, 24.62 3.17, 26.77 5.55 C28.91 7.92, 30.56 11.31, 30.46 14.43 C30.36 17.55, 28.12 21.89, 26.18 24.26 C24.23 26.62, 21.89 28.22, 18.77 28.63 C15.65 29.05, 10.32 28.22, 7.47 26.75 C4.61 25.29, 2.84 22.6, 1.65 19.85 C0.46 17.11, -0.45 13.06, 0.33 10.27 C1.1 7.49, 3 4.85, 6.29 3.15 C9.58 1.44, 17.7 0.38, 20.08 0.04 C22.46 -0.29, 20.83 0.82, 20.58 1.14" stroke="none" stroke-width="0" fill="#228be6"></path><path d="M16.27 0.98 C19.46 1.18, 23.71 2.92, 25.89 4.91 C28.07 6.91, 29.18 10.05, 29.36 12.95 C29.54 15.86, 28.71 19.74, 26.96 22.36 C25.22 24.97, 22.07 27.81, 18.91 28.64 C15.76 29.48, 10.99 28.64, 8.02 27.36 C5.06 26.08, 2.43 23.82, 1.12 20.97 C-0.18 18.13, -0.64 13.35, 0.18 10.28 C0.99 7.21, 2.89 4.06, 6.02 2.56 C9.15 1.05, 16.64 1.47, 18.96 1.26 C21.27 1.05, 20.03 1.1, 19.9 1.3" stroke="#2b8a3e" stroke-width="1.5" fill="none" stroke-dasharray="1.5 7"></path></g><g stroke-linecap="round" transform="translate(611.4166666666666 305.75) rotate(0 15 14.5)"><path d="M19.31 0.47 C22.25 0.93, 25.69 3.64, 27.3 6.33 C28.92 9.03, 29.22 13.55, 29 16.65 C28.77 19.75, 28.19 22.9, 25.95 24.92 C23.71 26.93, 18.91 28.37, 15.55 28.72 C12.19 29.07, 8.23 28.74, 5.8 27.01 C3.37 25.29, 1.75 21.58, 0.95 18.37 C0.16 15.16, -0.17 10.47, 1.04 7.75 C2.26 5.03, 5.16 3.1, 8.25 2.05 C11.34 1.01, 17.44 1.6, 19.6 1.47 C21.76 1.34, 21.43 1.21, 21.2 1.28" stroke="none" stroke-width="0" fill="#7950f2"></path><path d="M9.74 -0.11 C12.34 -1.39, 16.92 -0.41, 19.99 0.73 C23.06 1.88, 26.39 4.07, 28.17 6.77 C29.96 9.47, 31.22 13.79, 30.68 16.91 C30.14 20.04, 27.54 23.64, 24.93 25.52 C22.32 27.41, 18.21 28.24, 15.02 28.24 C11.84 28.24, 8.3 27.4, 5.85 25.53 C3.39 23.66, 0.86 20.21, 0.29 17.03 C-0.28 13.84, 0.52 9.14, 2.43 6.44 C4.33 3.74, 9.65 1.93, 11.72 0.83 C13.79 -0.26, 14.79 -0.16, 14.84 -0.14" stroke="#2b8a3e" stroke-width="1.5" fill="none" stroke-dasharray="1.5 7"></path></g><g stroke-linecap="round" transform="translate(656.75 305.75) rotate(0 15 14.5)"><path d="M18.71 -0.19 C21.69 0.36, 24.4 3.32, 26.44 6.07 C28.47 8.83, 31.18 13.16, 30.92 16.32 C30.66 19.49, 27.33 23.01, 24.87 25.05 C22.41 27.08, 19.22 28.35, 16.16 28.55 C13.1 28.75, 9.01 27.87, 6.53 26.26 C4.04 24.65, 2.22 21.73, 1.23 18.89 C0.24 16.05, -0.61 12.11, 0.56 9.22 C1.74 6.34, 4.73 2.8, 8.27 1.58 C11.82 0.35, 19.22 1.52, 21.83 1.85 C24.44 2.19, 24.11 3.61, 23.93 3.59" stroke="none" stroke-width="0" fill="#40c057"></path><path d="M13.18 0.7 C16.31 0.39, 21.86 1.14, 24.56 2.9 C27.26 4.67, 28.71 8.31, 29.38 11.27 C30.05 14.24, 29.79 17.98, 28.59 20.69 C27.38 23.4, 25.22 26.06, 22.14 27.52 C19.07 28.98, 13.41 30.25, 10.12 29.43 C6.82 28.61, 4.12 25.25, 2.38 22.62 C0.65 19.99, -0.76 16.78, -0.28 13.67 C0.21 10.56, 2.83 6.37, 5.29 3.96 C7.74 1.55, 12.69 -0.3, 14.47 -0.78 C16.24 -1.26, 15.69 0.64, 15.93 1.09" stroke="#2b8a3e" stroke-width="1.5" fill="none" stroke-dasharray="1.5 7"></path></g><g stroke-linecap="round" transform="translate(519.25 378) rotate(0 15 14.5)"><path d="M17.37 0.89 C20.35 1.55, 24.48 4.05, 26.48 6.37 C28.49 8.69, 29.62 11.94, 29.41 14.81 C29.2 17.68, 27.41 21.12, 25.22 23.58 C23.02 26.04, 19.29 29.08, 16.25 29.57 C13.22 30.06, 9.75 28.22, 7.01 26.51 C4.27 24.8, 0.93 22.25, -0.19 19.31 C-1.31 16.38, -1.03 11.81, 0.29 8.89 C1.61 5.97, 4.24 2.94, 7.73 1.79 C11.22 0.65, 18.75 1.99, 21.24 2.02 C23.73 2.06, 22.94 1.98, 22.67 2" stroke="none" stroke-width="0" fill="#7950f2"></path><path d="M10.73 -0.41 C13.65 -1.45, 18.61 -0.73, 21.56 0.63 C24.52 1.99, 27.01 4.97, 28.47 7.76 C29.94 10.55, 30.97 14.19, 30.35 17.36 C29.73 20.53, 27.57 24.98, 24.75 26.78 C21.92 28.59, 16.81 28.65, 13.41 28.22 C10.02 27.79, 6.43 26.25, 4.38 24.18 C2.32 22.11, 1.54 18.89, 1.09 15.8 C0.63 12.71, -0.51 8.12, 1.67 5.62 C3.86 3.13, 11.55 1.68, 14.19 0.85 C16.83 0.02, 17.71 0.61, 17.5 0.62" stroke="#2b8a3e" stroke-width="1.5" fill="none" stroke-dasharray="1.5 7"></path></g><g stroke-linecap="round" transform="translate(565.5833333333333 378) rotate(0 15 14.5)"><path d="M15.11 -0.35 C18.38 -0.59, 22.67 0.7, 25.06 2.54 C27.45 4.37, 29.04 7.64, 29.45 10.65 C29.87 13.65, 28.93 17.68, 27.56 20.57 C26.19 23.46, 24.18 26.83, 21.26 27.96 C18.34 29.09, 13.14 28.46, 10.03 27.35 C6.93 26.24, 4.28 23.84, 2.61 21.31 C0.94 18.77, -0.4 14.98, 0.02 12.16 C0.44 9.33, 2.04 6.34, 5.13 4.35 C8.21 2.36, 16.06 0.8, 18.54 0.22 C21.01 -0.36, 20.21 0.49, 19.96 0.88" stroke="none" stroke-width="0" fill="#40c057"></path><path d="M16.05 0.62 C19.06 0.86, 23.23 2.41, 25.49 4.76 C27.76 7.11, 29.51 11.47, 29.63 14.73 C29.76 17.98, 28.05 22.06, 26.24 24.29 C24.42 26.52, 21.91 27.63, 18.75 28.1 C15.58 28.57, 10.33 28.29, 7.26 27.1 C4.2 25.92, 1.48 23.97, 0.35 20.98 C-0.79 18, -0.51 12.25, 0.47 9.2 C1.45 6.15, 3.08 4.01, 6.21 2.68 C9.34 1.35, 16.97 1.65, 19.27 1.22 C21.57 0.79, 20.31 -0.01, 20.03 0.1" stroke="#2b8a3e" stroke-width="1.5" fill="none" stroke-dasharray="1.5 7"></path></g><g stroke-linecap="round" transform="translate(611.9166666666665 378) rotate(0 15 14.5)"><path d="M10.39 1.36 C13.3 0.22, 17.56 -0.03, 20.41 0.98 C23.27 1.98, 26.13 4.45, 27.52 7.39 C28.92 10.33, 29.39 15.51, 28.79 18.6 C28.18 21.68, 26.51 24.11, 23.9 25.9 C21.3 27.69, 16.5 29.51, 13.16 29.34 C9.81 29.17, 6.07 27.05, 3.85 24.87 C1.63 22.69, -0.05 19.14, -0.16 16.24 C-0.28 13.34, 0.97 10.22, 3.17 7.48 C5.36 4.73, 11.06 0.99, 13.02 -0.25 C14.98 -1.49, 14.75 -0.43, 14.93 0.03" stroke="none" stroke-width="0" fill="#4c6ef5"></path><path d="M13 -0.41 C16 -0.98, 19.79 0.07, 22.61 1.64 C25.43 3.22, 28.7 5.95, 29.93 9.03 C31.15 12.11, 31.31 17.25, 29.96 20.14 C28.61 23.03, 24.81 25.06, 21.83 26.37 C18.84 27.68, 14.95 28.47, 12.05 27.99 C9.15 27.51, 6.59 25.89, 4.43 23.49 C2.28 21.09, -0.81 16.53, -0.87 13.59 C-0.94 10.66, 1.34 8.12, 4.03 5.89 C6.72 3.67, 13.38 1.27, 15.28 0.25 C17.18 -0.76, 15.54 -0.43, 15.43 -0.19" stroke="#2b8a3e" stroke-width="1.5" fill="none" stroke-dasharray="1.5 7"></path></g><g stroke-linecap="round" transform="translate(658.2499999999998 378) rotate(0 15 14.5)"><path d="M16.3 0.12 C19.14 0.42, 22.55 2.87, 24.77 5.16 C26.99 7.44, 29.13 10.8, 29.61 13.84 C30.1 16.87, 29.35 20.79, 27.69 23.38 C26.02 25.96, 22.81 28.67, 19.63 29.34 C16.45 30.01, 11.59 28.91, 8.6 27.4 C5.61 25.88, 2.95 22.97, 1.69 20.25 C0.43 17.53, 0.4 14.17, 1.05 11.09 C1.69 8, 2.5 3.44, 5.57 1.73 C8.64 0.03, 16.54 0.74, 19.45 0.86 C22.37 0.98, 22.95 2.19, 23.07 2.45" stroke="none" stroke-width="0" fill="#40c057"></path><path d="M10.7 1.35 C13.54 0.21, 16.47 0.12, 19.33 1.01 C22.2 1.9, 26.11 4.07, 27.9 6.7 C29.68 9.34, 30.44 13.55, 30.05 16.82 C29.66 20.08, 28.16 24.08, 25.53 26.28 C22.9 28.47, 17.69 30.02, 14.27 29.98 C10.84 29.93, 7.23 28.04, 4.97 25.99 C2.71 23.94, 1.12 20.63, 0.7 17.65 C0.28 14.68, 0.69 11.18, 2.45 8.15 C4.22 5.12, 9.47 0.89, 11.3 -0.53 C13.13 -1.95, 13.29 -0.86, 13.45 -0.37" stroke="#2b8a3e" stroke-width="1.5" fill="none" stroke-dasharray="1.5 7"></path></g><g stroke-linecap="round" transform="translate(163.75 371) rotate(0 272.5 21.5)"><path d="M10.75 0 M10.75 0 C122.77 -1.7, 235.39 -1.78, 534.25 0 M10.75 0 C190.22 1.29, 369.83 1.03, 534.25 0 M534.25 0 C542.73 -1.7, 546.58 1.87, 545 10.75 M534.25 0 C540.22 -0.85, 543.61 2.19, 545 10.75 M545 10.75 C544.1 18.61, 546.81 27.11, 545 32.25 M545 10.75 C545.4 17.42, 545.02 24.74, 545 32.25 M545 32.25 C543.45 39.12, 540.28 41.79, 534.25 43 M545 32.25 C546.77 37.62, 541.57 43.95, 534.25 43 M534.25 43 C352.67 40.57, 169.68 41.59, 10.75 43 M534.25 43 C422.86 43.39, 311.87 44.04, 10.75 43 M10.75 43 C2.74 42.59, 0.55 37.84, 0 32.25 M10.75 43 C2.38 43.13, 0.86 40.61, 0 32.25 M0 32.25 C-1.8 29.02, -1.21 21.89, 0 10.75 M0 32.25 C0.27 24.55, -0.56 17.85, 0 10.75 M0 10.75 C-0.82 5.35, 4.36 0.08, 10.75 0 M0 10.75 C-0.17 3.7, 3.47 -2.22, 10.75 0" stroke="#087f5b" stroke-width="1" fill="none"></path></g><g transform="translate(207.50000000000006 235.24999999999997) rotate(0 32.49999999999997 13)"><text x="0" y="18" font-family="Virgil, Segoe UI Emoji" font-size="20px" fill="#000000" text-anchor="start" style="white-space: pre;" direction="ltr">Task 1</text></g><g transform="translate(387 235.24999999999997) rotate(0 37 13)"><text x="0" y="18" font-family="Virgil, Segoe UI Emoji" font-size="20px" fill="#364fc7" text-anchor="start" style="white-space: pre;" direction="ltr">Task 2</text></g><g transform="translate(570 235.24999999999997) rotate(0 37 13)"><text x="0" y="18" font-family="Virgil, Segoe UI Emoji" font-size="20px" fill="#2b8a3e" text-anchor="start" style="white-space: pre;" direction="ltr">Task 3</text></g><g stroke-linecap="round"><g transform="translate(572 154.49999999999997) rotate(0 78.35168138341515 -31.980523195750123)"><path d="M0.04 -0.32 C26.33 -10.92, 131.97 -53.12, 158.11 -63.64 M-1.4 -1.54 C24.8 -11.94, 131.5 -52.1, 157.74 -62.19" stroke="#000000" stroke-width="1" fill="none"></path></g><g transform="translate(572 154.49999999999997) rotate(0 78.35168138341515 -31.980523195750123)"><path d="M21.85 -18.48 C14.75 -13.98, 7.73 -8.84, 1.36 -0.94 M21.53 -21.32 C15.07 -12.59, 6.1 -6.44, 1.03 -0.7" stroke="#000000" stroke-width="1" fill="none"></path></g><g transform="translate(572 154.49999999999997) rotate(0 78.35168138341515 -31.980523195750123)"><path d="M29.48 0.57 C19.88 -1.19, 10.36 -2.29, 1.36 -0.94 M29.16 -2.27 C19.81 -0.68, 8 -1.61, 1.03 -0.7" stroke="#000000" stroke-width="1" fill="none"></path></g></g><g transform="translate(740 45.50000000000003) rotate(0 72 39)"><text x="72" y="18" font-family="Virgil, Segoe UI Emoji" font-size="20px" fill="#000000" text-anchor="middle" style="white-space: pre;" direction="ltr">each dot</text><text x="72" y="44" font-family="Virgil, Segoe UI Emoji" font-size="20px" fill="#000000" text-anchor="middle" style="white-space: pre;" direction="ltr">represents one</text><text x="72" y="70" font-family="Virgil, Segoe UI Emoji" font-size="20px" fill="#000000" text-anchor="middle" style="white-space: pre;" direction="ltr">run</text></g><g stroke-linecap="round"><g transform="translate(712.9437869822485 321.09455184277635) rotate(0 34.97543402095033 -0.30133775730581647)"><path d="M-0.23 0.44 C11.37 0.14, 57.74 -0.79, 69.47 -1.04 M-1.81 -0.38 C10.19 -0.55, 59.91 0.29, 71.76 0.37" stroke="#1864ab" stroke-width="1" fill="none"></path></g><g transform="translate(712.9437869822485 321.09455184277635) rotate(0 34.97543402095033 -0.30133775730581647)"><path d="M44.18 8.96 C51.11 7.27, 59.21 5.54, 71.88 -1.1 M42.6 9.89 C53.45 7.45, 63.9 4.34, 70.89 1.17" stroke="#1864ab" stroke-width="1" fill="none"></path></g><g transform="translate(712.9437869822485 321.09455184277635) rotate(0 34.97543402095033 -0.30133775730581647)"><path d="M44.43 -11.56 C51.42 -7.37, 59.45 -3.22, 71.88 -1.1 M42.86 -10.63 C53.53 -6.01, 63.89 -2.06, 70.89 1.17" stroke="#1864ab" stroke-width="1" fill="none"></path></g></g><g transform="translate(806.5 306.5) rotate(0 61.5 13)"><text x="61.5" y="18" font-family="Virgil, Segoe UI Emoji" font-size="20px" fill="#1864ab" text-anchor="middle" style="white-space: pre;" direction="ltr">mean score 1</text></g><g transform="translate(805.25 377.5) rotate(0 66 13)"><text x="66" y="18" font-family="Virgil, Segoe UI Emoji" font-size="20px" fill="#087f5b" text-anchor="middle" style="white-space: pre;" direction="ltr">mean score 2</text></g><g stroke-linecap="round"><g transform="translate(734.4471496472042 233.42263742870338) rotate(0 -89.54302056175368 28.077319310798003)"><path d="M-0.32 -0.26 C-30.34 9.27, -150.15 48.2, -179.97 57.6 M1.71 -1.45 C-28.46 7.67, -150.59 45.92, -180.79 55.63" stroke="#000000" stroke-width="1" fill="none"></path></g><g transform="translate(734.4471496472042 233.42263742870338) rotate(0 -89.54302056175368 28.077319310798003)"><path d="M-157.45 37.72 C-163.85 44.55, -173.7 48.14, -181.68 54.59 M-157.18 36.39 C-162.22 41.7, -168.46 44.44, -180.51 54.64" stroke="#000000" stroke-width="1" fill="none"></path></g><g transform="translate(734.4471496472042 233.42263742870338) rotate(0 -89.54302056175368 28.077319310798003)"><path d="M-151.26 57.29 C-159.65 58.02, -171.42 55.54, -181.68 54.59 M-150.99 55.95 C-157.4 56.81, -165.04 55.15, -180.51 54.64" stroke="#000000" stroke-width="1" fill="none"></path></g></g><g transform="translate(691 169.49999999999997) rotate(0 206 39)"><text x="206" y="18" font-family="Virgil, Segoe UI Emoji" font-size="20px" fill="#000000" text-anchor="middle" style="white-space: pre;" direction="ltr">the scores for each run</text><text x="206" y="44" font-family="Virgil, Segoe UI Emoji" font-size="20px" fill="#000000" text-anchor="middle" style="white-space: pre;" direction="ltr">is normalized so we can aggregate scores</text><text x="206" y="70" font-family="Virgil, Segoe UI Emoji" font-size="20px" fill="#000000" text-anchor="middle" style="white-space: pre;" direction="ltr">from different tasks</text></g><g stroke-linecap="round" transform="translate(788 284.5) rotate(0 82.5 70)"><path d="M-0.67 0.55 C39.88 -1.43, 80.84 -0.6, 164.49 -0.42 M-0.09 -0.27 C34.72 1.09, 69.69 1.1, 164.55 -0.02 M164.24 0.94 C165.94 44.86, 164.81 92.53, 164.9 140.5 M166 -0.11 C165.02 53.27, 165.14 108.29, 165.26 139.62 M164.13 139.97 C102.29 137.73, 40.36 141.53, 0.86 139.43 M165.51 139.19 C107.34 140.26, 48.68 140.87, -0.26 139.8 M1.54 141.12 C0.56 108.65, 1.54 77.22, -1.64 -0.93 M-0.14 140.81 C0.27 87.34, 0.07 34.1, -0.04 -0.72" stroke="#000000" stroke-width="1" fill="none"></path></g><g transform="translate(763 437.5) rotate(0 113 26)"><text x="113" y="18" font-family="Virgil, Segoe UI Emoji" font-size="20px" fill="#000000" text-anchor="middle" style="white-space: pre;" direction="ltr">Aggregated metrics</text><text x="113" y="44" font-family="Virgil, Segoe UI Emoji" font-size="20px" fill="#000000" text-anchor="middle" style="white-space: pre;" direction="ltr">(mean, median, IQM, ...)</text></g><g stroke-linecap="round"><g transform="translate(710.8683431952664 393.90238256786904) rotate(0 36.47995136735193 -0.008754972852415221)"><path d="M0.91 0.12 C13.05 -0.15, 61.16 -0.55, 73.02 -0.74 M-0.06 -0.86 C11.88 -1, 59.54 0.65, 71.95 0.84" stroke="#087f5b" stroke-width="1" fill="none"></path></g><g transform="translate(710.8683431952664 393.90238256786904) rotate(0 36.47995136735193 -0.008754972852415221)"><path d="M43.72 9.98 C52.57 5.21, 61.21 2.93, 71.89 2.35 M43.74 10.66 C49.86 8.1, 56.82 6.39, 72.6 -0.03" stroke="#087f5b" stroke-width="1" fill="none"></path></g><g transform="translate(710.8683431952664 393.90238256786904) rotate(0 36.47995136735193 -0.008754972852415221)"><path d="M44.24 -10.53 C53.08 -8.8, 61.55 -4.57, 71.89 2.35 M44.26 -9.86 C50.15 -7.59, 56.99 -4.49, 72.6 -0.03" stroke="#087f5b" stroke-width="1" fill="none"></path></g></g></svg>