<svg version="1.1" xmlns="http://www.w3.org/2000/svg" viewBox="0 0 894.5764790764799 492.13636363636357" width="2683.72943722944" height="1476.4090909090908" filter="invert(93%) hue-rotate(180deg)">
  <!-- svg-source:excalidraw -->
  
  <defs>
    <style>
      @font-face {
        font-family: "Virgil";
        src: url("https://excalidraw.com/Virgil.woff2");
      }
      @font-face {
        font-family: "Cascadia";
        src: url("https://excalidraw.com/Cascadia.woff2");
      }
    </style>
  </defs>
  <rect x="0" y="0" width="894.5764790764799" height="492.13636363636357" fill="#ffffff"></rect><g transform="translate(184.86363636363632 10) rotate(0 226.50000000000006 23.5)"><text x="0" y="33" font-family="Virgil, Segoe UI Emoji" font-size="36px" fill="#000000" text-anchor="start" style="white-space: pre;" direction="ltr">Interquartile Mean (IQM)</text></g><g stroke-linecap="round"><g transform="translate(37.072863962128736 412.2526795536618) rotate(0 1.0428219506516996 -143.70975801398046)"><path d="M-0.43 0.12 C-0.08 -47.5, 2.08 -238.12, 2.51 -286 M1.55 -0.87 C1.8 -48.76, 2.1 -240.04, 2.13 -287.54" stroke="#000000" stroke-width="1" fill="none"></path></g><g transform="translate(37.072863962128736 412.2526795536618) rotate(0 1.0428219506516996 -143.70975801398046)"><path d="M12.55 -257.52 C10.87 -267.62, 5.52 -277.29, 2.87 -287.69 M11.84 -258.91 C9.34 -271.35, 4.03 -282.45, 2.29 -287.68" stroke="#000000" stroke-width="1" fill="none"></path></g><g transform="translate(37.072863962128736 412.2526795536618) rotate(0 1.0428219506516996 -143.70975801398046)"><path d="M-7.97 -257.55 C-2.78 -267.56, -1.26 -277.22, 2.87 -287.69 M-8.68 -258.93 C-3.09 -271.24, -0.3 -282.33, 2.29 -287.68" stroke="#000000" stroke-width="1" fill="none"></path></g></g><g transform="translate(10 90.1363636363636) rotate(0 26.5 13)"><text x="26.5" y="18" font-family="Virgil, Segoe UI Emoji" font-size="20px" fill="#000000" text-anchor="middle" style="white-space: pre;" direction="ltr">Score</text></g><g stroke-linecap="round" transform="translate(169.42857142857162 404.13636363636357) rotate(0 4.5 3.5)"><path d="M6.28 -0.1 C7.21 0.19, 8.07 1.11, 8.4 1.9 C8.73 2.7, 8.55 4.12, 8.26 4.69 C7.96 5.26, 7.12 4.98, 6.61 5.32 C6.1 5.66, 6.2 6.54, 5.19 6.74 C4.19 6.94, 1.31 6.94, 0.59 6.5 C-0.13 6.06, 0.76 5.01, 0.88 4.08 C1 3.15, 0.91 1.74, 1.31 0.93 C1.71 0.11, 2.2 -0.64, 3.27 -0.81 C4.34 -0.97, 7.02 -0.4, 7.73 -0.08 C8.44 0.24, 7.65 0.81, 7.51 1.12 M5.2 -0.54 C6.2 -0.17, 8.94 1.15, 9.47 1.96 C9.99 2.77, 8.68 3.65, 8.34 4.33 C8 5.02, 7.96 5.43, 7.43 6.09 C6.91 6.76, 6.37 8.41, 5.2 8.3 C4.02 8.19, 1.13 5.91, 0.41 5.43 C-0.32 4.96, 0.83 5.85, 0.86 5.46 C0.88 5.07, 0.07 4.13, 0.54 3.09 C1.02 2.05, 2.83 -0.4, 3.69 -0.77 C4.55 -1.13, 5.2 0.72, 5.7 0.89 C6.19 1.06, 6.84 0.39, 6.66 0.25" stroke="#000000" stroke-width="1" fill="none"></path></g><g stroke-linecap="round" transform="translate(179.57142857142895 325.63636363636357) rotate(0 4.5 3.5)"><path d="M3.88 -0.98 C5.06 -1.14, 7.61 -0.17, 8.31 0.55 C9.01 1.26, 7.93 2.5, 8.09 3.31 C8.25 4.12, 9.5 4.92, 9.26 5.39 C9.02 5.86, 7.68 6.05, 6.65 6.12 C5.62 6.2, 4 6.12, 3.07 5.84 C2.13 5.56, 1.65 4.98, 1.06 4.44 C0.47 3.9, -0.54 3.05, -0.47 2.58 C-0.4 2.11, 0.46 1.99, 1.49 1.6 C2.52 1.2, 5.13 0.55, 5.71 0.2 C6.28 -0.14, 5.15 -0.62, 4.93 -0.48 M4.83 -0.14 C5.98 0.04, 7.85 1.81, 8.35 2.23 C8.86 2.64, 7.72 1.59, 7.85 2.36 C7.97 3.12, 9.45 5.84, 9.1 6.82 C8.75 7.81, 6.68 8.43, 5.73 8.26 C4.78 8.08, 4.34 6.2, 3.4 5.79 C2.45 5.37, 0.51 6.28, 0.06 5.76 C-0.4 5.25, 0.59 3.61, 0.65 2.68 C0.71 1.76, -0.49 0.56, 0.43 0.23 C1.34 -0.1, 5.31 0.56, 6.16 0.7 C7.01 0.85, 5.71 1.31, 5.52 1.12" stroke="#000000" stroke-width="1" fill="none"></path></g><g stroke-linecap="round" transform="translate(162.5714285714286 378.63636363636357) rotate(0 4.5 3.5)"><path d="M2.13 1.11 C2.88 0.81, 4.81 -0.84, 5.94 -0.58 C7.07 -0.31, 8.4 1.81, 8.92 2.71 C9.44 3.6, 9.45 4.2, 9.07 4.81 C8.68 5.41, 7.56 5.89, 6.61 6.33 C5.66 6.77, 4.37 7.56, 3.38 7.44 C2.39 7.31, 1.26 6.16, 0.65 5.57 C0.04 4.98, -0.43 4.42, -0.3 3.89 C-0.16 3.36, 0.75 3.11, 1.45 2.39 C2.14 1.67, 3.51 0.03, 3.88 -0.44 C4.24 -0.91, 3.56 -0.6, 3.65 -0.44 M3.51 0.87 C4.59 0.49, 7.25 -1.03, 8 -0.67 C8.75 -0.31, 7.65 2.19, 8.01 3.06 C8.38 3.93, 10.15 3.85, 10.19 4.53 C10.22 5.21, 9.45 6.8, 8.23 7.13 C7 7.46, 3.92 6.64, 2.84 6.51 C1.76 6.37, 2.23 7.05, 1.75 6.33 C1.26 5.62, 0.15 2.81, -0.06 2.21 C-0.26 1.61, -0.21 2.97, 0.52 2.75 C1.26 2.52, 3.65 1.27, 4.35 0.88 C5.05 0.5, 4.95 0.7, 4.71 0.44" stroke="#000000" stroke-width="1" fill="none"></path></g><g stroke-linecap="round" transform="translate(166.85714285714295 341.63636363636357) rotate(0 4.5 3.5)"><path d="M6.33 -0.19 C7.2 0.15, 6.6 1.11, 7.18 1.76 C7.77 2.42, 9.63 3.18, 9.84 3.75 C10.06 4.31, 9.22 4.78, 8.45 5.16 C7.69 5.53, 6.22 5.92, 5.25 6 C4.27 6.09, 3.52 5.94, 2.6 5.65 C1.67 5.37, 0.1 4.72, -0.3 4.28 C-0.69 3.83, -0.35 3.6, 0.22 2.98 C0.78 2.37, 2.26 1.19, 3.09 0.61 C3.92 0.03, 4.81 -0.56, 5.21 -0.5 C5.61 -0.45, 5.4 0.85, 5.48 0.95 M5.52 1.31 C6.23 1.2, 5.73 -0.3, 6.43 0.23 C7.14 0.76, 9.48 3.39, 9.77 4.49 C10.06 5.59, 8.72 6.57, 8.17 6.81 C7.62 7.04, 7.44 5.8, 6.46 5.89 C5.49 5.99, 3.22 7.52, 2.32 7.38 C1.42 7.24, 1.64 5.91, 1.05 5.05 C0.46 4.2, -1.59 2.85, -1.23 2.25 C-0.87 1.64, 2.1 1.62, 3.22 1.42 C4.35 1.22, 5.23 1.41, 5.53 1.05 C5.83 0.69, 5.33 -0.84, 5.02 -0.73" stroke="#000000" stroke-width="1" fill="none"></path></g><g stroke-linecap="round" transform="translate(170.28571428571428 291.63636363636357) rotate(0 4.5 3.5)"><path d="M4.35 -0.64 C5.18 -1.01, 6.7 -0.92, 7.5 -0.32 C8.29 0.28, 8.87 1.94, 9.1 2.96 C9.32 3.98, 9.31 5.34, 8.84 5.81 C8.36 6.28, 7.25 5.55, 6.24 5.79 C5.23 6.02, 3.71 7.22, 2.78 7.23 C1.85 7.24, 1.07 6.71, 0.67 5.87 C0.26 5.03, 0.26 2.94, 0.34 2.18 C0.43 1.42, 0.54 1.7, 1.19 1.32 C1.84 0.95, 3.65 0.26, 4.23 -0.05 C4.82 -0.36, 4.45 -0.44, 4.67 -0.53 M5.63 -0.52 C6.74 -0.74, 7.27 0.16, 7.88 0.87 C8.49 1.57, 9.44 3.07, 9.27 3.74 C9.1 4.41, 7.68 4.59, 6.88 4.88 C6.08 5.17, 5.51 5.31, 4.49 5.48 C3.47 5.66, 1.58 6.02, 0.76 5.93 C-0.06 5.85, -0.43 5.47, -0.43 4.95 C-0.42 4.42, 0.43 3.65, 0.79 2.77 C1.15 1.88, 0.76 -0.17, 1.73 -0.39 C2.7 -0.6, 6.03 1.51, 6.62 1.48 C7.2 1.45, 5.56 -0.22, 5.23 -0.56" stroke="#000000" stroke-width="1" fill="none"></path></g><g stroke-linecap="round" transform="translate(187.8571428571433 258.63636363636357) rotate(0 4.5 3.5)"><path d="M2.81 0.84 C3.59 0.66, 5.27 -0.3, 6.22 -0.06 C7.18 0.18, 8.17 1.46, 8.54 2.28 C8.91 3.1, 8.71 4.22, 8.44 4.85 C8.17 5.47, 7.55 5.61, 6.94 6.02 C6.32 6.44, 5.53 7.32, 4.74 7.34 C3.95 7.36, 3 6.53, 2.21 6.13 C1.42 5.72, 0.25 5.69, -0.01 4.92 C-0.27 4.14, -0.01 2.38, 0.67 1.47 C1.35 0.56, 3.59 -0.37, 4.07 -0.55 C4.56 -0.72, 3.56 0.15, 3.58 0.44 M6.92 -0.11 C7.84 0.4, 8.22 1.72, 8.46 2.39 C8.7 3.07, 8.28 3.56, 8.36 3.93 C8.45 4.3, 9.7 3.9, 8.99 4.62 C8.29 5.34, 5.12 7.92, 4.13 8.26 C3.13 8.6, 3.44 7.31, 3.02 6.66 C2.6 6.01, 2.08 5.07, 1.61 4.35 C1.14 3.64, 0.15 2.89, 0.2 2.37 C0.25 1.86, 0.76 1.74, 1.89 1.24 C3.01 0.75, 6.17 -0.55, 6.94 -0.61 C7.71 -0.67, 6.83 0.9, 6.5 0.91" stroke="#000000" stroke-width="1" fill="none"></path></g><g stroke-linecap="round" transform="translate(172.14285714285728 264.63636363636357) rotate(0 4.5 3.5)"><path d="M2.74 1 C3.32 0.69, 4.13 0.31, 5.16 0.24 C6.2 0.16, 8.42 -0.15, 8.96 0.57 C9.5 1.3, 8.5 3.67, 8.41 4.59 C8.32 5.51, 8.84 5.71, 8.42 6.09 C8.01 6.47, 7.02 6.81, 5.93 6.9 C4.84 6.98, 2.9 6.9, 1.87 6.59 C0.84 6.29, -0.14 5.89, -0.24 5.06 C-0.33 4.23, 0.61 2.35, 1.3 1.61 C2 0.87, 3.52 0.98, 3.94 0.62 C4.35 0.26, 3.84 -0.64, 3.8 -0.56 M5.89 1.31 C6.49 1.43, 6.73 1.87, 7.3 2.49 C7.88 3.11, 9.4 4.6, 9.36 5.01 C9.32 5.42, 7.88 4.57, 7.05 4.94 C6.22 5.31, 5.39 6.88, 4.37 7.23 C3.36 7.57, 1.54 7.35, 0.97 7.01 C0.4 6.67, 1.26 6.16, 0.97 5.19 C0.69 4.21, -0.99 1.73, -0.75 1.15 C-0.51 0.56, 1.16 1.65, 2.43 1.67 C3.69 1.69, 6.28 1.73, 6.83 1.25 C7.38 0.77, 6.13 -0.87, 5.73 -1.2" stroke="#000000" stroke-width="1" fill="none"></path></g><g stroke-linecap="round" transform="translate(174.99999999999994 241.63636363636357) rotate(0 4.5 3.5)"><path d="M3.1 0.71 C3.97 0.32, 6.3 -0.21, 7.12 0.09 C7.94 0.39, 7.66 1.69, 8.03 2.51 C8.41 3.33, 9.47 4.24, 9.39 5.01 C9.32 5.79, 8.46 6.7, 7.59 7.16 C6.72 7.62, 5.32 7.88, 4.16 7.78 C3 7.69, 1.3 7.14, 0.65 6.59 C0 6.05, 0.28 5.51, 0.24 4.53 C0.21 3.56, -0.15 1.46, 0.44 0.73 C1.02 0.01, 3.13 0.23, 3.76 0.18 C4.38 0.13, 4 0.35, 4.17 0.45 M4.18 1.61 C5.38 1.37, 6.69 0.64, 7.16 0.5 C7.64 0.36, 6.92 0.3, 7.02 0.78 C7.12 1.26, 7.65 2.32, 7.76 3.38 C7.88 4.45, 8.26 6.59, 7.71 7.17 C7.15 7.75, 5.59 6.82, 4.45 6.84 C3.32 6.87, 1.57 7.9, 0.88 7.32 C0.19 6.74, 0.42 4.2, 0.32 3.36 C0.22 2.53, -0.15 2.86, 0.29 2.3 C0.72 1.75, 2.4 0.34, 2.92 0.03 C3.44 -0.28, 3.52 0.63, 3.41 0.47" stroke="#000000" stroke-width="1" fill="none"></path></g><g stroke-linecap="round" transform="translate(177.28571428571462 215.63636363636357) rotate(0 4.5 3.5)"><path d="M3.76 1.15 C4.84 0.89, 6.15 0.41, 6.77 0.4 C7.39 0.39, 7.24 0.56, 7.47 1.09 C7.7 1.63, 8.13 2.65, 8.15 3.61 C8.18 4.57, 8.23 6.28, 7.61 6.83 C7 7.38, 5.57 6.87, 4.49 6.89 C3.41 6.91, 1.84 7.49, 1.14 6.95 C0.43 6.4, 0.37 4.43, 0.24 3.62 C0.12 2.82, -0.22 2.75, 0.38 2.13 C0.99 1.51, 3.08 0.23, 3.87 -0.09 C4.67 -0.42, 5.23 0.29, 5.15 0.2 M3.8 0.89 C4.8 0.99, 6 1.22, 6.57 1.33 C7.15 1.43, 6.95 0.78, 7.24 1.52 C7.52 2.25, 8.17 5.07, 8.27 5.74 C8.38 6.42, 8.44 5.49, 7.86 5.56 C7.28 5.63, 5.85 6.08, 4.81 6.17 C3.77 6.27, 2.47 6.77, 1.61 6.13 C0.75 5.48, -0.43 3, -0.35 2.3 C-0.27 1.61, 1.44 2.33, 2.07 1.97 C2.7 1.61, 3.39 0.44, 3.42 0.14 C3.45 -0.17, 2.04 0.22, 2.26 0.14" stroke="#000000" stroke-width="1" fill="none"></path></g><g stroke-linecap="round" transform="translate(177.14285714285762 193.63636363636357) rotate(0 4.5 3.5)"><path d="M3.9 0.99 C4.77 0.41, 5.61 -0.68, 6.25 -0.69 C6.9 -0.69, 7.41 0.14, 7.78 0.97 C8.15 1.8, 8.42 3.44, 8.47 4.3 C8.52 5.16, 8.74 5.76, 8.06 6.12 C7.38 6.49, 5.34 6.45, 4.38 6.49 C3.43 6.53, 3.15 6.77, 2.34 6.34 C1.53 5.91, -0.22 4.67, -0.46 3.9 C-0.69 3.14, 0.36 2.32, 0.96 1.75 C1.56 1.17, 2.68 0.8, 3.14 0.44 C3.6 0.08, 3.84 -0.34, 3.72 -0.41 M4.31 0.08 C5.49 -0.4, 6.87 -1.29, 7.49 -1.03 C8.11 -0.78, 7.59 0.54, 8 1.63 C8.42 2.71, 10.31 4.53, 9.98 5.48 C9.66 6.43, 7.19 7.03, 6.05 7.35 C4.91 7.67, 3.9 7.71, 3.14 7.4 C2.37 7.1, 2.21 5.96, 1.46 5.53 C0.72 5.09, -1.35 5.52, -1.34 4.81 C-1.33 4.1, 0.7 2.28, 1.52 1.28 C2.33 0.27, 3.23 -1.2, 3.56 -1.21 C3.89 -1.21, 3.63 1.03, 3.51 1.27" stroke="#000000" stroke-width="1" fill="none"></path></g><g stroke-linecap="round" transform="translate(174.00000000000028 107.6363636363636) rotate(0 4.5 3.5)"><path d="M6.01 0.15 C6.86 0.04, 7.03 0.02, 7.59 0.68 C8.16 1.33, 9.4 3.16, 9.39 4.07 C9.37 4.97, 8.35 5.52, 7.49 6.11 C6.64 6.7, 5.29 7.62, 4.26 7.62 C3.22 7.63, 1.81 6.69, 1.28 6.15 C0.75 5.61, 1.34 5.19, 1.08 4.39 C0.83 3.58, -0.54 2.05, -0.27 1.29 C0.01 0.53, 1.53 0.07, 2.73 -0.16 C3.94 -0.39, 6.25 -0.18, 6.98 -0.1 C7.71 -0.01, 7.35 0.13, 7.13 0.37 M6.18 -0.85 C7.15 -0.73, 7.85 0.29, 8.2 0.97 C8.56 1.66, 8.56 2.38, 8.31 3.26 C8.07 4.14, 7.14 5.55, 6.73 6.27 C6.32 6.98, 6.75 7.36, 5.85 7.57 C4.95 7.78, 2.08 8.13, 1.34 7.51 C0.59 6.89, 1.71 4.67, 1.38 3.84 C1.04 3.01, -0.8 3.2, -0.69 2.53 C-0.57 1.86, 0.88 -0.02, 2.09 -0.18 C3.3 -0.34, 6.05 1.35, 6.56 1.57 C7.08 1.78, 5.37 1.06, 5.19 1.11" stroke="#000000" stroke-width="1" fill="none"></path></g><g stroke-linecap="round" transform="translate(172.71428571428595 134.6363636363636) rotate(0 4.5 3.5)"><path d="M6.41 0.06 C7.3 0.53, 7.5 1.95, 8.08 2.62 C8.66 3.29, 9.92 3.46, 9.9 4.08 C9.87 4.71, 8.68 6.03, 7.92 6.36 C7.16 6.69, 6.25 6.26, 5.33 6.07 C4.41 5.87, 3.44 5.45, 2.4 5.19 C1.35 4.92, -0.64 5.1, -0.92 4.47 C-1.21 3.85, 0.06 2.34, 0.7 1.46 C1.34 0.58, 1.91 -0.59, 2.93 -0.78 C3.95 -0.97, 5.94 -0.06, 6.83 0.31 C7.73 0.69, 8.31 1.24, 8.3 1.48 M4.62 0.78 C5.4 0.41, 6.55 -0.54, 7.29 -0.42 C8.04 -0.31, 8.96 0.39, 9.08 1.49 C9.21 2.59, 8.68 5.47, 8.04 6.17 C7.41 6.86, 5.99 5.62, 5.26 5.67 C4.53 5.72, 4.22 6.63, 3.65 6.47 C3.09 6.3, 2.24 4.99, 1.87 4.69 C1.51 4.4, 1.67 5.03, 1.46 4.69 C1.24 4.34, 0.04 3.17, 0.57 2.63 C1.1 2.08, 4.25 1.9, 4.64 1.44 C5.03 0.98, 2.84 -0.18, 2.91 -0.16" stroke="#000000" stroke-width="1" fill="none"></path></g><g stroke-linecap="round" transform="translate(186.7142857142863 277.63636363636357) rotate(0 4.5 3.5)"><path d="M5.24 0.1 C6.21 -0.04, 6.97 -0.08, 7.51 0.62 C8.05 1.33, 8.38 3.62, 8.46 4.34 C8.54 5.06, 8.53 4.5, 7.98 4.93 C7.42 5.35, 6.1 6.49, 5.13 6.89 C4.15 7.3, 2.82 7.74, 2.13 7.35 C1.44 6.97, 1.17 5.28, 0.99 4.58 C0.82 3.89, 0.93 3.95, 1.08 3.19 C1.23 2.43, 1.09 0.38, 1.88 0.01 C2.67 -0.36, 5.23 1.05, 5.82 0.98 C6.41 0.91, 5.29 -0.32, 5.41 -0.41 M3.55 -0.67 C4.6 -1.16, 5.54 -1.04, 6.45 -0.5 C7.35 0.03, 8.51 1.95, 8.98 2.53 C9.46 3.12, 9.36 2.18, 9.3 2.99 C9.23 3.81, 9.19 6.56, 8.6 7.4 C8.01 8.24, 6.88 8.23, 5.75 8.06 C4.62 7.89, 2.8 6.99, 1.84 6.37 C0.87 5.75, 0.18 4.86, -0.01 4.35 C-0.21 3.84, 0.37 3.91, 0.66 3.3 C0.94 2.69, 1.25 1.13, 1.68 0.68 C2.12 0.23, 2.92 0.72, 3.26 0.59" stroke="#000000" stroke-width="1" fill="none"></path></g><g stroke-linecap="round" transform="translate(185.42857142857196 292.63636363636357) rotate(0 4.5 3.5)"><path d="M5.88 0.74 C7.02 0.67, 7.94 0.74, 8.47 1.15 C9 1.56, 9.11 2.45, 9.06 3.21 C9.01 3.96, 8.62 5.18, 8.19 5.67 C7.77 6.16, 7.41 5.95, 6.51 6.16 C5.6 6.37, 3.77 7.05, 2.78 6.92 C1.78 6.79, 1.06 5.97, 0.55 5.4 C0.05 4.83, -0.39 4.16, -0.27 3.49 C-0.14 2.82, 0.17 1.87, 1.3 1.38 C2.44 0.9, 5.66 0.76, 6.56 0.58 C7.45 0.39, 6.94 0.39, 6.69 0.3 M2.96 -0.36 C4.09 -0.33, 7.33 0.63, 8.18 1.28 C9.03 1.93, 7.78 3.17, 8.06 3.55 C8.33 3.93, 10.17 3.16, 9.84 3.56 C9.51 3.97, 7.39 5.59, 6.08 5.98 C4.76 6.36, 2.66 5.88, 1.94 5.88 C1.21 5.88, 2.11 6.63, 1.7 5.97 C1.3 5.32, -0.49 2.61, -0.48 1.95 C-0.48 1.3, 1.12 2.4, 1.73 2.05 C2.33 1.7, 2.72 0.34, 3.14 -0.15 C3.56 -0.64, 4.04 -0.8, 4.26 -0.89" stroke="#000000" stroke-width="1" fill="none"></path></g><g stroke-linecap="round" transform="translate(181.99999999999994 355.63636363636357) rotate(0 4.5 3.5)"><path d="M3.45 0.19 C4.37 -0.22, 5.4 -0.59, 6.22 -0.41 C7.04 -0.23, 7.9 0.41, 8.36 1.28 C8.82 2.15, 9.17 4.08, 9 4.81 C8.82 5.55, 8.16 5.47, 7.32 5.69 C6.48 5.92, 5.04 5.96, 3.93 6.17 C2.82 6.39, 1.45 7.38, 0.66 6.98 C-0.13 6.58, -0.8 4.56, -0.82 3.76 C-0.83 2.95, -0.1 2.86, 0.58 2.14 C1.26 1.41, 2.47 -0.21, 3.25 -0.59 C4.03 -0.96, 4.95 -0.31, 5.25 -0.1 M4.11 0.76 C4.92 0.86, 6.66 0.32, 7.49 0.93 C8.33 1.54, 8.9 3.88, 9.12 4.44 C9.34 5.01, 9.62 3.81, 8.83 4.32 C8.03 4.83, 5.48 7.02, 4.34 7.49 C3.21 7.96, 2.48 7.68, 2.03 7.14 C1.59 6.61, 1.89 4.89, 1.68 4.27 C1.47 3.65, 0.47 4.04, 0.78 3.44 C1.08 2.84, 2.86 1.28, 3.52 0.67 C4.17 0.06, 4.3 0.03, 4.72 -0.23 C5.13 -0.48, 6.13 -0.75, 6.02 -0.88" stroke="#000000" stroke-width="1" fill="none"></path></g><g stroke-linecap="round" transform="translate(190.99999999999983 211.63636363636357) rotate(0 4.5 3.5)"><path d="M3.53 -0.73 C4.31 -0.76, 4.33 0.74, 5.23 1 C6.12 1.27, 8.42 0.23, 8.92 0.84 C9.41 1.45, 8.63 3.78, 8.2 4.67 C7.78 5.57, 6.96 5.85, 6.37 6.21 C5.79 6.57, 5.54 6.83, 4.69 6.84 C3.85 6.85, 1.95 6.74, 1.29 6.29 C0.63 5.84, 0.84 4.88, 0.73 4.13 C0.61 3.39, 0.04 2.61, 0.6 1.84 C1.16 1.06, 3.48 -0.22, 4.09 -0.53 C4.7 -0.85, 4.37 -0.16, 4.27 -0.05 M3.37 0.5 C4.59 0.35, 7.01 0.53, 8.02 1.02 C9.04 1.52, 9.35 3, 9.45 3.47 C9.55 3.94, 9.24 3.57, 8.62 3.84 C8.01 4.11, 6.57 4.72, 5.74 5.11 C4.91 5.49, 4.55 5.84, 3.65 6.14 C2.76 6.45, 0.84 7.45, 0.37 6.92 C-0.1 6.39, 0.85 3.8, 0.82 2.96 C0.79 2.13, -0.02 2.51, 0.2 1.91 C0.41 1.31, 1.69 -0.48, 2.1 -0.63 C2.51 -0.79, 2.24 0.69, 2.67 0.96" stroke="#000000" stroke-width="1" fill="none"></path></g><g stroke-linecap="round" transform="translate(190.99999999999994 240.63636363636354) rotate(0 4.5 3.5)"><path d="M3.54 0.38 C4.32 0.03, 5.97 -0.69, 6.7 -0.2 C7.43 0.29, 7.69 2.56, 7.95 3.31 C8.21 4.07, 8.43 3.87, 8.26 4.32 C8.09 4.77, 7.77 5.53, 6.94 6 C6.1 6.47, 4.12 7.16, 3.25 7.14 C2.38 7.12, 2.41 6.56, 1.72 5.87 C1.03 5.18, -0.87 3.8, -0.91 3.01 C-0.94 2.22, 0.58 1.74, 1.49 1.13 C2.41 0.51, 4.11 -0.46, 4.58 -0.68 C5.06 -0.89, 4.39 -0.39, 4.35 -0.17 M3.96 1.5 C4.33 1.16, 3.48 1.26, 4.35 1.39 C5.22 1.51, 8.3 1.7, 9.2 2.25 C10.09 2.8, 9.82 3.82, 9.72 4.66 C9.62 5.5, 9.54 6.9, 8.59 7.27 C7.65 7.63, 5.39 6.84, 4.06 6.85 C2.72 6.85, 1.06 7.71, 0.6 7.3 C0.15 6.89, 1.38 5.09, 1.33 4.4 C1.27 3.72, 0.16 4.08, 0.26 3.19 C0.36 2.29, 1.58 -0.59, 1.94 -0.95 C2.3 -1.32, 2.5 0.56, 2.43 1" stroke="#000000" stroke-width="1" fill="none"></path></g><g stroke-linecap="round" transform="translate(201.99999999999994 271.63636363636357) rotate(0 4.5 3.5)"><path d="M6.48 0.82 C7.43 0.84, 8.79 0.77, 9.19 1.16 C9.58 1.55, 9.03 2.22, 8.85 3.18 C8.67 4.14, 8.81 6.3, 8.11 6.92 C7.41 7.54, 5.56 7.07, 4.63 6.88 C3.69 6.68, 3.39 6.24, 2.49 5.76 C1.59 5.28, -0.5 4.82, -0.75 4.01 C-1.01 3.21, 0.25 1.68, 0.97 0.95 C1.69 0.21, 2.54 -0.19, 3.58 -0.39 C4.63 -0.59, 6.79 -0.46, 7.24 -0.25 C7.69 -0.04, 6.58 0.66, 6.28 0.88 M6.71 -0.77 C7.59 -0.28, 7.02 1.53, 7.15 2.27 C7.28 3.01, 7.49 3.29, 7.49 3.69 C7.5 4.08, 7.48 4.26, 7.18 4.62 C6.88 4.98, 6.68 5.32, 5.71 5.83 C4.73 6.35, 2.04 8.01, 1.33 7.7 C0.61 7.39, 1.67 4.9, 1.41 3.98 C1.14 3.06, -0.38 2.56, -0.25 2.18 C-0.13 1.8, 1.37 2.26, 2.16 1.69 C2.95 1.12, 4.1 -0.85, 4.51 -1.24 C4.92 -1.63, 4.5 -1, 4.61 -0.64" stroke="#000000" stroke-width="1" fill="none"></path></g><g stroke-linecap="round" transform="translate(158.99999999999983 255.63636363636357) rotate(0 4.5 3.5)"><path d="M3.3 0.77 C4 0.48, 4.39 -0.73, 5.35 -0.68 C6.31 -0.62, 8.56 0.23, 9.04 1.11 C9.52 1.98, 8.67 3.73, 8.24 4.56 C7.81 5.38, 7.12 5.79, 6.46 6.05 C5.79 6.3, 4.96 6.19, 4.25 6.09 C3.55 5.99, 2.99 5.62, 2.23 5.45 C1.47 5.28, -0.16 5.72, -0.3 5.06 C-0.43 4.41, 0.89 2.33, 1.41 1.53 C1.93 0.73, 2.49 0.34, 2.81 0.26 C3.14 0.17, 3.4 1.16, 3.37 1.05 M3.37 0.51 C4.13 0.18, 3.79 -0.46, 4.72 -0.44 C5.64 -0.42, 7.99 -0.25, 8.93 0.63 C9.87 1.52, 10.58 4.02, 10.36 4.87 C10.13 5.72, 8.8 5.47, 7.58 5.76 C6.37 6.04, 3.94 6.73, 3.07 6.58 C2.21 6.44, 2.72 5.39, 2.39 4.9 C2.06 4.4, 1.22 4.3, 1.08 3.63 C0.95 2.96, 1.2 1.41, 1.59 0.89 C1.97 0.37, 3.22 0.4, 3.41 0.51 C3.6 0.61, 2.9 1.39, 2.73 1.51" stroke="#000000" stroke-width="1" fill="none"></path></g><g stroke-linecap="round" transform="translate(163.99999999999994 280.63636363636357) rotate(0 4.5 3.5)"><path d="M5.3 -0.8 C6.46 -0.78, 8.17 -0.22, 8.72 0.69 C9.28 1.61, 8.64 3.84, 8.61 4.67 C8.58 5.5, 9.24 5.28, 8.56 5.68 C7.87 6.09, 5.63 6.84, 4.48 7.11 C3.33 7.38, 2.5 7.9, 1.64 7.3 C0.79 6.71, -0.3 4.5, -0.63 3.53 C-0.95 2.56, -0.79 1.98, -0.3 1.49 C0.18 1.01, 1.23 1, 2.29 0.63 C3.35 0.26, 5.5 -0.71, 6.06 -0.71 C6.62 -0.7, 5.82 0.3, 5.64 0.66 M4.21 -0.3 C5.2 -0.31, 7.98 -0.41, 8.95 0.19 C9.91 0.79, 10.04 2.48, 10 3.3 C9.95 4.12, 9.46 4.44, 8.68 5.1 C7.91 5.76, 6.54 6.86, 5.37 7.28 C4.2 7.69, 2.67 7.96, 1.68 7.6 C0.7 7.24, -0.19 6.06, -0.54 5.11 C-0.89 4.17, -0.69 2.48, -0.39 1.93 C-0.09 1.38, 0.46 2.21, 1.25 1.83 C2.04 1.45, 3.37 0.02, 4.33 -0.33 C5.3 -0.69, 6.71 -0.31, 7.05 -0.32" stroke="#000000" stroke-width="1" fill="none"></path></g><g transform="translate(121.49999999999994 315.13636363636357) rotate(0 82.5 4.5)" stroke="none" fill="#c92a2a"><path d="M 0.30,-1.53 Q 0.30,-1.53 3.17,-0.92 6.04,-0.31 13.54,0.80 21.05,1.93 29.39,2.70 37.73,3.47 48.17,4.09 58.61,4.71 70.54,5.56 82.47,6.40 98.71,6.76 114.96,7.12 127.33,7.28 139.71,7.43 146.98,7.50 154.25,7.57 157.34,7.60 160.44,7.63 160.65,7.66 160.86,7.70 161.05,7.80 161.24,7.91 161.38,8.06 161.53,8.22 161.62,8.42 161.71,8.61 161.73,8.82 161.75,9.04 161.70,9.25 161.65,9.46 161.54,9.64 161.43,9.82 161.26,9.96 161.10,10.10 160.90,10.18 160.70,10.25 160.48,10.26 160.27,10.27 160.06,10.21 159.86,10.15 159.68,10.03 159.50,9.91 159.38,9.74 159.25,9.57 159.18,9.36 159.11,9.16 159.12,8.94 159.12,8.73 159.19,8.53 159.26,8.32 159.39,8.15 159.52,7.98 159.70,7.86 159.88,7.75 160.09,7.69 160.29,7.63 160.51,7.65 160.72,7.66 160.92,7.74 161.12,7.82 161.28,7.96 161.44,8.10 161.55,8.29 161.66,8.47 161.71,8.68 161.75,8.89 161.73,9.11 161.70,9.32 161.61,9.52 161.52,9.71 161.37,9.86 161.22,10.02 161.03,10.12 160.84,10.22 160.62,10.25 160.41,10.28 160.41,10.28 160.41,10.28 157.32,10.26 154.23,10.23 146.95,10.17 139.68,10.11 127.29,9.97 114.90,9.82 98.59,9.47 82.28,9.12 70.36,8.30 58.45,7.47 47.96,6.88 37.48,6.28 29.05,5.53 20.63,4.79 13.04,3.70 5.45,2.61 2.57,2.07 -0.30,1.53 -0.48,1.47 -0.66,1.41 -0.82,1.31 -0.98,1.21 -1.11,1.07 -1.24,0.94 -1.33,0.78 -1.43,0.61 -1.48,0.43 -1.54,0.25 -1.54,0.06 -1.55,-0.11 -1.52,-0.30 -1.48,-0.48 -1.40,-0.65 -1.32,-0.82 -1.20,-0.97 -1.08,-1.12 -0.93,-1.23 -0.78,-1.34 -0.61,-1.42 -0.44,-1.49 -0.25,-1.52 -0.06,-1.56 0.11,-1.54 0.30,-1.53 0.30,-1.53 L 0.30,-1.53 Z"></path></g><g transform="translate(124.49999999999994 222.13636363636357) rotate(0 89.5 6)" stroke="none" fill="#0b7285"><path d="M 0.15,-1.55 Q 0.15,-1.55 3.02,-1.23 5.90,-0.91 10.08,0.11 14.27,1.13 19.64,1.55 25.00,1.97 31.35,2.45 37.70,2.93 45.03,3.71 52.35,4.50 58.61,5.12 64.87,5.74 70.97,6.29 77.08,6.85 83.41,7.37 89.74,7.90 97.59,8.41 105.45,8.92 118.54,9.14 131.62,9.35 141.22,9.45 150.82,9.54 156.91,9.58 163.00,9.62 167.35,9.93 171.71,10.23 174.73,10.29 177.76,10.35 178.01,10.40 178.25,10.46 178.47,10.59 178.69,10.72 178.85,10.92 179.01,11.11 179.11,11.35 179.20,11.59 179.21,11.84 179.22,12.09 179.15,12.34 179.08,12.58 178.94,12.79 178.79,13.00 178.59,13.15 178.39,13.31 178.15,13.39 177.91,13.46 177.65,13.46 177.40,13.46 177.16,13.38 176.92,13.30 176.72,13.14 176.52,12.99 176.37,12.77 176.23,12.56 176.17,12.32 176.10,12.07 176.12,11.82 176.13,11.57 176.23,11.33 176.32,11.10 176.49,10.90 176.65,10.71 176.87,10.58 177.09,10.45 177.34,10.40 177.59,10.35 177.84,10.37 178.09,10.40 178.32,10.51 178.55,10.62 178.74,10.80 178.92,10.97 179.04,11.20 179.15,11.42 179.19,11.67 179.23,11.92 179.19,12.18 179.15,12.43 179.03,12.65 178.91,12.87 178.72,13.05 178.53,13.22 178.30,13.32 178.07,13.43 177.82,13.46 177.57,13.48 177.57,13.48 177.57,13.48 174.55,13.17 171.52,12.86 167.25,12.56 162.98,12.26 156.89,12.22 150.79,12.18 141.19,12.09 131.58,12.00 118.43,11.78 105.28,11.57 97.40,11.06 89.52,10.55 83.18,10.04 76.84,9.52 70.72,8.97 64.60,8.43 58.33,7.82 52.06,7.21 44.78,6.45 37.50,5.69 31.15,5.23 24.79,4.78 19.20,4.36 13.60,3.94 9.60,3.00 5.59,2.06 2.72,1.80 -0.15,1.55 -0.33,1.51 -0.52,1.47 -0.69,1.38 -0.86,1.30 -1.00,1.18 -1.14,1.06 -1.25,0.90 -1.36,0.75 -1.43,0.58 -1.50,0.40 -1.53,0.21 -1.56,0.03 -1.54,-0.15 -1.52,-0.34 -1.46,-0.51 -1.39,-0.69 -1.29,-0.85 -1.19,-1.01 -1.05,-1.13 -0.91,-1.26 -0.74,-1.35 -0.58,-1.44 -0.40,-1.49 -0.22,-1.54 -0.03,-1.55 0.15,-1.55 0.15,-1.55 L 0.15,-1.55 Z"></path></g><g transform="translate(119.5 191.13636363636357) rotate(0 52.99999999999997 -38.499999999999986)" stroke="none" fill="#0b7285"><path d="M -1.10,-1.10 Q -1.10,-1.10 0.64,-2.80 2.39,-4.50 7.52,-8.44 12.65,-12.38 19.15,-16.92 25.64,-21.45 35.85,-29.10 46.06,-36.75 54.76,-42.34 63.46,-47.92 69.99,-52.56 76.52,-57.20 81.91,-60.91 87.29,-64.62 91.28,-67.61 95.27,-70.61 98.12,-72.75 100.98,-74.89 102.13,-75.88 103.28,-76.88 103.50,-76.99 103.72,-77.11 103.97,-77.15 104.21,-77.18 104.46,-77.14 104.70,-77.10 104.92,-76.98 105.14,-76.87 105.31,-76.68 105.48,-76.50 105.58,-76.28 105.69,-76.05 105.71,-75.80 105.74,-75.56 105.68,-75.31 105.63,-75.07 105.50,-74.86 105.37,-74.65 105.18,-74.49 104.99,-74.33 104.75,-74.24 104.52,-74.15 104.28,-74.13 104.03,-74.12 103.79,-74.19 103.55,-74.26 103.34,-74.40 103.14,-74.54 102.99,-74.74 102.84,-74.94 102.76,-75.17 102.68,-75.41 102.69,-75.66 102.69,-75.91 102.77,-76.14 102.85,-76.38 103.00,-76.57 103.15,-76.77 103.36,-76.91 103.57,-77.05 103.81,-77.11 104.05,-77.18 104.29,-77.16 104.54,-77.15 104.77,-77.05 105.00,-76.96 105.19,-76.80 105.38,-76.64 105.51,-76.42 105.63,-76.21 105.68,-75.97 105.74,-75.72 105.71,-75.48 105.68,-75.23 105.57,-75.00 105.47,-74.78 105.30,-74.60 105.12,-74.42 105.12,-74.42 105.12,-74.42 103.85,-73.59 102.57,-72.77 99.72,-70.62 96.87,-68.48 92.84,-65.44 88.81,-62.41 83.45,-58.71 78.09,-55.00 71.51,-50.31 64.94,-45.63 56.33,-40.08 47.72,-34.54 37.49,-26.84 27.26,-19.14 20.84,-14.62 14.42,-10.09 9.46,-6.24 4.50,-2.39 2.80,-0.64 1.10,1.10 0.95,1.22 0.80,1.33 0.63,1.41 0.46,1.49 0.27,1.52 0.09,1.55 -0.09,1.54 -0.28,1.53 -0.46,1.48 -0.64,1.42 -0.80,1.32 -0.96,1.22 -1.09,1.09 -1.22,0.96 -1.32,0.80 -1.42,0.64 -1.48,0.46 -1.53,0.28 -1.54,0.09 -1.55,-0.09 -1.52,-0.27 -1.49,-0.46 -1.41,-0.63 -1.33,-0.80 -1.22,-0.95 -1.10,-1.10 -1.10,-1.10 L -1.10,-1.10 Z"></path></g><g transform="translate(167.49999999999994 196.13636363636357) rotate(0 68 -46.999999999999986)" stroke="none" fill="#0b7285"><path d="M -0.68,-1.49 Q -0.68,-1.49 2.49,-2.89 5.67,-4.28 11.24,-7.97 16.81,-11.66 29.27,-20.42 41.74,-29.18 57.98,-40.10 74.23,-51.01 90.88,-63.11 107.54,-75.20 115.50,-80.92 123.45,-86.64 126.83,-89.07 130.21,-91.49 130.41,-91.59 130.60,-91.69 130.82,-91.72 131.04,-91.75 131.25,-91.71 131.47,-91.66 131.66,-91.56 131.85,-91.45 131.99,-91.29 132.14,-91.13 132.22,-90.93 132.31,-90.73 132.33,-90.51 132.35,-90.29 132.29,-90.08 132.24,-89.87 132.12,-89.68 132.01,-89.50 131.84,-89.36 131.67,-89.22 131.46,-89.15 131.26,-89.07 131.04,-89.07 130.82,-89.06 130.61,-89.13 130.40,-89.19 130.23,-89.32 130.05,-89.44 129.92,-89.62 129.79,-89.80 129.73,-90.01 129.67,-90.21 129.67,-90.43 129.68,-90.65 129.75,-90.86 129.83,-91.06 129.96,-91.23 130.10,-91.40 130.28,-91.52 130.47,-91.64 130.68,-91.69 130.89,-91.74 131.11,-91.73 131.33,-91.71 131.53,-91.62 131.73,-91.54 131.89,-91.39 132.05,-91.24 132.16,-91.05 132.27,-90.86 132.31,-90.65 132.35,-90.44 132.32,-90.22 132.29,-90.00 132.20,-89.81 132.10,-89.61 131.94,-89.46 131.79,-89.30 131.79,-89.30 131.79,-89.30 128.42,-86.87 125.04,-84.43 117.10,-78.70 109.16,-72.97 92.48,-60.82 75.80,-48.68 59.60,-37.75 43.40,-26.82 30.93,-18.00 18.46,-9.18 12.71,-5.32 6.97,-1.46 3.82,0.01 0.68,1.49 0.49,1.55 0.30,1.61 0.10,1.63 -0.09,1.64 -0.28,1.60 -0.48,1.57 -0.66,1.49 -0.84,1.41 -1.00,1.29 -1.15,1.16 -1.28,1.01 -1.40,0.85 -1.48,0.67 -1.57,0.49 -1.60,0.30 -1.64,0.10 -1.63,-0.09 -1.62,-0.29 -1.56,-0.48 -1.50,-0.67 -1.40,-0.84 -1.29,-1.01 -1.15,-1.15 -1.02,-1.29 -0.85,-1.39 -0.68,-1.49 -0.68,-1.49 L -0.68,-1.49 Z"></path></g><g transform="translate(234.49999999999994 198.13636363636357) rotate(0 54 -39.999999999999986)" stroke="none" fill="#0b7285"><path d="M -0.96,-1.28 Q -0.96,-1.28 1.36,-2.97 3.68,-4.67 5.62,-5.72 7.56,-6.78 9.45,-8.02 11.34,-9.27 20.21,-15.55 29.07,-21.82 42.05,-30.82 55.04,-39.82 68.29,-49.94 81.55,-60.07 88.90,-66.09 96.25,-72.11 99.39,-74.67 102.52,-77.23 102.71,-77.34 102.89,-77.45 103.11,-77.49 103.32,-77.54 103.53,-77.51 103.75,-77.48 103.94,-77.39 104.14,-77.29 104.29,-77.14 104.45,-76.99 104.54,-76.80 104.64,-76.61 104.67,-76.39 104.70,-76.18 104.67,-75.96 104.63,-75.75 104.52,-75.56 104.42,-75.37 104.26,-75.23 104.10,-75.08 103.90,-74.99 103.70,-74.91 103.49,-74.89 103.27,-74.87 103.06,-74.92 102.85,-74.97 102.67,-75.08 102.48,-75.20 102.35,-75.36 102.21,-75.53 102.13,-75.73 102.06,-75.94 102.05,-76.15 102.04,-76.37 102.10,-76.58 102.16,-76.78 102.29,-76.96 102.41,-77.14 102.59,-77.27 102.76,-77.39 102.97,-77.46 103.17,-77.52 103.39,-77.52 103.61,-77.52 103.81,-77.44 104.01,-77.37 104.18,-77.24 104.35,-77.10 104.47,-76.92 104.59,-76.74 104.64,-76.53 104.70,-76.32 104.68,-76.11 104.67,-75.89 104.58,-75.69 104.50,-75.49 104.36,-75.33 104.21,-75.17 104.21,-75.17 104.21,-75.17 101.09,-72.60 97.96,-70.03 90.58,-63.97 83.20,-57.91 69.90,-47.73 56.61,-37.56 43.65,-28.55 30.69,-19.54 21.81,-13.21 12.94,-6.89 10.96,-5.54 8.99,-4.19 7.25,-3.21 5.51,-2.22 3.23,-0.47 0.96,1.28 0.79,1.37 0.62,1.47 0.44,1.52 0.25,1.58 0.06,1.59 -0.13,1.59 -0.31,1.55 -0.50,1.52 -0.68,1.43 -0.85,1.35 -1.00,1.23 -1.15,1.10 -1.27,0.95 -1.38,0.80 -1.46,0.62 -1.54,0.44 -1.57,0.25 -1.60,0.06 -1.58,-0.12 -1.57,-0.32 -1.50,-0.50 -1.44,-0.68 -1.34,-0.85 -1.24,-1.01 -1.10,-1.14 -0.96,-1.28 -0.96,-1.28 L -0.96,-1.28 Z"></path></g><g transform="translate(86.5 395.13636363636357) rotate(0 48.49999999999997 -34)" stroke="none" fill="#c92a2a"><path d="M -1.16,-1.16 Q -1.16,-1.16 0.88,-3.14 2.92,-5.12 6.15,-7.73 9.39,-10.33 19.43,-16.92 29.47,-23.50 40.34,-30.31 51.21,-37.12 62.99,-45.16 74.77,-53.20 80.92,-57.76 87.07,-62.32 89.69,-64.26 92.32,-66.20 92.51,-66.30 92.71,-66.40 92.92,-66.43 93.14,-66.47 93.35,-66.43 93.57,-66.39 93.76,-66.29 93.95,-66.18 94.10,-66.02 94.25,-65.86 94.34,-65.66 94.43,-65.46 94.45,-65.25 94.47,-65.03 94.42,-64.82 94.37,-64.60 94.26,-64.42 94.14,-64.23 93.97,-64.09 93.80,-63.95 93.60,-63.88 93.40,-63.80 93.18,-63.79 92.96,-63.78 92.75,-63.84 92.54,-63.90 92.36,-64.02 92.18,-64.15 92.05,-64.32 91.92,-64.50 91.86,-64.71 91.79,-64.91 91.79,-65.13 91.79,-65.35 91.87,-65.56 91.94,-65.76 92.07,-65.93 92.21,-66.11 92.39,-66.23 92.57,-66.35 92.78,-66.40 92.99,-66.46 93.21,-66.45 93.43,-66.43 93.63,-66.35 93.83,-66.27 94.00,-66.12 94.16,-65.98 94.27,-65.79 94.38,-65.60 94.43,-65.39 94.47,-65.18 94.44,-64.96 94.42,-64.74 94.32,-64.55 94.23,-64.35 94.08,-64.19 93.93,-64.03 93.93,-64.03 93.93,-64.03 91.31,-62.08 88.70,-60.13 82.51,-55.53 76.33,-50.93 64.52,-42.83 52.71,-34.73 41.88,-27.91 31.06,-21.09 21.16,-14.56 11.27,-8.03 8.20,-5.47 5.12,-2.92 3.14,-0.88 1.16,1.16 1.00,1.28 0.85,1.40 0.67,1.49 0.48,1.57 0.29,1.60 0.09,1.64 -0.09,1.63 -0.29,1.61 -0.48,1.56 -0.67,1.50 -0.84,1.39 -1.01,1.29 -1.15,1.15 -1.29,1.01 -1.39,0.84 -1.50,0.67 -1.56,0.48 -1.61,0.29 -1.63,0.09 -1.64,-0.09 -1.60,-0.29 -1.57,-0.48 -1.49,-0.67 -1.40,-0.85 -1.28,-1.00 -1.16,-1.16 -1.16,-1.16 L -1.16,-1.16 Z"></path></g><g transform="translate(126.49999999999994 404.13636363636357) rotate(0 50.5 -29)" stroke="none" fill="#c92a2a"><path d="M -0.69,-1.39 Q -0.69,-1.39 2.19,-2.80 5.08,-4.21 7.72,-5.64 10.36,-7.08 13.30,-8.30 16.23,-9.52 20.84,-12.00 25.44,-14.48 30.57,-17.54 35.69,-20.60 43.36,-24.80 51.04,-28.99 56.84,-32.75 62.63,-36.51 67.98,-40.13 73.33,-43.74 79.40,-47.04 85.47,-50.33 89.73,-52.86 93.99,-55.38 95.81,-56.46 97.63,-57.54 97.83,-57.62 98.03,-57.70 98.24,-57.71 98.46,-57.72 98.66,-57.66 98.87,-57.60 99.05,-57.48 99.22,-57.36 99.35,-57.19 99.48,-57.01 99.55,-56.81 99.61,-56.61 99.61,-56.39 99.61,-56.18 99.54,-55.97 99.47,-55.77 99.34,-55.60 99.21,-55.43 99.03,-55.31 98.85,-55.19 98.65,-55.14 98.44,-55.08 98.23,-55.10 98.01,-55.11 97.81,-55.19 97.61,-55.27 97.45,-55.41 97.29,-55.55 97.18,-55.73 97.07,-55.92 97.03,-56.13 96.98,-56.34 97.01,-56.55 97.03,-56.76 97.12,-56.96 97.21,-57.15 97.36,-57.31 97.51,-57.46 97.70,-57.56 97.89,-57.66 98.10,-57.69 98.31,-57.73 98.53,-57.69 98.74,-57.65 98.93,-57.55 99.11,-57.45 99.26,-57.29 99.41,-57.14 99.50,-56.94 99.59,-56.75 99.61,-56.53 99.63,-56.32 99.58,-56.11 99.53,-55.90 99.42,-55.72 99.31,-55.54 99.15,-55.40 98.98,-55.26 98.98,-55.26 98.98,-55.26 97.16,-54.18 95.34,-53.11 91.04,-50.55 86.74,-48.00 80.78,-44.77 74.82,-41.53 69.46,-37.90 64.09,-34.27 58.22,-30.44 52.34,-26.62 44.71,-22.44 37.09,-18.27 31.93,-15.16 26.76,-12.05 22.04,-9.49 17.32,-6.92 14.54,-5.74 11.76,-4.55 9.09,-3.04 6.41,-1.53 3.55,-0.07 0.69,1.39 0.52,1.46 0.34,1.52 0.15,1.54 -0.03,1.56 -0.21,1.53 -0.40,1.50 -0.57,1.43 -0.75,1.36 -0.90,1.25 -1.05,1.14 -1.18,1.00 -1.30,0.86 -1.38,0.69 -1.47,0.52 -1.51,0.34 -1.55,0.15 -1.55,-0.03 -1.54,-0.21 -1.49,-0.40 -1.44,-0.58 -1.35,-0.74 -1.26,-0.91 -1.14,-1.05 -1.01,-1.18 -0.85,-1.29 -0.69,-1.39 -0.69,-1.39 L -0.69,-1.39 Z"></path></g><g transform="translate(166.49999999999994 413.13636363636357) rotate(0 66 -39.5)" stroke="none" fill="#c92a2a"><path d="M -0.72,-1.44 Q -0.72,-1.44 0.38,-2.10 1.49,-2.76 3.49,-3.55 5.48,-4.34 10.86,-7.20 16.23,-10.05 22.84,-13.84 29.46,-17.64 38.31,-22.97 47.16,-28.31 58.12,-34.89 69.08,-41.46 79.48,-47.98 89.88,-54.50 98.34,-59.58 106.80,-64.66 112.99,-68.25 119.18,-71.85 122.63,-74.21 126.08,-76.57 127.53,-77.64 128.97,-78.71 129.19,-78.81 129.40,-78.91 129.64,-78.94 129.88,-78.96 130.11,-78.91 130.34,-78.86 130.55,-78.74 130.75,-78.62 130.91,-78.44 131.06,-78.26 131.15,-78.04 131.24,-77.82 131.25,-77.58 131.27,-77.34 131.20,-77.11 131.14,-76.88 131.01,-76.68 130.88,-76.49 130.69,-76.34 130.50,-76.20 130.27,-76.12 130.05,-76.04 129.81,-76.04 129.57,-76.04 129.35,-76.11 129.12,-76.19 128.93,-76.33 128.74,-76.48 128.61,-76.67 128.47,-76.87 128.41,-77.10 128.34,-77.33 128.35,-77.56 128.37,-77.80 128.45,-78.02 128.54,-78.25 128.69,-78.43 128.85,-78.61 129.05,-78.73 129.25,-78.86 129.48,-78.91 129.72,-78.96 129.95,-78.94 130.19,-78.91 130.41,-78.81 130.62,-78.71 130.80,-78.55 130.97,-78.39 131.08,-78.18 131.20,-77.97 131.24,-77.73 131.28,-77.50 131.24,-77.26 131.20,-77.03 131.09,-76.82 130.98,-76.61 130.81,-76.44 130.64,-76.28 130.64,-76.28 130.64,-76.28 129.12,-75.32 127.60,-74.35 124.07,-71.93 120.54,-69.51 114.38,-65.91 108.21,-62.31 99.79,-57.23 91.36,-52.15 80.95,-45.59 70.54,-39.03 59.61,-32.42 48.67,-25.81 39.82,-20.41 30.98,-15.02 24.36,-11.14 17.74,-7.26 12.28,-4.24 6.81,-1.23 4.96,-0.38 3.10,0.46 1.91,0.95 0.72,1.44 0.54,1.51 0.35,1.57 0.16,1.59 -0.03,1.61 -0.22,1.59 -0.41,1.56 -0.59,1.49 -0.78,1.41 -0.93,1.30 -1.09,1.18 -1.22,1.04 -1.34,0.89 -1.43,0.71 -1.52,0.54 -1.56,0.35 -1.61,0.16 -1.60,-0.03 -1.60,-0.22 -1.55,-0.41 -1.50,-0.60 -1.40,-0.77 -1.31,-0.94 -1.18,-1.08 -1.04,-1.23 -0.88,-1.33 -0.72,-1.44 -0.72,-1.44 L -0.72,-1.44 Z"></path></g><g transform="translate(124.49999999999994 155.13636363636357) rotate(0 30 -22.499999999999986)" stroke="none" fill="#0b7285"><path d="M -1.12,-1.12 Q -1.12,-1.12 0.62,-2.82 2.38,-4.51 3.66,-5.85 4.94,-7.18 8.76,-10.08 12.58,-12.97 16.51,-15.62 20.44,-18.28 24.41,-20.83 28.39,-23.39 33.82,-26.78 39.25,-30.16 43.28,-32.74 47.30,-35.31 49.77,-37.76 52.24,-40.21 54.99,-42.69 57.73,-45.18 57.95,-45.32 58.18,-45.45 58.43,-45.50 58.68,-45.56 58.94,-45.53 59.20,-45.50 59.43,-45.39 59.67,-45.28 59.86,-45.10 60.05,-44.92 60.17,-44.69 60.29,-44.46 60.33,-44.21 60.37,-43.95 60.33,-43.70 60.29,-43.44 60.16,-43.21 60.04,-42.98 59.85,-42.80 59.66,-42.63 59.43,-42.52 59.19,-42.41 58.93,-42.38 58.68,-42.35 58.42,-42.41 58.17,-42.47 57.95,-42.60 57.72,-42.74 57.56,-42.93 57.39,-43.13 57.29,-43.37 57.20,-43.61 57.18,-43.87 57.17,-44.13 57.24,-44.38 57.31,-44.63 57.46,-44.85 57.60,-45.06 57.81,-45.22 58.02,-45.38 58.26,-45.46 58.51,-45.54 58.77,-45.54 59.03,-45.54 59.28,-45.46 59.52,-45.37 59.73,-45.21 59.93,-45.06 60.08,-44.84 60.22,-44.63 60.29,-44.38 60.36,-44.13 60.35,-43.87 60.33,-43.61 60.24,-43.37 60.14,-43.12 59.97,-42.93 59.80,-42.73 59.80,-42.73 59.80,-42.73 56.97,-40.50 54.14,-38.28 51.46,-35.65 48.79,-33.02 44.76,-30.41 40.73,-27.81 35.33,-24.41 29.93,-21.02 26.00,-18.45 22.08,-15.87 18.25,-13.23 14.42,-10.58 10.80,-7.76 7.18,-4.94 5.85,-3.66 4.51,-2.38 2.82,-0.62 1.12,1.12 0.97,1.24 0.82,1.35 0.64,1.43 0.47,1.51 0.28,1.55 0.09,1.58 -0.09,1.57 -0.28,1.56 -0.46,1.50 -0.65,1.44 -0.81,1.34 -0.97,1.24 -1.11,1.11 -1.24,0.97 -1.34,0.81 -1.44,0.65 -1.50,0.46 -1.56,0.28 -1.57,0.09 -1.58,-0.09 -1.55,-0.28 -1.51,-0.47 -1.43,-0.64 -1.35,-0.82 -1.24,-0.97 -1.12,-1.12 -1.12,-1.12 L -1.12,-1.12 Z"></path></g><g stroke-linecap="round"><g transform="translate(340.49999999999994 276.13636363636357) rotate(0 47.60200561359528 0.31297385618091766)"><path d="M0.5 0.73 C16.17 0.83, 79.05 -0.13, 94.7 -0.11" stroke="#000000" stroke-width="1.5" fill="none" stroke-dasharray="8 9"></path></g><g transform="translate(340.49999999999994 276.13636363636357) rotate(0 47.60200561359528 0.31297385618091766)"><path d="M67.81 9.88 C76.54 5.53, 88.28 2.78, 95.18 0.46" stroke="#000000" stroke-width="1.5" fill="none"></path></g><g transform="translate(340.49999999999994 276.13636363636357) rotate(0 47.60200561359528 0.31297385618091766)"><path d="M67.66 -10.64 C76.32 -7.64, 88.11 -3.04, 95.18 0.46" stroke="#000000" stroke-width="1.5" fill="none"></path></g></g><g stroke-linecap="round" transform="translate(501.78571428571416 298.63636363636357) rotate(0 4.5 3.5)"><path d="M2.12 0.85 C3.1 0.5, 5.29 -0.24, 6.29 0.03 C7.3 0.3, 7.79 1.88, 8.13 2.48 C8.47 3.08, 8.59 3.13, 8.33 3.63 C8.07 4.13, 7.12 4.96, 6.56 5.48 C5.99 6, 5.85 6.49, 4.92 6.75 C3.99 7.01, 1.73 7.37, 0.97 7.03 C0.21 6.7, 0.6 5.48, 0.37 4.72 C0.13 3.97, -0.91 3.21, -0.42 2.5 C0.06 1.8, 2.65 0.91, 3.28 0.49 C3.9 0.07, 3.39 -0.04, 3.32 -0.03 M5.49 0.58 C6.18 0.57, 6.2 0.22, 6.91 0.73 C7.62 1.25, 9.65 3.07, 9.74 3.68 C9.82 4.29, 8.26 3.75, 7.44 4.39 C6.62 5.04, 5.66 7.29, 4.8 7.56 C3.94 7.83, 2.91 6.61, 2.27 6.04 C1.63 5.47, 1.09 4.88, 0.97 4.14 C0.84 3.39, 1.16 2.09, 1.53 1.57 C1.9 1.05, 2.4 1.18, 3.17 1.03 C3.93 0.87, 5.68 0.71, 6.11 0.65 C6.53 0.59, 5.8 0.62, 5.7 0.66" stroke="#000000" stroke-width="1" fill="none"></path></g><g stroke-linecap="round" transform="translate(519.3571428571433 265.63636363636357) rotate(0 4.5 3.5)"><path d="M4.07 0.53 C4.91 0.41, 5.51 0.05, 6.41 0.21 C7.32 0.38, 9.15 0.94, 9.5 1.5 C9.84 2.05, 9 2.68, 8.48 3.54 C7.95 4.4, 7.15 6.22, 6.35 6.66 C5.56 7.1, 4.43 6.27, 3.7 6.19 C2.97 6.1, 2.51 6.72, 1.97 6.15 C1.43 5.58, 0.55 3.54, 0.47 2.75 C0.4 1.97, 0.93 1.95, 1.53 1.44 C2.13 0.92, 3.69 -0.04, 4.07 -0.35 C4.45 -0.66, 3.84 -0.56, 3.81 -0.41 M6.02 -0.63 C6.91 -0.51, 7.22 1.54, 7.81 2.11 C8.39 2.69, 9.72 2.37, 9.55 2.84 C9.37 3.3, 7.4 4.28, 6.78 4.9 C6.16 5.52, 6.7 6.21, 5.81 6.56 C4.92 6.91, 2.53 7.07, 1.44 6.97 C0.36 6.87, -0.32 6.55, -0.68 5.97 C-1.05 5.39, -1.33 4.21, -0.76 3.5 C-0.18 2.79, 1.61 2.13, 2.75 1.71 C3.89 1.29, 5.55 1.12, 6.09 0.98 C6.63 0.84, 6.04 1.13, 6 0.86" stroke="#000000" stroke-width="1" fill="none"></path></g><g stroke-linecap="round" transform="translate(503.6428571428573 271.63636363636357) rotate(0 4.5 3.5)"><path d="M5.24 -0.12 C6.24 -0.07, 6.94 1.35, 7.45 1.83 C7.97 2.32, 8.38 2.3, 8.34 2.8 C8.31 3.3, 7.65 4.22, 7.25 4.85 C6.86 5.49, 6.87 6.18, 5.98 6.61 C5.08 7.05, 2.77 7.64, 1.89 7.46 C1.01 7.27, 1.17 6.2, 0.72 5.51 C0.27 4.81, -0.99 4.03, -0.8 3.28 C-0.6 2.53, 0.97 1.59, 1.89 1.02 C2.81 0.45, 4.21 0.01, 4.71 -0.12 C5.21 -0.26, 4.82 0.05, 4.9 0.21 M3.54 -0.24 C4.46 -0.33, 7.2 0.93, 7.96 1.25 C8.72 1.56, 8.15 0.89, 8.09 1.64 C8.02 2.4, 7.94 5.04, 7.57 5.77 C7.2 6.51, 6.51 6.03, 5.87 6.05 C5.22 6.08, 4.33 6.24, 3.71 5.95 C3.08 5.66, 2.53 4.75, 2.13 4.33 C1.74 3.91, 1.25 3.9, 1.35 3.44 C1.45 2.99, 2.09 2.07, 2.72 1.59 C3.35 1.12, 4.77 0.75, 5.15 0.58 C5.52 0.42, 5.29 0.74, 4.97 0.6" stroke="#000000" stroke-width="1" fill="none"></path></g><g stroke-linecap="round" transform="translate(506.49999999999994 248.63636363636357) rotate(0 4.5 3.5)"><path d="M2.91 0.02 C3.81 -0.43, 6.11 -0.53, 6.98 -0.4 C7.84 -0.26, 7.89 0.03, 8.11 0.83 C8.34 1.63, 8.49 3.64, 8.32 4.41 C8.14 5.17, 7.6 4.96, 7.07 5.44 C6.55 5.91, 6.01 7.3, 5.17 7.26 C4.32 7.22, 2.76 5.74, 2.01 5.21 C1.26 4.68, 0.84 4.73, 0.68 4.08 C0.51 3.43, 0.54 2.04, 1 1.29 C1.46 0.53, 2.9 -0.26, 3.44 -0.43 C3.98 -0.61, 4.12 0.09, 4.23 0.22 M5.27 0.85 C6.17 0.96, 8.2 0.29, 8.64 0.6 C9.09 0.92, 7.96 1.93, 7.93 2.74 C7.91 3.55, 9.08 4.69, 8.48 5.48 C7.89 6.27, 5.6 7.09, 4.38 7.48 C3.16 7.87, 2.02 8.11, 1.15 7.83 C0.27 7.56, -0.82 6.57, -0.89 5.84 C-0.96 5.1, 0.05 4.19, 0.72 3.43 C1.38 2.67, 2.21 1.72, 3.1 1.28 C4 0.84, 5.61 1.17, 6.1 0.8 C6.58 0.44, 6.24 -0.83, 6.02 -0.93" stroke="#000000" stroke-width="1" fill="none"></path></g><g stroke-linecap="round" transform="translate(518.2142857142862 284.63636363636357) rotate(0 4.5 3.5)"><path d="M5.64 1.01 C6.35 1.14, 7.24 0.87, 7.63 1.26 C8.03 1.64, 7.96 2.56, 7.99 3.32 C8.02 4.07, 8.48 5.06, 7.81 5.8 C7.14 6.54, 4.92 7.59, 3.96 7.75 C3 7.91, 2.86 7.24, 2.06 6.77 C1.27 6.3, -0.56 5.67, -0.81 4.92 C-1.07 4.17, 0 3.07, 0.52 2.27 C1.05 1.47, 1.48 0.45, 2.33 0.12 C3.17 -0.2, 4.91 0.18, 5.61 0.3 C6.31 0.41, 6.48 0.7, 6.51 0.82 M6.12 0.61 C7.01 0.57, 6.88 -0.37, 7.2 0.23 C7.52 0.84, 8 3.44, 8.05 4.25 C8.1 5.07, 7.88 4.83, 7.49 5.13 C7.1 5.43, 6.37 6.01, 5.72 6.06 C5.06 6.1, 4.28 5.59, 3.58 5.41 C2.89 5.24, 1.89 5.42, 1.56 5 C1.23 4.58, 1.32 3.56, 1.6 2.89 C1.87 2.23, 2.47 1.4, 3.21 1.02 C3.96 0.64, 5.89 0.84, 6.07 0.59 C6.24 0.34, 4.42 -0.37, 4.25 -0.47" stroke="#000000" stroke-width="1" fill="none"></path></g><g stroke-linecap="round" transform="translate(516.928571428572 299.63636363636357) rotate(0 4.5 3.5)"><path d="M6.33 -0.55 C7.2 -0.57, 7.4 -0.35, 7.74 0.39 C8.09 1.13, 8.42 3.1, 8.4 3.88 C8.37 4.67, 7.99 4.52, 7.57 5.08 C7.14 5.63, 6.68 7.16, 5.84 7.23 C5.01 7.3, 3.38 5.96, 2.55 5.52 C1.71 5.08, 1.14 5.22, 0.83 4.59 C0.52 3.96, 0.45 2.54, 0.69 1.76 C0.93 0.97, 1.35 0.12, 2.27 -0.11 C3.18 -0.34, 5.37 0.28, 6.17 0.37 C6.97 0.45, 7.04 0.3, 7.08 0.4 M3.99 -0.7 C4.73 -1.19, 4.56 -0.98, 5.44 -0.58 C6.33 -0.18, 8.87 0.76, 9.32 1.69 C9.77 2.62, 8.69 3.98, 8.15 5 C7.61 6.02, 6.96 7.26, 6.09 7.81 C5.21 8.36, 3.66 8.39, 2.91 8.29 C2.16 8.19, 1.97 7.82, 1.6 7.21 C1.22 6.6, 0.68 5.46, 0.65 4.62 C0.63 3.77, 0.9 3.07, 1.46 2.13 C2.01 1.2, 3.74 -0.62, 3.97 -0.99 C4.21 -1.35, 3 -0.49, 2.86 -0.05" stroke="#000000" stroke-width="1" fill="none"></path></g><g stroke-linecap="round" transform="translate(522.5 247.63636363636357) rotate(0 4.5 3.5)"><path d="M3.58 -0.32 C4.35 -0.65, 5.26 -0.38, 6.18 0.08 C7.1 0.54, 8.84 1.47, 9.1 2.42 C9.36 3.38, 8.17 5.02, 7.75 5.81 C7.32 6.6, 7.48 6.89, 6.57 7.17 C5.66 7.45, 3.27 7.71, 2.31 7.48 C1.35 7.25, 1.24 6.54, 0.8 5.79 C0.35 5.04, -0.39 3.75, -0.38 2.96 C-0.36 2.17, -0.07 1.45, 0.88 1.04 C1.84 0.62, 4.51 0.51, 5.38 0.47 C6.24 0.43, 6.05 0.88, 6.08 0.79 M3.34 -1.05 C3.96 -1.13, 5.3 0.84, 6.15 1.34 C7 1.84, 7.96 1.49, 8.45 1.95 C8.93 2.41, 9.19 3.49, 9.08 4.1 C8.96 4.7, 8.52 5.07, 7.78 5.59 C7.04 6.11, 5.57 7.14, 4.63 7.23 C3.68 7.32, 2.72 6.72, 2.1 6.14 C1.48 5.56, 0.93 4.52, 0.92 3.75 C0.91 2.99, 1.69 2.26, 2.05 1.54 C2.4 0.82, 2.73 -0.28, 3.05 -0.59 C3.36 -0.91, 3.53 -0.49, 3.93 -0.34" stroke="#000000" stroke-width="1" fill="none"></path></g><g stroke-linecap="round" transform="translate(533.5 278.63636363636357) rotate(0 4.5 3.5)"><path d="M3.8 -0.97 C4.47 -0.93, 5.7 0.41, 6.5 0.87 C7.3 1.34, 8.13 1.09, 8.6 1.82 C9.07 2.55, 9.62 4.6, 9.33 5.25 C9.04 5.91, 7.75 5.47, 6.85 5.75 C5.95 6.03, 4.89 7.03, 3.94 6.92 C2.99 6.81, 1.83 5.8, 1.15 5.09 C0.47 4.38, -0.18 3.33, -0.14 2.67 C-0.1 2.02, 0.51 1.61, 1.4 1.15 C2.29 0.69, 4.46 0, 5.21 -0.1 C5.95 -0.21, 6.03 0.48, 5.87 0.53 M4.57 -0.84 C5.5 -0.64, 8.24 0.21, 8.86 1.06 C9.49 1.92, 8.67 3.24, 8.32 4.29 C7.98 5.33, 7.55 6.68, 6.81 7.35 C6.06 8.02, 4.59 8.25, 3.84 8.3 C3.09 8.35, 2.81 8.18, 2.3 7.68 C1.8 7.19, 1.03 6.15, 0.81 5.33 C0.59 4.51, 0.6 3.77, 0.99 2.76 C1.37 1.75, 2.42 -0.27, 3.09 -0.75 C3.77 -1.22, 4.68 -0.46, 5.03 -0.1 C5.37 0.26, 5.11 1.27, 5.19 1.43" stroke="#000000" stroke-width="1" fill="none"></path></g><g stroke-linecap="round" transform="translate(490.49999999999994 262.63636363636357) rotate(0 4.5 3.5)"><path d="M5.39 -0.29 C6.39 -0.02, 8.34 0.84, 8.79 1.74 C9.24 2.65, 8.3 4.29, 8.07 5.13 C7.83 5.98, 8.18 6.4, 7.37 6.82 C6.56 7.23, 4.21 7.69, 3.22 7.61 C2.22 7.53, 1.99 7, 1.39 6.34 C0.79 5.69, -0.2 4.47, -0.38 3.68 C-0.57 2.88, -0.35 2.1, 0.28 1.58 C0.92 1.06, 2.36 0.65, 3.43 0.55 C4.51 0.45, 6.03 1, 6.72 0.96 C7.41 0.92, 7.64 0.26, 7.59 0.32 M4.37 0.76 C5.35 0.91, 6.71 0.3, 7.56 0.61 C8.42 0.92, 9.21 1.95, 9.51 2.63 C9.8 3.31, 9.81 3.9, 9.32 4.68 C8.83 5.46, 7.53 6.9, 6.56 7.31 C5.59 7.72, 4.42 7.5, 3.52 7.16 C2.62 6.82, 1.58 5.97, 1.16 5.25 C0.74 4.52, 0.99 3.7, 1 2.8 C1 1.9, 0.51 0.38, 1.2 -0.15 C1.88 -0.68, 4.21 -0.4, 5.1 -0.36 C6 -0.33, 6.46 -0.19, 6.55 0.08" stroke="#000000" stroke-width="1" fill="none"></path></g><g stroke-linecap="round" transform="translate(495.49999999999994 287.63636363636357) rotate(0 4.5 3.5)"><path d="M2.5 0.4 C3.37 0.17, 4.81 -0.82, 5.93 -0.54 C7.05 -0.25, 8.65 1.47, 9.23 2.11 C9.8 2.75, 9.59 2.59, 9.37 3.29 C9.15 3.99, 8.68 5.74, 7.9 6.29 C7.12 6.84, 5.79 6.71, 4.7 6.59 C3.61 6.48, 2.1 6.01, 1.34 5.6 C0.57 5.19, 0.15 4.81, 0.11 4.13 C0.07 3.45, 0.37 2.16, 1.1 1.54 C1.83 0.92, 3.92 0.67, 4.49 0.4 C5.06 0.13, 4.49 -0.13, 4.51 -0.07 M4.02 -0.29 C4.95 -0.27, 5.12 0.22, 5.73 0.83 C6.34 1.45, 7.33 2.6, 7.67 3.41 C8.01 4.22, 7.8 5, 7.76 5.71 C7.72 6.42, 7.95 7.3, 7.45 7.66 C6.95 8.02, 5.69 8.05, 4.77 7.89 C3.84 7.73, 2.61 7.55, 1.91 6.7 C1.2 5.84, 0.83 3.63, 0.55 2.73 C0.26 1.83, -0.19 1.51, 0.2 1.29 C0.59 1.06, 2.38 1.49, 2.9 1.37 C3.42 1.26, 3.07 0.91, 3.29 0.59" stroke="#000000" stroke-width="1" fill="none"></path></g><g transform="translate(411.49999999999994 430.13636363636357) rotate(0 105 26)"><text x="105" y="18" font-family="Virgil, Segoe UI Emoji" font-size="20px" fill="#000000" text-anchor="middle" style="white-space: pre;" direction="ltr">3. Compute the mean</text><text x="105" y="44" font-family="Virgil, Segoe UI Emoji" font-size="20px" fill="#000000" text-anchor="middle" style="white-space: pre;" direction="ltr">on the remaining 50%</text></g><g transform="translate(350.4545454545453 105.59090909090901) rotate(0 95.5 26)"><text x="95.5" y="18" font-family="Virgil, Segoe UI Emoji" font-size="20px" fill="#0b7285" text-anchor="middle" style="white-space: pre;" direction="ltr">1. Discard highest</text><text x="95.5" y="44" font-family="Virgil, Segoe UI Emoji" font-size="20px" fill="#0b7285" text-anchor="middle" style="white-space: pre;" direction="ltr">25% of the scores</text></g><g transform="translate(100.99999999999994 429.13636363636357) rotate(0 95.5 26)"><text x="95.5" y="18" font-family="Virgil, Segoe UI Emoji" font-size="20px" fill="#c92a2a" text-anchor="middle" style="white-space: pre;" direction="ltr">2. Discard lowest</text><text x="95.5" y="44" font-family="Virgil, Segoe UI Emoji" font-size="20px" fill="#c92a2a" text-anchor="middle" style="white-space: pre;" direction="ltr">25% of the scores</text></g><g transform="translate(606.5764790764799 233.2586580086587) rotate(0 139 13)"><text x="139" y="18" font-family="Virgil, Segoe UI Emoji" font-size="20px" fill="#000000" text-anchor="middle" style="white-space: pre;" direction="ltr">IQM is insensible to outliers</text></g><g stroke-linecap="round"><g transform="translate(600.5764790764799 240.5235546405147) rotate(0 -206.62792889261567 -62.406436570563)"><path d="M0.99 -0.43 C-68.04 -20.97, -344.99 -103.45, -414.24 -124.38" stroke="#000000" stroke-width="1.5" fill="none" stroke-dasharray="8 9"></path></g><g transform="translate(600.5764790764799 240.5235546405147) rotate(0 -206.62792889261567 -62.406436570563)"><path d="M-385.02 -126.38 C-391.82 -126.12, -403.32 -124.58, -413.43 -123.74" stroke="#000000" stroke-width="1.5" fill="none"></path></g><g transform="translate(600.5764790764799 240.5235546405147) rotate(0 -206.62792889261567 -62.406436570563)"><path d="M-390.91 -106.72 C-395.79 -112.29, -405.56 -116.53, -413.43 -123.74" stroke="#000000" stroke-width="1.5" fill="none"></path></g></g></svg>