<svg version="1.1" xmlns="http://www.w3.org/2000/svg" viewBox="0 0 1076 489.75865800865876" width="3228" height="1469.2759740259762" filter="invert(93%) hue-rotate(180deg)">
  <!-- svg-source:excalidraw -->
  
  <defs>
    <style>
      @font-face {
        font-family: "Virgil";
        src: url("https://excalidraw.com/Virgil.woff2");
      }
      @font-face {
        font-family: "Cascadia";
        src: url("https://excalidraw.com/Cascadia.woff2");
      }
    </style>
  </defs>
  <rect x="0" y="0" width="1076" height="489.75865800865876" fill="#ffffff"></rect><g transform="translate(350.28715728715645 10) rotate(0 234.50000000000006 23.5)"><text x="0" y="33" font-family="Virgil, Segoe UI Emoji" font-size="36px" fill="#000000" text-anchor="start" style="white-space: pre;" direction="ltr">Probability of Improvement</text></g><g transform="translate(510 60.2586580086587) rotate(0 61 13)"><text x="61" y="18" font-family="Virgil, Segoe UI Emoji" font-size="20px" fill="#000000" text-anchor="middle" style="white-space: pre;" direction="ltr">on a task m</text></g><g stroke-linecap="round"><g transform="translate(160.5565976150334 438.9821332853376) rotate(0 1.6750805623829592 -110.38617321327331)"><path d="M-0.44 -0.28 C0 -36.95, 3.23 -183.68, 3.79 -220.5 M1.52 -1.47 C1.77 -37.93, 3.1 -182.67, 3.2 -219.16" stroke="#000000" stroke-width="2" fill="none"></path></g><g transform="translate(160.5565976150334 438.9821332853376) rotate(0 1.6750805623829592 -110.38617321327331)"><path d="M12.82 -189.78 C8.76 -202.39, 3.68 -211.46, 2.67 -219.81 M12.31 -191.52 C9.91 -200.87, 5.2 -210.62, 3.62 -218.35" stroke="#000000" stroke-width="2" fill="none"></path></g><g transform="translate(160.5565976150334 438.9821332853376) rotate(0 1.6750805623829592 -110.38617321327331)"><path d="M-7.7 -189.91 C-3.65 -202.39, -0.62 -211.41, 2.67 -219.81 M-8.21 -191.65 C-3.18 -200.98, -0.47 -210.67, 3.62 -218.35" stroke="#000000" stroke-width="2" fill="none"></path></g></g><g transform="translate(124.5 192.2586580086587) rotate(0 26.5 13)"><text x="26.5" y="18" font-family="Virgil, Segoe UI Emoji" font-size="20px" fill="#000000" text-anchor="middle" style="white-space: pre;" direction="ltr">Score</text></g><g stroke-linecap="round" transform="translate(233 217.2586580086587) rotate(0 3.5 5)"><path d="M0.87 2.08 C0.87 2.08, 0.87 2.08, 0.87 2.08 M0.87 2.08 C0.87 2.08, 0.87 2.08, 0.87 2.08 M5.27 9.11 C6.23 7.97, 7.06 7.16, 8.05 5.78 M5.71 8.64 C6.54 7.71, 7.22 7.02, 8.37 6" stroke="#868e96" stroke-width="1" fill="none"></path><path d="M2.83 0.84 C3.6 0.83, 4.96 0.44, 5.51 0.97 C6.06 1.51, 5.84 2.93, 6.11 4.06 C6.37 5.19, 7.18 6.98, 7.09 7.77 C7 8.56, 6.33 8.55, 5.58 8.8 C4.82 9.04, 3.52 9.58, 2.56 9.25 C1.6 8.92, 0.13 7.61, -0.18 6.82 C-0.49 6.04, 0.5 5.36, 0.7 4.53 C0.91 3.71, 0.26 2.62, 1.05 1.87 C1.84 1.11, 4.75 0.06, 5.46 0.01 C6.16 -0.05, 5.54 1.27, 5.29 1.52 M3.48 1.01 C4.44 0.62, 5.12 0.57, 5.41 0.8 C5.7 1.03, 4.72 1.47, 5.23 2.38 C5.73 3.29, 8.49 5.03, 8.44 6.27 C8.38 7.51, 5.56 9.2, 4.91 9.82 C4.25 10.44, 5.26 10.13, 4.5 9.96 C3.75 9.79, 0.96 9.31, 0.35 8.78 C-0.26 8.25, 0.62 7.98, 0.87 6.78 C1.12 5.59, 1.38 2.51, 1.83 1.6 C2.29 0.68, 3.51 1.27, 3.61 1.31 C3.71 1.34, 2.86 1.86, 2.43 1.8" stroke="#5f3dc4" stroke-width="2" fill="none"></path></g><g stroke-linecap="round" transform="translate(228.5 243.25865800865864) rotate(0 3.5 5)"><path d="M2.65 -0.35 C2.65 -0.35, 2.65 -0.35, 2.65 -0.35 M2.65 -0.35 C2.65 -0.35, 2.65 -0.35, 2.65 -0.35 M3.97 10.15 C4.96 9.24, 5.54 8.2, 8.12 5.47 M4.27 9.93 C5.31 8.87, 6.89 7.54, 7.89 5.78" stroke="#868e96" stroke-width="1" fill="none"></path><path d="M2.37 -0.02 C3.01 -0.49, 3.34 -0.12, 4.15 0.41 C4.96 0.95, 6.63 2.35, 7.23 3.18 C7.83 4.01, 8 4.5, 7.75 5.41 C7.51 6.32, 6.62 8, 5.75 8.64 C4.88 9.29, 3.22 9.25, 2.54 9.29 C1.86 9.34, 2.13 9.45, 1.67 8.92 C1.22 8.39, -0.16 7.29, -0.18 6.12 C-0.2 4.95, 1.06 2.82, 1.54 1.9 C2.02 0.98, 2.5 0.76, 2.69 0.61 C2.87 0.45, 2.73 1.08, 2.65 0.95 M4.67 0.55 C4.97 0.48, 4.14 0.74, 4.77 1.51 C5.41 2.29, 8.37 3.93, 8.48 5.19 C8.59 6.44, 5.96 8.26, 5.43 9.03 C4.89 9.81, 6 9.78, 5.26 9.83 C4.51 9.89, 1.68 9.71, 0.98 9.37 C0.29 9.04, 1 8.95, 1.09 7.82 C1.18 6.69, 1.23 3.59, 1.53 2.59 C1.84 1.59, 2.51 1.99, 2.94 1.79 C3.36 1.6, 4.13 1.67, 4.06 1.42 C4 1.17, 2.8 0.22, 2.55 0.3" stroke="#5f3dc4" stroke-width="2" fill="none"></path></g><g stroke-linecap="round" transform="translate(226.5 282.25865800865876) rotate(0 3.5 5)"><path d="M2.35 0.72 C2.35 0.72, 2.35 0.72, 2.35 0.72 M2.35 0.72 C2.35 0.72, 2.35 0.72, 2.35 0.72" stroke="#868e96" stroke-width="1" fill="none"></path><path d="M4.1 0.38 C4.89 0.82, 6.59 2.28, 7.21 3.11 C7.82 3.93, 8 4.41, 7.77 5.33 C7.53 6.24, 6.66 7.93, 5.8 8.6 C4.94 9.26, 3.27 9.24, 2.59 9.3 C1.91 9.36, 2.18 9.49, 1.71 8.97 C1.25 8.46, -0.14 7.37, -0.18 6.2 C-0.21 5.03, 1.08 2.88, 1.51 1.97 C1.93 1.05, 1.84 0.81, 2.36 0.71 C2.88 0.62, 4.25 1.5, 4.62 1.4 C4.98 1.29, 4.46 0, 4.56 0.07 M3.01 0.05 C3.84 0.21, 7.27 1.41, 7.79 2.45 C8.3 3.49, 6.25 5.31, 6.13 6.3 C6 7.29, 7.54 7.79, 7.02 8.39 C6.5 8.98, 3.76 9.61, 2.99 9.88 C2.22 10.16, 2.64 10.78, 2.39 10.05 C2.15 9.32, 1.66 6.5, 1.53 5.5 C1.4 4.49, 1.54 4.61, 1.62 4.02 C1.71 3.42, 1.84 2.54, 2.06 1.92 C2.27 1.3, 2.78 0.34, 2.93 0.29 C3.07 0.24, 2.8 1.52, 2.93 1.61" stroke="#5f3dc4" stroke-width="2" fill="none"></path></g><g stroke-linecap="round" transform="translate(235.5 318.25865800865876) rotate(0 3.5 5)"><path d="M0.77 2 C0.77 2, 0.77 2, 0.77 2 M0.77 2 C0.77 2, 0.77 2, 0.77 2 M3.33 10.97 C4.56 9.76, 5.59 9.11, 6.33 7.53 M3.73 11.25 C4.13 10.29, 4.85 9.27, 6.74 7.1" stroke="#868e96" stroke-width="1" fill="none"></path><path d="M3.73 0.31 C4.72 0.01, 5.8 -0.49, 6.36 -0.01 C6.93 0.48, 7.18 2.15, 7.13 3.22 C7.07 4.29, 6.27 5.28, 6.03 6.4 C5.78 7.51, 6.25 9.22, 5.65 9.9 C5.05 10.59, 3.1 10.9, 2.42 10.53 C1.74 10.15, 1.98 8.57, 1.55 7.67 C1.12 6.77, 0 6.01, -0.17 5.12 C-0.35 4.23, -0.02 3.28, 0.5 2.31 C1.03 1.33, 2.32 -0.51, 2.98 -0.73 C3.64 -0.95, 4.25 0.72, 4.44 1.01 M5.58 0.52 C6.36 0.81, 4.91 2.06, 5.3 2.79 C5.7 3.53, 7.98 4.06, 7.97 4.94 C7.96 5.83, 5.77 7.15, 5.26 8.12 C4.76 9.09, 5.28 10.74, 4.93 10.79 C4.58 10.83, 3.7 8.91, 3.14 8.39 C2.58 7.88, 2.02 8.33, 1.56 7.71 C1.09 7.1, 0.54 5.84, 0.34 4.69 C0.14 3.55, -0.03 1.38, 0.37 0.84 C0.77 0.3, 2.21 1.53, 2.74 1.45 C3.27 1.38, 3.27 0.56, 3.56 0.41" stroke="#5f3dc4" stroke-width="2" fill="none"></path></g><g stroke-linecap="round" transform="translate(224.5 308.25865800865876) rotate(0 3.5 5)"><path d="M0.52 0.45 C0.52 0.45, 0.52 0.45, 0.52 0.45 M0.52 0.45 C0.52 0.45, 0.52 0.45, 0.52 0.45 M2.74 9.98 C4.47 8.89, 5.07 7.01, 7.2 4.07 M2.43 10.39 C4.21 7.95, 6.06 5.82, 7.63 4.4" stroke="#868e96" stroke-width="1" fill="none"></path><path d="M4.27 -0.89 C4.93 -1.11, 5.59 -0.08, 5.92 0.62 C6.25 1.32, 6.06 2.11, 6.27 3.3 C6.49 4.49, 7.51 6.58, 7.23 7.76 C6.95 8.93, 5.25 10.04, 4.6 10.33 C3.94 10.63, 4.01 9.89, 3.3 9.52 C2.59 9.16, 0.97 8.89, 0.34 8.15 C-0.29 7.41, -0.49 6.37, -0.47 5.1 C-0.45 3.83, -0.26 1.24, 0.45 0.53 C1.17 -0.19, 3.19 0.79, 3.82 0.8 C4.44 0.82, 4.19 0.8, 4.21 0.61 M2.54 1.02 C3.17 0.85, 6.07 0.57, 6.65 1.05 C7.23 1.53, 5.88 2.72, 6 3.92 C6.13 5.12, 7.36 7.46, 7.39 8.25 C7.41 9.05, 6.77 8.29, 6.16 8.71 C5.55 9.12, 4.65 10.68, 3.73 10.73 C2.81 10.78, 1.49 10.05, 0.65 9 C-0.19 7.95, -1.2 5.48, -1.33 4.42 C-1.47 3.36, -0.88 3.33, -0.18 2.64 C0.53 1.94, 2.21 0.66, 2.89 0.24 C3.56 -0.17, 3.71 0.24, 3.87 0.14" stroke="#5f3dc4" stroke-width="2" fill="none"></path></g><g stroke-linecap="round" transform="translate(235.5 302.25865800865876) rotate(0 3.5 5)"><path d="M-0.28 2.4 C-0.28 2.4, -0.28 2.4, -0.28 2.4 M-0.28 2.4 C-0.28 2.4, -0.28 2.4, -0.28 2.4 M3.32 11.1 C3.78 9.55, 5.2 7.51, 8.02 5.94 M2.99 10.53 C4.86 8.38, 6.55 6.68, 7.96 5.49" stroke="#868e96" stroke-width="1" fill="none"></path><path d="M4.25 -0.41 C4.71 -0.29, 4.89 0.04, 5.46 0.98 C6.02 1.92, 7.55 3.93, 7.65 5.23 C7.75 6.53, 6.48 8.04, 6.06 8.78 C5.63 9.52, 5.85 9.48, 5.12 9.67 C4.39 9.86, 2.56 10.26, 1.66 9.93 C0.76 9.6, 0.11 8.89, -0.26 7.68 C-0.63 6.48, -0.9 3.72, -0.54 2.7 C-0.18 1.68, 0.96 1.88, 1.9 1.55 C2.84 1.23, 4.5 1.05, 5.11 0.78 C5.73 0.5, 5.68 -0.25, 5.57 -0.09 M4.99 0.02 C5.69 -0.08, 4.73 0.65, 5.2 1.61 C5.67 2.56, 7.41 4.81, 7.81 5.74 C8.21 6.67, 8 6.31, 7.62 7.17 C7.24 8.03, 6.48 10.29, 5.54 10.89 C4.59 11.49, 3.07 11.43, 1.96 10.78 C0.85 10.13, -0.61 7.99, -1.13 6.99 C-1.65 5.99, -1.56 5.8, -1.18 4.79 C-0.8 3.79, 0.21 1.76, 1.15 0.98 C2.09 0.19, 3.93 0.38, 4.48 0.09 C5.02 -0.2, 4.47 -0.62, 4.44 -0.74" stroke="#5f3dc4" stroke-width="2" fill="none"></path></g><g stroke-linecap="round" transform="translate(221.5 329.25865800865876) rotate(0 3.5 5)"><path d="M1.32 -0.18 C1.32 -0.18, 1.32 -0.18, 1.32 -0.18 M1.32 -0.18 C1.32 -0.18, 1.32 -0.18, 1.32 -0.18 M1.99 10.81 C3.49 8.57, 5.91 7.7, 8.75 3.93 M2.65 10.13 C4.34 8.52, 6.65 6.37, 7.93 4.48" stroke="#868e96" stroke-width="1" fill="none"></path><path d="M1.33 -0.2 C2.02 -0.55, 4.22 0.05, 5.02 0.54 C5.82 1.04, 5.67 2.01, 6.15 2.78 C6.63 3.55, 7.95 4.12, 7.89 5.16 C7.84 6.2, 6.58 8.08, 5.82 9.02 C5.06 9.96, 4.17 10.91, 3.33 10.8 C2.5 10.69, 1.3 9, 0.81 8.39 C0.31 7.78, 0.38 7.98, 0.38 7.15 C0.37 6.32, 0.3 4.75, 0.77 3.43 C1.24 2.11, 2.7 -0.38, 3.19 -0.77 C3.67 -1.16, 3.69 0.97, 3.69 1.1 M3.74 0.21 C4.4 0.64, 6.56 2.55, 7.33 3.33 C8.09 4.11, 8.37 3.81, 8.33 4.88 C8.3 5.96, 7.89 8.71, 7.11 9.79 C6.33 10.87, 4.86 11.51, 3.66 11.38 C2.46 11.26, 0.73 9.7, -0.1 9.02 C-0.93 8.33, -1.3 8.33, -1.3 7.29 C-1.29 6.25, -0.74 3.94, -0.07 2.78 C0.61 1.62, 1.87 0.91, 2.73 0.35 C3.59 -0.21, 4.73 -0.42, 5.11 -0.61 C5.48 -0.79, 5.13 -0.94, 5 -0.77" stroke="#5f3dc4" stroke-width="2" fill="none"></path></g><g stroke-linecap="round" transform="translate(239.5 335.25865800865876) rotate(0 3.5 5)"><path d="M1.16 1.01 C1.16 1.01, 1.16 1.01, 1.16 1.01 M1.16 1.01 C1.16 1.01, 1.16 1.01, 1.16 1.01 M3.24 9.91 C6.21 8.45, 8.51 5.25, 9.49 3.67 M3.68 10.23 C5.57 8.61, 6.57 7.09, 9.49 4.02" stroke="#868e96" stroke-width="1" fill="none"></path><path d="M3.36 0.52 C4.12 0.45, 4.18 0.85, 4.89 1.23 C5.6 1.61, 7.33 1.86, 7.62 2.81 C7.92 3.77, 7.12 5.78, 6.66 6.98 C6.21 8.18, 5.62 9.64, 4.9 10.01 C4.19 10.39, 2.98 9.36, 2.36 9.22 C1.74 9.09, 1.51 9.8, 1.19 9.22 C0.87 8.64, 0.49 7.11, 0.47 5.77 C0.44 4.42, 0.62 1.93, 1.04 1.14 C1.47 0.35, 2.57 1.29, 3.02 1.03 C3.48 0.76, 3.62 -0.5, 3.75 -0.48 M4.27 0.87 C5.36 0.65, 6.43 -0.51, 7.1 0.18 C7.76 0.88, 8.35 3.61, 8.28 5.06 C8.21 6.5, 7.51 8.03, 6.69 8.83 C5.87 9.63, 4.32 9.46, 3.37 9.84 C2.42 10.22, 1.55 11.44, 0.99 11.1 C0.42 10.76, 0.05 8.94, -0.03 7.8 C-0.11 6.65, 0.22 5.48, 0.5 4.23 C0.78 2.98, 1.1 1.21, 1.65 0.32 C2.2 -0.58, 3.55 -1.06, 3.81 -1.16 C4.07 -1.25, 3.39 -0.51, 3.22 -0.26" stroke="#5f3dc4" stroke-width="2" fill="none"></path></g><g stroke-linecap="round" transform="translate(226.5 369.25865800865876) rotate(0 3.5 5)"><path d="M2.35 0.72 C2.35 0.72, 2.35 0.72, 2.35 0.72 M2.35 0.72 C2.35 0.72, 2.35 0.72, 2.35 0.72" stroke="#868e96" stroke-width="1" fill="none"></path><path d="M2.12 0.98 C2.82 0.48, 4.91 -0.26, 5.62 0.08 C6.32 0.43, 6.22 1.94, 6.35 3.04 C6.49 4.15, 6.66 5.87, 6.43 6.72 C6.21 7.56, 5.47 7.42, 5.02 8.11 C4.57 8.79, 4.28 10.6, 3.73 10.8 C3.18 11, 2.25 10.28, 1.7 9.31 C1.14 8.34, 0.6 5.96, 0.39 4.99 C0.18 4.01, 0.02 4.36, 0.43 3.47 C0.83 2.57, 2.32 0.05, 2.83 -0.38 C3.33 -0.82, 3.48 0.79, 3.44 0.86 M4.79 -0.94 C5.59 -1.01, 6.64 1.02, 7.02 2.07 C7.4 3.13, 7.36 4.47, 7.06 5.39 C6.76 6.3, 5.81 6.6, 5.2 7.54 C4.6 8.49, 3.98 10.63, 3.43 11.03 C2.87 11.44, 2.28 10.55, 1.87 9.99 C1.46 9.42, 1.21 8.75, 0.97 7.65 C0.74 6.55, 0.38 4.63, 0.47 3.37 C0.57 2.11, 1.09 0.72, 1.54 0.1 C1.99 -0.52, 2.97 -0.34, 3.17 -0.36 C3.38 -0.39, 2.65 -0.33, 2.77 -0.07" stroke="#5f3dc4" stroke-width="2" fill="none"></path></g><g stroke-linecap="round" transform="translate(226.5 390.25865800865876) rotate(0 3.5 5)"><path d="M1.88 0.31 C1.88 0.31, 1.88 0.31, 1.88 0.31 M1.88 0.31 C1.88 0.31, 1.88 0.31, 1.88 0.31 M3.69 10.65 C4.22 9.8, 4.64 8.99, 5.72 7.58 M3.28 10.92 C4.39 9.78, 5.04 8.57, 6.08 7.88" stroke="#868e96" stroke-width="1" fill="none"></path><path d="M5.08 -0.13 C5.78 -0.03, 5.8 1.37, 6.04 2.38 C6.27 3.39, 6.59 5.06, 6.49 5.92 C6.39 6.78, 5.79 6.74, 5.42 7.55 C5.05 8.35, 4.83 10.37, 4.29 10.74 C3.74 11.12, 2.78 10.61, 2.16 9.78 C1.53 8.95, 0.86 6.7, 0.53 5.76 C0.2 4.83, -0.08 5.14, 0.18 4.19 C0.44 3.24, 1.24 0.59, 2.1 0.05 C2.97 -0.5, 4.86 0.93, 5.35 0.94 C5.85 0.94, 5.23 0, 5.09 0.06 M5.84 1.19 C6.33 1.81, 6.59 2.87, 6.55 3.63 C6.52 4.39, 5.94 4.67, 5.6 5.73 C5.27 6.8, 4.95 9.26, 4.55 10.01 C4.15 10.76, 3.64 10.39, 3.19 10.23 C2.74 10.07, 2.31 9.88, 1.87 9.05 C1.43 8.22, 0.72 6.51, 0.53 5.27 C0.34 4.03, 0.5 2.48, 0.73 1.61 C0.95 0.74, 1.35 0.31, 1.88 0.05 C2.4 -0.21, 3.34 -0.12, 3.86 0.04 C4.37 0.21, 5.09 1.01, 4.96 1.04" stroke="#5f3dc4" stroke-width="2" fill="none"></path></g><g stroke-linecap="round" transform="translate(230.5 423.25865800865876) rotate(0 3.5 5)"><path d="M0.74 1.97 C0.74 1.97, 0.74 1.97, 0.74 1.97 M0.74 1.97 C0.74 1.97, 0.74 1.97, 0.74 1.97 M4.36 10.03 C5.15 8.68, 6.32 7.09, 7.69 6.81 M4.36 10.25 C5.1 8.81, 6.48 7.81, 7.51 6.62" stroke="#868e96" stroke-width="1" fill="none"></path><path d="M4.5 0.82 C4.95 1.28, 5.72 2.59, 6.01 3.3 C6.3 4.02, 6.23 4.05, 6.23 5.11 C6.23 6.16, 6.38 8.72, 6.01 9.62 C5.63 10.52, 4.71 10.77, 3.98 10.5 C3.24 10.22, 2.27 8.59, 1.6 7.99 C0.94 7.38, 0.14 7.89, 0 6.88 C-0.14 5.87, 0.26 2.93, 0.76 1.94 C1.25 0.95, 2.25 1.29, 2.97 0.96 C3.69 0.62, 4.68 -0.15, 5.09 -0.05 C5.5 0.04, 5.35 1.21, 5.43 1.54 M2.55 1.63 C2.76 1.12, 2.99 0.12, 3.44 0.52 C3.88 0.92, 4.74 3.07, 5.23 4.03 C5.73 4.99, 6.26 5.46, 6.4 6.28 C6.55 7.1, 6.54 8.5, 6.11 8.97 C5.68 9.44, 4.58 9.34, 3.82 9.1 C3.05 8.87, 2.19 8.19, 1.52 7.56 C0.85 6.93, 0.07 6.23, -0.2 5.33 C-0.47 4.44, -0.63 2.91, -0.11 2.19 C0.4 1.46, 2.69 1.36, 2.9 0.98 C3.11 0.59, 0.99 -0.13, 1.15 -0.12" stroke="#5f3dc4" stroke-width="2" fill="none"></path></g><g transform="translate(177 453.75865800865876) rotate(0 54 13)"><text x="54" y="18" font-family="Virgil, Segoe UI Emoji" font-size="20px" fill="#5f3dc4" text-anchor="middle" style="white-space: pre;" direction="ltr">Algorithm X</text></g><g stroke-linecap="round" transform="translate(402 202.2586580086587) rotate(0 3.5 5)"><path d="M2.97 -0.07 C2.97 -0.07, 2.97 -0.07, 2.97 -0.07 M2.97 -0.07 C2.97 -0.07, 2.97 -0.07, 2.97 -0.07 M5.36 10.03 C6.14 8.67, 7.58 7.5, 8.31 6.31 M5.26 9.65 C5.78 8.71, 6.61 7.81, 8.11 6.03" stroke="#868e96" stroke-width="1" fill="none"></path><path d="M4.54 -0.14 C5.01 -0.07, 5.36 0.57, 5.81 1.37 C6.25 2.18, 7.18 3.39, 7.23 4.67 C7.28 5.95, 6.6 8.25, 6.09 9.07 C5.58 9.89, 4.98 9.61, 4.18 9.59 C3.38 9.57, 1.92 9.35, 1.31 8.96 C0.7 8.57, 0.52 8.24, 0.52 7.26 C0.51 6.28, 0.88 4.25, 1.25 3.07 C1.62 1.89, 2.25 0.64, 2.74 0.2 C3.23 -0.23, 3.77 0.48, 4.19 0.46 C4.62 0.45, 5.25 0.03, 5.29 0.12 M3.86 -0.95 C4.6 -0.47, 5.13 2.23, 5.88 3.5 C6.63 4.77, 8.33 5.64, 8.35 6.68 C8.36 7.72, 6.65 9.17, 5.97 9.72 C5.3 10.28, 5.23 9.91, 4.3 10 C3.37 10.1, 1.23 10.87, 0.41 10.32 C-0.41 9.76, -0.68 7.96, -0.6 6.69 C-0.52 5.42, 0.18 3.92, 0.89 2.69 C1.59 1.45, 3.01 -0.21, 3.65 -0.71 C4.29 -1.2, 4.36 -0.46, 4.72 -0.28 C5.08 -0.09, 5.78 0.09, 5.8 0.41" stroke="#c92a2a" stroke-width="2" fill="none"></path></g><g stroke-linecap="round" transform="translate(402.5 227.2586580086587) rotate(0 3.5 5)"><path d="M2.44 -0.53 C2.44 -0.53, 2.44 -0.53, 2.44 -0.53 M2.44 -0.53 C2.44 -0.53, 2.44 -0.53, 2.44 -0.53 M3.55 10.81 C4.27 10.16, 5.19 8.58, 6.88 6.81 M3.17 10.57 C4.03 9.59, 4.92 8.65, 6.6 6.99" stroke="#868e96" stroke-width="1" fill="none"></path><path d="M4.84 0.08 C5.41 0.48, 5.89 2.23, 6.13 3.3 C6.37 4.38, 6.28 5.48, 6.27 6.5 C6.26 7.53, 6.67 8.92, 6.07 9.44 C5.47 9.97, 3.59 9.77, 2.69 9.66 C1.79 9.54, 1 9.32, 0.68 8.75 C0.37 8.17, 0.77 7.2, 0.78 6.21 C0.79 5.22, 0.45 3.92, 0.72 2.81 C0.98 1.7, 1.52 -0.19, 2.38 -0.46 C3.23 -0.72, 5.33 0.87, 5.86 1.24 C6.39 1.61, 5.61 1.6, 5.58 1.75 M1.29 -0.38 C2.19 -0.38, 4.98 1.24, 6.03 1.79 C7.08 2.33, 7.29 2.05, 7.6 2.89 C7.92 3.73, 8.24 5.97, 7.91 6.84 C7.57 7.7, 6.14 7.66, 5.6 8.08 C5.06 8.49, 5.32 9.15, 4.68 9.32 C4.04 9.49, 2.53 9.49, 1.76 9.11 C0.99 8.73, 0.44 8.16, 0.07 7.04 C-0.31 5.92, -0.81 3.32, -0.49 2.39 C-0.18 1.46, 1.46 1.74, 1.97 1.45 C2.48 1.16, 2.32 0.64, 2.58 0.65" stroke="#c92a2a" stroke-width="2" fill="none"></path></g><g stroke-linecap="round" transform="translate(403.5 251.25865800865876) rotate(0 3.5 5)"><path d="M0.37 1.65 C0.37 1.65, 0.37 1.65, 0.37 1.65 M0.37 1.65 C0.37 1.65, 0.37 1.65, 0.37 1.65 M3.2 10.82 C4.95 9.42, 5.42 8.42, 7.48 4.99 M2.87 10.7 C4.35 9.03, 5.91 7.17, 7.73 5.09" stroke="#868e96" stroke-width="1" fill="none"></path><path d="M2.87 -0.59 C3.57 -0.75, 5.19 -0.4, 5.87 0.47 C6.54 1.33, 6.77 3.52, 6.94 4.6 C7.1 5.68, 7.24 6.15, 6.84 6.95 C6.44 7.74, 5.21 8.78, 4.54 9.38 C3.86 9.98, 3.3 10.83, 2.8 10.54 C2.3 10.26, 1.85 8.78, 1.53 7.69 C1.2 6.59, 1.03 5.03, 0.87 3.99 C0.71 2.95, -0.03 2.18, 0.56 1.43 C1.15 0.69, 3.68 -0.4, 4.42 -0.49 C5.16 -0.57, 4.9 0.84, 4.98 0.92 M2.65 1.16 C3.71 1.38, 6.2 1.32, 6.93 1.92 C7.66 2.53, 6.96 3.9, 7.03 4.78 C7.1 5.66, 7.84 6.16, 7.34 7.19 C6.83 8.22, 4.91 10.4, 4 10.95 C3.09 11.49, 2.36 10.99, 1.87 10.47 C1.38 9.95, 1.14 9.02, 1.08 7.85 C1.01 6.67, 1.45 4.58, 1.47 3.42 C1.49 2.26, 0.69 1.44, 1.19 0.89 C1.7 0.33, 4.08 0.06, 4.48 0.08 C4.88 0.1, 3.66 0.86, 3.6 1.02" stroke="#c92a2a" stroke-width="2" fill="none"></path></g><g stroke-linecap="round" transform="translate(407.5 320.2586580086588) rotate(0 3.5 5)"><path d="M0.02 2.66 C0.02 2.66, 0.02 2.66, 0.02 2.66 M0.02 2.66 C0.02 2.66, 0.02 2.66, 0.02 2.66" stroke="#868e96" stroke-width="1" fill="none"></path><path d="M3.37 0.28 C4.04 0.44, 4.81 0.86, 5.52 1.66 C6.24 2.45, 7.61 4.02, 7.67 5.04 C7.74 6.06, 6.51 6.89, 5.9 7.76 C5.29 8.63, 4.54 9.8, 4 10.24 C3.46 10.68, 3.27 10.82, 2.65 10.4 C2.02 9.98, 0.74 8.98, 0.26 7.73 C-0.21 6.48, -0.44 4.04, -0.19 2.9 C0.06 1.75, 1.07 1.34, 1.75 0.85 C2.44 0.37, 3.36 -0.08, 3.94 0 C4.53 0.07, 5.28 1.21, 5.27 1.3 M3.8 1.53 C4.85 1.34, 5.37 0.29, 6.02 0.65 C6.67 1, 7.56 2.86, 7.7 3.66 C7.84 4.46, 7.01 4.65, 6.87 5.46 C6.73 6.26, 7.35 7.65, 6.83 8.48 C6.32 9.31, 4.76 10.2, 3.79 10.44 C2.82 10.68, 1.83 10.75, 1.02 9.92 C0.21 9.09, -0.91 6.58, -1.06 5.47 C-1.2 4.37, -0.48 4.12, 0.15 3.29 C0.78 2.46, 2.15 0.86, 2.72 0.49 C3.3 0.13, 3.49 0.92, 3.58 1.1" stroke="#c92a2a" stroke-width="2" fill="none"></path></g><g stroke-linecap="round" transform="translate(405.5 273.2586580086588) rotate(0 3.5 5)"><path d="M1.06 0.92 C1.06 0.92, 1.06 0.92, 1.06 0.92 M1.06 0.92 C1.06 0.92, 1.06 0.92, 1.06 0.92 M4.2 10.03 C4.74 9.14, 5.59 7.51, 6.62 7.22 M3.63 10.04 C4.37 9.18, 5.29 8.1, 6.52 6.92" stroke="#868e96" stroke-width="1" fill="none"></path><path d="M3.27 -0.52 C4.06 -0.51, 4.76 0.85, 5.39 1.46 C6.03 2.06, 6.9 2.25, 7.07 3.12 C7.25 3.99, 6.7 5.48, 6.44 6.66 C6.17 7.84, 5.93 9.67, 5.48 10.21 C5.03 10.74, 4.38 10.3, 3.73 9.89 C3.07 9.47, 2.28 8.52, 1.57 7.69 C0.85 6.87, -0.48 6.03, -0.57 4.91 C-0.67 3.79, 0.34 1.79, 1 1 C1.65 0.2, 2.73 0.39, 3.36 0.16 C3.99 -0.07, 4.77 -0.37, 4.79 -0.39 M3.52 1.37 C4.28 0.89, 4.06 1.07, 4.67 1.22 C5.27 1.38, 6.9 1.33, 7.13 2.29 C7.35 3.25, 6.36 5.83, 6.04 7 C5.72 8.17, 5.53 8.82, 5.21 9.32 C4.9 9.83, 4.54 10.27, 4.15 10.04 C3.76 9.8, 3.5 8.66, 2.84 7.92 C2.19 7.18, 0.42 6.45, 0.22 5.59 C0.02 4.74, 1.24 3.5, 1.62 2.79 C2 2.07, 2.25 1.6, 2.48 1.3 C2.72 1, 2.9 0.86, 3.02 1.01" stroke="#c92a2a" stroke-width="2" fill="none"></path></g><g stroke-linecap="round" transform="translate(416.5 252.25865800865876) rotate(0 3.5 5)"><path d="M0.26 1.55 C0.26 1.55, 0.26 1.55, 0.26 1.55 M0.26 1.55 C0.26 1.55, 0.26 1.55, 0.26 1.55 M3.19 10.5 C5.23 8.38, 5.81 7.13, 8.85 4.35 M3.21 10.18 C4.34 9.26, 5.05 8.04, 8.25 4.18" stroke="#868e96" stroke-width="1" fill="none"></path><path d="M2.1 0.16 C2.99 -0.14, 5.02 0.33, 5.73 0.75 C6.43 1.17, 6.19 1.69, 6.34 2.69 C6.49 3.69, 6.64 5.52, 6.62 6.76 C6.6 8, 6.8 9.46, 6.22 10.14 C5.64 10.81, 4.06 11.19, 3.12 10.81 C2.19 10.44, 1.12 8.78, 0.62 7.88 C0.12 6.98, 0.22 6.42, 0.13 5.41 C0.03 4.39, -0.47 2.59, 0.05 1.8 C0.57 1.01, 2.77 0.97, 3.25 0.67 C3.73 0.36, 3.03 0.11, 2.93 -0.04 M3.79 0.23 C4.46 -0.14, 5.69 0.96, 6.18 1.3 C6.68 1.64, 6.43 1.48, 6.77 2.25 C7.1 3.02, 8.33 4.68, 8.2 5.93 C8.07 7.18, 6.84 8.83, 5.98 9.74 C5.12 10.66, 4.04 11.62, 3.01 11.4 C1.98 11.18, 0.4 9.27, -0.19 8.43 C-0.78 7.59, -0.7 7.39, -0.53 6.35 C-0.35 5.32, 0.12 3.12, 0.83 2.22 C1.54 1.32, 3.3 1.13, 3.72 0.95 C4.14 0.77, 3.27 1.44, 3.35 1.13" stroke="#c92a2a" stroke-width="2" fill="none"></path></g><g stroke-linecap="round" transform="translate(404.5 337.2586580086588) rotate(0 3.5 5)"><path d="M0.08 2.72 C0.08 2.72, 0.08 2.72, 0.08 2.72 M0.08 2.72 C0.08 2.72, 0.08 2.72, 0.08 2.72 M4.09 10.75 C5.34 8.12, 7.36 7.34, 8.58 4.43 M3.81 10.36 C5.62 8.29, 7.15 6.95, 8.43 4.71" stroke="#868e96" stroke-width="1" fill="none"></path><path d="M2.49 0.9 C3.15 0.57, 4.46 -0.24, 5.1 0.03 C5.73 0.29, 5.95 1.33, 6.31 2.48 C6.68 3.62, 7.22 5.8, 7.27 6.89 C7.32 7.98, 7.11 8.53, 6.59 8.99 C6.07 9.45, 5.17 9.67, 4.17 9.64 C3.16 9.6, 1.22 9.56, 0.54 8.78 C-0.14 8.01, 0.15 6.04, 0.11 4.99 C0.07 3.93, -0.23 3.36, 0.31 2.45 C0.86 1.54, 2.95 0, 3.38 -0.47 C3.81 -0.93, 3.12 -0.45, 2.9 -0.34 M4.94 1.36 C5.5 1.52, 7.1 1.64, 7.27 2.65 C7.45 3.66, 6.38 6.25, 5.99 7.41 C5.61 8.57, 5.35 9.15, 4.99 9.59 C4.63 10.03, 4.25 10.36, 3.86 10.04 C3.46 9.72, 3.23 8.47, 2.62 7.66 C2 6.85, 0.31 6.05, 0.17 5.18 C0.02 4.31, 1.33 3.1, 1.76 2.43 C2.19 1.75, 2.11 1.41, 2.76 1.15 C3.41 0.89, 5.16 0.78, 5.66 0.88 C6.15 0.98, 6.12 1.76, 5.71 1.75" stroke="#c92a2a" stroke-width="2" fill="none"></path></g><g stroke-linecap="round" transform="translate(417.5 387.2586580086588) rotate(0 3.5 5)"><path d="M-0.6 3.45 C-0.6 3.45, -0.6 3.45, -0.6 3.45 M-0.6 3.45 C-0.6 3.45, -0.6 3.45, -0.6 3.45 M3.99 10.73 C4.87 9.19, 7.6 6.63, 7.54 5.74 M3.59 10.97 C4.1 10.04, 5.34 8.51, 7.82 5.44" stroke="#868e96" stroke-width="1" fill="none"></path><path d="M4.59 0.27 C5.33 0.27, 5.32 0.47, 5.68 1.27 C6.04 2.07, 6.52 3.79, 6.75 5.07 C6.98 6.35, 7.49 8.03, 7.08 8.97 C6.67 9.91, 5.23 10.72, 4.31 10.71 C3.39 10.69, 2.22 9.5, 1.57 8.89 C0.92 8.28, 0.75 7.99, 0.41 7.06 C0.06 6.13, -0.71 4.25, -0.48 3.32 C-0.26 2.38, 1.07 2.02, 1.74 1.45 C2.41 0.89, 3.2 0.27, 3.56 -0.06 C3.91 -0.39, 3.85 -0.78, 3.87 -0.55 M6.06 1.21 C6.55 1.42, 6.35 1.31, 6.71 2.07 C7.08 2.82, 8.34 4.47, 8.24 5.74 C8.14 7, 6.95 8.69, 6.1 9.64 C5.25 10.58, 4.19 11.6, 3.15 11.42 C2.12 11.25, 0.51 9.39, -0.1 8.58 C-0.71 7.77, -0.66 7.59, -0.52 6.55 C-0.38 5.52, 0.06 3.31, 0.75 2.38 C1.43 1.46, 2.77 1.15, 3.58 1 C4.38 0.84, 5.12 1.77, 5.57 1.45 C6.03 1.14, 6.43 -0.67, 6.32 -0.88" stroke="#c92a2a" stroke-width="2" fill="none"></path></g><g stroke-linecap="round" transform="translate(402.5 394.2586580086588) rotate(0 3.5 5)"><path d="M2.8 -0.22 C2.8 -0.22, 2.8 -0.22, 2.8 -0.22 M2.8 -0.22 C2.8 -0.22, 2.8 -0.22, 2.8 -0.22 M3.32 10.61 C5.63 9.68, 6.78 6.56, 8.9 4.29 M3.59 10.73 C5.62 8.94, 6.94 6.58, 8.56 5.34" stroke="#868e96" stroke-width="1" fill="none"></path><path d="M2.76 -0.17 C3.37 -0.67, 3.9 -0.44, 4.61 0.18 C5.32 0.8, 6.45 2.56, 7 3.56 C7.54 4.57, 7.98 5.34, 7.88 6.19 C7.78 7.04, 7.28 8.02, 6.41 8.68 C5.55 9.33, 3.57 10.23, 2.69 10.11 C1.82 9.99, 1.65 8.71, 1.16 7.98 C0.68 7.25, -0.23 6.76, -0.22 5.71 C-0.21 4.65, 0.72 2.66, 1.22 1.64 C1.73 0.62, 2.58 -0.1, 2.8 -0.42 C3.03 -0.74, 2.43 -0.61, 2.59 -0.29 M5.31 0.27 C5.82 0.6, 5.39 2.76, 5.56 3.78 C5.72 4.8, 6.17 5.58, 6.29 6.41 C6.41 7.25, 6.49 8.37, 6.29 8.79 C6.08 9.22, 5.84 9, 5.04 8.93 C4.23 8.86, 2.07 8.86, 1.45 8.38 C0.82 7.9, 1.42 6.86, 1.3 6.05 C1.19 5.24, 0.48 4.37, 0.77 3.51 C1.07 2.64, 2.28 1.19, 3.08 0.86 C3.88 0.54, 5.55 1.64, 5.55 1.56 C5.56 1.47, 3.41 0.61, 3.11 0.36" stroke="#c92a2a" stroke-width="2" fill="none"></path></g><g stroke-linecap="round" transform="translate(404.5 380.2586580086588) rotate(0 3.5 5)"><path d="M0.89 0.77 C0.89 0.77, 0.89 0.77, 0.89 0.77 M0.89 0.77 C0.89 0.77, 0.89 0.77, 0.89 0.77 M2.53 10.9 C5.06 8.62, 5.41 7.11, 7.5 4.89 M2.65 10.69 C4.02 8.97, 4.82 7.83, 8.54 4.24" stroke="#868e96" stroke-width="1" fill="none"></path><path d="M3.16 -0.3 C3.72 -0.33, 4.77 0.65, 5.53 1.56 C6.29 2.46, 7.56 4.02, 7.73 5.15 C7.89 6.29, 7.09 7.72, 6.52 8.38 C5.95 9.04, 5 8.9, 4.31 9.14 C3.63 9.37, 3.14 10.09, 2.4 9.77 C1.65 9.45, 0.18 8.06, -0.18 7.22 C-0.54 6.38, 0.07 5.76, 0.22 4.72 C0.36 3.68, 0.17 1.91, 0.69 1 C1.21 0.08, 2.84 -0.77, 3.34 -0.78 C3.85 -0.79, 3.49 0.62, 3.72 0.94 M3.67 -0.93 C4.44 -1.17, 6.59 -0.31, 7.25 0.65 C7.91 1.61, 7.76 3.41, 7.63 4.83 C7.5 6.25, 7.18 8.31, 6.49 9.15 C5.8 10, 4.29 9.62, 3.48 9.9 C2.67 10.19, 2.13 11.23, 1.63 10.85 C1.12 10.47, 0.56 8.66, 0.46 7.65 C0.35 6.63, 0.75 5.71, 0.99 4.76 C1.23 3.81, 1.23 3, 1.89 1.96 C2.56 0.92, 4.66 -1.05, 4.95 -1.48 C5.25 -1.92, 3.99 -1.07, 3.66 -0.67" stroke="#c92a2a" stroke-width="2" fill="none"></path></g><g stroke-linecap="round" transform="translate(400.5 410.2586580086588) rotate(0 3.5 5)"><path d="M2.44 -0.53 C2.44 -0.53, 2.44 -0.53, 2.44 -0.53 M2.44 -0.53 C2.44 -0.53, 2.44 -0.53, 2.44 -0.53 M3.58 11.34 C5.03 7.94, 7.24 5.53, 8.86 3.94 M3.38 10.75 C4.64 8.5, 6.48 7.05, 8.2 4.98" stroke="#868e96" stroke-width="1" fill="none"></path><path d="M4.36 0.04 C5.07 0.51, 6.28 2.27, 6.87 3.23 C7.47 4.19, 7.97 4.95, 7.93 5.82 C7.89 6.69, 7.45 7.72, 6.62 8.44 C5.79 9.16, 3.84 10.16, 2.96 10.12 C2.08 10.09, 1.88 8.91, 1.36 8.23 C0.84 7.56, -0.14 7.13, -0.19 6.08 C-0.23 5.04, 0.7 3, 1.08 1.96 C1.47 0.92, 1.6 0.14, 2.12 -0.17 C2.65 -0.48, 3.56 -0.22, 4.22 0.1 C4.88 0.42, 5.87 1.62, 6.09 1.77 M3.72 1.66 C4.18 2.04, 5.21 2.4, 5.83 3.1 C6.45 3.79, 7.19 5.07, 7.43 5.84 C7.66 6.61, 7.87 7.11, 7.24 7.72 C6.62 8.32, 4.47 9.27, 3.68 9.47 C2.9 9.68, 3.07 9.38, 2.53 8.94 C1.98 8.5, 0.61 7.82, 0.41 6.85 C0.2 5.87, 0.83 3.95, 1.3 3.08 C1.76 2.21, 2.88 2.09, 3.19 1.62 C3.5 1.15, 3.05 0.6, 3.16 0.28 C3.27 -0.04, 3.55 -0.61, 3.85 -0.29" stroke="#c92a2a" stroke-width="2" fill="none"></path></g><g transform="translate(363.5 453.75865800865876) rotate(0 53.5 13)"><text x="53.5" y="18" font-family="Virgil, Segoe UI Emoji" font-size="20px" fill="#c92a2a" text-anchor="middle" style="white-space: pre;" direction="ltr">Algorithm Y</text></g><g transform="translate(313.5 453.75865800865876) rotate(0 10.5 13)"><text x="10.5" y="18" font-family="Virgil, Segoe UI Emoji" font-size="20px" fill="#000000" text-anchor="middle" style="white-space: pre;" direction="ltr">vs</text></g><g stroke-linecap="round"><g transform="translate(117.12538834212353 268.2376926949072) rotate(0 52.09434207612489 -9.864916054258984)"><path d="M0.34 0.84 C17.74 -2.43, 87.64 -15.52, 105.13 -18.93 M-0.94 0.23 C16.24 -3.42, 86.65 -17.5, 104.24 -20.57" stroke="#000000" stroke-width="1" fill="none"></path></g><g transform="translate(117.12538834212353 268.2376926949072) rotate(0 52.09434207612489 -9.864916054258984)"><path d="M79.85 -5.03 C89.26 -10.45, 97.5 -16.82, 103.78 -18.86 M77.5 -4.91 C87.52 -10.79, 98.14 -16.6, 104.39 -19.62" stroke="#000000" stroke-width="1" fill="none"></path></g><g transform="translate(117.12538834212353 268.2376926949072) rotate(0 52.09434207612489 -9.864916054258984)"><path d="M76.03 -25.2 C86.95 -23.31, 96.56 -22.36, 103.78 -18.86 M73.68 -25.07 C85.13 -23.21, 97.22 -21.25, 104.39 -19.62" stroke="#000000" stroke-width="1" fill="none"></path></g></g><g transform="translate(10 229.2586580086587) rotate(0 51 39)"><text x="51" y="18" font-family="Virgil, Segoe UI Emoji" font-size="20px" fill="#000000" text-anchor="middle" style="white-space: pre;" direction="ltr">each dot</text><text x="51" y="44" font-family="Virgil, Segoe UI Emoji" font-size="20px" fill="#000000" text-anchor="middle" style="white-space: pre;" direction="ltr">represents</text><text x="51" y="70" font-family="Virgil, Segoe UI Emoji" font-size="20px" fill="#000000" text-anchor="middle" style="white-space: pre;" direction="ltr">one run</text></g><g stroke-linecap="round"><g stroke-opacity="0.7" fill-opacity="0.7" transform="translate(239 223.2586580086587) rotate(0 80.56680105821692 -8.183489698260104)"><path d="M0.17 -0.37 C27.31 -2.73, 135.55 -11.94, 162.33 -14.26 M-1.2 -1.61 C25.85 -4.3, 134.17 -13.55, 161.56 -16" stroke="#000000" stroke-width="1" fill="none"></path></g></g><g stroke-linecap="round"><g stroke-opacity="0.7" fill-opacity="0.7" transform="translate(237 223.2586580086587) rotate(0 83.28187168739271 3.3057807633373955)"><path d="M1.03 0.92 C28.67 1.87, 138.94 4.49, 166.45 5.16 M0.11 0.36 C27.58 1.48, 138.2 5.37, 165.74 6.25" stroke="#000000" stroke-width="1" fill="none"></path></g></g><g stroke-linecap="round"><g stroke-opacity="0.7" fill-opacity="0.7" transform="translate(240 224.2586580086587) rotate(0 82.63902656064835 15.816628750087702)"><path d="M-0.2 0.87 C27.65 5.96, 139.45 24.9, 167.04 29.87 M-1.77 0.29 C26.03 5.62, 138.97 26.6, 166.64 31.34" stroke="#000000" stroke-width="1" fill="none"></path></g></g><g stroke-linecap="round"><g stroke-opacity="0.7" fill-opacity="0.7" transform="translate(240 226.2586580086587) rotate(0 83.450560926646 57.227897782181415)"><path d="M-0.94 -1.11 C26.95 17.85, 139.86 95.01, 167.84 114.36 M0.77 0.92 C28.52 19.97, 139.77 96.34, 167.34 115.57" stroke="#000000" stroke-width="1" fill="none"></path></g></g><g stroke-linecap="round"><g stroke-opacity="0.7" fill-opacity="0.7" transform="translate(237 249.2586580086587) rotate(0 84.87192137287468 -19.09548504427076)"><path d="M0.14 -0.4 C28.77 -6.52, 142.8 -31.85, 170.99 -37.79 M-1.25 -1.66 C27.38 -7.54, 141.72 -30.62, 170.56 -36.67" stroke="#000000" stroke-width="1" fill="none"></path></g></g><g stroke-linecap="round"><g stroke-opacity="0.7" fill-opacity="0.7" transform="translate(234 246.2586580086587) rotate(0 86.23551569686737 -7.1200779683887845)"><path d="M0.96 -0.22 C29.9 -2.67, 143.76 -12.08, 172.46 -14.02 M0.01 -1.39 C28.85 -3.77, 142.48 -10.97, 171.23 -13.01" stroke="#000000" stroke-width="1" fill="none"></path></g></g><g stroke-linecap="round"><g stroke-opacity="0.7" fill-opacity="0.7" transform="translate(406 278.25865800865876) rotate(0 -81.72539709256029 14.796945021459834)"><path d="M-0.54 0.95 C-28.02 5.68, -136.8 23.56, -164.27 28.12 M1.38 0.4 C-26.24 5.29, -136.89 24.38, -164.84 29.19" stroke="#000000" stroke-width="1" fill="none"></path></g></g><g stroke-linecap="round"><g stroke-opacity="0.7" fill-opacity="0.7" transform="translate(229 394.25865800865876) rotate(0 87.92333096160553 -92.22152674301996)"><path d="M-0.07 0.43 C28.97 -30.03, 145.99 -152.36, 175.15 -183.18 M-1.57 -0.39 C27.77 -31.15, 147.62 -154.36, 177.42 -184.87" stroke="#000000" stroke-width="1" fill="none"></path></g></g><g stroke-linecap="round"><g stroke-opacity="0.7" fill-opacity="0.7" transform="translate(404 417.25865800865876) rotate(0 -82.7457504197676 -49.244000356881884)"><path d="M-0.65 -0.12 C-28.22 -16.24, -138.66 -80.48, -166.19 -96.5 M1.22 -1.23 C-26.38 -17.72, -138.84 -82.21, -166.71 -98.37" stroke="#000000" stroke-width="1" fill="none"></path></g></g><g stroke-linecap="round"><g stroke-opacity="0.7" fill-opacity="0.7" transform="translate(232 430.25865800865876) rotate(0 87.66605359390383 -75.75271656977945)"><path d="M-0.4 -1.14 C29.04 -26.38, 146.52 -125.39, 175.73 -150.51 M1.6 0.87 C30.93 -24.8, 145.38 -127.07, 174.64 -152.38" stroke="#000000" stroke-width="1" fill="none"></path></g></g><g stroke-linecap="round"><g stroke-opacity="0.7" fill-opacity="0.7" transform="translate(406 395.25865800865876) rotate(0 -82.03667945650409 -42.85404490756804)"><path d="M-0.74 -0.6 C-28.25 -14.89, -137.24 -71.11, -164.82 -85.53 M1.07 1.7 C-26.51 -12.97, -137.12 -72.73, -165.15 -87.4" stroke="#000000" stroke-width="1" fill="none"></path></g></g><g stroke-linecap="round"><g stroke-opacity="0.7" fill-opacity="0.7" transform="translate(232 374.25865800865876) rotate(0 88.52386445270389 -24.603394389897574)"><path d="M0.55 0.98 C30.34 -7.55, 148.42 -41.73, 177.67 -50.19 M-0.62 0.45 C29.16 -8.07, 147.23 -41.06, 177.07 -49.27" stroke="#000000" stroke-width="1" fill="none"></path></g></g><g stroke-linecap="round"><g stroke-opacity="0.7" fill-opacity="0.7" transform="translate(238 224.2586580086587) rotate(0 84.96870026222894 50.37531807110183)"><path d="M0.29 -1.11 C28.87 15.53, 142.31 83.49, 170.95 100.55 M-1.02 0.93 C27.44 17.66, 141.15 84.89, 169.98 101.86" stroke="#000000" stroke-width="1" fill="none"></path></g></g><g stroke-linecap="round"><g stroke-opacity="0.7" fill-opacity="0.7" transform="translate(242 326.25865800865876) rotate(0 79.97495801374316 -33.611866629268064)"><path d="M-0.39 1.02 C26.17 -10.11, 133.45 -54.92, 160.34 -66.42 M1.61 0.51 C27.95 -11, 133.06 -56.96, 159.57 -68.24" stroke="#000000" stroke-width="1" fill="none"></path></g></g><g stroke-linecap="round"><g stroke-opacity="0.7" fill-opacity="0.7" transform="translate(237 433.25865800865876) rotate(0 82.23930252007676 -8.86918562576173)"><path d="M0.02 -0.37 C27.69 -3.31, 138.48 -14.54, 165.91 -17.37 M-1.43 -1.6 C26.17 -4.4, 137.94 -13.6, 165.44 -16.03" stroke="#000000" stroke-width="1" fill="none"></path></g></g><g stroke-linecap="round"><g stroke-opacity="0.7" fill-opacity="0.7" transform="translate(228 399.25865800865876) rotate(0 86.43930517710282 1.4907745650457116)"><path d="M-0.61 0.09 C27.86 0.65, 142.34 3.43, 171.2 3.89 M1.27 -0.9 C30.1 -0.72, 145.02 1.4, 173.49 2.23" stroke="#000000" stroke-width="1" fill="none"></path></g></g><g stroke-linecap="round"><g stroke-opacity="0.7" fill-opacity="0.7" transform="translate(236 427.25865800865876) rotate(0 85.24437178644354 -19.49043097570538)"><path d="M-0.05 0.9 C28.12 -5.62, 141.23 -33.27, 169.89 -39.88 M-1.53 0.33 C26.92 -5.99, 143.16 -32.53, 172.02 -38.81" stroke="#000000" stroke-width="1" fill="none"></path></g></g><g stroke-linecap="round"><g stroke-opacity="0.7" fill-opacity="0.7" transform="translate(232 375.25865800865876) rotate(0 85.9142274052603 4.193692488674998)"><path d="M-0.81 0.98 C27.65 2.43, 141.57 7.01, 170.29 7.93 M0.97 0.46 C29.85 1.64, 144.29 5.12, 172.63 6.3" stroke="#000000" stroke-width="1" fill="none"></path></g></g><g stroke-linecap="round"><g stroke-opacity="0.7" fill-opacity="0.7" transform="translate(229 285.25865800865876) rotate(0 87.68004643575756 -26.279740811139376)"><path d="M1.09 0.43 C30.29 -8.36, 146.15 -44.04, 175.16 -52.99 M0.2 -0.38 C29.26 -8.96, 145.26 -42.82, 174.29 -51.45" stroke="#000000" stroke-width="1" fill="none"></path></g></g><g stroke-linecap="round"><g stroke-opacity="0.7" fill-opacity="0.7" transform="translate(237 288.25865800865876) rotate(0 84.44021963597743 -14.917474485188748)"><path d="M-0.56 0.27 C27.29 -4.79, 139.04 -25.33, 167.17 -30.1 M1.35 -0.64 C29.57 -5.6, 141.74 -24.19, 169.44 -29.14" stroke="#000000" stroke-width="1" fill="none"></path></g></g><g transform="translate(215 133.7586580086587) rotate(0 123 26)"><text x="123" y="18" font-family="Virgil, Segoe UI Emoji" font-size="20px" fill="#000000" text-anchor="middle" style="white-space: pre;" direction="ltr">1. Compare each run from</text><text x="123" y="44" font-family="Virgil, Segoe UI Emoji" font-size="20px" fill="#000000" text-anchor="middle" style="white-space: pre;" direction="ltr">to each run from</text></g><g stroke-linecap="round"><g transform="translate(453 310.25865800865876) rotate(0 35.88705077357122 0.7225834755006275)"><path d="M0.39 0.39 C12.67 0.6, 60.64 1.89, 72.64 1.93 M-0.87 -0.46 C11.31 -0.62, 59.43 -0.1, 71.46 0.26" stroke="#000000" stroke-width="1" fill="none"></path></g><g transform="translate(453 310.25865800865876) rotate(0 35.88705077357122 0.7225834755006275)"><path d="M43.72 9.24 C50.53 6.71, 54.41 6.16, 72.22 0.31 M42.99 9.32 C54.26 6.7, 65.81 3.25, 71.96 0.15" stroke="#000000" stroke-width="1" fill="none"></path></g><g transform="translate(453 310.25865800865876) rotate(0 35.88705077357122 0.7225834755006275)"><path d="M44.11 -11.27 C50.93 -9.42, 54.73 -5.6, 72.22 0.31 M43.37 -11.2 C54.57 -5.63, 65.96 -0.89, 71.96 0.15" stroke="#000000" stroke-width="1" fill="none"></path></g></g><g transform="translate(624 130.7586580086587) rotate(0 85 26)"><text x="85" y="18" font-family="Virgil, Segoe UI Emoji" font-size="20px" fill="#000000" text-anchor="middle" style="white-space: pre;" direction="ltr">2. Compute wins,</text><text x="85" y="44" font-family="Virgil, Segoe UI Emoji" font-size="20px" fill="#000000" text-anchor="middle" style="white-space: pre;" direction="ltr">losses and draws</text></g><g stroke-linecap="round"><g transform="translate(625 291.25865800865876) rotate(0 91.52069394038523 0.04719633615108876)"><path d="M0.52 -0.56 C31.05 -0.79, 153.47 -1.45, 183.7 -1.67 M-0.66 1.76 C29.72 1.7, 152.3 -0.01, 183.12 -0.48" stroke="#000000" stroke-width="1" fill="none"></path></g></g><g transform="translate(542 227.7586580086587) rotate(0 6 13)"><text x="6" y="18" font-family="Virgil, Segoe UI Emoji" font-size="20px" fill="#5f3dc4" text-anchor="middle" style="white-space: pre;" direction="ltr">X</text></g><g transform="translate(565.5 227.7586580086587) rotate(0 5 13)"><text x="5" y="18" font-family="Virgil, Segoe UI Emoji" font-size="20px" fill="#000000" text-anchor="middle" style="white-space: pre;" direction="ltr">&gt;</text></g><g transform="translate(587 227.7586580086587) rotate(0 5 13)"><text x="5" y="18" font-family="Virgil, Segoe UI Emoji" font-size="20px" fill="#c92a2a" text-anchor="middle" style="white-space: pre;" direction="ltr">Y</text></g><g stroke-linecap="round"><g transform="translate(622.5 338.75865800865876) rotate(0 93.81114446131983 -0.38570763281083487)"><path d="M-0.16 -1.17 C30.85 -1.08, 155.67 0.21, 187.15 0.41 M-1.71 0.83 C29.58 0.54, 157.67 -1.67, 189.33 -1.6" stroke="#000000" stroke-width="1" fill="none"></path></g></g><g transform="translate(564.5 297.25865800865876) rotate(0 6 13)"><text x="6" y="18" font-family="Virgil, Segoe UI Emoji" font-size="20px" fill="#000000" text-anchor="middle" style="white-space: pre;" direction="ltr">=</text></g><g transform="translate(545 297.25865800865876) rotate(0 6 13)"><text x="6" y="18" font-family="Virgil, Segoe UI Emoji" font-size="20px" fill="#5f3dc4" text-anchor="middle" style="white-space: pre;" direction="ltr">X</text></g><g transform="translate(584 297.25865800865876) rotate(0 5 13)"><text x="5" y="18" font-family="Virgil, Segoe UI Emoji" font-size="20px" fill="#c92a2a" text-anchor="middle" style="white-space: pre;" direction="ltr">Y</text></g><g transform="translate(564.5 374.75865800865876) rotate(0 6 13)"><text x="6" y="18" font-family="Virgil, Segoe UI Emoji" font-size="20px" fill="#000000" text-anchor="middle" style="white-space: pre;" direction="ltr">&lt;</text></g><g transform="translate(538 374.75865800865876) rotate(0 6 13)"><text x="6" y="18" font-family="Virgil, Segoe UI Emoji" font-size="20px" fill="#5f3dc4" text-anchor="middle" style="white-space: pre;" direction="ltr">X</text></g><g transform="translate(591 374.75865800865876) rotate(0 5 13)"><text x="5" y="18" font-family="Virgil, Segoe UI Emoji" font-size="20px" fill="#c92a2a" text-anchor="middle" style="white-space: pre;" direction="ltr">Y</text></g><g stroke-linecap="round" transform="translate(646 243.2586580086587) rotate(0 5.5 5.5)"><path d="M5.5 0 C6.62 -0.07, 8.13 0.53, 9.04 1.29 C9.94 2.04, 10.71 3.38, 10.92 4.54 C11.12 5.71, 10.85 7.23, 10.26 8.25 C9.67 9.27, 8.49 10.27, 7.38 10.67 C6.27 11.07, 4.73 11.07, 3.62 10.67 C2.51 10.27, 1.33 9.27, 0.74 8.25 C0.15 7.23, -0.12 5.71, 0.08 4.54 C0.29 3.38, 1.06 2.04, 1.96 1.29 C2.87 0.53, 4.91 0.2, 5.5 0 C6.09 -0.2, 5.5 0.02, 5.5 0.11 M5.5 0 C6.62 -0.07, 8.13 0.53, 9.04 1.29 C9.94 2.04, 10.71 3.38, 10.92 4.54 C11.12 5.71, 10.85 7.23, 10.26 8.25 C9.67 9.27, 8.49 10.27, 7.38 10.67 C6.27 11.07, 4.73 11.07, 3.62 10.67 C2.51 10.27, 1.33 9.27, 0.74 8.25 C0.15 7.23, -0.12 5.71, 0.08 4.54 C0.29 3.38, 1.06 2.04, 1.96 1.29 C2.87 0.53, 4.91 0.2, 5.5 0 C6.09 -0.2, 5.5 0.02, 5.5 0.11" stroke="none" stroke-width="0" fill="#000"></path><path d="M5.5 0 C6.62 -0.07, 8.13 0.53, 9.04 1.29 C9.94 2.04, 10.71 3.38, 10.92 4.54 C11.12 5.71, 10.85 7.23, 10.26 8.25 C9.67 9.27, 8.49 10.27, 7.38 10.67 C6.27 11.07, 4.73 11.07, 3.62 10.67 C2.51 10.27, 1.33 9.27, 0.74 8.25 C0.15 7.23, -0.12 5.71, 0.08 4.54 C0.29 3.38, 1.06 2.04, 1.96 1.29 C2.87 0.53, 4.91 0.2, 5.5 0 C6.09 -0.2, 5.5 0.02, 5.5 0.11 M5.5 0 C6.62 -0.07, 8.13 0.53, 9.04 1.29 C9.94 2.04, 10.71 3.38, 10.92 4.54 C11.12 5.71, 10.85 7.23, 10.26 8.25 C9.67 9.27, 8.49 10.27, 7.38 10.67 C6.27 11.07, 4.73 11.07, 3.62 10.67 C2.51 10.27, 1.33 9.27, 0.74 8.25 C0.15 7.23, -0.12 5.71, 0.08 4.54 C0.29 3.38, 1.06 2.04, 1.96 1.29 C2.87 0.53, 4.91 0.2, 5.5 0 C6.09 -0.2, 5.5 0.02, 5.5 0.11" stroke="#000000" stroke-width="1" fill="none"></path></g><g stroke-linecap="round" transform="translate(694.75 243.2586580086587) rotate(0 5.5 5.5)"><path d="M5.5 0 C6.62 -0.07, 8.13 0.53, 9.04 1.29 C9.94 2.04, 10.71 3.38, 10.92 4.54 C11.12 5.71, 10.85 7.23, 10.26 8.25 C9.67 9.27, 8.49 10.27, 7.38 10.67 C6.27 11.07, 4.73 11.07, 3.62 10.67 C2.51 10.27, 1.33 9.27, 0.74 8.25 C0.15 7.23, -0.12 5.71, 0.08 4.54 C0.29 3.38, 1.06 2.04, 1.96 1.29 C2.87 0.53, 4.91 0.2, 5.5 0 C6.09 -0.2, 5.5 0.02, 5.5 0.11 M5.5 0 C6.62 -0.07, 8.13 0.53, 9.04 1.29 C9.94 2.04, 10.71 3.38, 10.92 4.54 C11.12 5.71, 10.85 7.23, 10.26 8.25 C9.67 9.27, 8.49 10.27, 7.38 10.67 C6.27 11.07, 4.73 11.07, 3.62 10.67 C2.51 10.27, 1.33 9.27, 0.74 8.25 C0.15 7.23, -0.12 5.71, 0.08 4.54 C0.29 3.38, 1.06 2.04, 1.96 1.29 C2.87 0.53, 4.91 0.2, 5.5 0 C6.09 -0.2, 5.5 0.02, 5.5 0.11" stroke="none" stroke-width="0" fill="#000"></path><path d="M5.5 0 C6.62 -0.07, 8.13 0.53, 9.04 1.29 C9.94 2.04, 10.71 3.38, 10.92 4.54 C11.12 5.71, 10.85 7.23, 10.26 8.25 C9.67 9.27, 8.49 10.27, 7.38 10.67 C6.27 11.07, 4.73 11.07, 3.62 10.67 C2.51 10.27, 1.33 9.27, 0.74 8.25 C0.15 7.23, -0.12 5.71, 0.08 4.54 C0.29 3.38, 1.06 2.04, 1.96 1.29 C2.87 0.53, 4.91 0.2, 5.5 0 C6.09 -0.2, 5.5 0.02, 5.5 0.11 M5.5 0 C6.62 -0.07, 8.13 0.53, 9.04 1.29 C9.94 2.04, 10.71 3.38, 10.92 4.54 C11.12 5.71, 10.85 7.23, 10.26 8.25 C9.67 9.27, 8.49 10.27, 7.38 10.67 C6.27 11.07, 4.73 11.07, 3.62 10.67 C2.51 10.27, 1.33 9.27, 0.74 8.25 C0.15 7.23, -0.12 5.71, 0.08 4.54 C0.29 3.38, 1.06 2.04, 1.96 1.29 C2.87 0.53, 4.91 0.2, 5.5 0 C6.09 -0.2, 5.5 0.02, 5.5 0.11" stroke="#000000" stroke-width="1" fill="none"></path></g><g stroke-linecap="round" transform="translate(670.3750000000001 243.2586580086587) rotate(0 5.500000000000057 5.5)"><path d="M5.5 0 C6.62 -0.07, 8.13 0.53, 9.04 1.29 C9.94 2.04, 10.71 3.38, 10.92 4.54 C11.12 5.71, 10.85 7.23, 10.26 8.25 C9.67 9.27, 8.49 10.27, 7.38 10.67 C6.27 11.07, 4.73 11.07, 3.62 10.67 C2.51 10.27, 1.33 9.27, 0.74 8.25 C0.15 7.23, -0.12 5.71, 0.08 4.54 C0.29 3.38, 1.06 2.04, 1.96 1.29 C2.87 0.53, 4.91 0.2, 5.5 0 C6.09 -0.2, 5.5 0.02, 5.5 0.11 M5.5 0 C6.62 -0.07, 8.13 0.53, 9.04 1.29 C9.94 2.04, 10.71 3.38, 10.92 4.54 C11.12 5.71, 10.85 7.23, 10.26 8.25 C9.67 9.27, 8.49 10.27, 7.38 10.67 C6.27 11.07, 4.73 11.07, 3.62 10.67 C2.51 10.27, 1.33 9.27, 0.74 8.25 C0.15 7.23, -0.12 5.71, 0.08 4.54 C0.29 3.38, 1.06 2.04, 1.96 1.29 C2.87 0.53, 4.91 0.2, 5.5 0 C6.09 -0.2, 5.5 0.02, 5.5 0.11" stroke="none" stroke-width="0" fill="#000"></path><path d="M5.5 0 C6.62 -0.07, 8.13 0.53, 9.04 1.29 C9.94 2.04, 10.71 3.38, 10.92 4.54 C11.12 5.71, 10.85 7.23, 10.26 8.25 C9.67 9.27, 8.49 10.27, 7.38 10.67 C6.27 11.07, 4.73 11.07, 3.62 10.67 C2.51 10.27, 1.33 9.27, 0.74 8.25 C0.15 7.23, -0.12 5.71, 0.08 4.54 C0.29 3.38, 1.06 2.04, 1.96 1.29 C2.87 0.53, 4.91 0.2, 5.5 0 C6.09 -0.2, 5.5 0.02, 5.5 0.11 M5.5 0 C6.62 -0.07, 8.13 0.53, 9.04 1.29 C9.94 2.04, 10.71 3.38, 10.92 4.54 C11.12 5.71, 10.85 7.23, 10.26 8.25 C9.67 9.27, 8.49 10.27, 7.38 10.67 C6.27 11.07, 4.73 11.07, 3.62 10.67 C2.51 10.27, 1.33 9.27, 0.74 8.25 C0.15 7.23, -0.12 5.71, 0.08 4.54 C0.29 3.38, 1.06 2.04, 1.96 1.29 C2.87 0.53, 4.91 0.2, 5.5 0 C6.09 -0.2, 5.5 0.02, 5.5 0.11" stroke="#000000" stroke-width="1" fill="none"></path></g><g stroke-linecap="round" transform="translate(719.125 243.2586580086587) rotate(0 5.5 5.5)"><path d="M5.5 0 C6.62 -0.07, 8.13 0.53, 9.04 1.29 C9.94 2.04, 10.71 3.38, 10.92 4.54 C11.12 5.71, 10.85 7.23, 10.26 8.25 C9.67 9.27, 8.49 10.27, 7.38 10.67 C6.27 11.07, 4.73 11.07, 3.62 10.67 C2.51 10.27, 1.33 9.27, 0.74 8.25 C0.15 7.23, -0.12 5.71, 0.08 4.54 C0.29 3.38, 1.06 2.04, 1.96 1.29 C2.87 0.53, 4.91 0.2, 5.5 0 C6.09 -0.2, 5.5 0.02, 5.5 0.11 M5.5 0 C6.62 -0.07, 8.13 0.53, 9.04 1.29 C9.94 2.04, 10.71 3.38, 10.92 4.54 C11.12 5.71, 10.85 7.23, 10.26 8.25 C9.67 9.27, 8.49 10.27, 7.38 10.67 C6.27 11.07, 4.73 11.07, 3.62 10.67 C2.51 10.27, 1.33 9.27, 0.74 8.25 C0.15 7.23, -0.12 5.71, 0.08 4.54 C0.29 3.38, 1.06 2.04, 1.96 1.29 C2.87 0.53, 4.91 0.2, 5.5 0 C6.09 -0.2, 5.5 0.02, 5.5 0.11" stroke="none" stroke-width="0" fill="#000"></path><path d="M5.5 0 C6.62 -0.07, 8.13 0.53, 9.04 1.29 C9.94 2.04, 10.71 3.38, 10.92 4.54 C11.12 5.71, 10.85 7.23, 10.26 8.25 C9.67 9.27, 8.49 10.27, 7.38 10.67 C6.27 11.07, 4.73 11.07, 3.62 10.67 C2.51 10.27, 1.33 9.27, 0.74 8.25 C0.15 7.23, -0.12 5.71, 0.08 4.54 C0.29 3.38, 1.06 2.04, 1.96 1.29 C2.87 0.53, 4.91 0.2, 5.5 0 C6.09 -0.2, 5.5 0.02, 5.5 0.11 M5.5 0 C6.62 -0.07, 8.13 0.53, 9.04 1.29 C9.94 2.04, 10.71 3.38, 10.92 4.54 C11.12 5.71, 10.85 7.23, 10.26 8.25 C9.67 9.27, 8.49 10.27, 7.38 10.67 C6.27 11.07, 4.73 11.07, 3.62 10.67 C2.51 10.27, 1.33 9.27, 0.74 8.25 C0.15 7.23, -0.12 5.71, 0.08 4.54 C0.29 3.38, 1.06 2.04, 1.96 1.29 C2.87 0.53, 4.91 0.2, 5.5 0 C6.09 -0.2, 5.5 0.02, 5.5 0.11" stroke="#000000" stroke-width="1" fill="none"></path></g><g stroke-linecap="round" transform="translate(644.75 308.25865800865876) rotate(0 5.5 5.5)"><path d="M5.5 0 C6.62 -0.07, 8.13 0.53, 9.04 1.29 C9.94 2.04, 10.71 3.38, 10.92 4.54 C11.12 5.71, 10.85 7.23, 10.26 8.25 C9.67 9.27, 8.49 10.27, 7.38 10.67 C6.27 11.07, 4.73 11.07, 3.62 10.67 C2.51 10.27, 1.33 9.27, 0.74 8.25 C0.15 7.23, -0.12 5.71, 0.08 4.54 C0.29 3.38, 1.06 2.04, 1.96 1.29 C2.87 0.53, 4.91 0.2, 5.5 0 C6.09 -0.2, 5.5 0.02, 5.5 0.11 M5.5 0 C6.62 -0.07, 8.13 0.53, 9.04 1.29 C9.94 2.04, 10.71 3.38, 10.92 4.54 C11.12 5.71, 10.85 7.23, 10.26 8.25 C9.67 9.27, 8.49 10.27, 7.38 10.67 C6.27 11.07, 4.73 11.07, 3.62 10.67 C2.51 10.27, 1.33 9.27, 0.74 8.25 C0.15 7.23, -0.12 5.71, 0.08 4.54 C0.29 3.38, 1.06 2.04, 1.96 1.29 C2.87 0.53, 4.91 0.2, 5.5 0 C6.09 -0.2, 5.5 0.02, 5.5 0.11" stroke="none" stroke-width="0" fill="#000"></path><path d="M5.5 0 C6.62 -0.07, 8.13 0.53, 9.04 1.29 C9.94 2.04, 10.71 3.38, 10.92 4.54 C11.12 5.71, 10.85 7.23, 10.26 8.25 C9.67 9.27, 8.49 10.27, 7.38 10.67 C6.27 11.07, 4.73 11.07, 3.62 10.67 C2.51 10.27, 1.33 9.27, 0.74 8.25 C0.15 7.23, -0.12 5.71, 0.08 4.54 C0.29 3.38, 1.06 2.04, 1.96 1.29 C2.87 0.53, 4.91 0.2, 5.5 0 C6.09 -0.2, 5.5 0.02, 5.5 0.11 M5.5 0 C6.62 -0.07, 8.13 0.53, 9.04 1.29 C9.94 2.04, 10.71 3.38, 10.92 4.54 C11.12 5.71, 10.85 7.23, 10.26 8.25 C9.67 9.27, 8.49 10.27, 7.38 10.67 C6.27 11.07, 4.73 11.07, 3.62 10.67 C2.51 10.27, 1.33 9.27, 0.74 8.25 C0.15 7.23, -0.12 5.71, 0.08 4.54 C0.29 3.38, 1.06 2.04, 1.96 1.29 C2.87 0.53, 4.91 0.2, 5.5 0 C6.09 -0.2, 5.5 0.02, 5.5 0.11" stroke="#000000" stroke-width="1" fill="none"></path></g><g stroke-linecap="round" transform="translate(673.625 308.25865800865876) rotate(0 5.5 5.5)"><path d="M5.5 0 C6.62 -0.07, 8.13 0.53, 9.04 1.29 C9.94 2.04, 10.71 3.38, 10.92 4.54 C11.12 5.71, 10.85 7.23, 10.26 8.25 C9.67 9.27, 8.49 10.27, 7.38 10.67 C6.27 11.07, 4.73 11.07, 3.62 10.67 C2.51 10.27, 1.33 9.27, 0.74 8.25 C0.15 7.23, -0.12 5.71, 0.08 4.54 C0.29 3.38, 1.06 2.04, 1.96 1.29 C2.87 0.53, 4.91 0.2, 5.5 0 C6.09 -0.2, 5.5 0.02, 5.5 0.11 M5.5 0 C6.62 -0.07, 8.13 0.53, 9.04 1.29 C9.94 2.04, 10.71 3.38, 10.92 4.54 C11.12 5.71, 10.85 7.23, 10.26 8.25 C9.67 9.27, 8.49 10.27, 7.38 10.67 C6.27 11.07, 4.73 11.07, 3.62 10.67 C2.51 10.27, 1.33 9.27, 0.74 8.25 C0.15 7.23, -0.12 5.71, 0.08 4.54 C0.29 3.38, 1.06 2.04, 1.96 1.29 C2.87 0.53, 4.91 0.2, 5.5 0 C6.09 -0.2, 5.5 0.02, 5.5 0.11" stroke="none" stroke-width="0" fill="#000"></path><path d="M5.5 0 C6.62 -0.07, 8.13 0.53, 9.04 1.29 C9.94 2.04, 10.71 3.38, 10.92 4.54 C11.12 5.71, 10.85 7.23, 10.26 8.25 C9.67 9.27, 8.49 10.27, 7.38 10.67 C6.27 11.07, 4.73 11.07, 3.62 10.67 C2.51 10.27, 1.33 9.27, 0.74 8.25 C0.15 7.23, -0.12 5.71, 0.08 4.54 C0.29 3.38, 1.06 2.04, 1.96 1.29 C2.87 0.53, 4.91 0.2, 5.5 0 C6.09 -0.2, 5.5 0.02, 5.5 0.11 M5.5 0 C6.62 -0.07, 8.13 0.53, 9.04 1.29 C9.94 2.04, 10.71 3.38, 10.92 4.54 C11.12 5.71, 10.85 7.23, 10.26 8.25 C9.67 9.27, 8.49 10.27, 7.38 10.67 C6.27 11.07, 4.73 11.07, 3.62 10.67 C2.51 10.27, 1.33 9.27, 0.74 8.25 C0.15 7.23, -0.12 5.71, 0.08 4.54 C0.29 3.38, 1.06 2.04, 1.96 1.29 C2.87 0.53, 4.91 0.2, 5.5 0 C6.09 -0.2, 5.5 0.02, 5.5 0.11" stroke="#000000" stroke-width="1" fill="none"></path></g><g stroke-linecap="round" transform="translate(743.5 243.2586580086587) rotate(0 5.5 5.5)"><path d="M5.5 0 C6.62 -0.07, 8.13 0.53, 9.04 1.29 C9.94 2.04, 10.71 3.38, 10.92 4.54 C11.12 5.71, 10.85 7.23, 10.26 8.25 C9.67 9.27, 8.49 10.27, 7.38 10.67 C6.27 11.07, 4.73 11.07, 3.62 10.67 C2.51 10.27, 1.33 9.27, 0.74 8.25 C0.15 7.23, -0.12 5.71, 0.08 4.54 C0.29 3.38, 1.06 2.04, 1.96 1.29 C2.87 0.53, 4.91 0.2, 5.5 0 C6.09 -0.2, 5.5 0.02, 5.5 0.11 M5.5 0 C6.62 -0.07, 8.13 0.53, 9.04 1.29 C9.94 2.04, 10.71 3.38, 10.92 4.54 C11.12 5.71, 10.85 7.23, 10.26 8.25 C9.67 9.27, 8.49 10.27, 7.38 10.67 C6.27 11.07, 4.73 11.07, 3.62 10.67 C2.51 10.27, 1.33 9.27, 0.74 8.25 C0.15 7.23, -0.12 5.71, 0.08 4.54 C0.29 3.38, 1.06 2.04, 1.96 1.29 C2.87 0.53, 4.91 0.2, 5.5 0 C6.09 -0.2, 5.5 0.02, 5.5 0.11" stroke="none" stroke-width="0" fill="#000"></path><path d="M5.5 0 C6.62 -0.07, 8.13 0.53, 9.04 1.29 C9.94 2.04, 10.71 3.38, 10.92 4.54 C11.12 5.71, 10.85 7.23, 10.26 8.25 C9.67 9.27, 8.49 10.27, 7.38 10.67 C6.27 11.07, 4.73 11.07, 3.62 10.67 C2.51 10.27, 1.33 9.27, 0.74 8.25 C0.15 7.23, -0.12 5.71, 0.08 4.54 C0.29 3.38, 1.06 2.04, 1.96 1.29 C2.87 0.53, 4.91 0.2, 5.5 0 C6.09 -0.2, 5.5 0.02, 5.5 0.11 M5.5 0 C6.62 -0.07, 8.13 0.53, 9.04 1.29 C9.94 2.04, 10.71 3.38, 10.92 4.54 C11.12 5.71, 10.85 7.23, 10.26 8.25 C9.67 9.27, 8.49 10.27, 7.38 10.67 C6.27 11.07, 4.73 11.07, 3.62 10.67 C2.51 10.27, 1.33 9.27, 0.74 8.25 C0.15 7.23, -0.12 5.71, 0.08 4.54 C0.29 3.38, 1.06 2.04, 1.96 1.29 C2.87 0.53, 4.91 0.2, 5.5 0 C6.09 -0.2, 5.5 0.02, 5.5 0.11" stroke="#000000" stroke-width="1" fill="none"></path></g><g stroke-linecap="round" transform="translate(702.5 308.25865800865876) rotate(0 5.5 5.5)"><path d="M5.5 0 C6.62 -0.07, 8.13 0.53, 9.04 1.29 C9.94 2.04, 10.71 3.38, 10.92 4.54 C11.12 5.71, 10.85 7.23, 10.26 8.25 C9.67 9.27, 8.49 10.27, 7.38 10.67 C6.27 11.07, 4.73 11.07, 3.62 10.67 C2.51 10.27, 1.33 9.27, 0.74 8.25 C0.15 7.23, -0.12 5.71, 0.08 4.54 C0.29 3.38, 1.06 2.04, 1.96 1.29 C2.87 0.53, 4.91 0.2, 5.5 0 C6.09 -0.2, 5.5 0.02, 5.5 0.11 M5.5 0 C6.62 -0.07, 8.13 0.53, 9.04 1.29 C9.94 2.04, 10.71 3.38, 10.92 4.54 C11.12 5.71, 10.85 7.23, 10.26 8.25 C9.67 9.27, 8.49 10.27, 7.38 10.67 C6.27 11.07, 4.73 11.07, 3.62 10.67 C2.51 10.27, 1.33 9.27, 0.74 8.25 C0.15 7.23, -0.12 5.71, 0.08 4.54 C0.29 3.38, 1.06 2.04, 1.96 1.29 C2.87 0.53, 4.91 0.2, 5.5 0 C6.09 -0.2, 5.5 0.02, 5.5 0.11" stroke="none" stroke-width="0" fill="#000"></path><path d="M5.5 0 C6.62 -0.07, 8.13 0.53, 9.04 1.29 C9.94 2.04, 10.71 3.38, 10.92 4.54 C11.12 5.71, 10.85 7.23, 10.26 8.25 C9.67 9.27, 8.49 10.27, 7.38 10.67 C6.27 11.07, 4.73 11.07, 3.62 10.67 C2.51 10.27, 1.33 9.27, 0.74 8.25 C0.15 7.23, -0.12 5.71, 0.08 4.54 C0.29 3.38, 1.06 2.04, 1.96 1.29 C2.87 0.53, 4.91 0.2, 5.5 0 C6.09 -0.2, 5.5 0.02, 5.5 0.11 M5.5 0 C6.62 -0.07, 8.13 0.53, 9.04 1.29 C9.94 2.04, 10.71 3.38, 10.92 4.54 C11.12 5.71, 10.85 7.23, 10.26 8.25 C9.67 9.27, 8.49 10.27, 7.38 10.67 C6.27 11.07, 4.73 11.07, 3.62 10.67 C2.51 10.27, 1.33 9.27, 0.74 8.25 C0.15 7.23, -0.12 5.71, 0.08 4.54 C0.29 3.38, 1.06 2.04, 1.96 1.29 C2.87 0.53, 4.91 0.2, 5.5 0 C6.09 -0.2, 5.5 0.02, 5.5 0.11" stroke="#000000" stroke-width="1" fill="none"></path></g><g stroke-linecap="round" transform="translate(646.75 263.75865800865876) rotate(0 5.5 5.5)"><path d="M5.5 0 C6.62 -0.07, 8.13 0.53, 9.04 1.29 C9.94 2.04, 10.71 3.38, 10.92 4.54 C11.12 5.71, 10.85 7.23, 10.26 8.25 C9.67 9.27, 8.49 10.27, 7.38 10.67 C6.27 11.07, 4.73 11.07, 3.62 10.67 C2.51 10.27, 1.33 9.27, 0.74 8.25 C0.15 7.23, -0.12 5.71, 0.08 4.54 C0.29 3.38, 1.06 2.04, 1.96 1.29 C2.87 0.53, 4.91 0.2, 5.5 0 C6.09 -0.2, 5.5 0.02, 5.5 0.11 M5.5 0 C6.62 -0.07, 8.13 0.53, 9.04 1.29 C9.94 2.04, 10.71 3.38, 10.92 4.54 C11.12 5.71, 10.85 7.23, 10.26 8.25 C9.67 9.27, 8.49 10.27, 7.38 10.67 C6.27 11.07, 4.73 11.07, 3.62 10.67 C2.51 10.27, 1.33 9.27, 0.74 8.25 C0.15 7.23, -0.12 5.71, 0.08 4.54 C0.29 3.38, 1.06 2.04, 1.96 1.29 C2.87 0.53, 4.91 0.2, 5.5 0 C6.09 -0.2, 5.5 0.02, 5.5 0.11" stroke="none" stroke-width="0" fill="#000"></path><path d="M5.5 0 C6.62 -0.07, 8.13 0.53, 9.04 1.29 C9.94 2.04, 10.71 3.38, 10.92 4.54 C11.12 5.71, 10.85 7.23, 10.26 8.25 C9.67 9.27, 8.49 10.27, 7.38 10.67 C6.27 11.07, 4.73 11.07, 3.62 10.67 C2.51 10.27, 1.33 9.27, 0.74 8.25 C0.15 7.23, -0.12 5.71, 0.08 4.54 C0.29 3.38, 1.06 2.04, 1.96 1.29 C2.87 0.53, 4.91 0.2, 5.5 0 C6.09 -0.2, 5.5 0.02, 5.5 0.11 M5.5 0 C6.62 -0.07, 8.13 0.53, 9.04 1.29 C9.94 2.04, 10.71 3.38, 10.92 4.54 C11.12 5.71, 10.85 7.23, 10.26 8.25 C9.67 9.27, 8.49 10.27, 7.38 10.67 C6.27 11.07, 4.73 11.07, 3.62 10.67 C2.51 10.27, 1.33 9.27, 0.74 8.25 C0.15 7.23, -0.12 5.71, 0.08 4.54 C0.29 3.38, 1.06 2.04, 1.96 1.29 C2.87 0.53, 4.91 0.2, 5.5 0 C6.09 -0.2, 5.5 0.02, 5.5 0.11" stroke="#000000" stroke-width="1" fill="none"></path></g><g stroke-linecap="round" transform="translate(671.125 263.75865800865876) rotate(0 5.5 5.5)"><path d="M5.5 0 C6.62 -0.07, 8.13 0.53, 9.04 1.29 C9.94 2.04, 10.71 3.38, 10.92 4.54 C11.12 5.71, 10.85 7.23, 10.26 8.25 C9.67 9.27, 8.49 10.27, 7.38 10.67 C6.27 11.07, 4.73 11.07, 3.62 10.67 C2.51 10.27, 1.33 9.27, 0.74 8.25 C0.15 7.23, -0.12 5.71, 0.08 4.54 C0.29 3.38, 1.06 2.04, 1.96 1.29 C2.87 0.53, 4.91 0.2, 5.5 0 C6.09 -0.2, 5.5 0.02, 5.5 0.11 M5.5 0 C6.62 -0.07, 8.13 0.53, 9.04 1.29 C9.94 2.04, 10.71 3.38, 10.92 4.54 C11.12 5.71, 10.85 7.23, 10.26 8.25 C9.67 9.27, 8.49 10.27, 7.38 10.67 C6.27 11.07, 4.73 11.07, 3.62 10.67 C2.51 10.27, 1.33 9.27, 0.74 8.25 C0.15 7.23, -0.12 5.71, 0.08 4.54 C0.29 3.38, 1.06 2.04, 1.96 1.29 C2.87 0.53, 4.91 0.2, 5.5 0 C6.09 -0.2, 5.5 0.02, 5.5 0.11" stroke="none" stroke-width="0" fill="#000"></path><path d="M5.5 0 C6.62 -0.07, 8.13 0.53, 9.04 1.29 C9.94 2.04, 10.71 3.38, 10.92 4.54 C11.12 5.71, 10.85 7.23, 10.26 8.25 C9.67 9.27, 8.49 10.27, 7.38 10.67 C6.27 11.07, 4.73 11.07, 3.62 10.67 C2.51 10.27, 1.33 9.27, 0.74 8.25 C0.15 7.23, -0.12 5.71, 0.08 4.54 C0.29 3.38, 1.06 2.04, 1.96 1.29 C2.87 0.53, 4.91 0.2, 5.5 0 C6.09 -0.2, 5.5 0.02, 5.5 0.11 M5.5 0 C6.62 -0.07, 8.13 0.53, 9.04 1.29 C9.94 2.04, 10.71 3.38, 10.92 4.54 C11.12 5.71, 10.85 7.23, 10.26 8.25 C9.67 9.27, 8.49 10.27, 7.38 10.67 C6.27 11.07, 4.73 11.07, 3.62 10.67 C2.51 10.27, 1.33 9.27, 0.74 8.25 C0.15 7.23, -0.12 5.71, 0.08 4.54 C0.29 3.38, 1.06 2.04, 1.96 1.29 C2.87 0.53, 4.91 0.2, 5.5 0 C6.09 -0.2, 5.5 0.02, 5.5 0.11" stroke="#000000" stroke-width="1" fill="none"></path></g><g stroke-linecap="round" transform="translate(641.75 372.75865800865876) rotate(0 5.5 5.5)"><path d="M5.5 0 C6.62 -0.07, 8.13 0.53, 9.04 1.29 C9.94 2.04, 10.71 3.38, 10.92 4.54 C11.12 5.71, 10.85 7.23, 10.26 8.25 C9.67 9.27, 8.49 10.27, 7.38 10.67 C6.27 11.07, 4.73 11.07, 3.62 10.67 C2.51 10.27, 1.33 9.27, 0.74 8.25 C0.15 7.23, -0.12 5.71, 0.08 4.54 C0.29 3.38, 1.06 2.04, 1.96 1.29 C2.87 0.53, 4.91 0.2, 5.5 0 C6.09 -0.2, 5.5 0.02, 5.5 0.11 M5.5 0 C6.62 -0.07, 8.13 0.53, 9.04 1.29 C9.94 2.04, 10.71 3.38, 10.92 4.54 C11.12 5.71, 10.85 7.23, 10.26 8.25 C9.67 9.27, 8.49 10.27, 7.38 10.67 C6.27 11.07, 4.73 11.07, 3.62 10.67 C2.51 10.27, 1.33 9.27, 0.74 8.25 C0.15 7.23, -0.12 5.71, 0.08 4.54 C0.29 3.38, 1.06 2.04, 1.96 1.29 C2.87 0.53, 4.91 0.2, 5.5 0 C6.09 -0.2, 5.5 0.02, 5.5 0.11" stroke="none" stroke-width="0" fill="#000"></path><path d="M5.5 0 C6.62 -0.07, 8.13 0.53, 9.04 1.29 C9.94 2.04, 10.71 3.38, 10.92 4.54 C11.12 5.71, 10.85 7.23, 10.26 8.25 C9.67 9.27, 8.49 10.27, 7.38 10.67 C6.27 11.07, 4.73 11.07, 3.62 10.67 C2.51 10.27, 1.33 9.27, 0.74 8.25 C0.15 7.23, -0.12 5.71, 0.08 4.54 C0.29 3.38, 1.06 2.04, 1.96 1.29 C2.87 0.53, 4.91 0.2, 5.5 0 C6.09 -0.2, 5.5 0.02, 5.5 0.11 M5.5 0 C6.62 -0.07, 8.13 0.53, 9.04 1.29 C9.94 2.04, 10.71 3.38, 10.92 4.54 C11.12 5.71, 10.85 7.23, 10.26 8.25 C9.67 9.27, 8.49 10.27, 7.38 10.67 C6.27 11.07, 4.73 11.07, 3.62 10.67 C2.51 10.27, 1.33 9.27, 0.74 8.25 C0.15 7.23, -0.12 5.71, 0.08 4.54 C0.29 3.38, 1.06 2.04, 1.96 1.29 C2.87 0.53, 4.91 0.2, 5.5 0 C6.09 -0.2, 5.5 0.02, 5.5 0.11" stroke="#000000" stroke-width="1" fill="none"></path></g><g stroke-linecap="round" transform="translate(690.5 372.75865800865876) rotate(0 5.5 5.5)"><path d="M5.5 0 C6.62 -0.07, 8.13 0.53, 9.04 1.29 C9.94 2.04, 10.71 3.38, 10.92 4.54 C11.12 5.71, 10.85 7.23, 10.26 8.25 C9.67 9.27, 8.49 10.27, 7.38 10.67 C6.27 11.07, 4.73 11.07, 3.62 10.67 C2.51 10.27, 1.33 9.27, 0.74 8.25 C0.15 7.23, -0.12 5.71, 0.08 4.54 C0.29 3.38, 1.06 2.04, 1.96 1.29 C2.87 0.53, 4.91 0.2, 5.5 0 C6.09 -0.2, 5.5 0.02, 5.5 0.11 M5.5 0 C6.62 -0.07, 8.13 0.53, 9.04 1.29 C9.94 2.04, 10.71 3.38, 10.92 4.54 C11.12 5.71, 10.85 7.23, 10.26 8.25 C9.67 9.27, 8.49 10.27, 7.38 10.67 C6.27 11.07, 4.73 11.07, 3.62 10.67 C2.51 10.27, 1.33 9.27, 0.74 8.25 C0.15 7.23, -0.12 5.71, 0.08 4.54 C0.29 3.38, 1.06 2.04, 1.96 1.29 C2.87 0.53, 4.91 0.2, 5.5 0 C6.09 -0.2, 5.5 0.02, 5.5 0.11" stroke="none" stroke-width="0" fill="#000"></path><path d="M5.5 0 C6.62 -0.07, 8.13 0.53, 9.04 1.29 C9.94 2.04, 10.71 3.38, 10.92 4.54 C11.12 5.71, 10.85 7.23, 10.26 8.25 C9.67 9.27, 8.49 10.27, 7.38 10.67 C6.27 11.07, 4.73 11.07, 3.62 10.67 C2.51 10.27, 1.33 9.27, 0.74 8.25 C0.15 7.23, -0.12 5.71, 0.08 4.54 C0.29 3.38, 1.06 2.04, 1.96 1.29 C2.87 0.53, 4.91 0.2, 5.5 0 C6.09 -0.2, 5.5 0.02, 5.5 0.11 M5.5 0 C6.62 -0.07, 8.13 0.53, 9.04 1.29 C9.94 2.04, 10.71 3.38, 10.92 4.54 C11.12 5.71, 10.85 7.23, 10.26 8.25 C9.67 9.27, 8.49 10.27, 7.38 10.67 C6.27 11.07, 4.73 11.07, 3.62 10.67 C2.51 10.27, 1.33 9.27, 0.74 8.25 C0.15 7.23, -0.12 5.71, 0.08 4.54 C0.29 3.38, 1.06 2.04, 1.96 1.29 C2.87 0.53, 4.91 0.2, 5.5 0 C6.09 -0.2, 5.5 0.02, 5.5 0.11" stroke="#000000" stroke-width="1" fill="none"></path></g><g stroke-linecap="round" transform="translate(666.125 372.75865800865876) rotate(0 5.5 5.5)"><path d="M5.5 0 C6.62 -0.07, 8.13 0.53, 9.04 1.29 C9.94 2.04, 10.71 3.38, 10.92 4.54 C11.12 5.71, 10.85 7.23, 10.26 8.25 C9.67 9.27, 8.49 10.27, 7.38 10.67 C6.27 11.07, 4.73 11.07, 3.62 10.67 C2.51 10.27, 1.33 9.27, 0.74 8.25 C0.15 7.23, -0.12 5.71, 0.08 4.54 C0.29 3.38, 1.06 2.04, 1.96 1.29 C2.87 0.53, 4.91 0.2, 5.5 0 C6.09 -0.2, 5.5 0.02, 5.5 0.11 M5.5 0 C6.62 -0.07, 8.13 0.53, 9.04 1.29 C9.94 2.04, 10.71 3.38, 10.92 4.54 C11.12 5.71, 10.85 7.23, 10.26 8.25 C9.67 9.27, 8.49 10.27, 7.38 10.67 C6.27 11.07, 4.73 11.07, 3.62 10.67 C2.51 10.27, 1.33 9.27, 0.74 8.25 C0.15 7.23, -0.12 5.71, 0.08 4.54 C0.29 3.38, 1.06 2.04, 1.96 1.29 C2.87 0.53, 4.91 0.2, 5.5 0 C6.09 -0.2, 5.5 0.02, 5.5 0.11" stroke="none" stroke-width="0" fill="#000"></path><path d="M5.5 0 C6.62 -0.07, 8.13 0.53, 9.04 1.29 C9.94 2.04, 10.71 3.38, 10.92 4.54 C11.12 5.71, 10.85 7.23, 10.26 8.25 C9.67 9.27, 8.49 10.27, 7.38 10.67 C6.27 11.07, 4.73 11.07, 3.62 10.67 C2.51 10.27, 1.33 9.27, 0.74 8.25 C0.15 7.23, -0.12 5.71, 0.08 4.54 C0.29 3.38, 1.06 2.04, 1.96 1.29 C2.87 0.53, 4.91 0.2, 5.5 0 C6.09 -0.2, 5.5 0.02, 5.5 0.11 M5.5 0 C6.62 -0.07, 8.13 0.53, 9.04 1.29 C9.94 2.04, 10.71 3.38, 10.92 4.54 C11.12 5.71, 10.85 7.23, 10.26 8.25 C9.67 9.27, 8.49 10.27, 7.38 10.67 C6.27 11.07, 4.73 11.07, 3.62 10.67 C2.51 10.27, 1.33 9.27, 0.74 8.25 C0.15 7.23, -0.12 5.71, 0.08 4.54 C0.29 3.38, 1.06 2.04, 1.96 1.29 C2.87 0.53, 4.91 0.2, 5.5 0 C6.09 -0.2, 5.5 0.02, 5.5 0.11" stroke="#000000" stroke-width="1" fill="none"></path></g><g stroke-linecap="round" transform="translate(714.875 372.75865800865876) rotate(0 5.5 5.5)"><path d="M5.5 0 C6.62 -0.07, 8.13 0.53, 9.04 1.29 C9.94 2.04, 10.71 3.38, 10.92 4.54 C11.12 5.71, 10.85 7.23, 10.26 8.25 C9.67 9.27, 8.49 10.27, 7.38 10.67 C6.27 11.07, 4.73 11.07, 3.62 10.67 C2.51 10.27, 1.33 9.27, 0.74 8.25 C0.15 7.23, -0.12 5.71, 0.08 4.54 C0.29 3.38, 1.06 2.04, 1.96 1.29 C2.87 0.53, 4.91 0.2, 5.5 0 C6.09 -0.2, 5.5 0.02, 5.5 0.11 M5.5 0 C6.62 -0.07, 8.13 0.53, 9.04 1.29 C9.94 2.04, 10.71 3.38, 10.92 4.54 C11.12 5.71, 10.85 7.23, 10.26 8.25 C9.67 9.27, 8.49 10.27, 7.38 10.67 C6.27 11.07, 4.73 11.07, 3.62 10.67 C2.51 10.27, 1.33 9.27, 0.74 8.25 C0.15 7.23, -0.12 5.71, 0.08 4.54 C0.29 3.38, 1.06 2.04, 1.96 1.29 C2.87 0.53, 4.91 0.2, 5.5 0 C6.09 -0.2, 5.5 0.02, 5.5 0.11" stroke="none" stroke-width="0" fill="#000"></path><path d="M5.5 0 C6.62 -0.07, 8.13 0.53, 9.04 1.29 C9.94 2.04, 10.71 3.38, 10.92 4.54 C11.12 5.71, 10.85 7.23, 10.26 8.25 C9.67 9.27, 8.49 10.27, 7.38 10.67 C6.27 11.07, 4.73 11.07, 3.62 10.67 C2.51 10.27, 1.33 9.27, 0.74 8.25 C0.15 7.23, -0.12 5.71, 0.08 4.54 C0.29 3.38, 1.06 2.04, 1.96 1.29 C2.87 0.53, 4.91 0.2, 5.5 0 C6.09 -0.2, 5.5 0.02, 5.5 0.11 M5.5 0 C6.62 -0.07, 8.13 0.53, 9.04 1.29 C9.94 2.04, 10.71 3.38, 10.92 4.54 C11.12 5.71, 10.85 7.23, 10.26 8.25 C9.67 9.27, 8.49 10.27, 7.38 10.67 C6.27 11.07, 4.73 11.07, 3.62 10.67 C2.51 10.27, 1.33 9.27, 0.74 8.25 C0.15 7.23, -0.12 5.71, 0.08 4.54 C0.29 3.38, 1.06 2.04, 1.96 1.29 C2.87 0.53, 4.91 0.2, 5.5 0 C6.09 -0.2, 5.5 0.02, 5.5 0.11" stroke="#000000" stroke-width="1" fill="none"></path></g><g stroke-linecap="round" transform="translate(739.25 372.75865800865876) rotate(0 5.5 5.5)"><path d="M5.5 0 C6.62 -0.07, 8.13 0.53, 9.04 1.29 C9.94 2.04, 10.71 3.38, 10.92 4.54 C11.12 5.71, 10.85 7.23, 10.26 8.25 C9.67 9.27, 8.49 10.27, 7.38 10.67 C6.27 11.07, 4.73 11.07, 3.62 10.67 C2.51 10.27, 1.33 9.27, 0.74 8.25 C0.15 7.23, -0.12 5.71, 0.08 4.54 C0.29 3.38, 1.06 2.04, 1.96 1.29 C2.87 0.53, 4.91 0.2, 5.5 0 C6.09 -0.2, 5.5 0.02, 5.5 0.11 M5.5 0 C6.62 -0.07, 8.13 0.53, 9.04 1.29 C9.94 2.04, 10.71 3.38, 10.92 4.54 C11.12 5.71, 10.85 7.23, 10.26 8.25 C9.67 9.27, 8.49 10.27, 7.38 10.67 C6.27 11.07, 4.73 11.07, 3.62 10.67 C2.51 10.27, 1.33 9.27, 0.74 8.25 C0.15 7.23, -0.12 5.71, 0.08 4.54 C0.29 3.38, 1.06 2.04, 1.96 1.29 C2.87 0.53, 4.91 0.2, 5.5 0 C6.09 -0.2, 5.5 0.02, 5.5 0.11" stroke="none" stroke-width="0" fill="#000"></path><path d="M5.5 0 C6.62 -0.07, 8.13 0.53, 9.04 1.29 C9.94 2.04, 10.71 3.38, 10.92 4.54 C11.12 5.71, 10.85 7.23, 10.26 8.25 C9.67 9.27, 8.49 10.27, 7.38 10.67 C6.27 11.07, 4.73 11.07, 3.62 10.67 C2.51 10.27, 1.33 9.27, 0.74 8.25 C0.15 7.23, -0.12 5.71, 0.08 4.54 C0.29 3.38, 1.06 2.04, 1.96 1.29 C2.87 0.53, 4.91 0.2, 5.5 0 C6.09 -0.2, 5.5 0.02, 5.5 0.11 M5.5 0 C6.62 -0.07, 8.13 0.53, 9.04 1.29 C9.94 2.04, 10.71 3.38, 10.92 4.54 C11.12 5.71, 10.85 7.23, 10.26 8.25 C9.67 9.27, 8.49 10.27, 7.38 10.67 C6.27 11.07, 4.73 11.07, 3.62 10.67 C2.51 10.27, 1.33 9.27, 0.74 8.25 C0.15 7.23, -0.12 5.71, 0.08 4.54 C0.29 3.38, 1.06 2.04, 1.96 1.29 C2.87 0.53, 4.91 0.2, 5.5 0 C6.09 -0.2, 5.5 0.02, 5.5 0.11" stroke="#000000" stroke-width="1" fill="none"></path></g><g stroke-linecap="round" transform="translate(643.75 399.75865800865876) rotate(0 5.5 5.5)"><path d="M5.5 0 C6.62 -0.07, 8.13 0.53, 9.04 1.29 C9.94 2.04, 10.71 3.38, 10.92 4.54 C11.12 5.71, 10.85 7.23, 10.26 8.25 C9.67 9.27, 8.49 10.27, 7.38 10.67 C6.27 11.07, 4.73 11.07, 3.62 10.67 C2.51 10.27, 1.33 9.27, 0.74 8.25 C0.15 7.23, -0.12 5.71, 0.08 4.54 C0.29 3.38, 1.06 2.04, 1.96 1.29 C2.87 0.53, 4.91 0.2, 5.5 0 C6.09 -0.2, 5.5 0.02, 5.5 0.11 M5.5 0 C6.62 -0.07, 8.13 0.53, 9.04 1.29 C9.94 2.04, 10.71 3.38, 10.92 4.54 C11.12 5.71, 10.85 7.23, 10.26 8.25 C9.67 9.27, 8.49 10.27, 7.38 10.67 C6.27 11.07, 4.73 11.07, 3.62 10.67 C2.51 10.27, 1.33 9.27, 0.74 8.25 C0.15 7.23, -0.12 5.71, 0.08 4.54 C0.29 3.38, 1.06 2.04, 1.96 1.29 C2.87 0.53, 4.91 0.2, 5.5 0 C6.09 -0.2, 5.5 0.02, 5.5 0.11" stroke="none" stroke-width="0" fill="#000"></path><path d="M5.5 0 C6.62 -0.07, 8.13 0.53, 9.04 1.29 C9.94 2.04, 10.71 3.38, 10.92 4.54 C11.12 5.71, 10.85 7.23, 10.26 8.25 C9.67 9.27, 8.49 10.27, 7.38 10.67 C6.27 11.07, 4.73 11.07, 3.62 10.67 C2.51 10.27, 1.33 9.27, 0.74 8.25 C0.15 7.23, -0.12 5.71, 0.08 4.54 C0.29 3.38, 1.06 2.04, 1.96 1.29 C2.87 0.53, 4.91 0.2, 5.5 0 C6.09 -0.2, 5.5 0.02, 5.5 0.11 M5.5 0 C6.62 -0.07, 8.13 0.53, 9.04 1.29 C9.94 2.04, 10.71 3.38, 10.92 4.54 C11.12 5.71, 10.85 7.23, 10.26 8.25 C9.67 9.27, 8.49 10.27, 7.38 10.67 C6.27 11.07, 4.73 11.07, 3.62 10.67 C2.51 10.27, 1.33 9.27, 0.74 8.25 C0.15 7.23, -0.12 5.71, 0.08 4.54 C0.29 3.38, 1.06 2.04, 1.96 1.29 C2.87 0.53, 4.91 0.2, 5.5 0 C6.09 -0.2, 5.5 0.02, 5.5 0.11" stroke="#000000" stroke-width="1" fill="none"></path></g><g stroke-linecap="round" transform="translate(692.5 399.75865800865876) rotate(0 5.5 5.5)"><path d="M5.5 0 C6.62 -0.07, 8.13 0.53, 9.04 1.29 C9.94 2.04, 10.71 3.38, 10.92 4.54 C11.12 5.71, 10.85 7.23, 10.26 8.25 C9.67 9.27, 8.49 10.27, 7.38 10.67 C6.27 11.07, 4.73 11.07, 3.62 10.67 C2.51 10.27, 1.33 9.27, 0.74 8.25 C0.15 7.23, -0.12 5.71, 0.08 4.54 C0.29 3.38, 1.06 2.04, 1.96 1.29 C2.87 0.53, 4.91 0.2, 5.5 0 C6.09 -0.2, 5.5 0.02, 5.5 0.11 M5.5 0 C6.62 -0.07, 8.13 0.53, 9.04 1.29 C9.94 2.04, 10.71 3.38, 10.92 4.54 C11.12 5.71, 10.85 7.23, 10.26 8.25 C9.67 9.27, 8.49 10.27, 7.38 10.67 C6.27 11.07, 4.73 11.07, 3.62 10.67 C2.51 10.27, 1.33 9.27, 0.74 8.25 C0.15 7.23, -0.12 5.71, 0.08 4.54 C0.29 3.38, 1.06 2.04, 1.96 1.29 C2.87 0.53, 4.91 0.2, 5.5 0 C6.09 -0.2, 5.5 0.02, 5.5 0.11" stroke="none" stroke-width="0" fill="#000"></path><path d="M5.5 0 C6.62 -0.07, 8.13 0.53, 9.04 1.29 C9.94 2.04, 10.71 3.38, 10.92 4.54 C11.12 5.71, 10.85 7.23, 10.26 8.25 C9.67 9.27, 8.49 10.27, 7.38 10.67 C6.27 11.07, 4.73 11.07, 3.62 10.67 C2.51 10.27, 1.33 9.27, 0.74 8.25 C0.15 7.23, -0.12 5.71, 0.08 4.54 C0.29 3.38, 1.06 2.04, 1.96 1.29 C2.87 0.53, 4.91 0.2, 5.5 0 C6.09 -0.2, 5.5 0.02, 5.5 0.11 M5.5 0 C6.62 -0.07, 8.13 0.53, 9.04 1.29 C9.94 2.04, 10.71 3.38, 10.92 4.54 C11.12 5.71, 10.85 7.23, 10.26 8.25 C9.67 9.27, 8.49 10.27, 7.38 10.67 C6.27 11.07, 4.73 11.07, 3.62 10.67 C2.51 10.27, 1.33 9.27, 0.74 8.25 C0.15 7.23, -0.12 5.71, 0.08 4.54 C0.29 3.38, 1.06 2.04, 1.96 1.29 C2.87 0.53, 4.91 0.2, 5.5 0 C6.09 -0.2, 5.5 0.02, 5.5 0.11" stroke="#000000" stroke-width="1" fill="none"></path></g><g stroke-linecap="round" transform="translate(668.125 399.75865800865876) rotate(0 5.5 5.5)"><path d="M5.5 0 C6.62 -0.07, 8.13 0.53, 9.04 1.29 C9.94 2.04, 10.71 3.38, 10.92 4.54 C11.12 5.71, 10.85 7.23, 10.26 8.25 C9.67 9.27, 8.49 10.27, 7.38 10.67 C6.27 11.07, 4.73 11.07, 3.62 10.67 C2.51 10.27, 1.33 9.27, 0.74 8.25 C0.15 7.23, -0.12 5.71, 0.08 4.54 C0.29 3.38, 1.06 2.04, 1.96 1.29 C2.87 0.53, 4.91 0.2, 5.5 0 C6.09 -0.2, 5.5 0.02, 5.5 0.11 M5.5 0 C6.62 -0.07, 8.13 0.53, 9.04 1.29 C9.94 2.04, 10.71 3.38, 10.92 4.54 C11.12 5.71, 10.85 7.23, 10.26 8.25 C9.67 9.27, 8.49 10.27, 7.38 10.67 C6.27 11.07, 4.73 11.07, 3.62 10.67 C2.51 10.27, 1.33 9.27, 0.74 8.25 C0.15 7.23, -0.12 5.71, 0.08 4.54 C0.29 3.38, 1.06 2.04, 1.96 1.29 C2.87 0.53, 4.91 0.2, 5.5 0 C6.09 -0.2, 5.5 0.02, 5.5 0.11" stroke="none" stroke-width="0" fill="#000"></path><path d="M5.5 0 C6.62 -0.07, 8.13 0.53, 9.04 1.29 C9.94 2.04, 10.71 3.38, 10.92 4.54 C11.12 5.71, 10.85 7.23, 10.26 8.25 C9.67 9.27, 8.49 10.27, 7.38 10.67 C6.27 11.07, 4.73 11.07, 3.62 10.67 C2.51 10.27, 1.33 9.27, 0.74 8.25 C0.15 7.23, -0.12 5.71, 0.08 4.54 C0.29 3.38, 1.06 2.04, 1.96 1.29 C2.87 0.53, 4.91 0.2, 5.5 0 C6.09 -0.2, 5.5 0.02, 5.5 0.11 M5.5 0 C6.62 -0.07, 8.13 0.53, 9.04 1.29 C9.94 2.04, 10.71 3.38, 10.92 4.54 C11.12 5.71, 10.85 7.23, 10.26 8.25 C9.67 9.27, 8.49 10.27, 7.38 10.67 C6.27 11.07, 4.73 11.07, 3.62 10.67 C2.51 10.27, 1.33 9.27, 0.74 8.25 C0.15 7.23, -0.12 5.71, 0.08 4.54 C0.29 3.38, 1.06 2.04, 1.96 1.29 C2.87 0.53, 4.91 0.2, 5.5 0 C6.09 -0.2, 5.5 0.02, 5.5 0.11" stroke="#000000" stroke-width="1" fill="none"></path></g><g stroke-linecap="round" transform="translate(716.875 399.75865800865876) rotate(0 5.5 5.5)"><path d="M5.5 0 C6.62 -0.07, 8.13 0.53, 9.04 1.29 C9.94 2.04, 10.71 3.38, 10.92 4.54 C11.12 5.71, 10.85 7.23, 10.26 8.25 C9.67 9.27, 8.49 10.27, 7.38 10.67 C6.27 11.07, 4.73 11.07, 3.62 10.67 C2.51 10.27, 1.33 9.27, 0.74 8.25 C0.15 7.23, -0.12 5.71, 0.08 4.54 C0.29 3.38, 1.06 2.04, 1.96 1.29 C2.87 0.53, 4.91 0.2, 5.5 0 C6.09 -0.2, 5.5 0.02, 5.5 0.11 M5.5 0 C6.62 -0.07, 8.13 0.53, 9.04 1.29 C9.94 2.04, 10.71 3.38, 10.92 4.54 C11.12 5.71, 10.85 7.23, 10.26 8.25 C9.67 9.27, 8.49 10.27, 7.38 10.67 C6.27 11.07, 4.73 11.07, 3.62 10.67 C2.51 10.27, 1.33 9.27, 0.74 8.25 C0.15 7.23, -0.12 5.71, 0.08 4.54 C0.29 3.38, 1.06 2.04, 1.96 1.29 C2.87 0.53, 4.91 0.2, 5.5 0 C6.09 -0.2, 5.5 0.02, 5.5 0.11" stroke="none" stroke-width="0" fill="#000"></path><path d="M5.5 0 C6.62 -0.07, 8.13 0.53, 9.04 1.29 C9.94 2.04, 10.71 3.38, 10.92 4.54 C11.12 5.71, 10.85 7.23, 10.26 8.25 C9.67 9.27, 8.49 10.27, 7.38 10.67 C6.27 11.07, 4.73 11.07, 3.62 10.67 C2.51 10.27, 1.33 9.27, 0.74 8.25 C0.15 7.23, -0.12 5.71, 0.08 4.54 C0.29 3.38, 1.06 2.04, 1.96 1.29 C2.87 0.53, 4.91 0.2, 5.5 0 C6.09 -0.2, 5.5 0.02, 5.5 0.11 M5.5 0 C6.62 -0.07, 8.13 0.53, 9.04 1.29 C9.94 2.04, 10.71 3.38, 10.92 4.54 C11.12 5.71, 10.85 7.23, 10.26 8.25 C9.67 9.27, 8.49 10.27, 7.38 10.67 C6.27 11.07, 4.73 11.07, 3.62 10.67 C2.51 10.27, 1.33 9.27, 0.74 8.25 C0.15 7.23, -0.12 5.71, 0.08 4.54 C0.29 3.38, 1.06 2.04, 1.96 1.29 C2.87 0.53, 4.91 0.2, 5.5 0 C6.09 -0.2, 5.5 0.02, 5.5 0.11" stroke="#000000" stroke-width="1" fill="none"></path></g><g stroke-linecap="round" transform="translate(741.25 399.75865800865876) rotate(0 5.5 5.5)"><path d="M5.5 0 C6.62 -0.07, 8.13 0.53, 9.04 1.29 C9.94 2.04, 10.71 3.38, 10.92 4.54 C11.12 5.71, 10.85 7.23, 10.26 8.25 C9.67 9.27, 8.49 10.27, 7.38 10.67 C6.27 11.07, 4.73 11.07, 3.62 10.67 C2.51 10.27, 1.33 9.27, 0.74 8.25 C0.15 7.23, -0.12 5.71, 0.08 4.54 C0.29 3.38, 1.06 2.04, 1.96 1.29 C2.87 0.53, 4.91 0.2, 5.5 0 C6.09 -0.2, 5.5 0.02, 5.5 0.11 M5.5 0 C6.62 -0.07, 8.13 0.53, 9.04 1.29 C9.94 2.04, 10.71 3.38, 10.92 4.54 C11.12 5.71, 10.85 7.23, 10.26 8.25 C9.67 9.27, 8.49 10.27, 7.38 10.67 C6.27 11.07, 4.73 11.07, 3.62 10.67 C2.51 10.27, 1.33 9.27, 0.74 8.25 C0.15 7.23, -0.12 5.71, 0.08 4.54 C0.29 3.38, 1.06 2.04, 1.96 1.29 C2.87 0.53, 4.91 0.2, 5.5 0 C6.09 -0.2, 5.5 0.02, 5.5 0.11" stroke="none" stroke-width="0" fill="#000"></path><path d="M5.5 0 C6.62 -0.07, 8.13 0.53, 9.04 1.29 C9.94 2.04, 10.71 3.38, 10.92 4.54 C11.12 5.71, 10.85 7.23, 10.26 8.25 C9.67 9.27, 8.49 10.27, 7.38 10.67 C6.27 11.07, 4.73 11.07, 3.62 10.67 C2.51 10.27, 1.33 9.27, 0.74 8.25 C0.15 7.23, -0.12 5.71, 0.08 4.54 C0.29 3.38, 1.06 2.04, 1.96 1.29 C2.87 0.53, 4.91 0.2, 5.5 0 C6.09 -0.2, 5.5 0.02, 5.5 0.11 M5.5 0 C6.62 -0.07, 8.13 0.53, 9.04 1.29 C9.94 2.04, 10.71 3.38, 10.92 4.54 C11.12 5.71, 10.85 7.23, 10.26 8.25 C9.67 9.27, 8.49 10.27, 7.38 10.67 C6.27 11.07, 4.73 11.07, 3.62 10.67 C2.51 10.27, 1.33 9.27, 0.74 8.25 C0.15 7.23, -0.12 5.71, 0.08 4.54 C0.29 3.38, 1.06 2.04, 1.96 1.29 C2.87 0.53, 4.91 0.2, 5.5 0 C6.09 -0.2, 5.5 0.02, 5.5 0.11" stroke="#000000" stroke-width="1" fill="none"></path></g><g stroke-linecap="round" transform="translate(643.75 425.75865800865876) rotate(0 5.5 5.5)"><path d="M5.5 0 C6.62 -0.07, 8.13 0.53, 9.04 1.29 C9.94 2.04, 10.71 3.38, 10.92 4.54 C11.12 5.71, 10.85 7.23, 10.26 8.25 C9.67 9.27, 8.49 10.27, 7.38 10.67 C6.27 11.07, 4.73 11.07, 3.62 10.67 C2.51 10.27, 1.33 9.27, 0.74 8.25 C0.15 7.23, -0.12 5.71, 0.08 4.54 C0.29 3.38, 1.06 2.04, 1.96 1.29 C2.87 0.53, 4.91 0.2, 5.5 0 C6.09 -0.2, 5.5 0.02, 5.5 0.11 M5.5 0 C6.62 -0.07, 8.13 0.53, 9.04 1.29 C9.94 2.04, 10.71 3.38, 10.92 4.54 C11.12 5.71, 10.85 7.23, 10.26 8.25 C9.67 9.27, 8.49 10.27, 7.38 10.67 C6.27 11.07, 4.73 11.07, 3.62 10.67 C2.51 10.27, 1.33 9.27, 0.74 8.25 C0.15 7.23, -0.12 5.71, 0.08 4.54 C0.29 3.38, 1.06 2.04, 1.96 1.29 C2.87 0.53, 4.91 0.2, 5.5 0 C6.09 -0.2, 5.5 0.02, 5.5 0.11" stroke="none" stroke-width="0" fill="#000"></path><path d="M5.5 0 C6.62 -0.07, 8.13 0.53, 9.04 1.29 C9.94 2.04, 10.71 3.38, 10.92 4.54 C11.12 5.71, 10.85 7.23, 10.26 8.25 C9.67 9.27, 8.49 10.27, 7.38 10.67 C6.27 11.07, 4.73 11.07, 3.62 10.67 C2.51 10.27, 1.33 9.27, 0.74 8.25 C0.15 7.23, -0.12 5.71, 0.08 4.54 C0.29 3.38, 1.06 2.04, 1.96 1.29 C2.87 0.53, 4.91 0.2, 5.5 0 C6.09 -0.2, 5.5 0.02, 5.5 0.11 M5.5 0 C6.62 -0.07, 8.13 0.53, 9.04 1.29 C9.94 2.04, 10.71 3.38, 10.92 4.54 C11.12 5.71, 10.85 7.23, 10.26 8.25 C9.67 9.27, 8.49 10.27, 7.38 10.67 C6.27 11.07, 4.73 11.07, 3.62 10.67 C2.51 10.27, 1.33 9.27, 0.74 8.25 C0.15 7.23, -0.12 5.71, 0.08 4.54 C0.29 3.38, 1.06 2.04, 1.96 1.29 C2.87 0.53, 4.91 0.2, 5.5 0 C6.09 -0.2, 5.5 0.02, 5.5 0.11" stroke="#000000" stroke-width="1" fill="none"></path></g><g stroke-linecap="round" transform="translate(692.5 425.75865800865876) rotate(0 5.5 5.5)"><path d="M5.5 0 C6.62 -0.07, 8.13 0.53, 9.04 1.29 C9.94 2.04, 10.71 3.38, 10.92 4.54 C11.12 5.71, 10.85 7.23, 10.26 8.25 C9.67 9.27, 8.49 10.27, 7.38 10.67 C6.27 11.07, 4.73 11.07, 3.62 10.67 C2.51 10.27, 1.33 9.27, 0.74 8.25 C0.15 7.23, -0.12 5.71, 0.08 4.54 C0.29 3.38, 1.06 2.04, 1.96 1.29 C2.87 0.53, 4.91 0.2, 5.5 0 C6.09 -0.2, 5.5 0.02, 5.5 0.11 M5.5 0 C6.62 -0.07, 8.13 0.53, 9.04 1.29 C9.94 2.04, 10.71 3.38, 10.92 4.54 C11.12 5.71, 10.85 7.23, 10.26 8.25 C9.67 9.27, 8.49 10.27, 7.38 10.67 C6.27 11.07, 4.73 11.07, 3.62 10.67 C2.51 10.27, 1.33 9.27, 0.74 8.25 C0.15 7.23, -0.12 5.71, 0.08 4.54 C0.29 3.38, 1.06 2.04, 1.96 1.29 C2.87 0.53, 4.91 0.2, 5.5 0 C6.09 -0.2, 5.5 0.02, 5.5 0.11" stroke="none" stroke-width="0" fill="#000"></path><path d="M5.5 0 C6.62 -0.07, 8.13 0.53, 9.04 1.29 C9.94 2.04, 10.71 3.38, 10.92 4.54 C11.12 5.71, 10.85 7.23, 10.26 8.25 C9.67 9.27, 8.49 10.27, 7.38 10.67 C6.27 11.07, 4.73 11.07, 3.62 10.67 C2.51 10.27, 1.33 9.27, 0.74 8.25 C0.15 7.23, -0.12 5.71, 0.08 4.54 C0.29 3.38, 1.06 2.04, 1.96 1.29 C2.87 0.53, 4.91 0.2, 5.5 0 C6.09 -0.2, 5.5 0.02, 5.5 0.11 M5.5 0 C6.62 -0.07, 8.13 0.53, 9.04 1.29 C9.94 2.04, 10.71 3.38, 10.92 4.54 C11.12 5.71, 10.85 7.23, 10.26 8.25 C9.67 9.27, 8.49 10.27, 7.38 10.67 C6.27 11.07, 4.73 11.07, 3.62 10.67 C2.51 10.27, 1.33 9.27, 0.74 8.25 C0.15 7.23, -0.12 5.71, 0.08 4.54 C0.29 3.38, 1.06 2.04, 1.96 1.29 C2.87 0.53, 4.91 0.2, 5.5 0 C6.09 -0.2, 5.5 0.02, 5.5 0.11" stroke="#000000" stroke-width="1" fill="none"></path></g><g stroke-linecap="round" transform="translate(668.125 425.75865800865876) rotate(0 5.5 5.5)"><path d="M5.5 0 C6.62 -0.07, 8.13 0.53, 9.04 1.29 C9.94 2.04, 10.71 3.38, 10.92 4.54 C11.12 5.71, 10.85 7.23, 10.26 8.25 C9.67 9.27, 8.49 10.27, 7.38 10.67 C6.27 11.07, 4.73 11.07, 3.62 10.67 C2.51 10.27, 1.33 9.27, 0.74 8.25 C0.15 7.23, -0.12 5.71, 0.08 4.54 C0.29 3.38, 1.06 2.04, 1.96 1.29 C2.87 0.53, 4.91 0.2, 5.5 0 C6.09 -0.2, 5.5 0.02, 5.5 0.11 M5.5 0 C6.62 -0.07, 8.13 0.53, 9.04 1.29 C9.94 2.04, 10.71 3.38, 10.92 4.54 C11.12 5.71, 10.85 7.23, 10.26 8.25 C9.67 9.27, 8.49 10.27, 7.38 10.67 C6.27 11.07, 4.73 11.07, 3.62 10.67 C2.51 10.27, 1.33 9.27, 0.74 8.25 C0.15 7.23, -0.12 5.71, 0.08 4.54 C0.29 3.38, 1.06 2.04, 1.96 1.29 C2.87 0.53, 4.91 0.2, 5.5 0 C6.09 -0.2, 5.5 0.02, 5.5 0.11" stroke="none" stroke-width="0" fill="#000"></path><path d="M5.5 0 C6.62 -0.07, 8.13 0.53, 9.04 1.29 C9.94 2.04, 10.71 3.38, 10.92 4.54 C11.12 5.71, 10.85 7.23, 10.26 8.25 C9.67 9.27, 8.49 10.27, 7.38 10.67 C6.27 11.07, 4.73 11.07, 3.62 10.67 C2.51 10.27, 1.33 9.27, 0.74 8.25 C0.15 7.23, -0.12 5.71, 0.08 4.54 C0.29 3.38, 1.06 2.04, 1.96 1.29 C2.87 0.53, 4.91 0.2, 5.5 0 C6.09 -0.2, 5.5 0.02, 5.5 0.11 M5.5 0 C6.62 -0.07, 8.13 0.53, 9.04 1.29 C9.94 2.04, 10.71 3.38, 10.92 4.54 C11.12 5.71, 10.85 7.23, 10.26 8.25 C9.67 9.27, 8.49 10.27, 7.38 10.67 C6.27 11.07, 4.73 11.07, 3.62 10.67 C2.51 10.27, 1.33 9.27, 0.74 8.25 C0.15 7.23, -0.12 5.71, 0.08 4.54 C0.29 3.38, 1.06 2.04, 1.96 1.29 C2.87 0.53, 4.91 0.2, 5.5 0 C6.09 -0.2, 5.5 0.02, 5.5 0.11" stroke="#000000" stroke-width="1" fill="none"></path></g><g stroke-linecap="round" transform="translate(644.375 202.5086580086587) rotate(0 5.5 5.5)"><path d="M5.5 0 C6.62 -0.07, 8.13 0.53, 9.04 1.29 C9.94 2.04, 10.71 3.38, 10.92 4.54 C11.12 5.71, 10.85 7.23, 10.26 8.25 C9.67 9.27, 8.49 10.27, 7.38 10.67 C6.27 11.07, 4.73 11.07, 3.62 10.67 C2.51 10.27, 1.33 9.27, 0.74 8.25 C0.15 7.23, -0.12 5.71, 0.08 4.54 C0.29 3.38, 1.06 2.04, 1.96 1.29 C2.87 0.53, 4.91 0.2, 5.5 0 C6.09 -0.2, 5.5 0.02, 5.5 0.11 M5.5 0 C6.62 -0.07, 8.13 0.53, 9.04 1.29 C9.94 2.04, 10.71 3.38, 10.92 4.54 C11.12 5.71, 10.85 7.23, 10.26 8.25 C9.67 9.27, 8.49 10.27, 7.38 10.67 C6.27 11.07, 4.73 11.07, 3.62 10.67 C2.51 10.27, 1.33 9.27, 0.74 8.25 C0.15 7.23, -0.12 5.71, 0.08 4.54 C0.29 3.38, 1.06 2.04, 1.96 1.29 C2.87 0.53, 4.91 0.2, 5.5 0 C6.09 -0.2, 5.5 0.02, 5.5 0.11" stroke="none" stroke-width="0" fill="#000"></path><path d="M5.5 0 C6.62 -0.07, 8.13 0.53, 9.04 1.29 C9.94 2.04, 10.71 3.38, 10.92 4.54 C11.12 5.71, 10.85 7.23, 10.26 8.25 C9.67 9.27, 8.49 10.27, 7.38 10.67 C6.27 11.07, 4.73 11.07, 3.62 10.67 C2.51 10.27, 1.33 9.27, 0.74 8.25 C0.15 7.23, -0.12 5.71, 0.08 4.54 C0.29 3.38, 1.06 2.04, 1.96 1.29 C2.87 0.53, 4.91 0.2, 5.5 0 C6.09 -0.2, 5.5 0.02, 5.5 0.11 M5.5 0 C6.62 -0.07, 8.13 0.53, 9.04 1.29 C9.94 2.04, 10.71 3.38, 10.92 4.54 C11.12 5.71, 10.85 7.23, 10.26 8.25 C9.67 9.27, 8.49 10.27, 7.38 10.67 C6.27 11.07, 4.73 11.07, 3.62 10.67 C2.51 10.27, 1.33 9.27, 0.74 8.25 C0.15 7.23, -0.12 5.71, 0.08 4.54 C0.29 3.38, 1.06 2.04, 1.96 1.29 C2.87 0.53, 4.91 0.2, 5.5 0 C6.09 -0.2, 5.5 0.02, 5.5 0.11" stroke="#000000" stroke-width="1" fill="none"></path></g><g stroke-linecap="round" transform="translate(693.125 202.5086580086587) rotate(0 5.5 5.5)"><path d="M5.5 0 C6.62 -0.07, 8.13 0.53, 9.04 1.29 C9.94 2.04, 10.71 3.38, 10.92 4.54 C11.12 5.71, 10.85 7.23, 10.26 8.25 C9.67 9.27, 8.49 10.27, 7.38 10.67 C6.27 11.07, 4.73 11.07, 3.62 10.67 C2.51 10.27, 1.33 9.27, 0.74 8.25 C0.15 7.23, -0.12 5.71, 0.08 4.54 C0.29 3.38, 1.06 2.04, 1.96 1.29 C2.87 0.53, 4.91 0.2, 5.5 0 C6.09 -0.2, 5.5 0.02, 5.5 0.11 M5.5 0 C6.62 -0.07, 8.13 0.53, 9.04 1.29 C9.94 2.04, 10.71 3.38, 10.92 4.54 C11.12 5.71, 10.85 7.23, 10.26 8.25 C9.67 9.27, 8.49 10.27, 7.38 10.67 C6.27 11.07, 4.73 11.07, 3.62 10.67 C2.51 10.27, 1.33 9.27, 0.74 8.25 C0.15 7.23, -0.12 5.71, 0.08 4.54 C0.29 3.38, 1.06 2.04, 1.96 1.29 C2.87 0.53, 4.91 0.2, 5.5 0 C6.09 -0.2, 5.5 0.02, 5.5 0.11" stroke="none" stroke-width="0" fill="#000"></path><path d="M5.5 0 C6.62 -0.07, 8.13 0.53, 9.04 1.29 C9.94 2.04, 10.71 3.38, 10.92 4.54 C11.12 5.71, 10.85 7.23, 10.26 8.25 C9.67 9.27, 8.49 10.27, 7.38 10.67 C6.27 11.07, 4.73 11.07, 3.62 10.67 C2.51 10.27, 1.33 9.27, 0.74 8.25 C0.15 7.23, -0.12 5.71, 0.08 4.54 C0.29 3.38, 1.06 2.04, 1.96 1.29 C2.87 0.53, 4.91 0.2, 5.5 0 C6.09 -0.2, 5.5 0.02, 5.5 0.11 M5.5 0 C6.62 -0.07, 8.13 0.53, 9.04 1.29 C9.94 2.04, 10.71 3.38, 10.92 4.54 C11.12 5.71, 10.85 7.23, 10.26 8.25 C9.67 9.27, 8.49 10.27, 7.38 10.67 C6.27 11.07, 4.73 11.07, 3.62 10.67 C2.51 10.27, 1.33 9.27, 0.74 8.25 C0.15 7.23, -0.12 5.71, 0.08 4.54 C0.29 3.38, 1.06 2.04, 1.96 1.29 C2.87 0.53, 4.91 0.2, 5.5 0 C6.09 -0.2, 5.5 0.02, 5.5 0.11" stroke="#000000" stroke-width="1" fill="none"></path></g><g stroke-linecap="round" transform="translate(668.75 202.5086580086587) rotate(0 5.5 5.5)"><path d="M5.5 0 C6.62 -0.07, 8.13 0.53, 9.04 1.29 C9.94 2.04, 10.71 3.38, 10.92 4.54 C11.12 5.71, 10.85 7.23, 10.26 8.25 C9.67 9.27, 8.49 10.27, 7.38 10.67 C6.27 11.07, 4.73 11.07, 3.62 10.67 C2.51 10.27, 1.33 9.27, 0.74 8.25 C0.15 7.23, -0.12 5.71, 0.08 4.54 C0.29 3.38, 1.06 2.04, 1.96 1.29 C2.87 0.53, 4.91 0.2, 5.5 0 C6.09 -0.2, 5.5 0.02, 5.5 0.11 M5.5 0 C6.62 -0.07, 8.13 0.53, 9.04 1.29 C9.94 2.04, 10.71 3.38, 10.92 4.54 C11.12 5.71, 10.85 7.23, 10.26 8.25 C9.67 9.27, 8.49 10.27, 7.38 10.67 C6.27 11.07, 4.73 11.07, 3.62 10.67 C2.51 10.27, 1.33 9.27, 0.74 8.25 C0.15 7.23, -0.12 5.71, 0.08 4.54 C0.29 3.38, 1.06 2.04, 1.96 1.29 C2.87 0.53, 4.91 0.2, 5.5 0 C6.09 -0.2, 5.5 0.02, 5.5 0.11" stroke="none" stroke-width="0" fill="#000"></path><path d="M5.5 0 C6.62 -0.07, 8.13 0.53, 9.04 1.29 C9.94 2.04, 10.71 3.38, 10.92 4.54 C11.12 5.71, 10.85 7.23, 10.26 8.25 C9.67 9.27, 8.49 10.27, 7.38 10.67 C6.27 11.07, 4.73 11.07, 3.62 10.67 C2.51 10.27, 1.33 9.27, 0.74 8.25 C0.15 7.23, -0.12 5.71, 0.08 4.54 C0.29 3.38, 1.06 2.04, 1.96 1.29 C2.87 0.53, 4.91 0.2, 5.5 0 C6.09 -0.2, 5.5 0.02, 5.5 0.11 M5.5 0 C6.62 -0.07, 8.13 0.53, 9.04 1.29 C9.94 2.04, 10.71 3.38, 10.92 4.54 C11.12 5.71, 10.85 7.23, 10.26 8.25 C9.67 9.27, 8.49 10.27, 7.38 10.67 C6.27 11.07, 4.73 11.07, 3.62 10.67 C2.51 10.27, 1.33 9.27, 0.74 8.25 C0.15 7.23, -0.12 5.71, 0.08 4.54 C0.29 3.38, 1.06 2.04, 1.96 1.29 C2.87 0.53, 4.91 0.2, 5.5 0 C6.09 -0.2, 5.5 0.02, 5.5 0.11" stroke="#000000" stroke-width="1" fill="none"></path></g><g stroke-linecap="round" transform="translate(717.5 202.5086580086587) rotate(0 5.5 5.5)"><path d="M5.5 0 C6.62 -0.07, 8.13 0.53, 9.04 1.29 C9.94 2.04, 10.71 3.38, 10.92 4.54 C11.12 5.71, 10.85 7.23, 10.26 8.25 C9.67 9.27, 8.49 10.27, 7.38 10.67 C6.27 11.07, 4.73 11.07, 3.62 10.67 C2.51 10.27, 1.33 9.27, 0.74 8.25 C0.15 7.23, -0.12 5.71, 0.08 4.54 C0.29 3.38, 1.06 2.04, 1.96 1.29 C2.87 0.53, 4.91 0.2, 5.5 0 C6.09 -0.2, 5.5 0.02, 5.5 0.11 M5.5 0 C6.62 -0.07, 8.13 0.53, 9.04 1.29 C9.94 2.04, 10.71 3.38, 10.92 4.54 C11.12 5.71, 10.85 7.23, 10.26 8.25 C9.67 9.27, 8.49 10.27, 7.38 10.67 C6.27 11.07, 4.73 11.07, 3.62 10.67 C2.51 10.27, 1.33 9.27, 0.74 8.25 C0.15 7.23, -0.12 5.71, 0.08 4.54 C0.29 3.38, 1.06 2.04, 1.96 1.29 C2.87 0.53, 4.91 0.2, 5.5 0 C6.09 -0.2, 5.5 0.02, 5.5 0.11" stroke="none" stroke-width="0" fill="#000"></path><path d="M5.5 0 C6.62 -0.07, 8.13 0.53, 9.04 1.29 C9.94 2.04, 10.71 3.38, 10.92 4.54 C11.12 5.71, 10.85 7.23, 10.26 8.25 C9.67 9.27, 8.49 10.27, 7.38 10.67 C6.27 11.07, 4.73 11.07, 3.62 10.67 C2.51 10.27, 1.33 9.27, 0.74 8.25 C0.15 7.23, -0.12 5.71, 0.08 4.54 C0.29 3.38, 1.06 2.04, 1.96 1.29 C2.87 0.53, 4.91 0.2, 5.5 0 C6.09 -0.2, 5.5 0.02, 5.5 0.11 M5.5 0 C6.62 -0.07, 8.13 0.53, 9.04 1.29 C9.94 2.04, 10.71 3.38, 10.92 4.54 C11.12 5.71, 10.85 7.23, 10.26 8.25 C9.67 9.27, 8.49 10.27, 7.38 10.67 C6.27 11.07, 4.73 11.07, 3.62 10.67 C2.51 10.27, 1.33 9.27, 0.74 8.25 C0.15 7.23, -0.12 5.71, 0.08 4.54 C0.29 3.38, 1.06 2.04, 1.96 1.29 C2.87 0.53, 4.91 0.2, 5.5 0 C6.09 -0.2, 5.5 0.02, 5.5 0.11" stroke="#000000" stroke-width="1" fill="none"></path></g><g stroke-linecap="round" transform="translate(741.875 202.5086580086587) rotate(0 5.5 5.5)"><path d="M5.5 0 C6.62 -0.07, 8.13 0.53, 9.04 1.29 C9.94 2.04, 10.71 3.38, 10.92 4.54 C11.12 5.71, 10.85 7.23, 10.26 8.25 C9.67 9.27, 8.49 10.27, 7.38 10.67 C6.27 11.07, 4.73 11.07, 3.62 10.67 C2.51 10.27, 1.33 9.27, 0.74 8.25 C0.15 7.23, -0.12 5.71, 0.08 4.54 C0.29 3.38, 1.06 2.04, 1.96 1.29 C2.87 0.53, 4.91 0.2, 5.5 0 C6.09 -0.2, 5.5 0.02, 5.5 0.11 M5.5 0 C6.62 -0.07, 8.13 0.53, 9.04 1.29 C9.94 2.04, 10.71 3.38, 10.92 4.54 C11.12 5.71, 10.85 7.23, 10.26 8.25 C9.67 9.27, 8.49 10.27, 7.38 10.67 C6.27 11.07, 4.73 11.07, 3.62 10.67 C2.51 10.27, 1.33 9.27, 0.74 8.25 C0.15 7.23, -0.12 5.71, 0.08 4.54 C0.29 3.38, 1.06 2.04, 1.96 1.29 C2.87 0.53, 4.91 0.2, 5.5 0 C6.09 -0.2, 5.5 0.02, 5.5 0.11" stroke="none" stroke-width="0" fill="#000"></path><path d="M5.5 0 C6.62 -0.07, 8.13 0.53, 9.04 1.29 C9.94 2.04, 10.71 3.38, 10.92 4.54 C11.12 5.71, 10.85 7.23, 10.26 8.25 C9.67 9.27, 8.49 10.27, 7.38 10.67 C6.27 11.07, 4.73 11.07, 3.62 10.67 C2.51 10.27, 1.33 9.27, 0.74 8.25 C0.15 7.23, -0.12 5.71, 0.08 4.54 C0.29 3.38, 1.06 2.04, 1.96 1.29 C2.87 0.53, 4.91 0.2, 5.5 0 C6.09 -0.2, 5.5 0.02, 5.5 0.11 M5.5 0 C6.62 -0.07, 8.13 0.53, 9.04 1.29 C9.94 2.04, 10.71 3.38, 10.92 4.54 C11.12 5.71, 10.85 7.23, 10.26 8.25 C9.67 9.27, 8.49 10.27, 7.38 10.67 C6.27 11.07, 4.73 11.07, 3.62 10.67 C2.51 10.27, 1.33 9.27, 0.74 8.25 C0.15 7.23, -0.12 5.71, 0.08 4.54 C0.29 3.38, 1.06 2.04, 1.96 1.29 C2.87 0.53, 4.91 0.2, 5.5 0 C6.09 -0.2, 5.5 0.02, 5.5 0.11" stroke="#000000" stroke-width="1" fill="none"></path></g><g stroke-linecap="round" transform="translate(645.125 223.0086580086587) rotate(0 5.5 5.5)"><path d="M5.5 0 C6.62 -0.07, 8.13 0.53, 9.04 1.29 C9.94 2.04, 10.71 3.38, 10.92 4.54 C11.12 5.71, 10.85 7.23, 10.26 8.25 C9.67 9.27, 8.49 10.27, 7.38 10.67 C6.27 11.07, 4.73 11.07, 3.62 10.67 C2.51 10.27, 1.33 9.27, 0.74 8.25 C0.15 7.23, -0.12 5.71, 0.08 4.54 C0.29 3.38, 1.06 2.04, 1.96 1.29 C2.87 0.53, 4.91 0.2, 5.5 0 C6.09 -0.2, 5.5 0.02, 5.5 0.11 M5.5 0 C6.62 -0.07, 8.13 0.53, 9.04 1.29 C9.94 2.04, 10.71 3.38, 10.92 4.54 C11.12 5.71, 10.85 7.23, 10.26 8.25 C9.67 9.27, 8.49 10.27, 7.38 10.67 C6.27 11.07, 4.73 11.07, 3.62 10.67 C2.51 10.27, 1.33 9.27, 0.74 8.25 C0.15 7.23, -0.12 5.71, 0.08 4.54 C0.29 3.38, 1.06 2.04, 1.96 1.29 C2.87 0.53, 4.91 0.2, 5.5 0 C6.09 -0.2, 5.5 0.02, 5.5 0.11" stroke="none" stroke-width="0" fill="#000"></path><path d="M5.5 0 C6.62 -0.07, 8.13 0.53, 9.04 1.29 C9.94 2.04, 10.71 3.38, 10.92 4.54 C11.12 5.71, 10.85 7.23, 10.26 8.25 C9.67 9.27, 8.49 10.27, 7.38 10.67 C6.27 11.07, 4.73 11.07, 3.62 10.67 C2.51 10.27, 1.33 9.27, 0.74 8.25 C0.15 7.23, -0.12 5.71, 0.08 4.54 C0.29 3.38, 1.06 2.04, 1.96 1.29 C2.87 0.53, 4.91 0.2, 5.5 0 C6.09 -0.2, 5.5 0.02, 5.5 0.11 M5.5 0 C6.62 -0.07, 8.13 0.53, 9.04 1.29 C9.94 2.04, 10.71 3.38, 10.92 4.54 C11.12 5.71, 10.85 7.23, 10.26 8.25 C9.67 9.27, 8.49 10.27, 7.38 10.67 C6.27 11.07, 4.73 11.07, 3.62 10.67 C2.51 10.27, 1.33 9.27, 0.74 8.25 C0.15 7.23, -0.12 5.71, 0.08 4.54 C0.29 3.38, 1.06 2.04, 1.96 1.29 C2.87 0.53, 4.91 0.2, 5.5 0 C6.09 -0.2, 5.5 0.02, 5.5 0.11" stroke="#000000" stroke-width="1" fill="none"></path></g><g stroke-linecap="round" transform="translate(693.875 223.0086580086587) rotate(0 5.5 5.5)"><path d="M5.5 0 C6.62 -0.07, 8.13 0.53, 9.04 1.29 C9.94 2.04, 10.71 3.38, 10.92 4.54 C11.12 5.71, 10.85 7.23, 10.26 8.25 C9.67 9.27, 8.49 10.27, 7.38 10.67 C6.27 11.07, 4.73 11.07, 3.62 10.67 C2.51 10.27, 1.33 9.27, 0.74 8.25 C0.15 7.23, -0.12 5.71, 0.08 4.54 C0.29 3.38, 1.06 2.04, 1.96 1.29 C2.87 0.53, 4.91 0.2, 5.5 0 C6.09 -0.2, 5.5 0.02, 5.5 0.11 M5.5 0 C6.62 -0.07, 8.13 0.53, 9.04 1.29 C9.94 2.04, 10.71 3.38, 10.92 4.54 C11.12 5.71, 10.85 7.23, 10.26 8.25 C9.67 9.27, 8.49 10.27, 7.38 10.67 C6.27 11.07, 4.73 11.07, 3.62 10.67 C2.51 10.27, 1.33 9.27, 0.74 8.25 C0.15 7.23, -0.12 5.71, 0.08 4.54 C0.29 3.38, 1.06 2.04, 1.96 1.29 C2.87 0.53, 4.91 0.2, 5.5 0 C6.09 -0.2, 5.5 0.02, 5.5 0.11" stroke="none" stroke-width="0" fill="#000"></path><path d="M5.5 0 C6.62 -0.07, 8.13 0.53, 9.04 1.29 C9.94 2.04, 10.71 3.38, 10.92 4.54 C11.12 5.71, 10.85 7.23, 10.26 8.25 C9.67 9.27, 8.49 10.27, 7.38 10.67 C6.27 11.07, 4.73 11.07, 3.62 10.67 C2.51 10.27, 1.33 9.27, 0.74 8.25 C0.15 7.23, -0.12 5.71, 0.08 4.54 C0.29 3.38, 1.06 2.04, 1.96 1.29 C2.87 0.53, 4.91 0.2, 5.5 0 C6.09 -0.2, 5.5 0.02, 5.5 0.11 M5.5 0 C6.62 -0.07, 8.13 0.53, 9.04 1.29 C9.94 2.04, 10.71 3.38, 10.92 4.54 C11.12 5.71, 10.85 7.23, 10.26 8.25 C9.67 9.27, 8.49 10.27, 7.38 10.67 C6.27 11.07, 4.73 11.07, 3.62 10.67 C2.51 10.27, 1.33 9.27, 0.74 8.25 C0.15 7.23, -0.12 5.71, 0.08 4.54 C0.29 3.38, 1.06 2.04, 1.96 1.29 C2.87 0.53, 4.91 0.2, 5.5 0 C6.09 -0.2, 5.5 0.02, 5.5 0.11" stroke="#000000" stroke-width="1" fill="none"></path></g><g stroke-linecap="round" transform="translate(669.5 223.0086580086587) rotate(0 5.5 5.5)"><path d="M5.5 0 C6.62 -0.07, 8.13 0.53, 9.04 1.29 C9.94 2.04, 10.71 3.38, 10.92 4.54 C11.12 5.71, 10.85 7.23, 10.26 8.25 C9.67 9.27, 8.49 10.27, 7.38 10.67 C6.27 11.07, 4.73 11.07, 3.62 10.67 C2.51 10.27, 1.33 9.27, 0.74 8.25 C0.15 7.23, -0.12 5.71, 0.08 4.54 C0.29 3.38, 1.06 2.04, 1.96 1.29 C2.87 0.53, 4.91 0.2, 5.5 0 C6.09 -0.2, 5.5 0.02, 5.5 0.11 M5.5 0 C6.62 -0.07, 8.13 0.53, 9.04 1.29 C9.94 2.04, 10.71 3.38, 10.92 4.54 C11.12 5.71, 10.85 7.23, 10.26 8.25 C9.67 9.27, 8.49 10.27, 7.38 10.67 C6.27 11.07, 4.73 11.07, 3.62 10.67 C2.51 10.27, 1.33 9.27, 0.74 8.25 C0.15 7.23, -0.12 5.71, 0.08 4.54 C0.29 3.38, 1.06 2.04, 1.96 1.29 C2.87 0.53, 4.91 0.2, 5.5 0 C6.09 -0.2, 5.5 0.02, 5.5 0.11" stroke="none" stroke-width="0" fill="#000"></path><path d="M5.5 0 C6.62 -0.07, 8.13 0.53, 9.04 1.29 C9.94 2.04, 10.71 3.38, 10.92 4.54 C11.12 5.71, 10.85 7.23, 10.26 8.25 C9.67 9.27, 8.49 10.27, 7.38 10.67 C6.27 11.07, 4.73 11.07, 3.62 10.67 C2.51 10.27, 1.33 9.27, 0.74 8.25 C0.15 7.23, -0.12 5.71, 0.08 4.54 C0.29 3.38, 1.06 2.04, 1.96 1.29 C2.87 0.53, 4.91 0.2, 5.5 0 C6.09 -0.2, 5.5 0.02, 5.5 0.11 M5.5 0 C6.62 -0.07, 8.13 0.53, 9.04 1.29 C9.94 2.04, 10.71 3.38, 10.92 4.54 C11.12 5.71, 10.85 7.23, 10.26 8.25 C9.67 9.27, 8.49 10.27, 7.38 10.67 C6.27 11.07, 4.73 11.07, 3.62 10.67 C2.51 10.27, 1.33 9.27, 0.74 8.25 C0.15 7.23, -0.12 5.71, 0.08 4.54 C0.29 3.38, 1.06 2.04, 1.96 1.29 C2.87 0.53, 4.91 0.2, 5.5 0 C6.09 -0.2, 5.5 0.02, 5.5 0.11" stroke="#000000" stroke-width="1" fill="none"></path></g><g stroke-linecap="round" transform="translate(718.25 223.0086580086587) rotate(0 5.5 5.5)"><path d="M5.5 0 C6.62 -0.07, 8.13 0.53, 9.04 1.29 C9.94 2.04, 10.71 3.38, 10.92 4.54 C11.12 5.71, 10.85 7.23, 10.26 8.25 C9.67 9.27, 8.49 10.27, 7.38 10.67 C6.27 11.07, 4.73 11.07, 3.62 10.67 C2.51 10.27, 1.33 9.27, 0.74 8.25 C0.15 7.23, -0.12 5.71, 0.08 4.54 C0.29 3.38, 1.06 2.04, 1.96 1.29 C2.87 0.53, 4.91 0.2, 5.5 0 C6.09 -0.2, 5.5 0.02, 5.5 0.11 M5.5 0 C6.62 -0.07, 8.13 0.53, 9.04 1.29 C9.94 2.04, 10.71 3.38, 10.92 4.54 C11.12 5.71, 10.85 7.23, 10.26 8.25 C9.67 9.27, 8.49 10.27, 7.38 10.67 C6.27 11.07, 4.73 11.07, 3.62 10.67 C2.51 10.27, 1.33 9.27, 0.74 8.25 C0.15 7.23, -0.12 5.71, 0.08 4.54 C0.29 3.38, 1.06 2.04, 1.96 1.29 C2.87 0.53, 4.91 0.2, 5.5 0 C6.09 -0.2, 5.5 0.02, 5.5 0.11" stroke="none" stroke-width="0" fill="#000"></path><path d="M5.5 0 C6.62 -0.07, 8.13 0.53, 9.04 1.29 C9.94 2.04, 10.71 3.38, 10.92 4.54 C11.12 5.71, 10.85 7.23, 10.26 8.25 C9.67 9.27, 8.49 10.27, 7.38 10.67 C6.27 11.07, 4.73 11.07, 3.62 10.67 C2.51 10.27, 1.33 9.27, 0.74 8.25 C0.15 7.23, -0.12 5.71, 0.08 4.54 C0.29 3.38, 1.06 2.04, 1.96 1.29 C2.87 0.53, 4.91 0.2, 5.5 0 C6.09 -0.2, 5.5 0.02, 5.5 0.11 M5.5 0 C6.62 -0.07, 8.13 0.53, 9.04 1.29 C9.94 2.04, 10.71 3.38, 10.92 4.54 C11.12 5.71, 10.85 7.23, 10.26 8.25 C9.67 9.27, 8.49 10.27, 7.38 10.67 C6.27 11.07, 4.73 11.07, 3.62 10.67 C2.51 10.27, 1.33 9.27, 0.74 8.25 C0.15 7.23, -0.12 5.71, 0.08 4.54 C0.29 3.38, 1.06 2.04, 1.96 1.29 C2.87 0.53, 4.91 0.2, 5.5 0 C6.09 -0.2, 5.5 0.02, 5.5 0.11" stroke="#000000" stroke-width="1" fill="none"></path></g><g stroke-linecap="round" transform="translate(742.625 223.0086580086587) rotate(0 5.5 5.5)"><path d="M5.5 0 C6.62 -0.07, 8.13 0.53, 9.04 1.29 C9.94 2.04, 10.71 3.38, 10.92 4.54 C11.12 5.71, 10.85 7.23, 10.26 8.25 C9.67 9.27, 8.49 10.27, 7.38 10.67 C6.27 11.07, 4.73 11.07, 3.62 10.67 C2.51 10.27, 1.33 9.27, 0.74 8.25 C0.15 7.23, -0.12 5.71, 0.08 4.54 C0.29 3.38, 1.06 2.04, 1.96 1.29 C2.87 0.53, 4.91 0.2, 5.5 0 C6.09 -0.2, 5.5 0.02, 5.5 0.11 M5.5 0 C6.62 -0.07, 8.13 0.53, 9.04 1.29 C9.94 2.04, 10.71 3.38, 10.92 4.54 C11.12 5.71, 10.85 7.23, 10.26 8.25 C9.67 9.27, 8.49 10.27, 7.38 10.67 C6.27 11.07, 4.73 11.07, 3.62 10.67 C2.51 10.27, 1.33 9.27, 0.74 8.25 C0.15 7.23, -0.12 5.71, 0.08 4.54 C0.29 3.38, 1.06 2.04, 1.96 1.29 C2.87 0.53, 4.91 0.2, 5.5 0 C6.09 -0.2, 5.5 0.02, 5.5 0.11" stroke="none" stroke-width="0" fill="#000"></path><path d="M5.5 0 C6.62 -0.07, 8.13 0.53, 9.04 1.29 C9.94 2.04, 10.71 3.38, 10.92 4.54 C11.12 5.71, 10.85 7.23, 10.26 8.25 C9.67 9.27, 8.49 10.27, 7.38 10.67 C6.27 11.07, 4.73 11.07, 3.62 10.67 C2.51 10.27, 1.33 9.27, 0.74 8.25 C0.15 7.23, -0.12 5.71, 0.08 4.54 C0.29 3.38, 1.06 2.04, 1.96 1.29 C2.87 0.53, 4.91 0.2, 5.5 0 C6.09 -0.2, 5.5 0.02, 5.5 0.11 M5.5 0 C6.62 -0.07, 8.13 0.53, 9.04 1.29 C9.94 2.04, 10.71 3.38, 10.92 4.54 C11.12 5.71, 10.85 7.23, 10.26 8.25 C9.67 9.27, 8.49 10.27, 7.38 10.67 C6.27 11.07, 4.73 11.07, 3.62 10.67 C2.51 10.27, 1.33 9.27, 0.74 8.25 C0.15 7.23, -0.12 5.71, 0.08 4.54 C0.29 3.38, 1.06 2.04, 1.96 1.29 C2.87 0.53, 4.91 0.2, 5.5 0 C6.09 -0.2, 5.5 0.02, 5.5 0.11" stroke="#000000" stroke-width="1" fill="none"></path></g><g transform="translate(781 230.2586580086587) rotate(0 9 13)"><text x="9" y="18" font-family="Virgil, Segoe UI Emoji" font-size="20px" fill="#000000" text-anchor="middle" style="white-space: pre;" direction="ltr">+1</text></g><g transform="translate(768 303.25865800865876) rotate(0 22 13)"><text x="22" y="18" font-family="Virgil, Segoe UI Emoji" font-size="20px" fill="#000000" text-anchor="middle" style="white-space: pre;" direction="ltr">+0.5</text></g><g transform="translate(784.5 386.25865800865876) rotate(0 16.5 13)"><text x="16.5" y="18" font-family="Virgil, Segoe UI Emoji" font-size="20px" fill="#000000" text-anchor="middle" style="white-space: pre;" direction="ltr">0.0</text></g><g transform="translate(469 131.2586580086587) rotate(0 6 13)"><text x="6" y="18" font-family="Virgil, Segoe UI Emoji" font-size="20px" fill="#5f3dc4" text-anchor="middle" style="white-space: pre;" direction="ltr">X</text></g><g transform="translate(431 159.2586580086587) rotate(0 5 13)"><text x="5" y="18" font-family="Virgil, Segoe UI Emoji" font-size="20px" fill="#c92a2a" text-anchor="middle" style="white-space: pre;" direction="ltr">Y</text></g><g transform="translate(850 135.2586580086587) rotate(0 108 39)"><text x="108" y="18" font-family="Virgil, Segoe UI Emoji" font-size="20px" fill="#000000" text-anchor="middle" style="white-space: pre;" direction="ltr">3. Divide by the</text><text x="108" y="44" font-family="Virgil, Segoe UI Emoji" font-size="20px" fill="#000000" text-anchor="middle" style="white-space: pre;" direction="ltr">number of comparisons</text><text x="108" y="70" font-family="Virgil, Segoe UI Emoji" font-size="20px" fill="#000000" text-anchor="middle" style="white-space: pre;" direction="ltr">to obtain </text></g><g transform="translate(915.7979797979804 219.77886002886083) rotate(0 11 13)"><text x="11" y="18" font-family="Virgil, Segoe UI Emoji" font-size="20px" fill="#000000" text-anchor="middle" style="white-space: pre;" direction="ltr">P(</text></g><g transform="translate(942.2979797979804 219.77886002886083) rotate(0 6 13)"><text x="6" y="18" font-family="Virgil, Segoe UI Emoji" font-size="20px" fill="#5f3dc4" text-anchor="middle" style="white-space: pre;" direction="ltr">X</text></g><g transform="translate(965.7979797979804 219.77886002886083) rotate(0 5 13)"><text x="5" y="18" font-family="Virgil, Segoe UI Emoji" font-size="20px" fill="#000000" text-anchor="middle" style="white-space: pre;" direction="ltr">&gt;</text></g><g transform="translate(987.2979797979804 219.77886002886083) rotate(0 5 13)"><text x="5" y="18" font-family="Virgil, Segoe UI Emoji" font-size="20px" fill="#c92a2a" text-anchor="middle" style="white-space: pre;" direction="ltr">Y</text></g><g transform="translate(1001.2979797979804 219.77886002886083) rotate(0 3.5 13)"><text x="3.5" y="18" font-family="Virgil, Segoe UI Emoji" font-size="20px" fill="#000000" text-anchor="middle" style="white-space: pre;" direction="ltr">)</text></g></svg>