<svg version="1.1" xmlns="http://www.w3.org/2000/svg" viewBox="0 0 997.5 349" width="1995" height="698" filter="invert(93%) hue-rotate(180deg)">
  <!-- svg-source:excalidraw -->
  
  <defs>
    <style>
      @font-face {
        font-family: "Virgil";
        src: url("https://excalidraw.com/Virgil.woff2");
      }
      @font-face {
        font-family: "Cascadia";
        src: url("https://excalidraw.com/Cascadia.woff2");
      }
    </style>
  </defs>
  <rect x="0" y="0" width="997.5" height="349" fill="#ffffff"></rect><g transform="translate(289.83331298828125 10) rotate(0 172.5 23.5)"><text x="0" y="33" font-family="Virgil, Segoe UI Emoji" font-size="36px" fill="#000000" text-anchor="start" style="white-space: pre;" direction="ltr">Score Normalization</text></g><g transform="translate(97 139.99999999999997) rotate(0 131 18)"><text x="131" y="25" font-family="Virgil, Segoe UI Emoji" font-size="28px" fill="#000000" text-anchor="middle" style="white-space: pre;" direction="ltr">Normalized Score =</text></g><g stroke-linecap="round"><g transform="translate(397.5 161.99999999999997) rotate(0 175.5 -0.5)"><path d="M0 0 C58.5 -0.17, 292.5 -0.83, 351 -1 M0 0 C58.5 -0.17, 292.5 -0.83, 351 -1" stroke="#000000" stroke-width="2" fill="none"></path></g></g><g transform="translate(412.5 108.99999999999997) rotate(0 36 18)"><text x="36" y="25" font-family="Virgil, Segoe UI Emoji" font-size="28px" fill="#000000" text-anchor="middle" style="white-space: pre;" direction="ltr">score</text></g><g transform="translate(519.5 108.99999999999997) rotate(0 6 18)"><text x="6" y="25" font-family="Virgil, Segoe UI Emoji" font-size="28px" fill="#000000" text-anchor="middle" style="white-space: pre;" direction="ltr">-</text></g><g transform="translate(561 105.99999999999997) rotate(0 61.5 18)"><text x="61.5" y="25" font-family="Virgil, Segoe UI Emoji" font-size="28px" fill="#364fc7" text-anchor="middle" style="white-space: pre;" direction="ltr">min score</text></g><g transform="translate(395.5 180.74999999999997) rotate(0 89 18)"><text x="89" y="25" font-family="Virgil, Segoe UI Emoji" font-size="28px" fill="#c92a2a" text-anchor="middle" style="white-space: pre;" direction="ltr">target score</text></g><g transform="translate(592.5 180.74999999999997) rotate(0 6 18)"><text x="6" y="25" font-family="Virgil, Segoe UI Emoji" font-size="28px" fill="#000000" text-anchor="middle" style="white-space: pre;" direction="ltr">-</text></g><g transform="translate(621 180.74999999999997) rotate(0 61.5 18)"><text x="61.5" y="25" font-family="Virgil, Segoe UI Emoji" font-size="28px" fill="#364fc7" text-anchor="middle" style="white-space: pre;" direction="ltr">min score</text></g><g stroke-linecap="round"><g transform="translate(312.9939545851812 242.99999999999997) rotate(0 35.2530227074094 -20.071080571677186)"><path d="M0 0 C11.75 -6.69, 58.76 -33.45, 70.51 -40.14 M0 0 C11.75 -6.69, 58.76 -33.45, 70.51 -40.14" stroke="#c92a2a" stroke-width="2" fill="none"></path></g><g transform="translate(312.9939545851812 242.99999999999997) rotate(0 35.2530227074094 -20.071080571677186)"><path d="M51.08 -17.28 C58.41 -25.9, 65.73 -34.52, 70.51 -40.14 M51.08 -17.28 C57.75 -25.13, 64.42 -32.98, 70.51 -40.14" stroke="#c92a2a" stroke-width="2" fill="none"></path></g><g transform="translate(312.9939545851812 242.99999999999997) rotate(0 35.2530227074094 -20.071080571677186)"><path d="M40.93 -35.11 C52.08 -37.01, 63.23 -38.9, 70.51 -40.14 M40.93 -35.11 C51.08 -36.84, 61.24 -38.57, 70.51 -40.14" stroke="#c92a2a" stroke-width="2" fill="none"></path></g></g><g transform="translate(10 250.99999999999997) rotate(0 181.5 39)"><text x="181.5" y="18" font-family="Virgil, Segoe UI Emoji" font-size="20px" fill="#c92a2a" text-anchor="middle" style="white-space: pre;" direction="ltr">target score corresponds</text><text x="181.5" y="44" font-family="Virgil, Segoe UI Emoji" font-size="20px" fill="#c92a2a" text-anchor="middle" style="white-space: pre;" direction="ltr">to a sufficient performance,</text><text x="181.5" y="70" font-family="Virgil, Segoe UI Emoji" font-size="20px" fill="#c92a2a" text-anchor="middle" style="white-space: pre;" direction="ltr">for instance human level performance</text></g><g stroke-linecap="round"><g transform="translate(793.5 255.99999999999997) rotate(0 -21.5 -19)"><path d="M0 0 C-7.17 -6.33, -35.83 -31.67, -43 -38 M0 0 C-7.17 -6.33, -35.83 -31.67, -43 -38" stroke="#364fc7" stroke-width="2" fill="none"></path></g><g transform="translate(793.5 255.99999999999997) rotate(0 -21.5 -19)"><path d="M-16.3 -27.5 C-22.14 -29.79, -27.97 -32.09, -43 -38 M-16.3 -27.5 C-24.16 -30.59, -32.03 -33.68, -43 -38" stroke="#364fc7" stroke-width="2" fill="none"></path></g><g transform="translate(793.5 255.99999999999997) rotate(0 -21.5 -19)"><path d="M-29.29 -12.79 C-32.29 -18.3, -35.29 -23.81, -43 -38 M-29.29 -12.79 C-33.33 -20.22, -37.37 -27.64, -43 -38" stroke="#364fc7" stroke-width="2" fill="none"></path></g></g><g transform="translate(675.5 261) rotate(0 156 39)"><text x="156" y="18" font-family="Virgil, Segoe UI Emoji" font-size="20px" fill="#364fc7" text-anchor="middle" style="white-space: pre;" direction="ltr">min score usually</text><text x="156" y="44" font-family="Virgil, Segoe UI Emoji" font-size="20px" fill="#364fc7" text-anchor="middle" style="white-space: pre;" direction="ltr">corresponds to the performance</text><text x="156" y="70" font-family="Virgil, Segoe UI Emoji" font-size="20px" fill="#364fc7" text-anchor="middle" style="white-space: pre;" direction="ltr">of a random agent</text></g></svg>