<svg version="1.1" xmlns="http://www.w3.org/2000/svg" viewBox="0 0 473.3380859837059 536.3695868979366" width="946.6761719674118" height="1072.7391737958733">
  <!-- svg-source:excalidraw -->
  
  <defs>
    <style class="style-fonts">
      
    </style>
    
  </defs>
  <rect x="0" y="0" width="473.3380859837059" height="536.3695868979366" fill="#ffffff"></rect><g stroke-linecap="round" transform="translate(286.84939248994465 128.96389040909185) rotate(0 21.15607315505258 15.031946715432127)"><path d="M0 0 L42.31 0 L42.31 30.06 L0 30.06" stroke="none" stroke-width="0" fill="#dadada"></path><path d="M0 0 C11 0, 22.01 0, 42.31 0 M0 0 C11.47 0, 22.95 0, 42.31 0 M42.31 0 C42.31 9.56, 42.31 19.12, 42.31 30.06 M42.31 0 C42.31 11.28, 42.31 22.56, 42.31 30.06 M42.31 30.06 C25.59 30.06, 8.86 30.06, 0 30.06 M42.31 30.06 C26.34 30.06, 10.38 30.06, 0 30.06 M0 30.06 C0 23.86, 0 17.65, 0 0 M0 30.06 C0 23.34, 0 16.62, 0 0" stroke="#979899" stroke-width="1" fill="none"></path></g><g stroke-linecap="round" transform="translate(286.84939248994465 31.70015589148329) rotate(0 21.15607315505258 15.031946715432127)"><path d="M0 0 L42.31 0 L42.31 30.06 L0 30.06" stroke="none" stroke-width="0" fill="#dadada"></path><path d="M0 0 C14.16 0, 28.32 0, 42.31 0 M0 0 C16.33 0, 32.67 0, 42.31 0 M42.31 0 C42.31 8.02, 42.31 16.04, 42.31 30.06 M42.31 0 C42.31 6.77, 42.31 13.55, 42.31 30.06 M42.31 30.06 C29.68 30.06, 17.05 30.06, 0 30.06 M42.31 30.06 C27.52 30.06, 12.72 30.06, 0 30.06 M0 30.06 C0 23.2, 0 16.33, 0 0 M0 30.06 C0 21.52, 0 12.98, 0 0" stroke="#979899" stroke-width="1" fill="none"></path></g><g stroke-linecap="round" transform="translate(266.8067968693683 54.99986775327329) rotate(0 41.19866877562873 41.198668775628676)"><path d="M82.4 41.2 C82.4 43.15, 82.26 45.13, 81.98 47.06 C81.7 49, 81.28 50.93, 80.73 52.81 C80.18 54.68, 79.49 56.54, 78.67 58.31 C77.86 60.09, 76.91 61.83, 75.86 63.47 C74.8 65.12, 73.61 66.7, 72.33 68.18 C71.05 69.66, 69.66 71.05, 68.18 72.33 C66.7 73.61, 65.12 74.8, 63.47 75.86 C61.83 76.91, 60.09 77.86, 58.31 78.67 C56.54 79.49, 54.68 80.18, 52.81 80.73 C50.93 81.28, 49 81.7, 47.06 81.98 C45.13 82.26, 43.15 82.4, 41.2 82.4 C39.24 82.4, 37.27 82.26, 35.34 81.98 C33.4 81.7, 31.47 81.28, 29.59 80.73 C27.72 80.18, 25.86 79.49, 24.08 78.67 C22.31 77.86, 20.57 76.91, 18.92 75.86 C17.28 74.8, 15.7 73.61, 14.22 72.33 C12.74 71.05, 11.34 69.66, 10.06 68.18 C8.78 66.7, 7.6 65.12, 6.54 63.47 C5.48 61.83, 4.53 60.09, 3.72 58.31 C2.91 56.54, 2.22 54.68, 1.67 52.81 C1.12 50.93, 0.7 49, 0.42 47.06 C0.14 45.13, 0 43.15, 0 41.2 C0 39.24, 0.14 37.27, 0.42 35.34 C0.7 33.4, 1.12 31.47, 1.67 29.59 C2.22 27.72, 2.91 25.86, 3.72 24.08 C4.53 22.31, 5.48 20.57, 6.54 18.92 C7.6 17.28, 8.78 15.7, 10.06 14.22 C11.34 12.74, 12.74 11.34, 14.22 10.06 C15.7 8.78, 17.28 7.6, 18.92 6.54 C20.57 5.48, 22.31 4.53, 24.08 3.72 C25.86 2.91, 27.72 2.22, 29.59 1.67 C31.47 1.12, 33.4 0.7, 35.34 0.42 C37.27 0.14, 39.24 0, 41.2 0 C43.15 0, 45.13 0.14, 47.06 0.42 C49 0.7, 50.93 1.12, 52.81 1.67 C54.68 2.22, 56.54 2.91, 58.31 3.72 C60.09 4.53, 61.83 5.48, 63.47 6.54 C65.12 7.6, 66.7 8.78, 68.18 10.06 C69.66 11.34, 71.05 12.74, 72.33 14.22 C73.61 15.7, 74.8 17.28, 75.86 18.92 C76.91 20.57, 77.86 22.31, 78.67 24.08 C79.49 25.86, 80.18 27.72, 80.73 29.59 C81.28 31.47, 81.7 33.4, 81.98 35.34 C82.26 37.27, 82.33 40.22, 82.4 41.2 C82.47 42.18, 82.47 40.22, 82.4 41.2" stroke="none" stroke-width="0" fill="#00a0aa"></path><path d="M82.4 41.2 C82.4 43.15, 82.26 45.13, 81.98 47.06 C81.7 49, 81.28 50.93, 80.73 52.81 C80.18 54.68, 79.49 56.54, 78.67 58.31 C77.86 60.09, 76.91 61.83, 75.86 63.47 C74.8 65.12, 73.61 66.7, 72.33 68.18 C71.05 69.66, 69.66 71.05, 68.18 72.33 C66.7 73.61, 65.12 74.8, 63.47 75.86 C61.83 76.91, 60.09 77.86, 58.31 78.67 C56.54 79.49, 54.68 80.18, 52.81 80.73 C50.93 81.28, 49 81.7, 47.06 81.98 C45.13 82.26, 43.15 82.4, 41.2 82.4 C39.24 82.4, 37.27 82.26, 35.34 81.98 C33.4 81.7, 31.47 81.28, 29.59 80.73 C27.72 80.18, 25.86 79.49, 24.08 78.67 C22.31 77.86, 20.57 76.91, 18.92 75.86 C17.28 74.8, 15.7 73.61, 14.22 72.33 C12.74 71.05, 11.34 69.66, 10.06 68.18 C8.78 66.7, 7.6 65.12, 6.54 63.47 C5.48 61.83, 4.53 60.09, 3.72 58.31 C2.91 56.54, 2.22 54.68, 1.67 52.81 C1.12 50.93, 0.7 49, 0.42 47.06 C0.14 45.13, 0 43.15, 0 41.2 C0 39.24, 0.14 37.27, 0.42 35.34 C0.7 33.4, 1.12 31.47, 1.67 29.59 C2.22 27.72, 2.91 25.86, 3.72 24.08 C4.53 22.31, 5.48 20.57, 6.54 18.92 C7.6 17.28, 8.78 15.7, 10.06 14.22 C11.34 12.74, 12.74 11.34, 14.22 10.06 C15.7 8.78, 17.28 7.6, 18.92 6.54 C20.57 5.48, 22.31 4.53, 24.08 3.72 C25.86 2.91, 27.72 2.22, 29.59 1.67 C31.47 1.12, 33.4 0.7, 35.34 0.42 C37.27 0.14, 39.24 0, 41.2 0 C43.15 0, 45.13 0.14, 47.06 0.42 C49 0.7, 50.93 1.12, 52.81 1.67 C54.68 2.22, 56.54 2.91, 58.31 3.72 C60.09 4.53, 61.83 5.48, 63.47 6.54 C65.12 7.6, 66.7 8.78, 68.18 10.06 C69.66 11.34, 71.05 12.74, 72.33 14.22 C73.61 15.7, 74.8 17.28, 75.86 18.92 C76.91 20.57, 77.86 22.31, 78.67 24.08 C79.49 25.86, 80.18 27.72, 80.73 29.59 C81.28 31.47, 81.7 33.4, 81.98 35.34 C82.26 37.27, 82.33 40.22, 82.4 41.2 C82.47 42.18, 82.47 40.22, 82.4 41.2" stroke="#0d98a0" stroke-width="2" fill="none"></path></g><g stroke-linecap="round" transform="translate(251.0152353434853 88.83392675597202) rotate(0 30.072156572797667 7.364609772929953)"><path d="M0 0 L60.14 0 L60.14 14.73 L0 14.73" stroke="none" stroke-width="0" fill="#dadada"></path><path d="M0 0 C19.69 0, 39.39 0, 60.14 0 M0 0 C15.14 0, 30.28 0, 60.14 0 M60.14 0 C60.14 4.6, 60.14 9.21, 60.14 14.73 M60.14 0 C60.14 5.25, 60.14 10.51, 60.14 14.73 M60.14 14.73 C45.01 14.73, 29.87 14.73, 0 14.73 M60.14 14.73 C39.67 14.73, 19.2 14.73, 0 14.73 M0 14.73 C0 10.53, 0 6.33, 0 0 M0 14.73 C0 10.15, 0 5.58, 0 0" stroke="#979899" stroke-width="1" fill="none"></path></g><g stroke-linecap="round"><g transform="translate(10 10) rotate(0 221.3126229613125 0)"><path d="M0 0 C73.77 0, 368.85 0, 442.63 0 M0 0 C73.77 0, 368.85 0, 442.63 0" stroke="#393e46" stroke-width="4" fill="none"></path></g></g><mask></mask><g stroke-linecap="round"><g transform="translate(10.823454130509162 278.9520509699114) rotate(0 222.8126229613125 0)"><path d="M0 0 C74.27 0, 371.35 0, 445.63 0" stroke="#fab005" stroke-width="4.5" fill="none" stroke-dasharray="8 12"></path></g></g><mask></mask><g stroke-linecap="round"><g transform="translate(11.712840061080897 526.3695868979366) rotate(0 225.8126229613125 0)"><path d="M0 0 C75.27 0, 376.35 0, 451.63 0 M0 0 C75.27 0, 376.35 0, 451.63 0" stroke="#393e46" stroke-width="4" fill="none"></path></g></g><mask></mask></svg>