<svg version="1.1" xmlns="http://www.w3.org/2000/svg" viewBox="0 0 473.44165495794095 536.4875559592065" width="946.8833099158819" height="1072.975111918413">
  <!-- svg-source:excalidraw -->
  
  <defs>
    <style class="style-fonts">
      
    </style>
    
  </defs>
  <g stroke-opacity="0.6" fill-opacity="0.6" stroke-linecap="round" transform="translate(351.08459403741244 311.19573197126056) rotate(346.51639032286414 21.16090644143037 15.035380892595299)"><path d="M0 0 L42.32 0 L42.32 30.07 L0 30.07" stroke="none" stroke-width="0" fill="#dadada"></path><path d="M0 0 C9.68 0, 19.36 0, 42.32 0 M0 0 C15.84 0, 31.69 0, 42.32 0 M42.32 0 C42.32 6.75, 42.32 13.49, 42.32 30.07 M42.32 0 C42.32 6.71, 42.32 13.43, 42.32 30.07 M42.32 30.07 C26.1 30.07, 9.88 30.07, 0 30.07 M42.32 30.07 C32.07 30.07, 21.83 30.07, 0 30.07 M0 30.07 C0 20.14, 0 10.21, 0 0 M0 30.07 C0 23.63, 0 17.19, 0 0" stroke="#979899" stroke-width="1" fill="none"></path></g><g stroke-opacity="0.6" fill-opacity="0.6" stroke-linecap="round" transform="translate(373.76848716227687 405.8001614764412) rotate(346.51639032286414 21.16090644143037 15.035380892595299)"><path d="M0 0 L42.32 0 L42.32 30.07 L0 30.07" stroke="none" stroke-width="0" fill="#dadada"></path><path d="M0 0 C13.71 0, 27.42 0, 42.32 0 M0 0 C12.13 0, 24.25 0, 42.32 0 M42.32 0 C42.32 10.11, 42.32 20.23, 42.32 30.07 M42.32 0 C42.32 6.33, 42.32 12.66, 42.32 30.07 M42.32 30.07 C26.92 30.07, 11.53 30.07, 0 30.07 M42.32 30.07 C26.82 30.07, 11.33 30.07, 0 30.07 M0 30.07 C0 21.49, 0 12.92, 0 0 M0 30.07 C0 23.44, 0 16.81, 0 0" stroke="#979899" stroke-width="1" fill="none"></path></g><g stroke-opacity="0.6" fill-opacity="0.6" stroke-linecap="round" transform="translate(342.18472805341344 331.51349802349773) rotate(346.51639032286414 41.20808096489077 41.20808096489077)"><path d="M82.42 41.21 C82.42 43.16, 82.27 45.14, 82 47.07 C81.72 49.01, 81.3 50.94, 80.75 52.82 C80.2 54.69, 79.5 56.55, 78.69 58.33 C77.88 60.1, 76.93 61.84, 75.87 63.49 C74.82 65.13, 73.63 66.72, 72.35 68.19 C71.07 69.67, 69.67 71.07, 68.19 72.35 C66.72 73.63, 65.13 74.82, 63.49 75.87 C61.84 76.93, 60.1 77.88, 58.33 78.69 C56.55 79.5, 54.69 80.2, 52.82 80.75 C50.94 81.3, 49.01 81.72, 47.07 82 C45.14 82.27, 43.16 82.42, 41.21 82.42 C39.25 82.42, 37.28 82.27, 35.34 82 C33.41 81.72, 31.47 81.3, 29.6 80.75 C27.72 80.2, 25.87 79.5, 24.09 78.69 C22.31 77.88, 20.57 76.93, 18.93 75.87 C17.28 74.82, 15.7 73.63, 14.22 72.35 C12.75 71.07, 11.35 69.67, 10.07 68.19 C8.78 66.72, 7.6 65.13, 6.54 63.49 C5.48 61.84, 4.54 60.1, 3.72 58.33 C2.91 56.55, 2.22 54.69, 1.67 52.82 C1.12 50.94, 0.7 49.01, 0.42 47.07 C0.14 45.14, 0 43.16, 0 41.21 C0 39.25, 0.14 37.28, 0.42 35.34 C0.7 33.41, 1.12 31.47, 1.67 29.6 C2.22 27.72, 2.91 25.87, 3.72 24.09 C4.54 22.31, 5.48 20.57, 6.54 18.93 C7.6 17.28, 8.78 15.7, 10.07 14.22 C11.35 12.75, 12.75 11.35, 14.22 10.07 C15.7 8.78, 17.28 7.6, 18.93 6.54 C20.57 5.48, 22.31 4.54, 24.09 3.72 C25.87 2.91, 27.72 2.22, 29.6 1.67 C31.47 1.12, 33.41 0.7, 35.34 0.42 C37.28 0.14, 39.25 0, 41.21 0 C43.16 0, 45.14 0.14, 47.07 0.42 C49.01 0.7, 50.94 1.12, 52.82 1.67 C54.69 2.22, 56.55 2.91, 58.33 3.72 C60.1 4.54, 61.84 5.48, 63.49 6.54 C65.13 7.6, 66.72 8.78, 68.19 10.07 C69.67 11.35, 71.07 12.75, 72.35 14.22 C73.63 15.7, 74.82 17.28, 75.87 18.93 C76.93 20.57, 77.88 22.31, 78.69 24.09 C79.5 25.87, 80.2 27.72, 80.75 29.6 C81.3 31.47, 81.72 33.41, 82 35.34 C82.27 37.28, 82.35 40.23, 82.42 41.21 C82.49 42.19, 82.49 40.23, 82.42 41.21" stroke="none" stroke-width="0" fill="#00a0aa"></path><path d="M82.42 41.21 C82.42 43.16, 82.27 45.14, 82 47.07 C81.72 49.01, 81.3 50.94, 80.75 52.82 C80.2 54.69, 79.5 56.55, 78.69 58.33 C77.88 60.1, 76.93 61.84, 75.87 63.49 C74.82 65.13, 73.63 66.72, 72.35 68.19 C71.07 69.67, 69.67 71.07, 68.19 72.35 C66.72 73.63, 65.13 74.82, 63.49 75.87 C61.84 76.93, 60.1 77.88, 58.33 78.69 C56.55 79.5, 54.69 80.2, 52.82 80.75 C50.94 81.3, 49.01 81.72, 47.07 82 C45.14 82.27, 43.16 82.42, 41.21 82.42 C39.25 82.42, 37.28 82.27, 35.34 82 C33.41 81.72, 31.47 81.3, 29.6 80.75 C27.72 80.2, 25.87 79.5, 24.09 78.69 C22.31 77.88, 20.57 76.93, 18.93 75.87 C17.28 74.82, 15.7 73.63, 14.22 72.35 C12.75 71.07, 11.35 69.67, 10.07 68.19 C8.78 66.72, 7.6 65.13, 6.54 63.49 C5.48 61.84, 4.54 60.1, 3.72 58.33 C2.91 56.55, 2.22 54.69, 1.67 52.82 C1.12 50.94, 0.7 49.01, 0.42 47.07 C0.14 45.14, 0 43.16, 0 41.21 C0 39.25, 0.14 37.28, 0.42 35.34 C0.7 33.41, 1.12 31.47, 1.67 29.6 C2.22 27.72, 2.91 25.87, 3.72 24.09 C4.54 22.31, 5.48 20.57, 6.54 18.93 C7.6 17.28, 8.78 15.7, 10.07 14.22 C11.35 12.75, 12.75 11.35, 14.22 10.07 C15.7 8.78, 17.28 7.6, 18.93 6.54 C20.57 5.48, 22.31 4.54, 24.09 3.72 C25.87 2.91, 27.72 2.22, 29.6 1.67 C31.47 1.12, 33.41 0.7, 35.34 0.42 C37.28 0.14, 39.25 0, 41.21 0 C43.16 0, 45.14 0.14, 47.07 0.42 C49.01 0.7, 50.94 1.12, 52.82 1.67 C54.69 2.22, 56.55 2.91, 58.33 3.72 C60.1 4.54, 61.84 5.48, 63.49 6.54 C65.13 7.6, 66.72 8.78, 68.19 10.07 C69.67 11.35, 71.07 12.75, 72.35 14.22 C73.63 15.7, 74.82 17.28, 75.87 18.93 C76.93 20.57, 77.88 22.31, 78.69 24.09 C79.5 25.87, 80.2 27.72, 80.75 29.6 C81.3 31.47, 81.72 33.41, 82 35.34 C82.27 37.28, 82.35 40.23, 82.42 41.21 C82.49 42.19, 82.49 40.23, 82.42 41.21" stroke="#0d98a0" stroke-width="2" fill="none"></path></g><g stroke-opacity="0.6" fill-opacity="0.6" stroke-linecap="round" transform="translate(327.13168030165843 371.63313230521726) rotate(346.51639032286414 30.07902681490964 7.366292281202277)"><path d="M0 0 L60.16 0 L60.16 14.73 L0 14.73" stroke="none" stroke-width="0" fill="#dadada"></path><path d="M0 0 C17.54 0, 35.08 0, 60.16 0 M0 0 C23.5 0, 46.99 0, 60.16 0 M60.16 0 C60.16 4.89, 60.16 9.78, 60.16 14.73 M60.16 0 C60.16 4.06, 60.16 8.13, 60.16 14.73 M60.16 14.73 C42.97 14.73, 25.79 14.73, 0 14.73 M60.16 14.73 C47.56 14.73, 34.96 14.73, 0 14.73 M0 14.73 C0 9.36, 0 3.99, 0 0 M0 14.73 C0 11.78, 0 8.83, 0 0" stroke="#979899" stroke-width="1" fill="none"></path></g><g stroke-linecap="round"><g transform="translate(10 526.4875559592065) rotate(0 221.36318372832966 0)"><path d="M0 0 C73.79 0, 368.94 0, 442.73 0 M0 0 C73.79 0, 368.94 0, 442.73 0" stroke="#393e46" stroke-width="4" fill="none"></path></g></g><mask></mask><g stroke-linecap="round"><g transform="translate(10.823642255668346 257.47406058632373) rotate(0 222.86352641619578 0)"><path d="M0 0 C74.29 0, 371.44 0, 445.73 0" stroke="#fab005" stroke-width="4.5" fill="none" stroke-dasharray="8 12"></path></g></g><mask></mask><g stroke-linecap="round"><g transform="translate(11.713231374084671 10) rotate(0 225.86421179192814 0)"><path d="M0 0 C75.29 0, 376.44 0, 451.73 0 M0 0 C75.29 0, 376.44 0, 451.73 0" stroke="#393e46" stroke-width="4" fill="none"></path></g></g><mask></mask><g stroke-opacity="0.8" fill-opacity="0.8" stroke-linecap="round" transform="translate(254.22842477824815 332.96344544119074) rotate(4.420837829112345 21.16090644143037 15.035380892595299)"><path d="M0 0 L42.32 0 L42.32 30.07 L0 30.07" stroke="none" stroke-width="0" fill="#dadada"></path><path d="M0 0 C9.49 0, 18.99 0, 42.32 0 M0 0 C9.45 0, 18.9 0, 42.32 0 M42.32 0 C42.32 11.52, 42.32 23.05, 42.32 30.07 M42.32 0 C42.32 7.28, 42.32 14.56, 42.32 30.07 M42.32 30.07 C28.34 30.07, 14.37 30.07, 0 30.07 M42.32 30.07 C33.26 30.07, 24.19 30.07, 0 30.07 M0 30.07 C0 22.77, 0 15.48, 0 0 M0 30.07 C0 20.06, 0 10.04, 0 0" stroke="#979899" stroke-width="1" fill="none"></path></g><g stroke-opacity="0.8" fill-opacity="0.8" stroke-linecap="round" transform="translate(246.72946380903795 429.95995400558877) rotate(4.420837829112345 21.16090644143037 15.035380892595299)"><path d="M0 0 L42.32 0 L42.32 30.07 L0 30.07" stroke="none" stroke-width="0" fill="#dadada"></path><path d="M0 0 C14.23 0, 28.47 0, 42.32 0 M0 0 C8.91 0, 17.82 0, 42.32 0 M42.32 0 C42.32 10.94, 42.32 21.88, 42.32 30.07 M42.32 0 C42.32 11.01, 42.32 22.02, 42.32 30.07 M42.32 30.07 C30.25 30.07, 18.18 30.07, 0 30.07 M42.32 30.07 C32.99 30.07, 23.66 30.07, 0 30.07 M0 30.07 C0 22.35, 0 14.63, 0 0 M0 30.07 C0 20.29, 0 10.5, 0 0" stroke="#979899" stroke-width="1" fill="none"></path></g><g stroke-opacity="0.8" fill-opacity="0.8" stroke-linecap="round" transform="translate(230.49611423386614 354.4567259069861) rotate(4.420837829112345 41.20808096489077 41.20808096489077)"><path d="M82.42 41.21 C82.42 43.16, 82.27 45.14, 82 47.07 C81.72 49.01, 81.3 50.94, 80.75 52.82 C80.2 54.69, 79.5 56.55, 78.69 58.33 C77.88 60.1, 76.93 61.84, 75.87 63.49 C74.82 65.13, 73.63 66.72, 72.35 68.19 C71.07 69.67, 69.67 71.07, 68.19 72.35 C66.72 73.63, 65.13 74.82, 63.49 75.87 C61.84 76.93, 60.1 77.88, 58.33 78.69 C56.55 79.5, 54.69 80.2, 52.82 80.75 C50.94 81.3, 49.01 81.72, 47.07 82 C45.14 82.27, 43.16 82.42, 41.21 82.42 C39.25 82.42, 37.28 82.27, 35.34 82 C33.41 81.72, 31.47 81.3, 29.6 80.75 C27.72 80.2, 25.87 79.5, 24.09 78.69 C22.31 77.88, 20.57 76.93, 18.93 75.87 C17.28 74.82, 15.7 73.63, 14.22 72.35 C12.75 71.07, 11.35 69.67, 10.07 68.19 C8.78 66.72, 7.6 65.13, 6.54 63.49 C5.48 61.84, 4.54 60.1, 3.72 58.33 C2.91 56.55, 2.22 54.69, 1.67 52.82 C1.12 50.94, 0.7 49.01, 0.42 47.07 C0.14 45.14, 0 43.16, 0 41.21 C0 39.25, 0.14 37.28, 0.42 35.34 C0.7 33.41, 1.12 31.47, 1.67 29.6 C2.22 27.72, 2.91 25.87, 3.72 24.09 C4.54 22.31, 5.48 20.57, 6.54 18.93 C7.6 17.28, 8.78 15.7, 10.07 14.22 C11.35 12.75, 12.75 11.35, 14.22 10.07 C15.7 8.78, 17.28 7.6, 18.93 6.54 C20.57 5.48, 22.31 4.54, 24.09 3.72 C25.87 2.91, 27.72 2.22, 29.6 1.67 C31.47 1.12, 33.41 0.7, 35.34 0.42 C37.28 0.14, 39.25 0, 41.21 0 C43.16 0, 45.14 0.14, 47.07 0.42 C49.01 0.7, 50.94 1.12, 52.82 1.67 C54.69 2.22, 56.55 2.91, 58.33 3.72 C60.1 4.54, 61.84 5.48, 63.49 6.54 C65.13 7.6, 66.72 8.78, 68.19 10.07 C69.67 11.35, 71.07 12.75, 72.35 14.22 C73.63 15.7, 74.82 17.28, 75.87 18.93 C76.93 20.57, 77.88 22.31, 78.69 24.09 C79.5 25.87, 80.2 27.72, 80.75 29.6 C81.3 31.47, 81.72 33.41, 82 35.34 C82.27 37.28, 82.35 40.23, 82.42 41.21 C82.49 42.19, 82.49 40.23, 82.42 41.21" stroke="none" stroke-width="0" fill="#00a0aa"></path><path d="M82.42 41.21 C82.42 43.16, 82.27 45.14, 82 47.07 C81.72 49.01, 81.3 50.94, 80.75 52.82 C80.2 54.69, 79.5 56.55, 78.69 58.33 C77.88 60.1, 76.93 61.84, 75.87 63.49 C74.82 65.13, 73.63 66.72, 72.35 68.19 C71.07 69.67, 69.67 71.07, 68.19 72.35 C66.72 73.63, 65.13 74.82, 63.49 75.87 C61.84 76.93, 60.1 77.88, 58.33 78.69 C56.55 79.5, 54.69 80.2, 52.82 80.75 C50.94 81.3, 49.01 81.72, 47.07 82 C45.14 82.27, 43.16 82.42, 41.21 82.42 C39.25 82.42, 37.28 82.27, 35.34 82 C33.41 81.72, 31.47 81.3, 29.6 80.75 C27.72 80.2, 25.87 79.5, 24.09 78.69 C22.31 77.88, 20.57 76.93, 18.93 75.87 C17.28 74.82, 15.7 73.63, 14.22 72.35 C12.75 71.07, 11.35 69.67, 10.07 68.19 C8.78 66.72, 7.6 65.13, 6.54 63.49 C5.48 61.84, 4.54 60.1, 3.72 58.33 C2.91 56.55, 2.22 54.69, 1.67 52.82 C1.12 50.94, 0.7 49.01, 0.42 47.07 C0.14 45.14, 0 43.16, 0 41.21 C0 39.25, 0.14 37.28, 0.42 35.34 C0.7 33.41, 1.12 31.47, 1.67 29.6 C2.22 27.72, 2.91 25.87, 3.72 24.09 C4.54 22.31, 5.48 20.57, 6.54 18.93 C7.6 17.28, 8.78 15.7, 10.07 14.22 C11.35 12.75, 12.75 11.35, 14.22 10.07 C15.7 8.78, 17.28 7.6, 18.93 6.54 C20.57 5.48, 22.31 4.54, 24.09 3.72 C25.87 2.91, 27.72 2.22, 29.6 1.67 C31.47 1.12, 33.41 0.7, 35.34 0.42 C37.28 0.14, 39.25 0, 41.21 0 C43.16 0, 45.14 0.14, 47.07 0.42 C49.01 0.7, 50.94 1.12, 52.82 1.67 C54.69 2.22, 56.55 2.91, 58.33 3.72 C60.1 4.54, 61.84 5.48, 63.49 6.54 C65.13 7.6, 66.72 8.78, 68.19 10.07 C69.67 11.35, 71.07 12.75, 72.35 14.22 C73.63 15.7, 74.82 17.28, 75.87 18.93 C76.93 20.57, 77.88 22.31, 78.69 24.09 C79.5 25.87, 80.2 27.72, 80.75 29.6 C81.3 31.47, 81.72 33.41, 82 35.34 C82.27 37.28, 82.35 40.23, 82.42 41.21 C82.49 42.19, 82.49 40.23, 82.42 41.21" stroke="#0d98a0" stroke-width="2" fill="none"></path></g><g stroke-opacity="0.8" fill-opacity="0.8" stroke-linecap="round" transform="translate(214.7810503586279 386.22315129870344) rotate(4.420837829112345 30.07902681490964 7.366292281202277)"><path d="M0 0 L60.16 0 L60.16 14.73 L0 14.73" stroke="none" stroke-width="0" fill="#dadada"></path><path d="M0 0 C19.97 0, 39.93 0, 60.16 0 M0 0 C16.6 0, 33.19 0, 60.16 0 M60.16 0 C60.16 4.21, 60.16 8.42, 60.16 14.73 M60.16 0 C60.16 3.09, 60.16 6.17, 60.16 14.73 M60.16 14.73 C38.23 14.73, 16.31 14.73, 0 14.73 M60.16 14.73 C48.1 14.73, 36.05 14.73, 0 14.73 M0 14.73 C0 10.21, 0 5.68, 0 0 M0 14.73 C0 10.42, 0 6.1, 0 0" stroke="#979899" stroke-width="1" fill="none"></path></g><g stroke-opacity="0.9" fill-opacity="0.9" stroke-linecap="round" transform="translate(160.8124747866359 323.92478919748464) rotate(23.108189334323395 21.16090644143037 15.035380892595299)"><path d="M0 0 L42.32 0 L42.32 30.07 L0 30.07" stroke="none" stroke-width="0" fill="#dadada"></path><path d="M0 0 C10.93 0, 21.86 0, 42.32 0 M0 0 C13.27 0, 26.54 0, 42.32 0 M42.32 0 C42.32 6.84, 42.32 13.69, 42.32 30.07 M42.32 0 C42.32 6.18, 42.32 12.36, 42.32 30.07 M42.32 30.07 C29.75 30.07, 17.17 30.07, 0 30.07 M42.32 30.07 C28.86 30.07, 15.41 30.07, 0 30.07 M0 30.07 C0 23.76, 0 17.44, 0 0 M0 30.07 C0 23.18, 0 16.29, 0 0" stroke="#979899" stroke-width="1" fill="none"></path></g><g stroke-opacity="0.9" fill-opacity="0.9" stroke-linecap="round" transform="translate(122.63079373815162 413.40504579978165) rotate(23.108189334323395 21.16090644143037 15.035380892595299)"><path d="M0 0 L42.32 0 L42.32 30.07 L0 30.07" stroke="none" stroke-width="0" fill="#dadada"></path><path d="M0 0 C11.06 0, 22.12 0, 42.32 0 M0 0 C10 0, 20 0, 42.32 0 M42.32 0 C42.32 9.36, 42.32 18.71, 42.32 30.07 M42.32 0 C42.32 8.59, 42.32 17.18, 42.32 30.07 M42.32 30.07 C26.39 30.07, 10.45 30.07, 0 30.07 M42.32 30.07 C27.85 30.07, 13.39 30.07, 0 30.07 M0 30.07 C0 21.68, 0 13.28, 0 0 M0 30.07 C0 22.82, 0 15.57, 0 0" stroke="#979899" stroke-width="1" fill="none"></path></g><g stroke-opacity="0.9" fill-opacity="0.9" stroke-linecap="round" transform="translate(122.00207576463254 341.7244365104225) rotate(23.108189334323395 41.20808096489077 41.20808096489077)"><path d="M82.42 41.21 C82.42 43.16, 82.27 45.14, 82 47.07 C81.72 49.01, 81.3 50.94, 80.75 52.82 C80.2 54.69, 79.5 56.55, 78.69 58.33 C77.88 60.1, 76.93 61.84, 75.87 63.49 C74.82 65.13, 73.63 66.72, 72.35 68.19 C71.07 69.67, 69.67 71.07, 68.19 72.35 C66.72 73.63, 65.13 74.82, 63.49 75.87 C61.84 76.93, 60.1 77.88, 58.33 78.69 C56.55 79.5, 54.69 80.2, 52.82 80.75 C50.94 81.3, 49.01 81.72, 47.07 82 C45.14 82.27, 43.16 82.42, 41.21 82.42 C39.25 82.42, 37.28 82.27, 35.34 82 C33.41 81.72, 31.47 81.3, 29.6 80.75 C27.72 80.2, 25.87 79.5, 24.09 78.69 C22.31 77.88, 20.57 76.93, 18.93 75.87 C17.28 74.82, 15.7 73.63, 14.22 72.35 C12.75 71.07, 11.35 69.67, 10.07 68.19 C8.78 66.72, 7.6 65.13, 6.54 63.49 C5.48 61.84, 4.54 60.1, 3.72 58.33 C2.91 56.55, 2.22 54.69, 1.67 52.82 C1.12 50.94, 0.7 49.01, 0.42 47.07 C0.14 45.14, 0 43.16, 0 41.21 C0 39.25, 0.14 37.28, 0.42 35.34 C0.7 33.41, 1.12 31.47, 1.67 29.6 C2.22 27.72, 2.91 25.87, 3.72 24.09 C4.54 22.31, 5.48 20.57, 6.54 18.93 C7.6 17.28, 8.78 15.7, 10.07 14.22 C11.35 12.75, 12.75 11.35, 14.22 10.07 C15.7 8.78, 17.28 7.6, 18.93 6.54 C20.57 5.48, 22.31 4.54, 24.09 3.72 C25.87 2.91, 27.72 2.22, 29.6 1.67 C31.47 1.12, 33.41 0.7, 35.34 0.42 C37.28 0.14, 39.25 0, 41.21 0 C43.16 0, 45.14 0.14, 47.07 0.42 C49.01 0.7, 50.94 1.12, 52.82 1.67 C54.69 2.22, 56.55 2.91, 58.33 3.72 C60.1 4.54, 61.84 5.48, 63.49 6.54 C65.13 7.6, 66.72 8.78, 68.19 10.07 C69.67 11.35, 71.07 12.75, 72.35 14.22 C73.63 15.7, 74.82 17.28, 75.87 18.93 C76.93 20.57, 77.88 22.31, 78.69 24.09 C79.5 25.87, 80.2 27.72, 80.75 29.6 C81.3 31.47, 81.72 33.41, 82 35.34 C82.27 37.28, 82.35 40.23, 82.42 41.21 C82.49 42.19, 82.49 40.23, 82.42 41.21" stroke="none" stroke-width="0" fill="#00a0aa"></path><path d="M82.42 41.21 C82.42 43.16, 82.27 45.14, 82 47.07 C81.72 49.01, 81.3 50.94, 80.75 52.82 C80.2 54.69, 79.5 56.55, 78.69 58.33 C77.88 60.1, 76.93 61.84, 75.87 63.49 C74.82 65.13, 73.63 66.72, 72.35 68.19 C71.07 69.67, 69.67 71.07, 68.19 72.35 C66.72 73.63, 65.13 74.82, 63.49 75.87 C61.84 76.93, 60.1 77.88, 58.33 78.69 C56.55 79.5, 54.69 80.2, 52.82 80.75 C50.94 81.3, 49.01 81.72, 47.07 82 C45.14 82.27, 43.16 82.42, 41.21 82.42 C39.25 82.42, 37.28 82.27, 35.34 82 C33.41 81.72, 31.47 81.3, 29.6 80.75 C27.72 80.2, 25.87 79.5, 24.09 78.69 C22.31 77.88, 20.57 76.93, 18.93 75.87 C17.28 74.82, 15.7 73.63, 14.22 72.35 C12.75 71.07, 11.35 69.67, 10.07 68.19 C8.78 66.72, 7.6 65.13, 6.54 63.49 C5.48 61.84, 4.54 60.1, 3.72 58.33 C2.91 56.55, 2.22 54.69, 1.67 52.82 C1.12 50.94, 0.7 49.01, 0.42 47.07 C0.14 45.14, 0 43.16, 0 41.21 C0 39.25, 0.14 37.28, 0.42 35.34 C0.7 33.41, 1.12 31.47, 1.67 29.6 C2.22 27.72, 2.91 25.87, 3.72 24.09 C4.54 22.31, 5.48 20.57, 6.54 18.93 C7.6 17.28, 8.78 15.7, 10.07 14.22 C11.35 12.75, 12.75 11.35, 14.22 10.07 C15.7 8.78, 17.28 7.6, 18.93 6.54 C20.57 5.48, 22.31 4.54, 24.09 3.72 C25.87 2.91, 27.72 2.22, 29.6 1.67 C31.47 1.12, 33.41 0.7, 35.34 0.42 C37.28 0.14, 39.25 0, 41.21 0 C43.16 0, 45.14 0.14, 47.07 0.42 C49.01 0.7, 50.94 1.12, 52.82 1.67 C54.69 2.22, 56.55 2.91, 58.33 3.72 C60.1 4.54, 61.84 5.48, 63.49 6.54 C65.13 7.6, 66.72 8.78, 68.19 10.07 C69.67 11.35, 71.07 12.75, 72.35 14.22 C73.63 15.7, 74.82 17.28, 75.87 18.93 C76.93 20.57, 77.88 22.31, 78.69 24.09 C79.5 25.87, 80.2 27.72, 80.75 29.6 C81.3 31.47, 81.72 33.41, 82 35.34 C82.27 37.28, 82.35 40.23, 82.42 41.21 C82.49 42.19, 82.49 40.23, 82.42 41.21" stroke="#0d98a0" stroke-width="2" fill="none"></path></g><g stroke-opacity="0.9" fill-opacity="0.9" stroke-linecap="round" transform="translate(108.36716052323845 364.9993133780406) rotate(23.108189334323395 30.07902681490964 7.366292281202277)"><path d="M0 0 L60.16 0 L60.16 14.73 L0 14.73" stroke="none" stroke-width="0" fill="#dadada"></path><path d="M0 0 C23.05 0, 46.11 0, 60.16 0 M0 0 C14.57 0, 29.13 0, 60.16 0 M60.16 0 C60.16 4.87, 60.16 9.73, 60.16 14.73 M60.16 0 C60.16 3.16, 60.16 6.31, 60.16 14.73 M60.16 14.73 C45.56 14.73, 30.96 14.73, 0 14.73 M60.16 14.73 C40.13 14.73, 20.09 14.73, 0 14.73 M0 14.73 C0 9.94, 0 5.16, 0 0 M0 14.73 C0 9.91, 0 5.09, 0 0" stroke="#979899" stroke-width="1" fill="none"></path></g><g stroke-linecap="round" transform="translate(95.19056870029954 283.7154567636244) rotate(38.53035065306192 21.16090644143037 15.035380892595299)"><path d="M0 0 L42.32 0 L42.32 30.07 L0 30.07" stroke="none" stroke-width="0" fill="#dadada"></path><path d="M0 0 C15.4 0, 30.79 0, 42.32 0 M0 0 C15.5 0, 30.99 0, 42.32 0 M42.32 0 C42.32 8.58, 42.32 17.15, 42.32 30.07 M42.32 0 C42.32 6.63, 42.32 13.26, 42.32 30.07 M42.32 30.07 C31.46 30.07, 20.59 30.07, 0 30.07 M42.32 30.07 C28.55 30.07, 14.78 30.07, 0 30.07 M0 30.07 C0 18.44, 0 6.81, 0 0 M0 30.07 C0 22.76, 0 15.44, 0 0" stroke="#979899" stroke-width="1" fill="none"></path></g><g stroke-linecap="round" transform="translate(34.58831502857265 359.8201474154421) rotate(38.53035065306192 21.16090644143037 15.035380892595299)"><path d="M0 0 L42.32 0 L42.32 30.07 L0 30.07" stroke="none" stroke-width="0" fill="#dadada"></path><path d="M0 0 C16.68 0, 33.36 0, 42.32 0 M0 0 C8.75 0, 17.49 0, 42.32 0 M42.32 0 C42.32 8.14, 42.32 16.27, 42.32 30.07 M42.32 0 C42.32 11.33, 42.32 22.67, 42.32 30.07 M42.32 30.07 C28.71 30.07, 15.09 30.07, 0 30.07 M42.32 30.07 C32.83 30.07, 23.33 30.07, 0 30.07 M0 30.07 C0 23.01, 0 15.95, 0 0 M0 30.07 C0 21.95, 0 13.83, 0 0" stroke="#979899" stroke-width="1" fill="none"></path></g><g stroke-linecap="round" transform="translate(45.36226198110489 294.94208948337905) rotate(38.53035065306192 41.20808096489077 41.20808096489077)"><path d="M82.42 41.21 C82.42 43.16, 82.27 45.14, 82 47.07 C81.72 49.01, 81.3 50.94, 80.75 52.82 C80.2 54.69, 79.5 56.55, 78.69 58.33 C77.88 60.1, 76.93 61.84, 75.87 63.49 C74.82 65.13, 73.63 66.72, 72.35 68.19 C71.07 69.67, 69.67 71.07, 68.19 72.35 C66.72 73.63, 65.13 74.82, 63.49 75.87 C61.84 76.93, 60.1 77.88, 58.33 78.69 C56.55 79.5, 54.69 80.2, 52.82 80.75 C50.94 81.3, 49.01 81.72, 47.07 82 C45.14 82.27, 43.16 82.42, 41.21 82.42 C39.25 82.42, 37.28 82.27, 35.34 82 C33.41 81.72, 31.47 81.3, 29.6 80.75 C27.72 80.2, 25.87 79.5, 24.09 78.69 C22.31 77.88, 20.57 76.93, 18.93 75.87 C17.28 74.82, 15.7 73.63, 14.22 72.35 C12.75 71.07, 11.35 69.67, 10.07 68.19 C8.78 66.72, 7.6 65.13, 6.54 63.49 C5.48 61.84, 4.54 60.1, 3.72 58.33 C2.91 56.55, 2.22 54.69, 1.67 52.82 C1.12 50.94, 0.7 49.01, 0.42 47.07 C0.14 45.14, 0 43.16, 0 41.21 C0 39.25, 0.14 37.28, 0.42 35.34 C0.7 33.41, 1.12 31.47, 1.67 29.6 C2.22 27.72, 2.91 25.87, 3.72 24.09 C4.54 22.31, 5.48 20.57, 6.54 18.93 C7.6 17.28, 8.78 15.7, 10.07 14.22 C11.35 12.75, 12.75 11.35, 14.22 10.07 C15.7 8.78, 17.28 7.6, 18.93 6.54 C20.57 5.48, 22.31 4.54, 24.09 3.72 C25.87 2.91, 27.72 2.22, 29.6 1.67 C31.47 1.12, 33.41 0.7, 35.34 0.42 C37.28 0.14, 39.25 0, 41.21 0 C43.16 0, 45.14 0.14, 47.07 0.42 C49.01 0.7, 50.94 1.12, 52.82 1.67 C54.69 2.22, 56.55 2.91, 58.33 3.72 C60.1 4.54, 61.84 5.48, 63.49 6.54 C65.13 7.6, 66.72 8.78, 68.19 10.07 C69.67 11.35, 71.07 12.75, 72.35 14.22 C73.63 15.7, 74.82 17.28, 75.87 18.93 C76.93 20.57, 77.88 22.31, 78.69 24.09 C79.5 25.87, 80.2 27.72, 80.75 29.6 C81.3 31.47, 81.72 33.41, 82 35.34 C82.27 37.28, 82.35 40.23, 82.42 41.21 C82.49 42.19, 82.49 40.23, 82.42 41.21" stroke="none" stroke-width="0" fill="#00a0aa"></path><path d="M82.42 41.21 C82.42 43.16, 82.27 45.14, 82 47.07 C81.72 49.01, 81.3 50.94, 80.75 52.82 C80.2 54.69, 79.5 56.55, 78.69 58.33 C77.88 60.1, 76.93 61.84, 75.87 63.49 C74.82 65.13, 73.63 66.72, 72.35 68.19 C71.07 69.67, 69.67 71.07, 68.19 72.35 C66.72 73.63, 65.13 74.82, 63.49 75.87 C61.84 76.93, 60.1 77.88, 58.33 78.69 C56.55 79.5, 54.69 80.2, 52.82 80.75 C50.94 81.3, 49.01 81.72, 47.07 82 C45.14 82.27, 43.16 82.42, 41.21 82.42 C39.25 82.42, 37.28 82.27, 35.34 82 C33.41 81.72, 31.47 81.3, 29.6 80.75 C27.72 80.2, 25.87 79.5, 24.09 78.69 C22.31 77.88, 20.57 76.93, 18.93 75.87 C17.28 74.82, 15.7 73.63, 14.22 72.35 C12.75 71.07, 11.35 69.67, 10.07 68.19 C8.78 66.72, 7.6 65.13, 6.54 63.49 C5.48 61.84, 4.54 60.1, 3.72 58.33 C2.91 56.55, 2.22 54.69, 1.67 52.82 C1.12 50.94, 0.7 49.01, 0.42 47.07 C0.14 45.14, 0 43.16, 0 41.21 C0 39.25, 0.14 37.28, 0.42 35.34 C0.7 33.41, 1.12 31.47, 1.67 29.6 C2.22 27.72, 2.91 25.87, 3.72 24.09 C4.54 22.31, 5.48 20.57, 6.54 18.93 C7.6 17.28, 8.78 15.7, 10.07 14.22 C11.35 12.75, 12.75 11.35, 14.22 10.07 C15.7 8.78, 17.28 7.6, 18.93 6.54 C20.57 5.48, 22.31 4.54, 24.09 3.72 C25.87 2.91, 27.72 2.22, 29.6 1.67 C31.47 1.12, 33.41 0.7, 35.34 0.42 C37.28 0.14, 39.25 0, 41.21 0 C43.16 0, 45.14 0.14, 47.07 0.42 C49.01 0.7, 50.94 1.12, 52.82 1.67 C54.69 2.22, 56.55 2.91, 58.33 3.72 C60.1 4.54, 61.84 5.48, 63.49 6.54 C65.13 7.6, 66.72 8.78, 68.19 10.07 C69.67 11.35, 71.07 12.75, 72.35 14.22 C73.63 15.7, 74.82 17.28, 75.87 18.93 C76.93 20.57, 77.88 22.31, 78.69 24.09 C79.5 25.87, 80.2 27.72, 80.75 29.6 C81.3 31.47, 81.72 33.41, 82 35.34 C82.27 37.28, 82.35 40.23, 82.42 41.21 C82.49 42.19, 82.49 40.23, 82.42 41.21" stroke="#0d98a0" stroke-width="2" fill="none"></path></g><g stroke-linecap="round" transform="translate(35.429080712850464 312.01199560927466) rotate(38.53035065306192 30.07902681490964 7.366292281202277)"><path d="M0 0 L60.16 0 L60.16 14.73 L0 14.73" stroke="none" stroke-width="0" fill="#dadada"></path><path d="M0 0 C13.69 0, 27.38 0, 60.16 0 M0 0 C12.36 0, 24.72 0, 60.16 0 M60.16 0 C60.16 4.38, 60.16 8.76, 60.16 14.73 M60.16 0 C60.16 4.68, 60.16 9.37, 60.16 14.73 M60.16 14.73 C47.53 14.73, 34.89 14.73, 0 14.73 M60.16 14.73 C46.38 14.73, 32.6 14.73, 0 14.73 M0 14.73 C0 11.25, 0 7.77, 0 0 M0 14.73 C0 9.55, 0 4.37, 0 0" stroke="#979899" stroke-width="1" fill="none"></path></g></svg>