<svg version="1.1" xmlns="http://www.w3.org/2000/svg" viewBox="0 0 490.5252680961862 536.3695868979366" width="981.0505361923724" height="1072.7391737958733">
  <!-- svg-source:excalidraw -->
  
  <defs>
    <style class="style-fonts">
      
    </style>
    
  </defs>
  <g stroke-opacity="0.6" fill-opacity="0.6" stroke-linecap="round" transform="translate(368.19387024701496 195.17875652746238) rotate(13.48360967713589 21.15607315505258 15.031946715432127)"><path d="M0 0 L42.31 0 L42.31 30.06 L0 30.06" stroke="none" stroke-width="0" fill="#dadada"></path><path d="M0 0 C11.14 0, 22.28 0, 42.31 0 M0 0 C11.41 0, 22.82 0, 42.31 0 M42.31 0 C42.31 7.86, 42.31 15.71, 42.31 30.06 M42.31 0 C42.31 7.61, 42.31 15.22, 42.31 30.06 M42.31 30.06 C27.72 30.06, 13.13 30.06, 0 30.06 M42.31 30.06 C27.31 30.06, 12.3 30.06, 0 30.06 M0 30.06 C0 21.86, 0 13.65, 0 0 M0 30.06 C0 21.85, 0 13.64, 0 0" stroke="#979899" stroke-width="1" fill="none"></path></g><g stroke-opacity="0.6" fill-opacity="0.6" stroke-linecap="round" transform="translate(390.8725822256017 100.59593527907623) rotate(13.48360967713589 21.15607315505258 15.031946715432127)"><path d="M0 0 L42.31 0 L42.31 30.06 L0 30.06" stroke="none" stroke-width="0" fill="#dadada"></path><path d="M0 0 C13.99 0, 27.98 0, 42.31 0 M0 0 C14.83 0, 29.67 0, 42.31 0 M42.31 0 C42.31 9.74, 42.31 19.48, 42.31 30.06 M42.31 0 C42.31 10.45, 42.31 20.91, 42.31 30.06 M42.31 30.06 C27.7 30.06, 13.09 30.06, 0 30.06 M42.31 30.06 C26.07 30.06, 9.82 30.06, 0 30.06 M0 30.06 C0 20.81, 0 11.56, 0 0 M0 30.06 C0 19.78, 0 9.5, 0 0" stroke="#979899" stroke-width="1" fill="none"></path></g><g stroke-opacity="0.6" fill-opacity="0.6" stroke-linecap="round" transform="translate(359.2960370493313 122.53218706255166) rotate(13.48360967713589 41.198668775628676 41.198668775628676)"><path d="M82.4 41.2 C82.4 43.15, 82.26 45.13, 81.98 47.06 C81.7 49, 81.28 50.93, 80.73 52.81 C80.18 54.68, 79.49 56.54, 78.67 58.31 C77.86 60.09, 76.91 61.83, 75.86 63.47 C74.8 65.12, 73.61 66.7, 72.33 68.18 C71.05 69.66, 69.66 71.05, 68.18 72.33 C66.7 73.61, 65.12 74.8, 63.47 75.86 C61.83 76.91, 60.09 77.86, 58.31 78.67 C56.54 79.49, 54.68 80.18, 52.81 80.73 C50.93 81.28, 49 81.7, 47.06 81.98 C45.13 82.26, 43.15 82.4, 41.2 82.4 C39.24 82.4, 37.27 82.26, 35.34 81.98 C33.4 81.7, 31.47 81.28, 29.59 80.73 C27.72 80.18, 25.86 79.49, 24.08 78.67 C22.31 77.86, 20.57 76.91, 18.92 75.86 C17.28 74.8, 15.7 73.61, 14.22 72.33 C12.74 71.05, 11.34 69.66, 10.06 68.18 C8.78 66.7, 7.6 65.12, 6.54 63.47 C5.48 61.83, 4.53 60.09, 3.72 58.31 C2.91 56.54, 2.22 54.68, 1.67 52.81 C1.12 50.93, 0.7 49, 0.42 47.06 C0.14 45.13, 0 43.15, 0 41.2 C0 39.24, 0.14 37.27, 0.42 35.34 C0.7 33.4, 1.12 31.47, 1.67 29.59 C2.22 27.72, 2.91 25.86, 3.72 24.08 C4.53 22.31, 5.48 20.57, 6.54 18.92 C7.6 17.28, 8.78 15.7, 10.06 14.22 C11.34 12.74, 12.74 11.34, 14.22 10.06 C15.7 8.78, 17.28 7.6, 18.92 6.54 C20.57 5.48, 22.31 4.53, 24.08 3.72 C25.86 2.91, 27.72 2.22, 29.59 1.67 C31.47 1.12, 33.4 0.7, 35.34 0.42 C37.27 0.14, 39.24 0, 41.2 0 C43.15 0, 45.13 0.14, 47.06 0.42 C49 0.7, 50.93 1.12, 52.81 1.67 C54.68 2.22, 56.54 2.91, 58.31 3.72 C60.09 4.53, 61.83 5.48, 63.47 6.54 C65.12 7.6, 66.7 8.78, 68.18 10.06 C69.66 11.34, 71.05 12.74, 72.33 14.22 C73.61 15.7, 74.8 17.28, 75.86 18.92 C76.91 20.57, 77.86 22.31, 78.67 24.08 C79.49 25.86, 80.18 27.72, 80.73 29.59 C81.28 31.47, 81.7 33.4, 81.98 35.34 C82.26 37.27, 82.33 40.22, 82.4 41.2 C82.47 42.18, 82.47 40.22, 82.4 41.2" stroke="none" stroke-width="0" fill="#00a0aa"></path><path d="M82.4 41.2 C82.4 43.15, 82.26 45.13, 81.98 47.06 C81.7 49, 81.28 50.93, 80.73 52.81 C80.18 54.68, 79.49 56.54, 78.67 58.31 C77.86 60.09, 76.91 61.83, 75.86 63.47 C74.8 65.12, 73.61 66.7, 72.33 68.18 C71.05 69.66, 69.66 71.05, 68.18 72.33 C66.7 73.61, 65.12 74.8, 63.47 75.86 C61.83 76.91, 60.09 77.86, 58.31 78.67 C56.54 79.49, 54.68 80.18, 52.81 80.73 C50.93 81.28, 49 81.7, 47.06 81.98 C45.13 82.26, 43.15 82.4, 41.2 82.4 C39.24 82.4, 37.27 82.26, 35.34 81.98 C33.4 81.7, 31.47 81.28, 29.59 80.73 C27.72 80.18, 25.86 79.49, 24.08 78.67 C22.31 77.86, 20.57 76.91, 18.92 75.86 C17.28 74.8, 15.7 73.61, 14.22 72.33 C12.74 71.05, 11.34 69.66, 10.06 68.18 C8.78 66.7, 7.6 65.12, 6.54 63.47 C5.48 61.83, 4.53 60.09, 3.72 58.31 C2.91 56.54, 2.22 54.68, 1.67 52.81 C1.12 50.93, 0.7 49, 0.42 47.06 C0.14 45.13, 0 43.15, 0 41.2 C0 39.24, 0.14 37.27, 0.42 35.34 C0.7 33.4, 1.12 31.47, 1.67 29.59 C2.22 27.72, 2.91 25.86, 3.72 24.08 C4.53 22.31, 5.48 20.57, 6.54 18.92 C7.6 17.28, 8.78 15.7, 10.06 14.22 C11.34 12.74, 12.74 11.34, 14.22 10.06 C15.7 8.78, 17.28 7.6, 18.92 6.54 C20.57 5.48, 22.31 4.53, 24.08 3.72 C25.86 2.91, 27.72 2.22, 29.59 1.67 C31.47 1.12, 33.4 0.7, 35.34 0.42 C37.27 0.14, 39.24 0, 41.2 0 C43.15 0, 45.13 0.14, 47.06 0.42 C49 0.7, 50.93 1.12, 52.81 1.67 C54.68 2.22, 56.54 2.91, 58.31 3.72 C60.09 4.53, 61.83 5.48, 63.47 6.54 C65.12 7.6, 66.7 8.78, 68.18 10.06 C69.66 11.34, 71.05 12.74, 72.33 14.22 C73.61 15.7, 74.8 17.28, 75.86 18.92 C76.91 20.57, 77.86 22.31, 78.67 24.08 C79.49 25.86, 80.18 27.72, 80.73 29.59 C81.28 31.47, 81.7 33.4, 81.98 35.34 C82.26 37.27, 82.33 40.22, 82.4 41.2 C82.47 42.18, 82.47 40.22, 82.4 41.2" stroke="#0d98a0" stroke-width="2" fill="none"></path></g><g stroke-opacity="0.6" fill-opacity="0.6" stroke-linecap="round" transform="translate(344.24642750996304 150.08983436730728) rotate(13.48360967713589 30.072156572797667 7.364609772929953)"><path d="M0 0 L60.14 0 L60.14 14.73 L0 14.73" stroke="none" stroke-width="0" fill="#dadada"></path><path d="M0 0 C21.1 0, 42.21 0, 60.14 0 M0 0 C13.2 0, 26.39 0, 60.14 0 M60.14 0 C60.14 4.16, 60.14 8.32, 60.14 14.73 M60.14 0 C60.14 3.71, 60.14 7.42, 60.14 14.73 M60.14 14.73 C46.81 14.73, 33.47 14.73, 0 14.73 M60.14 14.73 C38.56 14.73, 16.98 14.73, 0 14.73 M0 14.73 C0 11.57, 0 8.41, 0 0 M0 14.73 C0 9.35, 0 3.98, 0 0" stroke="#979899" stroke-width="1" fill="none"></path></g><g stroke-linecap="round"><g transform="translate(27.187182112480286 10) rotate(0 221.3126229613125 0)"><path d="M0 0 C73.77 0, 368.85 0, 442.63 0 M0 0 C73.77 0, 368.85 0, 442.63 0" stroke="#393e46" stroke-width="4" fill="none"></path></g></g><mask></mask><g stroke-linecap="round"><g transform="translate(28.01063624298945 278.9520509699114) rotate(0 222.8126229613125 0)"><path d="M0 0 C74.27 0, 371.35 0, 445.63 0" stroke="#fab005" stroke-width="4.5" fill="none" stroke-dasharray="8 12"></path></g></g><mask></mask><g stroke-linecap="round"><g transform="translate(28.900022173561183 526.3695868979366) rotate(0 225.8126229613125 0)"><path d="M0 0 C75.27 0, 376.35 0, 451.63 0 M0 0 C75.27 0, 376.35 0, 451.63 0" stroke="#393e46" stroke-width="4" fill="none"></path></g></g><mask></mask><g stroke-opacity="0.8" fill-opacity="0.8" stroke-linecap="round" transform="translate(271.3598235564082 173.41601494251609) rotate(355.5791621708877 21.15607315505258 15.031946715432127)"><path d="M0 0 L42.31 0 L42.31 30.06 L0 30.06" stroke="none" stroke-width="0" fill="#dadada"></path><path d="M0 0 C12.05 0, 24.1 0, 42.31 0 M0 0 C16.68 0, 33.36 0, 42.31 0 M42.31 0 C42.31 9.67, 42.31 19.33, 42.31 30.06 M42.31 0 C42.31 8.71, 42.31 17.43, 42.31 30.06 M42.31 30.06 C32 30.06, 21.68 30.06, 0 30.06 M42.31 30.06 C32.93 30.06, 23.54 30.06, 0 30.06 M0 30.06 C0 18.63, 0 7.2, 0 0 M0 30.06 C0 23.84, 0 17.61, 0 0" stroke="#979899" stroke-width="1" fill="none"></path></g><g stroke-opacity="0.8" fill-opacity="0.8" stroke-linecap="round" transform="translate(263.86257539784674 76.44166100107032) rotate(355.5791621708877 21.15607315505258 15.031946715432127)"><path d="M0 0 L42.31 0 L42.31 30.06 L0 30.06" stroke="none" stroke-width="0" fill="#dadada"></path><path d="M0 0 C10.2 0, 20.4 0, 42.31 0 M0 0 C13.98 0, 27.95 0, 42.31 0 M42.31 0 C42.31 10.15, 42.31 20.31, 42.31 30.06 M42.31 0 C42.31 8.18, 42.31 16.36, 42.31 30.06 M42.31 30.06 C33.36 30.06, 24.4 30.06, 0 30.06 M42.31 30.06 C32.38 30.06, 22.44 30.06, 0 30.06 M0 30.06 C0 20.43, 0 10.79, 0 0 M0 30.06 C0 22.73, 0 15.4, 0 0" stroke="#979899" stroke-width="1" fill="none"></path></g><g stroke-opacity="0.8" fill-opacity="0.8" stroke-linecap="round" transform="translate(247.63293362354761 99.59419955905832) rotate(355.5791621708877 41.198668775628676 41.198668775628676)"><path d="M82.4 41.2 C82.4 43.15, 82.26 45.13, 81.98 47.06 C81.7 49, 81.28 50.93, 80.73 52.81 C80.18 54.68, 79.49 56.54, 78.67 58.31 C77.86 60.09, 76.91 61.83, 75.86 63.47 C74.8 65.12, 73.61 66.7, 72.33 68.18 C71.05 69.66, 69.66 71.05, 68.18 72.33 C66.7 73.61, 65.12 74.8, 63.47 75.86 C61.83 76.91, 60.09 77.86, 58.31 78.67 C56.54 79.49, 54.68 80.18, 52.81 80.73 C50.93 81.28, 49 81.7, 47.06 81.98 C45.13 82.26, 43.15 82.4, 41.2 82.4 C39.24 82.4, 37.27 82.26, 35.34 81.98 C33.4 81.7, 31.47 81.28, 29.59 80.73 C27.72 80.18, 25.86 79.49, 24.08 78.67 C22.31 77.86, 20.57 76.91, 18.92 75.86 C17.28 74.8, 15.7 73.61, 14.22 72.33 C12.74 71.05, 11.34 69.66, 10.06 68.18 C8.78 66.7, 7.6 65.12, 6.54 63.47 C5.48 61.83, 4.53 60.09, 3.72 58.31 C2.91 56.54, 2.22 54.68, 1.67 52.81 C1.12 50.93, 0.7 49, 0.42 47.06 C0.14 45.13, 0 43.15, 0 41.2 C0 39.24, 0.14 37.27, 0.42 35.34 C0.7 33.4, 1.12 31.47, 1.67 29.59 C2.22 27.72, 2.91 25.86, 3.72 24.08 C4.53 22.31, 5.48 20.57, 6.54 18.92 C7.6 17.28, 8.78 15.7, 10.06 14.22 C11.34 12.74, 12.74 11.34, 14.22 10.06 C15.7 8.78, 17.28 7.6, 18.92 6.54 C20.57 5.48, 22.31 4.53, 24.08 3.72 C25.86 2.91, 27.72 2.22, 29.59 1.67 C31.47 1.12, 33.4 0.7, 35.34 0.42 C37.27 0.14, 39.24 0, 41.2 0 C43.15 0, 45.13 0.14, 47.06 0.42 C49 0.7, 50.93 1.12, 52.81 1.67 C54.68 2.22, 56.54 2.91, 58.31 3.72 C60.09 4.53, 61.83 5.48, 63.47 6.54 C65.12 7.6, 66.7 8.78, 68.18 10.06 C69.66 11.34, 71.05 12.74, 72.33 14.22 C73.61 15.7, 74.8 17.28, 75.86 18.92 C76.91 20.57, 77.86 22.31, 78.67 24.08 C79.49 25.86, 80.18 27.72, 80.73 29.59 C81.28 31.47, 81.7 33.4, 81.98 35.34 C82.26 37.27, 82.33 40.22, 82.4 41.2 C82.47 42.18, 82.47 40.22, 82.4 41.2" stroke="none" stroke-width="0" fill="#00a0aa"></path><path d="M82.4 41.2 C82.4 43.15, 82.26 45.13, 81.98 47.06 C81.7 49, 81.28 50.93, 80.73 52.81 C80.18 54.68, 79.49 56.54, 78.67 58.31 C77.86 60.09, 76.91 61.83, 75.86 63.47 C74.8 65.12, 73.61 66.7, 72.33 68.18 C71.05 69.66, 69.66 71.05, 68.18 72.33 C66.7 73.61, 65.12 74.8, 63.47 75.86 C61.83 76.91, 60.09 77.86, 58.31 78.67 C56.54 79.49, 54.68 80.18, 52.81 80.73 C50.93 81.28, 49 81.7, 47.06 81.98 C45.13 82.26, 43.15 82.4, 41.2 82.4 C39.24 82.4, 37.27 82.26, 35.34 81.98 C33.4 81.7, 31.47 81.28, 29.59 80.73 C27.72 80.18, 25.86 79.49, 24.08 78.67 C22.31 77.86, 20.57 76.91, 18.92 75.86 C17.28 74.8, 15.7 73.61, 14.22 72.33 C12.74 71.05, 11.34 69.66, 10.06 68.18 C8.78 66.7, 7.6 65.12, 6.54 63.47 C5.48 61.83, 4.53 60.09, 3.72 58.31 C2.91 56.54, 2.22 54.68, 1.67 52.81 C1.12 50.93, 0.7 49, 0.42 47.06 C0.14 45.13, 0 43.15, 0 41.2 C0 39.24, 0.14 37.27, 0.42 35.34 C0.7 33.4, 1.12 31.47, 1.67 29.59 C2.22 27.72, 2.91 25.86, 3.72 24.08 C4.53 22.31, 5.48 20.57, 6.54 18.92 C7.6 17.28, 8.78 15.7, 10.06 14.22 C11.34 12.74, 12.74 11.34, 14.22 10.06 C15.7 8.78, 17.28 7.6, 18.92 6.54 C20.57 5.48, 22.31 4.53, 24.08 3.72 C25.86 2.91, 27.72 2.22, 29.59 1.67 C31.47 1.12, 33.4 0.7, 35.34 0.42 C37.27 0.14, 39.24 0, 41.2 0 C43.15 0, 45.13 0.14, 47.06 0.42 C49 0.7, 50.93 1.12, 52.81 1.67 C54.68 2.22, 56.54 2.91, 58.31 3.72 C60.09 4.53, 61.83 5.48, 63.47 6.54 C65.12 7.6, 66.7 8.78, 68.18 10.06 C69.66 11.34, 71.05 12.74, 72.33 14.22 C73.61 15.7, 74.8 17.28, 75.86 18.92 C76.91 20.57, 77.86 22.31, 78.67 24.08 C79.49 25.86, 80.18 27.72, 80.73 29.59 C81.28 31.47, 81.7 33.4, 81.98 35.34 C82.26 37.27, 82.33 40.22, 82.4 41.2 C82.47 42.18, 82.47 40.22, 82.4 41.2" stroke="#0d98a0" stroke-width="2" fill="none"></path></g><g stroke-opacity="0.8" fill-opacity="0.8" stroke-linecap="round" transform="translate(231.9214591694133 135.50314782747796) rotate(355.5791621708877 30.072156572797667 7.364609772929953)"><path d="M0 0 L60.14 0 L60.14 14.73 L0 14.73" stroke="none" stroke-width="0" fill="#dadada"></path><path d="M0 0 C15.36 0, 30.72 0, 60.14 0 M0 0 C17.57 0, 35.15 0, 60.14 0 M60.14 0 C60.14 5.02, 60.14 10.04, 60.14 14.73 M60.14 0 C60.14 4.07, 60.14 8.13, 60.14 14.73 M60.14 14.73 C38.71 14.73, 17.27 14.73, 0 14.73 M60.14 14.73 C38.03 14.73, 15.92 14.73, 0 14.73 M0 14.73 C0 11.15, 0 7.58, 0 0 M0 14.73 C0 9.06, 0 3.4, 0 0" stroke="#979899" stroke-width="1" fill="none"></path></g><g stroke-opacity="0.9" fill-opacity="0.9" stroke-linecap="round" transform="translate(177.96521036526883 182.4526066993244) rotate(336.89181066567664 21.15607315505258 15.031946715432127)"><path d="M0 0 L42.31 0 L42.31 30.06 L0 30.06" stroke="none" stroke-width="0" fill="#dadada"></path><path d="M0 0 C11.84 0, 23.67 0, 42.31 0 M0 0 C13.55 0, 27.11 0, 42.31 0 M42.31 0 C42.31 6.5, 42.31 13, 42.31 30.06 M42.31 0 C42.31 10.43, 42.31 20.87, 42.31 30.06 M42.31 30.06 C29.97 30.06, 17.63 30.06, 0 30.06 M42.31 30.06 C29.41 30.06, 16.51 30.06, 0 30.06 M0 30.06 C0 18.89, 0 7.72, 0 0 M0 30.06 C0 18.74, 0 7.42, 0 0" stroke="#979899" stroke-width="1" fill="none"></path></g><g stroke-opacity="0.9" fill-opacity="0.9" stroke-linecap="round" transform="translate(139.7922502569486 92.99278795995679) rotate(336.89181066567664 21.15607315505258 15.031946715432127)"><path d="M0 0 L42.31 0 L42.31 30.06 L0 30.06" stroke="none" stroke-width="0" fill="#dadada"></path><path d="M0 0 C12.81 0, 25.62 0, 42.31 0 M0 0 C15.08 0, 30.16 0, 42.31 0 M42.31 0 C42.31 8.84, 42.31 17.68, 42.31 30.06 M42.31 0 C42.31 6.78, 42.31 13.55, 42.31 30.06 M42.31 30.06 C32.88 30.06, 23.44 30.06, 0 30.06 M42.31 30.06 C33.55 30.06, 24.79 30.06, 0 30.06 M0 30.06 C0 23.65, 0 17.23, 0 0 M0 30.06 C0 21.41, 0 12.75, 0 0" stroke="#979899" stroke-width="1" fill="none"></path></g><g stroke-opacity="0.9" fill-opacity="0.9" stroke-linecap="round" transform="translate(139.1636758866357 112.32358081928737) rotate(336.89181066567664 41.198668775628676 41.198668775628676)"><path d="M82.4 41.2 C82.4 43.15, 82.26 45.13, 81.98 47.06 C81.7 49, 81.28 50.93, 80.73 52.81 C80.18 54.68, 79.49 56.54, 78.67 58.31 C77.86 60.09, 76.91 61.83, 75.86 63.47 C74.8 65.12, 73.61 66.7, 72.33 68.18 C71.05 69.66, 69.66 71.05, 68.18 72.33 C66.7 73.61, 65.12 74.8, 63.47 75.86 C61.83 76.91, 60.09 77.86, 58.31 78.67 C56.54 79.49, 54.68 80.18, 52.81 80.73 C50.93 81.28, 49 81.7, 47.06 81.98 C45.13 82.26, 43.15 82.4, 41.2 82.4 C39.24 82.4, 37.27 82.26, 35.34 81.98 C33.4 81.7, 31.47 81.28, 29.59 80.73 C27.72 80.18, 25.86 79.49, 24.08 78.67 C22.31 77.86, 20.57 76.91, 18.92 75.86 C17.28 74.8, 15.7 73.61, 14.22 72.33 C12.74 71.05, 11.34 69.66, 10.06 68.18 C8.78 66.7, 7.6 65.12, 6.54 63.47 C5.48 61.83, 4.53 60.09, 3.72 58.31 C2.91 56.54, 2.22 54.68, 1.67 52.81 C1.12 50.93, 0.7 49, 0.42 47.06 C0.14 45.13, 0 43.15, 0 41.2 C0 39.24, 0.14 37.27, 0.42 35.34 C0.7 33.4, 1.12 31.47, 1.67 29.59 C2.22 27.72, 2.91 25.86, 3.72 24.08 C4.53 22.31, 5.48 20.57, 6.54 18.92 C7.6 17.28, 8.78 15.7, 10.06 14.22 C11.34 12.74, 12.74 11.34, 14.22 10.06 C15.7 8.78, 17.28 7.6, 18.92 6.54 C20.57 5.48, 22.31 4.53, 24.08 3.72 C25.86 2.91, 27.72 2.22, 29.59 1.67 C31.47 1.12, 33.4 0.7, 35.34 0.42 C37.27 0.14, 39.24 0, 41.2 0 C43.15 0, 45.13 0.14, 47.06 0.42 C49 0.7, 50.93 1.12, 52.81 1.67 C54.68 2.22, 56.54 2.91, 58.31 3.72 C60.09 4.53, 61.83 5.48, 63.47 6.54 C65.12 7.6, 66.7 8.78, 68.18 10.06 C69.66 11.34, 71.05 12.74, 72.33 14.22 C73.61 15.7, 74.8 17.28, 75.86 18.92 C76.91 20.57, 77.86 22.31, 78.67 24.08 C79.49 25.86, 80.18 27.72, 80.73 29.59 C81.28 31.47, 81.7 33.4, 81.98 35.34 C82.26 37.27, 82.33 40.22, 82.4 41.2 C82.47 42.18, 82.47 40.22, 82.4 41.2" stroke="none" stroke-width="0" fill="#00a0aa"></path><path d="M82.4 41.2 C82.4 43.15, 82.26 45.13, 81.98 47.06 C81.7 49, 81.28 50.93, 80.73 52.81 C80.18 54.68, 79.49 56.54, 78.67 58.31 C77.86 60.09, 76.91 61.83, 75.86 63.47 C74.8 65.12, 73.61 66.7, 72.33 68.18 C71.05 69.66, 69.66 71.05, 68.18 72.33 C66.7 73.61, 65.12 74.8, 63.47 75.86 C61.83 76.91, 60.09 77.86, 58.31 78.67 C56.54 79.49, 54.68 80.18, 52.81 80.73 C50.93 81.28, 49 81.7, 47.06 81.98 C45.13 82.26, 43.15 82.4, 41.2 82.4 C39.24 82.4, 37.27 82.26, 35.34 81.98 C33.4 81.7, 31.47 81.28, 29.59 80.73 C27.72 80.18, 25.86 79.49, 24.08 78.67 C22.31 77.86, 20.57 76.91, 18.92 75.86 C17.28 74.8, 15.7 73.61, 14.22 72.33 C12.74 71.05, 11.34 69.66, 10.06 68.18 C8.78 66.7, 7.6 65.12, 6.54 63.47 C5.48 61.83, 4.53 60.09, 3.72 58.31 C2.91 56.54, 2.22 54.68, 1.67 52.81 C1.12 50.93, 0.7 49, 0.42 47.06 C0.14 45.13, 0 43.15, 0 41.2 C0 39.24, 0.14 37.27, 0.42 35.34 C0.7 33.4, 1.12 31.47, 1.67 29.59 C2.22 27.72, 2.91 25.86, 3.72 24.08 C4.53 22.31, 5.48 20.57, 6.54 18.92 C7.6 17.28, 8.78 15.7, 10.06 14.22 C11.34 12.74, 12.74 11.34, 14.22 10.06 C15.7 8.78, 17.28 7.6, 18.92 6.54 C20.57 5.48, 22.31 4.53, 24.08 3.72 C25.86 2.91, 27.72 2.22, 29.59 1.67 C31.47 1.12, 33.4 0.7, 35.34 0.42 C37.27 0.14, 39.24 0, 41.2 0 C43.15 0, 45.13 0.14, 47.06 0.42 C49 0.7, 50.93 1.12, 52.81 1.67 C54.68 2.22, 56.54 2.91, 58.31 3.72 C60.09 4.53, 61.83 5.48, 63.47 6.54 C65.12 7.6, 66.7 8.78, 68.18 10.06 C69.66 11.34, 71.05 12.74, 72.33 14.22 C73.61 15.7, 74.8 17.28, 75.86 18.92 C76.91 20.57, 77.86 22.31, 78.67 24.08 C79.49 25.86, 80.18 27.72, 80.73 29.59 C81.28 31.47, 81.7 33.4, 81.98 35.34 C82.26 37.27, 82.33 40.22, 82.4 41.2 C82.47 42.18, 82.47 40.22, 82.4 41.2" stroke="#0d98a0" stroke-width="2" fill="none"></path></g><g stroke-opacity="0.9" fill-opacity="0.9" stroke-linecap="round" transform="translate(125.53187494709277 156.7221380878109) rotate(336.89181066567664 30.072156572797667 7.364609772929953)"><path d="M0 0 L60.14 0 L60.14 14.73 L0 14.73" stroke="none" stroke-width="0" fill="#dadada"></path><path d="M0 0 C18.54 0, 37.09 0, 60.14 0 M0 0 C12.06 0, 24.12 0, 60.14 0 M60.14 0 C60.14 4.11, 60.14 8.23, 60.14 14.73 M60.14 0 C60.14 5.11, 60.14 10.22, 60.14 14.73 M60.14 14.73 C38.92 14.73, 17.7 14.73, 0 14.73 M60.14 14.73 C41.27 14.73, 22.39 14.73, 0 14.73 M0 14.73 C0 9.65, 0 4.56, 0 0 M0 14.73 C0 10.01, 0 5.29, 0 0" stroke="#979899" stroke-width="1" fill="none"></path></g><g stroke-linecap="round" transform="translate(112.35829274200432 222.65275506447506) rotate(321.46964934693807 21.15607315505258 15.031946715432127)"><path d="M0 0 L42.31 0 L42.31 30.06 L0 30.06" stroke="none" stroke-width="0" fill="#dadada"></path><path d="M0 0 C15.48 0, 30.97 0, 42.31 0 M0 0 C12.78 0, 25.55 0, 42.31 0 M42.31 0 C42.31 6.66, 42.31 13.32, 42.31 30.06 M42.31 0 C42.31 11, 42.31 22.01, 42.31 30.06 M42.31 30.06 C30.2 30.06, 18.1 30.06, 0 30.06 M42.31 30.06 C30.55 30.06, 18.79 30.06, 0 30.06 M0 30.06 C0 22.37, 0 14.68, 0 0 M0 30.06 C0 23.67, 0 17.28, 0 0" stroke="#979899" stroke-width="1" fill="none"></path></g><g stroke-linecap="round" transform="translate(51.76988101263191 146.5654472107733) rotate(321.46964934693807 21.15607315505258 15.031946715432127)"><path d="M0 0 L42.31 0 L42.31 30.06 L0 30.06" stroke="none" stroke-width="0" fill="#dadada"></path><path d="M0 0 C14.28 0, 28.56 0, 42.31 0 M0 0 C9.49 0, 18.99 0, 42.31 0 M42.31 0 C42.31 11.42, 42.31 22.84, 42.31 30.06 M42.31 0 C42.31 11.02, 42.31 22.04, 42.31 30.06 M42.31 30.06 C30.96 30.06, 19.61 30.06, 0 30.06 M42.31 30.06 C30.86 30.06, 19.41 30.06, 0 30.06 M0 30.06 C0 21.72, 0 13.37, 0 0 M0 30.06 C0 21.94, 0 13.82, 0 0" stroke="#979899" stroke-width="1" fill="none"></path></g><g stroke-linecap="round" transform="translate(62.54136712676973 159.09524245904618) rotate(321.46964934693807 41.198668775628676 41.198668775628676)"><path d="M82.4 41.2 C82.4 43.15, 82.26 45.13, 81.98 47.06 C81.7 49, 81.28 50.93, 80.73 52.81 C80.18 54.68, 79.49 56.54, 78.67 58.31 C77.86 60.09, 76.91 61.83, 75.86 63.47 C74.8 65.12, 73.61 66.7, 72.33 68.18 C71.05 69.66, 69.66 71.05, 68.18 72.33 C66.7 73.61, 65.12 74.8, 63.47 75.86 C61.83 76.91, 60.09 77.86, 58.31 78.67 C56.54 79.49, 54.68 80.18, 52.81 80.73 C50.93 81.28, 49 81.7, 47.06 81.98 C45.13 82.26, 43.15 82.4, 41.2 82.4 C39.24 82.4, 37.27 82.26, 35.34 81.98 C33.4 81.7, 31.47 81.28, 29.59 80.73 C27.72 80.18, 25.86 79.49, 24.08 78.67 C22.31 77.86, 20.57 76.91, 18.92 75.86 C17.28 74.8, 15.7 73.61, 14.22 72.33 C12.74 71.05, 11.34 69.66, 10.06 68.18 C8.78 66.7, 7.6 65.12, 6.54 63.47 C5.48 61.83, 4.53 60.09, 3.72 58.31 C2.91 56.54, 2.22 54.68, 1.67 52.81 C1.12 50.93, 0.7 49, 0.42 47.06 C0.14 45.13, 0 43.15, 0 41.2 C0 39.24, 0.14 37.27, 0.42 35.34 C0.7 33.4, 1.12 31.47, 1.67 29.59 C2.22 27.72, 2.91 25.86, 3.72 24.08 C4.53 22.31, 5.48 20.57, 6.54 18.92 C7.6 17.28, 8.78 15.7, 10.06 14.22 C11.34 12.74, 12.74 11.34, 14.22 10.06 C15.7 8.78, 17.28 7.6, 18.92 6.54 C20.57 5.48, 22.31 4.53, 24.08 3.72 C25.86 2.91, 27.72 2.22, 29.59 1.67 C31.47 1.12, 33.4 0.7, 35.34 0.42 C37.27 0.14, 39.24 0, 41.2 0 C43.15 0, 45.13 0.14, 47.06 0.42 C49 0.7, 50.93 1.12, 52.81 1.67 C54.68 2.22, 56.54 2.91, 58.31 3.72 C60.09 4.53, 61.83 5.48, 63.47 6.54 C65.12 7.6, 66.7 8.78, 68.18 10.06 C69.66 11.34, 71.05 12.74, 72.33 14.22 C73.61 15.7, 74.8 17.28, 75.86 18.92 C76.91 20.57, 77.86 22.31, 78.67 24.08 C79.49 25.86, 80.18 27.72, 80.73 29.59 C81.28 31.47, 81.7 33.4, 81.98 35.34 C82.26 37.27, 82.33 40.22, 82.4 41.2 C82.47 42.18, 82.47 40.22, 82.4 41.2" stroke="none" stroke-width="0" fill="#00a0aa"></path><path d="M82.4 41.2 C82.4 43.15, 82.26 45.13, 81.98 47.06 C81.7 49, 81.28 50.93, 80.73 52.81 C80.18 54.68, 79.49 56.54, 78.67 58.31 C77.86 60.09, 76.91 61.83, 75.86 63.47 C74.8 65.12, 73.61 66.7, 72.33 68.18 C71.05 69.66, 69.66 71.05, 68.18 72.33 C66.7 73.61, 65.12 74.8, 63.47 75.86 C61.83 76.91, 60.09 77.86, 58.31 78.67 C56.54 79.49, 54.68 80.18, 52.81 80.73 C50.93 81.28, 49 81.7, 47.06 81.98 C45.13 82.26, 43.15 82.4, 41.2 82.4 C39.24 82.4, 37.27 82.26, 35.34 81.98 C33.4 81.7, 31.47 81.28, 29.59 80.73 C27.72 80.18, 25.86 79.49, 24.08 78.67 C22.31 77.86, 20.57 76.91, 18.92 75.86 C17.28 74.8, 15.7 73.61, 14.22 72.33 C12.74 71.05, 11.34 69.66, 10.06 68.18 C8.78 66.7, 7.6 65.12, 6.54 63.47 C5.48 61.83, 4.53 60.09, 3.72 58.31 C2.91 56.54, 2.22 54.68, 1.67 52.81 C1.12 50.93, 0.7 49, 0.42 47.06 C0.14 45.13, 0 43.15, 0 41.2 C0 39.24, 0.14 37.27, 0.42 35.34 C0.7 33.4, 1.12 31.47, 1.67 29.59 C2.22 27.72, 2.91 25.86, 3.72 24.08 C4.53 22.31, 5.48 20.57, 6.54 18.92 C7.6 17.28, 8.78 15.7, 10.06 14.22 C11.34 12.74, 12.74 11.34, 14.22 10.06 C15.7 8.78, 17.28 7.6, 18.92 6.54 C20.57 5.48, 22.31 4.53, 24.08 3.72 C25.86 2.91, 27.72 2.22, 29.59 1.67 C31.47 1.12, 33.4 0.7, 35.34 0.42 C37.27 0.14, 39.24 0, 41.2 0 C43.15 0, 45.13 0.14, 47.06 0.42 C49 0.7, 50.93 1.12, 52.81 1.67 C54.68 2.22, 56.54 2.91, 58.31 3.72 C60.09 4.53, 61.83 5.48, 63.47 6.54 C65.12 7.6, 66.7 8.78, 68.18 10.06 C69.66 11.34, 71.05 12.74, 72.33 14.22 C73.61 15.7, 74.8 17.28, 75.86 18.92 C76.91 20.57, 77.86 22.31, 78.67 24.08 C79.49 25.86, 80.18 27.72, 80.73 29.59 C81.28 31.47, 81.7 33.4, 81.98 35.34 C82.26 37.27, 82.33 40.22, 82.4 41.2 C82.47 42.18, 82.47 40.22, 82.4 41.2" stroke="#0d98a0" stroke-width="2" fill="none"></path></g><g stroke-linecap="round" transform="translate(52.61045466065025 209.69735321428766) rotate(321.46964934693807 30.072156572797667 7.364609772929953)"><path d="M0 0 L60.14 0 L60.14 14.73 L0 14.73" stroke="none" stroke-width="0" fill="#dadada"></path><path d="M0 0 C13.5 0, 26.99 0, 60.14 0 M0 0 C23.16 0, 46.32 0, 60.14 0 M60.14 0 C60.14 4.21, 60.14 8.41, 60.14 14.73 M60.14 0 C60.14 3.41, 60.14 6.81, 60.14 14.73 M60.14 14.73 C42.92 14.73, 25.69 14.73, 0 14.73 M60.14 14.73 C39.96 14.73, 19.77 14.73, 0 14.73 M0 14.73 C0 10.54, 0 6.34, 0 0 M0 14.73 C0 9.96, 0 5.19, 0 0" stroke="#979899" stroke-width="1" fill="none"></path></g><g stroke-linecap="round"><g transform="translate(55.32690121119481 175.4616667929463) rotate(0 -22.663450605597404 17.859808038907317)"><path d="M0 0 C-7.55 5.95, -37.77 29.77, -45.33 35.72 M0 0 C-7.55 5.95, -37.77 29.77, -45.33 35.72" stroke="#1e1e1e" stroke-width="2" fill="none"></path></g><g transform="translate(55.32690121119481 175.4616667929463) rotate(0 -22.663450605597404 17.859808038907317)"><path d="M-45.33 35.72 L-38.57 22.33 L-30.73 32.28 L-45.33 35.72" stroke="none" stroke-width="0" fill="#1e1e1e" fill-rule="evenodd"></path><path d="M-45.33 35.72 C-43.58 32.26, -41.83 28.79, -38.57 22.33 M-45.33 35.72 C-43.84 32.77, -42.35 29.82, -38.57 22.33 M-38.57 22.33 C-36.14 25.41, -33.71 28.49, -30.73 32.28 M-38.57 22.33 C-36.21 25.33, -33.85 28.33, -30.73 32.28 M-30.73 32.28 C-34.37 33.14, -38.02 34, -45.33 35.72 M-30.73 32.28 C-35.62 33.43, -40.51 34.59, -45.33 35.72 M-45.33 35.72 C-45.33 35.72, -45.33 35.72, -45.33 35.72 M-45.33 35.72 C-45.33 35.72, -45.33 35.72, -45.33 35.72" stroke="#1e1e1e" stroke-width="2" fill="none"></path></g></g><mask></mask><g stroke-linecap="round"><g transform="translate(116.33051423650204 251.42843018295162) rotate(0 -11.99164407775288 10.27843470624373)"><path d="M0 0 C-4 3.43, -19.99 17.13, -23.98 20.56 M0 0 C-4 3.43, -19.99 17.13, -23.98 20.56" stroke="#1e1e1e" stroke-width="2" fill="none"></path></g><g transform="translate(116.33051423650204 251.42843018295162) rotate(0 -11.99164407775288 10.27843470624373)"><path d="M-23.98 20.56 L-17.79 6.9 L-9.54 16.52 L-23.98 20.56" stroke="none" stroke-width="0" fill="#1e1e1e" fill-rule="evenodd"></path><path d="M-23.98 20.56 C-21.58 15.26, -19.17 9.95, -17.79 6.9 M-23.98 20.56 C-21.67 15.46, -19.36 10.36, -17.79 6.9 M-17.79 6.9 C-15.19 9.92, -12.6 12.95, -9.54 16.52 M-17.79 6.9 C-14.55 10.68, -11.3 14.46, -9.54 16.52 M-9.54 16.52 C-14.95 18.03, -20.36 19.55, -23.98 20.56 M-9.54 16.52 C-13.95 17.75, -18.35 18.99, -23.98 20.56 M-23.98 20.56 C-23.98 20.56, -23.98 20.56, -23.98 20.56 M-23.98 20.56 C-23.98 20.56, -23.98 20.56, -23.98 20.56" stroke="#1e1e1e" stroke-width="2" fill="none"></path></g></g><mask></mask></svg>