<svg version="1.1" xmlns="http://www.w3.org/2000/svg" viewBox="0 0 473.4416549579414 536.4875559592062" width="946.8833099158828" height="1072.9751119184125">
  <!-- svg-source:excalidraw -->
  
  <defs>
    <style class="style-fonts">
      
    </style>
    
  </defs>
  <g stroke-opacity="0.6" fill-opacity="0.6" stroke-linecap="round" transform="translate(351.0845940374129 311.1957319712601) rotate(346.51639032286414 21.16090644143037 15.035380892595299)"><path d="M0 0 L42.32 0 L42.32 30.07 L0 30.07" stroke="none" stroke-width="0" fill="#dadada"></path><path d="M0 0 C12.13 0, 24.26 0, 42.32 0 M0 0 C14.13 0, 28.25 0, 42.32 0 M42.32 0 C42.32 8.44, 42.32 16.89, 42.32 30.07 M42.32 0 C42.32 7.32, 42.32 14.65, 42.32 30.07 M42.32 30.07 C28.41 30.07, 14.5 30.07, 0 30.07 M42.32 30.07 C28.88 30.07, 15.44 30.07, 0 30.07 M0 30.07 C0 23.17, 0 16.28, 0 0 M0 30.07 C0 18.72, 0 7.37, 0 0" stroke="#979899" stroke-width="1" fill="none"></path></g><g stroke-opacity="0.6" fill-opacity="0.6" stroke-linecap="round" transform="translate(373.76848716227687 405.8001614764405) rotate(346.51639032286414 21.16090644143037 15.035380892595185)"><path d="M0 0 L42.32 0 L42.32 30.07 L0 30.07" stroke="none" stroke-width="0" fill="#dadada"></path><path d="M0 0 C10.64 0, 21.28 0, 42.32 0 M0 0 C15.84 0, 31.68 0, 42.32 0 M42.32 0 C42.32 10.98, 42.32 21.96, 42.32 30.07 M42.32 0 C42.32 6.95, 42.32 13.89, 42.32 30.07 M42.32 30.07 C27.87 30.07, 13.42 30.07, 0 30.07 M42.32 30.07 C31.99 30.07, 21.66 30.07, 0 30.07 M0 30.07 C0 22.3, 0 14.54, 0 0 M0 30.07 C0 21.23, 0 12.39, 0 0" stroke="#979899" stroke-width="1" fill="none"></path></g><g stroke-opacity="0.6" fill-opacity="0.6" stroke-linecap="round" transform="translate(342.184728053413 331.51349802349773) rotate(346.51639032286414 41.20808096489077 41.20808096489077)"><path d="M82.42 41.21 C82.42 43.16, 82.27 45.14, 82 47.07 C81.72 49.01, 81.3 50.94, 80.75 52.82 C80.2 54.69, 79.5 56.55, 78.69 58.33 C77.88 60.1, 76.93 61.84, 75.87 63.49 C74.82 65.13, 73.63 66.72, 72.35 68.19 C71.07 69.67, 69.67 71.07, 68.19 72.35 C66.72 73.63, 65.13 74.82, 63.49 75.87 C61.84 76.93, 60.1 77.88, 58.33 78.69 C56.55 79.5, 54.69 80.2, 52.82 80.75 C50.94 81.3, 49.01 81.72, 47.07 82 C45.14 82.27, 43.16 82.42, 41.21 82.42 C39.25 82.42, 37.28 82.27, 35.34 82 C33.41 81.72, 31.47 81.3, 29.6 80.75 C27.72 80.2, 25.87 79.5, 24.09 78.69 C22.31 77.88, 20.57 76.93, 18.93 75.87 C17.28 74.82, 15.7 73.63, 14.22 72.35 C12.75 71.07, 11.35 69.67, 10.07 68.19 C8.78 66.72, 7.6 65.13, 6.54 63.49 C5.48 61.84, 4.54 60.1, 3.72 58.33 C2.91 56.55, 2.22 54.69, 1.67 52.82 C1.12 50.94, 0.7 49.01, 0.42 47.07 C0.14 45.14, 0 43.16, 0 41.21 C0 39.25, 0.14 37.28, 0.42 35.34 C0.7 33.41, 1.12 31.47, 1.67 29.6 C2.22 27.72, 2.91 25.87, 3.72 24.09 C4.54 22.31, 5.48 20.57, 6.54 18.93 C7.6 17.28, 8.78 15.7, 10.07 14.22 C11.35 12.75, 12.75 11.35, 14.22 10.07 C15.7 8.78, 17.28 7.6, 18.93 6.54 C20.57 5.48, 22.31 4.54, 24.09 3.72 C25.87 2.91, 27.72 2.22, 29.6 1.67 C31.47 1.12, 33.41 0.7, 35.34 0.42 C37.28 0.14, 39.25 0, 41.21 0 C43.16 0, 45.14 0.14, 47.07 0.42 C49.01 0.7, 50.94 1.12, 52.82 1.67 C54.69 2.22, 56.55 2.91, 58.33 3.72 C60.1 4.54, 61.84 5.48, 63.49 6.54 C65.13 7.6, 66.72 8.78, 68.19 10.07 C69.67 11.35, 71.07 12.75, 72.35 14.22 C73.63 15.7, 74.82 17.28, 75.87 18.93 C76.93 20.57, 77.88 22.31, 78.69 24.09 C79.5 25.87, 80.2 27.72, 80.75 29.6 C81.3 31.47, 81.72 33.41, 82 35.34 C82.27 37.28, 82.35 40.23, 82.42 41.21 C82.49 42.19, 82.49 40.23, 82.42 41.21" stroke="none" stroke-width="0" fill="#00a0aa"></path><path d="M82.42 41.21 C82.42 43.16, 82.27 45.14, 82 47.07 C81.72 49.01, 81.3 50.94, 80.75 52.82 C80.2 54.69, 79.5 56.55, 78.69 58.33 C77.88 60.1, 76.93 61.84, 75.87 63.49 C74.82 65.13, 73.63 66.72, 72.35 68.19 C71.07 69.67, 69.67 71.07, 68.19 72.35 C66.72 73.63, 65.13 74.82, 63.49 75.87 C61.84 76.93, 60.1 77.88, 58.33 78.69 C56.55 79.5, 54.69 80.2, 52.82 80.75 C50.94 81.3, 49.01 81.72, 47.07 82 C45.14 82.27, 43.16 82.42, 41.21 82.42 C39.25 82.42, 37.28 82.27, 35.34 82 C33.41 81.72, 31.47 81.3, 29.6 80.75 C27.72 80.2, 25.87 79.5, 24.09 78.69 C22.31 77.88, 20.57 76.93, 18.93 75.87 C17.28 74.82, 15.7 73.63, 14.22 72.35 C12.75 71.07, 11.35 69.67, 10.07 68.19 C8.78 66.72, 7.6 65.13, 6.54 63.49 C5.48 61.84, 4.54 60.1, 3.72 58.33 C2.91 56.55, 2.22 54.69, 1.67 52.82 C1.12 50.94, 0.7 49.01, 0.42 47.07 C0.14 45.14, 0 43.16, 0 41.21 C0 39.25, 0.14 37.28, 0.42 35.34 C0.7 33.41, 1.12 31.47, 1.67 29.6 C2.22 27.72, 2.91 25.87, 3.72 24.09 C4.54 22.31, 5.48 20.57, 6.54 18.93 C7.6 17.28, 8.78 15.7, 10.07 14.22 C11.35 12.75, 12.75 11.35, 14.22 10.07 C15.7 8.78, 17.28 7.6, 18.93 6.54 C20.57 5.48, 22.31 4.54, 24.09 3.72 C25.87 2.91, 27.72 2.22, 29.6 1.67 C31.47 1.12, 33.41 0.7, 35.34 0.42 C37.28 0.14, 39.25 0, 41.21 0 C43.16 0, 45.14 0.14, 47.07 0.42 C49.01 0.7, 50.94 1.12, 52.82 1.67 C54.69 2.22, 56.55 2.91, 58.33 3.72 C60.1 4.54, 61.84 5.48, 63.49 6.54 C65.13 7.6, 66.72 8.78, 68.19 10.07 C69.67 11.35, 71.07 12.75, 72.35 14.22 C73.63 15.7, 74.82 17.28, 75.87 18.93 C76.93 20.57, 77.88 22.31, 78.69 24.09 C79.5 25.87, 80.2 27.72, 80.75 29.6 C81.3 31.47, 81.72 33.41, 82 35.34 C82.27 37.28, 82.35 40.23, 82.42 41.21 C82.49 42.19, 82.49 40.23, 82.42 41.21" stroke="#0d98a0" stroke-width="2" fill="none"></path></g><g stroke-opacity="0.6" fill-opacity="0.6" stroke-linecap="round" transform="translate(327.131680301658 371.63313230521703) rotate(346.51639032286414 30.07902681490964 7.366292281202277)"><path d="M0 0 L60.16 0 L60.16 14.73 L0 14.73" stroke="none" stroke-width="0" fill="#dadada"></path><path d="M0 0 C20.17 0, 40.34 0, 60.16 0 M0 0 C13.15 0, 26.29 0, 60.16 0 M60.16 0 C60.16 4.31, 60.16 8.62, 60.16 14.73 M60.16 0 C60.16 3.06, 60.16 6.12, 60.16 14.73 M60.16 14.73 C45.12 14.73, 30.09 14.73, 0 14.73 M60.16 14.73 C41.78 14.73, 23.39 14.73, 0 14.73 M0 14.73 C0 10.78, 0 6.84, 0 0 M0 14.73 C0 10.53, 0 6.34, 0 0" stroke="#979899" stroke-width="1" fill="none"></path></g><g stroke-linecap="round"><g transform="translate(10 526.4875559592062) rotate(0 221.36318372832966 0)"><path d="M0 0 C73.79 0, 368.94 0, 442.73 0 M0 0 C73.79 0, 368.94 0, 442.73 0" stroke="#393e46" stroke-width="4" fill="none"></path></g></g><mask></mask><g stroke-linecap="round"><g transform="translate(10.823642255668346 257.4740605863235) rotate(0 222.86352641619578 0)"><path d="M0 0 C74.29 0, 371.44 0, 445.73 0" stroke="#fab005" stroke-width="4.5" fill="none" stroke-dasharray="8 12"></path></g></g><mask></mask><g stroke-linecap="round"><g transform="translate(11.713231374084899 10) rotate(0 225.86421179192826 0)"><path d="M0 0 C75.29 0, 376.44 0, 451.73 0 M0 0 C75.29 0, 376.44 0, 451.73 0" stroke="#393e46" stroke-width="4" fill="none"></path></g></g><mask></mask><g stroke-opacity="0.8" fill-opacity="0.8" stroke-linecap="round" transform="translate(262.5887264179314 332.9634454411905) rotate(4.420837829112345 21.16090644143037 15.035380892595185)"><path d="M0 0 L42.32 0 L42.32 30.07 L0 30.07" stroke="none" stroke-width="0" fill="#dadada"></path><path d="M0 0 C11.88 0, 23.77 0, 42.32 0 M0 0 C10.31 0, 20.62 0, 42.32 0 M42.32 0 C42.32 9.88, 42.32 19.77, 42.32 30.07 M42.32 0 C42.32 9.55, 42.32 19.1, 42.32 30.07 M42.32 30.07 C32.62 30.07, 22.91 30.07, 0 30.07 M42.32 30.07 C26.35 30.07, 10.37 30.07, 0 30.07 M0 30.07 C0 20.77, 0 11.47, 0 0 M0 30.07 C0 21.65, 0 13.24, 0 0" stroke="#979899" stroke-width="1" fill="none"></path></g><g stroke-opacity="0.8" fill-opacity="0.8" stroke-linecap="round" transform="translate(255.0897654487212 429.95995400558854) rotate(4.420837829112345 21.16090644143037 15.035380892595185)"><path d="M0 0 L42.32 0 L42.32 30.07 L0 30.07" stroke="none" stroke-width="0" fill="#dadada"></path><path d="M0 0 C15.45 0, 30.91 0, 42.32 0 M0 0 C9.77 0, 19.55 0, 42.32 0 M42.32 0 C42.32 10.27, 42.32 20.53, 42.32 30.07 M42.32 0 C42.32 7.34, 42.32 14.68, 42.32 30.07 M42.32 30.07 C31.39 30.07, 20.46 30.07, 0 30.07 M42.32 30.07 C29.88 30.07, 17.44 30.07, 0 30.07 M0 30.07 C0 22.67, 0 15.27, 0 0 M0 30.07 C0 18.92, 0 7.77, 0 0" stroke="#979899" stroke-width="1" fill="none"></path></g><g stroke-opacity="0.8" fill-opacity="0.8" stroke-linecap="round" transform="translate(238.8564158735494 354.4567259069861) rotate(4.420837829112345 41.20808096489077 41.20808096489077)"><path d="M82.42 41.21 C82.42 43.16, 82.27 45.14, 82 47.07 C81.72 49.01, 81.3 50.94, 80.75 52.82 C80.2 54.69, 79.5 56.55, 78.69 58.33 C77.88 60.1, 76.93 61.84, 75.87 63.49 C74.82 65.13, 73.63 66.72, 72.35 68.19 C71.07 69.67, 69.67 71.07, 68.19 72.35 C66.72 73.63, 65.13 74.82, 63.49 75.87 C61.84 76.93, 60.1 77.88, 58.33 78.69 C56.55 79.5, 54.69 80.2, 52.82 80.75 C50.94 81.3, 49.01 81.72, 47.07 82 C45.14 82.27, 43.16 82.42, 41.21 82.42 C39.25 82.42, 37.28 82.27, 35.34 82 C33.41 81.72, 31.47 81.3, 29.6 80.75 C27.72 80.2, 25.87 79.5, 24.09 78.69 C22.31 77.88, 20.57 76.93, 18.93 75.87 C17.28 74.82, 15.7 73.63, 14.22 72.35 C12.75 71.07, 11.35 69.67, 10.07 68.19 C8.78 66.72, 7.6 65.13, 6.54 63.49 C5.48 61.84, 4.54 60.1, 3.72 58.33 C2.91 56.55, 2.22 54.69, 1.67 52.82 C1.12 50.94, 0.7 49.01, 0.42 47.07 C0.14 45.14, 0 43.16, 0 41.21 C0 39.25, 0.14 37.28, 0.42 35.34 C0.7 33.41, 1.12 31.47, 1.67 29.6 C2.22 27.72, 2.91 25.87, 3.72 24.09 C4.54 22.31, 5.48 20.57, 6.54 18.93 C7.6 17.28, 8.78 15.7, 10.07 14.22 C11.35 12.75, 12.75 11.35, 14.22 10.07 C15.7 8.78, 17.28 7.6, 18.93 6.54 C20.57 5.48, 22.31 4.54, 24.09 3.72 C25.87 2.91, 27.72 2.22, 29.6 1.67 C31.47 1.12, 33.41 0.7, 35.34 0.42 C37.28 0.14, 39.25 0, 41.21 0 C43.16 0, 45.14 0.14, 47.07 0.42 C49.01 0.7, 50.94 1.12, 52.82 1.67 C54.69 2.22, 56.55 2.91, 58.33 3.72 C60.1 4.54, 61.84 5.48, 63.49 6.54 C65.13 7.6, 66.72 8.78, 68.19 10.07 C69.67 11.35, 71.07 12.75, 72.35 14.22 C73.63 15.7, 74.82 17.28, 75.87 18.93 C76.93 20.57, 77.88 22.31, 78.69 24.09 C79.5 25.87, 80.2 27.72, 80.75 29.6 C81.3 31.47, 81.72 33.41, 82 35.34 C82.27 37.28, 82.35 40.23, 82.42 41.21 C82.49 42.19, 82.49 40.23, 82.42 41.21" stroke="none" stroke-width="0" fill="#00a0aa"></path><path d="M82.42 41.21 C82.42 43.16, 82.27 45.14, 82 47.07 C81.72 49.01, 81.3 50.94, 80.75 52.82 C80.2 54.69, 79.5 56.55, 78.69 58.33 C77.88 60.1, 76.93 61.84, 75.87 63.49 C74.82 65.13, 73.63 66.72, 72.35 68.19 C71.07 69.67, 69.67 71.07, 68.19 72.35 C66.72 73.63, 65.13 74.82, 63.49 75.87 C61.84 76.93, 60.1 77.88, 58.33 78.69 C56.55 79.5, 54.69 80.2, 52.82 80.75 C50.94 81.3, 49.01 81.72, 47.07 82 C45.14 82.27, 43.16 82.42, 41.21 82.42 C39.25 82.42, 37.28 82.27, 35.34 82 C33.41 81.72, 31.47 81.3, 29.6 80.75 C27.72 80.2, 25.87 79.5, 24.09 78.69 C22.31 77.88, 20.57 76.93, 18.93 75.87 C17.28 74.82, 15.7 73.63, 14.22 72.35 C12.75 71.07, 11.35 69.67, 10.07 68.19 C8.78 66.72, 7.6 65.13, 6.54 63.49 C5.48 61.84, 4.54 60.1, 3.72 58.33 C2.91 56.55, 2.22 54.69, 1.67 52.82 C1.12 50.94, 0.7 49.01, 0.42 47.07 C0.14 45.14, 0 43.16, 0 41.21 C0 39.25, 0.14 37.28, 0.42 35.34 C0.7 33.41, 1.12 31.47, 1.67 29.6 C2.22 27.72, 2.91 25.87, 3.72 24.09 C4.54 22.31, 5.48 20.57, 6.54 18.93 C7.6 17.28, 8.78 15.7, 10.07 14.22 C11.35 12.75, 12.75 11.35, 14.22 10.07 C15.7 8.78, 17.28 7.6, 18.93 6.54 C20.57 5.48, 22.31 4.54, 24.09 3.72 C25.87 2.91, 27.72 2.22, 29.6 1.67 C31.47 1.12, 33.41 0.7, 35.34 0.42 C37.28 0.14, 39.25 0, 41.21 0 C43.16 0, 45.14 0.14, 47.07 0.42 C49.01 0.7, 50.94 1.12, 52.82 1.67 C54.69 2.22, 56.55 2.91, 58.33 3.72 C60.1 4.54, 61.84 5.48, 63.49 6.54 C65.13 7.6, 66.72 8.78, 68.19 10.07 C69.67 11.35, 71.07 12.75, 72.35 14.22 C73.63 15.7, 74.82 17.28, 75.87 18.93 C76.93 20.57, 77.88 22.31, 78.69 24.09 C79.5 25.87, 80.2 27.72, 80.75 29.6 C81.3 31.47, 81.72 33.41, 82 35.34 C82.27 37.28, 82.35 40.23, 82.42 41.21 C82.49 42.19, 82.49 40.23, 82.42 41.21" stroke="#0d98a0" stroke-width="2" fill="none"></path></g><g stroke-opacity="0.8" fill-opacity="0.8" stroke-linecap="round" transform="translate(223.14135199831117 386.22315129870344) rotate(4.420837829112345 30.07902681490964 7.366292281202277)"><path d="M0 0 L60.16 0 L60.16 14.73 L0 14.73" stroke="none" stroke-width="0" fill="#dadada"></path><path d="M0 0 C17.61 0, 35.21 0, 60.16 0 M0 0 C12.49 0, 24.97 0, 60.16 0 M60.16 0 C60.16 3.68, 60.16 7.36, 60.16 14.73 M60.16 0 C60.16 4.5, 60.16 9, 60.16 14.73 M60.16 14.73 C44.04 14.73, 27.92 14.73, 0 14.73 M60.16 14.73 C43.01 14.73, 25.87 14.73, 0 14.73 M0 14.73 C0 10.17, 0 5.6, 0 0 M0 14.73 C0 9.16, 0 3.59, 0 0" stroke="#979899" stroke-width="1" fill="none"></path></g><g stroke-opacity="0.9" fill-opacity="0.9" stroke-linecap="round" transform="translate(176.77305064421307 324.68481661927376) rotate(23.108189334323395 21.16090644143037 15.035380892595185)"><path d="M0 0 L42.32 0 L42.32 30.07 L0 30.07" stroke="none" stroke-width="0" fill="#dadada"></path><path d="M0 0 C14.5 0, 29.01 0, 42.32 0 M0 0 C15.54 0, 31.08 0, 42.32 0 M42.32 0 C42.32 10.84, 42.32 21.68, 42.32 30.07 M42.32 0 C42.32 8.36, 42.32 16.73, 42.32 30.07 M42.32 30.07 C28.73 30.07, 15.13 30.07, 0 30.07 M42.32 30.07 C33.25 30.07, 24.18 30.07, 0 30.07 M0 30.07 C0 23.54, 0 17, 0 0 M0 30.07 C0 20.54, 0 11.02, 0 0" stroke="#979899" stroke-width="1" fill="none"></path></g><g stroke-opacity="0.9" fill-opacity="0.9" stroke-linecap="round" transform="translate(138.5913695957288 414.165073221571) rotate(23.108189334323395 21.16090644143037 15.035380892595185)"><path d="M0 0 L42.32 0 L42.32 30.07 L0 30.07" stroke="none" stroke-width="0" fill="#dadada"></path><path d="M0 0 C10.25 0, 20.5 0, 42.32 0 M0 0 C12.91 0, 25.81 0, 42.32 0 M42.32 0 C42.32 8.94, 42.32 17.87, 42.32 30.07 M42.32 0 C42.32 9.89, 42.32 19.79, 42.32 30.07 M42.32 30.07 C29.95 30.07, 17.57 30.07, 0 30.07 M42.32 30.07 C26.68 30.07, 11.03 30.07, 0 30.07 M0 30.07 C0 20.33, 0 10.58, 0 0 M0 30.07 C0 24, 0 17.93, 0 0" stroke="#979899" stroke-width="1" fill="none"></path></g><g stroke-opacity="0.9" fill-opacity="0.9" stroke-linecap="round" transform="translate(137.9626516222097 342.4844639322116) rotate(23.108189334323395 41.20808096489077 41.20808096489077)"><path d="M82.42 41.21 C82.42 43.16, 82.27 45.14, 82 47.07 C81.72 49.01, 81.3 50.94, 80.75 52.82 C80.2 54.69, 79.5 56.55, 78.69 58.33 C77.88 60.1, 76.93 61.84, 75.87 63.49 C74.82 65.13, 73.63 66.72, 72.35 68.19 C71.07 69.67, 69.67 71.07, 68.19 72.35 C66.72 73.63, 65.13 74.82, 63.49 75.87 C61.84 76.93, 60.1 77.88, 58.33 78.69 C56.55 79.5, 54.69 80.2, 52.82 80.75 C50.94 81.3, 49.01 81.72, 47.07 82 C45.14 82.27, 43.16 82.42, 41.21 82.42 C39.25 82.42, 37.28 82.27, 35.34 82 C33.41 81.72, 31.47 81.3, 29.6 80.75 C27.72 80.2, 25.87 79.5, 24.09 78.69 C22.31 77.88, 20.57 76.93, 18.93 75.87 C17.28 74.82, 15.7 73.63, 14.22 72.35 C12.75 71.07, 11.35 69.67, 10.07 68.19 C8.78 66.72, 7.6 65.13, 6.54 63.49 C5.48 61.84, 4.54 60.1, 3.72 58.33 C2.91 56.55, 2.22 54.69, 1.67 52.82 C1.12 50.94, 0.7 49.01, 0.42 47.07 C0.14 45.14, 0 43.16, 0 41.21 C0 39.25, 0.14 37.28, 0.42 35.34 C0.7 33.41, 1.12 31.47, 1.67 29.6 C2.22 27.72, 2.91 25.87, 3.72 24.09 C4.54 22.31, 5.48 20.57, 6.54 18.93 C7.6 17.28, 8.78 15.7, 10.07 14.22 C11.35 12.75, 12.75 11.35, 14.22 10.07 C15.7 8.78, 17.28 7.6, 18.93 6.54 C20.57 5.48, 22.31 4.54, 24.09 3.72 C25.87 2.91, 27.72 2.22, 29.6 1.67 C31.47 1.12, 33.41 0.7, 35.34 0.42 C37.28 0.14, 39.25 0, 41.21 0 C43.16 0, 45.14 0.14, 47.07 0.42 C49.01 0.7, 50.94 1.12, 52.82 1.67 C54.69 2.22, 56.55 2.91, 58.33 3.72 C60.1 4.54, 61.84 5.48, 63.49 6.54 C65.13 7.6, 66.72 8.78, 68.19 10.07 C69.67 11.35, 71.07 12.75, 72.35 14.22 C73.63 15.7, 74.82 17.28, 75.87 18.93 C76.93 20.57, 77.88 22.31, 78.69 24.09 C79.5 25.87, 80.2 27.72, 80.75 29.6 C81.3 31.47, 81.72 33.41, 82 35.34 C82.27 37.28, 82.35 40.23, 82.42 41.21 C82.49 42.19, 82.49 40.23, 82.42 41.21" stroke="none" stroke-width="0" fill="#00a0aa"></path><path d="M82.42 41.21 C82.42 43.16, 82.27 45.14, 82 47.07 C81.72 49.01, 81.3 50.94, 80.75 52.82 C80.2 54.69, 79.5 56.55, 78.69 58.33 C77.88 60.1, 76.93 61.84, 75.87 63.49 C74.82 65.13, 73.63 66.72, 72.35 68.19 C71.07 69.67, 69.67 71.07, 68.19 72.35 C66.72 73.63, 65.13 74.82, 63.49 75.87 C61.84 76.93, 60.1 77.88, 58.33 78.69 C56.55 79.5, 54.69 80.2, 52.82 80.75 C50.94 81.3, 49.01 81.72, 47.07 82 C45.14 82.27, 43.16 82.42, 41.21 82.42 C39.25 82.42, 37.28 82.27, 35.34 82 C33.41 81.72, 31.47 81.3, 29.6 80.75 C27.72 80.2, 25.87 79.5, 24.09 78.69 C22.31 77.88, 20.57 76.93, 18.93 75.87 C17.28 74.82, 15.7 73.63, 14.22 72.35 C12.75 71.07, 11.35 69.67, 10.07 68.19 C8.78 66.72, 7.6 65.13, 6.54 63.49 C5.48 61.84, 4.54 60.1, 3.72 58.33 C2.91 56.55, 2.22 54.69, 1.67 52.82 C1.12 50.94, 0.7 49.01, 0.42 47.07 C0.14 45.14, 0 43.16, 0 41.21 C0 39.25, 0.14 37.28, 0.42 35.34 C0.7 33.41, 1.12 31.47, 1.67 29.6 C2.22 27.72, 2.91 25.87, 3.72 24.09 C4.54 22.31, 5.48 20.57, 6.54 18.93 C7.6 17.28, 8.78 15.7, 10.07 14.22 C11.35 12.75, 12.75 11.35, 14.22 10.07 C15.7 8.78, 17.28 7.6, 18.93 6.54 C20.57 5.48, 22.31 4.54, 24.09 3.72 C25.87 2.91, 27.72 2.22, 29.6 1.67 C31.47 1.12, 33.41 0.7, 35.34 0.42 C37.28 0.14, 39.25 0, 41.21 0 C43.16 0, 45.14 0.14, 47.07 0.42 C49.01 0.7, 50.94 1.12, 52.82 1.67 C54.69 2.22, 56.55 2.91, 58.33 3.72 C60.1 4.54, 61.84 5.48, 63.49 6.54 C65.13 7.6, 66.72 8.78, 68.19 10.07 C69.67 11.35, 71.07 12.75, 72.35 14.22 C73.63 15.7, 74.82 17.28, 75.87 18.93 C76.93 20.57, 77.88 22.31, 78.69 24.09 C79.5 25.87, 80.2 27.72, 80.75 29.6 C81.3 31.47, 81.72 33.41, 82 35.34 C82.27 37.28, 82.35 40.23, 82.42 41.21 C82.49 42.19, 82.49 40.23, 82.42 41.21" stroke="#0d98a0" stroke-width="2" fill="none"></path></g><g stroke-opacity="0.9" fill-opacity="0.9" stroke-linecap="round" transform="translate(124.32773638081562 365.75934079982994) rotate(23.108189334323395 30.07902681490964 7.366292281202277)"><path d="M0 0 L60.16 0 L60.16 14.73 L0 14.73" stroke="none" stroke-width="0" fill="#dadada"></path><path d="M0 0 C19.77 0, 39.55 0, 60.16 0 M0 0 C19.1 0, 38.21 0, 60.16 0 M60.16 0 C60.16 3.38, 60.16 6.76, 60.16 14.73 M60.16 0 C60.16 5.56, 60.16 11.12, 60.16 14.73 M60.16 14.73 C41.56 14.73, 22.96 14.73, 0 14.73 M60.16 14.73 C43.32 14.73, 26.48 14.73, 0 14.73 M0 14.73 C0 10.36, 0 5.98, 0 0 M0 14.73 C0 11.17, 0 7.6, 0 0" stroke="#979899" stroke-width="1" fill="none"></path></g><g stroke-linecap="round" transform="translate(108.56906042469177 287.1155792542031) rotate(34.73953984580359 21.16090644143037 15.035380892595299)"><path d="M0 0 L42.32 0 L42.32 30.07 L0 30.07" stroke="none" stroke-width="0" fill="#dadada"></path><path d="M0 0 C14.45 0, 28.9 0, 42.32 0 M0 0 C10.33 0, 20.66 0, 42.32 0 M42.32 0 C42.32 7.77, 42.32 15.53, 42.32 30.07 M42.32 0 C42.32 8.84, 42.32 17.68, 42.32 30.07 M42.32 30.07 C31.91 30.07, 21.49 30.07, 0 30.07 M42.32 30.07 C26.63 30.07, 10.93 30.07, 0 30.07 M0 30.07 C0 19.17, 0 8.27, 0 0 M0 30.07 C0 21.04, 0 12, 0 0" stroke="#979899" stroke-width="1" fill="none"></path></g><g stroke-linecap="round" transform="translate(53.1309750193343 367.06040882991397) rotate(34.73953984580359 21.16090644143037 15.035380892595185)"><path d="M0 0 L42.32 0 L42.32 30.07 L0 30.07" stroke="none" stroke-width="0" fill="#dadada"></path><path d="M0 0 C12.9 0, 25.8 0, 42.32 0 M0 0 C8.56 0, 17.11 0, 42.32 0 M42.32 0 C42.32 6.92, 42.32 13.85, 42.32 30.07 M42.32 0 C42.32 8.32, 42.32 16.63, 42.32 30.07 M42.32 30.07 C28.22 30.07, 14.11 30.07, 0 30.07 M42.32 30.07 C29.2 30.07, 16.08 30.07, 0 30.07 M0 30.07 C0 21.79, 0 13.51, 0 0 M0 30.07 C0 22.2, 0 14.32, 0 0" stroke="#979899" stroke-width="1" fill="none"></path></g><g stroke-linecap="round" transform="translate(61.27852694830153 300.22933131380887) rotate(34.73953984580359 41.20808096489077 41.208080964890655)"><path d="M82.42 41.21 C82.42 43.16, 82.27 45.14, 82 47.07 C81.72 49.01, 81.3 50.94, 80.75 52.82 C80.2 54.69, 79.5 56.55, 78.69 58.33 C77.88 60.1, 76.93 61.84, 75.87 63.49 C74.82 65.13, 73.63 66.72, 72.35 68.19 C71.07 69.67, 69.67 71.07, 68.19 72.35 C66.72 73.63, 65.13 74.82, 63.49 75.87 C61.84 76.93, 60.1 77.88, 58.33 78.69 C56.55 79.5, 54.69 80.2, 52.82 80.75 C50.94 81.3, 49.01 81.72, 47.07 82 C45.14 82.27, 43.16 82.42, 41.21 82.42 C39.25 82.42, 37.28 82.27, 35.34 82 C33.41 81.72, 31.47 81.3, 29.6 80.75 C27.72 80.2, 25.87 79.5, 24.09 78.69 C22.31 77.88, 20.57 76.93, 18.93 75.87 C17.28 74.82, 15.7 73.63, 14.22 72.35 C12.75 71.07, 11.35 69.67, 10.07 68.19 C8.78 66.72, 7.6 65.13, 6.54 63.49 C5.48 61.84, 4.54 60.1, 3.72 58.33 C2.91 56.55, 2.22 54.69, 1.67 52.82 C1.12 50.94, 0.7 49.01, 0.42 47.07 C0.14 45.14, 0 43.16, 0 41.21 C0 39.25, 0.14 37.28, 0.42 35.34 C0.7 33.41, 1.12 31.47, 1.67 29.6 C2.22 27.72, 2.91 25.87, 3.72 24.09 C4.54 22.31, 5.48 20.57, 6.54 18.93 C7.6 17.28, 8.78 15.7, 10.07 14.22 C11.35 12.75, 12.75 11.35, 14.22 10.07 C15.7 8.78, 17.28 7.6, 18.93 6.54 C20.57 5.48, 22.31 4.54, 24.09 3.72 C25.87 2.91, 27.72 2.22, 29.6 1.67 C31.47 1.12, 33.41 0.7, 35.34 0.42 C37.28 0.14, 39.25 0, 41.21 0 C43.16 0, 45.14 0.14, 47.07 0.42 C49.01 0.7, 50.94 1.12, 52.82 1.67 C54.69 2.22, 56.55 2.91, 58.33 3.72 C60.1 4.54, 61.84 5.48, 63.49 6.54 C65.13 7.6, 66.72 8.78, 68.19 10.07 C69.67 11.35, 71.07 12.75, 72.35 14.22 C73.63 15.7, 74.82 17.28, 75.87 18.93 C76.93 20.57, 77.88 22.31, 78.69 24.09 C79.5 25.87, 80.2 27.72, 80.75 29.6 C81.3 31.47, 81.72 33.41, 82 35.34 C82.27 37.28, 82.35 40.23, 82.42 41.21 C82.49 42.19, 82.49 40.23, 82.42 41.21" stroke="none" stroke-width="0" fill="#00a0aa"></path><path d="M82.42 41.21 C82.42 43.16, 82.27 45.14, 82 47.07 C81.72 49.01, 81.3 50.94, 80.75 52.82 C80.2 54.69, 79.5 56.55, 78.69 58.33 C77.88 60.1, 76.93 61.84, 75.87 63.49 C74.82 65.13, 73.63 66.72, 72.35 68.19 C71.07 69.67, 69.67 71.07, 68.19 72.35 C66.72 73.63, 65.13 74.82, 63.49 75.87 C61.84 76.93, 60.1 77.88, 58.33 78.69 C56.55 79.5, 54.69 80.2, 52.82 80.75 C50.94 81.3, 49.01 81.72, 47.07 82 C45.14 82.27, 43.16 82.42, 41.21 82.42 C39.25 82.42, 37.28 82.27, 35.34 82 C33.41 81.72, 31.47 81.3, 29.6 80.75 C27.72 80.2, 25.87 79.5, 24.09 78.69 C22.31 77.88, 20.57 76.93, 18.93 75.87 C17.28 74.82, 15.7 73.63, 14.22 72.35 C12.75 71.07, 11.35 69.67, 10.07 68.19 C8.78 66.72, 7.6 65.13, 6.54 63.49 C5.48 61.84, 4.54 60.1, 3.72 58.33 C2.91 56.55, 2.22 54.69, 1.67 52.82 C1.12 50.94, 0.7 49.01, 0.42 47.07 C0.14 45.14, 0 43.16, 0 41.21 C0 39.25, 0.14 37.28, 0.42 35.34 C0.7 33.41, 1.12 31.47, 1.67 29.6 C2.22 27.72, 2.91 25.87, 3.72 24.09 C4.54 22.31, 5.48 20.57, 6.54 18.93 C7.6 17.28, 8.78 15.7, 10.07 14.22 C11.35 12.75, 12.75 11.35, 14.22 10.07 C15.7 8.78, 17.28 7.6, 18.93 6.54 C20.57 5.48, 22.31 4.54, 24.09 3.72 C25.87 2.91, 27.72 2.22, 29.6 1.67 C31.47 1.12, 33.41 0.7, 35.34 0.42 C37.28 0.14, 39.25 0, 41.21 0 C43.16 0, 45.14 0.14, 47.07 0.42 C49.01 0.7, 50.94 1.12, 52.82 1.67 C54.69 2.22, 56.55 2.91, 58.33 3.72 C60.1 4.54, 61.84 5.48, 63.49 6.54 C65.13 7.6, 66.72 8.78, 68.19 10.07 C69.67 11.35, 71.07 12.75, 72.35 14.22 C73.63 15.7, 74.82 17.28, 75.87 18.93 C76.93 20.57, 77.88 22.31, 78.69 24.09 C79.5 25.87, 80.2 27.72, 80.75 29.6 C81.3 31.47, 81.72 33.41, 82 35.34 C82.27 37.28, 82.35 40.23, 82.42 41.21 C82.49 42.19, 82.49 40.23, 82.42 41.21" stroke="#0d98a0" stroke-width="2" fill="none"></path></g><g stroke-linecap="round" transform="translate(50.2825739985517 318.72843880474534) rotate(34.73953984580359 30.07902681490964 7.366292281202277)"><path d="M0 0 L60.16 0 L60.16 14.73 L0 14.73" stroke="none" stroke-width="0" fill="#dadada"></path><path d="M0 0 C21.68 0, 43.37 0, 60.16 0 M0 0 C16.73 0, 33.46 0, 60.16 0 M60.16 0 C60.16 4.73, 60.16 9.47, 60.16 14.73 M60.16 0 C60.16 3.16, 60.16 6.31, 60.16 14.73 M60.16 14.73 C47.09 14.73, 34.02 14.73, 0 14.73 M60.16 14.73 C41.1 14.73, 22.04 14.73, 0 14.73 M0 14.73 C0 9.68, 0 4.63, 0 0 M0 14.73 C0 9.03, 0 3.33, 0 0" stroke="#979899" stroke-width="1" fill="none"></path></g><g stroke-opacity="0.7" fill-opacity="0.7" stroke-linecap="round" transform="translate(400.0946535619678 104.7687316187646) rotate(26.024992647136724 21.16090644143037 15.035380892595299)"><path d="M0 0 L42.32 0 L42.32 30.07 L0 30.07" stroke="none" stroke-width="0" fill="#dadada"></path><path d="M0 0 C11.98 0, 23.97 0, 42.32 0 M0 0 C9.07 0, 18.13 0, 42.32 0 M42.32 0 C42.32 6.77, 42.32 13.53, 42.32 30.07 M42.32 0 C42.32 10.7, 42.32 21.41, 42.32 30.07 M42.32 30.07 C26.55 30.07, 10.77 30.07, 0 30.07 M42.32 30.07 C30.69 30.07, 19.05 30.07, 0 30.07 M0 30.07 C0 22.26, 0 14.46, 0 0 M0 30.07 C0 18.09, 0 6.12, 0 0" stroke="#979899" stroke-width="1" fill="none"></path></g><g stroke-opacity="0.7" fill-opacity="0.7" stroke-linecap="round" transform="translate(357.4091601577825 192.1901577232518) rotate(26.024992647136724 21.16090644143037 15.035380892595299)"><path d="M0 0 L42.32 0 L42.32 30.07 L0 30.07" stroke="none" stroke-width="0" fill="#dadada"></path><path d="M0 0 C15 0, 29.99 0, 42.32 0 M0 0 C15.24 0, 30.48 0, 42.32 0 M42.32 0 C42.32 8.96, 42.32 17.91, 42.32 30.07 M42.32 0 C42.32 6.58, 42.32 13.16, 42.32 30.07 M42.32 30.07 C27.13 30.07, 11.94 30.07, 0 30.07 M42.32 30.07 C29.17 30.07, 16.03 30.07, 0 30.07 M0 30.07 C0 19.41, 0 8.75, 0 0 M0 30.07 C0 22.81, 0 15.54, 0 0" stroke="#979899" stroke-width="1" fill="none"></path></g><g stroke-opacity="0.7" fill-opacity="0.7" stroke-linecap="round" transform="translate(359.07099310126387 121.55662937604825) rotate(26.024992647136724 41.20808096489077 41.20808096489077)"><path d="M82.42 41.21 C82.42 43.16, 82.27 45.14, 82 47.07 C81.72 49.01, 81.3 50.94, 80.75 52.82 C80.2 54.69, 79.5 56.55, 78.69 58.33 C77.88 60.1, 76.93 61.84, 75.87 63.49 C74.82 65.13, 73.63 66.72, 72.35 68.19 C71.07 69.67, 69.67 71.07, 68.19 72.35 C66.72 73.63, 65.13 74.82, 63.49 75.87 C61.84 76.93, 60.1 77.88, 58.33 78.69 C56.55 79.5, 54.69 80.2, 52.82 80.75 C50.94 81.3, 49.01 81.72, 47.07 82 C45.14 82.27, 43.16 82.42, 41.21 82.42 C39.25 82.42, 37.28 82.27, 35.34 82 C33.41 81.72, 31.47 81.3, 29.6 80.75 C27.72 80.2, 25.87 79.5, 24.09 78.69 C22.31 77.88, 20.57 76.93, 18.93 75.87 C17.28 74.82, 15.7 73.63, 14.22 72.35 C12.75 71.07, 11.35 69.67, 10.07 68.19 C8.78 66.72, 7.6 65.13, 6.54 63.49 C5.48 61.84, 4.54 60.1, 3.72 58.33 C2.91 56.55, 2.22 54.69, 1.67 52.82 C1.12 50.94, 0.7 49.01, 0.42 47.07 C0.14 45.14, 0 43.16, 0 41.21 C0 39.25, 0.14 37.28, 0.42 35.34 C0.7 33.41, 1.12 31.47, 1.67 29.6 C2.22 27.72, 2.91 25.87, 3.72 24.09 C4.54 22.31, 5.48 20.57, 6.54 18.93 C7.6 17.28, 8.78 15.7, 10.07 14.22 C11.35 12.75, 12.75 11.35, 14.22 10.07 C15.7 8.78, 17.28 7.6, 18.93 6.54 C20.57 5.48, 22.31 4.54, 24.09 3.72 C25.87 2.91, 27.72 2.22, 29.6 1.67 C31.47 1.12, 33.41 0.7, 35.34 0.42 C37.28 0.14, 39.25 0, 41.21 0 C43.16 0, 45.14 0.14, 47.07 0.42 C49.01 0.7, 50.94 1.12, 52.82 1.67 C54.69 2.22, 56.55 2.91, 58.33 3.72 C60.1 4.54, 61.84 5.48, 63.49 6.54 C65.13 7.6, 66.72 8.78, 68.19 10.07 C69.67 11.35, 71.07 12.75, 72.35 14.22 C73.63 15.7, 74.82 17.28, 75.87 18.93 C76.93 20.57, 77.88 22.31, 78.69 24.09 C79.5 25.87, 80.2 27.72, 80.75 29.6 C81.3 31.47, 81.72 33.41, 82 35.34 C82.27 37.28, 82.35 40.23, 82.42 41.21 C82.49 42.19, 82.49 40.23, 82.42 41.21" stroke="none" stroke-width="0" fill="#4dabf7"></path><path d="M82.42 41.21 C82.42 43.16, 82.27 45.14, 82 47.07 C81.72 49.01, 81.3 50.94, 80.75 52.82 C80.2 54.69, 79.5 56.55, 78.69 58.33 C77.88 60.1, 76.93 61.84, 75.87 63.49 C74.82 65.13, 73.63 66.72, 72.35 68.19 C71.07 69.67, 69.67 71.07, 68.19 72.35 C66.72 73.63, 65.13 74.82, 63.49 75.87 C61.84 76.93, 60.1 77.88, 58.33 78.69 C56.55 79.5, 54.69 80.2, 52.82 80.75 C50.94 81.3, 49.01 81.72, 47.07 82 C45.14 82.27, 43.16 82.42, 41.21 82.42 C39.25 82.42, 37.28 82.27, 35.34 82 C33.41 81.72, 31.47 81.3, 29.6 80.75 C27.72 80.2, 25.87 79.5, 24.09 78.69 C22.31 77.88, 20.57 76.93, 18.93 75.87 C17.28 74.82, 15.7 73.63, 14.22 72.35 C12.75 71.07, 11.35 69.67, 10.07 68.19 C8.78 66.72, 7.6 65.13, 6.54 63.49 C5.48 61.84, 4.54 60.1, 3.72 58.33 C2.91 56.55, 2.22 54.69, 1.67 52.82 C1.12 50.94, 0.7 49.01, 0.42 47.07 C0.14 45.14, 0 43.16, 0 41.21 C0 39.25, 0.14 37.28, 0.42 35.34 C0.7 33.41, 1.12 31.47, 1.67 29.6 C2.22 27.72, 2.91 25.87, 3.72 24.09 C4.54 22.31, 5.48 20.57, 6.54 18.93 C7.6 17.28, 8.78 15.7, 10.07 14.22 C11.35 12.75, 12.75 11.35, 14.22 10.07 C15.7 8.78, 17.28 7.6, 18.93 6.54 C20.57 5.48, 22.31 4.54, 24.09 3.72 C25.87 2.91, 27.72 2.22, 29.6 1.67 C31.47 1.12, 33.41 0.7, 35.34 0.42 C37.28 0.14, 39.25 0, 41.21 0 C43.16 0, 45.14 0.14, 47.07 0.42 C49.01 0.7, 50.94 1.12, 52.82 1.67 C54.69 2.22, 56.55 2.91, 58.33 3.72 C60.1 4.54, 61.84 5.48, 63.49 6.54 C65.13 7.6, 66.72 8.78, 68.19 10.07 C69.67 11.35, 71.07 12.75, 72.35 14.22 C73.63 15.7, 74.82 17.28, 75.87 18.93 C76.93 20.57, 77.88 22.31, 78.69 24.09 C79.5 25.87, 80.2 27.72, 80.75 29.6 C81.3 31.47, 81.72 33.41, 82 35.34 C82.27 37.28, 82.35 40.23, 82.42 41.21 C82.49 42.19, 82.49 40.23, 82.42 41.21" stroke="#228be6" stroke-width="2" fill="none"></path></g><g stroke-opacity="0.7" fill-opacity="0.7" stroke-linecap="round" transform="translate(346.0058662955057 143.5850606526942) rotate(26.024992647136724 30.07902681490964 7.366292281202277)"><path d="M0 0 L60.16 0 L60.16 14.73 L0 14.73" stroke="none" stroke-width="0" fill="#dadada"></path><path d="M0 0 C15.6 0, 31.2 0, 60.16 0 M0 0 C12.98 0, 25.96 0, 60.16 0 M60.16 0 C60.16 3.94, 60.16 7.87, 60.16 14.73 M60.16 0 C60.16 3.65, 60.16 7.3, 60.16 14.73 M60.16 14.73 C41.55 14.73, 22.94 14.73, 0 14.73 M60.16 14.73 C45.5 14.73, 30.84 14.73, 0 14.73 M0 14.73 C0 9.65, 0 4.58, 0 0 M0 14.73 C0 8.95, 0 3.16, 0 0" stroke="#979899" stroke-width="1" fill="none"></path></g><g stroke-opacity="0.8" fill-opacity="0.8" stroke-linecap="round" transform="translate(315.5673411498001 69.7213510462393) rotate(20.40093502071916 21.16090644143037 15.035380892595299)"><path d="M0 0 L42.32 0 L42.32 30.07 L0 30.07" stroke="none" stroke-width="0" fill="#dadada"></path><path d="M0 0 C11.28 0, 22.56 0, 42.32 0 M0 0 C9.45 0, 18.9 0, 42.32 0 M42.32 0 C42.32 8.17, 42.32 16.34, 42.32 30.07 M42.32 0 C42.32 10.91, 42.32 21.83, 42.32 30.07 M42.32 30.07 C31.89 30.07, 21.46 30.07, 0 30.07 M42.32 30.07 C28.96 30.07, 15.6 30.07, 0 30.07 M0 30.07 C0 23.12, 0 16.18, 0 0 M0 30.07 C0 21.37, 0 12.67, 0 0" stroke="#979899" stroke-width="1" fill="none"></path></g><g stroke-opacity="0.8" fill-opacity="0.8" stroke-linecap="round" transform="translate(281.6546885013231 160.90517131960246) rotate(20.40093502071916 21.16090644143037 15.035380892595299)"><path d="M0 0 L42.32 0 L42.32 30.07 L0 30.07" stroke="none" stroke-width="0" fill="#dadada"></path><path d="M0 0 C8.73 0, 17.46 0, 42.32 0 M0 0 C14.62 0, 29.24 0, 42.32 0 M42.32 0 C42.32 9.53, 42.32 19.07, 42.32 30.07 M42.32 0 C42.32 7.94, 42.32 15.88, 42.32 30.07 M42.32 30.07 C32.97 30.07, 23.62 30.07, 0 30.07 M42.32 30.07 C27.41 30.07, 12.49 30.07, 0 30.07 M0 30.07 C0 23.55, 0 17.03, 0 0 M0 30.07 C0 23.39, 0 16.72, 0 0" stroke="#979899" stroke-width="1" fill="none"></path></g><g stroke-opacity="0.8" fill-opacity="0.8" stroke-linecap="round" transform="translate(278.85482614076636 88.35816285089004) rotate(20.40093502071916 41.20808096489077 41.20808096489077)"><path d="M82.42 41.21 C82.42 43.16, 82.27 45.14, 82 47.07 C81.72 49.01, 81.3 50.94, 80.75 52.82 C80.2 54.69, 79.5 56.55, 78.69 58.33 C77.88 60.1, 76.93 61.84, 75.87 63.49 C74.82 65.13, 73.63 66.72, 72.35 68.19 C71.07 69.67, 69.67 71.07, 68.19 72.35 C66.72 73.63, 65.13 74.82, 63.49 75.87 C61.84 76.93, 60.1 77.88, 58.33 78.69 C56.55 79.5, 54.69 80.2, 52.82 80.75 C50.94 81.3, 49.01 81.72, 47.07 82 C45.14 82.27, 43.16 82.42, 41.21 82.42 C39.25 82.42, 37.28 82.27, 35.34 82 C33.41 81.72, 31.47 81.3, 29.6 80.75 C27.72 80.2, 25.87 79.5, 24.09 78.69 C22.31 77.88, 20.57 76.93, 18.93 75.87 C17.28 74.82, 15.7 73.63, 14.22 72.35 C12.75 71.07, 11.35 69.67, 10.07 68.19 C8.78 66.72, 7.6 65.13, 6.54 63.49 C5.48 61.84, 4.54 60.1, 3.72 58.33 C2.91 56.55, 2.22 54.69, 1.67 52.82 C1.12 50.94, 0.7 49.01, 0.42 47.07 C0.14 45.14, 0 43.16, 0 41.21 C0 39.25, 0.14 37.28, 0.42 35.34 C0.7 33.41, 1.12 31.47, 1.67 29.6 C2.22 27.72, 2.91 25.87, 3.72 24.09 C4.54 22.31, 5.48 20.57, 6.54 18.93 C7.6 17.28, 8.78 15.7, 10.07 14.22 C11.35 12.75, 12.75 11.35, 14.22 10.07 C15.7 8.78, 17.28 7.6, 18.93 6.54 C20.57 5.48, 22.31 4.54, 24.09 3.72 C25.87 2.91, 27.72 2.22, 29.6 1.67 C31.47 1.12, 33.41 0.7, 35.34 0.42 C37.28 0.14, 39.25 0, 41.21 0 C43.16 0, 45.14 0.14, 47.07 0.42 C49.01 0.7, 50.94 1.12, 52.82 1.67 C54.69 2.22, 56.55 2.91, 58.33 3.72 C60.1 4.54, 61.84 5.48, 63.49 6.54 C65.13 7.6, 66.72 8.78, 68.19 10.07 C69.67 11.35, 71.07 12.75, 72.35 14.22 C73.63 15.7, 74.82 17.28, 75.87 18.93 C76.93 20.57, 77.88 22.31, 78.69 24.09 C79.5 25.87, 80.2 27.72, 80.75 29.6 C81.3 31.47, 81.72 33.41, 82 35.34 C82.27 37.28, 82.35 40.23, 82.42 41.21 C82.49 42.19, 82.49 40.23, 82.42 41.21" stroke="none" stroke-width="0" fill="#4dabf7"></path><path d="M82.42 41.21 C82.42 43.16, 82.27 45.14, 82 47.07 C81.72 49.01, 81.3 50.94, 80.75 52.82 C80.2 54.69, 79.5 56.55, 78.69 58.33 C77.88 60.1, 76.93 61.84, 75.87 63.49 C74.82 65.13, 73.63 66.72, 72.35 68.19 C71.07 69.67, 69.67 71.07, 68.19 72.35 C66.72 73.63, 65.13 74.82, 63.49 75.87 C61.84 76.93, 60.1 77.88, 58.33 78.69 C56.55 79.5, 54.69 80.2, 52.82 80.75 C50.94 81.3, 49.01 81.72, 47.07 82 C45.14 82.27, 43.16 82.42, 41.21 82.42 C39.25 82.42, 37.28 82.27, 35.34 82 C33.41 81.72, 31.47 81.3, 29.6 80.75 C27.72 80.2, 25.87 79.5, 24.09 78.69 C22.31 77.88, 20.57 76.93, 18.93 75.87 C17.28 74.82, 15.7 73.63, 14.22 72.35 C12.75 71.07, 11.35 69.67, 10.07 68.19 C8.78 66.72, 7.6 65.13, 6.54 63.49 C5.48 61.84, 4.54 60.1, 3.72 58.33 C2.91 56.55, 2.22 54.69, 1.67 52.82 C1.12 50.94, 0.7 49.01, 0.42 47.07 C0.14 45.14, 0 43.16, 0 41.21 C0 39.25, 0.14 37.28, 0.42 35.34 C0.7 33.41, 1.12 31.47, 1.67 29.6 C2.22 27.72, 2.91 25.87, 3.72 24.09 C4.54 22.31, 5.48 20.57, 6.54 18.93 C7.6 17.28, 8.78 15.7, 10.07 14.22 C11.35 12.75, 12.75 11.35, 14.22 10.07 C15.7 8.78, 17.28 7.6, 18.93 6.54 C20.57 5.48, 22.31 4.54, 24.09 3.72 C25.87 2.91, 27.72 2.22, 29.6 1.67 C31.47 1.12, 33.41 0.7, 35.34 0.42 C37.28 0.14, 39.25 0, 41.21 0 C43.16 0, 45.14 0.14, 47.07 0.42 C49.01 0.7, 50.94 1.12, 52.82 1.67 C54.69 2.22, 56.55 2.91, 58.33 3.72 C60.1 4.54, 61.84 5.48, 63.49 6.54 C65.13 7.6, 66.72 8.78, 68.19 10.07 C69.67 11.35, 71.07 12.75, 72.35 14.22 C73.63 15.7, 74.82 17.28, 75.87 18.93 C76.93 20.57, 77.88 22.31, 78.69 24.09 C79.5 25.87, 80.2 27.72, 80.75 29.6 C81.3 31.47, 81.72 33.41, 82 35.34 C82.27 37.28, 82.35 40.23, 82.42 41.21 C82.49 42.19, 82.49 40.23, 82.42 41.21" stroke="#228be6" stroke-width="2" fill="none"></path></g><g stroke-opacity="0.8" fill-opacity="0.8" stroke-linecap="round" transform="translate(264.7484437823973 112.81450804060569) rotate(20.40093502071916 30.07902681490964 7.366292281202277)"><path d="M0 0 L60.16 0 L60.16 14.73 L0 14.73" stroke="none" stroke-width="0" fill="#dadada"></path><path d="M0 0 C19.49 0, 38.97 0, 60.16 0 M0 0 C13.26 0, 26.51 0, 60.16 0 M60.16 0 C60.16 3.55, 60.16 7.1, 60.16 14.73 M60.16 0 C60.16 5.38, 60.16 10.75, 60.16 14.73 M60.16 14.73 C38.14 14.73, 16.11 14.73, 0 14.73 M60.16 14.73 C39.89 14.73, 19.63 14.73, 0 14.73 M0 14.73 C0 10.46, 0 6.18, 0 0 M0 14.73 C0 9.13, 0 3.52, 0 0" stroke="#979899" stroke-width="1" fill="none"></path></g><g stroke-opacity="0.9" fill-opacity="0.9" stroke-linecap="round" transform="translate(221.5332256767233 50.43007021208223) rotate(371.5928436301688 21.16090644143037 15.035380892595299)"><path d="M0 0 L42.32 0 L42.32 30.07 L0 30.07" stroke="none" stroke-width="0" fill="#dadada"></path><path d="M0 0 C12.75 0, 25.5 0, 42.32 0 M0 0 C16.28 0, 32.56 0, 42.32 0 M42.32 0 C42.32 6.14, 42.32 12.27, 42.32 30.07 M42.32 0 C42.32 7.17, 42.32 14.33, 42.32 30.07 M42.32 30.07 C33.61 30.07, 24.9 30.07, 0 30.07 M42.32 30.07 C31.42 30.07, 20.52 30.07, 0 30.07 M0 30.07 C0 18.99, 0 7.9, 0 0 M0 30.07 C0 18.4, 0 6.73, 0 0" stroke="#979899" stroke-width="1" fill="none"></path></g><g stroke-opacity="0.9" fill-opacity="0.9" stroke-linecap="round" transform="translate(201.9830712360399 145.73142671159417) rotate(371.5928436301688 21.16090644143037 15.035380892595299)"><path d="M0 0 L42.32 0 L42.32 30.07 L0 30.07" stroke="none" stroke-width="0" fill="#dadada"></path><path d="M0 0 C13.63 0, 27.27 0, 42.32 0 M0 0 C8.79 0, 17.59 0, 42.32 0 M42.32 0 C42.32 7.05, 42.32 14.09, 42.32 30.07 M42.32 0 C42.32 10.9, 42.32 21.81, 42.32 30.07 M42.32 30.07 C27.1 30.07, 11.88 30.07, 0 30.07 M42.32 30.07 C30.38 30.07, 18.43 30.07, 0 30.07 M0 30.07 C0 23.62, 0 17.17, 0 0 M0 30.07 C0 18.15, 0 6.24, 0 0" stroke="#979899" stroke-width="1" fill="none"></path></g><g stroke-opacity="0.9" fill-opacity="0.9" stroke-linecap="round" transform="translate(191.87872306611007 71.09031981388307) rotate(371.5928436301688 41.20808096489077 41.20808096489077)"><path d="M82.42 41.21 C82.42 43.16, 82.27 45.14, 82 47.07 C81.72 49.01, 81.3 50.94, 80.75 52.82 C80.2 54.69, 79.5 56.55, 78.69 58.33 C77.88 60.1, 76.93 61.84, 75.87 63.49 C74.82 65.13, 73.63 66.72, 72.35 68.19 C71.07 69.67, 69.67 71.07, 68.19 72.35 C66.72 73.63, 65.13 74.82, 63.49 75.87 C61.84 76.93, 60.1 77.88, 58.33 78.69 C56.55 79.5, 54.69 80.2, 52.82 80.75 C50.94 81.3, 49.01 81.72, 47.07 82 C45.14 82.27, 43.16 82.42, 41.21 82.42 C39.25 82.42, 37.28 82.27, 35.34 82 C33.41 81.72, 31.47 81.3, 29.6 80.75 C27.72 80.2, 25.87 79.5, 24.09 78.69 C22.31 77.88, 20.57 76.93, 18.93 75.87 C17.28 74.82, 15.7 73.63, 14.22 72.35 C12.75 71.07, 11.35 69.67, 10.07 68.19 C8.78 66.72, 7.6 65.13, 6.54 63.49 C5.48 61.84, 4.54 60.1, 3.72 58.33 C2.91 56.55, 2.22 54.69, 1.67 52.82 C1.12 50.94, 0.7 49.01, 0.42 47.07 C0.14 45.14, 0 43.16, 0 41.21 C0 39.25, 0.14 37.28, 0.42 35.34 C0.7 33.41, 1.12 31.47, 1.67 29.6 C2.22 27.72, 2.91 25.87, 3.72 24.09 C4.54 22.31, 5.48 20.57, 6.54 18.93 C7.6 17.28, 8.78 15.7, 10.07 14.22 C11.35 12.75, 12.75 11.35, 14.22 10.07 C15.7 8.78, 17.28 7.6, 18.93 6.54 C20.57 5.48, 22.31 4.54, 24.09 3.72 C25.87 2.91, 27.72 2.22, 29.6 1.67 C31.47 1.12, 33.41 0.7, 35.34 0.42 C37.28 0.14, 39.25 0, 41.21 0 C43.16 0, 45.14 0.14, 47.07 0.42 C49.01 0.7, 50.94 1.12, 52.82 1.67 C54.69 2.22, 56.55 2.91, 58.33 3.72 C60.1 4.54, 61.84 5.48, 63.49 6.54 C65.13 7.6, 66.72 8.78, 68.19 10.07 C69.67 11.35, 71.07 12.75, 72.35 14.22 C73.63 15.7, 74.82 17.28, 75.87 18.93 C76.93 20.57, 77.88 22.31, 78.69 24.09 C79.5 25.87, 80.2 27.72, 80.75 29.6 C81.3 31.47, 81.72 33.41, 82 35.34 C82.27 37.28, 82.35 40.23, 82.42 41.21 C82.49 42.19, 82.49 40.23, 82.42 41.21" stroke="none" stroke-width="0" fill="#4dabf7"></path><path d="M82.42 41.21 C82.42 43.16, 82.27 45.14, 82 47.07 C81.72 49.01, 81.3 50.94, 80.75 52.82 C80.2 54.69, 79.5 56.55, 78.69 58.33 C77.88 60.1, 76.93 61.84, 75.87 63.49 C74.82 65.13, 73.63 66.72, 72.35 68.19 C71.07 69.67, 69.67 71.07, 68.19 72.35 C66.72 73.63, 65.13 74.82, 63.49 75.87 C61.84 76.93, 60.1 77.88, 58.33 78.69 C56.55 79.5, 54.69 80.2, 52.82 80.75 C50.94 81.3, 49.01 81.72, 47.07 82 C45.14 82.27, 43.16 82.42, 41.21 82.42 C39.25 82.42, 37.28 82.27, 35.34 82 C33.41 81.72, 31.47 81.3, 29.6 80.75 C27.72 80.2, 25.87 79.5, 24.09 78.69 C22.31 77.88, 20.57 76.93, 18.93 75.87 C17.28 74.82, 15.7 73.63, 14.22 72.35 C12.75 71.07, 11.35 69.67, 10.07 68.19 C8.78 66.72, 7.6 65.13, 6.54 63.49 C5.48 61.84, 4.54 60.1, 3.72 58.33 C2.91 56.55, 2.22 54.69, 1.67 52.82 C1.12 50.94, 0.7 49.01, 0.42 47.07 C0.14 45.14, 0 43.16, 0 41.21 C0 39.25, 0.14 37.28, 0.42 35.34 C0.7 33.41, 1.12 31.47, 1.67 29.6 C2.22 27.72, 2.91 25.87, 3.72 24.09 C4.54 22.31, 5.48 20.57, 6.54 18.93 C7.6 17.28, 8.78 15.7, 10.07 14.22 C11.35 12.75, 12.75 11.35, 14.22 10.07 C15.7 8.78, 17.28 7.6, 18.93 6.54 C20.57 5.48, 22.31 4.54, 24.09 3.72 C25.87 2.91, 27.72 2.22, 29.6 1.67 C31.47 1.12, 33.41 0.7, 35.34 0.42 C37.28 0.14, 39.25 0, 41.21 0 C43.16 0, 45.14 0.14, 47.07 0.42 C49.01 0.7, 50.94 1.12, 52.82 1.67 C54.69 2.22, 56.55 2.91, 58.33 3.72 C60.1 4.54, 61.84 5.48, 63.49 6.54 C65.13 7.6, 66.72 8.78, 68.19 10.07 C69.67 11.35, 71.07 12.75, 72.35 14.22 C73.63 15.7, 74.82 17.28, 75.87 18.93 C76.93 20.57, 77.88 22.31, 78.69 24.09 C79.5 25.87, 80.2 27.72, 80.75 29.6 C81.3 31.47, 81.72 33.41, 82 35.34 C82.27 37.28, 82.35 40.23, 82.42 41.21 C82.49 42.19, 82.49 40.23, 82.42 41.21" stroke="#228be6" stroke-width="2" fill="none"></path></g><g stroke-opacity="0.9" fill-opacity="0.9" stroke-linecap="round" transform="translate(176.6327983668475 99.52153588022315) rotate(371.5928436301688 30.07902681490964 7.366292281202277)"><path d="M0 0 L60.16 0 L60.16 14.73 L0 14.73" stroke="none" stroke-width="0" fill="#dadada"></path><path d="M0 0 C16.03 0, 32.05 0, 60.16 0 M0 0 C18.16 0, 36.33 0, 60.16 0 M60.16 0 C60.16 4.48, 60.16 8.96, 60.16 14.73 M60.16 0 C60.16 5.27, 60.16 10.55, 60.16 14.73 M60.16 14.73 C37.39 14.73, 14.62 14.73, 0 14.73 M60.16 14.73 C43.89 14.73, 27.63 14.73, 0 14.73 M0 14.73 C0 9.75, 0 4.76, 0 0 M0 14.73 C0 11.63, 0 8.52, 0 0" stroke="#979899" stroke-width="1" fill="none"></path></g><g stroke-linecap="round" transform="translate(113.26785624236572 42.021657333076064) rotate(361.20017057321047 21.16090644143037 15.035380892595299)"><path d="M0 0 L42.32 0 L42.32 30.07 L0 30.07" stroke="none" stroke-width="0" fill="#dadada"></path><path d="M0 0 C14.6 0, 29.19 0, 42.32 0 M0 0 C16.74 0, 33.48 0, 42.32 0 M42.32 0 C42.32 6.14, 42.32 12.28, 42.32 30.07 M42.32 0 C42.32 10.04, 42.32 20.08, 42.32 30.07 M42.32 30.07 C33.52 30.07, 24.73 30.07, 0 30.07 M42.32 30.07 C33.49 30.07, 24.65 30.07, 0 30.07 M0 30.07 C0 20.11, 0 10.15, 0 0 M0 30.07 C0 20.14, 0 10.22, 0 0" stroke="#979899" stroke-width="1" fill="none"></path></g><g stroke-linecap="round" transform="translate(111.23016335572606 139.28627010155014) rotate(361.20017057321047 21.16090644143037 15.035380892595299)"><path d="M0 0 L42.32 0 L42.32 30.07 L0 30.07" stroke="none" stroke-width="0" fill="#dadada"></path><path d="M0 0 C12.96 0, 25.93 0, 42.32 0 M0 0 C12.6 0, 25.2 0, 42.32 0 M42.32 0 C42.32 11.59, 42.32 23.18, 42.32 30.07 M42.32 0 C42.32 6.95, 42.32 13.9, 42.32 30.07 M42.32 30.07 C25.77 30.07, 9.22 30.07, 0 30.07 M42.32 30.07 C27.03 30.07, 11.74 30.07, 0 30.07 M0 30.07 C0 23.09, 0 16.12, 0 0 M0 30.07 C0 20.22, 0 10.38, 0 0" stroke="#979899" stroke-width="1" fill="none"></path></g><g stroke-linecap="round" transform="translate(92.21931959861035 63.646689446046366) rotate(361.20017057321047 41.208080964890655 41.20808096489077)"><path d="M82.42 41.21 C82.42 43.16, 82.27 45.14, 82 47.07 C81.72 49.01, 81.3 50.94, 80.75 52.82 C80.2 54.69, 79.5 56.55, 78.69 58.33 C77.88 60.1, 76.93 61.84, 75.87 63.49 C74.82 65.13, 73.63 66.72, 72.35 68.19 C71.07 69.67, 69.67 71.07, 68.19 72.35 C66.72 73.63, 65.13 74.82, 63.49 75.87 C61.84 76.93, 60.1 77.88, 58.33 78.69 C56.55 79.5, 54.69 80.2, 52.82 80.75 C50.94 81.3, 49.01 81.72, 47.07 82 C45.14 82.27, 43.16 82.42, 41.21 82.42 C39.25 82.42, 37.28 82.27, 35.34 82 C33.41 81.72, 31.47 81.3, 29.6 80.75 C27.72 80.2, 25.87 79.5, 24.09 78.69 C22.31 77.88, 20.57 76.93, 18.93 75.87 C17.28 74.82, 15.7 73.63, 14.22 72.35 C12.75 71.07, 11.35 69.67, 10.07 68.19 C8.78 66.72, 7.6 65.13, 6.54 63.49 C5.48 61.84, 4.54 60.1, 3.72 58.33 C2.91 56.55, 2.22 54.69, 1.67 52.82 C1.12 50.94, 0.7 49.01, 0.42 47.07 C0.14 45.14, 0 43.16, 0 41.21 C0 39.25, 0.14 37.28, 0.42 35.34 C0.7 33.41, 1.12 31.47, 1.67 29.6 C2.22 27.72, 2.91 25.87, 3.72 24.09 C4.54 22.31, 5.48 20.57, 6.54 18.93 C7.6 17.28, 8.78 15.7, 10.07 14.22 C11.35 12.75, 12.75 11.35, 14.22 10.07 C15.7 8.78, 17.28 7.6, 18.93 6.54 C20.57 5.48, 22.31 4.54, 24.09 3.72 C25.87 2.91, 27.72 2.22, 29.6 1.67 C31.47 1.12, 33.41 0.7, 35.34 0.42 C37.28 0.14, 39.25 0, 41.21 0 C43.16 0, 45.14 0.14, 47.07 0.42 C49.01 0.7, 50.94 1.12, 52.82 1.67 C54.69 2.22, 56.55 2.91, 58.33 3.72 C60.1 4.54, 61.84 5.48, 63.49 6.54 C65.13 7.6, 66.72 8.78, 68.19 10.07 C69.67 11.35, 71.07 12.75, 72.35 14.22 C73.63 15.7, 74.82 17.28, 75.87 18.93 C76.93 20.57, 77.88 22.31, 78.69 24.09 C79.5 25.87, 80.2 27.72, 80.75 29.6 C81.3 31.47, 81.72 33.41, 82 35.34 C82.27 37.28, 82.35 40.23, 82.42 41.21 C82.49 42.19, 82.49 40.23, 82.42 41.21" stroke="none" stroke-width="0" fill="#4dabf7"></path><path d="M82.42 41.21 C82.42 43.16, 82.27 45.14, 82 47.07 C81.72 49.01, 81.3 50.94, 80.75 52.82 C80.2 54.69, 79.5 56.55, 78.69 58.33 C77.88 60.1, 76.93 61.84, 75.87 63.49 C74.82 65.13, 73.63 66.72, 72.35 68.19 C71.07 69.67, 69.67 71.07, 68.19 72.35 C66.72 73.63, 65.13 74.82, 63.49 75.87 C61.84 76.93, 60.1 77.88, 58.33 78.69 C56.55 79.5, 54.69 80.2, 52.82 80.75 C50.94 81.3, 49.01 81.72, 47.07 82 C45.14 82.27, 43.16 82.42, 41.21 82.42 C39.25 82.42, 37.28 82.27, 35.34 82 C33.41 81.72, 31.47 81.3, 29.6 80.75 C27.72 80.2, 25.87 79.5, 24.09 78.69 C22.31 77.88, 20.57 76.93, 18.93 75.87 C17.28 74.82, 15.7 73.63, 14.22 72.35 C12.75 71.07, 11.35 69.67, 10.07 68.19 C8.78 66.72, 7.6 65.13, 6.54 63.49 C5.48 61.84, 4.54 60.1, 3.72 58.33 C2.91 56.55, 2.22 54.69, 1.67 52.82 C1.12 50.94, 0.7 49.01, 0.42 47.07 C0.14 45.14, 0 43.16, 0 41.21 C0 39.25, 0.14 37.28, 0.42 35.34 C0.7 33.41, 1.12 31.47, 1.67 29.6 C2.22 27.72, 2.91 25.87, 3.72 24.09 C4.54 22.31, 5.48 20.57, 6.54 18.93 C7.6 17.28, 8.78 15.7, 10.07 14.22 C11.35 12.75, 12.75 11.35, 14.22 10.07 C15.7 8.78, 17.28 7.6, 18.93 6.54 C20.57 5.48, 22.31 4.54, 24.09 3.72 C25.87 2.91, 27.72 2.22, 29.6 1.67 C31.47 1.12, 33.41 0.7, 35.34 0.42 C37.28 0.14, 39.25 0, 41.21 0 C43.16 0, 45.14 0.14, 47.07 0.42 C49.01 0.7, 50.94 1.12, 52.82 1.67 C54.69 2.22, 56.55 2.91, 58.33 3.72 C60.1 4.54, 61.84 5.48, 63.49 6.54 C65.13 7.6, 66.72 8.78, 68.19 10.07 C69.67 11.35, 71.07 12.75, 72.35 14.22 C73.63 15.7, 74.82 17.28, 75.87 18.93 C76.93 20.57, 77.88 22.31, 78.69 24.09 C79.5 25.87, 80.2 27.72, 80.75 29.6 C81.3 31.47, 81.72 33.41, 82 35.34 C82.27 37.28, 82.35 40.23, 82.42 41.21 C82.49 42.19, 82.49 40.23, 82.42 41.21" stroke="#228be6" stroke-width="2" fill="none"></path></g><g stroke-linecap="round" transform="translate(76.43005696092632 96.92453960083822) rotate(361.20017057321047 30.07902681490964 7.366292281202277)"><path d="M0 0 L60.16 0 L60.16 14.73 L0 14.73" stroke="none" stroke-width="0" fill="#dadada"></path><path d="M0 0 C12.97 0, 25.94 0, 60.16 0 M0 0 C23.92 0, 47.84 0, 60.16 0 M60.16 0 C60.16 5.85, 60.16 11.7, 60.16 14.73 M60.16 0 C60.16 3.44, 60.16 6.87, 60.16 14.73 M60.16 14.73 C47.38 14.73, 34.6 14.73, 0 14.73 M60.16 14.73 C38.72 14.73, 17.28 14.73, 0 14.73 M0 14.73 C0 11.6, 0 8.47, 0 0 M0 14.73 C0 10.48, 0 6.23, 0 0" stroke="#979899" stroke-width="1" fill="none"></path></g></svg>