<svg version="1.1" xmlns="http://www.w3.org/2000/svg" viewBox="0 0 652.5620396211914 753.1893205920151" width="1305.1240792423828" height="1506.3786411840301">
  <!-- svg-source:excalidraw -->
  
  <defs>
    <style class="style-fonts">
      @font-face {
        font-family: "Virgil";
        src: url("https://excalidraw.com/Virgil.woff2");
      }
      @font-face {
        font-family: "Cascadia";
        src: url("https://excalidraw.com/Cascadia.woff2");
      }
    </style>
  </defs>
  <rect x="0" y="0" width="652.5620396211914" height="753.1893205920151" fill="#ffffff"></rect><g stroke-linecap="round"><g transform="translate(146.72447339505936 742.6788522827293) rotate(0 22.729609570448133 -8.338955004324703)" fill-rule="evenodd"><path d="M0 0 L13.65 -12.6 L18.25 -15.72 L24.84 -17.12 L30.95 -14.78 L35.31 -11.87 L44.33 -3.57 L45.33 -0.7 L42.19 0.39 L0 0" stroke="none" stroke-width="0" fill="#fab005" fill-rule="evenodd"></path><path d="M0 0 C3.04 -2.62, 13.09 -13.26, 18.25 -15.72 C23.41 -18.19, 26.44 -17.29, 30.95 -14.78 C35.47 -12.28, 46.77 -3.13, 45.33 -0.7 C43.9 1.74, 29.88 -0.31, 22.32 -0.19 C14.77 -0.08, 3.72 -0.03, 0 0 M0 0 C3.04 -2.62, 13.09 -13.26, 18.25 -15.72 C23.41 -18.19, 26.44 -17.29, 30.95 -14.78 C35.47 -12.28, 46.77 -3.13, 45.33 -0.7 C43.9 1.74, 29.88 -0.31, 22.32 -0.19 C14.77 -0.08, 3.72 -0.03, 0 0" stroke="#e67700" stroke-width="2" fill="none"></path></g></g><mask></mask><g stroke-linecap="round"><g transform="translate(205.16665941714155 621.4891082780993) rotate(0 38.16390453056647 31.722095686038926)" fill-rule="evenodd"><path d="M0 0 L2.93 11.35 L5.81 18.94 L10.75 26.37 L18.89 34.13 L29.48 42.55 L49.93 55.82 L59.42 59.89 L69.32 62.87 L75.67 63.09 L76.27 61.65 L74.51 58.89 L61.1 47.14 L0 0" stroke="none" stroke-width="0" fill="#15aabf" fill-rule="evenodd"></path><path d="M0 0 C1.79 4.4, 2.43 17.07, 10.75 26.37 C19.07 35.67, 39.3 50.4, 49.93 55.82 C60.55 61.23, 82.83 68.19, 74.51 58.89 C66.18 49.59, 12.42 9.81, 0 0 M0 0 C1.79 4.4, 2.43 17.07, 10.75 26.37 C19.07 35.67, 39.3 50.4, 49.93 55.82 C60.55 61.23, 82.83 68.19, 74.51 58.89 C66.18 49.59, 12.42 9.81, 0 0" stroke="transparent" stroke-width="2" fill="none"></path></g></g><mask></mask><g stroke-linecap="round"><g transform="translate(13.881249106813357 640.7802077452084) rotate(0 313.5425179992687 17.091228816713738)" fill-rule="evenodd"><path d="M0 0 L45.29 -15.41 L61.92 -20.28 L106.81 -27.97 L119.57 -30.96 L130.04 -36.12 L146.83 -47.9 L155.11 -49.33 L159.49 -47.79 L163.89 -44.8 L181.23 -26.83 L189.43 -20.25 L197.29 -17.7 L218.64 -16.85 L228.85 -15.77 L233.56 -13.97 L239.14 -9.07 L245.58 0.94 L260.22 28.57 L268.92 39.18 L279.03 45.4 L290.32 49.17 L321.75 54.72 L332.5 55.36 L431.2 51.99 L474.4 49.21 L493.7 46.98 L510.03 44 L523.75 39.9 L536.04 34.63 L556.94 22.13 L574.01 9.61 L588.49 0.16 L608.09 -8.8 L618.84 -11.02 L622.58 -10.91 L624.69 -9.74 L625.81 -6.68 L627.27 9.69 L626.98 38.22 L625.1 48.31 L623.13 52.88 L620.86 54.14 L597.09 52.42 L564.21 47.92 L538.12 45.48 L511.6 46.23 L498.24 48.54 L484.18 52.12 L425.57 71.09 L398 77.85 L371.5 81.47 L345.51 83.45 L321.98 83.26 L302.89 80.38 L295.98 77.76 L291.05 74.33 L284.63 65.51 L278.7 54.71 L274.37 48.82 L268.31 42.74 L230.44 10.81 L208.67 -5.61 L188.72 -17.82 L171.66 -25.66 L155.89 -30.67 L140.19 -32.08 L123.33 -29.08 L113.98 -25.15 L103.96 -19.23 L83.07 -3.69 L45.89 25.94 L20.98 41.45 L11.94 46.11 L5.1 48.55 L1.17 48.51 L-0.07 46.12 L0 0" stroke="none" stroke-width="0" fill="#15aabf" fill-rule="evenodd"></path><path d="M0 0 C10.32 -3.38, 41.99 -15.12, 61.92 -20.28 C81.85 -25.44, 104.04 -26.12, 119.57 -30.96 C135.1 -35.8, 143.46 -51.12, 155.11 -49.33 C166.75 -47.55, 178.84 -25.67, 189.43 -20.25 C200.02 -14.84, 210.35 -18.72, 218.64 -16.85 C226.92 -14.99, 230.76 -18.41, 239.14 -9.07 C247.52 0.26, 256.54 28.79, 268.92 39.18 C281.3 49.57, 298.77 50.73, 313.41 53.26 C328.05 55.8, 323.98 55.91, 356.75 54.36 C389.52 52.82, 471.41 53.04, 510.03 44 C548.66 34.97, 570.35 9.33, 588.49 0.16 C606.62 -9.01, 612.49 -10.84, 618.84 -11.02 C625.19 -11.2, 625.52 -10.79, 626.56 -0.91 C627.6 8.98, 628.67 39.33, 625.1 48.31 C621.52 57.29, 624.04 53.33, 605.12 52.98 C586.21 52.64, 546.12 42.08, 511.6 46.23 C477.08 50.37, 432.78 72.16, 398 77.85 C363.21 83.55, 324.51 86.23, 302.89 80.38 C281.28 74.53, 287.34 59.11, 268.31 42.74 C249.28 26.38, 212.88 -5.85, 188.72 -17.82 C164.56 -29.79, 147.13 -36.37, 123.33 -29.08 C99.52 -21.79, 65.59 13, 45.89 25.94 C26.18 38.88, 12.77 46.82, 5.1 48.55 C-2.57 50.28, 0.72 44.42, -0.13 36.33 C-0.98 28.24, -0.02 6.05, 0 0 M0 0 C10.32 -3.38, 41.99 -15.12, 61.92 -20.28 C81.85 -25.44, 104.04 -26.12, 119.57 -30.96 C135.1 -35.8, 143.46 -51.12, 155.11 -49.33 C166.75 -47.55, 178.84 -25.67, 189.43 -20.25 C200.02 -14.84, 210.35 -18.72, 218.64 -16.85 C226.92 -14.99, 230.76 -18.41, 239.14 -9.07 C247.52 0.26, 256.54 28.79, 268.92 39.18 C281.3 49.57, 298.77 50.73, 313.41 53.26 C328.05 55.8, 323.98 55.91, 356.75 54.36 C389.52 52.82, 471.41 53.04, 510.03 44 C548.66 34.97, 570.35 9.33, 588.49 0.16 C606.62 -9.01, 612.49 -10.84, 618.84 -11.02 C625.19 -11.2, 625.52 -10.79, 626.56 -0.91 C627.6 8.98, 628.67 39.33, 625.1 48.31 C621.52 57.29, 624.04 53.33, 605.12 52.98 C586.21 52.64, 546.12 42.08, 511.6 46.23 C477.08 50.37, 432.78 72.16, 398 77.85 C363.21 83.55, 324.51 86.23, 302.89 80.38 C281.28 74.53, 287.34 59.11, 268.31 42.74 C249.28 26.38, 212.88 -5.85, 188.72 -17.82 C164.56 -29.79, 147.13 -36.37, 123.33 -29.08 C99.52 -21.79, 65.59 13, 45.89 25.94 C26.18 38.88, 12.77 46.82, 5.1 48.55 C-2.57 50.28, 0.72 44.42, -0.13 36.33 C-0.98 28.24, -0.02 6.05, 0 0" stroke="transparent" stroke-width="2" fill="none"></path></g></g><mask></mask><g stroke-linecap="round"><g transform="translate(19.969714075020875 672.0530588058319) rotate(0 307.60235683024894 -15.07964363478743)"><path d="M0 0 C9.53 -5.43, 40.02 -23.39, 57.2 -32.59 C74.38 -41.79, 87.79 -48.82, 103.09 -55.2 C118.39 -61.58, 135.21 -71.56, 149 -70.87 C162.79 -70.17, 174.6 -58.27, 185.83 -51.05 C197.06 -43.83, 203.9 -36.95, 216.38 -27.56 C228.87 -18.16, 243.57 -5.98, 260.71 5.32 C277.86 16.62, 285.57 37.01, 319.27 40.23 C352.97 43.44, 427.5 30.74, 462.9 24.61 C498.3 18.48, 506.27 11.86, 531.66 3.43 C557.04 -4.99, 601.28 -21.04, 615.2 -25.94 M0 0 C9.53 -5.43, 40.02 -23.39, 57.2 -32.59 C74.38 -41.79, 87.79 -48.82, 103.09 -55.2 C118.39 -61.58, 135.21 -71.56, 149 -70.87 C162.79 -70.17, 174.6 -58.27, 185.83 -51.05 C197.06 -43.83, 203.9 -36.95, 216.38 -27.56 C228.87 -18.16, 243.57 -5.98, 260.71 5.32 C277.86 16.62, 285.57 37.01, 319.27 40.23 C352.97 43.44, 427.5 30.74, 462.9 24.61 C498.3 18.48, 506.27 11.86, 531.66 3.43 C557.04 -4.99, 601.28 -21.04, 615.2 -25.94" stroke="#000000" stroke-width="2" fill="none"></path></g></g><mask></mask><g stroke-linecap="round"><g transform="translate(148.79640336289617 484.374779077368) rotate(0 45.64863924875516 -7.158708085113375)" fill-rule="evenodd"><path d="M0 0 L23.47 -14.01 L39.45 -21.35 L47.89 -24.23 L55.65 -25.18 L62.65 -23.55 L69.26 -20.03 L93.86 -0.12 L98.04 5.28 L98.24 7.46 L96.71 9.09 L87.22 10.69 L-4.19 10.31 L-7 9.05 L-6.36 7.12 L0 0" stroke="none" stroke-width="0" fill="#fab005" fill-rule="evenodd"></path><path d="M0 0 C3.91 -2.33, 14.2 -9.81, 23.47 -14.01 C32.75 -18.2, 46.09 -25.68, 55.65 -25.18 C65.21 -24.67, 73.98 -16.69, 80.83 -10.98 C87.67 -5.27, 103.46 5.59, 96.71 9.09 C89.95 12.6, 55.76 9.84, 40.31 10.05 C24.87 10.27, 11.92 10.56, 4.04 10.39 C-3.85 10.23, -6.33 10.78, -7 9.05 C-7.68 7.32, -1.17 1.51, 0 0 M0 0 C3.91 -2.33, 14.2 -9.81, 23.47 -14.01 C32.75 -18.2, 46.09 -25.68, 55.65 -25.18 C65.21 -24.67, 73.98 -16.69, 80.83 -10.98 C87.67 -5.27, 103.46 5.59, 96.71 9.09 C89.95 12.6, 55.76 9.84, 40.31 10.05 C24.87 10.27, 11.92 10.56, 4.04 10.39 C-3.85 10.23, -6.33 10.78, -7 9.05 C-7.68 7.32, -1.17 1.51, 0 0" stroke="#e67700" stroke-width="2" fill="none"></path></g></g><mask></mask><g stroke-linecap="round"><g transform="translate(11.896575011832681 395.99168283576546) rotate(0 313.54251799926874 12.121435223759647)" fill-rule="evenodd"><path d="M0 0 L45.29 -15.41 L61.92 -20.28 L106.87 -27.92 L119.57 -30.96 L129.96 -35.36 L154.26 -50.18 L170.14 -57.45 L177.63 -59.96 L184.69 -60.85 L191 -60.16 L196.7 -58.15 L202.41 -54.56 L208.71 -49.11 L215.94 -41.21 L239.14 -9.07 L258.23 26.83 L266.36 36.3 L276.82 42.91 L288.88 47.55 L313.41 53.26 L321.98 54.95 L332.77 55.58 L430 51.31 L472.56 48.17 L491.66 45.81 L507.91 42.8 L521.7 38.74 L534.19 33.58 L555.75 21.45 L588.49 0.16 L608.22 -8.73 L618.84 -11.02 L622.58 -10.91 L624.69 -9.74 L625.81 -6.68 L627.27 9.69 L626.98 38.22 L625.1 48.31 L623.18 52.86 L621.01 54.1 L596.99 52.47 L563.96 48.16 L537.27 45.91 L509.2 46.89 L494.33 49.38 L478.13 53.18 L409.84 73.11 L380.49 80.01 L356.57 83.46 L336.04 85.05 L318.33 84.22 L302.89 80.38 L296.52 76.87 L291.55 72.09 L276.24 47.06 L271.18 41.03 L264.66 35.77 L247.1 27.02 L204.13 11.98 L184.43 4.28 L168.2 -6 L153.71 -17.8 L139.31 -26.91 L131.62 -29.13 L123.33 -29.08 L114.18 -26.21 L104.26 -20.78 L83.34 -5.07 L53.93 20.01 L45.89 25.94 L20.98 41.45 L11.94 46.11 L5.1 48.55 L1.17 48.51 L-0.07 46.12 L0 0" stroke="none" stroke-width="0" fill="#15aabf" fill-rule="evenodd"></path><path d="M0 0 C10.32 -3.38, 41.99 -15.12, 61.92 -20.28 C81.85 -25.44, 104.18 -25.98, 119.57 -30.96 C134.96 -35.94, 143.41 -45.19, 154.26 -50.18 C165.12 -55.16, 175.62 -61.03, 184.69 -60.85 C193.76 -60.67, 199.64 -57.74, 208.71 -49.11 C217.79 -40.48, 229.53 -23.31, 239.14 -9.07 C248.74 5.16, 253.98 25.91, 266.36 36.3 C278.74 46.69, 298.35 50.25, 313.41 53.26 C328.48 56.28, 324.34 56.11, 356.75 54.36 C389.17 52.62, 469.29 51.83, 507.91 42.8 C546.53 33.76, 570 9.13, 588.49 0.16 C606.98 -8.81, 612.49 -10.84, 618.84 -11.02 C625.19 -11.2, 625.52 -10.79, 626.56 -0.91 C627.6 8.98, 628.67 39.33, 625.1 48.31 C621.52 57.29, 624.44 53.22, 605.12 52.98 C585.8 52.75, 546.64 42.39, 509.2 46.89 C471.76 51.4, 414.88 74.43, 380.49 80.01 C346.11 85.59, 322.2 87.75, 302.89 80.38 C283.59 73.01, 284.4 48.46, 264.66 35.77 C244.91 23.09, 207.99 15.09, 184.43 4.28 C160.88 -6.53, 146.42 -32.69, 123.33 -29.08 C100.24 -25.47, 65.59 13, 45.89 25.94 C26.18 38.88, 12.77 46.82, 5.1 48.55 C-2.57 50.28, 0.72 44.42, -0.13 36.33 C-0.98 28.24, -0.02 6.05, 0 0 M0 0 C10.32 -3.38, 41.99 -15.12, 61.92 -20.28 C81.85 -25.44, 104.18 -25.98, 119.57 -30.96 C134.96 -35.94, 143.41 -45.19, 154.26 -50.18 C165.12 -55.16, 175.62 -61.03, 184.69 -60.85 C193.76 -60.67, 199.64 -57.74, 208.71 -49.11 C217.79 -40.48, 229.53 -23.31, 239.14 -9.07 C248.74 5.16, 253.98 25.91, 266.36 36.3 C278.74 46.69, 298.35 50.25, 313.41 53.26 C328.48 56.28, 324.34 56.11, 356.75 54.36 C389.17 52.62, 469.29 51.83, 507.91 42.8 C546.53 33.76, 570 9.13, 588.49 0.16 C606.98 -8.81, 612.49 -10.84, 618.84 -11.02 C625.19 -11.2, 625.52 -10.79, 626.56 -0.91 C627.6 8.98, 628.67 39.33, 625.1 48.31 C621.52 57.29, 624.44 53.22, 605.12 52.98 C585.8 52.75, 546.64 42.39, 509.2 46.89 C471.76 51.4, 414.88 74.43, 380.49 80.01 C346.11 85.59, 322.2 87.75, 302.89 80.38 C283.59 73.01, 284.4 48.46, 264.66 35.77 C244.91 23.09, 207.99 15.09, 184.43 4.28 C160.88 -6.53, 146.42 -32.69, 123.33 -29.08 C100.24 -25.47, 65.59 13, 45.89 25.94 C26.18 38.88, 12.77 46.82, 5.1 48.55 C-2.57 50.28, 0.72 44.42, -0.13 36.33 C-0.98 28.24, -0.02 6.05, 0 0" stroke="transparent" stroke-width="2" fill="none"></path></g></g><mask></mask><g stroke-linecap="round"><g transform="translate(17.9973874174226 426.26635667819585) rotate(0 307.6023568302489 -19.541776012119442)"><path d="M0 0 C9.53 -5.43, 40.02 -23.39, 57.2 -32.59 C74.38 -41.79, 88.48 -48.98, 103.09 -55.2 C117.7 -61.42, 131.49 -66.42, 144.86 -69.91 C158.23 -73.41, 170.51 -82.18, 183.28 -76.18 C196.05 -70.18, 208.57 -47.5, 221.47 -33.92 C234.38 -20.34, 245.86 -6.76, 260.71 5.32 C275.57 17.4, 276.9 35.36, 310.6 38.57 C344.29 41.79, 426.06 30.47, 462.9 24.61 C499.74 18.75, 506.27 11.86, 531.66 3.43 C557.04 -4.99, 601.28 -21.04, 615.2 -25.94 M0 0 C9.53 -5.43, 40.02 -23.39, 57.2 -32.59 C74.38 -41.79, 88.48 -48.98, 103.09 -55.2 C117.7 -61.42, 131.49 -66.42, 144.86 -69.91 C158.23 -73.41, 170.51 -82.18, 183.28 -76.18 C196.05 -70.18, 208.57 -47.5, 221.47 -33.92 C234.38 -20.34, 245.86 -6.76, 260.71 5.32 C275.57 17.4, 276.9 35.36, 310.6 38.57 C344.29 41.79, 426.06 30.47, 462.9 24.61 C499.74 18.75, 506.27 11.86, 531.66 3.43 C557.04 -4.99, 601.28 -21.04, 615.2 -25.94" stroke="#000000" stroke-width="2" fill="none"></path></g></g><mask></mask><g stroke-linecap="round"><g transform="translate(601.7095693219298 261.33353082374754) rotate(0 18.373048110688046 -9.02529307343056)" fill-rule="evenodd"><path d="M0 0 L-2.93 0.3 L10.52 -10.01 L24.31 -18.22 L28.85 -18.88 L32.63 -18.03 L37.78 -14.01 L39.68 -6.96 L39.36 -3.08 L38.11 -0.37 L35.8 0.71 L0 0" stroke="none" stroke-width="0" fill="#fab005" fill-rule="evenodd"></path><path d="M0 0 C-0.23 -0.19, -5.45 1.91, -1.4 -1.13 C2.65 -4.16, 17.78 -16.07, 24.31 -18.22 C30.84 -20.36, 35.48 -16.98, 37.78 -14.01 C40.08 -11.03, 40.42 -2.74, 38.11 -0.37 C35.79 2, 30.22 0.16, 23.87 0.22 C17.52 0.28, 3.98 0.04, 0 0 M0 0 C-0.23 -0.19, -5.45 1.91, -1.4 -1.13 C2.65 -4.16, 17.78 -16.07, 24.31 -18.22 C30.84 -20.36, 35.48 -16.98, 37.78 -14.01 C40.08 -11.03, 40.42 -2.74, 38.11 -0.37 C35.79 2, 30.22 0.16, 23.87 0.22 C17.52 0.28, 3.98 0.04, 0 0" stroke="#e67700" stroke-width="2" fill="none"></path></g></g><mask></mask><g stroke-linecap="round"><g transform="translate(18.159301974708114 408.99891091523824) rotate(0 309.0925925925925 -3.0481148392709088)"><path d="M0 0 C19.2 -7.17, 87.15 -35.2, 115.19 -43.04 C143.22 -50.88, 136.35 -61.52, 168.19 -47.04 C200.02 -32.56, 250.54 31, 306.19 43.85 C361.83 56.7, 450.07 37.06, 502.07 30.08 C554.07 23.1, 598.83 6.65, 618.19 1.96" stroke="#000000" stroke-width="2.5" fill="none" stroke-dasharray="8 10"></path></g></g><mask></mask><g stroke-linecap="round"><g transform="translate(11.864800533925518 261.37742566420263) rotate(0 199.24099270495242 -18.224044411861854)" fill-rule="evenodd"><path d="M0 0 L121.2 -13.78 L138.07 -16.72 L198.75 -29.72 L228.36 -34.94 L256.96 -37.77 L281.35 -37.03 L294.01 -35.1 L309.58 -31.58 L333.43 -25.2 L376.58 -12.15 L395.63 -4.56 L398.48 -1.98 L395.53 -0.33 L387.56 0.68 L361.95 1.31 L271.11 0.16 L24.08 1.36 L0 0" stroke="none" stroke-width="0" fill="#fab005" fill-rule="evenodd"></path><path d="M0 0 C9.6 -1.03, 39.94 -4.23, 57.58 -6.19 C75.23 -8.15, 92.46 -10.01, 105.88 -11.76 C119.29 -13.52, 122.6 -13.72, 138.07 -16.72 C153.55 -19.71, 178.94 -26.21, 198.75 -29.72 C218.57 -33.23, 238.48 -37.46, 256.96 -37.77 C275.43 -38.08, 286 -37.54, 309.58 -31.58 C333.17 -25.61, 398.5 -7.38, 398.48 -1.98 C398.47 3.42, 330.73 0.46, 309.5 0.82 C288.27 1.18, 289.02 0.2, 271.11 0.16 C253.21 0.12, 233.99 0.47, 202.07 0.6 C170.15 0.72, 109.28 0.76, 79.61 0.89 C49.94 1.02, 37.34 1.51, 24.08 1.36 C10.81 1.21, 4.01 0.23, 0 0 M0 0 C9.6 -1.03, 39.94 -4.23, 57.58 -6.19 C75.23 -8.15, 92.46 -10.01, 105.88 -11.76 C119.29 -13.52, 122.6 -13.72, 138.07 -16.72 C153.55 -19.71, 178.94 -26.21, 198.75 -29.72 C218.57 -33.23, 238.48 -37.46, 256.96 -37.77 C275.43 -38.08, 286 -37.54, 309.58 -31.58 C333.17 -25.61, 398.5 -7.38, 398.48 -1.98 C398.47 3.42, 330.73 0.46, 309.5 0.82 C288.27 1.18, 289.02 0.2, 271.11 0.16 C253.21 0.12, 233.99 0.47, 202.07 0.6 C170.15 0.72, 109.28 0.76, 79.61 0.89 C49.94 1.02, 37.34 1.51, 24.08 1.36 C10.81 1.21, 4.01 0.23, 0 0" stroke="#e67700" stroke-width="2" fill="none"></path></g></g><mask></mask><g stroke-linecap="round"><g transform="translate(10.932360246716826 147.33109717516527) rotate(0 315.3486595638787 15.065454207082297)" fill-rule="evenodd"><path d="M0 0 L117 -12 L135.98 -15.19 L199.27 -30.5 L222.08 -34.9 L245.55 -37.64 L269.57 -37.93 L294 -35 L306.66 -31.84 L319.94 -27.3 L347.97 -14.93 L377.2 0.46 L435.76 33.71 L463.34 48.26 L488.61 59.22 L500.11 62.83 L510.7 64.94 L529.94 64.61 L547.29 59.48 L562.86 50.92 L576.74 40.35 L609.2 10.48 L617.28 5.8 L623.53 4.44 L627.64 4.97 L630.01 7 L631.05 10.14 L630 26 L631.55 43.2 L628.33 52.14 L624.26 55.94 L618 59 L600.42 63.55 L589.54 65.28 L563.07 67.58 L529.61 68.28 L461.25 66.61 L402.75 63.88 L342.38 58.95 L313.95 55.41 L288 51 L264.01 44.58 L240.8 35.77 L176.25 5.2 L156.54 -2.94 L137.77 -8.35 L120 -10 L102.95 -6.62 L86.46 1.37 L70.77 12.43 L30.58 48.71 L20.2 56.73 L11.7 60.16 L5.53 58.46 L1.7 52.87 L-0.28 44.5 L-0.92 34.46 L0 0" stroke="none" stroke-width="0" fill="#15aabf" fill-rule="evenodd"></path><path d="M0 0 C19.5 -2, 68 -6.17, 117 -12 C166 -17.83, 228.38 -47.82, 294 -35 C359.62 -22.18, 456.82 58.14, 510.7 64.94 C564.58 71.74, 597.4 12.29, 617.28 5.8 C637.16 -0.69, 629.88 17.13, 630 26 C630.12 34.87, 638 52, 618 59 C598 66, 565 69.33, 510 68 C455 66.67, 353 64, 288 51 C223 38, 166.05 -11.53, 120 -10 C73.95 -8.47, 31.7 58.49, 11.7 60.16 C-8.3 61.83, 1.95 10.03, 0 0 M0 0 C19.5 -2, 68 -6.17, 117 -12 C166 -17.83, 228.38 -47.82, 294 -35 C359.62 -22.18, 456.82 58.14, 510.7 64.94 C564.58 71.74, 597.4 12.29, 617.28 5.8 C637.16 -0.69, 629.88 17.13, 630 26 C630.12 34.87, 638 52, 618 59 C598 66, 565 69.33, 510 68 C455 66.67, 353 64, 288 51 C223 38, 166.05 -11.53, 120 -10 C73.95 -8.47, 31.7 58.49, 11.7 60.16 C-8.3 61.83, 1.95 10.03, 0 0" stroke="transparent" stroke-width="2" fill="none"></path></g></g><mask></mask><g stroke-linecap="round"><g transform="translate(18.400709618844076 192.24269121606767) rotate(0 308.45883420366863 -19.032102031616645)"><path d="M0 0 C23 -10, 86.83 -57.67, 138 -60 C189.17 -62.33, 247.33 -27.67, 307 -14 C366.67 -0.33, 444.35 23.25, 496 22 C547.65 20.75, 596.76 -14.27, 616.92 -21.52 M0 0 C23 -10, 86.83 -57.67, 138 -60 C189.17 -62.33, 247.33 -27.67, 307 -14 C366.67 -0.33, 444.35 23.25, 496 22 C547.65 20.75, 596.76 -14.27, 616.92 -21.52" stroke="#000000" stroke-width="2" fill="none"></path></g></g><mask></mask><g stroke-linecap="round" transform="translate(11.400709618844076 98.24269121606767) rotate(0 315 82)"><path d="M0 0 C130.35 0, 260.69 0, 630 0 M0 0 C188.75 0, 377.5 0, 630 0 M630 0 C630 37.2, 630 74.39, 630 164 M630 0 C630 33.91, 630 67.82, 630 164 M630 164 C446.35 164, 262.7 164, 0 164 M630 164 C503.42 164, 376.84 164, 0 164 M0 164 C0 117.56, 0 71.12, 0 0 M0 164 C0 124.31, 0 84.62, 0 0" stroke="#000000" stroke-width="2" fill="none"></path></g><g stroke-linecap="round"><g transform="translate(15.215524433658857 178.27972825310468) rotate(0 309.0925925925925 -4.047886139970771)"><path d="M0 0 C19.2 -7.17, 87.15 -35.2, 115.19 -43.04 C143.22 -50.88, 136.35 -60.87, 168.19 -47.04 C200.02 -33.2, 251.19 26.46, 306.19 39.96 C361.19 53.46, 446.19 40.3, 498.19 33.96 C550.19 27.63, 598.19 7.3, 618.19 1.96" stroke="#000000" stroke-width="2.5" fill="none" stroke-dasharray="8 10"></path></g></g><mask></mask><g stroke-linecap="round" transform="translate(516.4007096188441 204.24269121606767) rotate(0 8 7.5)"><path d="M16 7.5 C16 7.93, 15.96 8.37, 15.88 8.8 C15.8 9.23, 15.68 9.66, 15.52 10.07 C15.36 10.47, 15.16 10.87, 14.93 11.25 C14.7 11.63, 14.43 11.99, 14.13 12.32 C13.83 12.65, 13.5 12.97, 13.14 13.25 C12.79 13.52, 12.4 13.78, 12 14 C11.6 14.21, 11.17 14.4, 10.74 14.55 C10.3 14.7, 9.85 14.81, 9.39 14.89 C8.93 14.96, 8.46 15, 8 15 C7.54 15, 7.07 14.96, 6.61 14.89 C6.15 14.81, 5.7 14.7, 5.26 14.55 C4.83 14.4, 4.4 14.21, 4 14 C3.6 13.78, 3.21 13.52, 2.86 13.25 C2.5 12.97, 2.17 12.65, 1.87 12.32 C1.57 11.99, 1.3 11.63, 1.07 11.25 C0.84 10.87, 0.64 10.47, 0.48 10.07 C0.32 9.66, 0.2 9.23, 0.12 8.8 C0.04 8.37, 0 7.93, 0 7.5 C0 7.07, 0.04 6.63, 0.12 6.2 C0.2 5.77, 0.32 5.34, 0.48 4.93 C0.64 4.53, 0.84 4.13, 1.07 3.75 C1.3 3.37, 1.57 3.01, 1.87 2.68 C2.17 2.35, 2.5 2.03, 2.86 1.75 C3.21 1.48, 3.6 1.22, 4 1 C4.4 0.79, 4.83 0.6, 5.26 0.45 C5.7 0.3, 6.15 0.19, 6.61 0.11 C7.07 0.04, 7.54 0, 8 0 C8.46 0, 8.93 0.04, 9.39 0.11 C9.85 0.19, 10.3 0.3, 10.74 0.45 C11.17 0.6, 11.6 0.79, 12 1 C12.4 1.22, 12.79 1.48, 13.14 1.75 C13.5 2.03, 13.83 2.35, 14.13 2.68 C14.43 3.01, 14.7 3.37, 14.93 3.75 C15.16 4.13, 15.36 4.53, 15.52 4.93 C15.68 5.34, 15.8 5.77, 15.88 6.2 C15.96 6.63, 15.98 7.28, 16 7.5 C16.02 7.72, 16.02 7.28, 16 7.5" stroke="none" stroke-width="0" fill="#868e96"></path><path d="M16 7.5 C16 7.93, 15.96 8.37, 15.88 8.8 C15.8 9.23, 15.68 9.66, 15.52 10.07 C15.36 10.47, 15.16 10.87, 14.93 11.25 C14.7 11.63, 14.43 11.99, 14.13 12.32 C13.83 12.65, 13.5 12.97, 13.14 13.25 C12.79 13.52, 12.4 13.78, 12 14 C11.6 14.21, 11.17 14.4, 10.74 14.55 C10.3 14.7, 9.85 14.81, 9.39 14.89 C8.93 14.96, 8.46 15, 8 15 C7.54 15, 7.07 14.96, 6.61 14.89 C6.15 14.81, 5.7 14.7, 5.26 14.55 C4.83 14.4, 4.4 14.21, 4 14 C3.6 13.78, 3.21 13.52, 2.86 13.25 C2.5 12.97, 2.17 12.65, 1.87 12.32 C1.57 11.99, 1.3 11.63, 1.07 11.25 C0.84 10.87, 0.64 10.47, 0.48 10.07 C0.32 9.66, 0.2 9.23, 0.12 8.8 C0.04 8.37, 0 7.93, 0 7.5 C0 7.07, 0.04 6.63, 0.12 6.2 C0.2 5.77, 0.32 5.34, 0.48 4.93 C0.64 4.53, 0.84 4.13, 1.07 3.75 C1.3 3.37, 1.57 3.01, 1.87 2.68 C2.17 2.35, 2.5 2.03, 2.86 1.75 C3.21 1.48, 3.6 1.22, 4 1 C4.4 0.79, 4.83 0.6, 5.26 0.45 C5.7 0.3, 6.15 0.19, 6.61 0.11 C7.07 0.04, 7.54 0, 8 0 C8.46 0, 8.93 0.04, 9.39 0.11 C9.85 0.19, 10.3 0.3, 10.74 0.45 C11.17 0.6, 11.6 0.79, 12 1 C12.4 1.22, 12.79 1.48, 13.14 1.75 C13.5 2.03, 13.83 2.35, 14.13 2.68 C14.43 3.01, 14.7 3.37, 14.93 3.75 C15.16 4.13, 15.36 4.53, 15.52 4.93 C15.68 5.34, 15.8 5.77, 15.88 6.2 C15.96 6.63, 15.98 7.28, 16 7.5 C16.02 7.72, 16.02 7.28, 16 7.5" stroke="#000000" stroke-width="2" fill="none"></path></g><g stroke-linecap="round" transform="translate(124.40070961884408 128.74269121606767) rotate(0 8 7.5)"><path d="M16 7.5 C16 7.93, 15.96 8.37, 15.88 8.8 C15.8 9.23, 15.68 9.66, 15.52 10.07 C15.36 10.47, 15.16 10.87, 14.93 11.25 C14.7 11.63, 14.43 11.99, 14.13 12.32 C13.83 12.65, 13.5 12.97, 13.14 13.25 C12.79 13.52, 12.4 13.78, 12 14 C11.6 14.21, 11.17 14.4, 10.74 14.55 C10.3 14.7, 9.85 14.81, 9.39 14.89 C8.93 14.96, 8.46 15, 8 15 C7.54 15, 7.07 14.96, 6.61 14.89 C6.15 14.81, 5.7 14.7, 5.26 14.55 C4.83 14.4, 4.4 14.21, 4 14 C3.6 13.78, 3.21 13.52, 2.86 13.25 C2.5 12.97, 2.17 12.65, 1.87 12.32 C1.57 11.99, 1.3 11.63, 1.07 11.25 C0.84 10.87, 0.64 10.47, 0.48 10.07 C0.32 9.66, 0.2 9.23, 0.12 8.8 C0.04 8.37, 0 7.93, 0 7.5 C0 7.07, 0.04 6.63, 0.12 6.2 C0.2 5.77, 0.32 5.34, 0.48 4.93 C0.64 4.53, 0.84 4.13, 1.07 3.75 C1.3 3.37, 1.57 3.01, 1.87 2.68 C2.17 2.35, 2.5 2.03, 2.86 1.75 C3.21 1.48, 3.6 1.22, 4 1 C4.4 0.79, 4.83 0.6, 5.26 0.45 C5.7 0.3, 6.15 0.19, 6.61 0.11 C7.07 0.04, 7.54 0, 8 0 C8.46 0, 8.93 0.04, 9.39 0.11 C9.85 0.19, 10.3 0.3, 10.74 0.45 C11.17 0.6, 11.6 0.79, 12 1 C12.4 1.22, 12.79 1.48, 13.14 1.75 C13.5 2.03, 13.83 2.35, 14.13 2.68 C14.43 3.01, 14.7 3.37, 14.93 3.75 C15.16 4.13, 15.36 4.53, 15.52 4.93 C15.68 5.34, 15.8 5.77, 15.88 6.2 C15.96 6.63, 15.98 7.28, 16 7.5 C16.02 7.72, 16.02 7.28, 16 7.5" stroke="none" stroke-width="0" fill="#868e96"></path><path d="M16 7.5 C16 7.93, 15.96 8.37, 15.88 8.8 C15.8 9.23, 15.68 9.66, 15.52 10.07 C15.36 10.47, 15.16 10.87, 14.93 11.25 C14.7 11.63, 14.43 11.99, 14.13 12.32 C13.83 12.65, 13.5 12.97, 13.14 13.25 C12.79 13.52, 12.4 13.78, 12 14 C11.6 14.21, 11.17 14.4, 10.74 14.55 C10.3 14.7, 9.85 14.81, 9.39 14.89 C8.93 14.96, 8.46 15, 8 15 C7.54 15, 7.07 14.96, 6.61 14.89 C6.15 14.81, 5.7 14.7, 5.26 14.55 C4.83 14.4, 4.4 14.21, 4 14 C3.6 13.78, 3.21 13.52, 2.86 13.25 C2.5 12.97, 2.17 12.65, 1.87 12.32 C1.57 11.99, 1.3 11.63, 1.07 11.25 C0.84 10.87, 0.64 10.47, 0.48 10.07 C0.32 9.66, 0.2 9.23, 0.12 8.8 C0.04 8.37, 0 7.93, 0 7.5 C0 7.07, 0.04 6.63, 0.12 6.2 C0.2 5.77, 0.32 5.34, 0.48 4.93 C0.64 4.53, 0.84 4.13, 1.07 3.75 C1.3 3.37, 1.57 3.01, 1.87 2.68 C2.17 2.35, 2.5 2.03, 2.86 1.75 C3.21 1.48, 3.6 1.22, 4 1 C4.4 0.79, 4.83 0.6, 5.26 0.45 C5.7 0.3, 6.15 0.19, 6.61 0.11 C7.07 0.04, 7.54 0, 8 0 C8.46 0, 8.93 0.04, 9.39 0.11 C9.85 0.19, 10.3 0.3, 10.74 0.45 C11.17 0.6, 11.6 0.79, 12 1 C12.4 1.22, 12.79 1.48, 13.14 1.75 C13.5 2.03, 13.83 2.35, 14.13 2.68 C14.43 3.01, 14.7 3.37, 14.93 3.75 C15.16 4.13, 15.36 4.53, 15.52 4.93 C15.68 5.34, 15.8 5.77, 15.88 6.2 C15.96 6.63, 15.98 7.28, 16 7.5 C16.02 7.72, 16.02 7.28, 16 7.5" stroke="#000000" stroke-width="2" fill="none"></path></g><g stroke-linecap="round"><g transform="translate(524.4007096188441 169.24269121606767) rotate(0 -0.2845879435265033 14.830705201561884)"><path d="M0 0 C-0.09 4.94, -0.47 24.72, -0.57 29.66 M0 0 C-0.09 4.94, -0.47 24.72, -0.57 29.66" stroke="#000000" stroke-width="2" fill="none"></path></g><g transform="translate(524.4007096188441 169.24269121606767) rotate(0 -0.2845879435265033 14.830705201561884)"><path d="M-0.57 29.66 L-6.58 16.1 L5.96 16.34 L-0.57 29.66" stroke="none" stroke-width="0" fill="#000000" fill-rule="evenodd"></path><path d="M-0.57 29.66 C-2.52 25.26, -4.47 20.86, -6.58 16.1 M-0.57 29.66 C-2.93 24.34, -5.29 19.01, -6.58 16.1 M-6.58 16.1 C-2.48 16.18, 1.62 16.26, 5.96 16.34 M-6.58 16.1 C-2.82 16.17, 0.94 16.24, 5.96 16.34 M5.96 16.34 C3.71 20.92, 1.47 25.51, -0.57 29.66 M5.96 16.34 C3.42 21.52, 0.88 26.7, -0.57 29.66 M-0.57 29.66 C-0.57 29.66, -0.57 29.66, -0.57 29.66 M-0.57 29.66 C-0.57 29.66, -0.57 29.66, -0.57 29.66" stroke="#000000" stroke-width="2" fill="none"></path></g></g><mask></mask><g transform="translate(476.4007096188441 132.24269121606767) rotate(0 56.5 13)"><text x="0" y="0" font-family="Virgil, Segoe UI Emoji" font-size="20px" fill="#343a40" text-anchor="start" style="white-space: pre;" direction="ltr" dominant-baseline="text-before-edge">observation</text></g><g stroke-linecap="round"><g transform="translate(236.06351250893408 204.19845394431977) rotate(346.92373379396247 13.19014084507046 9.4225352112676)"><path d="M0 0 C4.4 3.14, 21.98 15.7, 26.38 18.85 M0 0 C4.4 3.14, 21.98 15.7, 26.38 18.85" stroke="#000000" stroke-width="2" fill="none"></path></g><g transform="translate(236.06351250893408 204.19845394431977) rotate(346.92373379396247 13.19014084507046 9.4225352112676)"><path d="M26.38 18.85 L11.63 16.1 L19 5.78 L26.38 18.85" stroke="none" stroke-width="0" fill="#000000" fill-rule="evenodd"></path><path d="M26.38 18.85 C20.97 17.84, 15.57 16.83, 11.63 16.1 M26.38 18.85 C22.73 18.17, 19.08 17.49, 11.63 16.1 M11.63 16.1 C13.19 13.92, 14.74 11.75, 19 5.78 M11.63 16.1 C13.37 13.66, 15.12 11.23, 19 5.78 M19 5.78 C20.93 9.2, 22.86 12.61, 26.38 18.85 M19 5.78 C21.74 10.64, 24.48 15.49, 26.38 18.85 M26.38 18.85 C26.38 18.85, 26.38 18.85, 26.38 18.85 M26.38 18.85 C26.38 18.85, 26.38 18.85, 26.38 18.85" stroke="#000000" stroke-width="2" fill="none"></path></g></g><mask></mask><g transform="translate(81.19143249234298 188.25585713492322) rotate(0 75 12.999999999999986)"><text x="0" y="0" font-family="Virgil, Segoe UI Emoji" font-size="20px" fill="#000000" text-anchor="start" style="white-space: pre;" direction="ltr" dominant-baseline="text-before-edge">acquisition max</text></g><g stroke-linecap="round"><g transform="translate(269.1887728370582 217.3905891271104) rotate(0 7.5 8)"><path d="M0 0 C2.5 2.67, 12.5 13.33, 15 16 M0 0 C2.5 2.67, 12.5 13.33, 15 16" stroke="#000000" stroke-width="2" fill="none"></path></g></g><mask></mask><g stroke-linecap="round"><g transform="translate(268.8414061495887 217.0440805632105) rotate(82.11686068327025 7.5 8)"><path d="M0 0 C2.5 2.67, 12.5 13.33, 15 16 M0 0 C2.5 2.67, 12.5 13.33, 15 16" stroke="#000000" stroke-width="2" fill="none"></path></g></g><mask></mask><g transform="translate(131.18195961884408 10) rotate(0 193 23.5)"><text x="0" y="0" font-family="Virgil, Segoe UI Emoji" font-size="36px" fill="#000000" text-anchor="start" style="white-space: pre;" direction="ltr" dominant-baseline="text-before-edge">Bayesian Optimization</text></g><g stroke-linecap="round" transform="translate(10.980973146401652 331.79529582883043) rotate(0 314.99999999999994 81.99999999999997)"><path d="M0 0 C218.72 0, 437.44 0, 630 0 M0 0 C169.05 0, 338.1 0, 630 0 M630 0 C630 50.36, 630 100.72, 630 164 M630 0 C630 39.39, 630 78.79, 630 164 M630 164 C419.05 164, 208.11 164, 0 164 M630 164 C436.5 164, 243 164, 0 164 M0 164 C0 119.61, 0 75.23, 0 0 M0 164 C0 130.31, 0 96.61, 0 0" stroke="#000000" stroke-width="2" fill="none"></path></g><g stroke-linecap="round" transform="translate(129.0435485957081 358.9966970741831) rotate(0 8 7.5)"><path d="M16 7.5 C16 7.93, 15.96 8.37, 15.88 8.8 C15.8 9.23, 15.68 9.66, 15.52 10.07 C15.36 10.47, 15.16 10.87, 14.93 11.25 C14.7 11.63, 14.43 11.99, 14.13 12.32 C13.83 12.65, 13.5 12.97, 13.14 13.25 C12.79 13.52, 12.4 13.78, 12 14 C11.6 14.21, 11.17 14.4, 10.74 14.55 C10.3 14.7, 9.85 14.81, 9.39 14.89 C8.93 14.96, 8.46 15, 8 15 C7.54 15, 7.07 14.96, 6.61 14.89 C6.15 14.81, 5.7 14.7, 5.26 14.55 C4.83 14.4, 4.4 14.21, 4 14 C3.6 13.78, 3.21 13.52, 2.86 13.25 C2.5 12.97, 2.17 12.65, 1.87 12.32 C1.57 11.99, 1.3 11.63, 1.07 11.25 C0.84 10.87, 0.64 10.47, 0.48 10.07 C0.32 9.66, 0.2 9.23, 0.12 8.8 C0.04 8.37, 0 7.93, 0 7.5 C0 7.07, 0.04 6.63, 0.12 6.2 C0.2 5.77, 0.32 5.34, 0.48 4.93 C0.64 4.53, 0.84 4.13, 1.07 3.75 C1.3 3.37, 1.57 3.01, 1.87 2.68 C2.17 2.35, 2.5 2.03, 2.86 1.75 C3.21 1.48, 3.6 1.22, 4 1 C4.4 0.79, 4.83 0.6, 5.26 0.45 C5.7 0.3, 6.15 0.19, 6.61 0.11 C7.07 0.04, 7.54 0, 8 0 C8.46 0, 8.93 0.04, 9.39 0.11 C9.85 0.19, 10.3 0.3, 10.74 0.45 C11.17 0.6, 11.6 0.79, 12 1 C12.4 1.22, 12.79 1.48, 13.14 1.75 C13.5 2.03, 13.83 2.35, 14.13 2.68 C14.43 3.01, 14.7 3.37, 14.93 3.75 C15.16 4.13, 15.36 4.53, 15.52 4.93 C15.68 5.34, 15.8 5.77, 15.88 6.2 C15.96 6.63, 15.98 7.28, 16 7.5 C16.02 7.72, 16.02 7.28, 16 7.5" stroke="none" stroke-width="0" fill="#868e96"></path><path d="M16 7.5 C16 7.93, 15.96 8.37, 15.88 8.8 C15.8 9.23, 15.68 9.66, 15.52 10.07 C15.36 10.47, 15.16 10.87, 14.93 11.25 C14.7 11.63, 14.43 11.99, 14.13 12.32 C13.83 12.65, 13.5 12.97, 13.14 13.25 C12.79 13.52, 12.4 13.78, 12 14 C11.6 14.21, 11.17 14.4, 10.74 14.55 C10.3 14.7, 9.85 14.81, 9.39 14.89 C8.93 14.96, 8.46 15, 8 15 C7.54 15, 7.07 14.96, 6.61 14.89 C6.15 14.81, 5.7 14.7, 5.26 14.55 C4.83 14.4, 4.4 14.21, 4 14 C3.6 13.78, 3.21 13.52, 2.86 13.25 C2.5 12.97, 2.17 12.65, 1.87 12.32 C1.57 11.99, 1.3 11.63, 1.07 11.25 C0.84 10.87, 0.64 10.47, 0.48 10.07 C0.32 9.66, 0.2 9.23, 0.12 8.8 C0.04 8.37, 0 7.93, 0 7.5 C0 7.07, 0.04 6.63, 0.12 6.2 C0.2 5.77, 0.32 5.34, 0.48 4.93 C0.64 4.53, 0.84 4.13, 1.07 3.75 C1.3 3.37, 1.57 3.01, 1.87 2.68 C2.17 2.35, 2.5 2.03, 2.86 1.75 C3.21 1.48, 3.6 1.22, 4 1 C4.4 0.79, 4.83 0.6, 5.26 0.45 C5.7 0.3, 6.15 0.19, 6.61 0.11 C7.07 0.04, 7.54 0, 8 0 C8.46 0, 8.93 0.04, 9.39 0.11 C9.85 0.19, 10.3 0.3, 10.74 0.45 C11.17 0.6, 11.6 0.79, 12 1 C12.4 1.22, 12.79 1.48, 13.14 1.75 C13.5 2.03, 13.83 2.35, 14.13 2.68 C14.43 3.01, 14.7 3.37, 14.93 3.75 C15.16 4.13, 15.36 4.53, 15.52 4.93 C15.68 5.34, 15.8 5.77, 15.88 6.2 C15.96 6.63, 15.98 7.28, 16 7.5 C16.02 7.72, 16.02 7.28, 16 7.5" stroke="#000000" stroke-width="2" fill="none"></path></g><g transform="translate(283.2006980106371 344.39718498491067) rotate(0 77.5 13)"><text x="0" y="0" font-family="Virgil, Segoe UI Emoji" font-size="20px" fill="#e67700" text-anchor="start" style="white-space: pre;" direction="ltr" dominant-baseline="text-before-edge">new observation</text></g><g transform="translate(49.39105357060873 420.4788116685855) rotate(0 94.5 13)"><text x="0" y="0" font-family="Virgil, Segoe UI Emoji" font-size="20px" fill="#000000" text-anchor="start" style="white-space: pre;" direction="ltr" dominant-baseline="text-before-edge">acquisition function</text></g><g transform="translate(377.2081185241184 389.8400539869032) rotate(0 86.5 13)"><text x="0" y="0" font-family="Virgil, Segoe UI Emoji" font-size="20px" fill="#000000" text-anchor="start" style="white-space: pre;" direction="ltr" dominant-baseline="text-before-edge">objective function</text></g><g transform="translate(469.62950689830916 587.1931446009803) rotate(0 78.99999999999994 13)"><text x="0" y="0" font-family="Virgil, Segoe UI Emoji" font-size="20px" fill="#000000" text-anchor="start" style="white-space: pre;" direction="ltr" dominant-baseline="text-before-edge">surrogate model</text></g><g transform="translate(296.8033244207261 631.2159312602063) rotate(0 86 13)"><text x="0" y="0" font-family="Virgil, Segoe UI Emoji" font-size="20px" fill="#0b7285" text-anchor="start" style="white-space: pre;" direction="ltr" dominant-baseline="text-before-edge">model uncertainty</text></g><g transform="translate(243.68195961884408 526.3746524530138) rotate(0 80.5 18)"><text x="0" y="0" font-family="Virgil, Segoe UI Emoji" font-size="28px" fill="#000000" text-anchor="start" style="white-space: pre;" direction="ltr" dominant-baseline="text-before-edge">Iteration 4</text></g><g stroke-linecap="round"><g transform="translate(275.68673225861676 232.86298516421226) rotate(0 1.5825430884651723 94.19180884651337)"><path d="M0 0 C0.53 31.4, 2.64 156.99, 3.17 188.38 M0 0 C0.53 31.4, 2.64 156.99, 3.17 188.38" stroke="#e67700" stroke-width="2" fill="none"></path></g><g transform="translate(275.68673225861676 232.86298516421226) rotate(0 1.5825430884651723 94.19180884651337)"><path d="M3.17 188.38 L-3.4 174.9 L9.28 174.68 L3.17 188.38" stroke="none" stroke-width="0" fill="#e67700" fill-rule="evenodd"></path><path d="M3.17 188.38 C1.29 184.54, -0.58 180.7, -3.4 174.9 M3.17 188.38 C1.55 185.07, -0.06 181.76, -3.4 174.9 M-3.4 174.9 C0.53 174.83, 4.46 174.77, 9.28 174.68 M-3.4 174.9 C0.14 174.84, 3.68 174.78, 9.28 174.68 M9.28 174.68 C6.97 179.84, 4.67 185, 3.17 188.38 M9.28 174.68 C7.5 178.66, 5.73 182.63, 3.17 188.38 M3.17 188.38 C3.17 188.38, 3.17 188.38, 3.17 188.38 M3.17 188.38 C3.17 188.38, 3.17 188.38, 3.17 188.38" stroke="#e67700" stroke-width="2" fill="none"></path></g></g><mask></mask><g transform="translate(290.20210728797656 285.31507197995677) rotate(0 81 18)"><text x="0" y="0" font-family="Virgil, Segoe UI Emoji" font-size="28px" fill="#000000" text-anchor="start" style="white-space: pre;" direction="ltr" dominant-baseline="text-before-edge">Iteration 3</text></g><g stroke-linecap="round" transform="translate(272.0395646352879 424.981584775729) rotate(0 8 7.5)"><path d="M16 7.5 C16 7.93, 15.96 8.37, 15.88 8.8 C15.8 9.23, 15.68 9.66, 15.52 10.07 C15.36 10.47, 15.16 10.87, 14.93 11.25 C14.7 11.63, 14.43 11.99, 14.13 12.32 C13.83 12.65, 13.5 12.97, 13.14 13.25 C12.79 13.52, 12.4 13.78, 12 14 C11.6 14.21, 11.17 14.4, 10.74 14.55 C10.3 14.7, 9.85 14.81, 9.39 14.89 C8.93 14.96, 8.46 15, 8 15 C7.54 15, 7.07 14.96, 6.61 14.89 C6.15 14.81, 5.7 14.7, 5.26 14.55 C4.83 14.4, 4.4 14.21, 4 14 C3.6 13.78, 3.21 13.52, 2.86 13.25 C2.5 12.97, 2.17 12.65, 1.87 12.32 C1.57 11.99, 1.3 11.63, 1.07 11.25 C0.84 10.87, 0.64 10.47, 0.48 10.07 C0.32 9.66, 0.2 9.23, 0.12 8.8 C0.04 8.37, 0 7.93, 0 7.5 C0 7.07, 0.04 6.63, 0.12 6.2 C0.2 5.77, 0.32 5.34, 0.48 4.93 C0.64 4.53, 0.84 4.13, 1.07 3.75 C1.3 3.37, 1.57 3.01, 1.87 2.68 C2.17 2.35, 2.5 2.03, 2.86 1.75 C3.21 1.48, 3.6 1.22, 4 1 C4.4 0.79, 4.83 0.6, 5.26 0.45 C5.7 0.3, 6.15 0.19, 6.61 0.11 C7.07 0.04, 7.54 0, 8 0 C8.46 0, 8.93 0.04, 9.39 0.11 C9.85 0.19, 10.3 0.3, 10.74 0.45 C11.17 0.6, 11.6 0.79, 12 1 C12.4 1.22, 12.79 1.48, 13.14 1.75 C13.5 2.03, 13.83 2.35, 14.13 2.68 C14.43 3.01, 14.7 3.37, 14.93 3.75 C15.16 4.13, 15.36 4.53, 15.52 4.93 C15.68 5.34, 15.8 5.77, 15.88 6.2 C15.96 6.63, 15.98 7.28, 16 7.5 C16.02 7.72, 16.02 7.28, 16 7.5" stroke="none" stroke-width="0" fill="#fa5252"></path><path d="M16 7.5 C16 7.93, 15.96 8.37, 15.88 8.8 C15.8 9.23, 15.68 9.66, 15.52 10.07 C15.36 10.47, 15.16 10.87, 14.93 11.25 C14.7 11.63, 14.43 11.99, 14.13 12.32 C13.83 12.65, 13.5 12.97, 13.14 13.25 C12.79 13.52, 12.4 13.78, 12 14 C11.6 14.21, 11.17 14.4, 10.74 14.55 C10.3 14.7, 9.85 14.81, 9.39 14.89 C8.93 14.96, 8.46 15, 8 15 C7.54 15, 7.07 14.96, 6.61 14.89 C6.15 14.81, 5.7 14.7, 5.26 14.55 C4.83 14.4, 4.4 14.21, 4 14 C3.6 13.78, 3.21 13.52, 2.86 13.25 C2.5 12.97, 2.17 12.65, 1.87 12.32 C1.57 11.99, 1.3 11.63, 1.07 11.25 C0.84 10.87, 0.64 10.47, 0.48 10.07 C0.32 9.66, 0.2 9.23, 0.12 8.8 C0.04 8.37, 0 7.93, 0 7.5 C0 7.07, 0.04 6.63, 0.12 6.2 C0.2 5.77, 0.32 5.34, 0.48 4.93 C0.64 4.53, 0.84 4.13, 1.07 3.75 C1.3 3.37, 1.57 3.01, 1.87 2.68 C2.17 2.35, 2.5 2.03, 2.86 1.75 C3.21 1.48, 3.6 1.22, 4 1 C4.4 0.79, 4.83 0.6, 5.26 0.45 C5.7 0.3, 6.15 0.19, 6.61 0.11 C7.07 0.04, 7.54 0, 8 0 C8.46 0, 8.93 0.04, 9.39 0.11 C9.85 0.19, 10.3 0.3, 10.74 0.45 C11.17 0.6, 11.6 0.79, 12 1 C12.4 1.22, 12.79 1.48, 13.14 1.75 C13.5 2.03, 13.83 2.35, 14.13 2.68 C14.43 3.01, 14.7 3.37, 14.93 3.75 C15.16 4.13, 15.36 4.53, 15.52 4.93 C15.68 5.34, 15.8 5.77, 15.88 6.2 C15.96 6.63, 15.98 7.28, 16 7.5 C16.02 7.72, 16.02 7.28, 16 7.5" stroke="#000000" stroke-width="2" fill="none"></path></g><g stroke-linecap="round" transform="translate(512.7828115725978 431.7543239672006) rotate(0 8 7.5)"><path d="M16 7.5 C16 7.93, 15.96 8.37, 15.88 8.8 C15.8 9.23, 15.68 9.66, 15.52 10.07 C15.36 10.47, 15.16 10.87, 14.93 11.25 C14.7 11.63, 14.43 11.99, 14.13 12.32 C13.83 12.65, 13.5 12.97, 13.14 13.25 C12.79 13.52, 12.4 13.78, 12 14 C11.6 14.21, 11.17 14.4, 10.74 14.55 C10.3 14.7, 9.85 14.81, 9.39 14.89 C8.93 14.96, 8.46 15, 8 15 C7.54 15, 7.07 14.96, 6.61 14.89 C6.15 14.81, 5.7 14.7, 5.26 14.55 C4.83 14.4, 4.4 14.21, 4 14 C3.6 13.78, 3.21 13.52, 2.86 13.25 C2.5 12.97, 2.17 12.65, 1.87 12.32 C1.57 11.99, 1.3 11.63, 1.07 11.25 C0.84 10.87, 0.64 10.47, 0.48 10.07 C0.32 9.66, 0.2 9.23, 0.12 8.8 C0.04 8.37, 0 7.93, 0 7.5 C0 7.07, 0.04 6.63, 0.12 6.2 C0.2 5.77, 0.32 5.34, 0.48 4.93 C0.64 4.53, 0.84 4.13, 1.07 3.75 C1.3 3.37, 1.57 3.01, 1.87 2.68 C2.17 2.35, 2.5 2.03, 2.86 1.75 C3.21 1.48, 3.6 1.22, 4 1 C4.4 0.79, 4.83 0.6, 5.26 0.45 C5.7 0.3, 6.15 0.19, 6.61 0.11 C7.07 0.04, 7.54 0, 8 0 C8.46 0, 8.93 0.04, 9.39 0.11 C9.85 0.19, 10.3 0.3, 10.74 0.45 C11.17 0.6, 11.6 0.79, 12 1 C12.4 1.22, 12.79 1.48, 13.14 1.75 C13.5 2.03, 13.83 2.35, 14.13 2.68 C14.43 3.01, 14.7 3.37, 14.93 3.75 C15.16 4.13, 15.36 4.53, 15.52 4.93 C15.68 5.34, 15.8 5.77, 15.88 6.2 C15.96 6.63, 15.98 7.28, 16 7.5 C16.02 7.72, 16.02 7.28, 16 7.5" stroke="none" stroke-width="0" fill="#868e96"></path><path d="M16 7.5 C16 7.93, 15.96 8.37, 15.88 8.8 C15.8 9.23, 15.68 9.66, 15.52 10.07 C15.36 10.47, 15.16 10.87, 14.93 11.25 C14.7 11.63, 14.43 11.99, 14.13 12.32 C13.83 12.65, 13.5 12.97, 13.14 13.25 C12.79 13.52, 12.4 13.78, 12 14 C11.6 14.21, 11.17 14.4, 10.74 14.55 C10.3 14.7, 9.85 14.81, 9.39 14.89 C8.93 14.96, 8.46 15, 8 15 C7.54 15, 7.07 14.96, 6.61 14.89 C6.15 14.81, 5.7 14.7, 5.26 14.55 C4.83 14.4, 4.4 14.21, 4 14 C3.6 13.78, 3.21 13.52, 2.86 13.25 C2.5 12.97, 2.17 12.65, 1.87 12.32 C1.57 11.99, 1.3 11.63, 1.07 11.25 C0.84 10.87, 0.64 10.47, 0.48 10.07 C0.32 9.66, 0.2 9.23, 0.12 8.8 C0.04 8.37, 0 7.93, 0 7.5 C0 7.07, 0.04 6.63, 0.12 6.2 C0.2 5.77, 0.32 5.34, 0.48 4.93 C0.64 4.53, 0.84 4.13, 1.07 3.75 C1.3 3.37, 1.57 3.01, 1.87 2.68 C2.17 2.35, 2.5 2.03, 2.86 1.75 C3.21 1.48, 3.6 1.22, 4 1 C4.4 0.79, 4.83 0.6, 5.26 0.45 C5.7 0.3, 6.15 0.19, 6.61 0.11 C7.07 0.04, 7.54 0, 8 0 C8.46 0, 8.93 0.04, 9.39 0.11 C9.85 0.19, 10.3 0.3, 10.74 0.45 C11.17 0.6, 11.6 0.79, 12 1 C12.4 1.22, 12.79 1.48, 13.14 1.75 C13.5 2.03, 13.83 2.35, 14.13 2.68 C14.43 3.01, 14.7 3.37, 14.93 3.75 C15.16 4.13, 15.36 4.53, 15.52 4.93 C15.68 5.34, 15.8 5.77, 15.88 6.2 C15.96 6.63, 15.98 7.28, 16 7.5 C16.02 7.72, 16.02 7.28, 16 7.5" stroke="#000000" stroke-width="2" fill="none"></path></g><g stroke-linecap="round"><g transform="translate(195.55738889539123 451.2322757165519) rotate(0 7.5 8)"><path d="M0 0 C2.5 2.67, 12.5 13.33, 15 16 M0 0 C2.5 2.67, 12.5 13.33, 15 16" stroke="#000000" stroke-width="2" fill="none"></path></g></g><mask></mask><g stroke-linecap="round"><g transform="translate(195.21002220792195 450.8857671526519) rotate(82.11686068327025 7.5 8)"><path d="M0 0 C2.5 2.67, 12.5 13.33, 15 16 M0 0 C2.5 2.67, 12.5 13.33, 15 16" stroke="#000000" stroke-width="2" fill="none"></path></g></g><mask></mask><g stroke-linecap="round"><g transform="translate(19.34869896178418 655.9146608166491) rotate(0 309.09259259259255 -3.0481148392709088)"><path d="M0 0 C19.2 -7.17, 87.15 -35.2, 115.19 -43.04 C143.22 -50.88, 136.35 -61.52, 168.19 -47.04 C200.02 -32.56, 250.54 31, 306.19 43.85 C361.83 56.7, 450.07 37.06, 502.07 30.08 C554.07 23.1, 598.83 6.65, 618.19 1.96" stroke="#000000" stroke-width="2.5" fill="none" stroke-dasharray="8 10"></path></g></g><mask></mask><g stroke-linecap="round" transform="translate(12.170370133477661 579.1893205920151) rotate(0 315 82)"><path d="M0 0 C207.93 0, 415.86 0, 630 0 M0 0 C214.15 0, 428.3 0, 630 0 M630 0 C630 34.25, 630 68.5, 630 164 M630 0 C630 64.18, 630 128.36, 630 164 M630 164 C441.54 164, 253.07 164, 0 164 M630 164 C384.52 164, 139.04 164, 0 164 M0 164 C0 106.23, 0 48.47, 0 0 M0 164 C0 100.1, 0 36.19, 0 0" stroke="#000000" stroke-width="2" fill="none"></path></g><g stroke-linecap="round" transform="translate(130.09855576324435 604.4871263702894) rotate(0 8 7.5)"><path d="M16 7.5 C16 7.93, 15.96 8.37, 15.88 8.8 C15.8 9.23, 15.68 9.66, 15.52 10.07 C15.36 10.47, 15.16 10.87, 14.93 11.25 C14.7 11.63, 14.43 11.99, 14.13 12.32 C13.83 12.65, 13.5 12.97, 13.14 13.25 C12.79 13.52, 12.4 13.78, 12 14 C11.6 14.21, 11.17 14.4, 10.74 14.55 C10.3 14.7, 9.85 14.81, 9.39 14.89 C8.93 14.96, 8.46 15, 8 15 C7.54 15, 7.07 14.96, 6.61 14.89 C6.15 14.81, 5.7 14.7, 5.26 14.55 C4.83 14.4, 4.4 14.21, 4 14 C3.6 13.78, 3.21 13.52, 2.86 13.25 C2.5 12.97, 2.17 12.65, 1.87 12.32 C1.57 11.99, 1.3 11.63, 1.07 11.25 C0.84 10.87, 0.64 10.47, 0.48 10.07 C0.32 9.66, 0.2 9.23, 0.12 8.8 C0.04 8.37, 0 7.93, 0 7.5 C0 7.07, 0.04 6.63, 0.12 6.2 C0.2 5.77, 0.32 5.34, 0.48 4.93 C0.64 4.53, 0.84 4.13, 1.07 3.75 C1.3 3.37, 1.57 3.01, 1.87 2.68 C2.17 2.35, 2.5 2.03, 2.86 1.75 C3.21 1.48, 3.6 1.22, 4 1 C4.4 0.79, 4.83 0.6, 5.26 0.45 C5.7 0.3, 6.15 0.19, 6.61 0.11 C7.07 0.04, 7.54 0, 8 0 C8.46 0, 8.93 0.04, 9.39 0.11 C9.85 0.19, 10.3 0.3, 10.74 0.45 C11.17 0.6, 11.6 0.79, 12 1 C12.4 1.22, 12.79 1.48, 13.14 1.75 C13.5 2.03, 13.83 2.35, 14.13 2.68 C14.43 3.01, 14.7 3.37, 14.93 3.75 C15.16 4.13, 15.36 4.53, 15.52 4.93 C15.68 5.34, 15.8 5.77, 15.88 6.2 C15.96 6.63, 15.98 7.28, 16 7.5 C16.02 7.72, 16.02 7.28, 16 7.5" stroke="none" stroke-width="0" fill="#868e96"></path><path d="M16 7.5 C16 7.93, 15.96 8.37, 15.88 8.8 C15.8 9.23, 15.68 9.66, 15.52 10.07 C15.36 10.47, 15.16 10.87, 14.93 11.25 C14.7 11.63, 14.43 11.99, 14.13 12.32 C13.83 12.65, 13.5 12.97, 13.14 13.25 C12.79 13.52, 12.4 13.78, 12 14 C11.6 14.21, 11.17 14.4, 10.74 14.55 C10.3 14.7, 9.85 14.81, 9.39 14.89 C8.93 14.96, 8.46 15, 8 15 C7.54 15, 7.07 14.96, 6.61 14.89 C6.15 14.81, 5.7 14.7, 5.26 14.55 C4.83 14.4, 4.4 14.21, 4 14 C3.6 13.78, 3.21 13.52, 2.86 13.25 C2.5 12.97, 2.17 12.65, 1.87 12.32 C1.57 11.99, 1.3 11.63, 1.07 11.25 C0.84 10.87, 0.64 10.47, 0.48 10.07 C0.32 9.66, 0.2 9.23, 0.12 8.8 C0.04 8.37, 0 7.93, 0 7.5 C0 7.07, 0.04 6.63, 0.12 6.2 C0.2 5.77, 0.32 5.34, 0.48 4.93 C0.64 4.53, 0.84 4.13, 1.07 3.75 C1.3 3.37, 1.57 3.01, 1.87 2.68 C2.17 2.35, 2.5 2.03, 2.86 1.75 C3.21 1.48, 3.6 1.22, 4 1 C4.4 0.79, 4.83 0.6, 5.26 0.45 C5.7 0.3, 6.15 0.19, 6.61 0.11 C7.07 0.04, 7.54 0, 8 0 C8.46 0, 8.93 0.04, 9.39 0.11 C9.85 0.19, 10.3 0.3, 10.74 0.45 C11.17 0.6, 11.6 0.79, 12 1 C12.4 1.22, 12.79 1.48, 13.14 1.75 C13.5 2.03, 13.83 2.35, 14.13 2.68 C14.43 3.01, 14.7 3.37, 14.93 3.75 C15.16 4.13, 15.36 4.53, 15.52 4.93 C15.68 5.34, 15.8 5.77, 15.88 6.2 C15.96 6.63, 15.98 7.28, 16 7.5 C16.02 7.72, 16.02 7.28, 16 7.5" stroke="#000000" stroke-width="2" fill="none"></path></g><g stroke-linecap="round" transform="translate(197.53486944158226 613.4327598174159) rotate(0 8 7.5)"><path d="M16 7.5 C16 7.93, 15.96 8.37, 15.88 8.8 C15.8 9.23, 15.68 9.66, 15.52 10.07 C15.36 10.47, 15.16 10.87, 14.93 11.25 C14.7 11.63, 14.43 11.99, 14.13 12.32 C13.83 12.65, 13.5 12.97, 13.14 13.25 C12.79 13.52, 12.4 13.78, 12 14 C11.6 14.21, 11.17 14.4, 10.74 14.55 C10.3 14.7, 9.85 14.81, 9.39 14.89 C8.93 14.96, 8.46 15, 8 15 C7.54 15, 7.07 14.96, 6.61 14.89 C6.15 14.81, 5.7 14.7, 5.26 14.55 C4.83 14.4, 4.4 14.21, 4 14 C3.6 13.78, 3.21 13.52, 2.86 13.25 C2.5 12.97, 2.17 12.65, 1.87 12.32 C1.57 11.99, 1.3 11.63, 1.07 11.25 C0.84 10.87, 0.64 10.47, 0.48 10.07 C0.32 9.66, 0.2 9.23, 0.12 8.8 C0.04 8.37, 0 7.93, 0 7.5 C0 7.07, 0.04 6.63, 0.12 6.2 C0.2 5.77, 0.32 5.34, 0.48 4.93 C0.64 4.53, 0.84 4.13, 1.07 3.75 C1.3 3.37, 1.57 3.01, 1.87 2.68 C2.17 2.35, 2.5 2.03, 2.86 1.75 C3.21 1.48, 3.6 1.22, 4 1 C4.4 0.79, 4.83 0.6, 5.26 0.45 C5.7 0.3, 6.15 0.19, 6.61 0.11 C7.07 0.04, 7.54 0, 8 0 C8.46 0, 8.93 0.04, 9.39 0.11 C9.85 0.19, 10.3 0.3, 10.74 0.45 C11.17 0.6, 11.6 0.79, 12 1 C12.4 1.22, 12.79 1.48, 13.14 1.75 C13.5 2.03, 13.83 2.35, 14.13 2.68 C14.43 3.01, 14.7 3.37, 14.93 3.75 C15.16 4.13, 15.36 4.53, 15.52 4.93 C15.68 5.34, 15.8 5.77, 15.88 6.2 C15.96 6.63, 15.98 7.28, 16 7.5 C16.02 7.72, 16.02 7.28, 16 7.5" stroke="none" stroke-width="0" fill="#fa5252"></path><path d="M16 7.5 C16 7.93, 15.96 8.37, 15.88 8.8 C15.8 9.23, 15.68 9.66, 15.52 10.07 C15.36 10.47, 15.16 10.87, 14.93 11.25 C14.7 11.63, 14.43 11.99, 14.13 12.32 C13.83 12.65, 13.5 12.97, 13.14 13.25 C12.79 13.52, 12.4 13.78, 12 14 C11.6 14.21, 11.17 14.4, 10.74 14.55 C10.3 14.7, 9.85 14.81, 9.39 14.89 C8.93 14.96, 8.46 15, 8 15 C7.54 15, 7.07 14.96, 6.61 14.89 C6.15 14.81, 5.7 14.7, 5.26 14.55 C4.83 14.4, 4.4 14.21, 4 14 C3.6 13.78, 3.21 13.52, 2.86 13.25 C2.5 12.97, 2.17 12.65, 1.87 12.32 C1.57 11.99, 1.3 11.63, 1.07 11.25 C0.84 10.87, 0.64 10.47, 0.48 10.07 C0.32 9.66, 0.2 9.23, 0.12 8.8 C0.04 8.37, 0 7.93, 0 7.5 C0 7.07, 0.04 6.63, 0.12 6.2 C0.2 5.77, 0.32 5.34, 0.48 4.93 C0.64 4.53, 0.84 4.13, 1.07 3.75 C1.3 3.37, 1.57 3.01, 1.87 2.68 C2.17 2.35, 2.5 2.03, 2.86 1.75 C3.21 1.48, 3.6 1.22, 4 1 C4.4 0.79, 4.83 0.6, 5.26 0.45 C5.7 0.3, 6.15 0.19, 6.61 0.11 C7.07 0.04, 7.54 0, 8 0 C8.46 0, 8.93 0.04, 9.39 0.11 C9.85 0.19, 10.3 0.3, 10.74 0.45 C11.17 0.6, 11.6 0.79, 12 1 C12.4 1.22, 12.79 1.48, 13.14 1.75 C13.5 2.03, 13.83 2.35, 14.13 2.68 C14.43 3.01, 14.7 3.37, 14.93 3.75 C15.16 4.13, 15.36 4.53, 15.52 4.93 C15.68 5.34, 15.8 5.77, 15.88 6.2 C15.96 6.63, 15.98 7.28, 16 7.5 C16.02 7.72, 16.02 7.28, 16 7.5" stroke="#000000" stroke-width="2" fill="none"></path></g><g stroke-linecap="round"><g transform="translate(203.0499911425975 466.5729206058556) rotate(0 0.5543134997134302 68.92241180843271)"><path d="M0 0 C0.18 22.97, 0.92 114.87, 1.11 137.84 M0 0 C0.18 22.97, 0.92 114.87, 1.11 137.84" stroke="#e67700" stroke-width="2" fill="none"></path></g><g transform="translate(203.0499911425975 466.5729206058556) rotate(0 0.5543134997134302 68.92241180843271)"><path d="M1.11 137.84 L-5.34 124.3 L7.34 124.2 L1.11 137.84" stroke="none" stroke-width="0" fill="#e67700" fill-rule="evenodd"></path><path d="M1.11 137.84 C-1.45 132.47, -4.01 127.09, -5.34 124.3 M1.11 137.84 C-1.06 133.3, -3.22 128.75, -5.34 124.3 M-5.34 124.3 C-1.9 124.27, 1.54 124.25, 7.34 124.2 M-5.34 124.3 C-2.26 124.28, 0.82 124.25, 7.34 124.2 M7.34 124.2 C5.71 127.77, 4.08 131.35, 1.11 137.84 M7.34 124.2 C5.78 127.62, 4.22 131.04, 1.11 137.84 M1.11 137.84 C1.11 137.84, 1.11 137.84, 1.11 137.84 M1.11 137.84 C1.11 137.84, 1.11 137.84, 1.11 137.84" stroke="#e67700" stroke-width="2" fill="none"></path></g></g><mask></mask><g stroke-linecap="round" transform="translate(519.2119622502049 677.104003950423) rotate(0 8 7.5)"><path d="M16 7.5 C16 7.93, 15.96 8.37, 15.88 8.8 C15.8 9.23, 15.68 9.66, 15.52 10.07 C15.36 10.47, 15.16 10.87, 14.93 11.25 C14.7 11.63, 14.43 11.99, 14.13 12.32 C13.83 12.65, 13.5 12.97, 13.14 13.25 C12.79 13.52, 12.4 13.78, 12 14 C11.6 14.21, 11.17 14.4, 10.74 14.55 C10.3 14.7, 9.85 14.81, 9.39 14.89 C8.93 14.96, 8.46 15, 8 15 C7.54 15, 7.07 14.96, 6.61 14.89 C6.15 14.81, 5.7 14.7, 5.26 14.55 C4.83 14.4, 4.4 14.21, 4 14 C3.6 13.78, 3.21 13.52, 2.86 13.25 C2.5 12.97, 2.17 12.65, 1.87 12.32 C1.57 11.99, 1.3 11.63, 1.07 11.25 C0.84 10.87, 0.64 10.47, 0.48 10.07 C0.32 9.66, 0.2 9.23, 0.12 8.8 C0.04 8.37, 0 7.93, 0 7.5 C0 7.07, 0.04 6.63, 0.12 6.2 C0.2 5.77, 0.32 5.34, 0.48 4.93 C0.64 4.53, 0.84 4.13, 1.07 3.75 C1.3 3.37, 1.57 3.01, 1.87 2.68 C2.17 2.35, 2.5 2.03, 2.86 1.75 C3.21 1.48, 3.6 1.22, 4 1 C4.4 0.79, 4.83 0.6, 5.26 0.45 C5.7 0.3, 6.15 0.19, 6.61 0.11 C7.07 0.04, 7.54 0, 8 0 C8.46 0, 8.93 0.04, 9.39 0.11 C9.85 0.19, 10.3 0.3, 10.74 0.45 C11.17 0.6, 11.6 0.79, 12 1 C12.4 1.22, 12.79 1.48, 13.14 1.75 C13.5 2.03, 13.83 2.35, 14.13 2.68 C14.43 3.01, 14.7 3.37, 14.93 3.75 C15.16 4.13, 15.36 4.53, 15.52 4.93 C15.68 5.34, 15.8 5.77, 15.88 6.2 C15.96 6.63, 15.98 7.28, 16 7.5 C16.02 7.72, 16.02 7.28, 16 7.5" stroke="none" stroke-width="0" fill="#868e96"></path><path d="M16 7.5 C16 7.93, 15.96 8.37, 15.88 8.8 C15.8 9.23, 15.68 9.66, 15.52 10.07 C15.36 10.47, 15.16 10.87, 14.93 11.25 C14.7 11.63, 14.43 11.99, 14.13 12.32 C13.83 12.65, 13.5 12.97, 13.14 13.25 C12.79 13.52, 12.4 13.78, 12 14 C11.6 14.21, 11.17 14.4, 10.74 14.55 C10.3 14.7, 9.85 14.81, 9.39 14.89 C8.93 14.96, 8.46 15, 8 15 C7.54 15, 7.07 14.96, 6.61 14.89 C6.15 14.81, 5.7 14.7, 5.26 14.55 C4.83 14.4, 4.4 14.21, 4 14 C3.6 13.78, 3.21 13.52, 2.86 13.25 C2.5 12.97, 2.17 12.65, 1.87 12.32 C1.57 11.99, 1.3 11.63, 1.07 11.25 C0.84 10.87, 0.64 10.47, 0.48 10.07 C0.32 9.66, 0.2 9.23, 0.12 8.8 C0.04 8.37, 0 7.93, 0 7.5 C0 7.07, 0.04 6.63, 0.12 6.2 C0.2 5.77, 0.32 5.34, 0.48 4.93 C0.64 4.53, 0.84 4.13, 1.07 3.75 C1.3 3.37, 1.57 3.01, 1.87 2.68 C2.17 2.35, 2.5 2.03, 2.86 1.75 C3.21 1.48, 3.6 1.22, 4 1 C4.4 0.79, 4.83 0.6, 5.26 0.45 C5.7 0.3, 6.15 0.19, 6.61 0.11 C7.07 0.04, 7.54 0, 8 0 C8.46 0, 8.93 0.04, 9.39 0.11 C9.85 0.19, 10.3 0.3, 10.74 0.45 C11.17 0.6, 11.6 0.79, 12 1 C12.4 1.22, 12.79 1.48, 13.14 1.75 C13.5 2.03, 13.83 2.35, 14.13 2.68 C14.43 3.01, 14.7 3.37, 14.93 3.75 C15.16 4.13, 15.36 4.53, 15.52 4.93 C15.68 5.34, 15.8 5.77, 15.88 6.2 C15.96 6.63, 15.98 7.28, 16 7.5 C16.02 7.72, 16.02 7.28, 16 7.5" stroke="#000000" stroke-width="2" fill="none"></path></g><g stroke-linecap="round" transform="translate(276.7542549463175 674.3171337515279) rotate(0 8 7.5)"><path d="M16 7.5 C16 7.93, 15.96 8.37, 15.88 8.8 C15.8 9.23, 15.68 9.66, 15.52 10.07 C15.36 10.47, 15.16 10.87, 14.93 11.25 C14.7 11.63, 14.43 11.99, 14.13 12.32 C13.83 12.65, 13.5 12.97, 13.14 13.25 C12.79 13.52, 12.4 13.78, 12 14 C11.6 14.21, 11.17 14.4, 10.74 14.55 C10.3 14.7, 9.85 14.81, 9.39 14.89 C8.93 14.96, 8.46 15, 8 15 C7.54 15, 7.07 14.96, 6.61 14.89 C6.15 14.81, 5.7 14.7, 5.26 14.55 C4.83 14.4, 4.4 14.21, 4 14 C3.6 13.78, 3.21 13.52, 2.86 13.25 C2.5 12.97, 2.17 12.65, 1.87 12.32 C1.57 11.99, 1.3 11.63, 1.07 11.25 C0.84 10.87, 0.64 10.47, 0.48 10.07 C0.32 9.66, 0.2 9.23, 0.12 8.8 C0.04 8.37, 0 7.93, 0 7.5 C0 7.07, 0.04 6.63, 0.12 6.2 C0.2 5.77, 0.32 5.34, 0.48 4.93 C0.64 4.53, 0.84 4.13, 1.07 3.75 C1.3 3.37, 1.57 3.01, 1.87 2.68 C2.17 2.35, 2.5 2.03, 2.86 1.75 C3.21 1.48, 3.6 1.22, 4 1 C4.4 0.79, 4.83 0.6, 5.26 0.45 C5.7 0.3, 6.15 0.19, 6.61 0.11 C7.07 0.04, 7.54 0, 8 0 C8.46 0, 8.93 0.04, 9.39 0.11 C9.85 0.19, 10.3 0.3, 10.74 0.45 C11.17 0.6, 11.6 0.79, 12 1 C12.4 1.22, 12.79 1.48, 13.14 1.75 C13.5 2.03, 13.83 2.35, 14.13 2.68 C14.43 3.01, 14.7 3.37, 14.93 3.75 C15.16 4.13, 15.36 4.53, 15.52 4.93 C15.68 5.34, 15.8 5.77, 15.88 6.2 C15.96 6.63, 15.98 7.28, 16 7.5 C16.02 7.72, 16.02 7.28, 16 7.5" stroke="none" stroke-width="0" fill="#868e96"></path><path d="M16 7.5 C16 7.93, 15.96 8.37, 15.88 8.8 C15.8 9.23, 15.68 9.66, 15.52 10.07 C15.36 10.47, 15.16 10.87, 14.93 11.25 C14.7 11.63, 14.43 11.99, 14.13 12.32 C13.83 12.65, 13.5 12.97, 13.14 13.25 C12.79 13.52, 12.4 13.78, 12 14 C11.6 14.21, 11.17 14.4, 10.74 14.55 C10.3 14.7, 9.85 14.81, 9.39 14.89 C8.93 14.96, 8.46 15, 8 15 C7.54 15, 7.07 14.96, 6.61 14.89 C6.15 14.81, 5.7 14.7, 5.26 14.55 C4.83 14.4, 4.4 14.21, 4 14 C3.6 13.78, 3.21 13.52, 2.86 13.25 C2.5 12.97, 2.17 12.65, 1.87 12.32 C1.57 11.99, 1.3 11.63, 1.07 11.25 C0.84 10.87, 0.64 10.47, 0.48 10.07 C0.32 9.66, 0.2 9.23, 0.12 8.8 C0.04 8.37, 0 7.93, 0 7.5 C0 7.07, 0.04 6.63, 0.12 6.2 C0.2 5.77, 0.32 5.34, 0.48 4.93 C0.64 4.53, 0.84 4.13, 1.07 3.75 C1.3 3.37, 1.57 3.01, 1.87 2.68 C2.17 2.35, 2.5 2.03, 2.86 1.75 C3.21 1.48, 3.6 1.22, 4 1 C4.4 0.79, 4.83 0.6, 5.26 0.45 C5.7 0.3, 6.15 0.19, 6.61 0.11 C7.07 0.04, 7.54 0, 8 0 C8.46 0, 8.93 0.04, 9.39 0.11 C9.85 0.19, 10.3 0.3, 10.74 0.45 C11.17 0.6, 11.6 0.79, 12 1 C12.4 1.22, 12.79 1.48, 13.14 1.75 C13.5 2.03, 13.83 2.35, 14.13 2.68 C14.43 3.01, 14.7 3.37, 14.93 3.75 C15.16 4.13, 15.36 4.53, 15.52 4.93 C15.68 5.34, 15.8 5.77, 15.88 6.2 C15.96 6.63, 15.98 7.28, 16 7.5 C16.02 7.72, 16.02 7.28, 16 7.5" stroke="#000000" stroke-width="2" fill="none"></path></g><g stroke-linecap="round"><g transform="translate(139.9696966394888 452.9537319765333) rotate(0 9.836135690439505 10.92903965604387)"><path d="M0 0 C3.28 3.64, 16.39 18.22, 19.67 21.86 M0 0 C3.28 3.64, 16.39 18.22, 19.67 21.86" stroke="#000000" stroke-width="2" fill="none"></path></g><g transform="translate(139.9696966394888 452.9537319765333) rotate(0 9.836135690439505 10.92903965604387)"><path d="M19.67 21.86 L6.14 16.11 L15.38 7.8 L19.67 21.86" stroke="none" stroke-width="0" fill="#000000" fill-rule="evenodd"></path><path d="M19.67 21.86 C14.46 19.64, 9.25 17.43, 6.14 16.11 M19.67 21.86 C14.43 19.63, 9.19 17.4, 6.14 16.11 M6.14 16.11 C8.64 13.86, 11.15 11.6, 15.38 7.8 M6.14 16.11 C9.68 12.93, 13.22 9.74, 15.38 7.8 M15.38 7.8 C16.37 11.05, 17.36 14.3, 19.67 21.86 M15.38 7.8 C16.76 12.34, 18.15 16.88, 19.67 21.86 M19.67 21.86 C19.67 21.86, 19.67 21.86, 19.67 21.86 M19.67 21.86 C19.67 21.86, 19.67 21.86, 19.67 21.86" stroke="#000000" stroke-width="2" fill="none"></path></g></g><mask></mask><g stroke-linecap="round"><g transform="translate(428.1095796634705 415.54547667402517) rotate(0 -14.025830286172322 17.97999084567894)"><path d="M0 0 C-4.68 5.99, -23.38 29.97, -28.05 35.96" stroke="#000000" stroke-width="2.5" fill="none" stroke-dasharray="8 10"></path></g><g transform="translate(428.1095796634705 415.54547667402517) rotate(0 -14.025830286172322 17.97999084567894)"><path d="M-28.05 35.96 L-24.69 21.34 L-14.69 29.14 L-28.05 35.96" stroke="none" stroke-width="0" fill="#000000" fill-rule="evenodd"></path><path d="M-28.05 35.96 C-27.17 32.15, -26.3 28.33, -24.69 21.34 M-24.69 21.34 C-20.69 24.46, -16.7 27.57, -14.69 29.14 M-14.69 29.14 C-18.88 31.28, -23.06 33.41, -28.05 35.96 M-28.05 35.96 C-28.05 35.96, -28.05 35.96, -28.05 35.96" stroke="#000000" stroke-width="2.5" fill="none"></path></g></g><mask></mask><g stroke-linecap="round"><g transform="translate(162.21325566167627 717.910995027299) rotate(0 7.5 8)"><path d="M0 0 C2.5 2.67, 12.5 13.33, 15 16 M0 0 C2.5 2.67, 12.5 13.33, 15 16" stroke="#000000" stroke-width="2" fill="none"></path></g></g><mask></mask><g stroke-linecap="round"><g transform="translate(161.865888974207 717.564486463399) rotate(82.11686068327025 7.5 8)"><path d="M0 0 C2.5 2.67, 12.5 13.33, 15 16 M0 0 C2.5 2.67, 12.5 13.33, 15 16" stroke="#000000" stroke-width="2" fill="none"></path></g></g><mask></mask><g stroke-linecap="round"><g transform="translate(291.80804621531786 645.3207507864885) rotate(0 -14.211030220201167 -0.3789608058720546)"><path d="M0 0 C-4.74 -0.13, -23.69 -0.63, -28.42 -0.76 M0 0 C-4.74 -0.13, -23.69 -0.63, -28.42 -0.76" stroke="#0b7285" stroke-width="2" fill="none"></path></g><g transform="translate(291.80804621531786 645.3207507864885) rotate(0 -14.211030220201167 -0.3789608058720546)"><path d="M-28.42 -0.76 L-15.38 -6.42 L-15.7 5.59 L-28.42 -0.76" stroke="none" stroke-width="0" fill="#0b7285" fill-rule="evenodd"></path><path d="M-28.42 -0.76 C-24.84 -2.31, -21.25 -3.87, -15.38 -6.42 M-28.42 -0.76 C-25.18 -2.16, -21.94 -3.57, -15.38 -6.42 M-15.38 -6.42 C-15.51 -1.75, -15.63 2.92, -15.7 5.59 M-15.38 -6.42 C-15.51 -1.64, -15.64 3.14, -15.7 5.59 M-15.7 5.59 C-19.42 3.74, -23.13 1.88, -28.42 -0.76 M-15.7 5.59 C-20.57 3.16, -25.43 0.73, -28.42 -0.76 M-28.42 -0.76 C-28.42 -0.76, -28.42 -0.76, -28.42 -0.76 M-28.42 -0.76 C-28.42 -0.76, -28.42 -0.76, -28.42 -0.76" stroke="#0b7285" stroke-width="2" fill="none"></path></g></g><mask></mask><g stroke-linecap="round"><g transform="translate(594.2278977349727 616.9842940418678) rotate(0 7.66876357996216 16.76427387247537)"><path d="M0 0 C2.56 5.59, 12.78 27.94, 15.34 33.53 M0 0 C2.56 5.59, 12.78 27.94, 15.34 33.53" stroke="#000000" stroke-width="2" fill="none"></path></g><g transform="translate(594.2278977349727 616.9842940418678) rotate(0 7.66876357996216 16.76427387247537)"><path d="M15.34 33.53 L3.92 23.8 L15.45 18.53 L15.34 33.53" stroke="none" stroke-width="0" fill="#000000" fill-rule="evenodd"></path><path d="M15.34 33.53 C12.64 31.23, 9.95 28.94, 3.92 23.8 M15.34 33.53 C11.27 30.07, 7.21 26.61, 3.92 23.8 M3.92 23.8 C8.16 21.86, 12.41 19.92, 15.45 18.53 M3.92 23.8 C8.29 21.8, 12.66 19.8, 15.45 18.53 M15.45 18.53 C15.43 21.54, 15.4 24.56, 15.34 33.53 M15.45 18.53 C15.41 24.15, 15.36 29.77, 15.34 33.53 M15.34 33.53 C15.34 33.53, 15.34 33.53, 15.34 33.53 M15.34 33.53 C15.34 33.53, 15.34 33.53, 15.34 33.53" stroke="#000000" stroke-width="2" fill="none"></path></g></g><mask></mask></svg>