<svg version="1.1" xmlns="http://www.w3.org/2000/svg" viewBox="0 0 668.782791294667 404.23761934537316" width="1337.565582589334" height="808.4752386907463">
  <!-- svg-source:excalidraw -->
  
  <defs>
    <style class="style-fonts">
      @font-face {
        font-family: "Virgil";
        src: url("https://excalidraw.com/Virgil.woff2");
      }
      @font-face {
        font-family: "Cascadia";
        src: url("https://excalidraw.com/Cascadia.woff2");
      }
    </style>
  </defs>
  <rect x="0" y="0" width="668.782791294667" height="404.23761934537316" fill="#ffffff"></rect><g transform="translate(10 10) rotate(0 59.2400016784668 13)"><text x="0" y="0" font-family="Virgil, Segoe UI Emoji" font-size="20px" fill="#000000" text-anchor="start" style="white-space: pre;" direction="ltr" dominant-baseline="text-before-edge">Performance</text></g><g transform="translate(589.2427903791397 339.5045719546919) rotate(0 34.77000045776367 13)"><text x="0" y="0" font-family="Virgil, Segoe UI Emoji" font-size="20px" fill="#000000" text-anchor="start" style="white-space: pre;" direction="ltr" dominant-baseline="text-before-edge">Budget</text></g><g stroke-linecap="round"><g transform="translate(507.57612371247365 350.004571954692) rotate(0 0 -142.79891935366484)"><path d="M0 0 C0 -47.6, 0 -238, 0 -285.6 M0 0 C0 -47.6, 0 -238, 0 -285.6" stroke="#000000" stroke-width="2" fill="none"></path></g></g><mask></mask><g transform="translate(487.2427903791397 367.29041437642906) rotate(0 25.860000610351562 13)"><text x="0" y="0" font-family="Virgil, Segoe UI Emoji" font-size="20px" fill="#000000" text-anchor="start" style="white-space: pre;" direction="ltr" dominant-baseline="text-before-edge">100%</text></g><g transform="translate(177.89320680638207 367.29041437642906) rotate(0 22.690000534057617 13)"><text x="0" y="0" font-family="Virgil, Segoe UI Emoji" font-size="20px" fill="#000000" text-anchor="start" style="white-space: pre;" direction="ltr" dominant-baseline="text-before-edge">25%</text></g><g transform="translate(282.00973466396795 367.29041437642906) rotate(0 22.450000762939453 13)"><text x="0" y="0" font-family="Virgil, Segoe UI Emoji" font-size="20px" fill="#000000" text-anchor="start" style="white-space: pre;" direction="ltr" dominant-baseline="text-before-edge">50%</text></g><g transform="translate(386.1262625215538 367.29041437642906) rotate(0 20.950000762939453 13)"><text x="0" y="0" font-family="Virgil, Segoe UI Emoji" font-size="20px" fill="#000000" text-anchor="start" style="white-space: pre;" direction="ltr" dominant-baseline="text-before-edge">75%</text></g><g stroke-linecap="round"><g transform="translate(404.1713971657805 206.47582586606632) rotate(0 52.56960120554993 -3.494081881313349)"><path d="M0 0 C17.52 -1.16, 87.62 -5.82, 105.14 -6.99" stroke="#e67700" stroke-width="2.5" fill="none" stroke-dasharray="8 10"></path></g></g><mask></mask><g stroke-linecap="round"><g transform="translate(288.6594570458067 350.0045719546919) rotate(0 0 -141.79891935366481)"><path d="M0 0 C0 -47.27, 0 -236.33, 0 -283.6 M0 0 C0 -47.27, 0 -236.33, 0 -283.6" stroke="#000000" stroke-width="2" fill="none"></path></g></g><mask></mask><g stroke-linecap="round"><g transform="translate(398.11779037914016 349.504571954692) rotate(0 0.5 -141)"><path d="M0 0 C0.17 -47, 0.83 -235, 1 -282 M0 0 C0.17 -47, 0.83 -235, 1 -282" stroke="#000000" stroke-width="2" fill="none"></path></g></g><mask></mask><g stroke-linecap="round"><g transform="translate(179.2011237124732 349.1712386213586) rotate(0 0 -142.6550455111024)"><path d="M0 0 C0 -47.55, 0 -237.76, 0 -285.31 M0 0 C0 -47.55, 0 -237.76, 0 -285.31" stroke="#000000" stroke-width="2" fill="none"></path></g></g><mask></mask><g stroke-linecap="round"><g transform="translate(34.40945704580645 349.83790528802524) rotate(0 266.1248533984798 0)"><path d="M0 0 C88.71 0, 443.54 0, 532.25 0 M0 0 C88.71 0, 443.54 0, 532.25 0" stroke="#000000" stroke-width="2" fill="none"></path></g><g transform="translate(34.40945704580645 349.83790528802524) rotate(0 266.1248533984798 0)"><path d="M504.06 10.26 C513.2 6.93, 522.34 3.61, 532.25 0 M504.06 10.26 C513.75 6.73, 523.43 3.21, 532.25 0" stroke="#000000" stroke-width="2" fill="none"></path></g><g transform="translate(34.40945704580645 349.83790528802524) rotate(0 266.1248533984798 0)"><path d="M504.06 -10.26 C513.2 -6.93, 522.34 -3.61, 532.25 0 M504.06 -10.26 C513.75 -6.73, 523.43 -3.21, 532.25 0" stroke="#000000" stroke-width="2" fill="none"></path></g></g><mask></mask><g transform="translate(65.95059199227433 368.23761934537316) rotate(0 16.270000457763672 13)"><text x="0" y="0" font-family="Virgil, Segoe UI Emoji" font-size="20px" fill="#000000" text-anchor="start" style="white-space: pre;" direction="ltr" dominant-baseline="text-before-edge">0%</text></g><g stroke-linecap="round"><g transform="translate(69.7427903791397 350.0045719546919) rotate(0 0 -134.00321352793193)"><path d="M0 0 C0 -44.67, 0 -223.34, 0 -268.01 M0 0 C0 -44.67, 0 -223.34, 0 -268.01" stroke="#000000" stroke-width="2" fill="none"></path></g></g><mask></mask><g stroke-linecap="round"><g transform="translate(69.74238721647566 88.40951702278078) rotate(0 0 -21.820010715070822)"><path d="M0 0 C0 -7.27, 0 -36.37, 0 -43.64 M0 0 C0 -7.27, 0 -36.37, 0 -43.64" stroke="#000000" stroke-width="2" fill="none"></path></g><g transform="translate(69.74238721647566 88.40951702278078) rotate(0 0 -21.820010715070822)"><path d="M7.46 -23.14 C4.9 -30.18, 2.33 -37.23, 0 -43.64 M7.46 -23.14 C4.96 -30.01, 2.46 -36.87, 0 -43.64" stroke="#000000" stroke-width="2" fill="none"></path></g><g transform="translate(69.74238721647566 88.40951702278078) rotate(0 0 -21.820010715070822)"><path d="M-7.46 -23.14 C-4.9 -30.18, -2.33 -37.23, 0 -43.64 M-7.46 -23.14 C-4.96 -30.01, -2.46 -36.87, 0 -43.64" stroke="#000000" stroke-width="2" fill="none"></path></g></g><mask></mask><g transform="translate(438.9967651100933 264.2695478127524) rotate(0 94.91000366210938 12.5)"><text x="94.91000366210938" y="0" font-family="Virgil, Segoe UI Emoji" font-size="20px" fill="#e67700" text-anchor="middle" style="white-space: pre;" direction="ltr" dominant-baseline="text-before-edge">Median performance</text></g><g stroke-linecap="round"><g transform="translate(70.92441740060758 348.4259243571254) rotate(0 53.96355045553457 -44.245441777488196)"><path d="M0 0 C26.68 -21.87, 53.35 -43.75, 107.93 -88.49 M0 0 C29.2 -23.94, 58.4 -47.88, 107.93 -88.49" stroke="#5f3dc4" stroke-width="2" fill="none"></path></g></g><mask></mask><g stroke-linecap="round"><g transform="translate(71.4438963400861 348.63283612073195) rotate(0 52.92211434756075 -20.068245995932443)"><path d="M0 0 C38.71 -14.68, 77.43 -29.36, 105.84 -40.14 M0 0 C36.47 -13.83, 72.95 -27.66, 105.84 -40.14" stroke="#5c940d" stroke-width="2" fill="none"></path></g></g><mask></mask><g stroke-linecap="round"><g transform="translate(70.91519488166352 348.64833959699877) rotate(0 162.32960521321598 -65.42705076451716)"><path d="M0 0 C29.07 -28.71, 58.13 -57.42, 106.37 -105.08 M0 0 C34.18 -33.76, 68.35 -67.52, 106.37 -105.08 M106.37 -105.08 C136.59 -111.78, 166.8 -118.49, 217.12 -129.66 M106.37 -105.08 C149.14 -114.57, 191.91 -124.06, 217.12 -129.66 M217.12 -129.66 C246.07 -129.98, 275.02 -130.3, 324.66 -130.85 M217.12 -129.66 C252.56 -130.05, 288.01 -130.45, 324.66 -130.85" stroke="#2b8a3e" stroke-width="2" fill="none"></path></g></g><mask></mask><g stroke-linecap="round"><g transform="translate(292.54416893370137 218.69347844550407) rotate(0 53.01528739368797 -6.16041608523804)"><path d="M0 0 C17.67 -2.05, 88.36 -10.27, 106.03 -12.32" stroke="#e67700" stroke-width="2.5" fill="none" stroke-dasharray="8 10"></path></g></g><mask></mask><g stroke-linecap="round"><g transform="translate(474.451724082141 254.18707585737997) rotate(0 -10.728438756086291 -21.18200861509655)"><path d="M0 0 C-3.58 -7.06, -17.88 -35.3, -21.46 -42.36 M0 0 C-3.58 -7.06, -17.88 -35.3, -21.46 -42.36" stroke="#e67700" stroke-width="2" fill="none"></path></g><g transform="translate(474.451724082141 254.18707585737997) rotate(0 -10.728438756086291 -21.18200861509655)"><path d="M-4.13 -26.13 C-7.81 -29.58, -11.49 -33.02, -21.46 -42.36 M-4.13 -26.13 C-9.34 -31.01, -14.55 -35.89, -21.46 -42.36" stroke="#e67700" stroke-width="2" fill="none"></path></g><g transform="translate(474.451724082141 254.18707585737997) rotate(0 -10.728438756086291 -21.18200861509655)"><path d="M-18.62 -18.79 C-19.22 -23.8, -19.82 -28.8, -21.46 -42.36 M-18.62 -18.79 C-19.47 -25.88, -20.33 -32.96, -21.46 -42.36" stroke="#e67700" stroke-width="2" fill="none"></path></g></g><mask></mask><g stroke-linecap="round"><g transform="translate(71.90420566761213 348.46737500828795) rotate(0 53.31901647088557 -11.996778705949282)"><path d="M0 0 C39.49 -8.88, 78.98 -17.77, 106.64 -23.99 M0 0 C26.2 -5.9, 52.41 -11.79, 106.64 -23.99" stroke="#364fc7" stroke-width="2" fill="none"></path></g></g><mask></mask><g stroke-linecap="round"><g transform="translate(69.77144500877671 348.46737500828795) rotate(0 108.77079360060657 -60.33125812284828)"><path d="M0 0 C42.57 -45.35, 85.15 -90.71, 108.65 -115.75 M0 0 C23.25 -24.77, 46.5 -49.54, 108.65 -115.75 M108.65 -115.75 C150.23 -117.62, 191.8 -119.5, 217.54 -120.66 M108.65 -115.75 C140.62 -117.19, 172.58 -118.63, 217.54 -120.66" stroke="#a61e4d" stroke-width="2" fill="none"></path></g></g><mask></mask><g stroke-linecap="round"><g transform="translate(168.3629374499542 294.7220780727681) rotate(0 5.409909307988414 23.69581934979024)" fill-rule="evenodd"><path d="M0 0 C0 0, 0 0, 0 0 M0 0 C0 0, 0 0, 0 0 M0.13 12.04 C5.31 6.09, 10.48 0.13, 13.91 -3.81 M0.13 12.04 C5.35 6.04, 10.57 0.03, 13.91 -3.81 M-0.39 24.84 C2.77 21.21, 5.92 17.58, 14.04 8.23 M-0.39 24.84 C3.39 20.49, 7.17 16.14, 14.04 8.23 M-0.26 36.88 C3.17 32.94, 6.59 29, 14.18 20.27 M-0.26 36.88 C3.29 32.8, 6.84 28.72, 14.18 20.27 M-0.12 48.92 C2.95 45.39, 6.02 41.85, 13.65 33.07 M-0.12 48.92 C4.96 43.07, 10.04 37.23, 13.65 33.07 M3.29 57.19 C5.94 54.14, 8.58 51.1, 13.79 45.11 M3.29 57.19 C5.73 54.38, 8.18 51.57, 13.79 45.11" stroke="#e64980" stroke-width="1" fill="none"></path><path d="M0 0 C-0.05 15.58, -0.11 31.16, -0.18 53.62 M0 0 C-0.06 18.47, -0.13 36.94, -0.18 53.62 M-0.18 53.62 C3.08 53.62, 6.34 53.62, 11 53.62 M-0.18 53.62 C2.34 53.62, 4.85 53.62, 11 53.62 M11 53.62 C10.97 34.07, 10.95 14.53, 10.92 -6.23 M11 53.62 C10.97 30.5, 10.94 7.38, 10.92 -6.23 M10.92 -6.23 C7.98 -4.55, 5.05 -2.88, 0 0 M10.92 -6.23 C8.25 -4.7, 5.58 -3.18, 0 0 M0 0 C0 0, 0 0, 0 0 M0 0 C0 0, 0 0, 0 0" stroke="#c92a2a" stroke-width="2" fill="none"></path></g></g><mask></mask><g stroke-linecap="round"><g transform="translate(383.3613766771508 214.7387055763944) rotate(0 7.5994752564790815 64.90614657047664)" fill-rule="evenodd"><path d="M0 0 C0 0, 0 0, 0 0 M0 0 C0 0, 0 0, 0 0 M0.13 12.04 C3.01 8.73, 5.88 5.43, 13.91 -3.81 M0.13 12.04 C3 8.74, 5.88 5.44, 13.91 -3.81 M0.27 24.08 C5.09 18.53, 9.92 12.98, 20.6 0.69 M0.27 24.08 C7.74 15.48, 15.22 6.88, 20.6 0.69 M0.4 36.12 C6.58 29.02, 12.76 21.91, 20.74 12.73 M0.4 36.12 C6.68 28.9, 12.95 21.68, 20.74 12.73 M0.53 48.16 C8.2 39.34, 15.87 30.52, 20.87 24.77 M0.53 48.16 C7.82 39.78, 15.1 31.4, 20.87 24.77 M0.67 60.2 C7.12 52.78, 13.57 45.36, 20.35 37.56 M0.67 60.2 C4.97 55.25, 9.28 50.3, 20.35 37.56 M0.14 73 C5.2 67.18, 10.26 61.36, 20.48 49.6 M0.14 73 C6.16 66.08, 12.18 59.15, 20.48 49.6 M0.28 85.04 C5.94 78.53, 11.6 72.01, 20.61 61.64 M0.28 85.04 C6.93 77.38, 13.59 69.72, 20.61 61.64 M0.41 97.08 C6.95 89.56, 13.49 82.04, 20.75 73.69 M0.41 97.08 C6.72 89.82, 13.03 82.56, 20.75 73.69 M0.54 109.12 C5.88 102.98, 11.22 96.84, 20.22 86.48 M0.54 109.12 C7.04 101.64, 13.55 94.16, 20.22 86.48 M0.68 121.16 C7.2 113.66, 13.73 106.15, 20.36 98.52 M0.68 121.16 C6.36 114.62, 12.05 108.08, 20.36 98.52 M0.81 133.2 C5.5 127.81, 10.2 122.41, 20.49 110.56 M0.81 133.2 C7.34 125.69, 13.87 118.18, 20.49 110.56 M6.19 139.21 C11.71 132.86, 17.23 126.51, 20.62 122.6 M6.19 139.21 C11.63 132.95, 17.07 126.69, 20.62 122.6" stroke="#e64980" stroke-width="1" fill="none"></path><path d="M0 0 C0.3 50.01, 0.59 100.03, 0.8 133.94 M0 0 C0.16 27.09, 0.32 54.18, 0.8 133.94 M0.8 133.94 C3.97 133.94, 7.14 133.94, 14.82 133.94 M0.8 133.94 C4.26 133.94, 7.73 133.94, 14.82 133.94 M14.82 133.94 C14.97 78.92, 15.12 23.91, 15.2 -4.13 M14.82 133.94 C14.91 103.01, 14.99 72.08, 15.2 -4.13 M15.2 -4.13 C11.96 -3.25, 8.73 -2.37, 0 0 M15.2 -4.13 C10.68 -2.9, 6.17 -1.67, 0 0 M0 0 C0 0, 0 0, 0 0 M0 0 C0 0, 0 0, 0 0" stroke="#c92a2a" stroke-width="2" fill="none"></path></g></g><mask></mask><g stroke-linecap="round"><g transform="translate(70.0055803004002 348.69916725466567) rotate(0 108.5487824540005 -48.466430542192086)"><path d="M0 0 C24.9 -18.44, 49.8 -36.89, 108.15 -80.11 M0 0 C35.91 -26.6, 71.82 -53.2, 108.15 -80.11 M108.15 -80.11 C147.92 -86.25, 187.7 -92.39, 217.1 -96.93 M108.15 -80.11 C140.94 -85.17, 173.73 -90.24, 217.1 -96.93" stroke="#0b7285" stroke-width="2" fill="none"></path></g></g><mask></mask><g stroke-linecap="round"><g transform="translate(271.51672323025525 235.37103600725538) rotate(0 8.579289952384727 51.38550427025339)" fill-rule="evenodd"><path d="M0 0 C0 0, 0 0, 0 0 M0 0 C0 0, 0 0, 0 0 M0.13 12.04 C7.32 3.78, 14.5 -4.49, 19.16 -9.85 M0.13 12.04 C6.47 4.75, 12.8 -2.53, 19.16 -9.85 M0.27 24.08 C4.29 19.45, 8.32 14.81, 19.29 2.2 M0.27 24.08 C5.29 18.31, 10.31 12.53, 19.29 2.2 M-0.26 36.88 C6.51 29.09, 13.28 21.31, 18.77 14.99 M-0.26 36.88 C6.33 29.29, 12.93 21.71, 18.77 14.99 M-0.12 48.92 C6.75 41.01, 13.63 33.09, 18.9 27.03 M-0.12 48.92 C7.09 40.62, 14.3 32.33, 18.9 27.03 M0.01 60.96 C7.59 52.24, 15.16 43.53, 19.04 39.07 M0.01 60.96 C7.05 52.86, 14.09 44.76, 19.04 39.07 M0.14 73 C5.34 67.02, 10.53 61.05, 19.17 51.11 M0.14 73 C7.1 64.99, 14.06 56.99, 19.17 51.11 M0.28 85.04 C7.01 77.29, 13.75 69.54, 19.3 63.15 M0.28 85.04 C7.48 76.75, 14.69 68.46, 19.3 63.15 M0.41 97.08 C7.6 88.81, 14.78 80.55, 18.78 75.95 M0.41 97.08 C4.37 92.53, 8.33 87.97, 18.78 75.95 M-0.11 109.88 C4.44 104.64, 8.99 99.41, 18.91 87.99 M-0.11 109.88 C3.79 105.38, 7.7 100.89, 18.91 87.99 M3.96 117.39 C8.15 112.56, 12.35 107.73, 19.05 100.03 M3.96 117.39 C7.39 113.44, 10.83 109.49, 19.05 100.03" stroke="#e64980" stroke-width="1" fill="none"></path><path d="M0 0 C0.06 39.93, 0.13 79.86, 0.19 114.01 M0 0 C0.07 42.15, 0.14 84.31, 0.19 114.01 M0.19 114.01 C5.98 114.01, 11.77 114.01, 17.14 114.01 M0.19 114.01 C6.14 114.01, 12.09 114.01, 17.14 114.01 M17.14 114.01 C17.15 81.98, 17.15 49.94, 17.16 -11.24 M17.14 114.01 C17.15 73.3, 17.15 32.58, 17.16 -11.24 M17.16 -11.24 C13.66 -8.95, 10.17 -6.66, 0 0 M17.16 -11.24 C13.35 -8.74, 9.55 -6.25, 0 0 M0 0 C0 0, 0 0, 0 0 M0 0 C0 0, 0 0, 0 0" stroke="#c92a2a" stroke-width="2" fill="none"></path></g></g><mask></mask><g transform="translate(299.280911655861 281.64448322888694) rotate(0 40.29999923706055 23.360517080556434)"><text x="40.29999923706055" y="0" font-family="Virgil, Segoe UI Emoji" font-size="9.344206832222572px" fill="#c92a2a" text-anchor="middle" style="white-space: pre;" direction="ltr" dominant-baseline="text-before-edge">Prune if the trial</text><text x="40.29999923706055" y="11.680258540278214" font-family="Virgil, Segoe UI Emoji" font-size="9.344206832222572px" fill="#c92a2a" text-anchor="middle" style="white-space: pre;" direction="ltr" dominant-baseline="text-before-edge">is worse than</text><text x="40.29999923706055" y="23.360517080556427" font-family="Virgil, Segoe UI Emoji" font-size="9.344206832222572px" fill="#c92a2a" text-anchor="middle" style="white-space: pre;" direction="ltr" dominant-baseline="text-before-edge">the median</text><text x="40.29999923706055" y="35.04077562083464" font-family="Virgil, Segoe UI Emoji" font-size="9.344206832222572px" fill="#c92a2a" text-anchor="middle" style="white-space: pre;" direction="ltr" dominant-baseline="text-before-edge">performance</text></g><g stroke-linecap="round"><g transform="translate(321.19262209290207 279.1950370377545) rotate(0 -13.389746301781258 -13.73458895851212)"><path d="M0 0 C-9.34 -9.58, -18.68 -19.16, -26.78 -27.47 M0 0 C-6.93 -7.11, -13.87 -14.22, -26.78 -27.47" stroke="#c92a2a" stroke-width="1" fill="none"></path></g><g transform="translate(321.19262209290207 279.1950370377545) rotate(0 -13.389746301781258 -13.73458895851212)"><path d="M-9.5 -19.14 C-15.53 -22.05, -21.56 -24.95, -26.78 -27.47 M-9.5 -19.14 C-13.97 -21.3, -18.45 -23.45, -26.78 -27.47" stroke="#c92a2a" stroke-width="1" fill="none"></path></g><g transform="translate(321.19262209290207 279.1950370377545) rotate(0 -13.389746301781258 -13.73458895851212)"><path d="M-18.89 -9.98 C-21.65 -16.08, -24.4 -22.18, -26.78 -27.47 M-18.89 -9.98 C-20.94 -14.51, -22.98 -19.04, -26.78 -27.47" stroke="#c92a2a" stroke-width="1" fill="none"></path></g></g><mask></mask><g stroke-linecap="round"><g transform="translate(178.967250268076 259.8017123756844) rotate(0 163.82686725881058 -36.38643101098407)"><path d="M0 0 C40.86 -20.85, 81.73 -41.71, 108.58 -55.41 M0 0 C32.72 -16.7, 65.44 -33.39, 108.58 -55.41 M108.58 -55.41 C145.34 -57.81, 182.09 -60.21, 219.97 -62.69 M108.58 -55.41 C147.6 -57.96, 186.61 -60.51, 219.97 -62.69 M219.97 -62.69 C251.71 -65.66, 283.46 -68.63, 327.65 -72.77 M219.97 -62.69 C262.22 -66.64, 304.47 -70.6, 327.65 -72.77" stroke="#5f3dc4" stroke-width="2" fill="none"></path></g></g><mask></mask><g stroke-linecap="round"><g transform="translate(72.97058599702984 347.93418484357903) rotate(0 216.47520687179536 -86.11021160048017)"><path d="M0 0 C37.47 -25.68, 74.93 -51.35, 105.04 -71.98 M0 0 C30.24 -20.72, 60.48 -41.45, 105.04 -71.98 M105.04 -71.98 C138.98 -91.92, 172.93 -111.86, 214.88 -136.5 M105.04 -71.98 C137.82 -91.24, 170.6 -110.49, 214.88 -136.5 M214.88 -136.5 C256.7 -145.59, 298.52 -154.68, 325.25 -160.49 M214.88 -136.5 C251.93 -144.55, 288.98 -152.61, 325.25 -160.49 M325.25 -160.49 C364.83 -164.8, 404.42 -169.11, 432.95 -172.22 M325.25 -160.49 C350.22 -163.21, 375.2 -165.93, 432.95 -172.22" stroke="#862e9c" stroke-width="2" fill="none"></path></g></g><mask></mask><g stroke-linecap="round"><g transform="translate(180.62839494628554 281.68610044973155) rotate(0 53.79723551969005 -30.78514289114341)"><path d="M0 0 C17.93 -10.26, 89.66 -51.31, 107.59 -61.57" stroke="#e67700" stroke-width="2.5" fill="none" stroke-dasharray="8 10"></path></g></g><mask></mask><g stroke-linecap="round"><g transform="translate(71.65455508502225 348.1908464644958) rotate(0 53.6274509803921 -32.84313725490193)"><path d="M0 0 C17.88 -10.95, 89.38 -54.74, 107.25 -65.69" stroke="#e67700" stroke-width="2.5" fill="none" stroke-dasharray="8 10"></path></g></g><mask></mask></svg>