<svg version="1.1" xmlns="http://www.w3.org/2000/svg" viewBox="0 0 1015.8076923076919 575.5" width="1015.8076923076919" height="575.5">
  <!-- svg-source:excalidraw -->
  
  <defs>
    <style class="style-fonts">
      @font-face {
        font-family: "Virgil";
        src: url("https://excalidraw.com/Virgil.woff2");
      }
      @font-face {
        font-family: "Cascadia";
        src: url("https://excalidraw.com/Cascadia.woff2");
      }
    </style>
  </defs>
  <rect x="0" y="0" width="1015.8076923076919" height="575.5" fill="#ffffff"></rect><g stroke-opacity="0.4" fill-opacity="0.4" stroke-linecap="round" transform="translate(135 100.5) rotate(0 262.5 202)"><path d="M-0.96 1.09 L525.33 1.03 L523.63 406 L-0.46 402.87" stroke="none" stroke-width="0" fill="#868e96"></path><path d="M-0.68 0.74 C172.3 -0.25, 343.59 -0.39, 524.71 0.34 M0.29 -0.26 C160.48 -0.64, 320.47 -1.22, 525.36 0.39 M524.19 -0.76 C523.39 146.95, 523.22 295.77, 524.1 403.65 M525.52 -0.4 C526.5 124.49, 526.54 248.23, 524.51 404.41 M525.53 403.82 C361.76 402.11, 198.25 402.74, 0.77 403.56 M524.93 403.66 C415.17 401.81, 305.96 402.06, -0.21 404.27 M-0.62 404.7 C0.62 253.8, -0.24 101.48, 0.28 -0.1 M-0.09 404.41 C-2.15 291.42, -1.79 180.06, -0.54 0.23" stroke="transparent" stroke-width="1" fill="none"></path></g><g stroke-opacity="0.6" fill-opacity="0.6" stroke-linecap="round" transform="translate(192 205.5) rotate(0 214 23)"><path d="M227.52 0.61 C248.44 0.63, 271.88 1.82, 292.47 2.49 C313.05 3.17, 334.09 3.18, 351.02 4.67 C367.96 6.17, 382.5 9.48, 394.08 11.45 C405.65 13.42, 414.73 14.26, 420.47 16.51 C426.21 18.76, 429.71 22.49, 428.51 24.94 C427.31 27.39, 421.4 29.16, 413.26 31.19 C405.12 33.23, 393.96 35.33, 379.67 37.13 C365.38 38.93, 346.44 40.78, 327.51 42 C308.57 43.22, 287.19 43.7, 266.07 44.44 C244.96 45.19, 222.53 46.64, 200.81 46.48 C179.09 46.32, 156.22 44.54, 135.75 43.47 C115.27 42.39, 94.91 41.28, 77.94 40.04 C60.96 38.81, 45.87 37.99, 33.89 36.06 C21.92 34.14, 11.81 30.95, 6.11 28.49 C0.4 26.02, -1.83 23.48, -0.33 21.26 C1.16 19.05, 6.82 17.44, 15.09 15.22 C23.36 12.99, 35.34 9.86, 49.3 7.91 C63.26 5.96, 80.18 4.72, 98.85 3.51 C117.52 2.3, 139.09 1.17, 161.32 0.66 C183.55 0.16, 219.33 0.39, 232.23 0.46 C245.12 0.53, 238.93 0.76, 238.69 1.06 M147.42 1.11 C166.27 0.12, 193.36 -0.54, 215.31 -0.64 C237.25 -0.73, 258.35 -0.22, 279.09 0.55 C299.83 1.32, 321.77 2.3, 339.74 3.99 C357.72 5.67, 373.97 8.69, 386.95 10.64 C399.92 12.59, 410.9 13.76, 417.61 15.69 C424.32 17.61, 427.47 19.69, 427.2 22.21 C426.93 24.73, 422.85 28.63, 415.97 30.81 C409.1 33, 398.49 33.39, 385.94 35.32 C373.39 37.25, 358.5 40.57, 340.68 42.39 C322.85 44.21, 300.38 45.77, 278.98 46.24 C257.58 46.71, 233.95 45.67, 212.28 45.2 C190.61 44.73, 169.73 44.21, 148.96 43.42 C128.2 42.62, 105.74 41.7, 87.69 40.42 C69.64 39.13, 53.28 37.39, 40.64 35.7 C27.99 34.01, 18.67 32.53, 11.83 30.3 C4.99 28.07, -0.29 24.96, -0.38 22.33 C-0.48 19.69, 4.24 16.61, 11.27 14.51 C18.3 12.4, 28.84 11.55, 41.79 9.7 C54.73 7.86, 71.32 4.98, 88.91 3.44 C106.5 1.9, 137.12 0.56, 147.34 0.44 C157.55 0.32, 148.75 2.36, 150.21 2.71" stroke="none" stroke-width="0" fill="#dc9327"></path><path d="M166.64 0.2 C186.29 -0.43, 210.49 0.82, 232.5 1 C254.52 1.18, 278.23 0.5, 298.71 1.26 C319.19 2.02, 339.01 3.95, 355.4 5.57 C371.79 7.19, 385.93 9.07, 397.04 10.98 C408.15 12.89, 417.18 14.58, 422.05 17.02 C426.92 19.47, 428.23 23.29, 426.25 25.67 C424.27 28.06, 418.51 29.14, 410.17 31.36 C401.83 33.57, 390.65 37.21, 376.18 38.96 C361.72 40.71, 342.36 40.7, 323.38 41.84 C304.4 42.98, 283.61 45.25, 262.29 45.79 C240.97 46.33, 217.53 45.32, 195.48 45.08 C173.43 44.84, 150.28 45.1, 130 44.36 C109.72 43.61, 90.43 42.16, 73.8 40.62 C57.17 39.09, 41.43 37.35, 30.19 35.14 C18.95 32.93, 11.39 29.75, 6.35 27.36 C1.32 24.96, -1.98 22.85, -0.02 20.75 C1.94 18.65, 9.42 16.78, 18.12 14.75 C26.81 12.71, 38 10.5, 52.16 8.55 C66.32 6.6, 82.12 4.4, 103.1 3.04 C124.07 1.68, 163.84 0.95, 178 0.39 C192.16 -0.16, 187.69 -0.66, 188.08 -0.28 M269.22 1.15 C290.5 1.53, 312.59 3.63, 331.04 5.02 C349.49 6.4, 366.09 7.58, 379.92 9.45 C393.75 11.31, 405.85 14.27, 414.03 16.19 C422.2 18.11, 427.81 18.65, 428.95 20.99 C430.09 23.33, 426.92 27.79, 420.86 30.24 C414.8 32.68, 404.82 34.04, 392.58 35.65 C380.34 37.26, 364.21 38.63, 347.42 39.91 C330.62 41.19, 312.08 42.4, 291.81 43.34 C271.53 44.27, 248.2 45.42, 225.79 45.53 C203.38 45.64, 178.53 44.62, 157.36 43.99 C136.19 43.35, 117.03 42.91, 98.76 41.73 C80.49 40.54, 61.88 38.79, 47.72 36.87 C33.56 34.95, 21.79 32.39, 13.8 30.19 C5.82 28, 0.89 26.04, -0.17 23.69 C-1.23 21.35, 1.76 18.32, 7.45 16.12 C13.13 13.92, 22.15 12.58, 33.93 10.49 C45.71 8.41, 60.83 4.93, 78.12 3.63 C95.4 2.33, 116.78 3.34, 137.62 2.68 C158.45 2.02, 181.41 0.11, 203.12 -0.33 C224.83 -0.78, 256.9 -0.15, 267.87 0.04 C278.83 0.22, 269.45 0.47, 268.89 0.78" stroke="transparent" stroke-width="1" fill="none"></path></g><g transform="translate(331 10) rotate(0 207 23.5)"><text x="0" y="0" font-family="Virgil, Segoe UI Emoji" font-size="36px" fill="#000000" text-anchor="start" style="white-space: pre;" direction="ltr" dominant-baseline="text-before-edge">Performance Landscape</text></g><g stroke-linecap="round" transform="translate(904.0769230769188 201.50000000000023) rotate(0 21.140732041495426 42.94211195928756)"><path d="M0 0 L42.28 0 L42.28 85.88 L0 85.88" stroke="none" stroke-width="0" fill="#c11414"></path><path d="M0 0 C12.95 0, 25.89 0, 42.28 0 M0 0 C13.68 0, 27.36 0, 42.28 0 M42.28 0 C42.28 24.57, 42.28 49.15, 42.28 85.88 M42.28 0 C42.28 17.59, 42.28 35.17, 42.28 85.88 M42.28 85.88 C29.67 85.88, 17.05 85.88, 0 85.88 M42.28 85.88 C32.39 85.88, 22.5 85.88, 0 85.88 M0 85.88 C0 63.72, 0 41.55, 0 0 M0 85.88 C0 56.52, 0 27.15, 0 0" stroke="transparent" stroke-width="1" fill="none"></path></g><g stroke-opacity="0.7" fill-opacity="0.7" stroke-linecap="round" transform="translate(904.0769230769188 288.04487179487273) rotate(0 21.140732041495426 42.94211195928756)"><path d="M0 0 L42.28 0 L42.28 85.88 L0 85.88" stroke="none" stroke-width="0" fill="#dc9327"></path><path d="M0 0 C9.52 0, 19.03 0, 42.28 0 M0 0 C12.06 0, 24.11 0, 42.28 0 M42.28 0 C42.28 32.17, 42.28 64.33, 42.28 85.88 M42.28 0 C42.28 20.08, 42.28 40.16, 42.28 85.88 M42.28 85.88 C30.54 85.88, 18.8 85.88, 0 85.88 M42.28 85.88 C26.8 85.88, 11.33 85.88, 0 85.88 M0 85.88 C0 61.15, 0 36.43, 0 0 M0 85.88 C0 63.39, 0 40.9, 0 0" stroke="transparent" stroke-width="1" fill="none"></path></g><g stroke-opacity="0.7" fill-opacity="0.7" stroke-linecap="round" transform="translate(904.0769230769188 373.4811606968094) rotate(0 21.140732041495426 42.94211195928756)"><path d="M0 0 L42.28 0 L42.28 85.88 L0 85.88" stroke="none" stroke-width="0" fill="#868e96"></path><path d="M0 0 C14.75 0, 29.5 0, 42.28 0 M0 0 C9.23 0, 18.45 0, 42.28 0 M42.28 0 C42.28 31.46, 42.28 62.91, 42.28 85.88 M42.28 0 C42.28 24.94, 42.28 49.88, 42.28 85.88 M42.28 85.88 C25.99 85.88, 9.69 85.88, 0 85.88 M42.28 85.88 C31.98 85.88, 21.67 85.88, 0 85.88 M0 85.88 C0 62.88, 0 39.87, 0 0 M0 85.88 C0 65.73, 0 45.58, 0 0" stroke="transparent" stroke-width="1" fill="none"></path></g><g stroke-linecap="round"><g transform="translate(151 463.5) rotate(0 232.36625932690032 0.15631528759837465)"><path d="M-0.84 0.74 C76.68 0.62, 388 -0.29, 465.57 -0.49 M0.92 0.08 C78.3 0.1, 387.85 0.7, 464.98 0.8" stroke="#000000" stroke-width="2" fill="none"></path></g><g transform="translate(151 463.5) rotate(0 232.36625932690032 0.15631528759837465)"><path d="M438 12.13 C445.46 7.3, 455.08 4.95, 464.39 1.68 M437.7 11.69 C442.19 9.86, 448.88 7.02, 464.63 1.64" stroke="#000000" stroke-width="2" fill="none"></path></g><g transform="translate(151 463.5) rotate(0 232.36625932690032 0.15631528759837465)"><path d="M438.03 -8.39 C445.53 -6.3, 455.13 -1.72, 464.39 1.68 M437.74 -8.83 C442.28 -6.36, 448.96 -4.9, 464.63 1.64" stroke="#000000" stroke-width="2" fill="none"></path></g></g><mask></mask><g stroke-linecap="round"><g transform="translate(1.1469450836823398 363.7564633087627) rotate(284.76884358724743 176.0713406394191 -46.678619337537214)"><path d="M0.7 0.23 C59.56 -15.2, 293.78 -78.05, 352.53 -93.59 M-0.39 -0.69 C58.35 -15.88, 292.66 -77.21, 351.51 -92.37" stroke="#000000" stroke-width="2" fill="none"></path></g><g transform="translate(1.1469450836823398 363.7564633087627) rotate(284.76884358724743 176.0713406394191 -46.678619337537214)"><path d="M327.19 -75.6 C332.04 -78.86, 339.17 -84.93, 350.99 -91.39 M326.85 -75.82 C335.84 -82.62, 346.49 -88.17, 351.45 -92.55" stroke="#000000" stroke-width="2" fill="none"></path></g><g transform="translate(1.1469450836823398 363.7564633087627) rotate(284.76884358724743 176.0713406394191 -46.678619337537214)"><path d="M322.03 -95.46 C327.99 -93.83, 336.4 -94.98, 350.99 -91.39 M321.69 -95.68 C332.88 -94.72, 345.55 -92.47, 351.45 -92.55" stroke="#000000" stroke-width="2" fill="none"></path></g></g><mask></mask><g stroke-linecap="round" transform="translate(273 220.5) rotate(0 149.5 9)"><path d="M96.61 1.34 C111.83 0.65, 132.75 -0.44, 150.75 -0.4 C168.75 -0.36, 187.76 0.98, 204.6 1.57 C221.45 2.17, 238.6 2.51, 251.82 3.18 C265.05 3.85, 276.05 4.73, 283.96 5.59 C291.86 6.44, 297.71 7.18, 299.23 8.3 C300.76 9.41, 298.23 11.15, 293.09 12.28 C287.94 13.41, 279.35 14.47, 268.36 15.08 C257.37 15.69, 242.82 15.64, 227.13 15.95 C211.43 16.27, 192.01 16.6, 174.2 16.96 C156.39 17.31, 137.81 18.19, 120.27 18.08 C102.73 17.98, 84.06 16.88, 68.97 16.32 C53.88 15.76, 40.43 15.53, 29.75 14.72 C19.07 13.9, 9.73 12.43, 4.91 11.44 C0.09 10.45, -1.26 9.99, 0.82 8.77 C2.9 7.55, 9.2 5.08, 17.39 4.13 C25.58 3.18, 34.41 3.76, 49.96 3.08 C65.51 2.41, 98.29 0.41, 110.67 0.07 C123.05 -0.28, 123.63 0.89, 124.22 1.01 M135.94 -0.35 C152.61 -0.99, 173.2 -1.08, 190.66 -0.86 C208.11 -0.65, 226.24 0.03, 240.66 0.92 C255.09 1.81, 268.03 3.23, 277.22 4.48 C286.42 5.73, 292.79 7.43, 295.82 8.42 C298.86 9.4, 298.49 9.61, 295.43 10.4 C292.38 11.19, 286.98 12.32, 277.47 13.14 C267.97 13.97, 252.65 14.59, 238.39 15.35 C224.13 16.11, 208.82 17.46, 191.91 17.7 C175.01 17.94, 155.22 16.9, 136.95 16.78 C118.68 16.67, 98.75 17.22, 82.31 17.03 C65.86 16.84, 50.12 16.57, 38.27 15.65 C26.43 14.72, 17.87 12.77, 11.25 11.48 C4.63 10.18, -1.31 8.69, -1.45 7.88 C-1.58 7.07, 3.78 7.66, 10.46 6.62 C17.14 5.57, 26.73 2.74, 38.64 1.64 C50.54 0.53, 65.61 0.15, 81.9 -0.02 C98.18 -0.2, 127.6 0.57, 136.33 0.59 C145.06 0.62, 134.08 -0.03, 134.27 0.12" stroke="none" stroke-width="0" fill="#c11414"></path><path d="M180.69 0.51 C197.9 0.42, 216.12 0.37, 231.09 1.07 C246.06 1.77, 260.01 3.68, 270.5 4.7 C280.99 5.72, 289.34 6.16, 294.02 7.18 C298.7 8.2, 300.69 9.75, 298.57 10.84 C296.45 11.92, 289.8 12.74, 281.29 13.69 C272.78 14.64, 260.99 15.8, 247.51 16.54 C234.04 17.27, 217.29 17.84, 200.44 18.11 C183.6 18.39, 164.5 18.43, 146.45 18.17 C128.4 17.92, 108.66 16.88, 92.14 16.59 C75.62 16.29, 60.35 17.02, 47.32 16.42 C34.29 15.83, 21.64 14.25, 13.96 13 C6.28 11.75, 2.42 9.9, 1.26 8.9 C0.11 7.9, 2.01 7.91, 7.03 7 C12.04 6.09, 20.41 4.5, 31.35 3.45 C42.29 2.41, 56.86 1.21, 72.65 0.73 C88.44 0.25, 106.72 0.5, 126.08 0.58 C145.44 0.66, 177.29 1.16, 188.83 1.21 C200.36 1.27, 195.83 0.81, 195.29 0.91 M211.95 -0.18 C228.35 0.15, 243.59 1.22, 255.92 2.09 C268.24 2.96, 278.68 4.04, 285.9 5.03 C293.12 6.02, 298.35 7.07, 299.24 8.02 C300.13 8.97, 297.28 9.38, 291.24 10.73 C285.2 12.08, 274.89 14.84, 262.97 16.11 C251.05 17.39, 235.87 18.07, 219.72 18.38 C203.57 18.68, 183.9 17.94, 166.07 17.93 C148.23 17.91, 130.03 18.44, 112.69 18.31 C95.35 18.19, 76.84 17.7, 62.04 17.17 C47.24 16.63, 33.55 16.36, 23.89 15.09 C14.22 13.81, 7.65 10.93, 4.04 9.53 C0.44 8.12, -0.31 7.71, 2.24 6.66 C4.79 5.62, 10.39 4.12, 19.33 3.24 C28.27 2.37, 41.58 2.02, 55.87 1.41 C70.15 0.81, 88.03 -0.38, 105.03 -0.39 C122.03 -0.4, 140.08 1.26, 157.87 1.37 C175.66 1.48, 202.74 0.15, 211.77 0.25 C220.79 0.35, 212.94 1.63, 212.03 1.94" stroke="transparent" stroke-width="1" fill="none"></path></g><g transform="translate(563 503.5) rotate(0 14 13)"><text x="0" y="0" font-family="Virgil, Segoe UI Emoji" font-size="20px" fill="transparent" text-anchor="start" style="white-space: pre;" direction="ltr" dominant-baseline="text-before-edge">Pa</text></g><g transform="translate(10 130.5) rotate(0 59 26)"><text x="0" y="0" font-family="Virgil, Segoe UI Emoji" font-size="20px" fill="#000000" text-anchor="start" style="white-space: pre;" direction="ltr" dominant-baseline="text-before-edge">Parameter 1</text><text x="0" y="26" font-family="Virgil, Segoe UI Emoji" font-size="20px" fill="#000000" text-anchor="start" style="white-space: pre;" direction="ltr" dominant-baseline="text-before-edge">(important)</text></g><g transform="translate(517 513.5) rotate(0 64.5 26)"><text x="0" y="0" font-family="Virgil, Segoe UI Emoji" font-size="20px" fill="#000000" text-anchor="start" style="white-space: pre;" direction="ltr" dominant-baseline="text-before-edge">Parameter 2</text><text x="0" y="26" font-family="Virgil, Segoe UI Emoji" font-size="20px" fill="#000000" text-anchor="start" style="white-space: pre;" direction="ltr" dominant-baseline="text-before-edge">(unimportant)</text></g><g stroke-linecap="round"><g transform="translate(973.0367082595003 167.77459015184286) rotate(0 0.5259893279128391 144.07855220167693)"><path d="M-0.46 -1.18 C-0.32 47.01, 0.21 241.23, 0.02 289.34 M1.5 0.81 C1.63 48.66, 0.25 239.8, -0.45 287.72" stroke="#000000" stroke-width="1" fill="none"></path></g><g transform="translate(973.0367082595003 167.77459015184286) rotate(0 0.5259893279128391 144.07855220167693)"><path d="M7.9 28.5 C8.98 19.18, 3.46 13.17, -0.56 -2.92 M9.57 26.27 C7.41 21.05, 4.93 12.78, -1.39 -1.59" stroke="#000000" stroke-width="1" fill="none"></path></g><g transform="translate(973.0367082595003 167.77459015184286) rotate(0 0.5259893279128391 144.07855220167693)"><path d="M-12.62 28.55 C-6.72 19.3, -7.42 13.27, -0.56 -2.92 M-10.96 26.31 C-8.21 21.08, -5.79 12.8, -1.39 -1.59" stroke="#000000" stroke-width="1" fill="none"></path></g></g><mask></mask><g transform="translate(745.2884615384578 89.1538461538463) rotate(0 118.98076923076928 31.846153846153868)"><text x="118.98076923076923" y="0" font-family="Virgil, Segoe UI Emoji" font-size="24.769230769230774px" fill="#000000" text-anchor="middle" style="white-space: pre;" direction="ltr" dominant-baseline="text-before-edge">Performance</text><text x="118.98076923076923" y="31.84615384615386" font-family="Virgil, Segoe UI Emoji" font-size="24.769230769230774px" fill="#000000" text-anchor="middle" style="white-space: pre;" direction="ltr" dominant-baseline="text-before-edge">(cumulative reward)</text></g><g transform="translate(762.9807692307731 216.5384615384612) rotate(0 51.75 11.5)"><text x="51.74999999999999" y="0" font-family="Virgil, Segoe UI Emoji" font-size="17.692307692307704px" fill="#c11414" text-anchor="middle" style="white-space: pre;" direction="ltr" dominant-baseline="text-before-edge">High returns</text></g><g transform="translate(749.2692307692346 314.73076923076917) rotate(0 65.46153846153834 11.5)"><text x="65.46153846153838" y="0" font-family="Virgil, Segoe UI Emoji" font-size="17.692307692307683px" fill="#dc9327" text-anchor="middle" style="white-space: pre;" direction="ltr" dominant-baseline="text-before-edge">Medium returns</text></g><g transform="translate(762.9807692307731 403.1923076923081) rotate(0 51.75 11.5)"><text x="51.74999999999999" y="0" font-family="Virgil, Segoe UI Emoji" font-size="17.692307692307704px" fill="#868e96" text-anchor="middle" style="white-space: pre;" direction="ltr" dominant-baseline="text-before-edge">Low returns</text></g><g stroke-linecap="round" transform="translate(713 86.5) rotate(0 146.40384615384596 195.5)"><path d="M-0.74 -1.32 C61.19 -1.63, 123.43 -0.36, 291.64 0.08 M-0.04 -0.64 C66.27 2.13, 133.91 2.02, 292.09 -0.71 M293.52 -1.14 C290.09 104.51, 291.24 208.04, 292.04 391.16 M292.76 0.2 C294.77 118.2, 294.03 237.51, 292.83 391.19 M293.47 390.08 C207.59 390.82, 124.24 389.03, -0.23 390.11 M292.52 390.98 C213.22 393.14, 133.81 392.28, 0.3 390.76 M-0.46 391.28 C-0.36 276.95, -0.37 162.3, -1.1 -0.45 M0.39 390.87 C-2.28 263.07, -1.53 134.46, -0.18 -0.03" stroke="#000000" stroke-width="1" fill="none"></path></g></svg>