<svg version="1.1" xmlns="http://www.w3.org/2000/svg" viewBox="0 0 748.8333333333333 368.68524517973526" width="1497.6666666666665" height="737.3704903594705">
  <!-- svg-source:excalidraw -->
  
  <defs>
    <style class="style-fonts">
      @font-face {
        font-family: "Virgil";
        src: url("https://excalidraw.com/Virgil.woff2");
      }
      @font-face {
        font-family: "Cascadia";
        src: url("https://excalidraw.com/Cascadia.woff2");
      }
    </style>
  </defs>
  <g transform="translate(10 24.28553112238731) rotate(0 59.5 13)"><text x="0" y="0" font-family="Virgil, Segoe UI Emoji" font-size="20px" fill="#000000" text-anchor="start" style="white-space: pre;" direction="ltr" dominant-baseline="text-before-edge">Performance</text></g><g transform="translate(667.8333333333333 303.952197789054) rotate(0 35.5 13)"><text x="0" y="0" font-family="Virgil, Segoe UI Emoji" font-size="20px" fill="#000000" text-anchor="start" style="white-space: pre;" direction="ltr" dominant-baseline="text-before-edge">Budget</text></g><g stroke-linecap="round"><g transform="translate(586.1666666666672 318.452197789054) rotate(0 0.5 -141)"><path d="M0 0 C0.17 -47, 0.83 -235, 1 -282 M0 0 C0.17 -47, 0.83 -235, 1 -282" stroke="#000000" stroke-width="2" fill="none"></path></g></g><mask></mask><g transform="translate(565.8333333333333 331.73804021079116) rotate(0 26.5 13)"><text x="0" y="0" font-family="Virgil, Segoe UI Emoji" font-size="20px" fill="#000000" text-anchor="start" style="white-space: pre;" direction="ltr" dominant-baseline="text-before-edge">100%</text></g><g transform="translate(256.4837497605756 331.73804021079116) rotate(0 23 13)"><text x="0" y="0" font-family="Virgil, Segoe UI Emoji" font-size="20px" fill="#000000" text-anchor="start" style="white-space: pre;" direction="ltr" dominant-baseline="text-before-edge">25%</text></g><g transform="translate(360.6002776181615 331.73804021079116) rotate(0 23 13)"><text x="0" y="0" font-family="Virgil, Segoe UI Emoji" font-size="20px" fill="#000000" text-anchor="start" style="white-space: pre;" direction="ltr" dominant-baseline="text-before-edge">50%</text></g><g transform="translate(464.7168054757474 331.73804021079116) rotate(0 21.5 13)"><text x="0" y="0" font-family="Virgil, Segoe UI Emoji" font-size="20px" fill="#000000" text-anchor="start" style="white-space: pre;" direction="ltr" dominant-baseline="text-before-edge">75%</text></g><g stroke-linecap="round"><g transform="translate(149.7058823529411 313.1286683772893) rotate(0 53.59402852049914 -14.413992869875244)"><path d="M0 0 C17.86 -4.8, 89.32 -24.02, 107.19 -28.83 M0 0 C17.86 -4.8, 89.32 -24.02, 107.19 -28.83" stroke="#c92a2a" stroke-width="2" fill="none"></path></g></g><mask></mask><g stroke-linecap="round"><g transform="translate(150 313.61886445572065) rotate(0 52.916666666666686 -10.416666666666686)"><path d="M0 0 C17.64 -3.47, 88.19 -17.36, 105.83 -20.83 M0 0 C17.64 -3.47, 88.19 -17.36, 105.83 -20.83" stroke="#364fc7" stroke-width="2" fill="none"></path></g></g><mask></mask><g stroke-linecap="round"><g transform="translate(149.16666666666674 313.61886445572065) rotate(0 54.16666666666663 -39.58333333333334)"><path d="M0 0 C18.06 -13.19, 90.28 -65.97, 108.33 -79.17 M0 0 C18.06 -13.19, 90.28 -65.97, 108.33 -79.17" stroke="#1864ab" stroke-width="2" fill="none"></path></g></g><mask></mask><g stroke-linecap="round"><g transform="translate(149.16666666666674 313.61886445572065) rotate(0 53.75 -21.25)"><path d="M0 0 C17.92 -7.08, 89.58 -35.42, 107.5 -42.5 M0 0 C17.92 -7.08, 89.58 -35.42, 107.5 -42.5" stroke="#e67700" stroke-width="2" fill="none"></path></g></g><mask></mask><g stroke-linecap="round"><g transform="translate(148.33333333333337 312.7855311223873) rotate(0 54.621212121212125 -65.9848484848485)"><path d="M0 0 C18.21 -21.99, 91.04 -109.97, 109.24 -131.97 M0 0 C18.21 -21.99, 91.04 -109.97, 109.24 -131.97" stroke="#5c940d" stroke-width="2" fill="none"></path></g></g><mask></mask><g stroke-linecap="round"><g transform="translate(149.16666666666674 313.61886445572065) rotate(0 54.204545454545496 -46.628787878787875)"><path d="M0 0 C18.07 -15.54, 90.34 -77.71, 108.41 -93.26 M0 0 C18.07 -15.54, 90.34 -77.71, 108.41 -93.26" stroke="#d9480f" stroke-width="2" fill="none"></path></g></g><mask></mask><g stroke-linecap="round"><g transform="translate(150.3431372549021 312.7855311223873) rotate(0 53.27540106951864 -2.803030303030283)"><path d="M0 0 C17.76 -0.93, 88.79 -4.67, 106.55 -5.61 M0 0 C17.76 -0.93, 88.79 -4.67, 106.55 -5.61" stroke="#343a40" stroke-width="2" fill="none"></path></g></g><mask></mask><g stroke-linecap="round"><g transform="translate(150.2450980392158 312.6384722988579) rotate(0 53.6274509803921 -32.84313725490193)"><path d="M0 0 C17.88 -10.95, 89.38 -54.74, 107.25 -65.69 M0 0 C17.88 -10.95, 89.38 -54.74, 107.25 -65.69" stroke="#a61e4d" stroke-width="2" fill="none"></path></g></g><mask></mask><g stroke-linecap="round"><g transform="translate(258.94174383601694 180.498805578714) rotate(0 54.49152542372883 -7.440677966101703)"><path d="M0 0 C18.16 -2.48, 90.82 -12.4, 108.98 -14.88 M0 0 C18.16 -2.48, 90.82 -12.4, 108.98 -14.88" stroke="#5c940d" stroke-width="2" fill="none"></path></g></g><mask></mask><g stroke-linecap="round"><g transform="translate(259.2625298795549 219.39876551687487) rotate(0 54.274193548387075 -20.378787878787875)"><path d="M0 0 C18.09 -6.79, 90.46 -33.96, 108.55 -40.76 M0 0 C18.09 -6.79, 90.46 -33.96, 108.55 -40.76" stroke="#d9480f" stroke-width="2" fill="none"></path></g></g><mask></mask><g stroke-linecap="round"><g transform="translate(258.6783973599386 234.512104662472) rotate(0 54.59459459459458 -12.702702702702709)"><path d="M0 0 C18.2 -4.23, 90.99 -21.17, 109.19 -25.41 M0 0 C18.2 -4.23, 90.99 -21.17, 109.19 -25.41" stroke="#1864ab" stroke-width="2" fill="none"></path></g></g><mask></mask><g stroke-linecap="round"><g transform="translate(259.2189379004791 246.13372628409363) rotate(0 54.05405405405406 -25.13513513513513)"><path d="M0 0 C18.02 -8.38, 90.09 -41.89, 108.11 -50.27 M0 0 C18.02 -8.38, 90.09 -41.89, 108.11 -50.27" stroke="#a61e4d" stroke-width="2" fill="none"></path></g></g><mask></mask><g stroke-linecap="round"><g transform="translate(368.17761995069463 165.98566669324222) rotate(0 54.358974358974365 -2.435897435897431)"><path d="M0 0 C18.12 -0.81, 90.6 -4.06, 108.72 -4.87 M0 0 C18.12 -0.81, 90.6 -4.06, 108.72 -4.87" stroke="#5c940d" stroke-width="2" fill="none"></path></g></g><mask></mask><g stroke-linecap="round"><g transform="translate(368.643820416895 178.17680888438437) rotate(0 54.20745920745924 -12.808857808857795)"><path d="M0 0 C18.07 -4.27, 90.35 -21.35, 108.41 -25.62 M0 0 C18.07 -4.27, 90.35 -21.35, 108.41 -25.62" stroke="#d9480f" stroke-width="2" fill="none"></path></g></g><mask></mask><g stroke-linecap="round"><g transform="translate(477.6327464887729 152.5577048476109) rotate(0 54.69696969696963 -6.818181818181813)"><path d="M0 0 C18.23 -2.27, 91.16 -11.36, 109.39 -13.64 M0 0 C18.23 -2.27, 91.16 -11.36, 109.39 -13.64" stroke="#d9480f" stroke-width="2" fill="none"></path></g></g><mask></mask><g stroke-linecap="round"><g transform="translate(367.2500000000002 316.452197789054) rotate(0 0.5 -141)"><path d="M0 0 C0.17 -47, 0.83 -235, 1 -282 M0 0 C0.17 -47, 0.83 -235, 1 -282" stroke="#000000" stroke-width="2" fill="none"></path></g></g><mask></mask><g stroke-linecap="round"><g transform="translate(476.7083333333337 316.952197789054) rotate(0 0.5 -141)"><path d="M0 0 C0.17 -47, 0.83 -235, 1 -282 M0 0 C0.17 -47, 0.83 -235, 1 -282" stroke="#000000" stroke-width="2" fill="none"></path></g></g><mask></mask><g stroke-linecap="round"><g transform="translate(257.79166666666674 314.61886445572065) rotate(0 0.5 -141)"><path d="M0 0 C0.17 -47, 0.83 -235, 1 -282 M0 0 C0.17 -47, 0.83 -235, 1 -282" stroke="#000000" stroke-width="2" fill="none"></path></g></g><mask></mask><g stroke-linecap="round"><g transform="translate(113 314.2855311223873) rotate(0 270.5 2.5)"><path d="M0 0 C90.17 0.83, 450.83 4.17, 541 5 M0 0 C90.17 0.83, 450.83 4.17, 541 5" stroke="#000000" stroke-width="2" fill="none"></path></g><g transform="translate(113 314.2855311223873) rotate(0 270.5 2.5)"><path d="M512.72 15 C521.89 11.76, 531.06 8.51, 541 5 M512.72 15 C522.44 11.56, 532.16 8.13, 541 5" stroke="#000000" stroke-width="2" fill="none"></path></g><g transform="translate(113 314.2855311223873) rotate(0 270.5 2.5)"><path d="M512.91 -5.52 C522.02 -2.11, 531.13 1.3, 541 5 M512.91 -5.52 C522.56 -1.91, 532.22 1.71, 541 5" stroke="#000000" stroke-width="2" fill="none"></path></g></g><mask></mask><g transform="translate(144.54113494646788 332.68524517973526) rotate(0 17 13)"><text x="0" y="0" font-family="Virgil, Segoe UI Emoji" font-size="20px" fill="#000000" text-anchor="start" style="white-space: pre;" direction="ltr" dominant-baseline="text-before-edge">0%</text></g><g stroke-linecap="round"><g transform="translate(148.33333333333326 314.452197789054) rotate(0 0.5 -141)"><path d="M0 0 C0.17 -47, 0.83 -235, 1 -282 M0 0 C0.17 -47, 0.83 -235, 1 -282" stroke="#000000" stroke-width="2" fill="none"></path></g></g><mask></mask><g stroke-linecap="round"><g transform="translate(149.24161998150498 52.85714285714286) rotate(0 0 -21.42857142857143)"><path d="M0 0 C0 -7.14, 0 -35.71, 0 -42.86 M0 0 C0 -7.14, 0 -35.71, 0 -42.86" stroke="#000000" stroke-width="2" fill="none"></path></g><g transform="translate(149.24161998150498 52.85714285714286) rotate(0 0 -21.42857142857143)"><path d="M7.33 -22.72 C4.81 -29.64, 2.29 -36.56, 0 -42.86 M7.33 -22.72 C4.87 -29.47, 2.42 -36.21, 0 -42.86" stroke="#000000" stroke-width="2" fill="none"></path></g><g transform="translate(149.24161998150498 52.85714285714286) rotate(0 0 -21.42857142857143)"><path d="M-7.33 -22.72 C-4.81 -29.64, -2.29 -36.56, 0 -42.86 M-7.33 -22.72 C-4.87 -29.47, -2.42 -36.21, 0 -42.86" stroke="#000000" stroke-width="2" fill="none"></path></g></g><mask></mask></svg>