<svg version="1.1" xmlns="http://www.w3.org/2000/svg" viewBox="0 0 562.5639611302821 125.28097104297422" width="1125.1279222605642" height="250.56194208594843">
  <!-- svg-source:excalidraw -->
  
  <defs>
    <style class="style-fonts">
      
    </style>
    
  </defs>
  <g transform="translate(10 48.74763058887265) rotate(0 263.7083435058594 33.26667022705078)"><svg overflow="visible" version="1.1" viewBox="0 0 527.4166870117188 66.53334045410156" width="527.4166870117188" height="66.53334045410156"><g font-family="Helvetica, Segoe UI Emoji" font-size="20px" color="#1e1e1e"><svg overflow="visible" style="vertical-align: -2.697ex;" xmlns="http://www.w3.org/2000/svg" width="52.741ex" height="6.653ex" role="img" focusable="false" viewBox="-7.984 -7.984 632.905 79.84" xmlns:xlink="http://www.w3.org/1999/xlink" x="0" y="-1"><defs><path id="MJX-440-TEX-C-4C" d="M62 -22T47 -22T32 -11Q32 -1 56 24T83 55Q113 96 138 172T180 320T234 473T323 609Q364 649 419 677T531 705Q559 705 578 696T604 671T615 645T618 623V611Q618 582 615 571T598 548Q581 531 558 520T518 509Q503 509 503 520Q503 523 505 536T507 560Q507 590 494 610T452 630Q423 630 410 617Q367 578 333 492T271 301T233 170Q211 123 204 112L198 103L224 102Q281 102 369 79T509 52H523Q535 64 544 87T579 128Q616 152 641 152Q656 152 656 142Q656 101 588 40T433 -22Q381 -22 289 1T156 28L141 29L131 20Q111 0 87 -11Z"></path><path id="MJX-440-TEX-N-43" d="M56 342Q56 428 89 500T174 615T283 681T391 705Q394 705 400 705T408 704Q499 704 569 636L582 624L612 663Q639 700 643 704Q644 704 647 704T653 705H657Q660 705 666 699V419L660 413H626Q620 419 619 430Q610 512 571 572T476 651Q457 658 426 658Q322 658 252 588Q173 509 173 342Q173 221 211 151Q232 111 263 84T328 45T384 29T428 24Q517 24 571 93T626 244Q626 251 632 257H660L666 251V236Q661 133 590 56T403 -21Q262 -21 159 83T56 342Z"></path><path id="MJX-440-TEX-N-45" d="M128 619Q121 626 117 628T101 631T58 634H25V680H597V676Q599 670 611 560T625 444V440H585V444Q584 447 582 465Q578 500 570 526T553 571T528 601T498 619T457 629T411 633T353 634Q266 634 251 633T233 622Q233 622 233 621Q232 619 232 497V376H286Q359 378 377 385Q413 401 416 469Q416 471 416 473V493H456V213H416V233Q415 268 408 288T383 317T349 328T297 330Q290 330 286 330H232V196V114Q232 57 237 52Q243 47 289 47H340H391Q428 47 452 50T505 62T552 92T584 146Q594 172 599 200T607 247T612 270V273H652V270Q651 267 632 137T610 3V0H25V46H58Q100 47 109 49T128 61V619Z"></path><path id="MJX-440-TEX-N-3D" d="M56 347Q56 360 70 367H707Q722 359 722 347Q722 336 708 328L390 327H72Q56 332 56 347ZM56 153Q56 168 72 173H708Q722 163 722 153Q722 140 707 133H70Q56 140 56 153Z"></path><path id="MJX-440-TEX-I-1D43B" d="M228 637Q194 637 192 641Q191 643 191 649Q191 673 202 682Q204 683 219 683Q260 681 355 681Q389 681 418 681T463 682T483 682Q499 682 499 672Q499 670 497 658Q492 641 487 638H485Q483 638 480 638T473 638T464 637T455 637Q416 636 405 634T387 623Q384 619 355 500Q348 474 340 442T328 395L324 380Q324 378 469 378H614L615 381Q615 384 646 504Q674 619 674 627T617 637Q594 637 587 639T580 648Q580 650 582 660Q586 677 588 679T604 682Q609 682 646 681T740 680Q802 680 835 681T871 682Q888 682 888 672Q888 645 876 638H874Q872 638 869 638T862 638T853 637T844 637Q805 636 794 634T776 623Q773 618 704 340T634 58Q634 51 638 51Q646 48 692 46H723Q729 38 729 37T726 19Q722 6 716 0H701Q664 2 567 2Q533 2 504 2T458 2T437 1Q420 1 420 10Q420 15 423 24Q428 43 433 45Q437 46 448 46H454Q481 46 514 49Q520 50 522 50T528 55T534 64T540 82T547 110T558 153Q565 181 569 198Q602 330 602 331T457 332H312L279 197Q245 63 245 58Q245 51 253 49T303 46H334Q340 38 340 37T337 19Q333 6 327 0H312Q275 2 178 2Q144 2 115 2T69 2T48 1Q31 1 31 10Q31 12 34 24Q39 43 44 45Q48 46 59 46H65Q92 46 125 49Q139 52 144 61Q147 65 216 339T285 628Q285 635 228 637Z"></path><path id="MJX-440-TEX-N-28" d="M94 250Q94 319 104 381T127 488T164 576T202 643T244 695T277 729T302 750H315H319Q333 750 333 741Q333 738 316 720T275 667T226 581T184 443T167 250T184 58T225 -81T274 -167T316 -220T333 -241Q333 -250 318 -250H315H302L274 -226Q180 -141 137 -14T94 250Z"></path><path id="MJX-440-TEX-I-1D45D" d="M23 287Q24 290 25 295T30 317T40 348T55 381T75 411T101 433T134 442Q209 442 230 378L240 387Q302 442 358 442Q423 442 460 395T497 281Q497 173 421 82T249 -10Q227 -10 210 -4Q199 1 187 11T168 28L161 36Q160 35 139 -51T118 -138Q118 -144 126 -145T163 -148H188Q194 -155 194 -157T191 -175Q188 -187 185 -190T172 -194Q170 -194 161 -194T127 -193T65 -192Q-5 -192 -24 -194H-32Q-39 -187 -39 -183Q-37 -156 -26 -148H-6Q28 -147 33 -136Q36 -130 94 103T155 350Q156 355 156 364Q156 405 131 405Q109 405 94 377T71 316T59 280Q57 278 43 278H29Q23 284 23 287ZM178 102Q200 26 252 26Q282 26 310 49T356 107Q374 141 392 215T411 325V331Q411 405 350 405Q339 405 328 402T306 393T286 380T269 365T254 350T243 336T235 326L232 322Q232 321 229 308T218 264T204 212Q178 106 178 102Z"></path><path id="MJX-440-TEX-N-2C" d="M78 35T78 60T94 103T137 121Q165 121 187 96T210 8Q210 -27 201 -60T180 -117T154 -158T130 -185T117 -194Q113 -194 104 -185T95 -172Q95 -168 106 -156T131 -126T157 -76T173 -3V9L172 8Q170 7 167 6T161 3T152 1T140 0Q113 0 96 17Z"></path><path id="MJX-440-TEX-I-1D45E" d="M33 157Q33 258 109 349T280 441Q340 441 372 389Q373 390 377 395T388 406T404 418Q438 442 450 442Q454 442 457 439T460 434Q460 425 391 149Q320 -135 320 -139Q320 -147 365 -148H390Q396 -156 396 -157T393 -175Q389 -188 383 -194H370Q339 -192 262 -192Q234 -192 211 -192T174 -192T157 -193Q143 -193 143 -185Q143 -182 145 -170Q149 -154 152 -151T172 -148Q220 -148 230 -141Q238 -136 258 -53T279 32Q279 33 272 29Q224 -10 172 -10Q117 -10 75 30T33 157ZM352 326Q329 405 277 405Q242 405 210 374T160 293Q131 214 119 129Q119 126 119 118T118 106Q118 61 136 44T179 26Q233 26 290 98L298 109L352 326Z"></path><path id="MJX-440-TEX-N-29" d="M60 749L64 750Q69 750 74 750H86L114 726Q208 641 251 514T294 250Q294 182 284 119T261 12T224 -76T186 -143T145 -194T113 -227T90 -246Q87 -249 86 -250H74Q66 -250 63 -250T58 -247T55 -238Q56 -237 66 -225Q221 -64 221 250T66 725Q56 737 55 738Q55 746 60 749Z"></path><path id="MJX-440-TEX-I-1D437" d="M287 628Q287 635 230 637Q207 637 200 638T193 647Q193 655 197 667T204 682Q206 683 403 683Q570 682 590 682T630 676Q702 659 752 597T803 431Q803 275 696 151T444 3L430 1L236 0H125H72Q48 0 41 2T33 11Q33 13 36 25Q40 41 44 43T67 46Q94 46 127 49Q141 52 146 61Q149 65 218 339T287 628ZM703 469Q703 507 692 537T666 584T629 613T590 629T555 636Q553 636 541 636T512 636T479 637H436Q392 637 386 627Q384 623 313 339T242 52Q242 48 253 48T330 47Q335 47 349 47T373 46Q499 46 581 128Q617 164 640 212T683 339T703 469Z"></path><path id="MJX-440-TEX-N-4B" d="M128 622Q121 629 117 631T101 634T58 637H25V683H36Q57 680 180 680Q315 680 324 683H335V637H313Q235 637 233 620Q232 618 232 462L233 307L379 449Q425 494 479 546Q518 584 524 591T531 607V608Q531 630 503 636Q501 636 498 636T493 637H489V683H499Q517 680 630 680Q704 680 716 683H722V637H708Q633 633 589 597Q584 592 495 506T406 419T515 254T631 80Q644 60 662 54T715 46H736V0H728Q719 3 615 3Q493 3 472 0H461V46H469Q515 46 515 72Q515 78 512 84L336 351Q332 348 278 296L232 251V156Q232 62 235 58Q243 47 302 46H335V0H324Q303 3 180 3Q45 3 36 0H25V46H58Q100 47 109 49T128 61V622Z"></path><path id="MJX-440-TEX-N-4C" d="M128 622Q121 629 117 631T101 634T58 637H25V683H36Q48 680 182 680Q324 680 348 683H360V637H333Q273 637 258 635T233 622L232 342V129Q232 57 237 52Q243 47 313 47Q384 47 410 53Q470 70 498 110T536 221Q536 226 537 238T540 261T542 272T562 273H582V268Q580 265 568 137T554 5V0H25V46H58Q100 47 109 49T128 61V622Z"></path><path id="MJX-440-TEX-N-2225" d="M133 736Q138 750 153 750Q164 750 170 739Q172 735 172 250T170 -239Q164 -250 152 -250Q144 -250 138 -244L137 -243Q133 -241 133 -179T132 250Q132 731 133 736ZM329 739Q334 750 346 750Q353 750 361 744L362 743Q366 741 366 679T367 250T367 -178T362 -243L361 -244Q355 -250 347 -250Q335 -250 329 -239Q327 -235 327 250T329 739Z"></path><path id="MJX-440-TEX-N-2B" d="M56 237T56 250T70 270H369V420L370 570Q380 583 389 583Q402 583 409 568V270H707Q722 262 722 250T707 230H409V-68Q401 -82 391 -82H389H387Q375 -82 369 -68V230H70Q56 237 56 250Z"></path><path id="MJX-440-TEX-N-2212" d="M84 237T84 250T98 270H679Q694 262 694 250T679 230H98Q84 237 84 250Z"></path><path id="MJX-440-TEX-LO-2211" d="M60 948Q63 950 665 950H1267L1325 815Q1384 677 1388 669H1348L1341 683Q1320 724 1285 761Q1235 809 1174 838T1033 881T882 898T699 902H574H543H251L259 891Q722 258 724 252Q725 250 724 246Q721 243 460 -56L196 -356Q196 -357 407 -357Q459 -357 548 -357T676 -358Q812 -358 896 -353T1063 -332T1204 -283T1307 -196Q1328 -170 1348 -124H1388Q1388 -125 1381 -145T1356 -210T1325 -294L1267 -449L666 -450Q64 -450 61 -448Q55 -446 55 -439Q55 -437 57 -433L590 177Q590 178 557 222T452 366T322 544L56 909L55 924Q55 945 60 948Z"></path><path id="MJX-440-TEX-I-1D456" d="M184 600Q184 624 203 642T247 661Q265 661 277 649T290 619Q290 596 270 577T226 557Q211 557 198 567T184 600ZM21 287Q21 295 30 318T54 369T98 420T158 442Q197 442 223 419T250 357Q250 340 236 301T196 196T154 83Q149 61 149 51Q149 26 166 26Q175 26 185 29T208 43T235 78T260 137Q263 149 265 151T282 153Q302 153 302 143Q302 135 293 112T268 61T223 11T161 -11Q129 -11 102 10T74 74Q74 91 79 106T122 220Q160 321 166 341T173 380Q173 404 156 404H154Q124 404 99 371T61 287Q60 286 59 284T58 281T56 279T53 278T49 278T41 278H27Q21 284 21 287Z"></path><path id="MJX-440-TEX-I-1D436" d="M50 252Q50 367 117 473T286 641T490 704Q580 704 633 653Q642 643 648 636T656 626L657 623Q660 623 684 649Q691 655 699 663T715 679T725 690L740 705H746Q760 705 760 698Q760 694 728 561Q692 422 692 421Q690 416 687 415T669 413H653Q647 419 647 422Q647 423 648 429T650 449T651 481Q651 552 619 605T510 659Q484 659 454 652T382 628T299 572T226 479Q194 422 175 346T156 222Q156 108 232 58Q280 24 350 24Q441 24 512 92T606 240Q610 253 612 255T628 257Q648 257 648 248Q648 243 647 239Q618 132 523 55T319 -22Q206 -22 128 53T50 252Z"></path><path id="MJX-440-TEX-N-6C" d="M42 46H56Q95 46 103 60V68Q103 77 103 91T103 124T104 167T104 217T104 272T104 329Q104 366 104 407T104 482T104 542T103 586T103 603Q100 622 89 628T44 637H26V660Q26 683 28 683L38 684Q48 685 67 686T104 688Q121 689 141 690T171 693T182 694H185V379Q185 62 186 60Q190 52 198 49Q219 46 247 46H263V0H255L232 1Q209 2 183 2T145 3T107 3T57 1L34 0H26V46H42Z"></path><path id="MJX-440-TEX-N-6F" d="M28 214Q28 309 93 378T250 448Q340 448 405 380T471 215Q471 120 407 55T250 -10Q153 -10 91 57T28 214ZM250 30Q372 30 372 193V225V250Q372 272 371 288T364 326T348 362T317 390T268 410Q263 411 252 411Q222 411 195 399Q152 377 139 338T126 246V226Q126 130 145 91Q177 30 250 30Z"></path><path id="MJX-440-TEX-N-67" d="M329 409Q373 453 429 453Q459 453 472 434T485 396Q485 382 476 371T449 360Q416 360 412 390Q410 404 415 411Q415 412 416 414V415Q388 412 363 393Q355 388 355 386Q355 385 359 381T368 369T379 351T388 325T392 292Q392 230 343 187T222 143Q172 143 123 171Q112 153 112 133Q112 98 138 81Q147 75 155 75T227 73Q311 72 335 67Q396 58 431 26Q470 -13 470 -72Q470 -139 392 -175Q332 -206 250 -206Q167 -206 107 -175Q29 -140 29 -75Q29 -39 50 -15T92 18L103 24Q67 55 67 108Q67 155 96 193Q52 237 52 292Q52 355 102 398T223 442Q274 442 318 416L329 409ZM299 343Q294 371 273 387T221 404Q192 404 171 388T145 343Q142 326 142 292Q142 248 149 227T179 192Q196 182 222 182Q244 182 260 189T283 207T294 227T299 242Q302 258 302 292T299 343ZM403 -75Q403 -50 389 -34T348 -11T299 -2T245 0H218Q151 0 138 -6Q118 -15 107 -34T95 -74Q95 -84 101 -97T122 -127T170 -155T250 -167Q319 -167 361 -139T403 -75Z"></path><path id="MJX-440-TEX-N-2061" d=""></path></defs><g stroke="currentColor" fill="currentColor" stroke-width="0" transform="translate(-7.984 39.488) scale(0.0271500016562742) scale(1,-1)"><g data-mml-node="math"><g data-mml-node="msub"><g data-mml-node="TeXAtom" data-mjx-texclass="ORD"><g data-mml-node="mi"><use data-c="4C" xlink:href="#MJX-440-TEX-C-4C"></use></g></g><g data-mml-node="TeXAtom" transform="translate(723,-150) scale(0.707)" data-mjx-texclass="ORD"><g data-mml-node="mtext"><use data-c="43" xlink:href="#MJX-440-TEX-N-43"></use><use data-c="45" xlink:href="#MJX-440-TEX-N-45" transform="translate(722,0)"></use></g></g></g><g data-mml-node="mo" transform="translate(2042.8,0)"><use data-c="3D" xlink:href="#MJX-440-TEX-N-3D"></use></g><g data-mml-node="mi" transform="translate(3098.6,0)"><use data-c="1D43B" xlink:href="#MJX-440-TEX-I-1D43B"></use></g><g data-mml-node="mo" transform="translate(3986.6,0)"><use data-c="28" xlink:href="#MJX-440-TEX-N-28"></use></g><g data-mml-node="mi" transform="translate(4375.6,0)"><use data-c="1D45D" xlink:href="#MJX-440-TEX-I-1D45D"></use></g><g data-mml-node="mo" transform="translate(4878.6,0)"><use data-c="2C" xlink:href="#MJX-440-TEX-N-2C"></use></g><g data-mml-node="mi" transform="translate(5323.3,0)"><use data-c="1D45E" xlink:href="#MJX-440-TEX-I-1D45E"></use></g><g data-mml-node="mo" transform="translate(5783.3,0)"><use data-c="29" xlink:href="#MJX-440-TEX-N-29"></use></g><g data-mml-node="mo" transform="translate(6450.1,0)"><use data-c="3D" xlink:href="#MJX-440-TEX-N-3D"></use></g><g data-mml-node="msub" transform="translate(7505.8,0)"><g data-mml-node="mi"><use data-c="1D437" xlink:href="#MJX-440-TEX-I-1D437"></use></g><g data-mml-node="TeXAtom" transform="translate(861,-150) scale(0.707)" data-mjx-texclass="ORD"><g data-mml-node="mtext"><use data-c="4B" xlink:href="#MJX-440-TEX-N-4B"></use><use data-c="4C" xlink:href="#MJX-440-TEX-N-4C" transform="translate(778,0)"></use></g></g></g><g data-mml-node="mo" transform="translate(9408.9,0)"><use data-c="28" xlink:href="#MJX-440-TEX-N-28"></use></g><g data-mml-node="mi" transform="translate(9797.9,0)"><use data-c="1D45D" xlink:href="#MJX-440-TEX-I-1D45D"></use></g><g data-mml-node="mo" transform="translate(10578.7,0)"><use data-c="2225" xlink:href="#MJX-440-TEX-N-2225"></use></g><g data-mml-node="mi" transform="translate(11356.5,0)"><use data-c="1D45E" xlink:href="#MJX-440-TEX-I-1D45E"></use></g><g data-mml-node="mo" transform="translate(11816.5,0)"><use data-c="29" xlink:href="#MJX-440-TEX-N-29"></use></g><g data-mml-node="mo" transform="translate(12427.7,0)"><use data-c="2B" xlink:href="#MJX-440-TEX-N-2B"></use></g><g data-mml-node="mi" transform="translate(13427.9,0)"><use data-c="1D43B" xlink:href="#MJX-440-TEX-I-1D43B"></use></g><g data-mml-node="mo" transform="translate(14315.9,0)"><use data-c="28" xlink:href="#MJX-440-TEX-N-28"></use></g><g data-mml-node="mi" transform="translate(14704.9,0)"><use data-c="1D45D" xlink:href="#MJX-440-TEX-I-1D45D"></use></g><g data-mml-node="mo" transform="translate(15207.9,0)"><use data-c="29" xlink:href="#MJX-440-TEX-N-29"></use></g><g data-mml-node="mo" transform="translate(15874.7,0)"><use data-c="3D" xlink:href="#MJX-440-TEX-N-3D"></use></g><g data-mml-node="mo" transform="translate(16930.5,0)"><use data-c="2212" xlink:href="#MJX-440-TEX-N-2212"></use></g><g data-mml-node="munderover" transform="translate(17875.1,0)"><g data-mml-node="mo"><use data-c="2211" xlink:href="#MJX-440-TEX-LO-2211"></use></g><g data-mml-node="TeXAtom" transform="translate(600,-1084.4) scale(0.707)" data-mjx-texclass="ORD"><g data-mml-node="mi"><use data-c="1D456" xlink:href="#MJX-440-TEX-I-1D456"></use></g></g><g data-mml-node="mi" transform="translate(453.3,1150) scale(0.707)"><use data-c="1D436" xlink:href="#MJX-440-TEX-I-1D436"></use></g></g><g data-mml-node="msub" transform="translate(19485.8,0)"><g data-mml-node="mi"><use data-c="1D45D" xlink:href="#MJX-440-TEX-I-1D45D"></use></g><g data-mml-node="mi" transform="translate(536,-150) scale(0.707)"><use data-c="1D456" xlink:href="#MJX-440-TEX-I-1D456"></use></g></g><g data-mml-node="mi" transform="translate(20482.4,0)"><use data-c="6C" xlink:href="#MJX-440-TEX-N-6C"></use><use data-c="6F" xlink:href="#MJX-440-TEX-N-6F" transform="translate(278,0)"></use><use data-c="67" xlink:href="#MJX-440-TEX-N-67" transform="translate(778,0)"></use></g><g data-mml-node="mo" transform="translate(21760.4,0)"><use data-c="2061" xlink:href="#MJX-440-TEX-N-2061"></use></g><g data-mml-node="mo" transform="translate(21760.4,0)"><use data-c="28" xlink:href="#MJX-440-TEX-N-28"></use></g><g data-mml-node="msub" transform="translate(22149.4,0)"><g data-mml-node="mi"><use data-c="1D45E" xlink:href="#MJX-440-TEX-I-1D45E"></use></g><g data-mml-node="mi" transform="translate(479,-150) scale(0.707)"><use data-c="1D456" xlink:href="#MJX-440-TEX-I-1D456"></use></g></g><g data-mml-node="mo" transform="translate(22922.4,0)"><use data-c="29" xlink:href="#MJX-440-TEX-N-29"></use></g></g></g></svg></g></svg></g><g stroke-linecap="round"><g transform="translate(311.23467192427745 67.70976195211574) rotate(0 29.024359353231716 16.032500194241834)"><path d="M0 0 C20.64 11.4, 41.28 22.8, 58.05 32.07 M0 0 C13.26 7.32, 26.52 14.65, 58.05 32.07" stroke="#2f9e44" stroke-width="4" fill="none"></path></g></g><mask></mask><g transform="translate(323.9094187274944 10) rotate(0 114.32727120139384 9.200000000000045)"><svg overflow="visible" version="1.1" viewBox="0 0 228.65454240278768 18.4" width="228.65454240278768" height="18.4"><g font-family="Helvetica, Segoe UI Emoji" font-size="16px" color="#2f9e44"><svg overflow="visible" style="vertical-align: -0.566ex;" xmlns="http://www.w3.org/2000/svg" width="9.056ex" height="2.262ex" role="img" focusable="false" viewBox="-2.208 -2.208 88.377 22.08" xmlns:xlink="http://www.w3.org/1999/xlink" x="0" y="3.03338623046875"><defs><path id="MJX-249-TEX-I-1D43B" d="M228 637Q194 637 192 641Q191 643 191 649Q191 673 202 682Q204 683 219 683Q260 681 355 681Q389 681 418 681T463 682T483 682Q499 682 499 672Q499 670 497 658Q492 641 487 638H485Q483 638 480 638T473 638T464 637T455 637Q416 636 405 634T387 623Q384 619 355 500Q348 474 340 442T328 395L324 380Q324 378 469 378H614L615 381Q615 384 646 504Q674 619 674 627T617 637Q594 637 587 639T580 648Q580 650 582 660Q586 677 588 679T604 682Q609 682 646 681T740 680Q802 680 835 681T871 682Q888 682 888 672Q888 645 876 638H874Q872 638 869 638T862 638T853 637T844 637Q805 636 794 634T776 623Q773 618 704 340T634 58Q634 51 638 51Q646 48 692 46H723Q729 38 729 37T726 19Q722 6 716 0H701Q664 2 567 2Q533 2 504 2T458 2T437 1Q420 1 420 10Q420 15 423 24Q428 43 433 45Q437 46 448 46H454Q481 46 514 49Q520 50 522 50T528 55T534 64T540 82T547 110T558 153Q565 181 569 198Q602 330 602 331T457 332H312L279 197Q245 63 245 58Q245 51 253 49T303 46H334Q340 38 340 37T337 19Q333 6 327 0H312Q275 2 178 2Q144 2 115 2T69 2T48 1Q31 1 31 10Q31 12 34 24Q39 43 44 45Q48 46 59 46H65Q92 46 125 49Q139 52 144 61Q147 65 216 339T285 628Q285 635 228 637Z"></path><path id="MJX-249-TEX-N-28" d="M94 250Q94 319 104 381T127 488T164 576T202 643T244 695T277 729T302 750H315H319Q333 750 333 741Q333 738 316 720T275 667T226 581T184 443T167 250T184 58T225 -81T274 -167T316 -220T333 -241Q333 -250 318 -250H315H302L274 -226Q180 -141 137 -14T94 250Z"></path><path id="MJX-249-TEX-I-1D45D" d="M23 287Q24 290 25 295T30 317T40 348T55 381T75 411T101 433T134 442Q209 442 230 378L240 387Q302 442 358 442Q423 442 460 395T497 281Q497 173 421 82T249 -10Q227 -10 210 -4Q199 1 187 11T168 28L161 36Q160 35 139 -51T118 -138Q118 -144 126 -145T163 -148H188Q194 -155 194 -157T191 -175Q188 -187 185 -190T172 -194Q170 -194 161 -194T127 -193T65 -192Q-5 -192 -24 -194H-32Q-39 -187 -39 -183Q-37 -156 -26 -148H-6Q28 -147 33 -136Q36 -130 94 103T155 350Q156 355 156 364Q156 405 131 405Q109 405 94 377T71 316T59 280Q57 278 43 278H29Q23 284 23 287ZM178 102Q200 26 252 26Q282 26 310 49T356 107Q374 141 392 215T411 325V331Q411 405 350 405Q339 405 328 402T306 393T286 380T269 365T254 350T243 336T235 326L232 322Q232 321 229 308T218 264T204 212Q178 106 178 102Z"></path><path id="MJX-249-TEX-N-29" d="M60 749L64 750Q69 750 74 750H86L114 726Q208 641 251 514T294 250Q294 182 284 119T261 12T224 -76T186 -143T145 -194T113 -227T90 -246Q87 -249 86 -250H74Q66 -250 63 -250T58 -247T55 -238Q56 -237 66 -225Q221 -64 221 250T66 725Q56 737 55 738Q55 746 60 749Z"></path><path id="MJX-249-TEX-N-3D" d="M56 347Q56 360 70 367H707Q722 359 722 347Q722 336 708 328L390 327H72Q56 332 56 347ZM56 153Q56 168 72 173H708Q722 163 722 153Q722 140 707 133H70Q56 140 56 153Z"></path><path id="MJX-249-TEX-N-30" d="M96 585Q152 666 249 666Q297 666 345 640T423 548Q460 465 460 320Q460 165 417 83Q397 41 362 16T301 -15T250 -22Q224 -22 198 -16T137 16T82 83Q39 165 39 320Q39 494 96 585ZM321 597Q291 629 250 629Q208 629 178 597Q153 571 145 525T137 333Q137 175 145 125T181 46Q209 16 250 16Q290 16 318 46Q347 76 354 130T362 333Q362 478 354 524T321 597Z"></path></defs><g stroke="currentColor" fill="currentColor" stroke-width="0" transform="translate(-2.208 14.351999999999999) scale(0.02208) scale(1,-1)"><g data-mml-node="math"><g data-mml-node="mi"><use data-c="1D43B" xlink:href="#MJX-249-TEX-I-1D43B"></use></g><g data-mml-node="mo" transform="translate(888,0)"><use data-c="28" xlink:href="#MJX-249-TEX-N-28"></use></g><g data-mml-node="mi" transform="translate(1277,0)"><use data-c="1D45D" xlink:href="#MJX-249-TEX-I-1D45D"></use></g><g data-mml-node="mo" transform="translate(1780,0)"><use data-c="29" xlink:href="#MJX-249-TEX-N-29"></use></g><g data-mml-node="mo" transform="translate(2446.8,0)"><use data-c="3D" xlink:href="#MJX-249-TEX-N-3D"></use></g><g data-mml-node="mn" transform="translate(3502.6,0)"><use data-c="30" xlink:href="#MJX-249-TEX-N-30"></use></g></g></g></svg><text style="white-space: pre;" fill="#2f9e44" direction="ltr" text-anchor="start" x="72.44999694824219" y="17"> for ground truth label</text></g></svg></g><g stroke-linecap="round"><g transform="translate(337.2729292117018 32.27924001559359) rotate(0 -6.653652702447459 18.01049252279472)"><path d="M0 0 C-2.22 6, -11.09 30.02, -13.31 36.02 M0 0 C-2.22 6, -11.09 30.02, -13.31 36.02" stroke="#2f9e44" stroke-width="2" fill="none"></path></g><g transform="translate(337.2729292117018 32.27924001559359) rotate(0 -6.653652702447459 18.01049252279472)"><path d="M-13.31 36.02 L-14.54 21.07 L-2.65 25.47 L-13.31 36.02" stroke="none" stroke-width="0" fill="#2f9e44" fill-rule="evenodd"></path><path d="M-13.31 36.02 C-13.61 32.35, -13.91 28.67, -14.54 21.07 M-13.31 36.02 C-13.78 30.32, -14.25 24.61, -14.54 21.07 M-14.54 21.07 C-10.17 22.69, -5.8 24.3, -2.65 25.47 M-14.54 21.07 C-9.95 22.77, -5.36 24.47, -2.65 25.47 M-2.65 25.47 C-6.46 29.24, -10.27 33.01, -13.31 36.02 M-2.65 25.47 C-4.84 27.64, -7.03 29.81, -13.31 36.02 M-13.31 36.02 C-13.31 36.02, -13.31 36.02, -13.31 36.02 M-13.31 36.02 C-13.31 36.02, -13.31 36.02, -13.31 36.02" stroke="#2f9e44" stroke-width="2" fill="none"></path></g></g><mask></mask></svg>