<svg version="1.1" xmlns="http://www.w3.org/2000/svg" viewBox="0 0 748.7902403909205 255.51264806288611" width="1497.580480781841" height="511.02529612577223">
  <!-- svg-source:excalidraw -->
  
  <defs>
    <style class="style-fonts">
      
    </style>
    
  </defs>
  <g stroke-linecap="round"><g transform="translate(56.095022310612876 220.23366317743807) rotate(0 102.18585090162964 0)"><path d="M0 0 C34.06 0, 170.31 0, 204.37 0 M0 0 C34.06 0, 170.31 0, 204.37 0" stroke="#1e1e1e" stroke-width="2" fill="none"></path></g></g><mask></mask><g stroke-linecap="round" transform="translate(196.4229034543041 69.42011078005271) rotate(0 20.16668701171875 75.4067761986928)"><path d="M0 0 L40.33 0 L40.33 150.81 L0 150.81" stroke="none" stroke-width="0" fill="#b2f2bb"></path><path d="M0 0 C11.49 0, 22.99 0, 40.33 0 M0 0 C13.86 0, 27.72 0, 40.33 0 M40.33 0 C40.33 34.78, 40.33 69.56, 40.33 150.81 M40.33 0 C40.33 47.95, 40.33 95.89, 40.33 150.81 M40.33 150.81 C30.77 150.81, 21.21 150.81, 0 150.81 M40.33 150.81 C27.12 150.81, 13.9 150.81, 0 150.81 M0 150.81 C0 118.43, 0 86.04, 0 0 M0 150.81 C0 115.88, 0 80.95, 0 0" stroke="#1e1e1e" stroke-width="2" fill="none"></path></g><g stroke-linecap="round"><g transform="translate(55.481259725205746 230.8682581552937) rotate(0 0 -97.60601944460689)"><path d="M0 0 C0 -32.54, 0 -162.68, 0 -195.21 M0 0 C0 -32.54, 0 -162.68, 0 -195.21" stroke="#1e1e1e" stroke-width="2" fill="none"></path></g><g transform="translate(55.481259725205746 230.8682581552937) rotate(0 0 -97.60601944460689)"><path d="M0 -195.21 L6.34 -181.62 L-6.34 -181.62 L0 -195.21" stroke="none" stroke-width="0" fill="#1e1e1e" fill-rule="evenodd"></path><path d="M0 -195.21 C2.31 -190.26, 4.62 -185.3, 6.34 -181.62 M0 -195.21 C1.37 -192.28, 2.73 -189.36, 6.34 -181.62 M6.34 -181.62 C2.94 -181.62, -0.45 -181.62, -6.34 -181.62 M6.34 -181.62 C1.89 -181.62, -2.56 -181.62, -6.34 -181.62 M-6.34 -181.62 C-3.82 -187.01, -1.31 -192.41, 0 -195.21 M-6.34 -181.62 C-4.17 -186.28, -1.99 -190.94, 0 -195.21 M0 -195.21 C0 -195.21, 0 -195.21, 0 -195.21 M0 -195.21 C0 -195.21, 0 -195.21, 0 -195.21" stroke="#1e1e1e" stroke-width="2" fill="none"></path></g></g><mask></mask><g stroke-linecap="round"><g transform="translate(51.217843094083946 69.03815362875935) rotate(0 5.343749058912408 0)"><path d="M0 0 C2.75 0, 5.49 0, 10.69 0 M0 0 C3.47 0, 6.95 0, 10.69 0" stroke="#1e1e1e" stroke-width="2" fill="none"></path></g></g><mask></mask><g transform="translate(10 55.08449713372079) rotate(0 14.458335876464844 11.5)"><svg overflow="visible" version="1.1" viewBox="0 0 28.916671752929688 23" width="28.916671752929688" height="23"><g font-family="Helvetica, Segoe UI Emoji" font-size="20px" color="#1e1e1e"><svg overflow="visible" style="vertical-align: -0.05ex;" xmlns="http://www.w3.org/2000/svg" width="2.891ex" height="1.557ex" role="img" focusable="false" viewBox="-2.76 -2.76 51.269 27.6" xmlns:xlink="http://www.w3.org/1999/xlink" x="0" y="5.933349609375"><defs><path id="MJX-159-TEX-N-31" d="M213 578L200 573Q186 568 160 563T102 556H83V602H102Q149 604 189 617T245 641T273 663Q275 666 285 666Q294 666 302 660V361L303 61Q310 54 315 52T339 48T401 46H427V0H416Q395 3 257 3Q121 3 100 0H88V46H114Q136 46 152 46T177 47T193 50T201 52T207 57T213 61V578Z"></path><path id="MJX-159-TEX-N-2E" d="M78 60Q78 84 95 102T138 120Q162 120 180 104T199 61Q199 36 182 18T139 0T96 17T78 60Z"></path><path id="MJX-159-TEX-N-30" d="M96 585Q152 666 249 666Q297 666 345 640T423 548Q460 465 460 320Q460 165 417 83Q397 41 362 16T301 -15T250 -22Q224 -22 198 -16T137 16T82 83Q39 165 39 320Q39 494 96 585ZM321 597Q291 629 250 629Q208 629 178 597Q153 571 145 525T137 333Q137 175 145 125T181 46Q209 16 250 16Q290 16 318 46Q347 76 354 130T362 333Q362 478 354 524T321 597Z"></path></defs><g stroke="currentColor" fill="currentColor" stroke-width="0" transform="translate(-2.76 23.957) scale(0.04011627906976744) scale(1,-1)"><g data-mml-node="math"><g data-mml-node="mn"><use data-c="31" xlink:href="#MJX-159-TEX-N-31"></use><use data-c="2E" xlink:href="#MJX-159-TEX-N-2E" transform="translate(500,0)"></use><use data-c="30" xlink:href="#MJX-159-TEX-N-30" transform="translate(778,0)"></use></g></g></g></svg></g></svg></g><g transform="translate(95.63527365097525 221.95980005528122) rotate(0 9.833335876464844 11.5)"><svg overflow="visible" version="1.1" viewBox="0 0 19.666671752929688 23" width="19.666671752929688" height="23"><g font-family="Helvetica, Segoe UI Emoji" font-size="20px" color="#1e1e1e"><svg overflow="visible" style="vertical-align: -0.339ex;" xmlns="http://www.w3.org/2000/svg" width="1.967ex" height="1.339ex" role="img" focusable="false" viewBox="-2.76 -2.76 40.542 27.6" xmlns:xlink="http://www.w3.org/1999/xlink" x="0" y="11"><defs><path id="MJX-172-TEX-I-1D450" d="M34 159Q34 268 120 355T306 442Q362 442 394 418T427 355Q427 326 408 306T360 285Q341 285 330 295T319 325T330 359T352 380T366 386H367Q367 388 361 392T340 400T306 404Q276 404 249 390Q228 381 206 359Q162 315 142 235T121 119Q121 73 147 50Q169 26 205 26H209Q321 26 394 111Q403 121 406 121Q410 121 419 112T429 98T420 83T391 55T346 25T282 0T202 -11Q127 -11 81 37T34 159Z"></path><path id="MJX-172-TEX-N-31" d="M213 578L200 573Q186 568 160 563T102 556H83V602H102Q149 604 189 617T245 641T273 663Q275 666 285 666Q294 666 302 660V361L303 61Q310 54 315 52T339 48T401 46H427V0H416Q395 3 257 3Q121 3 100 0H88V46H114Q136 46 152 46T177 47T193 50T201 52T207 57T213 61V578Z"></path></defs><g stroke="currentColor" fill="currentColor" stroke-width="0" transform="translate(-2.76 17.847) scale(0.04662162162162162) scale(1,-1)"><g data-mml-node="math"><g data-mml-node="msub"><g data-mml-node="mi"><use data-c="1D450" xlink:href="#MJX-172-TEX-I-1D450"></use></g><g data-mml-node="mn" transform="translate(466,-150) scale(0.707)"><use data-c="31" xlink:href="#MJX-172-TEX-N-31"></use></g></g></g></g></svg></g></svg></g><g transform="translate(151.74024739222114 221.95980005528122) rotate(0 9.833335876464844 11.5)"><svg overflow="visible" version="1.1" viewBox="0 0 19.666671752929688 23" width="19.666671752929688" height="23"><g font-family="Helvetica, Segoe UI Emoji" font-size="20px" color="#1e1e1e"><svg overflow="visible" style="vertical-align: -0.339ex;" xmlns="http://www.w3.org/2000/svg" width="1.967ex" height="1.339ex" role="img" focusable="false" viewBox="-2.76 -2.76 40.542 27.6" xmlns:xlink="http://www.w3.org/1999/xlink" x="0" y="11"><defs><path id="MJX-173-TEX-I-1D450" d="M34 159Q34 268 120 355T306 442Q362 442 394 418T427 355Q427 326 408 306T360 285Q341 285 330 295T319 325T330 359T352 380T366 386H367Q367 388 361 392T340 400T306 404Q276 404 249 390Q228 381 206 359Q162 315 142 235T121 119Q121 73 147 50Q169 26 205 26H209Q321 26 394 111Q403 121 406 121Q410 121 419 112T429 98T420 83T391 55T346 25T282 0T202 -11Q127 -11 81 37T34 159Z"></path><path id="MJX-173-TEX-N-32" d="M109 429Q82 429 66 447T50 491Q50 562 103 614T235 666Q326 666 387 610T449 465Q449 422 429 383T381 315T301 241Q265 210 201 149L142 93L218 92Q375 92 385 97Q392 99 409 186V189H449V186Q448 183 436 95T421 3V0H50V19V31Q50 38 56 46T86 81Q115 113 136 137Q145 147 170 174T204 211T233 244T261 278T284 308T305 340T320 369T333 401T340 431T343 464Q343 527 309 573T212 619Q179 619 154 602T119 569T109 550Q109 549 114 549Q132 549 151 535T170 489Q170 464 154 447T109 429Z"></path></defs><g stroke="currentColor" fill="currentColor" stroke-width="0" transform="translate(-2.76 17.847) scale(0.04662162162162162) scale(1,-1)"><g data-mml-node="math"><g data-mml-node="msub"><g data-mml-node="mi"><use data-c="1D450" xlink:href="#MJX-173-TEX-I-1D450"></use></g><g data-mml-node="mn" transform="translate(466,-150) scale(0.707)"><use data-c="32" xlink:href="#MJX-173-TEX-N-32"></use></g></g></g></g></svg></g></svg></g><g transform="translate(187.64937993690012 222.51264806288611) rotate(0 30.46666717529297 11.5)"><svg overflow="visible" version="1.1" viewBox="0 0 60.93333435058594 23" width="60.93333435058594" height="23"><g font-family="Helvetica, Segoe UI Emoji" font-size="20px" color="#2f9e44"><svg overflow="visible" style="vertical-align: -0.464ex;" xmlns="http://www.w3.org/2000/svg" width="6.093ex" height="1.783ex" role="img" focusable="false" viewBox="-2.76 -2.76 94.327 27.6" xmlns:xlink="http://www.w3.org/1999/xlink" x="0" y="7.800048828125"><defs><path id="MJX-235-TEX-I-1D466" d="M21 287Q21 301 36 335T84 406T158 442Q199 442 224 419T250 355Q248 336 247 334Q247 331 231 288T198 191T182 105Q182 62 196 45T238 27Q261 27 281 38T312 61T339 94Q339 95 344 114T358 173T377 247Q415 397 419 404Q432 431 462 431Q475 431 483 424T494 412T496 403Q496 390 447 193T391 -23Q363 -106 294 -155T156 -205Q111 -205 77 -183T43 -117Q43 -95 50 -80T69 -58T89 -48T106 -45Q150 -45 150 -87Q150 -107 138 -122T115 -142T102 -147L99 -148Q101 -153 118 -160T152 -167H160Q177 -167 186 -165Q219 -156 247 -127T290 -65T313 -9T321 21L315 17Q309 13 296 6T270 -6Q250 -11 231 -11Q185 -11 150 11T104 82Q103 89 103 113Q103 170 138 262T173 379Q173 380 173 381Q173 390 173 393T169 400T158 404H154Q131 404 112 385T82 344T65 302T57 280Q55 278 41 278H27Q21 284 21 287Z"></path><path id="MJX-235-TEX-N-3D" d="M56 347Q56 360 70 367H707Q722 359 722 347Q722 336 708 328L390 327H72Q56 332 56 347ZM56 153Q56 168 72 173H708Q722 163 722 153Q722 140 707 133H70Q56 140 56 153Z"></path><path id="MJX-235-TEX-I-1D450" d="M34 159Q34 268 120 355T306 442Q362 442 394 418T427 355Q427 326 408 306T360 285Q341 285 330 295T319 325T330 359T352 380T366 386H367Q367 388 361 392T340 400T306 404Q276 404 249 390Q228 381 206 359Q162 315 142 235T121 119Q121 73 147 50Q169 26 205 26H209Q321 26 394 111Q403 121 406 121Q410 121 419 112T429 98T420 83T391 55T346 25T282 0T202 -11Q127 -11 81 37T34 159Z"></path><path id="MJX-235-TEX-N-33" d="M127 463Q100 463 85 480T69 524Q69 579 117 622T233 665Q268 665 277 664Q351 652 390 611T430 522Q430 470 396 421T302 350L299 348Q299 347 308 345T337 336T375 315Q457 262 457 175Q457 96 395 37T238 -22Q158 -22 100 21T42 130Q42 158 60 175T105 193Q133 193 151 175T169 130Q169 119 166 110T159 94T148 82T136 74T126 70T118 67L114 66Q165 21 238 21Q293 21 321 74Q338 107 338 175V195Q338 290 274 322Q259 328 213 329L171 330L168 332Q166 335 166 348Q166 366 174 366Q202 366 232 371Q266 376 294 413T322 525V533Q322 590 287 612Q265 626 240 626Q208 626 181 615T143 592T132 580H135Q138 579 143 578T153 573T165 566T175 555T183 540T186 520Q186 498 172 481T127 463Z"></path></defs><g stroke="currentColor" fill="currentColor" stroke-width="0" transform="translate(-2.76 17.660000000000004) scale(0.035025380710659894) scale(1,-1)"><g data-mml-node="math"><g data-mml-node="mi"><use data-c="1D466" xlink:href="#MJX-235-TEX-I-1D466"></use></g><g data-mml-node="mo" transform="translate(767.8,0)"><use data-c="3D" xlink:href="#MJX-235-TEX-N-3D"></use></g><g data-mml-node="msub" transform="translate(1823.6,0)"><g data-mml-node="mi"><use data-c="1D450" xlink:href="#MJX-235-TEX-I-1D450"></use></g><g data-mml-node="mn" transform="translate(466,-150) scale(0.707)"><use data-c="33" xlink:href="#MJX-235-TEX-N-33"></use></g></g></g></g></svg></g></svg></g><g transform="translate(104.75012919769051 10) rotate(0 55.9886360168457 11.5)"><svg overflow="visible" version="1.1" viewBox="0 0 111.9772720336914 23" width="111.9772720336914" height="23"><g font-family="Helvetica, Segoe UI Emoji" font-size="20px" color="#2f9e44"><text style="white-space: pre;" fill="#2f9e44" direction="ltr" text-anchor="start" x="0" y="21">Ground truth</text></g></svg></g><g stroke-linecap="round"><g transform="translate(287.8010422687664 127.47990002764061) rotate(0 88.25262194950886 0)"><path d="M0 0 C29.42 0, 147.09 0, 176.51 0" stroke="#1e1e1e" stroke-width="2.5" fill="none" stroke-dasharray="8 10"></path></g><g transform="translate(287.8010422687664 127.47990002764061) rotate(0 88.25262194950886 0)"><path d="M0 0 L13.59 -6.34 L13.59 6.34 L0 0" stroke="none" stroke-width="0" fill="#1e1e1e" fill-rule="evenodd"></path><path d="M0 0 C3.64 -1.7, 7.28 -3.4, 13.59 -6.34 M13.59 -6.34 C13.59 -1.89, 13.59 2.56, 13.59 6.34 M13.59 6.34 C8.2 3.82, 2.8 1.31, 0 0 M0 0 C0 0, 0 0, 0 0" stroke="#1e1e1e" stroke-width="2.5" fill="none"></path></g><g transform="translate(287.8010422687664 127.47990002764061) rotate(0 88.25262194950886 0)"><path d="M176.51 0 L162.91 6.34 L162.91 -6.34 L176.51 0" stroke="none" stroke-width="0" fill="#1e1e1e" fill-rule="evenodd"></path><path d="M176.51 0 C172.86 1.7, 169.22 3.4, 162.91 6.34 M162.91 6.34 C162.91 1.89, 162.91 -2.56, 162.91 -6.34 M162.91 -6.34 C168.31 -3.82, 173.7 -1.31, 176.51 0 M176.51 0 C176.51 0, 176.51 0, 176.51 0" stroke="#1e1e1e" stroke-width="2.5" fill="none"></path></g></g><mask></mask><g stroke-linecap="round"><g transform="translate(534.4185385876614 220.23366317743807) rotate(0 102.18585090162958 0)"><path d="M0 0 C34.06 0, 170.31 0, 204.37 0 M0 0 C34.06 0, 170.31 0, 204.37 0" stroke="#1e1e1e" stroke-width="2" fill="none"></path></g></g><mask></mask><g stroke-linecap="round" transform="translate(563.9355732131609 94.89867376564644) rotate(0 20.16668701171875 62.66749470589576)"><path d="M0 0 L40.33 0 L40.33 125.33 L0 125.33" stroke="none" stroke-width="0" fill="#eebefa"></path><path d="M0 0 C15.11 0, 30.23 0, 40.33 0 M0 0 C13.94 0, 27.89 0, 40.33 0 M40.33 0 C40.33 42.22, 40.33 84.44, 40.33 125.33 M40.33 0 C40.33 38.57, 40.33 77.13, 40.33 125.33 M40.33 125.33 C29.73 125.33, 19.12 125.33, 0 125.33 M40.33 125.33 C30.13 125.33, 19.92 125.33, 0 125.33 M0 125.33 C0 83.68, 0 42.02, 0 0 M0 125.33 C0 88.77, 0 52.21, 0 0" stroke="#1e1e1e" stroke-width="2" fill="none"></path></g><g stroke-linecap="round" transform="translate(620.0405469544072 214.22896016717118) rotate(0 20.16668701171875 3.0023515051337313)"><path d="M0 0 L40.33 0 L40.33 6 L0 6" stroke="none" stroke-width="0" fill="#eebefa"></path><path d="M0 0 C12.76 0, 25.52 0, 40.33 0 M0 0 C10.25 0, 20.51 0, 40.33 0 M40.33 0 C40.33 1.91, 40.33 3.82, 40.33 6 M40.33 0 C40.33 2.16, 40.33 4.32, 40.33 6 M40.33 6 C32.08 6, 23.82 6, 0 6 M40.33 6 C24.97 6, 9.62 6, 0 6 M0 6 C0 4.58, 0 3.16, 0 0 M0 6 C0 3.69, 0 1.38, 0 0" stroke="#1e1e1e" stroke-width="2" fill="none"></path></g><g stroke-linecap="round" transform="translate(674.7464197313531 204.04274109566654) rotate(0 20.16668701171875 8.095461040885937)"><path d="M0 0 L40.33 0 L40.33 16.19 L0 16.19" stroke="none" stroke-width="0" fill="#eebefa"></path><path d="M0 0 C8.55 0, 17.1 0, 40.33 0 M0 0 C8.92 0, 17.84 0, 40.33 0 M40.33 0 C40.33 4.74, 40.33 9.49, 40.33 16.19 M40.33 0 C40.33 6.18, 40.33 12.36, 40.33 16.19 M40.33 16.19 C27.3 16.19, 14.26 16.19, 0 16.19 M40.33 16.19 C30.46 16.19, 20.59 16.19, 0 16.19 M0 16.19 C0 11.8, 0 7.42, 0 0 M0 16.19 C0 10.36, 0 4.53, 0 0" stroke="#1e1e1e" stroke-width="2" fill="none"></path></g><g stroke-linecap="round"><g transform="translate(533.8047760022542 230.8682581552937) rotate(0 0 -97.60601944460689)"><path d="M0 0 C0 -32.54, 0 -162.68, 0 -195.21 M0 0 C0 -32.54, 0 -162.68, 0 -195.21" stroke="#1e1e1e" stroke-width="2" fill="none"></path></g><g transform="translate(533.8047760022542 230.8682581552937) rotate(0 0 -97.60601944460689)"><path d="M0 -195.21 L6.34 -181.62 L-6.34 -181.62 L0 -195.21" stroke="none" stroke-width="0" fill="#1e1e1e" fill-rule="evenodd"></path><path d="M0 -195.21 C1.36 -192.31, 2.71 -189.4, 6.34 -181.62 M0 -195.21 C2.01 -190.91, 4.02 -186.6, 6.34 -181.62 M6.34 -181.62 C3.25 -181.62, 0.17 -181.62, -6.34 -181.62 M6.34 -181.62 C2.82 -181.62, -0.71 -181.62, -6.34 -181.62 M-6.34 -181.62 C-4.59 -185.36, -2.85 -189.1, 0 -195.21 M-6.34 -181.62 C-3.87 -186.9, -1.41 -192.19, 0 -195.21 M0 -195.21 C0 -195.21, 0 -195.21, 0 -195.21 M0 -195.21 C0 -195.21, 0 -195.21, 0 -195.21" stroke="#1e1e1e" stroke-width="2" fill="none"></path></g></g><mask></mask><g stroke-linecap="round"><g transform="translate(529.5413593711329 69.03815362875957) rotate(0 5.343749058912408 0)"><path d="M0 0 C3.53 0, 7.07 0, 10.69 0 M0 0 C3.51 0, 7.02 0, 10.69 0" stroke="#1e1e1e" stroke-width="2" fill="none"></path></g></g><mask></mask><g transform="translate(488.32351627704895 55.084497133721015) rotate(0 14.458335876464844 11.5)"><svg overflow="visible" version="1.1" viewBox="0 0 28.916671752929688 23" width="28.916671752929688" height="23"><g font-family="Helvetica, Segoe UI Emoji" font-size="20px" color="#1e1e1e"><svg overflow="visible" style="vertical-align: -0.05ex;" xmlns="http://www.w3.org/2000/svg" width="2.891ex" height="1.557ex" role="img" focusable="false" viewBox="-2.76 -2.76 51.269 27.6" xmlns:xlink="http://www.w3.org/1999/xlink" x="0" y="5.933349609375"><defs><path id="MJX-159-TEX-N-31" d="M213 578L200 573Q186 568 160 563T102 556H83V602H102Q149 604 189 617T245 641T273 663Q275 666 285 666Q294 666 302 660V361L303 61Q310 54 315 52T339 48T401 46H427V0H416Q395 3 257 3Q121 3 100 0H88V46H114Q136 46 152 46T177 47T193 50T201 52T207 57T213 61V578Z"></path><path id="MJX-159-TEX-N-2E" d="M78 60Q78 84 95 102T138 120Q162 120 180 104T199 61Q199 36 182 18T139 0T96 17T78 60Z"></path><path id="MJX-159-TEX-N-30" d="M96 585Q152 666 249 666Q297 666 345 640T423 548Q460 465 460 320Q460 165 417 83Q397 41 362 16T301 -15T250 -22Q224 -22 198 -16T137 16T82 83Q39 165 39 320Q39 494 96 585ZM321 597Q291 629 250 629Q208 629 178 597Q153 571 145 525T137 333Q137 175 145 125T181 46Q209 16 250 16Q290 16 318 46Q347 76 354 130T362 333Q362 478 354 524T321 597Z"></path></defs><g stroke="currentColor" fill="currentColor" stroke-width="0" transform="translate(-2.76 23.957) scale(0.04011627906976744) scale(1,-1)"><g data-mml-node="math"><g data-mml-node="mn"><use data-c="31" xlink:href="#MJX-159-TEX-N-31"></use><use data-c="2E" xlink:href="#MJX-159-TEX-N-2E" transform="translate(500,0)"></use><use data-c="30" xlink:href="#MJX-159-TEX-N-30" transform="translate(778,0)"></use></g></g></g></svg></g></svg></g><g transform="translate(560.6603627977184 59.757109288610536) rotate(0 70.0250015258789 11.991668701171875)"><svg overflow="visible" version="1.1" viewBox="0 0 140.0500030517578 23.98333740234375" width="140.0500030517578" height="23.98333740234375"><g font-family="Helvetica, Segoe UI Emoji" font-size="20px" color="#1e1e1e"><svg overflow="visible" style="vertical-align: -0.566ex;" xmlns="http://www.w3.org/2000/svg" width="14.005ex" height="2.398ex" role="img" focusable="false" viewBox="-2.878 -2.878 168.07 28.78" xmlns:xlink="http://www.w3.org/1999/xlink" x="0" y="2.683349609375"><defs><path id="MJX-228-TEX-I-1D45E" d="M33 157Q33 258 109 349T280 441Q340 441 372 389Q373 390 377 395T388 406T404 418Q438 442 450 442Q454 442 457 439T460 434Q460 425 391 149Q320 -135 320 -139Q320 -147 365 -148H390Q396 -156 396 -157T393 -175Q389 -188 383 -194H370Q339 -192 262 -192Q234 -192 211 -192T174 -192T157 -193Q143 -193 143 -185Q143 -182 145 -170Q149 -154 152 -151T172 -148Q220 -148 230 -141Q238 -136 258 -53T279 32Q279 33 272 29Q224 -10 172 -10Q117 -10 75 30T33 157ZM352 326Q329 405 277 405Q242 405 210 374T160 293Q131 214 119 129Q119 126 119 118T118 106Q118 61 136 44T179 26Q233 26 290 98L298 109L352 326Z"></path><path id="MJX-228-TEX-N-31" d="M213 578L200 573Q186 568 160 563T102 556H83V602H102Q149 604 189 617T245 641T273 663Q275 666 285 666Q294 666 302 660V361L303 61Q310 54 315 52T339 48T401 46H427V0H416Q395 3 257 3Q121 3 100 0H88V46H114Q136 46 152 46T177 47T193 50T201 52T207 57T213 61V578Z"></path><path id="MJX-228-TEX-N-3D" d="M56 347Q56 360 70 367H707Q722 359 722 347Q722 336 708 328L390 327H72Q56 332 56 347ZM56 153Q56 168 72 173H708Q722 163 722 153Q722 140 707 133H70Q56 140 56 153Z"></path><path id="MJX-228-TEX-I-1D45D" d="M23 287Q24 290 25 295T30 317T40 348T55 381T75 411T101 433T134 442Q209 442 230 378L240 387Q302 442 358 442Q423 442 460 395T497 281Q497 173 421 82T249 -10Q227 -10 210 -4Q199 1 187 11T168 28L161 36Q160 35 139 -51T118 -138Q118 -144 126 -145T163 -148H188Q194 -155 194 -157T191 -175Q188 -187 185 -190T172 -194Q170 -194 161 -194T127 -193T65 -192Q-5 -192 -24 -194H-32Q-39 -187 -39 -183Q-37 -156 -26 -148H-6Q28 -147 33 -136Q36 -130 94 103T155 350Q156 355 156 364Q156 405 131 405Q109 405 94 377T71 316T59 280Q57 278 43 278H29Q23 284 23 287ZM178 102Q200 26 252 26Q282 26 310 49T356 107Q374 141 392 215T411 325V331Q411 405 350 405Q339 405 328 402T306 393T286 380T269 365T254 350T243 336T235 326L232 322Q232 321 229 308T218 264T204 212Q178 106 178 102Z"></path><path id="MJX-228-TEX-N-28" d="M94 250Q94 319 104 381T127 488T164 576T202 643T244 695T277 729T302 750H315H319Q333 750 333 741Q333 738 316 720T275 667T226 581T184 443T167 250T184 58T225 -81T274 -167T316 -220T333 -241Q333 -250 318 -250H315H302L274 -226Q180 -141 137 -14T94 250Z"></path><path id="MJX-228-TEX-I-1D466" d="M21 287Q21 301 36 335T84 406T158 442Q199 442 224 419T250 355Q248 336 247 334Q247 331 231 288T198 191T182 105Q182 62 196 45T238 27Q261 27 281 38T312 61T339 94Q339 95 344 114T358 173T377 247Q415 397 419 404Q432 431 462 431Q475 431 483 424T494 412T496 403Q496 390 447 193T391 -23Q363 -106 294 -155T156 -205Q111 -205 77 -183T43 -117Q43 -95 50 -80T69 -58T89 -48T106 -45Q150 -45 150 -87Q150 -107 138 -122T115 -142T102 -147L99 -148Q101 -153 118 -160T152 -167H160Q177 -167 186 -165Q219 -156 247 -127T290 -65T313 -9T321 21L315 17Q309 13 296 6T270 -6Q250 -11 231 -11Q185 -11 150 11T104 82Q103 89 103 113Q103 170 138 262T173 379Q173 380 173 381Q173 390 173 393T169 400T158 404H154Q131 404 112 385T82 344T65 302T57 280Q55 278 41 278H27Q21 284 21 287Z"></path><path id="MJX-228-TEX-N-5E" d="M112 560L249 694L257 686Q387 562 387 560L361 531Q359 532 303 581L250 627L195 580Q182 569 169 557T148 538L140 532Q138 530 125 546L112 560Z"></path><path id="MJX-228-TEX-I-1D450" d="M34 159Q34 268 120 355T306 442Q362 442 394 418T427 355Q427 326 408 306T360 285Q341 285 330 295T319 325T330 359T352 380T366 386H367Q367 388 361 392T340 400T306 404Q276 404 249 390Q228 381 206 359Q162 315 142 235T121 119Q121 73 147 50Q169 26 205 26H209Q321 26 394 111Q403 121 406 121Q410 121 419 112T429 98T420 83T391 55T346 25T282 0T202 -11Q127 -11 81 37T34 159Z"></path><path id="MJX-228-TEX-N-29" d="M60 749L64 750Q69 750 74 750H86L114 726Q208 641 251 514T294 250Q294 182 284 119T261 12T224 -76T186 -143T145 -194T113 -227T90 -246Q87 -249 86 -250H74Q66 -250 63 -250T58 -247T55 -238Q56 -237 66 -225Q221 -64 221 250T66 725Q56 737 55 738Q55 746 60 749Z"></path></defs><g stroke="currentColor" fill="currentColor" stroke-width="0" transform="translate(-2.878 19.114) scale(0.0271509480026533) scale(1,-1)"><g data-mml-node="math"><g data-mml-node="msub"><g data-mml-node="mi"><use data-c="1D45E" xlink:href="#MJX-228-TEX-I-1D45E"></use></g><g data-mml-node="mn" transform="translate(479,-150) scale(0.707)"><use data-c="31" xlink:href="#MJX-228-TEX-N-31"></use></g></g><g data-mml-node="mo" transform="translate(1160.3,0)"><use data-c="3D" xlink:href="#MJX-228-TEX-N-3D"></use></g><g data-mml-node="mi" transform="translate(2216.1,0)"><use data-c="1D45D" xlink:href="#MJX-228-TEX-I-1D45D"></use></g><g data-mml-node="mo" transform="translate(2719.1,0)"><use data-c="28" xlink:href="#MJX-228-TEX-N-28"></use></g><g data-mml-node="TeXAtom" data-mjx-texclass="ORD" transform="translate(3108.1,0)"><g data-mml-node="mover"><g data-mml-node="mi"><use data-c="1D466" xlink:href="#MJX-228-TEX-I-1D466"></use></g><g data-mml-node="mo" transform="translate(300.6,16) translate(-250 0)"><use data-c="5E" xlink:href="#MJX-228-TEX-N-5E"></use></g></g></g><g data-mml-node="mo" transform="translate(3875.9,0)"><use data-c="3D" xlink:href="#MJX-228-TEX-N-3D"></use></g><g data-mml-node="msub" transform="translate(4931.7,0)"><g data-mml-node="mi"><use data-c="1D450" xlink:href="#MJX-228-TEX-I-1D450"></use></g><g data-mml-node="mn" transform="translate(466,-150) scale(0.707)"><use data-c="31" xlink:href="#MJX-228-TEX-N-31"></use></g></g><g data-mml-node="mo" transform="translate(5801.2,0)"><use data-c="29" xlink:href="#MJX-228-TEX-N-29"></use></g></g></g></svg></g></svg></g><g transform="translate(573.9587899280237 221.95980005528122) rotate(0 9.833335876464844 11.5)"><svg overflow="visible" version="1.1" viewBox="0 0 19.666671752929688 23" width="19.666671752929688" height="23"><g font-family="Helvetica, Segoe UI Emoji" font-size="20px" color="#1e1e1e"><svg overflow="visible" style="vertical-align: -0.339ex;" xmlns="http://www.w3.org/2000/svg" width="1.967ex" height="1.339ex" role="img" focusable="false" viewBox="-2.76 -2.76 40.542 27.6" xmlns:xlink="http://www.w3.org/1999/xlink" x="0" y="11"><defs><path id="MJX-172-TEX-I-1D450" d="M34 159Q34 268 120 355T306 442Q362 442 394 418T427 355Q427 326 408 306T360 285Q341 285 330 295T319 325T330 359T352 380T366 386H367Q367 388 361 392T340 400T306 404Q276 404 249 390Q228 381 206 359Q162 315 142 235T121 119Q121 73 147 50Q169 26 205 26H209Q321 26 394 111Q403 121 406 121Q410 121 419 112T429 98T420 83T391 55T346 25T282 0T202 -11Q127 -11 81 37T34 159Z"></path><path id="MJX-172-TEX-N-31" d="M213 578L200 573Q186 568 160 563T102 556H83V602H102Q149 604 189 617T245 641T273 663Q275 666 285 666Q294 666 302 660V361L303 61Q310 54 315 52T339 48T401 46H427V0H416Q395 3 257 3Q121 3 100 0H88V46H114Q136 46 152 46T177 47T193 50T201 52T207 57T213 61V578Z"></path></defs><g stroke="currentColor" fill="currentColor" stroke-width="0" transform="translate(-2.76 17.847) scale(0.04662162162162162) scale(1,-1)"><g data-mml-node="math"><g data-mml-node="msub"><g data-mml-node="mi"><use data-c="1D450" xlink:href="#MJX-172-TEX-I-1D450"></use></g><g data-mml-node="mn" transform="translate(466,-150) scale(0.707)"><use data-c="31" xlink:href="#MJX-172-TEX-N-31"></use></g></g></g></g></svg></g></svg></g><g transform="translate(630.0637636692701 221.95980005528122) rotate(0 9.833335876464844 11.5)"><svg overflow="visible" version="1.1" viewBox="0 0 19.666671752929688 23" width="19.666671752929688" height="23"><g font-family="Helvetica, Segoe UI Emoji" font-size="20px" color="#1e1e1e"><svg overflow="visible" style="vertical-align: -0.339ex;" xmlns="http://www.w3.org/2000/svg" width="1.967ex" height="1.339ex" role="img" focusable="false" viewBox="-2.76 -2.76 40.542 27.6" xmlns:xlink="http://www.w3.org/1999/xlink" x="0" y="11"><defs><path id="MJX-173-TEX-I-1D450" d="M34 159Q34 268 120 355T306 442Q362 442 394 418T427 355Q427 326 408 306T360 285Q341 285 330 295T319 325T330 359T352 380T366 386H367Q367 388 361 392T340 400T306 404Q276 404 249 390Q228 381 206 359Q162 315 142 235T121 119Q121 73 147 50Q169 26 205 26H209Q321 26 394 111Q403 121 406 121Q410 121 419 112T429 98T420 83T391 55T346 25T282 0T202 -11Q127 -11 81 37T34 159Z"></path><path id="MJX-173-TEX-N-32" d="M109 429Q82 429 66 447T50 491Q50 562 103 614T235 666Q326 666 387 610T449 465Q449 422 429 383T381 315T301 241Q265 210 201 149L142 93L218 92Q375 92 385 97Q392 99 409 186V189H449V186Q448 183 436 95T421 3V0H50V19V31Q50 38 56 46T86 81Q115 113 136 137Q145 147 170 174T204 211T233 244T261 278T284 308T305 340T320 369T333 401T340 431T343 464Q343 527 309 573T212 619Q179 619 154 602T119 569T109 550Q109 549 114 549Q132 549 151 535T170 489Q170 464 154 447T109 429Z"></path></defs><g stroke="currentColor" fill="currentColor" stroke-width="0" transform="translate(-2.76 17.847) scale(0.04662162162162162) scale(1,-1)"><g data-mml-node="math"><g data-mml-node="msub"><g data-mml-node="mi"><use data-c="1D450" xlink:href="#MJX-173-TEX-I-1D450"></use></g><g data-mml-node="mn" transform="translate(466,-150) scale(0.707)"><use data-c="32" xlink:href="#MJX-173-TEX-N-32"></use></g></g></g></g></svg></g></svg></g><g transform="translate(684.7696364462155 221.95980005528122) rotate(0 9.833335876464844 11.5)"><svg overflow="visible" version="1.1" viewBox="0 0 19.666671752929688 23" width="19.666671752929688" height="23"><g font-family="Helvetica, Segoe UI Emoji" font-size="20px" color="#1e1e1e"><svg overflow="visible" style="vertical-align: -0.375ex;" xmlns="http://www.w3.org/2000/svg" width="1.967ex" height="1.375ex" role="img" focusable="false" viewBox="-2.76 -2.76 39.501 27.6" xmlns:xlink="http://www.w3.org/1999/xlink" x="0" y="11"><defs><path id="MJX-174-TEX-I-1D450" d="M34 159Q34 268 120 355T306 442Q362 442 394 418T427 355Q427 326 408 306T360 285Q341 285 330 295T319 325T330 359T352 380T366 386H367Q367 388 361 392T340 400T306 404Q276 404 249 390Q228 381 206 359Q162 315 142 235T121 119Q121 73 147 50Q169 26 205 26H209Q321 26 394 111Q403 121 406 121Q410 121 419 112T429 98T420 83T391 55T346 25T282 0T202 -11Q127 -11 81 37T34 159Z"></path><path id="MJX-174-TEX-N-33" d="M127 463Q100 463 85 480T69 524Q69 579 117 622T233 665Q268 665 277 664Q351 652 390 611T430 522Q430 470 396 421T302 350L299 348Q299 347 308 345T337 336T375 315Q457 262 457 175Q457 96 395 37T238 -22Q158 -22 100 21T42 130Q42 158 60 175T105 193Q133 193 151 175T169 130Q169 119 166 110T159 94T148 82T136 74T126 70T118 67L114 66Q165 21 238 21Q293 21 321 74Q338 107 338 175V195Q338 290 274 322Q259 328 213 329L171 330L168 332Q166 335 166 348Q166 366 174 366Q202 366 232 371Q266 376 294 413T322 525V533Q322 590 287 612Q265 626 240 626Q208 626 181 615T143 592T132 580H135Q138 579 143 578T153 573T165 566T175 555T183 540T186 520Q186 498 172 481T127 463Z"></path></defs><g stroke="currentColor" fill="currentColor" stroke-width="0" transform="translate(-2.76 17.317999999999998) scale(0.045424623286701105) scale(1,-1)"><g data-mml-node="math"><g data-mml-node="msub"><g data-mml-node="mi"><use data-c="1D450" xlink:href="#MJX-174-TEX-I-1D450"></use></g><g data-mml-node="mn" transform="translate(466,-150) scale(0.707)"><use data-c="33" xlink:href="#MJX-174-TEX-N-33"></use></g></g></g></g></svg></g></svg></g><g transform="translate(601.9016636231589 10) rotate(0 44.352272033691406 11.5)"><svg overflow="visible" version="1.1" viewBox="0 0 88.70454406738281 23" width="88.70454406738281" height="23"><g font-family="Helvetica, Segoe UI Emoji" font-size="20px" color="#9c36b5"><text style="white-space: pre;" fill="#9c36b5" direction="ltr" text-anchor="start" x="0" y="21">Prediction</text></g></svg></g><g transform="translate(333.3604841340467 89.12520223034812) rotate(0 42.693180084228516 11.5)"><svg overflow="visible" version="1.1" viewBox="0 0 85.38636016845703 23" width="85.38636016845703" height="23"><g font-family="Helvetica, Segoe UI Emoji" font-size="20px" color="#1e1e1e"><text style="white-space: pre;" fill="#1e1e1e" direction="ltr" text-anchor="start" x="0" y="21">distance?</text></g></svg></g><g transform="translate(342.3263914910025 138.2534629587542) rotate(0 33.72727272727275 11.5)"><svg overflow="visible" version="1.1" viewBox="0 0 67.45454545454545 23" width="67.45454545454545" height="23"><g font-family="Helvetica, Segoe UI Emoji" font-size="20px" color="#1e1e1e"><text style="white-space: pre;" fill="#1e1e1e" direction="ltr" text-anchor="start" x="0" y="21">KL div?</text></g></svg></g></svg>